<svg xmlns="http://www.w3.org/2000/svg" width="22.668" height="25.906" viewBox="0 0 22.668 25.906"><defs><style>.a{fill:#ffd840;}</style></defs><g transform="translate(1.324 19.995)"><path class="a" d="M25.815,66.406a10.542,10.542,0,0,0,8.17-8.555,10.679,10.679,0,0,0-20.827.9,10.574,10.574,0,0,0,8.278,7.714,7.463,7.463,0,0,0,5.329,3.78A3.861,3.861,0,0,1,25.815,66.406Z" transform="translate(-13.469 -65.036)"/><path d="M-1.313-8.344A11.241,11.241,0,0,1,9.51-19.984,11.279,11.279,0,0,1,21.332-9.329,11.161,11.161,0,0,1,12.957,1.94,3.01,3.01,0,0,0,13.781,4.7a.692.692,0,0,1,.156.8.713.713,0,0,1-.727.4A8,8,0,0,1,7.525,2.052,11.432,11.432,0,0,1,1.466-1.5,10.946,10.946,0,0,1-1.313-8.344Zm21.225-.923a9.864,9.864,0,0,0-10.34-9.319A9.831,9.831,0,0,0,.107-8.406a9.774,9.774,0,0,0,8,9.149.712.712,0,0,1,.476.331,7.519,7.519,0,0,0,3.139,2.979,5.142,5.142,0,0,1-.071-2.842.7.7,0,0,1,.537-.526A9.769,9.769,0,0,0,19.912-9.267Z" transform="translate(0 0)"/><path d="M88.094,129.492H77.77a.746.746,0,1,1,0-1.492H88.094a.746.746,0,1,1,0,1.492Z" transform="translate(-72.929 -138.489)"/><path d="M84.386,177.492h-6.64a.746.746,0,1,1,0-1.492h6.64a.746.746,0,1,1,0,1.492Z" transform="translate(-72.791 -182.906)"/><path d="M211.918,177.492a.747.747,0,1,1,.527-.219A.755.755,0,0,1,211.918,177.492Z" transform="translate(-196.823 -182.906)"/></g></svg>