<svg xmlns="http://www.w3.org/2000/svg" width="84" height="90.002" viewBox="0 0 84 90.002"><defs><style>.a{fill:#6b9fe8;}.b{fill:none;stroke:#fff;stroke-width:2px;}</style></defs><g transform="translate(-658 -1003.999)"><g transform="translate(153 -63)"><path class="a" d="M-12909.886,107.718A42.005,42.005,0,0,1-12947,66a42,42,0,0,1,42-42,42,42,0,0,1,42,42,42.005,42.005,0,0,1-37.114,41.719L-12905,114Z" transform="translate(13452 1043)"/></g><g transform="translate(-93 -314)"><path class="b" d="M2711.791,1379.489s.69-3.375-2.438-2.963-5.547,5.185-6.929,10.809-3.13,16.064,4.952,32.665" transform="translate(-1897 -41)"/><path class="b" d="M2673.25,1402s-2.261-1.714-1.5-3.5,1.811-1.539,3.375-1.5,26.75,0,26.75,0" transform="translate(-1897 -41)"/><path class="b" d="M2678.625,1396.967s-.8,13.59-6.247,23.275" transform="translate(-1897 -41)"/><path class="b" d="M2666.625,1416s7.4,9.25,22.375,9.25a36.563,36.563,0,0,0,24.249-9.25" transform="translate(-1897 -41)"/><path class="b" d="M2676.5,1410.375h27" transform="translate(-1897 -41)"/><path class="b" d="M2676.5,1410.375h25.216" transform="translate(-1896 -45)"/><path class="b" d="M2683.375,1396.967v9.158" transform="translate(-1898.875 -41)"/><path class="b" d="M2683.375,1396.967v9.158" transform="translate(-1894.875 -41)"/><path class="b" d="M2683.375,1396.967v9.158" transform="translate(-1890.875 -41)"/><path class="b" d="M2683.375,1396.967v9.158" transform="translate(-1886.875 -41)"/><path class="b" d="M2683.375,1396.967v9.158" transform="translate(-1882.875 -41)"/></g></g></svg>