<svg xmlns="http://www.w3.org/2000/svg" width="84" height="90.002" viewBox="0 0 84 90.002"><defs><style>.a,.b,.c{fill:#6b9fe8;}.b,.d{stroke:#fff;stroke-width:2px;}.d,.f{fill:none;}.e,.g{stroke:none;}.g{fill:#fff;}</style></defs><g transform="translate(-1008 -1004)"><g transform="translate(503 -62.999)"><path class="a" d="M-12909.886,107.718A42.005,42.005,0,0,1-12947,66a42,42,0,0,1,42-42,42,42,0,0,1,42,42,42.005,42.005,0,0,1-37.114,41.719L-12905,114Z" transform="translate(13452 1043)"/></g><g transform="translate(0 2)"><g transform="translate(-101 -50)"><g class="b" transform="translate(1135 1084)"><circle class="e" cx="5.5" cy="5.5" r="5.5"/><circle class="f" cx="5.5" cy="5.5" r="4.5"/></g><g class="c" transform="translate(1133 1097)"><path class="e" d="M 15 18 L 1 18 L 1 7.740600109100342 C 1 4.023819923400879 4.14024019241333 1 8.000120162963867 1 C 11.85986995697021 1 15 4.023819923400879 15 7.740600109100342 L 15 18 Z"/><path class="g" d="M 14 17 L 14 7.740600109100342 C 14 4.575220108032227 11.30846977233887 2 8.000120162963867 2 C 4.69163990020752 2 2 4.575220108032227 2 7.740600109100342 L 2 17 L 14 17 M 16 19 L 0 19 L 0 7.740600109100342 C 0 3.46560001373291 3.581789970397949 0 8.000120162963867 0 C 12.41833972930908 0 16 3.46560001373291 16 7.740600109100342 L 16 19 Z"/></g></g><g transform="translate(-80 -50)"><g class="b" transform="translate(1135 1084)"><circle class="e" cx="5.5" cy="5.5" r="5.5"/><circle class="f" cx="5.5" cy="5.5" r="4.5"/></g><g class="c" transform="translate(1133 1097)"><path class="e" d="M 15 18 L 1 18 L 1 7.740600109100342 C 1 4.023819923400879 4.14024019241333 1 8.000120162963867 1 C 11.85986995697021 1 15 4.023819923400879 15 7.740600109100342 L 15 18 Z"/><path class="g" d="M 14 17 L 14 7.740600109100342 C 14 4.575220108032227 11.30846977233887 2 8.000120162963867 2 C 4.69163990020752 2 2 4.575220108032227 2 7.740600109100342 L 2 17 L 14 17 M 16 19 L 0 19 L 0 7.740600109100342 C 0 3.46560001373291 3.581789970397949 0 8.000120162963867 0 C 12.41833972930908 0 16 3.46560001373291 16 7.740600109100342 L 16 19 Z"/></g></g><g transform="translate(1044 1041.314)"><g class="b" transform="translate(2 0.686)"><circle class="e" cx="4" cy="4" r="4"/><circle class="f" cx="4" cy="4" r="3"/></g><g class="c" transform="translate(0 9.686)"><path class="e" d="M 11 14 L 1 14 L 1 6.111000537872314 C 1 3.292790412902832 3.243030071258545 1.000000476837158 6.0000901222229 1.000000476837158 C 8.757049560546875 1.000000476837158 11 3.292790412902832 11 6.111000537872314 L 11 14 Z"/><path class="g" d="M 10 13 L 10 6.111000537872314 C 10 3.844190359115601 8.205650329589844 2.000000476837158 6.0000901222229 2.000000476837158 C 3.794430017471313 2.000000476837158 2 3.844190359115601 2 6.111000537872314 L 2 13 L 10 13 M 12 15 L -8.881784197001252e-16 15 L -8.881784197001252e-16 6.111000537872314 C -8.881784197001252e-16 2.736000537872314 2.686340093612671 4.76837158203125e-07 6.0000901222229 4.76837158203125e-07 C 9.313750267028809 4.76837158203125e-07 12 2.736000537872314 12 6.111000537872314 L 12 15 Z"/></g></g><path class="d" d="M3016.4,1034l24.177-17.739L3064.9,1034" transform="translate(-1991 2)"/></g></g></svg>