<svg xmlns="http://www.w3.org/2000/svg" width="84" height="89.001" viewBox="0 0 84 89.001"><defs><style>.a,.c{fill:#6b9fe8;}.b,.d,.f{fill:none;}.b,.c,.d{stroke:#fff;stroke-width:2px;}.b{stroke-linejoin:round;}.e{stroke:none;}</style></defs><g transform="translate(-308 -1005)"><g transform="translate(-197 -63)"><path class="a" d="M-12909.037,108.808A42,42,0,0,1-12947,67a42,42,0,0,1,42-42,42,42,0,0,1,42,42,42,42,0,0,1-37.962,41.808L-12905,114Z" transform="translate(13452 1043)"/></g><g transform="translate(745.123 -16.102) rotate(43)"><path class="b" d="M2413,1038l12.5,35.75L2438,1038Z" transform="translate(-1990)"/><ellipse class="c" cx="12.5" cy="3" rx="12.5" ry="3" transform="translate(423 1035)"/><path class="d" d="M2415.75,1045.875s11.106-2.831,18,4.5" transform="translate(-1990)"/><path class="d" d="M2417.5,1051.125s9.179,1.1,12.25,10" transform="translate(-1990)"/><path class="d" d="M2414.853,1024.273s3.963,3.842,4.514,13.093" transform="translate(-1990)"/><path class="d" d="M2435.32,1030.82a8.818,8.818,0,0,0-3.763,7.148" transform="translate(-1990)"/><path class="d" d="M2433.438,1020.21a8.386,8.386,0,0,0-4.74,7.374" transform="translate(-1990)"/><g class="d" transform="translate(432 1028)"><circle class="e" cx="2.5" cy="2.5" r="2.5"/><circle class="f" cx="2.5" cy="2.5" r="1.5"/></g><g class="d" transform="translate(447 1025)"><circle class="e" cx="1.5" cy="1.5" r="1.5"/><circle class="f" cx="1.5" cy="1.5" r="0.5"/></g><g class="d" transform="translate(419 1022)"><circle class="e" cx="2" cy="2" r="2"/><circle class="f" cx="2" cy="2" r="1"/></g><g class="d" transform="translate(419 1033)"><circle class="e" cx="1" cy="1" r="1"/><circle class="f" cx="1" cy="1"/></g><g class="d" transform="translate(450 1032)"><circle class="e" cx="0.5" cy="0.5" r="0.5"/><circle class="f" cx="0.5" cy="0.5" r="0.5"/></g><g class="d" transform="translate(437 1015)"><circle class="e" cx="1.5" cy="1.5" r="1.5"/><circle class="f" cx="1.5" cy="1.5" r="0.5"/></g></g></g></svg>