<svg xmlns="http://www.w3.org/2000/svg" width="84" height="90.002" viewBox="0 0 84 90.002"><defs><style>.a,.b{fill:#6b9fe8;}.c{fill:none;stroke-width:2px;}.c,.d{stroke:#fff;}.d,.f{fill:#fff;}.e,.f{stroke:none;}</style></defs><g transform="translate(-658 -653.999)"><g transform="translate(153 -413)"><path class="a" d="M-12909.886,107.718A42.005,42.005,0,0,1-12947,66a42,42,0,0,1,42-42,42,42,0,0,1,42,42,42.005,42.005,0,0,1-37.114,41.719L-12905,114Z" transform="translate(13452 1043)"/></g><g transform="translate(0.917 1.66)"><g transform="matrix(0.966, 0.259, -0.259, 0.966, 679.236, 676.007)"><g class="b" transform="translate(0 0)"><path class="e" d="M 11.15805244445801 26.07542419433594 L 0.999878466129303 26.07515335083008 L 0.999878466129303 0.9999958872795105 L 11.15768337249756 0.9999958872795105 L 13.30123805999756 3.222375869750977 L 14.02099800109863 3.9685959815979 L 14.74075889587402 3.222375869750977 L 16.88430404663086 0.9999958872795105 L 47.3489990234375 0.9999958872795105 L 47.3489990234375 26.07429313659668 L 16.88364410400391 26.07511520385742 L 14.74085807800293 23.85286521911621 L 14.02099800109863 23.10631561279297 L 13.30113887786865 23.85286521911621 L 11.15805244445801 26.07542419433594 Z"/><path class="f" d="M 10.73314666748047 25.07541275024414 L 12.58127880096436 23.15874671936035 L 14.02099800109863 21.66563606262207 L 15.46071815490723 23.15874671936035 L 17.30855178833008 25.07510375976562 L 46.3489990234375 25.07431983947754 L 46.3489990234375 1.999995946884155 L 17.30912208557129 1.999995946884155 L 15.46050834655762 3.916595935821533 L 14.02099800109863 5.409045696258545 L 12.58148860931396 3.916595935821533 L 10.73286724090576 1.999995946884155 L 1.999878525733948 1.999995946884155 L 1.999878525733948 25.07518005371094 L 10.73314666748047 25.07541275024414 M 11.58288860321045 27.07543563842773 L 11.58263874053955 27.07543563842773 L -0.0001215234369738027 27.07512664794922 L -0.0001215234369738027 -4.088134573976276e-06 L 11.58251857757568 -4.088134573976276e-06 L 14.02099800109863 2.528146028518677 L 16.45946884155273 -4.088134573976276e-06 L 48.3489990234375 -4.088134573976276e-06 L 48.3489990234375 27.07426643371582 L 16.45873832702637 27.07512664794922 L 14.02099800109863 24.5469856262207 L 11.58324813842773 27.07513618469238 L 11.58288860321045 27.07543563842773 Z"/></g><line class="c" y2="2.901" transform="translate(14.021 6.285)"/><line class="c" y2="2.901" transform="translate(14.021 12.087)"/><line class="c" y2="2.901" transform="translate(14.021 17.889)"/><path class="d" d="M3.87,9.608a3.7,3.7,0,0,0,2.624-1A5.136,5.136,0,0,0,7.717,4.871c0-3-1.423-4.737-3.848-4.737C1.423.133,0,1.89,0,4.871A5.136,5.136,0,0,0,1.223,8.607,3.717,3.717,0,0,0,3.87,9.608Zm0-8.162c1.512,0,2.357,1.223,2.357,3.425C6.227,7.05,5.36,8.3,3.87,8.3,2.357,8.3,1.49,7.05,1.49,4.871S2.335,1.446,3.87,1.446ZM1.624,17.036l.934.734L16.035.712,15.1,0Zm12.188.623a3.7,3.7,0,0,0,2.624-1,5.114,5.114,0,0,0,1.223-3.714c0-3.025-1.4-4.759-3.848-4.759s-3.87,1.757-3.87,4.737a5.136,5.136,0,0,0,1.223,3.736A3.625,3.625,0,0,0,13.811,17.659Zm0-8.162c1.512,0,2.357,1.223,2.357,3.425,0,2.18-.867,3.425-2.357,3.425-1.512,0-2.38-1.245-2.38-3.425S12.277,9.5,13.811,9.5Z" transform="translate(24.048 4.893)"/></g></g></g></svg>