<svg xmlns="http://www.w3.org/2000/svg" width="84" height="90.002" viewBox="0 0 84 90.002"><defs><style>.a,.b{fill:#6b9fe8;}.b{stroke:#fff;stroke-width:2px;}.c{fill:#fff;font-size:20px;font-family:HiraginoSans-W6, Hiragino Sans;}</style></defs><g transform="translate(-1008 -653.999)"><g transform="translate(503 -413)"><path class="a" d="M-12909.886,107.718A42.005,42.005,0,0,1-12947,66a42,42,0,0,1,42-42,42,42,0,0,1,42,42,42.005,42.005,0,0,1-37.114,41.719L-12905,114Z" transform="translate(13452 1043)"/></g><g transform="translate(1024.404 672.723)"><path class="b" d="M2919.333,691.609l25.6-20.942,25.928,20.942" transform="translate(-2919.333 -670.667)"/><path class="b" d="M3022,685.917v25.6h35.238V684.943" transform="translate(-3014.354 -670.627)"/></g><text class="c" transform="translate(1050 705)"><tspan x="-10" y="0">＄</tspan></text></g></svg>