<svg xmlns="http://www.w3.org/2000/svg" width="84" height="90.001" viewBox="0 0 84 90.001"><defs><style>.a{fill:#6b9fe8;}.b{fill:none;}.c,.d{stroke:none;}.d{fill:#fff;}</style></defs><g transform="translate(-658 -1354)"><path class="a" d="M-12909.886,107.718A42.005,42.005,0,0,1-12947,66a42,42,0,0,1,42-42,42,42,0,0,1,42,42,42.005,42.005,0,0,1-37.114,41.719L-12905,114Z" transform="translate(13605 1330.001)"/><g class="b" transform="translate(2673.66 1379.66)"><path class="c" d="M-1980.05,33.68V23.729H-1990V9.95h9.95V0h13.778V9.95h9.951V23.729h-9.951V33.68Z"/><path class="d" d="M -1968.271484375 31.67980003356934 L -1968.271484375 23.72850036621094 L -1968.271484375 21.72850036621094 L -1966.271484375 21.72850036621094 L -1958.320190429688 21.72850036621094 L -1958.320190429688 11.95040130615234 L -1966.271484375 11.95040130615234 L -1968.271484375 11.95040130615234 L -1968.271484375 9.950401306152344 L -1968.271484375 2.000000953674316 L -1978.049560546875 2.000000953674316 L -1978.049560546875 9.950401306152344 L -1978.049560546875 11.95040130615234 L -1980.049560546875 11.95040130615234 L -1988 11.95040130615234 L -1988 21.72850036621094 L -1980.049560546875 21.72850036621094 L -1978.049560546875 21.72850036621094 L -1978.049560546875 23.72850036621094 L -1978.049560546875 31.67980003356934 L -1968.271484375 31.67980003356934 M -1966.271484375 33.67980194091797 L -1980.049560546875 33.67980194091797 L -1980.049560546875 23.72850036621094 L -1990 23.72850036621094 L -1990 9.950401306152344 L -1980.049560546875 9.950401306152344 L -1980.049560546875 9.704590411274694e-07 L -1966.271484375 9.704590411274694e-07 L -1966.271484375 9.950401306152344 L -1956.320190429688 9.950401306152344 L -1956.320190429688 23.72850036621094 L -1966.271484375 23.72850036621094 L -1966.271484375 33.67980194091797 Z"/></g></g></svg>