<svg xmlns="http://www.w3.org/2000/svg" width="14.5" height="11" viewBox="0 0 14.5 11">
  <path id="icon" d="M12.563-5.937A1.447,1.447,0,0,0,13-7a1.447,1.447,0,0,0-.437-1.062A1.447,1.447,0,0,0,11.5-8.5H11v3h.5A1.447,1.447,0,0,0,12.563-5.937ZM0-1H14A1.927,1.927,0,0,1,13.414.414,1.927,1.927,0,0,1,12,1H2A1.927,1.927,0,0,1,.586.414,1.927,1.927,0,0,1,0-1ZM13.617-9.117A2.871,2.871,0,0,1,14.5-7a2.89,2.89,0,0,1-.879,2.121A2.89,2.89,0,0,1,11.5-4H11v.25a1.684,1.684,0,0,1-.516,1.234A1.684,1.684,0,0,1,9.25-2H3.75a1.684,1.684,0,0,1-1.234-.516A1.684,1.684,0,0,1,2-3.75V-9.5a.481.481,0,0,1,.148-.352A.481.481,0,0,1,2.5-10h9A2.871,2.871,0,0,1,13.617-9.117Z" transform="translate(0 10)" fill="#fff"/>
</svg>
