<svg xmlns="http://www.w3.org/2000/svg" width="9.625" height="14" viewBox="0 0 9.625 14">
  <path id="icon" d="M2.625.164a.909.909,0,0,0,.137.492l.492.711a.8.8,0,0,0,.711.383h1.7a.8.8,0,0,0,.711-.383L6.863.656A.909.909,0,0,0,7,.164V-.875H2.625ZM0-7.437A4.663,4.663,0,0,0,.314-5.729,4.919,4.919,0,0,0,1.2-4.266a7.088,7.088,0,0,1,.766,1.094,6.263,6.263,0,0,1,.656,1.395v.027H7v-.027a6.263,6.263,0,0,1,.656-1.395,7.088,7.088,0,0,1,.766-1.094,4.919,4.919,0,0,0,.889-1.463,4.663,4.663,0,0,0,.314-1.709,4.661,4.661,0,0,0-.656-2.42,4.846,4.846,0,0,0-1.764-1.75,4.762,4.762,0,0,0-2.434-.643,4.613,4.613,0,0,0-2.447.684A4.843,4.843,0,0,0,.629-9.8,4.714,4.714,0,0,0,0-7.437ZM4.813-9.625a2.106,2.106,0,0,0-1.545.643,2.106,2.106,0,0,0-.643,1.545.426.426,0,0,1-.123.314A.426.426,0,0,1,2.188-7a.426.426,0,0,1-.314-.123.426.426,0,0,1-.123-.314,3.013,3.013,0,0,1,.41-1.531A3.008,3.008,0,0,1,3.281-10.09a3.013,3.013,0,0,1,1.531-.41.426.426,0,0,1,.314.123.426.426,0,0,1,.123.314.426.426,0,0,1-.123.314A.426.426,0,0,1,4.813-9.625Z" transform="translate(0 12.25)" fill="#fff"/>
</svg>
