<svg xmlns="http://www.w3.org/2000/svg" width="300" height="190" viewBox="0 0 300 190"><defs><style>.a{fill:#fff;}</style></defs><path class="a" d="M112.263,13.486C126.868,25.55,144.079,21.5,149.684,0c10.184,24.894,43.934,37.65,65.763,19.645-6.118,18.843,16.855,18.406,49.066,1.385-20.8,21.249-6.316,37.723,27,27.336C260.724,64.293,264.868,87.656,300,89.988c-36.553,5.54-38.921,26.789-8.21,35.937-33.316-.182-45.671,23.873-31.342,35.755-17.013-5.5-41.013,3.134-27.118,23.727-23.053-16.693-46.895-18.479-46.461,2.041-12.474-19.171-45.632-23-57.908-2.15-.553-18.734-25.974-19.354-42.2,4.7,8.092-26.9-14.724-38.379-46.5-24.274,23.961-21.759-3-38.015-40.263-34.224,37.421-13.814,40.421-41.769,1.895-52.047C45.434,78.107,44.368,59.3,27,47.564c16.618,4.155,26.487-4.957,13.737-29.194,33.592,18.989,51.355,20.155,36.395-1.859C100.421,33.131,118.184,35.026,112.263,13.486Z" transform="translate(0)"/></svg>