<svg xmlns="http://www.w3.org/2000/svg" width="260" height="160" viewBox="0 0 260 160">
  <path id="Path_13973" data-name="Path 13973" d="M661.227,6248.714c-17.822-10.487-42.464-6.22-50.6-5.662-29.691,2.113-60.136-3.549-89.827-1.436-17.9,1.237-81.8-7.935-99.7,7.338-16.127,13.677-8.1,51.479-8.1,78.714s-2,39.8,29.691,44.023c26.407,3.489,30.625,3.516,46.19,3.429,3.113-.018,6.68-.04,10.969-.04,8.363-.083,16.363-1.083,24.363.917,11,3,7,17,14,24,4-32,39-29,63.141-27.958,3.832-.071,7.574-.131,11.106-.182,10.575-.154,19.305-.234,20.888-.13,30.746,2.034,37.227-5.024,35.267-40.633C666.653,6295.448,679.049,6259.2,661.227,6248.714Z" transform="translate(-411 -6240)" fill="#fff"/>
</svg>
