<svg xmlns="http://www.w3.org/2000/svg" width="266.923" height="26" viewBox="0 0 266.923 26"><g transform="translate(-133.045 -346.181)"><path d="M154.391,357.45c.633-.95,1.439-2.072,1.9-2.072.6,0,2.588,1.813,2.588,2.533,0,.432-.547.688-1.5.688H152.29c.345.2.6.434.6.691,0,.288-.259.518-1.034.633a19.055,19.055,0,0,1-2.3,5.611,17.162,17.162,0,0,1,6.875,3.8c1.151,1.151.806,2.619-.372,2.619a2.338,2.338,0,0,1-1.5-.693,29.851,29.851,0,0,0-6.273-4.054,10.148,10.148,0,0,1-.976.976c-2.677,2.245-7.021,3.627-12.658,3.972-.892.058-.892-.835-.086-.981,4.891-.861,9.091-2.1,11.478-4.543l.23-.262a41.521,41.521,0,0,0-4.92-1.319c-.086.17-.173.314-.23.458-.23.633-.72.748-1.609.66-.662-.055-.921-.372-.691-.89a62.573,62.573,0,0,0,2.761-6.676h-7.911c-.374,0-.633-.115-.633-.573,0-.432.259-.576.633-.576h8.314a41.414,41.414,0,0,0,1.468-5.064.438.438,0,0,1,.518-.374c1.437.23,2.675.777,2.675,1.324,0,.4-.547.6-1.324.6l-1.18,3.509Zm-16.541-6.129v.576c-.086,2.272-1.266,3.826-2.85,3.912a1.109,1.109,0,0,1-1.235-1.091c-.086-1.267,1.468-1.612,2.185-3.2a5.856,5.856,0,0,0,.345-2.648.516.516,0,0,1,1.008-.2,8.276,8.276,0,0,1,.4,1.5h7.162a33.822,33.822,0,0,0-.086-3.536.364.364,0,0,1,.4-.434c.489,0,3.339.086,3.339.866,0,.573-.6.8-1.5,1.005v2.1h7.537c.518-.544,1.094-1.094,1.41-1.094.489,0,2.473,1.641,2.444,2.533-.029.549-.72.691-1.552.95a25.333,25.333,0,0,1-2.648,2.214c-.633.4-1.209-.055-.864-.66a15.212,15.212,0,0,0,1.324-2.792Zm11.794,7.278h-5.9c-.631,1.871-1.322,3.857-1.9,5.265,1.9.259,3.768.6,5.582,1.036a16.073,16.073,0,0,0,2.214-6.27Z" transform="translate(0 0.027)"/><path d="M170.65,357.074a2.394,2.394,0,0,0-1.18.864c-.374.573-.633.748-1.353.518-3.481-1.3-7.566-4.69-10.125-9.554a32.836,32.836,0,0,1-12.948,11.71c-.717.345-1.149-.461-.487-.921,5.265-3.6,9.233-7.623,11.766-13.176a.525.525,0,0,1,.662-.317c1.091.2,2.588.748,2.588,1.238,0,.261-.23.4-.892.489a19.8,19.8,0,0,0,11.854,8.259C171.456,356.385,171.224,356.872,170.65,357.074Zm-6.071,13c.633-.95,1.468-2.072,1.957-2.072.6,0,2.732,1.813,2.732,2.533,0,.432-.518.691-1.612.691H146.339c-.374,0-.633-.115-.633-.576,0-.432.259-.576.633-.576h9.955v-5.236h-6.5c-.372,0-.631-.115-.631-.573,0-.434.259-.578.631-.578h6.5v-4.543h-5.323c-.374,0-.633-.118-.633-.576,0-.432.259-.578.633-.578h9.609c.6-.89,1.353-1.9,1.785-1.9.573,0,2.531,1.727,2.531,2.416.029.4-.518.636-1.468.636H159c-.026.285-.228.487-.688.633v3.91h3.6c.6-.861,1.35-1.869,1.782-1.869.547,0,2.591,1.7,2.619,2.387,0,.4-.518.633-1.583.633h-6.414v5.236Z" transform="translate(15.644 0)"/><path d="M157.167,353.529a2.3,2.3,0,1,1,2.3,2.3A2.307,2.307,0,0,1,157.167,353.529Z" transform="translate(33.739 7.056)"/><path d="M182.476,357.45c.633-.95,1.439-2.072,1.9-2.072.6,0,2.588,1.813,2.588,2.533,0,.432-.547.688-1.5.688h-5.092c.345.2.6.434.6.691,0,.288-.259.518-1.034.633a19.056,19.056,0,0,1-2.3,5.611,17.162,17.162,0,0,1,6.875,3.8c1.151,1.151.806,2.619-.372,2.619a2.338,2.338,0,0,1-1.5-.693,29.85,29.85,0,0,0-6.273-4.054,10.407,10.407,0,0,1-.976.976c-2.677,2.245-7.021,3.627-12.658,3.972-.892.058-.892-.835-.086-.981,4.891-.861,9.091-2.1,11.478-4.543l.23-.262a41.52,41.52,0,0,0-4.92-1.319c-.086.17-.173.314-.23.458-.23.633-.72.748-1.61.66-.662-.055-.921-.372-.691-.89a62.555,62.555,0,0,0,2.761-6.676h-7.911c-.374,0-.633-.115-.633-.573,0-.432.259-.576.633-.576h8.314a41.434,41.434,0,0,0,1.468-5.064.437.437,0,0,1,.516-.374c1.439.23,2.677.777,2.677,1.324,0,.4-.547.6-1.324.6l-1.18,3.509Zm-16.541-6.129v.576c-.086,2.272-1.266,3.826-2.85,3.912a1.109,1.109,0,0,1-1.235-1.091c-.086-1.267,1.468-1.612,2.185-3.2a5.856,5.856,0,0,0,.345-2.648.516.516,0,0,1,1.007-.2,8.268,8.268,0,0,1,.4,1.5h7.163a33.826,33.826,0,0,0-.086-3.536.364.364,0,0,1,.4-.434c.489,0,3.339.086,3.339.866,0,.573-.6.8-1.5,1.005v2.1h7.537c.518-.544,1.094-1.094,1.408-1.094.492,0,2.475,1.641,2.447,2.533-.029.549-.72.691-1.552.95a25.342,25.342,0,0,1-2.648,2.214c-.633.4-1.209-.055-.863-.66a15.218,15.218,0,0,0,1.324-2.792Zm11.794,7.278h-5.9c-.631,1.871-1.322,3.857-1.9,5.265,1.9.259,3.768.6,5.579,1.036a16.038,16.038,0,0,0,2.216-6.27Z" transform="translate(39.283 0.027)"/><path d="M176.318,356.747c1.005,4.258-.748,7.911-2.994,7.911a1.23,1.23,0,0,1-1.324-1.3c0-1.293,1.238-1.609,2.044-2.7a5.689,5.689,0,0,0,.95-3.74A.669.669,0,0,1,176.318,356.747Zm4-4.085c1.984,0,3.308.317,3.308.976,0,.549-.6.837-1.5.981-.058,1.437-.086,11.65-.086,12.543,0,1.379.23,1.868,4.315,1.868,3.8,0,4.43-.576,4.718-1.382a20.744,20.744,0,0,0,.6-2.387.549.549,0,0,1,1.094.058c.029.489.057,1.408.086,2.128.058.979.662,1.154.662,1.785,0,.691-1.266,1.928-7.107,1.928-5.9,0-6.529-.835-6.529-3.48,0-1.154.144-12.056-.173-14.414C179.654,352.833,179.856,352.662,180.316,352.662Zm2.531-6.27c1.986.317,4.833,1.725,5.236,3.6a1.451,1.451,0,0,1-1.123,1.929c-.979.228-1.554-.78-2.473-1.96a17.513,17.513,0,0,0-2.216-2.473C181.753,346.966,181.955,346.246,182.847,346.392ZM193.838,356c1.84.892,4.373,3.281,4.286,5.208a1.468,1.468,0,0,1-1.554,1.612c-1.036-.029-1.324-1.238-1.929-2.735A22.233,22.233,0,0,0,193,356.863C192.658,356.258,193.032,355.6,193.838,356Z" transform="translate(54.486 0.268)"/><path d="M191.936,356.132c.374-.518.8-1.007,1.091-1.007.547,0,2.13,1.209,2.13,1.842,0,.374-.461.633-.921.806-.058,2.216.029,8.228.029,9.379,0,.89-.432,1.091-1.18,1.091-.662,0-.832-.518-.832-.976v-.549h-3.6v3.022c0,.633-.4.921-1.209.921-.489,0-.748-.288-.748-.806.029-.748.086-5.611.086-8.976a24.56,24.56,0,0,1-2.732,3.883c-.547.633-1.267.173-.835-.573a33.153,33.153,0,0,0,5.035-14.529h-3.915c-.372,0-.631-.118-.631-.576,0-.432.259-.576.631-.576h7.769c.573-.835,1.235-1.756,1.638-1.756.547,0,2.3,1.667,2.3,2.3,0,.4-.547.6-1.324.6H191.59c.029.372-.345.633-1.151.8a51.527,51.527,0,0,1-1.554,5.642l.031.026Zm.343,9.436c0-2.447.06-6.7.031-8.285h-3.6c-.089,1.18-.089,4.977-.089,5.838v2.447Zm14.5-7.393c.576-.921,1.3-1.9,1.7-1.9.576,0,2.243,1.753,2.274,2.418,0,.429-.6.631-1.267.631h-3.454v.376c0,6.328.144,9.866.144,10.988,0,.6-.487,1.034-1.437,1.034-.576,0-.806-.317-.806-.861,0-1.238.115-4.718.115-11.161v-.376h-3.423c-.144,5.181-1.41,9.724-7.251,12.43-.775.316-1.235-.319-.489-.864,4.143-2.818,5.611-5.265,5.812-11.567h-3.25c-.374,0-.633-.115-.633-.576,0-.432.259-.573.633-.573h3.279c.029-2.619-.058-6.157-.317-8.774h-1.638c-.374,0-.633-.115-.633-.578,0-.429.259-.573.633-.573h9.146c.6-.864,1.324-1.869,1.756-1.869.576,0,2.5,1.7,2.5,2.387,0,.4-.545.633-1.466.633h-1.871a.255.255,0,0,1,.029.141c0,.288-.257.52-.835.6v8.028Zm-2.732,0V349.4H201.6c-.031.343-.4.516-.921.6.058,2.387.029,5.38-.029,8.17Z" transform="translate(69.994 0.28)"/><path d="M211.43,361.794c.432-.547.921-1.094,1.238-1.094.633,0,2.387,1.526,2.387,2.159,0,.4-.547.631-1.149.8-.086,1.554-.173,3.943-.144,5.035.026.806.144,1.065,2.156,1.065,2.07,0,2.792-.288,3.109-.919a11.168,11.168,0,0,0,.631-1.873c.173-.689.921-.631.921.089-.029,2.617.547,2.272.547,3.078,0,.72-1.353,1.523-5.064,1.523-3.855,0-4.344-.489-4.344-2.615,0-1.182.086-4.03.144-6.1l-4.459.087c-.919,5.121-4.517,8.055-11.881,9-.835.115-.95-.835-.173-1.008,5.87-1.382,8.947-3.509,9.751-7.968l-6.472.113c-.374,0-.633-.086-.633-.544a.554.554,0,0,1,.633-.6l6.616-.115a17.449,17.449,0,0,0,0-3.049c-.026-.345.057-.492.461-.492.95,0,3.138.317,3.138.921,0,.374-.2.664-1.209.952a15.243,15.243,0,0,1-.086,1.638Zm-12.053-10.729v.573c-.086,2.1-1.209,3.828-2.79,3.828a1.134,1.134,0,0,1-1.18-1.183c0-1.322,1.437-1.379,2.156-3.078a6.692,6.692,0,0,0,.259-2.5c0-.662.748-.777,1.036-.144a8.367,8.367,0,0,1,.374,1.353h7.251a29.1,29.1,0,0,0-.089-3.279.364.364,0,0,1,.4-.434c.489,0,3.281.086,3.281.866,0,.6-.636.832-1.526,1.034v1.813h7.335c.489-.576,1.123-1.18,1.468-1.18.489,0,2.416,1.583,2.387,2.444,0,.578-.748.662-1.554.892A28.067,28.067,0,0,1,215.6,354c-.633.372-1.209-.117-.806-.722A16.928,16.928,0,0,0,216,351.065Zm4.718.489c1.238,0,2.934.487,2.934,1.091,0,.461-.4.691-1.324.748a7.254,7.254,0,0,1-1.84,4.027c-1.267,1.379-3.279,2.533-6.848,3.078-.775.144-1.034-.72-.259-1.008,2.677-.775,4.287-1.638,5.352-2.9a7.085,7.085,0,0,0,1.468-4.4C203.605,351.755,203.663,351.554,204.095,351.554Zm5.467,4.6c0-.892.084-2.763-.029-4.059-.029-.4.086-.518.489-.518.487,0,2.675.23,2.675.863,0,.345-.4.518-1.065.631-.058.866-.086,1.9-.058,2.706,0,.864.058,1.008,2.732,1.036,2.274.029,3.2-.23,3.6-.66a3.891,3.891,0,0,0,.746-1.47c.2-.573.921-.489.892.2-.086,1.842.432,1.583.4,2.3,0,.748-1.379,1.525-5.611,1.494S209.532,358.313,209.561,356.157Z" transform="translate(86.413 0.027)"/><path d="M214.072,347.783c.916,0,3.279.818,3.279,1.557,0,.808-.437,1.166-.633,3.375-.034.4-.072,1.07-.108,1.893,2.092-.6,4.229-1.18,5.373-1.588.679-.24,1.007-.748,1.727-.748,1.123,0,3.135,1.734,3.135,2.588,0,.664-.919.895-1.61,1.525a50.673,50.673,0,0,1-4.21,3.433c-.772.547-1.228-.094-.712-.7a25.642,25.642,0,0,0,2.619-3.624c.422-.739.257-1.163-.547-.95-1.089.293-3.771,1.089-5.843,1.782-.079,2.31-.142,4.989-.142,6.186,0,2.288.036,2.389,2.965,2.389a20.656,20.656,0,0,0,4.8-.777c1.276,0,2.156.413,2.156,1.034,0,.645-.386,1.01-1.262,1.264A25.262,25.262,0,0,1,219.8,367c-4.853,0-5.323-1.127-5.323-4.371v-5.563c-.712.276-1.583.621-2.387.959a9.6,9.6,0,0,1-2.821.948h0c-1.094,0-2.336-1.235-2.7-2.559-.144-.518.2-.813.662-.6a4.437,4.437,0,0,0,2.07.544,31.548,31.548,0,0,0,5.188-1.135c.026-1.888.091-3.433-.01-4.589-.058-.662-.149-.856-.979-1.353-.72-.429-1.007-.544-1.007-.892S213.295,347.783,214.072,347.783Z" transform="translate(102.785 2.241)"/><path d="M237.862,350.642c-3.284,4.8-9.194,9.864-14.445,13.1-.993.614-1.929,1.346-2.816,1.346a4.4,4.4,0,0,1-3.533-3.25.632.632,0,0,1,.892-.732c.545.29,1.051.705,1.6.957a2.831,2.831,0,0,0,2.516-.283,59.646,59.646,0,0,0,14.872-11.871A.586.586,0,1,1,237.862,350.642Zm-13.066,1.8a1.345,1.345,0,0,1-1.367,1.451,1.686,1.686,0,0,1-1.19-.65,24.064,24.064,0,0,0-4.078-3.586c-.5-.384-.216-1,.405-.931C221.469,349.062,224.8,350.383,224.8,352.441Z" transform="translate(117.507 3.551)"/><path d="M234.846,349.719c.139-.379.084-.626-.3-1-.434-.417-.864-.72-.864-.976,0-.288.345-.489.892-.489,1.243,0,3.567.957,3.567,1.667,0,.473-.712,1.147-1.235,1.912-.029.043-.058.084-.086.125.178,0,.341.007.485.007a20.68,20.68,0,0,0,3.236-.326c1.012-.2,1.353-.688,2.015-.688.919,0,2.953,1.233,2.953,2.048,0,.643-1.082,1.226-1.859,2.449A51.623,51.623,0,0,1,240.421,359a4.138,4.138,0,0,1,1.514,2.876c0,1.017-.425,1.581-1.209,1.581-.432,0-.8-.324-1.192-1.036a15.481,15.481,0,0,0-.854-1.37,37.794,37.794,0,0,1-11.667,8.676.582.582,0,1,1-.619-.986,49.876,49.876,0,0,0,10.95-9.324,18.862,18.862,0,0,0-4.74-3.389,22.991,22.991,0,0,1-4.8,3.5c-.78.41-1.331-.47-.614-1C230.183,356.333,233.846,352.425,234.846,349.719Zm.964,2.694a22.846,22.846,0,0,1-2.348,2.773,25.128,25.128,0,0,1,5.289,2.509,33.689,33.689,0,0,0,3.171-4.905c.324-.619.142-.9-.552-.8-.912.132-2.2.429-3.054.626a7.136,7.136,0,0,1-1.415.3A1.727,1.727,0,0,1,235.811,352.413Z" transform="translate(130.148 1.504)"/><path d="M236.2,351.427a5.118,5.118,0,0,0,2.456,1.077c2.442.158,8.957-.341,10.948-.506,2.456-.206,3.145-.47,4.3-.47,1.178,0,2.929.662,2.929,1.893,0,.429-.3.756-1.192.756s-1.792-.2-3.517-.2c-3.368,0-8.942.451-10.94.7a26.684,26.684,0,0,1-3.171.348c-1.238,0-2.619-1.859-2.619-3.21C235.385,351.326,235.742,351.132,236.2,351.427Z" transform="translate(143.143 7.143)"/></g></svg>