<svg xmlns="http://www.w3.org/2000/svg" width="84" height="90.001" viewBox="0 0 84 90.001"><defs><style>.a,.b{fill:#6b9fe8;}.b{stroke:#fff;stroke-width:2px;}.c{stroke:none;}.d{fill:none;}</style></defs><g transform="translate(-308 -1354)"><g transform="translate(-197 287.001)"><path class="a" d="M-12909.886,107.718A42.005,42.005,0,0,1-12947,66a42,42,0,0,1,42-42,42,42,0,0,1,42,42,42.005,42.005,0,0,1-37.114,41.719L-12905,114Z" transform="translate(13452 1043)"/></g><g transform="translate(-814.227 334.604)"><g class="b" transform="translate(1149.227 1052.319)"><rect class="c" width="31" height="29"/><rect class="d" x="1" y="1" width="29" height="27"/></g><path class="b" d="M3270.971,1037.722s2.356-10.5-3.614-10.324-3.722,7.523,2.57,10.324" transform="translate(-2106.982 16)"/><path class="b" d="M3263.751,1037.722s-2.356-10.5,3.614-10.324,4.047,7.523-2.245,10.324" transform="translate(-2099.457 16)"/><g class="b" transform="translate(1145.227 1052.319)"><rect class="c" width="39" height="7"/><rect class="d" x="1" y="1" width="37" height="5"/></g><g class="b" transform="translate(1161.227 1081.319) rotate(-90)"><rect class="c" width="29" height="7"/><rect class="d" x="1" y="1" width="27" height="5"/></g></g></g></svg>