<svg xmlns="http://www.w3.org/2000/svg" width="84" height="90.002" viewBox="0 0 84 90.002"><defs><style>.a,.b{fill:#6b9fe8;}.b,.c{stroke:#fff;stroke-width:2px;}.c,.e{fill:none;}.d{stroke:none;}</style></defs><g transform="translate(-308 -653.999)"><g transform="translate(-197 -413)"><path class="a" d="M-12909.886,107.718A42.005,42.005,0,0,1-12947,66a42,42,0,0,1,42-42,42,42,0,0,1,42,42,42.005,42.005,0,0,1-37.114,41.719L-12905,114Z" transform="translate(13452 1043)"/></g><g class="b" transform="translate(338 671)"><rect class="d" width="25" height="47"/><rect class="e" x="1" y="1" width="23" height="45"/></g><line class="c" x2="22" transform="translate(339.5 694.5)"/><path class="c" d="M2404.349,698.612s6.015-2.762,6.229-7.235-4.084-7.57-6.229-6.258.793,5.645,5.416,6.487" transform="translate(-2059.976 3.043)"/><path class="c" d="M2409.87,698.612s-6.015-2.762-6.229-7.235,4.084-7.57,6.229-6.258-.792,5.645-5.416,6.487" transform="translate(-2053.055 3.043)"/><path class="c" d="M2412.639,703.6v10.869" transform="translate(-2062.06 -0.858)"/><path class="c" d="M2412.639,703.6v4.581" transform="translate(-2062.06 -21.742)"/><path class="c" d="M2412.639,703.6v2.614" transform="translate(-2062.06 -26.115)"/><path class="c" d="M2412.639,703.6v4.492" transform="translate(-2065.683 1.474)"/></g></svg>