<svg xmlns="http://www.w3.org/2000/svg" viewBox="0 0 164.71 168.88"><defs><style>.cls-1{fill:#ff5100;}.cls-2{fill:#ce0e2d;}.cls-3{fill:#f37c1f;}.cls-4{fill:#c52533;}</style></defs><g id="レイヤー_2" data-name="レイヤー 2"><g id="Layer_1" data-name="Layer 1"><path class="cls-1" d="M100.53,0a44.36,44.36,0,1,0,44.36,44.36A44.36,44.36,0,0,0,100.53,0Zm0,67.69a23.33,23.33,0,1,1,23.33-23.33A23.33,23.33,0,0,1,100.53,67.69Z"/><path class="cls-2" d="M65.39,0a44.36,44.36,0,1,0,44.36,44.36A44.36,44.36,0,0,0,65.39,0Zm0,67.69A23.33,23.33,0,1,1,88.72,44.36,23.34,23.34,0,0,1,65.39,67.69Z"/><path class="cls-3" d="M100.53,0a44.36,44.36,0,1,0,44.36,44.36A44.36,44.36,0,0,0,100.53,0Zm0,67.69a23.33,23.33,0,1,1,23.33-23.33A23.33,23.33,0,0,1,100.53,67.69Z"/><path class="cls-4" d="M65.39,0a44.36,44.36,0,1,0,44.36,44.36A44.36,44.36,0,0,0,65.39,0Zm0,67.69A23.33,23.33,0,1,1,88.72,44.36,23.34,23.34,0,0,1,65.39,67.69Z"/><path d="M28,135.65H12.34l-2.83,7.48c-1.08,2.77-2.09,4.32-5.53,4.32-2.9,0-4-1.15-4-2.7a7,7,0,0,1,.67-2.56L15,107.6c1.21-3,2.29-4.79,5.53-4.79s4.24,1.89,5.46,4.86l13.82,34.59a7.12,7.12,0,0,1,.54,2.42c0,1.76-1.48,2.77-4.32,2.77-3.16,0-4.18-1.28-5.32-4.32Zm-12.81-7.42h10l-5-13.15Z"/><path d="M56.83,142.39c0,1.62,0,2.77-.67,3.64s-1.89,1.42-3.84,1.42S49.08,147,48.41,146s-.68-2-.68-3.64V107.94c0-1.49,0-2.7.68-3.58S50.29,103,52.32,103s3.17.47,3.84,1.41.67,2.09.67,3.58Z"/><path d="M86.59,142.39c-1.08,3.17-2.16,5.19-5.87,5.19s-4.65-2-5.59-5.59L66,108.48a11.6,11.6,0,0,1-.47-2.57c0-1.68,1.15-3,4.52-3s4.45,1.35,5.19,4.31l6.47,26.91,8.16-25.09c1-2.83,1.62-4.51,5.19-4.51s4.25,1.55,5.2,4.45l8.16,25.15L115,107.26c.74-3,1.41-4.31,4.92-4.31,3.23,0,4.51,1.14,4.51,2.9a9.27,9.27,0,0,1-.47,2.42L114.44,142c-1,3.64-1.89,5.59-5.53,5.59-3.91,0-5.06-2.15-6.07-5.19l-8.09-24.2Z"/><path d="M152.31,135.65H136.66l-2.83,7.48c-1.08,2.77-2.09,4.32-5.53,4.32-2.9,0-4-1.15-4-2.7a6.8,6.8,0,0,1,.68-2.56l14.36-34.59c1.21-3,2.29-4.79,5.53-4.79s4.25,1.89,5.46,4.86l13.82,34.59a7.12,7.12,0,0,1,.54,2.42c0,1.76-1.48,2.77-4.31,2.77-3.17,0-4.18-1.28-5.33-4.32Zm-12.81-7.42h10l-5-13.15Z"/><path d="M51.72,166.36a2.26,2.26,0,0,1-.25,1,2.48,2.48,0,0,1-.69.79,3.13,3.13,0,0,1-1,.5,4.24,4.24,0,0,1-1.25.18,6.85,6.85,0,0,1-1.34-.14,5.56,5.56,0,0,1-1.27-.41l.25-1a6.88,6.88,0,0,0,1.11.38,5.09,5.09,0,0,0,1.22.15,2.4,2.4,0,0,0,1.43-.38,1.22,1.22,0,0,0,.55-1.08,1.38,1.38,0,0,0-.16-.67,1.72,1.72,0,0,0-.43-.51,3.24,3.24,0,0,0-.63-.4l-.77-.37c-.31-.14-.61-.3-.9-.45a4.27,4.27,0,0,1-.75-.55,2.5,2.5,0,0,1-.53-.69,2,2,0,0,1-.19-.91,2.44,2.44,0,0,1,.21-1,2.07,2.07,0,0,1,.59-.75,2.59,2.59,0,0,1,.91-.45,4.38,4.38,0,0,1,1.18-.15,5.38,5.38,0,0,1,1.27.15,4.86,4.86,0,0,1,1.08.4l-.23,1a5,5,0,0,0-1-.38,4.39,4.39,0,0,0-1.13-.15c-1.1,0-1.65.43-1.65,1.28a1.28,1.28,0,0,0,.08.5,1.19,1.19,0,0,0,.26.4,2.47,2.47,0,0,0,.49.35l.75.39.92.47a4.7,4.7,0,0,1,.9.6,3.16,3.16,0,0,1,.69.81A2.11,2.11,0,0,1,51.72,166.36Z"/><path d="M56.2,168.71H55v-9.07H56.2Z"/><path d="M66.3,168.71l-5.08-7.12v7.12H60v-9.07h1.2l5.08,7.13v-7.13h1.2v9.07Z"/><path d="M74.92,159.47a7.27,7.27,0,0,1,1.28.12,5.25,5.25,0,0,1,1.12.31l-.21,1a7.16,7.16,0,0,0-1-.26,5.48,5.48,0,0,0-1.05-.1,3.56,3.56,0,0,0-2.66.95,4.35,4.35,0,0,0,0,5.45,3.57,3.57,0,0,0,2.66,1,5.51,5.51,0,0,0,1.05-.11,6,6,0,0,0,1-.26l.21,1a5.28,5.28,0,0,1-1.12.3,7.27,7.27,0,0,1-1.28.12,5.24,5.24,0,0,1-2-.36,4,4,0,0,1-1.48-1,4.25,4.25,0,0,1-.92-1.48,5.46,5.46,0,0,1-.32-1.88,5.37,5.37,0,0,1,.32-1.88,4.2,4.2,0,0,1,.92-1.49,4,4,0,0,1,1.48-1A5.24,5.24,0,0,1,74.92,159.47Z"/><path d="M80,159.64H85.1v1H81.3v2.9h3.63v1H81.3v3.11h3.84v1H80Z"/><path d="M93.6,168.71V161l-1.76.72-.35-1L94,159.64h.8v9.07Z"/><path d="M98.47,168a13.16,13.16,0,0,0,1.29-.73,7.18,7.18,0,0,0,1.09-.87,4.71,4.71,0,0,0,.81-1.07,4.27,4.27,0,0,0,.49-1.37,2.79,2.79,0,0,1-.91.72A3,3,0,0,1,100,165a2.94,2.94,0,0,1-1.09-.19,2.47,2.47,0,0,1-.84-.56,2.36,2.36,0,0,1-.55-.83,2.85,2.85,0,0,1-.19-1.06,2.94,2.94,0,0,1,.23-1.17,2.42,2.42,0,0,1,.62-.89,2.73,2.73,0,0,1,.94-.57,3.2,3.2,0,0,1,1.17-.21,2.82,2.82,0,0,1,1.36.32,3.12,3.12,0,0,1,1,.83,3.64,3.64,0,0,1,.57,1.13,4.22,4.22,0,0,1,.19,1.25,5.76,5.76,0,0,1-.32,1.94,5.42,5.42,0,0,1-.9,1.61,7.58,7.58,0,0,1-1.4,1.3,10.16,10.16,0,0,1-1.81,1Zm0-5.68a1.59,1.59,0,0,0,.44,1.2,1.74,1.74,0,0,0,1.24.41,2.34,2.34,0,0,0,1.11-.27,3,3,0,0,0,.86-.66,3.67,3.67,0,0,0-.09-.93,2.25,2.25,0,0,0-.34-.81,2,2,0,0,0-.6-.58,1.56,1.56,0,0,0-.85-.22A1.65,1.65,0,0,0,99,161,2,2,0,0,0,98.51,162.33Z"/><path d="M110.19,160.35c-.46.23-.9.48-1.3.73a5.83,5.83,0,0,0-1.08.86A5.33,5.33,0,0,0,107,163a4.62,4.62,0,0,0-.48,1.37,2.63,2.63,0,0,1,.93-.73,2.83,2.83,0,0,1,1.24-.25,2.75,2.75,0,0,1,1.09.2,2.46,2.46,0,0,1,1.39,1.39,3,3,0,0,1,0,2.22,2.64,2.64,0,0,1-.64.89,2.73,2.73,0,0,1-.94.57,3.12,3.12,0,0,1-1.14.21,2.82,2.82,0,0,1-1.36-.32,3,3,0,0,1-1-.83,3.64,3.64,0,0,1-.57-1.13,4.17,4.17,0,0,1-.19-1.25,5.53,5.53,0,0,1,1.22-3.55,6.93,6.93,0,0,1,1.39-1.3,11.34,11.34,0,0,1,1.82-1Zm0,5.67a1.59,1.59,0,0,0-.44-1.2,1.78,1.78,0,0,0-1.24-.41,2.3,2.3,0,0,0-1.12.28,2.73,2.73,0,0,0-.85.65,3.2,3.2,0,0,0,.08.93,2.29,2.29,0,0,0,.35.81,2,2,0,0,0,.6.58,1.56,1.56,0,0,0,.85.22,1.67,1.67,0,0,0,1.31-.53A2,2,0,0,0,110.15,166Z"/><path d="M118.85,166.15a2.59,2.59,0,0,1-.25,1.12,2.47,2.47,0,0,1-.68.86,3.38,3.38,0,0,1-1,.55,4.1,4.1,0,0,1-1.29.2,7.2,7.2,0,0,1-1.18-.11,4.68,4.68,0,0,1-1-.27l.2-1a6.45,6.45,0,0,0,.94.27,5.86,5.86,0,0,0,1,.09,2.73,2.73,0,0,0,.83-.11,2,2,0,0,0,.65-.32,1.48,1.48,0,0,0,.42-.51,1.52,1.52,0,0,0,.15-.69,1.54,1.54,0,0,0-.19-.79,1.5,1.5,0,0,0-.53-.56,2.32,2.32,0,0,0-.8-.33,4.62,4.62,0,0,0-1-.11h-1.33v-4.82h4.7v1H115v2.82h.43a4.93,4.93,0,0,1,1.28.16,3.55,3.55,0,0,1,1.1.49,2.62,2.62,0,0,1,.76.83A2.42,2.42,0,0,1,118.85,166.15Z"/></g></g></svg>