<svg xmlns="http://www.w3.org/2000/svg" width="148.95" height="221.85" viewBox="0 0 148.95 221.85"><defs><style>.a{fill:#1a1311;}</style></defs><g transform="translate(-70.815 -113.123)"><path class="a" d="M217.41,121.808c0,3.989.03,4.679.03,4.755s-.015.1-.12.1h-.705c-.105,0-.12-.015-.12-.1v-.84H209.07v.854c0,.09-.015.106-.12.106h-.705c-.1,0-.12-.016-.12-.106s.03-.78.03-4.755v-2.774c0-2.79-.03-3.51-.03-3.585,0-.106.015-.12.12-.12s.615.03,2.1.03h.885a13.05,13.05,0,0,0,.6-1.591,3.355,3.355,0,0,0,.1-.659c.345.045.705.12.96.18.12.03.18.1.18.165a.229.229,0,0,1-.09.165,1.088,1.088,0,0,0-.225.375,14.541,14.541,0,0,1-.57,1.365h3.03c1.485,0,2.01-.03,2.1-.03s.12.014.12.12c0,.075-.03.8-.03,3.239Zm-.915-5.58H209.07v2.235h7.425Zm0,3.059H209.07v2.25h7.425Zm0,3.075H209.07v2.5h7.425Z"/><path class="a" d="M210.03,132.435c.18.1.2.239.09.375a1.926,1.926,0,0,0-.225.705,27.184,27.184,0,0,0-.435,3.434,7.123,7.123,0,0,1,5.235-2.7c2.04,0,3.225,1.17,3.225,2.865a3.445,3.445,0,0,1-2.25,3.2,11.124,11.124,0,0,1-3.645.99c-.24.03-.315.03-.39-.135a2.394,2.394,0,0,0-.675-.735,12.075,12.075,0,0,0,4.08-.93,2.685,2.685,0,0,0,1.8-2.475c0-1.065-.675-1.89-2.265-1.89a6.735,6.735,0,0,0-4.455,2.34,3.726,3.726,0,0,0-.66.885c-.075.12-.12.12-.24.075a5.835,5.835,0,0,1-.615-.27c-.09-.045-.12-.075-.12-.21a44.2,44.2,0,0,1,.435-4.71,8.943,8.943,0,0,0,.12-1.245A4.775,4.775,0,0,1,210.03,132.435Zm.72-3.646a.158.158,0,0,1,.21-.045,8.907,8.907,0,0,1,2.745,1.71c.09.075.09.106.03.21a4.7,4.7,0,0,1-.495.646c-.075.089-.15.089-.24,0a9.789,9.789,0,0,0-2.775-1.831A4.289,4.289,0,0,1,210.75,128.789Z"/><path class="a" d="M213.345,146.287a16.75,16.75,0,0,1-1.98,6.556,2.5,2.5,0,0,1-2.205,1.545c-1.125,0-2.19-1.231-2.19-3.406a5.447,5.447,0,0,1,1.74-3.884,6.4,6.4,0,0,1,4.5-1.665c3.36,0,5.355,1.964,5.355,4.83,0,2.444-1.515,4.409-4.77,5.234a.3.3,0,0,1-.39-.165,1.754,1.754,0,0,0-.585-.555c2.97-.585,4.68-2.19,4.68-4.695a3.751,3.751,0,0,0-3.87-3.795Zm-3.975,1.441a4.649,4.649,0,0,0-1.44,3.24c0,1.635.675,2.34,1.215,2.34.51,0,.96-.33,1.395-1.1a15.928,15.928,0,0,0,1.755-5.864A5.054,5.054,0,0,0,209.37,147.728Z"/><path class="a" d="M219.285,160.088c0,.1-.015.12-.12.12-.075,0-.51-.016-1.695-.03v7.109c0,1.59.03,2.265.03,2.79,0,.615-.12.93-.42,1.14a4.982,4.982,0,0,1-2.535.285c-.3,0-.3,0-.375-.3a2.244,2.244,0,0,0-.3-.69c.465.046,1.23.075,1.8.075.615,0,.825-.09.825-.585v-9.824H208.38c-1.41,0-1.89.03-1.964.03-.1,0-.121-.016-.121-.12v-.705c0-.106.016-.12.121-.12.074,0,.554.03,1.964.03h8.82c1.41,0,1.89-.03,1.965-.03.105,0,.12.014.12.12Zm-5.625,5.55c0,2.205.03,2.564.03,2.654s-.015.12-.12.12H212.9c-.12,0-.135-.015-.135-.12v-.734h-3.615v1.154c0,.1-.015.12-.12.12h-.69c-.105,0-.12-.015-.12-.12s.03-.465.03-2.789v-1.471c0-1.409-.03-1.814-.03-1.889,0-.105.015-.121.12-.121.09,0,.48.031,1.62.031h1.995c1.155,0,1.53-.031,1.62-.031s.12.016.12.121c0,.075-.03.464-.03,1.559Zm-.9-2.325h-3.615v3.4h3.615Z"/><path class="a" d="M211.005,174.788c.12-.075.165-.06.225.015a12.163,12.163,0,0,1,1.665,2.444c.045.106.03.15-.105.24l-.375.21a.416.416,0,0,1-.18.075c-.045,0-.075-.044-.1-.1-.105-.24-.24-.511-.375-.766-1.365.241-2.85.451-4.56.646a1.278,1.278,0,0,0-.63.165.261.261,0,0,1-.18.059c-.06,0-.1-.044-.15-.179a7.053,7.053,0,0,1-.18-.87c.405,0,.93,0,1.305-.031a20.621,20.621,0,0,0,1.125-2.339,5.513,5.513,0,0,0,.285-1.02,4.175,4.175,0,0,1,.84.225c.15.06.21.1.21.2a.327.327,0,0,1-.15.239,1.165,1.165,0,0,0-.255.391c-.3.644-.75,1.545-1.14,2.22,1.08-.1,2.115-.225,3.075-.375a11.717,11.717,0,0,0-.765-1.05c-.06-.075-.045-.12.1-.21Zm1.065,8.534c0,.795.015,1.59.015,1.98,0,.435-.03.765-.3.975-.225.165-.465.27-1.545.27-.285,0-.3-.015-.375-.3a2.173,2.173,0,0,0-.24-.57,6.586,6.586,0,0,0,.93.06c.5,0,.675-.15.675-.6v-1.7h-3.18v1.26c0,1.26.03,1.785.03,1.861,0,.1-.015.12-.12.12h-.645c-.1,0-.12-.016-.12-.12,0-.076.03-.541.03-1.846V180.4c0-1.29-.03-1.785-.03-1.875s.015-.12.12-.12c.075,0,.435.031,1.515.031h1.635c1.08,0,1.44-.031,1.515-.031.105,0,.105.016.105.12s-.015.675-.015,1.965Zm-.84-4.139h-3.18v1.38h3.18Zm0,2.1h-3.18v1.441h3.18Zm3.21-3.344c0,.389.06.525.375.615a7.015,7.015,0,0,0,1.455.09,3.272,3.272,0,0,0,1.845-.3c.225-.21.285-.54.33-1.41a2.532,2.532,0,0,0,.585.33c.225.1.255.12.225.375-.09.84-.24,1.125-.57,1.41a4.416,4.416,0,0,1-2.46.4,7.486,7.486,0,0,1-2.13-.18c-.36-.134-.54-.344-.54-.959V175a8.5,8.5,0,0,0-.09-1.53,8.547,8.547,0,0,1,.945.09c.12.014.195.075.195.134a.519.519,0,0,1-.09.255,2.761,2.761,0,0,0-.075,1.021v1.08a16.324,16.324,0,0,0,2.715-1.2,2.785,2.785,0,0,0,.795-.6,4.944,4.944,0,0,1,.63.585c.09.09.1.135.1.18,0,.075-.09.134-.195.15a3.078,3.078,0,0,0-.66.284,28.059,28.059,0,0,1-3.39,1.425Zm.03,6.9c0,.375.09.556.39.69a5.349,5.349,0,0,0,1.56.135,3.57,3.57,0,0,0,1.725-.33c.3-.269.345-.6.39-1.47a3.419,3.419,0,0,0,.615.33c.255.1.255.1.21.375a1.877,1.877,0,0,1-.63,1.44,4.322,4.322,0,0,1-2.34.465,6.138,6.138,0,0,1-2.25-.24c-.33-.15-.555-.419-.555-1.11v-3.479a8.139,8.139,0,0,0-.09-1.516c.33.016.66.046.96.091q.18.021.18.135a.636.636,0,0,1-.09.269,2.846,2.846,0,0,0-.075,1.005v.96a16.913,16.913,0,0,0,2.865-1.289,2.878,2.878,0,0,0,.795-.6,4.823,4.823,0,0,1,.615.54c.105.106.12.165.12.225s-.075.136-.2.15a2.254,2.254,0,0,0-.675.285,22.753,22.753,0,0,1-3.525,1.515Z"/><path class="a" d="M207.21,191.617c.165.045.18.061.165.165a10.994,10.994,0,0,1-.66,3.075c-.029.076-.06.09-.21.031l-.375-.136c-.18-.06-.24-.06-.165-.239a9.527,9.527,0,0,0,.63-2.955c.015-.106.03-.12.225-.06Zm.765-1.274a9.992,9.992,0,0,0-.12-2.04,6.2,6.2,0,0,1,.99.075c.1.015.18.06.18.12a1.313,1.313,0,0,1-.06.27,5.757,5.757,0,0,0-.1,1.545v8.714c0,1.786.03,2.565.03,2.64,0,.1-.015.12-.12.12h-.705c-.1,0-.12-.015-.12-.12,0-.075.03-.854.03-2.625Zm1.785.87c.12-.045.18-.045.21.045a16.387,16.387,0,0,1,.6,2.055c.03.1.015.134-.15.195l-.33.135c-.195.075-.24.075-.255-.045a13.018,13.018,0,0,0-.54-2.071c-.045-.1-.03-.12.165-.194Zm9.81,9.839c0,.12-.015.136-.12.136-.075,0-.585-.031-2.1-.031h-5c-1.53,0-2.025.031-2.1.031-.105,0-.12-.016-.12-.136v-.63c0-.1.015-.12.12-.12.075,0,.57.03,2.1.03h2.175v-3.644h-1.14c-1.4,0-1.845.03-1.935.03s-.12-.016-.12-.12v-.616c0-.1.015-.12.12-.12s.54.031,1.935.031h1.14v-3.2h-2.37a14.3,14.3,0,0,1-1.065,2.146c-.09.135-.12.194-.18.194a.406.406,0,0,1-.195-.09,2.01,2.01,0,0,0-.6-.24,12.468,12.468,0,0,0,1.89-4.454,5.756,5.756,0,0,0,.06-.8,5.331,5.331,0,0,1,.885.239c.15.061.18.106.18.165a.3.3,0,0,1-.09.2,1.148,1.148,0,0,0-.18.434c-.105.42-.24.9-.42,1.41h2.085v-1.559a11.647,11.647,0,0,0-.12-2.055,8.319,8.319,0,0,1,.99.09c.105.015.18.06.18.12a1.123,1.123,0,0,1-.06.27,6.7,6.7,0,0,0-.105,1.545V191.9h1.59c1.38,0,1.845-.03,1.92-.03.1,0,.12.016.12.12v.615c0,.106-.015.121-.12.121-.075,0-.54-.031-1.92-.031h-1.59v3.2h1.125c1.4,0,1.845-.031,1.92-.031.1,0,.12.015.12.12v.616c0,.1-.015.12-.12.12-.075,0-.525-.03-1.92-.03h-1.125v3.644h1.935c1.515,0,2.025-.03,2.1-.03.1,0,.12.015.12.12Z"/><path class="a" d="M214.1,213.577c0,.12-.03.165-.165.18a4.106,4.106,0,0,1-.645.06c-.09,0-.135-.075-.135-.179,0-.66,0-1.4.015-2.16-1.65.825-2.46,1.589-2.46,2.489s.825,1.245,2.565,1.245a26.251,26.251,0,0,0,3.57-.3c.075-.015.135,0,.165.106a4.25,4.25,0,0,1,.09.734c0,.135-.06.2-.12.21a29.45,29.45,0,0,1-3.705.21c-2.1,0-3.465-.54-3.465-2.145,0-1.259.825-2.28,3.315-3.495-.03-1.019-.375-1.425-1.26-1.41a4.271,4.271,0,0,0-2.46,1.216c-.54.51-.9.9-1.425,1.454-.09.1-.15.1-.225.03a4.8,4.8,0,0,1-.525-.585c-.045-.09-.059-.12.03-.21a16.436,16.436,0,0,0,3.48-4.17c-.93.061-1.845.061-2.79.031-.12,0-.15-.045-.165-.151-.03-.179-.075-.509-.09-.75a29.794,29.794,0,0,0,3.48-.014,13.414,13.414,0,0,0,.54-1.5,2.25,2.25,0,0,0,.12-.81,4.853,4.853,0,0,1,1.125.329.186.186,0,0,1,.03.33,1.407,1.407,0,0,0-.27.42c-.18.375-.315.691-.51,1.141a28.792,28.792,0,0,0,3.165-.495c.12-.031.15-.031.18.059.03.21.075.42.09.66,0,.106-.03.151-.195.18-1.185.211-2.46.375-3.66.495a12.625,12.625,0,0,1-1.53,2.236l.015.03a3.253,3.253,0,0,1,1.875-.646,1.735,1.735,0,0,1,1.89,1.755c.735-.33,1.59-.719,2.34-1.08a4.1,4.1,0,0,0,1.14-.764,3.584,3.584,0,0,1,.735.87c.12.224,0,.314-.15.344a4.485,4.485,0,0,0-.825.241c-1.14.479-2.085.825-3.18,1.29Z"/><path class="a" d="M219.465,224.707c0,.106-.015.12-.12.12-.075,0-.525-.029-1.9-.029h-5.115v5.114c0,1.231.03,1.74.03,1.816,0,.1-.015.119-.12.119h-.645c-.1,0-.12-.015-.12-.119,0-.076.03-.556.03-1.665-1.35.269-3.06.554-4.32.75a2.107,2.107,0,0,0-.54.134.422.422,0,0,1-.195.075c-.06,0-.12-.075-.15-.18a5.135,5.135,0,0,1-.21-.75,11.883,11.883,0,0,0,1.29-.09l.555-.06V224.8c-1.244,0-1.695.029-1.77.029-.105,0-.119-.014-.119-.12v-.555c0-.1.014-.12.119-.12.075,0,.54.031,1.9.031h9.375c1.38,0,1.83-.031,1.9-.031.1,0,.12.016.12.12Zm-2.04-2.925c0,.87.03,1.156.03,1.245,0,.106-.015.12-.12.12-.075,0-.615-.03-2.13-.03h-4.98c-1.515,0-2.04.03-2.13.03s-.12-.014-.12-.12c0-.089.03-.375.03-1.245v-1.409c0-.855-.03-1.155-.03-1.23,0-.121.015-.135.12-.135s.615.03,2.13.03h4.98c1.515,0,2.055-.03,2.13-.03.1,0,.12.014.12.135,0,.075-.03.375-.03,1.23ZM211.5,224.8h-2.745v1.109H211.5Zm0,1.784h-2.745v1.141H211.5Zm0,1.815h-2.745v1.425c.885-.12,1.845-.285,2.745-.45Zm5.055-8.639h-7.68v.96h7.68Zm0,1.649h-7.68v1.021h7.68Zm.705,4.59a1.087,1.087,0,0,0,.225-.029.4.4,0,0,1,.18-.045c.075,0,.135.029.345.21.225.21.27.284.27.359a.241.241,0,0,1-.12.21,1.314,1.314,0,0,0-.33.5,8.114,8.114,0,0,1-1.38,2.085,9.279,9.279,0,0,0,2.925,1.38,2.474,2.474,0,0,0-.36.526c-.135.269-.135.269-.39.179a9.568,9.568,0,0,1-2.745-1.514,10.574,10.574,0,0,1-2.55,1.6.643.643,0,0,1-.225.075c-.06,0-.1-.06-.195-.21a1.42,1.42,0,0,0-.39-.465,8.861,8.861,0,0,0,2.775-1.53,8.865,8.865,0,0,1-1.755-2.609c-.39,0-.555.014-.6.014-.1,0-.12-.014-.12-.134v-.511c0-.105.015-.119.12-.119.075,0,.435.029,1.62.029Zm-2.88.705a6.856,6.856,0,0,0,1.485,2.085A7.987,7.987,0,0,0,217.2,226.7Z"/><path class="a" d="M213.27,238.492a11.137,11.137,0,0,0,6.195,7.215,2.8,2.8,0,0,0-.54.63c-.09.165-.135.226-.21.226a.565.565,0,0,1-.225-.091,12.1,12.1,0,0,1-5.745-7.2,11.178,11.178,0,0,1-.825,2.536,9.881,9.881,0,0,1-4.845,4.71.79.79,0,0,1-.24.074c-.075,0-.12-.06-.225-.21a2.519,2.519,0,0,0-.555-.51,9.189,9.189,0,0,0,5-4.439,10.177,10.177,0,0,0,.87-2.941h-3.435c-1.44,0-1.92.03-1.995.03-.105,0-.12-.014-.12-.134V237.7c0-.1.015-.12.12-.12.075,0,.555.03,1.995.03h3.54c.075-.75.105-1.544.12-2.4a8.711,8.711,0,0,0-.075-1.695c.345.014.765.045,1.065.09.15.03.21.089.21.165a.641.641,0,0,1-.09.285,3.22,3.22,0,0,0-.12,1.125c-.015.84-.06,1.649-.15,2.429h4.035c1.44,0,1.92-.03,1.995-.03.1,0,.12.016.12.12v.691c0,.12-.015.134-.12.134-.075,0-.555-.03-1.995-.03Z"/><path class="a" d="M210.21,249.038a.931.931,0,0,0,.36-.046.254.254,0,0,1,.135-.029c.1,0,.195.059.4.269s.27.316.27.391a.31.31,0,0,1-.12.21,1.282,1.282,0,0,0-.27.449,28.514,28.514,0,0,1-1.62,3.075c1.4,1.651,1.7,2.446,1.7,3.451,0,1.17-.585,2.024-2.19,2.085-.315.014-.315.014-.375-.271a1.31,1.31,0,0,0-.285-.615c1.245.075,1.98-.18,1.98-1.2,0-.781-.3-1.545-1.755-3.361a23.677,23.677,0,0,0,1.725-3.6H207.81v8.759c0,2.025.03,3,.03,3.076,0,.1-.015.119-.12.119h-.69c-.1,0-.12-.015-.12-.119s.03-.991.03-3.076v-6.419c0-2.1-.03-2.97-.03-3.06,0-.106.015-.12.12-.12s.42.03,1.185.03Zm5.04,6.029a10.057,10.057,0,0,0,.885,2.5,14.863,14.863,0,0,0,1.77-1.469,2.486,2.486,0,0,0,.435-.571,3.492,3.492,0,0,1,.63.571c.075.089.1.12.1.179s-.06.12-.18.165a3.318,3.318,0,0,0-.72.526,19.016,19.016,0,0,1-1.635,1.29,8.259,8.259,0,0,0,3.15,2.729,2.369,2.369,0,0,0-.465.585c-.09.151-.12.21-.18.21a.414.414,0,0,1-.225-.1,9.387,9.387,0,0,1-4.4-6.616H212.91v5.01a19.9,19.9,0,0,0,2.715-.915,3.266,3.266,0,0,0-.075.585c-.015.33-.015.33-.285.4-1.185.42-2.49.81-4.035,1.2a2.006,2.006,0,0,0-.57.194.335.335,0,0,1-.2.09q-.09,0-.135-.135a5.744,5.744,0,0,1-.255-.855,10.147,10.147,0,0,0,1.29-.209l.66-.136v-8.475c0-1.769-.03-2.579-.03-2.67s.015-.119.12-.119c.075,0,.615.029,1.89.029h2.4c1.2,0,1.665-.029,1.74-.029.1,0,.12.015.12.119s-.03.54-.03,1.62v2.58c0,1.1.03,1.531.03,1.621s-.015.12-.12.12c-.075,0-.54-.031-1.74-.031Zm2.1-5.219h-4.44v1.8h4.44Zm0,2.564h-4.44v1.9h4.44Z"/><path class="a" d="M209.31,265.027c.15.09.21.151.21.241a.4.4,0,0,1-.105.254,2.217,2.217,0,0,0-.3.795,24.6,24.6,0,0,0-.705,5.175,11.436,11.436,0,0,0,.225,2.58c.36-.84.675-1.485,1.11-2.535a3.789,3.789,0,0,0,.36.6.237.237,0,0,1,.075.149.5.5,0,0,1-.075.24c-.33.765-.645,1.5-.96,2.385a.893.893,0,0,0-.06.375c0,.135.03.225.03.33a.128.128,0,0,1-.105.135,3.637,3.637,0,0,1-.675.15.188.188,0,0,1-.165-.15,13.314,13.314,0,0,1-.675-4.35,27.313,27.313,0,0,1,.615-5.115,8.643,8.643,0,0,0,.21-1.664A5.468,5.468,0,0,1,209.31,265.027Zm3.1,7.14c.075-.015.105.03.105.15.045,1.14.96,1.65,2.73,1.65a22.437,22.437,0,0,0,2.955-.21c.12-.015.15,0,.165.15.015.18.045.495.045.7,0,.135,0,.151-.195.18a22.441,22.441,0,0,1-2.685.165c-1.68,0-2.64-.24-3.3-.944a2.471,2.471,0,0,1-.63-1.785Zm-.27-5.579c0-.136.03-.181.18-.21a24.825,24.825,0,0,1,3.18-.271c.87,0,1.725.031,2.13.076.2.014.225.03.225.15,0,.239,0,.48-.015.7,0,.12-.03.151-.165.136-.585-.061-1.56-.075-2.415-.075a19,19,0,0,0-3.135.314C212.13,267.008,212.13,266.768,212.145,266.588Z"/><path class="a" d="M206.61,282.442c.09-.12.12-.134.225-.075a10.535,10.535,0,0,1,2.13,1.62c.075.076.045.105-.045.241l-.3.419c-.12.166-.15.166-.24.076a11.535,11.535,0,0,0-2.069-1.681c-.105-.06-.091-.09.014-.225Zm1.155,8.43a2.96,2.96,0,0,0-.315.63c-.03.1-.09.15-.165.15a.3.3,0,0,1-.2-.09c-.225-.166-.435-.33-.674-.541a6.823,6.823,0,0,0,.855-1.169c.359-.675.944-1.83,1.574-3.315a3.773,3.773,0,0,0,.42.45c.15.12.21.165.21.241a.814.814,0,0,1-.075.239C208.89,288.667,208.32,289.837,207.765,290.872Zm-.329-12.165c.1-.119.134-.119.224-.06a11.856,11.856,0,0,1,2.01,1.651c.075.09.075.119-.03.255l-.315.4c-.12.15-.165.165-.24.075a11.952,11.952,0,0,0-2.01-1.724c-.1-.076-.09-.09.03-.226Zm12.059,5.1c0,.1-.015.119-.1.119s-.6-.03-2.115-.03H215.04v2.46h1.275c1.4,0,1.86-.03,1.935-.03.1,0,.12.015.12.12,0,.075-.03.435-.03,1.41v1.275c0,2.085.03,2.415.03,2.505s-.015.105-.12.105h-.69c-.1,0-.12-.015-.12-.105v-.66H211.9v.735c0,.1-.015.12-.12.12h-.66c-.12,0-.135-.015-.135-.12,0-.075.03-.42.03-2.535v-1.14c0-1.14-.03-1.515-.03-1.59,0-.1.015-.12.135-.12.075,0,.555.03,1.95.03h1.05V283.9H212.1c-1.53,0-2.04.03-2.115.03-.1,0-.12-.015-.12-.119v-.646c0-.1.015-.12.12-.12.075,0,.585.03,2.115.03h2.025v-2.429c-.99.21-2.01.375-3.045.524-.315.045-.33.03-.42-.239a1.522,1.522,0,0,0-.3-.54,30.693,30.693,0,0,0,6.63-1.41,3.459,3.459,0,0,0,.78-.39,5.822,5.822,0,0,1,.645.555c.09.089.12.134.12.21s-.06.134-.18.149a3.394,3.394,0,0,0-.57.136,27.159,27.159,0,0,1-2.745.8v2.639h2.235c1.515,0,2.025-.03,2.115-.03s.1.016.1.12Zm-2.055,3.329H211.9v3.045h5.535Z"/><path class="a" d="M211.05,295.493a5.149,5.149,0,0,0,.135-1.439,6.3,6.3,0,0,1,1.17.4.223.223,0,0,1,.06.391,1.012,1.012,0,0,0-.255.495c-.225.734-.42,1.439-.645,2.175a13.565,13.565,0,0,1,1.455-.106c1.3,0,1.95.66,1.95,2.415a12.533,12.533,0,0,1-.825,4.845,1.794,1.794,0,0,1-1.71,1.185,3.94,3.94,0,0,1-1.53-.27.245.245,0,0,1-.18-.255,2.659,2.659,0,0,0-.18-.9,4.37,4.37,0,0,0,1.74.42c.435,0,.72-.15,1.005-.78a11.333,11.333,0,0,0,.675-4.215c0-1.17-.225-1.589-1.035-1.589a10.471,10.471,0,0,0-1.62.165,40.779,40.779,0,0,1-3.06,7.094.18.18,0,0,1-.255.075,4.22,4.22,0,0,1-.6-.4c-.09-.075-.074-.15-.03-.24a31.85,31.85,0,0,0,2.88-6.39c-.615.09-1.23.2-1.98.33a2.211,2.211,0,0,0-.66.195c-.165.105-.3.105-.389-.074A5.637,5.637,0,0,1,206.82,298a10.033,10.033,0,0,0,1.56-.075c.825-.09,1.41-.18,2.115-.284C210.69,296.934,210.855,296.333,211.05,295.493Zm5.5,1.231a.189.189,0,0,1,.225.059,8.56,8.56,0,0,1,2.415,3.63c.03.106.045.18-.045.255a3.352,3.352,0,0,1-.615.4c-.12.075-.225.06-.255-.09a8.341,8.341,0,0,0-2.4-3.8A6.579,6.579,0,0,1,216.555,296.724Z"/><path class="a" d="M210.675,309.339c.165.045.24.119.24.224a1.132,1.132,0,0,1-.12.39,8.578,8.578,0,0,0-.18,1.545c-.135,2.266-.225,4.32-.225,6.39,0,1.68.465,2.19,1.77,2.19a7.708,7.708,0,0,0,5.4-2.865,3.55,3.55,0,0,0,.255.87.763.763,0,0,1,.06.21c0,.09-.045.165-.18.285a8.348,8.348,0,0,1-5.715,2.52c-1.695,0-2.61-.81-2.61-3.015,0-2.13.135-4.575.21-6.689a8.265,8.265,0,0,0-.12-2.266A5.956,5.956,0,0,1,210.675,309.339Z"/><path class="a" d="M216.48,323.349a.256.256,0,0,1,.165-.09c.045,0,.09.029.165.09a10.371,10.371,0,0,1,2.88,2.7.325.325,0,0,1,.075.181c0,.059-.015.1-.1.179l-.54.45c-.075.06-.12.09-.15.09-.06,0-.1-.014-.165-.12a10.922,10.922,0,0,0-2.76-2.8c-.075-.044-.1-.075-.1-.105,0-.045.015-.074.075-.149Z"/><path class="a" d="M190.41,121.808c0,3.989.03,4.679.03,4.755s-.015.1-.12.1h-.705c-.105,0-.12-.015-.12-.1v-.84H182.07v.854c0,.09-.015.106-.12.106h-.705c-.1,0-.12-.016-.12-.106s.03-.78.03-4.755v-2.774c0-2.79-.03-3.51-.03-3.585,0-.106.015-.12.12-.12s.615.03,2.1.03h.885a13.05,13.05,0,0,0,.6-1.591,3.355,3.355,0,0,0,.1-.659c.345.045.705.12.96.18.12.03.18.1.18.165a.229.229,0,0,1-.09.165,1.088,1.088,0,0,0-.225.375,14.541,14.541,0,0,1-.57,1.365h3.03c1.485,0,2.01-.03,2.1-.03s.12.014.12.12c0,.075-.03.8-.03,3.239Zm-.915-5.58H182.07v2.235h7.425Zm0,3.059H182.07v2.25h7.425Zm0,3.075H182.07v2.5h7.425Z"/><path class="a" d="M192.42,140.8c0,.1-.015.12-.12.12s-.54-.03-1.95-.03H181.2c-1.4,0-1.86.03-1.935.03-.1,0-.119-.015-.119-.12v-.75c0-.1.014-.12.119-.12.075,0,.54.03,1.935.03h5.235a40.553,40.553,0,0,0,1.8-5.25,8.459,8.459,0,0,0,.3-1.56,9.814,9.814,0,0,1,1.05.331c.12.044.15.089.15.165a.474.474,0,0,1-.135.254,1.715,1.715,0,0,0-.285.661,45.326,45.326,0,0,1-1.9,5.4h2.94c1.41,0,1.86-.03,1.95-.03s.12.015.12.12Zm-.75-8.775c0,.121-.015.135-.12.135-.075,0-.57-.029-2.07-.029H182.1c-1.485,0-1.98.029-2.07.029s-.12-.014-.12-.135V131.3c0-.106.015-.12.12-.12s.585.03,2.07.03h3.06v-1.245a7.3,7.3,0,0,0-.105-1.515,8.743,8.743,0,0,1,1.035.074c.12.016.2.076.2.136a.611.611,0,0,1-.075.27,3.021,3.021,0,0,0-.09,1.035v1.245h3.36c1.5,0,2-.03,2.07-.03.1,0,.12.014.12.12Zm-9.1,1.246c.15-.045.18-.045.21.045a26.736,26.736,0,0,1,1.53,5.264c.015.106.015.151-.165.2l-.525.15c-.225.06-.255.045-.285-.09a25.52,25.52,0,0,0-1.44-5.2c-.045-.106-.03-.12.18-.2Z"/><path class="a" d="M183.675,144.338c.165.045.24.12.24.225a1.134,1.134,0,0,1-.12.389,8.581,8.581,0,0,0-.18,1.546c-.135,2.265-.225,4.319-.225,6.39,0,1.679.465,2.189,1.77,2.189a7.708,7.708,0,0,0,5.4-2.865,3.537,3.537,0,0,0,.255.87.763.763,0,0,1,.06.21c0,.09-.045.165-.18.285a8.349,8.349,0,0,1-5.715,2.521c-1.695,0-2.61-.811-2.61-3.016,0-2.13.135-4.574.21-6.689a8.257,8.257,0,0,0-.12-2.265A5.891,5.891,0,0,1,183.675,144.338Z"/><path class="a" d="M189.48,158.348a.261.261,0,0,1,.165-.09c.045,0,.09.03.165.09a10.39,10.39,0,0,1,2.88,2.7.32.32,0,0,1,.075.18c0,.059-.015.1-.1.179l-.54.45c-.075.061-.12.09-.15.09-.06,0-.1-.014-.165-.12a10.938,10.938,0,0,0-2.76-2.8c-.075-.044-.1-.075-.1-.1,0-.045.015-.075.075-.15Z"/><path class="a" d="M180.9,173.032c0-.54,0-1.319.03-2.024a15.812,15.812,0,0,1-1.365,1.845c-.075.089-.135.149-.18.149s-.09-.06-.15-.164a1.92,1.92,0,0,0-.4-.57,15,15,0,0,0,3.119-5.34,3.932,3.932,0,0,0,.225-1.021,7.954,7.954,0,0,1,.9.316c.12.059.18.09.18.179s-.06.136-.15.21a1.38,1.38,0,0,0-.3.556,24.79,24.79,0,0,1-1.02,2.354v7.3c0,1.575.03,2.25.03,2.325,0,.105-.015.12-.12.12h-.705c-.105,0-.12-.015-.12-.12,0-.075.03-.75.03-2.325Zm4.215,3.915c0,.616.24.855.69.946a12.651,12.651,0,0,0,2.3.134,5.792,5.792,0,0,0,2.895-.435c.375-.225.6-.72.645-2.1a3.845,3.845,0,0,0,.66.345c.255.1.255.1.24.36-.1,1.1-.33,1.8-.825,2.13-.645.42-1.695.57-3.72.57a12.888,12.888,0,0,1-2.715-.2,1.322,1.322,0,0,1-1.05-1.439V172.3c-.93.314-1.26.465-1.365.494-.105.046-.15.03-.165-.074l-.15-.721c-.015-.1-.015-.1.09-.135.075-.03.495-.12,1.59-.465v-2.025a12.11,12.11,0,0,0-.09-1.664,5.619,5.619,0,0,1,.945.074c.135.016.195.075.195.136a.669.669,0,0,1-.075.27,2.6,2.6,0,0,0-.09,1.065v1.859l2.055-.66v-2.295a10.575,10.575,0,0,0-.12-2.01,8.536,8.536,0,0,1,.99.09c.105.016.165.076.165.12a1.12,1.12,0,0,1-.06.271,6.43,6.43,0,0,0-.09,1.56v1.98l1.425-.466c1.365-.434,1.815-.644,1.9-.675.075-.014.12.016.12.135l-.03,1.11a27.609,27.609,0,0,1-.315,3.765c-.18.945-.57,1.215-1.245,1.215-.255,0-.465-.015-.825-.045-.255-.029-.255-.029-.3-.33a1.681,1.681,0,0,0-.195-.585,7.025,7.025,0,0,0,1.14.12c.36,0,.525-.224.63-.84a26.434,26.434,0,0,0,.225-3.389l-2.535.839v2.685c0,1.516.03,2.16.03,2.25,0,.106-.015.12-.12.12h-.705c-.1,0-.12-.014-.12-.12,0-.09.03-.734.03-2.25v-2.385l-2.055.675Z"/><path class="a" d="M192.375,186.367c0,.106-.015.12-.12.12-.075,0-.555-.03-1.95-.03h-3.3a23.561,23.561,0,0,1-2.55,1.591H188.1c1.32,0,1.89-.03,1.98-.03s.12.014.12.134c0,.076-.03.465-.03,1.861v1.394c0,2.265.03,2.64.03,2.73s-.015.105-.12.105H189.4c-.1,0-.12-.014-.12-.105v-.659H183.66v.705c0,.1-.015.119-.12.119h-.675c-.105,0-.12-.015-.12-.119,0-.076.03-.526.03-2.79V188.9c-.99.465-1.995.885-3.045,1.26-.27.106-.27.106-.435-.165a2.335,2.335,0,0,0-.42-.495,28.236,28.236,0,0,0,6.75-3.045H181.3c-1.409,0-1.875.03-1.95.03-.1,0-.12-.014-.12-.12v-.63c0-.09.015-.1.12-.1.075,0,.541.029,1.95.029h3.42v-1.92H183.18c-1.38,0-1.83.03-1.92.03s-.12-.014-.12-.12v-.614c0-.1.015-.12.12-.12s.54.029,1.92.029h1.545v-.42a8.567,8.567,0,0,0-.105-1.679,8.116,8.116,0,0,1,.99.09c.1.015.195.06.195.134a.68.68,0,0,1-.075.256,3.687,3.687,0,0,0-.1,1.2v.42h.675c1.38,0,1.815-.029,1.9-.029s.12.015.12.12v.614c0,.106-.015.12-.12.12s-.525-.03-1.9-.03h-.675v1.92h1.1a16.726,16.726,0,0,0,3.015-2.894,3.253,3.253,0,0,0,.615-1.005,6.785,6.785,0,0,1,.84.465c.1.075.135.134.135.21a.206.206,0,0,1-.15.165c-.2.075-.36.3-.645.615a21.507,21.507,0,0,1-2.535,2.444h2.31c1.4,0,1.875-.029,1.95-.029.1,0,.12.014.12.1Zm-3.09,2.446H183.66v1.514h5.625Zm0,2.264H183.66v1.635h5.625Z"/><path class="a" d="M182.31,197.527c.15.09.21.151.21.241a.4.4,0,0,1-.105.254,2.218,2.218,0,0,0-.3.795,24.6,24.6,0,0,0-.705,5.175,11.436,11.436,0,0,0,.225,2.58c.36-.84.675-1.485,1.11-2.535a3.79,3.79,0,0,0,.36.6.237.237,0,0,1,.075.149.5.5,0,0,1-.075.24c-.33.765-.645,1.5-.96,2.385a.9.9,0,0,0-.06.375c0,.135.03.225.03.33a.128.128,0,0,1-.105.135,3.636,3.636,0,0,1-.675.15.188.188,0,0,1-.165-.15,13.314,13.314,0,0,1-.675-4.35,27.313,27.313,0,0,1,.615-5.115,8.644,8.644,0,0,0,.21-1.664A5.467,5.467,0,0,1,182.31,197.527Zm3.1,7.14c.075-.015.105.03.105.15.045,1.14.96,1.65,2.73,1.65a22.443,22.443,0,0,0,2.955-.21c.12-.015.15,0,.165.15.015.18.045.495.045.705,0,.135,0,.151-.195.18a22.444,22.444,0,0,1-2.685.165c-1.68,0-2.64-.24-3.3-.944a2.471,2.471,0,0,1-.63-1.785Zm-.27-5.579c0-.136.03-.181.18-.21a24.822,24.822,0,0,1,3.18-.271c.87,0,1.725.031,2.13.076.2.014.225.03.225.15,0,.239,0,.48-.015.7,0,.12-.03.151-.165.136-.585-.061-1.56-.075-2.415-.075a19,19,0,0,0-3.135.314C185.13,199.508,185.13,199.268,185.145,199.088Z"/><path class="a" d="M185.6,218.407a7.525,7.525,0,0,0,1.59,2.22,20.261,20.261,0,0,0,2.385-1.439,2.077,2.077,0,0,0,.51-.51,8.9,8.9,0,0,1,.75.554c.09.076.12.121.12.2s-.09.119-.21.135a1.284,1.284,0,0,0-.525.254c-.63.39-1.38.826-2.415,1.35a11.809,11.809,0,0,0,4.74,2.146,2.409,2.409,0,0,0-.42.554c-.15.27-.165.285-.465.21-3.315-.93-5.745-2.8-6.915-5.67h-2.445v4.215c1.14-.285,2.205-.615,3.51-1.05a5.067,5.067,0,0,0-.06.526c0,.314,0,.329-.27.42-1.9.659-3.465,1.08-4.934,1.439a2.23,2.23,0,0,0-.631.21.28.28,0,0,1-.15.075.182.182,0,0,1-.165-.12c-.1-.269-.21-.6-.3-.885a16.161,16.161,0,0,0,1.6-.285c.15-.03.315-.059.465-.1v-7.771c0-1.619-.03-2.34-.03-2.43s.015-.12.12-.12.735.031,2.19.031h1.545v-.286a7.005,7.005,0,0,0-.1-1.484,9.257,9.257,0,0,1,1,.09c.12.015.18.06.18.12a.629.629,0,0,1-.09.284,2.789,2.789,0,0,0-.075.915v.361h1.665c1.485,0,2.07-.031,2.145-.031.105,0,.12.016.12.12,0,.076-.03.526-.03,1.59v2.505c0,1.066.03,1.5.03,1.575,0,.106-.015.121-.12.121-.075,0-.66-.031-2.145-.031Zm3.48-5.04h-6.78V215h6.78Zm0,2.431h-6.78v1.8h6.78Z"/><path class="a" d="M181.575,228.322c.09.045.135.106.135.165a1.12,1.12,0,0,1-.06.271,5.154,5.154,0,0,0-.12,1.38,23.929,23.929,0,0,0,.21,3.4c.225,1.771.87,3.061,1.59,3.061.6,0,1.17-.96,1.6-2.356a1.9,1.9,0,0,0,.495.75.335.335,0,0,1,.12.375c-.42,1.215-1.23,2.356-2.235,2.356-1.26,0-2.205-1.741-2.535-4.1a32.921,32.921,0,0,1-.27-4.186,6.362,6.362,0,0,0-.12-1.439A4.158,4.158,0,0,1,181.575,228.322Zm7.155,1.156c.09-.045.165-.06.225,0a9.093,9.093,0,0,1,2.925,5.189.172.172,0,0,1-.105.195,2.931,2.931,0,0,1-.69.345.138.138,0,0,1-.2-.12,8.734,8.734,0,0,0-2.82-5.2A6.13,6.13,0,0,1,188.73,229.478Z"/><path class="a" d="M181.47,251.737a2.124,2.124,0,0,0-.33.465,5.781,5.781,0,0,1-1.125,1.29c-.1.106-.165.151-.24.151-.045,0-.1-.045-.21-.121a2.446,2.446,0,0,0-.51-.3,5,5,0,0,0,1.41-1.471,2.04,2.04,0,0,0,.255-.6,6.076,6.076,0,0,1,.676.255c.119.06.194.106.194.165S181.56,251.662,181.47,251.737Zm5.55-4.62c0,.09-.015.106-.12.106-.075,0-.54-.031-1.995-.031h-3.69c-1.44,0-1.92.031-2.009.031-.1,0-.121-.016-.121-.106v-.54c0-.1.016-.12.121-.12.089,0,.569.03,2.009.03h1.545v-1.019h-.75c-1.26,0-1.68.029-1.77.029-.105,0-.12-.015-.12-.119,0-.075.03-.36.03-1.216v-1.335c0-.84-.03-1.124-.03-1.215s.015-.12.12-.12c.09,0,.51.03,1.77.03h2.37c1.26,0,1.695-.03,1.77-.03.105,0,.12.016.12.12s-.03.375-.03,1.215v1.335c0,.856.03,1.141.03,1.216,0,.1-.015.119-.12.119-.075,0-.51-.029-1.77-.029h-.78v1.019h1.3c1.455,0,1.92-.03,1.995-.03.105,0,.12.016.12.12Zm-1.065,2.611c0,.629.03.794.03.884,0,.106-.015.12-.12.12-.075,0-.48-.03-1.665-.03h-.51v.795c0,.45.03.945.03,1.425a1.244,1.244,0,0,1-.4,1.1c-.27.179-.54.179-1.38.179-.285,0-.3-.014-.36-.255a1.994,1.994,0,0,0-.285-.645,6.716,6.716,0,0,0,.96.09c.465,0,.585-.119.585-.57V250.7h-.66c-1.185,0-1.575.03-1.665.03s-.12-.014-.12-.12c0-.09.03-.255.03-.884v-.675c0-.63-.03-.795-.03-.886s.015-.119.12-.119.48.029,1.665.029H184.2c1.185,0,1.59-.029,1.665-.029.1,0,.12.015.12.119s-.03.256-.03.886Zm-.555-7.545h-4.425v.974H185.4Zm0,1.6h-4.425v1.035H185.4Zm-.27,4.936h-3.885v1.335h3.885Zm.045,2.5c.1-.061.135-.076.21.014a7.584,7.584,0,0,1,1.05,1.515c.06.1.06.12-.1.225l-.33.21c-.18.1-.2.1-.255-.015a7.364,7.364,0,0,0-1-1.56c-.06-.075-.045-.1.135-.21Zm7.215-1.215a2.023,2.023,0,0,0-.54.524,14.5,14.5,0,0,1-4.44,3.36.6.6,0,0,1-.24.09c-.075,0-.1-.06-.195-.179a1.783,1.783,0,0,0-.5-.511,13.236,13.236,0,0,0,4.65-3.345,2.608,2.608,0,0,0,.525-.795,7.254,7.254,0,0,1,.72.481c.09.074.15.134.15.194C192.525,249.922,192.48,249.968,192.39,250.013Zm-.48-4.215c-.165.074-.255.194-.525.494a12.76,12.76,0,0,1-3.69,2.7.633.633,0,0,1-.225.09c-.075,0-.12-.06-.21-.21a1.713,1.713,0,0,0-.45-.479,10.931,10.931,0,0,0,3.885-2.7,2.717,2.717,0,0,0,.495-.75,5.123,5.123,0,0,1,.735.5c.1.089.135.134.135.195S192,245.753,191.91,245.8Zm-.315-3.705a2.374,2.374,0,0,0-.54.42,11.706,11.706,0,0,1-3.285,2.25.708.708,0,0,1-.21.075c-.075,0-.1-.061-.21-.21a1.647,1.647,0,0,0-.42-.481,10.164,10.164,0,0,0,3.48-2.294,2.364,2.364,0,0,0,.465-.63,5.515,5.515,0,0,1,.705.48c.09.074.15.15.15.21A.2.2,0,0,1,191.6,242.093Z"/><path class="a" d="M182.52,259.253a2.372,2.372,0,0,0,.315-.75,2.96,2.96,0,0,1,.555.3c.09.059.135.09.135.165,0,.059-.045.09-.12.135a1.388,1.388,0,0,0-.315.419,7.787,7.787,0,0,1-3.27,3.031.675.675,0,0,1-.225.09c-.074,0-.1-.061-.2-.2a.766.766,0,0,0-.33-.33,6.267,6.267,0,0,0,2.955-2.13c-.75.151-1.545.285-2.085.361a1.43,1.43,0,0,0-.524.149.314.314,0,0,1-.166.075c-.075,0-.12-.059-.149-.149a5.159,5.159,0,0,1-.165-.66,4.683,4.683,0,0,0,.809-.031,2.125,2.125,0,0,0,.316-.03q.381-.383.719-.764a9.43,9.43,0,0,0-1.5-1.291c-.1-.089-.09-.12-.015-.209l.18-.241c.12-.134.136-.134.225-.059l.36.269a10.486,10.486,0,0,0,.765-1.064,2.5,2.5,0,0,0,.27-.571,3.13,3.13,0,0,1,.675.346c.075.045.12.09.12.164s-.06.091-.15.136a.814.814,0,0,0-.3.27c-.315.4-.585.735-.915,1.094.24.21.48.45.705.66.255-.3.51-.615.765-.96a1.972,1.972,0,0,0,.315-.585,4.152,4.152,0,0,1,.615.345c.09.061.1.106.1.151s-.06.12-.15.165c-.165.089-.27.255-.585.615-.4.465-.825.93-1.3,1.425l1.5-.226Zm9.87,5.34c0,.09-.015.1-.12.1-.075,0-.525-.03-1.935-.03H181.2c-1.4,0-1.86.03-1.935.03-.1,0-.119-.014-.119-.1v-.45c0-.106.014-.121.119-.121.075,0,.54.031,1.935.031h2.13a10.344,10.344,0,0,0-.51-1.1c-1.41,0-1.905.03-1.98.03-.1,0-.12-.014-.12-.12v-.42c0-.1.015-.12.12-.12.075,0,.6.03,2.115.03h2.325a3.924,3.924,0,0,0-.075-.87l.855.076c.1.014.18.075.18.134s-.015.09-.09.165-.09.226-.09.495h2.88c1.53,0,2.025-.03,2.115-.03.105,0,.12.016.12.12v.42c0,.106-.015.12-.12.12-.09,0-.585-.03-2.115-.03h-.33a10.834,10.834,0,0,1-.555,1.1h2.28c1.41,0,1.86-.031,1.935-.031.1,0,.12.015.12.121Zm-2.445,2.639c0,1.59.03,1.86.03,1.935,0,.105-.015.12-.12.12h-.63c-.105,0-.12-.015-.12-.12v-.314h-6.63v.4c0,.09-.015.105-.12.105h-.63c-.105,0-.12-.015-.12-.105s.03-.36.03-1.965v-.734c0-.691-.03-.976-.03-1.066s.015-.12.12-.12c.09,0,.585.03,2.055.03h4.02c1.47,0,1.965-.03,2.055-.03.105,0,.12.016.12.12s-.03.361-.03.915ZM189.1,266h-6.63v.825h6.63Zm0,1.395h-6.63v.855h6.63Zm-2.445-7.665c.135-.075.165-.075.225,0a8.954,8.954,0,0,1,1.11,1.515c.045.091.045.12-.075.21l-.255.2c-.135.106-.165.076-.225-.03-.12-.21-.24-.434-.39-.659-1.08.194-2.31.4-3.36.555a1.214,1.214,0,0,0-.555.179.3.3,0,0,1-.165.09c-.06,0-.1-.045-.165-.165a6.309,6.309,0,0,1-.24-.7c.39,0,.825-.03,1.17-.061v-3.075c0-.974-.03-1.394-.03-1.469,0-.1.015-.121.12-.121s.465.031,1.335.031h1.23c.795,0,1.05-.031,1.125-.031.1,0,.12.016.12.121,0,.075-.03.36-.03,1.11v.944c0,.75.03,1.035.03,1.111,0,.12-.015.134-.12.134-.075,0-.33-.029-1.125-.029h-1.935v1.185c.72-.09,1.515-.21,2.235-.33l-.315-.39c-.09-.09-.075-.106.06-.181Zm-3,3.225a9.115,9.115,0,0,1,.495,1.1h3.09a11.7,11.7,0,0,0,.48-1.1Zm3.24-6.164h-2.445v.81H186.9Zm0,1.35h-2.445v.884H186.9Zm4.185-1.98a.759.759,0,0,0,.36-.045.659.659,0,0,1,.15-.03c.075,0,.165.059.345.24s.255.284.255.345-.015.1-.105.165a.867.867,0,0,0-.3.314c-.315.42-.63.811-1.05,1.306.9.585,1.44,1.185,1.44,1.89a.846.846,0,0,1-.66.929,3.22,3.22,0,0,1-1.14.106c-.3,0-.3,0-.375-.3a1.814,1.814,0,0,0-.2-.435,8.236,8.236,0,0,0,.825.06c.435,0,.795-.06.795-.524,0-.481-.525-.946-1.59-1.651a10.22,10.22,0,0,0,1.305-1.724h-1.86v3.434c0,1.066.03,1.5.03,1.59s-.015.106-.12.106h-.54c-.12,0-.135-.015-.135-.106s.03-.449.03-1.5v-2.55c0-1.064-.03-1.454-.03-1.529,0-.106.015-.12.135-.12.075,0,.33.03.945.03Z"/><path class="a" d="M187.1,281.078c0,.12-.03.165-.165.18a4.106,4.106,0,0,1-.645.06c-.09,0-.135-.075-.135-.18,0-.659,0-1.395.015-2.159-1.65.824-2.46,1.589-2.46,2.489s.825,1.245,2.565,1.245a26.413,26.413,0,0,0,3.57-.3.125.125,0,0,1,.165.105,4.273,4.273,0,0,1,.09.735c0,.135-.06.2-.12.21a29.644,29.644,0,0,1-3.705.21c-2.1,0-3.465-.54-3.465-2.145,0-1.26.825-2.28,3.315-3.5-.03-1.019-.375-1.425-1.26-1.41a4.275,4.275,0,0,0-2.46,1.215c-.54.51-.9.9-1.425,1.455-.09.105-.15.105-.225.03a4.869,4.869,0,0,1-.525-.585c-.045-.09-.059-.12.03-.21a16.454,16.454,0,0,0,3.48-4.17c-.93.061-1.845.061-2.79.031-.12,0-.15-.045-.165-.151-.03-.179-.075-.509-.09-.75a29.79,29.79,0,0,0,3.48-.014,13.411,13.411,0,0,0,.54-1.5,2.25,2.25,0,0,0,.12-.81,4.853,4.853,0,0,1,1.125.329.186.186,0,0,1,.03.33,1.407,1.407,0,0,0-.27.42c-.18.375-.315.691-.51,1.141a28.789,28.789,0,0,0,3.165-.495c.12-.031.15-.031.18.059.03.21.075.42.09.66,0,.106-.03.151-.195.18-1.185.211-2.46.375-3.66.495a12.624,12.624,0,0,1-1.53,2.236l.015.029a3.258,3.258,0,0,1,1.875-.645,1.735,1.735,0,0,1,1.89,1.755c.735-.33,1.59-.72,2.34-1.08a4.1,4.1,0,0,0,1.14-.765,3.585,3.585,0,0,1,.735.871c.12.224,0,.314-.15.344a4.4,4.4,0,0,0-.825.241c-1.14.479-2.085.824-3.18,1.29Z"/><path class="a" d="M192.315,295.118c0,.1,0,.12-.1.12s-.555-.03-1.965-.03h-.975a19.438,19.438,0,0,1-.45,2.325,1.918,1.918,0,0,1-2.13,1.515c-.33,0-.9-.015-1.53-.06-.3-.015-.3-.015-.36-.315a2.332,2.332,0,0,0-.225-.69,16.65,16.65,0,0,0,2.025.15c.615,0,1.11-.135,1.3-.87a14.833,14.833,0,0,0,.42-2.055h-6.96c-1.425,0-1.889.03-1.965.03-.1,0-.12-.015-.12-.12v-.66c0-.1.015-.12.12-.12.076,0,.54.03,1.965.03h7.08c.075-.63.135-1.349.195-2.16h-5.985l-.375.99c-.045.12-.075.135-.255.105l-.51-.09c-.225-.045-.24-.075-.21-.18a28.727,28.727,0,0,0,1.875-5.984,6.171,6.171,0,0,0,.12-1.2c.39.059.69.12,1,.194.135.03.2.091.2.165,0,.091-.045.136-.12.21a1.88,1.88,0,0,0-.27.8c-.075.33-.15.676-.24,1.006h5.115c1.425,0,1.89-.031,1.965-.031.1,0,.12.015.12.121v.66c0,.1-.015.119-.12.119-.075,0-.54-.029-1.965-.029H183.66c-.21.764-.45,1.545-.72,2.324H187.6c1.365,0,1.815-.015,1.89-.015.105,0,.165.03.15.151l-.12,1.335c-.045.524-.09,1.034-.15,1.514h.87c1.41,0,1.875-.03,1.965-.03s.1.016.1.12Z"/><path class="a" d="M184.185,305.5c1.2-.194,2.1-.375,2.79-.54a1.549,1.549,0,0,0,.465-.18.261.261,0,0,1,.18-.059c.06,0,.09.029.165.074a4.244,4.244,0,0,1,.555.48.373.373,0,0,1,.105.225.273.273,0,0,1-.165.24,2.251,2.251,0,0,0-.525.39c-1.08,1.1-2.1,2.19-3.165,3.315a2.021,2.021,0,0,1,.885-.21c.78,0,1.38.585,1.59,1.665.285,1.41.57,1.635,2.19,1.635a12.384,12.384,0,0,0,2.22-.225c.12-.03.165.015.18.15a5.014,5.014,0,0,1,.06.735c0,.105-.06.15-.195.165a12.817,12.817,0,0,1-2.145.2c-2.16,0-2.82-.48-3.12-1.98-.21-1.065-.465-1.635-1.155-1.635a2.6,2.6,0,0,0-1.7.87c-.765.735-1.65,1.785-2.325,2.58a.181.181,0,0,1-.24.015,6.851,6.851,0,0,1-.585-.525.193.193,0,0,1,.03-.27c1.111-1.125,2.19-2.235,2.865-2.925.945-.99,2.055-2.22,3.525-3.81-1.6.33-2.865.585-4.14.856a3.9,3.9,0,0,0-.615.209.57.57,0,0,1-.27.076c-.075,0-.135-.061-.195-.181a6.355,6.355,0,0,1-.39-1.035A17.32,17.32,0,0,0,184.185,305.5Zm3.63-3.1c.135.03.15.075.12.224a5.3,5.3,0,0,1-.225.691.17.17,0,0,1-.2.1,21.008,21.008,0,0,1-3.81-1.229.146.146,0,0,1-.09-.2,8.273,8.273,0,0,1,.3-.809A24.516,24.516,0,0,0,187.815,302.394Z"/><path class="a" d="M183.87,322.628a5.856,5.856,0,0,1,3.225-1.065,3.186,3.186,0,0,1,3.495,3.285c0,2.235-1.77,3.855-4.95,3.855-1.8,0-2.61-.81-2.61-1.77a1.636,1.636,0,0,1,1.755-1.53,2.539,2.539,0,0,1,2.55,2.145,2.767,2.767,0,0,0,2.19-2.73,2.43,2.43,0,0,0-2.6-2.46,6.911,6.911,0,0,0-4.125,1.7,14.42,14.42,0,0,0-1.32,1.23c-.12.12-.2.135-.3.03a6.921,6.921,0,0,1-.555-.6c-.06-.075-.045-.135.06-.225a40.978,40.978,0,0,0,3.39-3.344c.87-.946,1.77-1.906,2.925-3.271-1.245.2-2.415.42-3.75.675a2.376,2.376,0,0,0-.525.136.891.891,0,0,1-.285.075.266.266,0,0,1-.24-.181,4.726,4.726,0,0,1-.36-1.035,5.541,5.541,0,0,0,1.32.016c1.185-.121,2.415-.286,3.735-.54a1.628,1.628,0,0,0,.465-.135.465.465,0,0,1,.21-.106.456.456,0,0,1,.27.12,3.731,3.731,0,0,1,.645.63.405.405,0,0,1,.1.255.31.31,0,0,1-.225.285,1.623,1.623,0,0,0-.705.526c-1.335,1.409-2.34,2.459-3.84,3.989Zm.945,3.585c-.48,0-.915.24-.915.7,0,.495.54.915,1.545.915a5.443,5.443,0,0,0,.975-.075A1.74,1.74,0,0,0,184.815,326.213Z"/><path class="a" d="M192.765,332.888a2.115,2.115,0,1,1-2.115-2.085A2.107,2.107,0,0,1,192.765,332.888Zm-3.45,0a1.335,1.335,0,1,0,1.335-1.335A1.339,1.339,0,0,0,189.315,332.888Z"/><path class="a" d="M159.93,119.813a48.813,48.813,0,0,0-6.015,1.679,4.9,4.9,0,0,1-.495.2c-.06,0-.135-.076-.195-.18a6.876,6.876,0,0,1-.36-.78,2.767,2.767,0,0,0,.6-.18,5.934,5.934,0,0,0,1.68-1.035c1.5-1.231,2.955-2.535,4.95-4.5-1.275.21-2.535.42-3.72.644-.21.045-.39.091-.54.12a2.149,2.149,0,0,1-.435.12c-.09,0-.15-.089-.225-.224a6.113,6.113,0,0,1-.345-.931,7.554,7.554,0,0,0,1.32.016c1.2-.12,2.49-.316,3.93-.54a1.3,1.3,0,0,0,.57-.2.443.443,0,0,1,.225-.089.361.361,0,0,1,.255.12,3.032,3.032,0,0,1,.54.54.472.472,0,0,1,.12.285.3.3,0,0,1-.195.255,2.144,2.144,0,0,0-.54.345c-1.965,1.769-3.69,3.21-5.46,4.589l.045.045a54.4,54.4,0,0,1,8.235-1.785c.15-.014.21.016.24.12a4.078,4.078,0,0,1,.1.766c.015.119-.045.149-.225.149a9.8,9.8,0,0,0-2.73.526c-1.725.614-3.015,1.755-3.015,3.119,0,1.725,1.98,2.19,4.02,2.2.12,0,.165.045.165.181-.015.21-.06.54-.09.719-.015.15-.06.2-.225.2-.27,0-.585-.031-.93-.061-2.355-.24-3.87-1.2-3.87-3.029,0-1.155.72-2.49,2.61-3.375Z"/><path class="a" d="M155.73,136.282a3.055,3.055,0,0,1,2.115-1.094c1.485,0,1.965,1.08,2.115,2.594.12,1.276.36,2.01,1.2,2.01a2.4,2.4,0,0,0,1.92-1.035,7.225,7.225,0,0,0,1.26-2.475,1.914,1.914,0,0,0,.54.795c.12.09.135.21.075.391a6.81,6.81,0,0,1-1.185,2.039,3.238,3.238,0,0,1-2.625,1.32c-1.44,0-1.95-.885-2.145-2.715-.165-1.514-.51-2.1-1.3-2.1a2.876,2.876,0,0,0-2.07,1.29,16.835,16.835,0,0,0-1.845,3.314c-.06.151-.134.165-.27.106a2.982,2.982,0,0,1-.66-.391c-.09-.075-.09-.149-.03-.255,1.935-3.779,3.525-6.944,4.56-9.149a6.6,6.6,0,0,0,.585-1.725,5.485,5.485,0,0,1,1.08.569.261.261,0,0,1,.03.436,1.933,1.933,0,0,0-.45.614c-1.035,1.936-2.04,3.856-2.925,5.43Z"/><path class="a" d="M159.315,146.183c.135-.031.18,0,.195.089.03.18.06.451.075.646.015.135-.015.165-.135.18-.81.165-1.62.3-2.5.434a36.089,36.089,0,0,1-3.015,6.33c-.075.12-.15.1-.24.045a3.465,3.465,0,0,1-.6-.45c-.09-.075-.09-.135-.015-.255a26.345,26.345,0,0,0,2.82-5.58c-.645.061-1.245.106-1.89.106a7.925,7.925,0,0,1-.795-.031c-.135-.014-.149-.029-.18-.179a4.684,4.684,0,0,1-.09-.75c.48.045.87.059,1.185.059a19.54,19.54,0,0,0,2.04-.119c.18-.57.315-1.125.45-1.756a4.425,4.425,0,0,0,.12-1.17,6.281,6.281,0,0,1,1.17.3.171.171,0,0,1,.135.165.307.307,0,0,1-.12.225,1.359,1.359,0,0,0-.21.465c-.165.54-.33,1.094-.48,1.62A20.858,20.858,0,0,0,159.315,146.183Zm.915,3.63a4.657,4.657,0,0,0-.09-.96,4.621,4.621,0,0,1,1.02.2c.1.029.165.09.165.18a.777.777,0,0,1-.09.269,2.313,2.313,0,0,0-.06.705,25.275,25.275,0,0,0,.18,2.76,13.055,13.055,0,0,1,2.835,1.5c.12.075.1.12.06.24a4.774,4.774,0,0,1-.36.66c-.075.1-.15.09-.24.015a9.1,9.1,0,0,0-2.28-1.425c.015,1.515-.75,2.34-2.685,2.34-1.14,0-2.325-.585-2.325-1.83,0-1.125,1.08-1.89,2.55-1.89a7.443,7.443,0,0,1,1.5.18C160.32,151.822,160.245,150.622,160.23,149.813Zm-1.275,3.584c-1.2,0-1.74.465-1.74,1.02,0,.69.555,1,1.545,1,1.23,0,1.68-.645,1.68-1.409a2.05,2.05,0,0,0-.015-.361A4.963,4.963,0,0,0,158.955,153.4Zm2.55-6.719c.075-.12.12-.135.255-.09A10.627,10.627,0,0,1,164.7,148c.1.091.1.15.03.271a3.894,3.894,0,0,1-.345.6c-.075.106-.12.09-.21.03a10.1,10.1,0,0,0-3.06-1.53C161.265,147.112,161.385,146.857,161.505,146.678Z"/><path class="a" d="M159.27,163.492a11.137,11.137,0,0,0,6.195,7.215,2.8,2.8,0,0,0-.54.63c-.09.165-.135.226-.21.226a.565.565,0,0,1-.225-.091,12.1,12.1,0,0,1-5.745-7.2,11.178,11.178,0,0,1-.825,2.536,9.881,9.881,0,0,1-4.845,4.71.79.79,0,0,1-.24.074c-.075,0-.12-.06-.225-.21a2.519,2.519,0,0,0-.555-.51,9.189,9.189,0,0,0,5-4.439,10.177,10.177,0,0,0,.87-2.941h-3.435c-1.44,0-1.92.03-1.995.03-.105,0-.12-.014-.12-.134V162.7c0-.1.015-.12.12-.12.075,0,.555.03,1.995.03h3.54c.075-.75.105-1.544.12-2.4a8.711,8.711,0,0,0-.075-1.695c.345.014.765.045,1.065.09.15.03.21.089.21.165a.641.641,0,0,1-.09.285,3.22,3.22,0,0,0-.12,1.125c-.015.84-.06,1.649-.15,2.429h4.035c1.44,0,1.92-.03,1.995-.03.1,0,.12.016.12.12v.691c0,.12-.015.134-.12.134-.075,0-.555-.03-1.995-.03Z"/><path class="a" d="M157.635,174.923a2.645,2.645,0,0,0-.495-.96,7.459,7.459,0,0,1,1.17-.106c.15,0,.255.076.255.181,0,.06-.03.15-.03.239a2.723,2.723,0,0,0,.12.63c.1.391.2.66.285.976a28.18,28.18,0,0,0,3.315-.87c.09-.031.135-.045.165.059a4.3,4.3,0,0,1,.135.556.167.167,0,0,1-.135.21c-1.11.345-2.16.6-3.225.84a14.088,14.088,0,0,0,.7,1.694,17.528,17.528,0,0,0,2.985-.854c.12-.045.165-.031.21.075a3.911,3.911,0,0,1,.135.569c.015.106,0,.165-.12.21-.915.3-1.9.57-2.85.78a10.7,10.7,0,0,0,2.34,3.06c.09.091.12.136.06.256a2.551,2.551,0,0,1-.36.585c-.12.135-.2.149-.33.029a5.448,5.448,0,0,0-1.065-.54,7.865,7.865,0,0,0-2.865-.449c-1.56,0-2.565.449-2.565,1.484,0,1.155,1.41,1.575,3.795,1.575.54,0,1.035-.045,1.53-.089.12-.016.135.059.12.165a4.459,4.459,0,0,1-.165.719c-.03.12-.06.165-.2.18-.39.03-.75.061-1.32.061-3,0-4.725-.811-4.725-2.536,0-1.469,1.275-2.37,3.465-2.37a7.237,7.237,0,0,1,3.105.555,12.822,12.822,0,0,1-1.7-2.489,30.392,30.392,0,0,1-4.335.495c-.12,0-.135-.016-.18-.151a3.243,3.243,0,0,1-.135-.705,27.073,27.073,0,0,0,4.275-.45c-.24-.51-.495-1.1-.735-1.694a27.508,27.508,0,0,1-3.945.434c-.12,0-.165-.014-.2-.149s-.09-.42-.135-.69a30.279,30.279,0,0,0,4.02-.361C157.9,175.732,157.8,175.4,157.635,174.923Z"/><path class="a" d="M159.315,191.183c.135-.031.18,0,.195.089.03.18.06.451.075.646.015.135-.015.165-.135.18-.81.165-1.62.3-2.5.434a36.089,36.089,0,0,1-3.015,6.33c-.075.12-.15.1-.24.045a3.465,3.465,0,0,1-.6-.45c-.09-.075-.09-.135-.015-.255a26.345,26.345,0,0,0,2.82-5.58c-.645.061-1.245.106-1.89.106a7.925,7.925,0,0,1-.795-.031c-.135-.014-.149-.029-.18-.179a4.684,4.684,0,0,1-.09-.75c.48.045.87.059,1.185.059a19.54,19.54,0,0,0,2.04-.119c.18-.57.315-1.125.45-1.756a4.425,4.425,0,0,0,.12-1.17,6.281,6.281,0,0,1,1.17.3.171.171,0,0,1,.135.165.307.307,0,0,1-.12.225,1.359,1.359,0,0,0-.21.465c-.165.54-.33,1.094-.48,1.62A20.858,20.858,0,0,0,159.315,191.183Zm.915,3.63a4.657,4.657,0,0,0-.09-.96,4.621,4.621,0,0,1,1.02.2c.1.029.165.09.165.18a.777.777,0,0,1-.09.269,2.313,2.313,0,0,0-.06.705,25.275,25.275,0,0,0,.18,2.76,13.055,13.055,0,0,1,2.835,1.5c.12.075.1.12.06.24a4.774,4.774,0,0,1-.36.66c-.075.1-.15.09-.24.015a9.1,9.1,0,0,0-2.28-1.425c.015,1.515-.75,2.34-2.685,2.34-1.14,0-2.325-.585-2.325-1.83,0-1.125,1.08-1.89,2.55-1.89a7.443,7.443,0,0,1,1.5.18C160.32,196.822,160.245,195.622,160.23,194.813Zm-1.275,3.584c-1.2,0-1.74.465-1.74,1.02,0,.69.555,1,1.545,1,1.23,0,1.68-.645,1.68-1.409a2.05,2.05,0,0,0-.015-.361A4.963,4.963,0,0,0,158.955,198.4Zm2.55-6.719c.075-.12.12-.135.255-.09A10.627,10.627,0,0,1,164.7,193c.1.091.1.15.03.271a3.894,3.894,0,0,1-.345.6c-.075.106-.12.09-.21.03a10.1,10.1,0,0,0-3.06-1.53C161.265,192.112,161.385,191.857,161.505,191.678Z"/><path class="a" d="M165.36,205.973c0,.1-.015.12-.12.12-.075,0-.54-.03-1.935-.03h-5.94a17.74,17.74,0,0,1-1.98,3.285c-.015.224-.015.524-.015.929v4.411c0,1.334.03,1.919.03,1.995s-.015.1-.12.1h-.72c-.1,0-.12-.015-.12-.1s.03-.661.03-1.995v-4.246a17.941,17.941,0,0,1-1.62,1.576c-.105.089-.164.134-.21.134s-.119-.059-.195-.195a1.531,1.531,0,0,0-.465-.51,15.054,15.054,0,0,0,2.475-2.4,6.7,6.7,0,0,0-.09-.811l.675.045a14.23,14.23,0,0,0,1.335-2.219h-2.04c-1.4,0-1.875.03-1.95.03-.1,0-.12-.016-.12-.12v-.66c0-.105.015-.121.12-.121.075,0,.555.031,1.95.031h2.43c.15-.345.27-.691.39-1.035a4.26,4.26,0,0,0,.21-1.02,7.934,7.934,0,0,1,.945.18c.135.045.21.1.21.179a.332.332,0,0,1-.15.241,2.13,2.13,0,0,0-.315.629c-.09.271-.195.555-.315.826H163.3c1.4,0,1.86-.031,1.935-.031.1,0,.12.016.12.121Zm-.165,6.179c0,.106-.015.12-.12.12-.075,0-.585-.03-2.07-.03h-1.71v1.186c0,.7.015,1.2.015,1.965,0,.509-.09.779-.39.989a4.384,4.384,0,0,1-2.04.21c-.3,0-.3,0-.375-.3a1.872,1.872,0,0,0-.315-.675,13.665,13.665,0,0,0,1.575.09c.495,0,.63-.1.63-.569v-2.9H158.61c-1.485,0-1.995.03-2.055.03-.1,0-.12-.014-.12-.12v-.63c0-.1.015-.12.12-.12.06,0,.57.031,2.055.031H160.4v-.286a4.671,4.671,0,0,0-.105-1.139c.18.029.345.029.5.059a12.565,12.565,0,0,0,2.01-1.455H159.3c-1.35,0-1.8.031-1.89.031-.105,0-.12-.015-.12-.121v-.615c0-.1.015-.12.12-.12.09,0,.54.03,1.89.03h3.78a.7.7,0,0,0,.33-.045.288.288,0,0,1,.15-.044c.1,0,.21.044.45.285.255.269.3.359.3.45a.27.27,0,0,1-.195.239,1.714,1.714,0,0,0-.6.361,20.552,20.552,0,0,1-2.22,1.575v.795h1.71c1.485,0,1.995-.031,2.07-.031.1,0,.12.015.12.12Z"/><path class="a" d="M165.255,221.407c0,.106-.015.12-.12.12-.09,0-.555-.029-1.98-.029H157.44a13.736,13.736,0,0,1-2.055,3.3v4.919c0,1.29.03,1.846.03,1.92,0,.105-.015.12-.12.12h-.72c-.1,0-.12-.015-.12-.12,0-.074.03-.63.03-1.92v-3.93a16.746,16.746,0,0,1-1.725,1.471c-.1.074-.165.119-.225.119s-.105-.06-.2-.194a1.856,1.856,0,0,0-.495-.481,13.321,13.321,0,0,0,2.625-2.189,7.843,7.843,0,0,0-.09-.856c.285.016.525.031.75.061a11.331,11.331,0,0,0,1.335-2.22h-2.04c-1.425,0-1.9.029-1.98.029-.105,0-.12-.014-.12-.12v-.644c0-.106.015-.12.12-.12.076,0,.555.03,1.98.03h2.385a10.775,10.775,0,0,0,.45-1.4,3.152,3.152,0,0,0,.135-1,9.166,9.166,0,0,1,.96.2c.15.045.2.1.2.195a.381.381,0,0,1-.12.21,1.342,1.342,0,0,0-.255.569c-.12.42-.255.826-.4,1.231h5.385c1.425,0,1.89-.03,1.98-.03.105,0,.12.014.12.12Zm.045,9.615c0,.1-.015.121-.12.121-.09,0-.585-.031-2.1-.031h-4.755c-1.515,0-2.01.031-2.085.031-.105,0-.12-.016-.12-.121v-.66c0-.1.015-.12.12-.12.075,0,.57.03,2.085.03h1.665v-3.825h-1.065c-1.41,0-1.875.031-1.965.031-.105,0-.12-.016-.12-.121v-.629c0-.106.015-.121.12-.121.09,0,.555.031,1.965.031h1.065v-1.05a11.679,11.679,0,0,0-.105-2.04,8.606,8.606,0,0,1,1.005.09c.1.014.18.059.18.12a1.107,1.107,0,0,1-.06.269,5.782,5.782,0,0,0-.1,1.531v1.08h1.455c1.425,0,1.875-.031,1.95-.031.1,0,.12.015.12.121v.629c0,.105-.015.121-.12.121-.075,0-.525-.031-1.95-.031H160.9v3.825h2.175c1.515,0,2.01-.03,2.1-.03.105,0,.12.015.12.12Z"/><path class="a" d="M157.455,234.143a.217.217,0,0,1,.18.195c0,.149-.075.285-.075.524.015.33.045.63.09.96a20.128,20.128,0,0,0,.585,3.031c.885-.435,1.785-.856,2.67-1.35a2.443,2.443,0,0,0,.87-.69,6.425,6.425,0,0,1,.765.839c.12.18.09.391-.18.42a5.753,5.753,0,0,0-1.32.481c-1.095.51-2.385,1.125-3.4,1.71-1.515.884-2.22,1.665-2.22,2.715,0,1.335,1.26,1.665,3.525,1.649a28.837,28.837,0,0,0,3.855-.314c.135-.016.18.014.21.134a6.566,6.566,0,0,1,.09.781c.015.134-.045.194-.21.21a33.613,33.613,0,0,1-3.99.209c-2.6,0-4.47-.57-4.47-2.625,0-1.44,1.02-2.549,2.925-3.705a26.822,26.822,0,0,1-.8-3.839,5.511,5.511,0,0,0-.33-1.47A6.659,6.659,0,0,1,157.455,234.143Z"/><path class="a" d="M159.315,251.183c.135-.031.18,0,.195.089.03.18.06.451.075.646.015.135-.015.165-.135.18-.81.165-1.62.3-2.5.434a36.089,36.089,0,0,1-3.015,6.33c-.075.12-.15.105-.24.045a3.465,3.465,0,0,1-.6-.45c-.09-.075-.09-.135-.015-.255a26.345,26.345,0,0,0,2.82-5.58c-.645.061-1.245.106-1.89.106a7.925,7.925,0,0,1-.795-.031c-.135-.014-.149-.029-.18-.179a4.684,4.684,0,0,1-.09-.75c.48.045.87.059,1.185.059a19.54,19.54,0,0,0,2.04-.119c.18-.57.315-1.125.45-1.756a4.425,4.425,0,0,0,.12-1.17,6.281,6.281,0,0,1,1.17.3.171.171,0,0,1,.135.165.307.307,0,0,1-.12.225,1.359,1.359,0,0,0-.21.465c-.165.54-.33,1.094-.48,1.62A20.858,20.858,0,0,0,159.315,251.183Zm.915,3.63a4.657,4.657,0,0,0-.09-.96,4.621,4.621,0,0,1,1.02.2c.1.029.165.09.165.18a.777.777,0,0,1-.09.269,2.313,2.313,0,0,0-.06.705,25.275,25.275,0,0,0,.18,2.76,13.055,13.055,0,0,1,2.835,1.5c.12.075.1.12.06.24a4.774,4.774,0,0,1-.36.66c-.075.105-.15.09-.24.015a9.1,9.1,0,0,0-2.28-1.425c.015,1.515-.75,2.34-2.685,2.34-1.14,0-2.325-.585-2.325-1.83,0-1.125,1.08-1.89,2.55-1.89a7.442,7.442,0,0,1,1.5.18C160.32,256.822,160.245,255.622,160.23,254.813Zm-1.275,3.584c-1.2,0-1.74.465-1.74,1.02,0,.69.555,1.005,1.545,1.005,1.23,0,1.68-.645,1.68-1.409a2.05,2.05,0,0,0-.015-.361A4.963,4.963,0,0,0,158.955,258.4Zm2.55-6.719c.075-.12.12-.135.255-.09A10.627,10.627,0,0,1,164.7,253c.1.091.1.15.03.271a3.894,3.894,0,0,1-.345.6c-.075.106-.12.09-.21.03a10.1,10.1,0,0,0-3.06-1.53C161.265,252.112,161.385,251.857,161.505,251.678Z"/><path class="a" d="M156.87,264.428c.135.075.2.135.2.224a.376.376,0,0,1-.06.2,1.414,1.414,0,0,0-.27.585,22.377,22.377,0,0,0-.45,3.45,10.418,10.418,0,0,0,.06,1.694c.315-.63.765-1.484,1.11-2.159a2.12,2.12,0,0,0,.3.614.318.318,0,0,1-.015.406,15.266,15.266,0,0,0-.945,1.979,1.2,1.2,0,0,0-.1.48c.015.135-.015.18-.1.21-.135.031-.465.076-.72.105-.075,0-.12-.06-.15-.149a8.967,8.967,0,0,1-.375-2.8,27.81,27.81,0,0,1,.345-3.526,8.191,8.191,0,0,0,.135-1.665A4.251,4.251,0,0,1,156.87,264.428Zm4.74-.151c.225.045.255.151.225.3a2.516,2.516,0,0,0-.03.7c.12,1.665.18,2.91.18,3.976a8.125,8.125,0,0,1-1.23,4.92,7.7,7.7,0,0,1-2.475,2.174.282.282,0,0,1-.39-.03,2.229,2.229,0,0,0-.765-.42,6.394,6.394,0,0,0,3.84-6.6c0-1.035-.06-2.46-.15-3.571a6.264,6.264,0,0,0-.3-1.575A5.428,5.428,0,0,1,161.61,264.277Z"/><path class="a" d="M162.48,278.349a.256.256,0,0,1,.165-.09c.045,0,.09.029.165.09a10.371,10.371,0,0,1,2.88,2.7.325.325,0,0,1,.075.181c0,.059-.015.1-.1.179l-.54.45c-.075.06-.12.09-.15.09-.06,0-.1-.014-.165-.12a10.922,10.922,0,0,0-2.76-2.8c-.075-.044-.1-.075-.1-.105,0-.045.015-.074.075-.149Z"/><path class="a" d="M138.9,119.3h-.84v-3.765H125.925v-.779H138.9Z"/><path class="a" d="M133.9,129.172a.632.632,0,0,0,.33-.045.406.406,0,0,1,.15-.06c.09,0,.2.076.42.316.18.194.255.314.255.42,0,.074-.06.119-.165.165a1.238,1.238,0,0,0-.435.345,14.118,14.118,0,0,1-1.905,1.6,18.524,18.524,0,0,0,6.12,1.4,2.109,2.109,0,0,0-.4.689c-.09.2-.12.21-.4.181a16.7,16.7,0,0,1-6.12-1.756,14.831,14.831,0,0,1-5.49,1.8c-.285.044-.3.029-.39-.151a2.068,2.068,0,0,0-.36-.57,16.482,16.482,0,0,0,5.475-1.56,10.282,10.282,0,0,1-1.935-1.71,13.257,13.257,0,0,1-3.03,2.1.509.509,0,0,1-.21.075c-.06,0-.105-.045-.165-.149a1.831,1.831,0,0,0-.42-.481,10.261,10.261,0,0,0,4.65-3.689l-.09-.03a.8.8,0,0,1-.645-.885v-.571a6.053,6.053,0,0,0-.075-1.169,6.1,6.1,0,0,1,.885.089c.12.031.165.076.165.135a.269.269,0,0,1-.075.165c-.06.091-.06.24-.06.66v.361c0,.33.045.479.39.54a6.21,6.21,0,0,0,1.245.09,4.5,4.5,0,0,0,1.89-.255c.345-.165.435-.54.48-1.05a2.172,2.172,0,0,0,.555.3c.24.09.27.134.195.42a1.419,1.419,0,0,1-.735,1.019,6.324,6.324,0,0,1-2.415.316c-.285,0-.555,0-.795-.016-.24.33-.5.66-.75.96Zm3.96-3.869c0,1.184.03,1.319.03,1.394,0,.09-.03.106-.135.106h-.675c-.09,0-.12-.016-.12-.106v-1.814h-10.35v1.845c0,.1-.015.12-.12.12h-.675c-.105,0-.12-.016-.12-.12,0-.061.03-.21.03-1.4v-.449c0-.405-.03-.585-.03-.66,0-.106.015-.135.12-.135.076,0,.6.029,2.07.029h.75a5.369,5.369,0,0,0-.54-.989c-.045-.09-.03-.136.135-.181l.39-.12c.135-.045.165-.045.225.046a6.536,6.536,0,0,1,.66,1.244h2a6.553,6.553,0,0,0-.525-1.154c-.045-.09-.03-.12.12-.165l.4-.135c.135-.046.15-.03.195.045a7.622,7.622,0,0,1,.66,1.409h1.56a9.248,9.248,0,0,0,.495-.944,3.446,3.446,0,0,0,.255-.885,3.655,3.655,0,0,1,.84.255c.09.045.165.074.165.149a.236.236,0,0,1-.1.2,1.182,1.182,0,0,0-.27.314c-.165.316-.33.585-.54.915h.945c1.47,0,1.98-.029,2.055-.029.105,0,.135.029.135.135,0,.075-.03.24-.03.57Zm-9.51.764c.135.076.15.09.12.18a6.414,6.414,0,0,1-1.485,2.2c-.09.09-.12.09-.27-.029l-.345-.285c-.12-.09-.15-.12-.06-.2a5.89,5.89,0,0,0,1.47-2.04c.03-.089.06-.12.225-.03Zm8.235-4.335a1.434,1.434,0,0,0-.42.045c-.21.045-.4.076-.6.106-1.305.21-2.73.375-4.155.495-1.62.135-3.195.21-4.485.21-.21,0-.225,0-.3-.195a2.391,2.391,0,0,0-.345-.585,46.226,46.226,0,0,0,4.9-.165,27.279,27.279,0,0,0,3.87-.51,4.071,4.071,0,0,0,.885-.3,4.112,4.112,0,0,1,.72.524.369.369,0,0,1,.135.226C136.8,121.657,136.71,121.732,136.59,121.732Zm-6.9,8.13a10.282,10.282,0,0,0,2.07,1.635,12.5,12.5,0,0,0,2.04-1.635Zm1.755-4.694c.09-.061.12-.061.195,0a5.928,5.928,0,0,1,1.125,1.079c.075.091.075.12-.06.226l-.33.255c-.15.1-.18.1-.24.014a5.843,5.843,0,0,0-1.08-1.17c-.075-.059-.075-.09.06-.179Zm3.81.6c.1-.09.135-.09.225-.015a11.752,11.752,0,0,1,1.83,1.994c.075.091.03.12-.075.226l-.345.33c-.135.135-.165.12-.24.014a12.682,12.682,0,0,0-1.755-2.07c-.06-.059-.06-.09.075-.21Z"/><path class="a" d="M124.65,135.817h.84v3.766h12.135v.779H124.65Z"/><path class="a" d="M133.1,153.577c0,.12-.03.165-.165.18a4.106,4.106,0,0,1-.645.06c-.09,0-.135-.075-.135-.179,0-.66,0-1.4.015-2.16-1.65.825-2.46,1.589-2.46,2.489s.825,1.245,2.565,1.245a26.251,26.251,0,0,0,3.57-.3c.075-.015.135,0,.165.106a4.25,4.25,0,0,1,.09.734c0,.135-.06.2-.12.21a29.45,29.45,0,0,1-3.705.21c-2.1,0-3.465-.54-3.465-2.145,0-1.259.825-2.28,3.315-3.495-.03-1.019-.375-1.425-1.26-1.41a4.271,4.271,0,0,0-2.46,1.216c-.54.51-.9.9-1.425,1.454-.09.1-.15.1-.225.03a4.8,4.8,0,0,1-.525-.585c-.045-.09-.059-.12.03-.21a16.435,16.435,0,0,0,3.48-4.17c-.93.061-1.845.061-2.79.031-.12,0-.15-.045-.165-.151-.03-.179-.075-.509-.09-.75a29.794,29.794,0,0,0,3.48-.014,13.414,13.414,0,0,0,.54-1.5,2.25,2.25,0,0,0,.12-.81,4.853,4.853,0,0,1,1.125.329.186.186,0,0,1,.03.33,1.407,1.407,0,0,0-.27.42c-.18.375-.315.691-.51,1.141a28.792,28.792,0,0,0,3.165-.495c.12-.031.15-.031.18.059.03.21.075.42.09.66,0,.106-.03.151-.195.18-1.185.211-2.46.375-3.66.495a12.625,12.625,0,0,1-1.53,2.236l.015.03a3.253,3.253,0,0,1,1.875-.646,1.735,1.735,0,0,1,1.89,1.755c.735-.33,1.59-.719,2.34-1.08a4.1,4.1,0,0,0,1.14-.764,3.584,3.584,0,0,1,.735.87c.12.224,0,.314-.15.344a4.485,4.485,0,0,0-.825.241c-1.14.479-2.085.825-3.18,1.29Z"/><path class="a" d="M127.965,167.678a39.491,39.491,0,0,0,4.08-1.846,2.216,2.216,0,0,0,0,.63c.045.315.03.3-.24.45a43.05,43.05,0,0,1-5.49,2.4,1.6,1.6,0,0,0-.524.254.263.263,0,0,1-.181.09c-.06,0-.12-.045-.165-.15a7.6,7.6,0,0,1-.33-.93,11.2,11.2,0,0,0,1.215-.314c.24-.075.48-.165.72-.256l-.075-6.584a11.239,11.239,0,0,0-.12-2.056,9.811,9.811,0,0,1,1.02.091c.12.015.2.074.2.135a.711.711,0,0,1-.09.285,4.848,4.848,0,0,0-.09,1.529Zm10.11,3.539c-.075.12-.12.18-.165.18s-.105-.044-.2-.135a21.168,21.168,0,0,1-3.075-3.675,11.479,11.479,0,0,1-5.22,4.05.622.622,0,0,1-.225.075c-.075,0-.12-.06-.21-.225a1.647,1.647,0,0,0-.495-.525c3.03-1.245,4.455-2.444,5.55-4.1a11.9,11.9,0,0,0,1.725-5.58,9.531,9.531,0,0,0,.015-2.069c.4.03.765.075,1.035.12.12.029.195.075.195.165a.863.863,0,0,1-.1.314,8.473,8.473,0,0,0-.195,1.441,14.03,14.03,0,0,1-1.545,5.489,14.519,14.519,0,0,0,3.435,3.84A3.193,3.193,0,0,0,138.075,171.217Zm-7.425-10.709c.12-.09.165-.09.24-.016a14.428,14.428,0,0,1,2.31,2.761c.06.09.03.135-.1.225l-.42.3a.406.406,0,0,1-.2.09c-.045,0-.06-.029-.1-.09a13.166,13.166,0,0,0-2.22-2.774c-.075-.075-.06-.106.09-.21Z"/><path class="a" d="M130.725,177.848a14.639,14.639,0,0,1,4.05-.856,2.858,2.858,0,0,1,3.12,2.925,3.262,3.262,0,0,1-1.98,3.1,9.783,9.783,0,0,1-3.1,1c-.165.031-.225-.014-.3-.15a2.062,2.062,0,0,0-.57-.63,10.266,10.266,0,0,0,3.435-.989,2.492,2.492,0,0,0,1.5-2.4c0-1.335-.885-1.995-2.22-1.995a13.539,13.539,0,0,0-4.425,1.2,3.39,3.39,0,0,0-.705.375.809.809,0,0,1-.285.134.38.38,0,0,1-.27-.165,5.656,5.656,0,0,1-.54-.989A13.65,13.65,0,0,0,130.725,177.848Z"/><path class="a" d="M133.68,191.365c-2.25.361-4.2.675-6.09,1.066a3.192,3.192,0,0,0-.9.255.85.85,0,0,1-.285.1.254.254,0,0,1-.21-.135,8.346,8.346,0,0,1-.42-1.064,11.759,11.759,0,0,0,1.86-.181c2.235-.359,5.28-.809,9.3-1.305.15-.014.225.031.255.121a4.243,4.243,0,0,1,.09.75c0,.134-.045.165-.195.179a6.21,6.21,0,0,0-2.19.45c-2.19.871-3.87,2.715-3.87,4.725,0,2.49,2.175,3.225,4.365,3.4.2.015.24.045.24.165a4.485,4.485,0,0,1-.09.72c-.03.165-.075.225-.24.21-2.535-.225-5.265-1.305-5.265-4.335,0-2.115,1.3-3.854,3.66-5.1Z"/><path class="a" d="M138.9,209.3h-.84v-3.765H125.925v-.779H138.9Z"/><path class="a" d="M131.37,215.992c0,.106-.015.12-.12.12s-.48-.03-1.785-.03h-.345a13.346,13.346,0,0,0,2.205,3.045,2.709,2.709,0,0,0-.375.6c-.06.12-.09.179-.135.179s-.09-.059-.165-.149a15.3,15.3,0,0,1-1.8-3.045c.015,3.975.12,7.274.12,7.5,0,.1-.015.12-.12.12h-.75c-.105,0-.12-.015-.12-.12,0-.225.12-3.6.135-7.484a18.982,18.982,0,0,1-2.55,4.889c-.06.09-.12.151-.165.151s-.089-.061-.15-.165a2.286,2.286,0,0,0-.4-.616,18.7,18.7,0,0,0,2.94-4.9h-.63c-1.29,0-1.695.03-1.785.03-.105,0-.105-.014-.105-.12v-.585c0-.1,0-.12.105-.12.09,0,.495.03,1.785.03h.885v-2.339c-.615.179-1.26.33-1.935.464-.3.045-.3.045-.435-.21a1.816,1.816,0,0,0-.359-.45,18.184,18.184,0,0,0,4.454-1.274,2.364,2.364,0,0,0,.675-.436,5.172,5.172,0,0,1,.645.526c.1.1.135.165.135.255s-.075.12-.24.134a2.375,2.375,0,0,0-.645.2c-.42.179-.9.344-1.41.525v2.609h.54c1.305,0,1.7-.03,1.785-.03s.12.016.12.12Zm6.225,2.76c0,3.945.03,4.62.03,4.7,0,.1-.015.12-.12.12h-.69c-.1,0-.12-.015-.12-.12v-1.035h-3.75v1.155c0,.1-.015.121-.12.121h-.675c-.1,0-.12-.016-.12-.121,0-.089.03-.765.03-4.769v-2.776c0-2.774-.03-3.5-.03-3.57,0-.1.015-.119.12-.119s.48.029,1.665.029h2.025c1.185,0,1.59-.029,1.665-.029.1,0,.12.015.12.119,0,.075-.03.78-.03,3.2Zm-.9-5.564h-3.75v8.384h3.75Z"/><path class="a" d="M124.65,225.817h.84v3.766h12.135v.779H124.65Z"/><path class="a" d="M133.1,243.577c0,.12-.03.165-.165.18a4.106,4.106,0,0,1-.645.06c-.09,0-.135-.075-.135-.179,0-.66,0-1.4.015-2.16-1.65.825-2.46,1.589-2.46,2.489s.825,1.245,2.565,1.245a26.251,26.251,0,0,0,3.57-.3c.075-.015.135,0,.165.106a4.25,4.25,0,0,1,.09.734c0,.135-.06.2-.12.21a29.45,29.45,0,0,1-3.705.21c-2.1,0-3.465-.54-3.465-2.145,0-1.259.825-2.28,3.315-3.495-.03-1.019-.375-1.425-1.26-1.41a4.271,4.271,0,0,0-2.46,1.216c-.54.51-.9.9-1.425,1.454-.09.1-.15.1-.225.03a4.8,4.8,0,0,1-.525-.585c-.045-.09-.059-.12.03-.21a16.435,16.435,0,0,0,3.48-4.17c-.93.061-1.845.061-2.79.031-.12,0-.15-.045-.165-.151-.03-.179-.075-.509-.09-.75a29.794,29.794,0,0,0,3.48-.014,13.414,13.414,0,0,0,.54-1.5,2.25,2.25,0,0,0,.12-.81,4.853,4.853,0,0,1,1.125.329.186.186,0,0,1,.03.33,1.407,1.407,0,0,0-.27.42c-.18.375-.315.691-.51,1.141a28.792,28.792,0,0,0,3.165-.495c.12-.031.15-.031.18.059.03.21.075.42.09.66,0,.106-.03.151-.195.18-1.185.211-2.46.375-3.66.495a12.625,12.625,0,0,1-1.53,2.236l.015.03a3.253,3.253,0,0,1,1.875-.646,1.735,1.735,0,0,1,1.89,1.755c.735-.33,1.59-.719,2.34-1.08a4.1,4.1,0,0,0,1.14-.764,3.584,3.584,0,0,1,.735.87c.12.224,0,.314-.15.344a4.485,4.485,0,0,0-.825.241c-1.14.479-2.085.825-3.18,1.29Z"/><path class="a" d="M132.315,251.183c.135-.03.18,0,.195.09.03.18.06.45.075.645.015.135-.015.165-.135.18-.81.165-1.62.3-2.5.435a36.112,36.112,0,0,1-3.015,6.329c-.075.12-.15.106-.24.046a3.516,3.516,0,0,1-.6-.45c-.09-.075-.09-.135-.015-.255a26.37,26.37,0,0,0,2.82-5.58c-.645.06-1.245.1-1.89.1-.225,0-.45,0-.795-.03-.135-.015-.149-.03-.18-.18a4.669,4.669,0,0,1-.09-.75c.48.045.87.06,1.185.06a19.276,19.276,0,0,0,2.04-.12c.18-.57.315-1.125.45-1.755a4.43,4.43,0,0,0,.12-1.17,6.286,6.286,0,0,1,1.17.3.172.172,0,0,1,.135.165.306.306,0,0,1-.12.225,1.359,1.359,0,0,0-.21.465c-.165.541-.33,1.1-.48,1.62A20.574,20.574,0,0,0,132.315,251.183Zm.915,3.63a4.663,4.663,0,0,0-.09-.96,4.739,4.739,0,0,1,1.02.2c.1.03.165.09.165.18a.774.774,0,0,1-.09.27,2.313,2.313,0,0,0-.06.705,25.292,25.292,0,0,0,.18,2.76,13.012,13.012,0,0,1,2.835,1.5c.12.075.1.12.06.24a4.765,4.765,0,0,1-.36.659c-.075.106-.15.091-.24.016a9.042,9.042,0,0,0-2.28-1.425c.015,1.515-.75,2.34-2.685,2.34-1.14,0-2.325-.585-2.325-1.83,0-1.125,1.08-1.89,2.55-1.89a7.373,7.373,0,0,1,1.5.18C133.32,256.823,133.245,255.623,133.23,254.813Zm-1.275,3.584c-1.2,0-1.74.465-1.74,1.021,0,.689.555,1.005,1.545,1.005,1.23,0,1.68-.646,1.68-1.41a2.05,2.05,0,0,0-.015-.361A5,5,0,0,0,131.955,258.4Zm2.55-6.719c.075-.12.12-.135.255-.09A10.63,10.63,0,0,1,137.7,253c.1.09.1.15.03.27a3.9,3.9,0,0,1-.345.6c-.075.105-.12.09-.21.03a10.1,10.1,0,0,0-3.06-1.53C134.265,252.113,134.385,251.858,134.505,251.678Z"/><path class="a" d="M138.045,266.888c0,.134-.045.149-.195.149-1.605-.045-3.075-.059-4.77,0,0,.945,0,1.981.015,2.985a6.4,6.4,0,0,1,.18,1.576,4.967,4.967,0,0,1-2.925,4.634.787.787,0,0,1-.345.135.435.435,0,0,1-.27-.12,2.232,2.232,0,0,0-.69-.42c2.145-.885,3.135-2.264,3.27-3.78a1.856,1.856,0,0,1-1.65.855,1.934,1.934,0,0,1-1.98-2.115,2.01,2.01,0,0,1,2.055-2.085,1.89,1.89,0,0,1,1.41.511c-.015-.735-.015-1.41-.03-2.115-2.145.12-4.17.269-5.595.45-.359.045-.54.149-.66.149a.174.174,0,0,1-.179-.149,4.891,4.891,0,0,1-.241-.96,13.733,13.733,0,0,0,1.89-.09c1.215-.091,2.76-.195,4.755-.315-.015-.616-.015-.915-.03-1.4a3.994,3.994,0,0,0-.15-1.006,7.837,7.837,0,0,1,1.14.165c.165.045.27.12.27.226a.552.552,0,0,1-.105.269.884.884,0,0,0-.1.406c-.03.33-.03.615-.03,1.275,1.665-.046,3.135-.046,4.8-.046.135,0,.165.016.165.165Zm-8.475,3.87a1.186,1.186,0,0,0,1.215,1.289,1.322,1.322,0,0,0,1.365-1.319,1.254,1.254,0,0,0-1.335-1.276A1.239,1.239,0,0,0,129.57,270.758Z"/><path class="a" d="M138.765,280.388a2.115,2.115,0,1,1-2.115-2.085A2.107,2.107,0,0,1,138.765,280.388Zm-3.45,0a1.335,1.335,0,1,0,1.335-1.335A1.339,1.339,0,0,0,135.315,280.388Z"/><path class="a" d="M104.49,118.492c0,.106-.015.12-.12.12s-.48-.03-1.785-.03h-.42a14.759,14.759,0,0,0,2.07,2.9,2.7,2.7,0,0,0-.375.6c-.06.12-.09.181-.15.181-.03,0-.09-.061-.15-.151a17.044,17.044,0,0,1-1.68-2.91c.015,3.975.12,7.29.12,7.515,0,.105-.015.12-.12.12h-.75c-.1,0-.12-.015-.12-.12,0-.225.12-3.6.135-7.484a18.982,18.982,0,0,1-2.55,4.889c-.074.106-.119.151-.165.151s-.105-.045-.15-.165a2.092,2.092,0,0,0-.4-.616,18.7,18.7,0,0,0,2.94-4.9h-.72c-1.29,0-1.695.03-1.784.03-.1,0-.1-.014-.1-.12v-.585c0-.1,0-.12.1-.12.089,0,.494.03,1.784.03h.975v-2.354c-.615.18-1.26.33-1.935.465-.3.045-.3.045-.435-.21a1.745,1.745,0,0,0-.36-.45,18.627,18.627,0,0,0,4.5-1.29,2.406,2.406,0,0,0,.675-.435,5.086,5.086,0,0,1,.645.524c.1.106.135.165.135.255s-.075.12-.24.136a2.361,2.361,0,0,0-.645.194c-.435.181-.93.361-1.455.54v2.625h.63c1.305,0,1.695-.03,1.785-.03s.12.016.12.12Zm4.245,1.92c.18-.09.195-.1.255,0a30.585,30.585,0,0,1,2.61,5.4c.03.1.03.134-.135.209l-.45.195c-.225.1-.24.1-.285-.015l-.525-1.394c-1.965.4-3.81.719-6.06,1.094a1,1,0,0,0-.54.2.39.39,0,0,1-.225.1c-.075,0-.135-.075-.18-.195a7.491,7.491,0,0,1-.285-.975,12.666,12.666,0,0,0,1.395-.09,77.312,77.312,0,0,0,2.31-9.314,8.068,8.068,0,0,0,.165-1.771,7.47,7.47,0,0,1,1.02.241c.12.045.21.105.21.179a.341.341,0,0,1-.075.226,1.7,1.7,0,0,0-.285.765,93.577,93.577,0,0,1-2.37,9.554c1.635-.21,3.045-.434,4.6-.764-.48-1.08-1.02-2.146-1.65-3.255-.045-.091-.045-.12.105-.2Z"/><path class="a" d="M105.765,131.2c.12-.029.165,0,.18.106.03.179.06.434.075.615.015.149-.015.194-.15.225a25.375,25.375,0,0,1-2.715.615,67.773,67.773,0,0,1-2.88,8.084c-.06.136-.12.136-.225.091-.12-.046-.509-.226-.705-.33a.15.15,0,0,1-.06-.2,46.473,46.473,0,0,0,2.8-7.484c-.975.1-2.01.165-3.029.18-.181,0-.211-.015-.241-.151-.029-.21-.075-.524-.12-.824a9.059,9.059,0,0,0,.946.029,23.616,23.616,0,0,0,2.7-.179c.21-.795.33-1.335.435-1.89a6.028,6.028,0,0,0,.12-1.41,6.066,6.066,0,0,1,1.2.344.177.177,0,0,1,.12.166.4.4,0,0,1-.12.24,1.354,1.354,0,0,0-.24.585c-.18.615-.315,1.229-.48,1.8A18.118,18.118,0,0,0,105.765,131.2Zm-.75,6.87c.12,0,.15.031.165.151.105,1.349.945,1.8,2.835,1.8a16.082,16.082,0,0,0,2.22-.2c.12-.014.165-.014.18.1a5.388,5.388,0,0,1,.06.72c0,.15-.045.18-.165.195a13.637,13.637,0,0,1-1.965.15c-1.62,0-2.625-.21-3.3-.825a2.545,2.545,0,0,1-.735-2.024A4.735,4.735,0,0,1,105.015,138.067Zm.375-3.854c0-.136.03-.181.195-.226a11.96,11.96,0,0,1,2.625-.314,15.053,15.053,0,0,1,1.86.149c.18.031.21.075.225.165a4.682,4.682,0,0,1,.015.66c-.015.18-.06.225-.195.2a11.884,11.884,0,0,0-1.92-.165,13.1,13.1,0,0,0-2.76.33C105.4,134.752,105.39,134.393,105.39,134.213Z"/><path class="a" d="M102.54,145.133a3.893,3.893,0,0,0-.03-1.335,4.373,4.373,0,0,1,1.215.255c.105.045.165.1.165.2a.383.383,0,0,1-.09.21,1.3,1.3,0,0,0-.195.494c-.105.586-.15.96-.24,1.591a27.017,27.017,0,0,0,3.225-.631c.135-.045.18-.029.2.106a4.479,4.479,0,0,1,.06.644c0,.12-.03.151-.15.181-1.185.269-2.325.465-3.51.63-.225,1.484-.48,2.79-.825,4.184A6.223,6.223,0,0,1,106.9,149.6c2.115,0,3.18,1.259,3.18,2.684a3.1,3.1,0,0,1-1.785,2.851,11.134,11.134,0,0,1-3.8,1.05,4.026,4.026,0,0,1-.735.074c-.1,0-.165-.045-.24-.21a1.632,1.632,0,0,0-.51-.659,11.681,11.681,0,0,0,4.425-.946,2.331,2.331,0,0,0,1.545-2.189c0-1.125-.795-1.8-2.175-1.8a5.5,5.5,0,0,0-4.245,2.1,5.787,5.787,0,0,0-.345.495c-.09.135-.135.194-.255.179a3.2,3.2,0,0,1-.66-.21c-.135-.06-.195-.12-.195-.209a1.162,1.162,0,0,1,.06-.255c.075-.241.12-.42.165-.571.345-1.365.615-2.745.885-4.41-.9.091-2.025.151-2.97.165a.179.179,0,0,1-.21-.165,7.646,7.646,0,0,1-.12-.764,29.745,29.745,0,0,0,3.435-.151C102.435,146.183,102.48,145.793,102.54,145.133Z"/><path class="a" d="M101.295,159.772a.254.254,0,0,1,.09.406,2.4,2.4,0,0,0-.24.75,29.578,29.578,0,0,0-.72,5.534,19.457,19.457,0,0,0,.1,2.6c.315-.811.66-1.561,1.05-2.446a2.305,2.305,0,0,0,.345.616.271.271,0,0,1,.015.33,12.977,12.977,0,0,0-.9,2.369,2.612,2.612,0,0,0-.015.676.143.143,0,0,1-.075.194,3.986,3.986,0,0,1-.675.2c-.105.03-.15,0-.195-.12a12.937,12.937,0,0,1-.57-4.38,33.823,33.823,0,0,1,.645-5.625,6.35,6.35,0,0,0,.075-1.484A3.816,3.816,0,0,1,101.295,159.772Zm5.745,3.51a27.518,27.518,0,0,1-3.345.016c-.09,0-.15-.016-.165-.136a6.129,6.129,0,0,1-.06-.795,25.172,25.172,0,0,0,3.54,0c0-.554.015-1.125.015-1.724a5.506,5.506,0,0,0-.15-1.335,5,5,0,0,1,1.155.21c.105.045.165.1.165.179a.41.41,0,0,1-.06.21,2.1,2.1,0,0,0-.12.721c-.03.524-.03,1.05-.03,1.665.78-.075,1.59-.195,2.37-.346.12-.029.135,0,.15.106a3.871,3.871,0,0,1,.06.6c0,.106-.045.165-.105.18a18.74,18.74,0,0,1-2.475.36c.015,1.755.06,3.18.135,4.531a10.678,10.678,0,0,1,2.64,1.545c.075.059.075.089.03.194a2.8,2.8,0,0,1-.4.66c-.06.09-.12.075-.18.016a9.737,9.737,0,0,0-2.1-1.381c-.06,1.32-.81,2.025-2.505,2.025-1.41,0-2.34-.615-2.34-1.71s1.035-1.785,2.31-1.785a8.1,8.1,0,0,1,1.575.165C107.085,166.207,107.04,164.827,107.04,163.282Zm.1,5.085a5.871,5.871,0,0,0-1.635-.255c-.84,0-1.4.345-1.4.96,0,.54.54.855,1.44.855,1.065,0,1.59-.48,1.59-1.275Z"/><path class="a" d="M105.93,179.813a48.811,48.811,0,0,0-6.015,1.679,4.9,4.9,0,0,1-.5.2c-.06,0-.135-.076-.195-.18a6.88,6.88,0,0,1-.36-.78,2.768,2.768,0,0,0,.6-.18,5.934,5.934,0,0,0,1.68-1.035c1.5-1.231,2.955-2.535,4.95-4.5-1.275.21-2.535.42-3.72.644-.21.045-.39.091-.54.12a2.148,2.148,0,0,1-.435.12c-.09,0-.15-.089-.225-.224a6.113,6.113,0,0,1-.345-.931,7.556,7.556,0,0,0,1.32.016c1.2-.12,2.49-.316,3.93-.54a1.3,1.3,0,0,0,.57-.2.443.443,0,0,1,.225-.089.361.361,0,0,1,.255.12,3.032,3.032,0,0,1,.54.54.472.472,0,0,1,.12.285.3.3,0,0,1-.195.255,2.144,2.144,0,0,0-.54.345c-1.965,1.769-3.69,3.21-5.46,4.589l.045.045a54.4,54.4,0,0,1,8.235-1.785c.15-.014.21.016.24.12a4.077,4.077,0,0,1,.105.766c.015.119-.045.149-.225.149a9.8,9.8,0,0,0-2.73.526c-1.725.614-3.015,1.755-3.015,3.119,0,1.725,1.98,2.19,4.02,2.205.12,0,.165.045.165.181-.015.21-.06.54-.09.719-.015.15-.06.2-.225.2-.27,0-.585-.031-.93-.061-2.355-.24-3.87-1.2-3.87-3.029,0-1.155.72-2.49,2.61-3.375Z"/><path class="a" d="M101.73,196.282a3.055,3.055,0,0,1,2.115-1.094c1.485,0,1.965,1.08,2.115,2.594.12,1.276.36,2.01,1.2,2.01a2.4,2.4,0,0,0,1.92-1.035,7.225,7.225,0,0,0,1.26-2.475,1.914,1.914,0,0,0,.54.795c.12.09.135.21.075.391a6.81,6.81,0,0,1-1.185,2.039,3.238,3.238,0,0,1-2.625,1.32c-1.44,0-1.95-.885-2.145-2.715-.165-1.514-.51-2.1-1.305-2.1a2.876,2.876,0,0,0-2.07,1.29,16.834,16.834,0,0,0-1.845,3.314c-.06.151-.134.165-.27.106a2.983,2.983,0,0,1-.66-.391c-.09-.075-.09-.149-.03-.255,1.935-3.779,3.525-6.944,4.56-9.149a6.6,6.6,0,0,0,.585-1.725,5.485,5.485,0,0,1,1.08.569.261.261,0,0,1,.03.436,1.933,1.933,0,0,0-.45.614c-1.035,1.936-2.04,3.856-2.925,5.43Z"/><path class="a" d="M105.315,206.183c.135-.031.18,0,.195.089.03.18.06.451.075.646.015.135-.015.165-.135.18-.81.165-1.62.3-2.5.434a36.089,36.089,0,0,1-3.015,6.33c-.075.12-.15.1-.24.045a3.464,3.464,0,0,1-.6-.45c-.09-.075-.09-.135-.015-.255a26.345,26.345,0,0,0,2.82-5.58c-.645.061-1.245.106-1.89.106a7.925,7.925,0,0,1-.795-.031c-.135-.014-.149-.029-.18-.179a4.684,4.684,0,0,1-.09-.75c.48.045.87.059,1.185.059a19.54,19.54,0,0,0,2.04-.119c.18-.57.315-1.125.45-1.756a4.425,4.425,0,0,0,.12-1.17,6.281,6.281,0,0,1,1.17.3.171.171,0,0,1,.135.165.307.307,0,0,1-.12.225,1.359,1.359,0,0,0-.21.465c-.165.54-.33,1.094-.48,1.62A20.859,20.859,0,0,0,105.315,206.183Zm.915,3.63a4.657,4.657,0,0,0-.09-.96,4.621,4.621,0,0,1,1.02.2c.1.029.165.09.165.18a.777.777,0,0,1-.09.269,2.313,2.313,0,0,0-.06.705,25.273,25.273,0,0,0,.18,2.76,13.055,13.055,0,0,1,2.835,1.5c.12.075.1.12.06.24a4.773,4.773,0,0,1-.36.66c-.075.1-.15.09-.24.015a9.1,9.1,0,0,0-2.28-1.425c.015,1.515-.75,2.34-2.685,2.34-1.14,0-2.325-.585-2.325-1.83,0-1.125,1.08-1.89,2.55-1.89a7.443,7.443,0,0,1,1.5.18C106.32,211.822,106.245,210.622,106.23,209.813Zm-1.275,3.584c-1.2,0-1.74.465-1.74,1.02,0,.69.555,1,1.545,1,1.23,0,1.68-.645,1.68-1.409a2.05,2.05,0,0,0-.015-.361A4.963,4.963,0,0,0,104.955,213.4Zm2.55-6.719c.075-.12.12-.135.255-.09A10.627,10.627,0,0,1,110.7,208c.105.091.105.15.03.271a3.9,3.9,0,0,1-.345.6c-.075.106-.12.09-.21.03a10.1,10.1,0,0,0-3.06-1.53C107.265,207.112,107.385,206.857,107.5,206.678Z"/><path class="a" d="M110.85,231.262c-.09.15-.135.21-.195.21a.41.41,0,0,1-.225-.1,12.187,12.187,0,0,1-5.58-8.264,11.258,11.258,0,0,1-5.715,8.25c-.105.059-.165.1-.225.1s-.105-.075-.21-.225a2.368,2.368,0,0,0-.554-.54,10.761,10.761,0,0,0,6.029-10.17,13.565,13.565,0,0,0-.105-1.785,9.3,9.3,0,0,1,1.125.12c.12.031.21.09.21.181a.707.707,0,0,1-.09.3,2.2,2.2,0,0,0-.135.84c0,.269,0,.524-.015.78.6,4.034,2.28,7.47,6.21,9.689A2.094,2.094,0,0,0,110.85,231.262Z"/><path class="a" d="M108.48,233.348a.261.261,0,0,1,.165-.09c.045,0,.09.03.165.09a10.39,10.39,0,0,1,2.88,2.7.32.32,0,0,1,.075.18c0,.059-.015.1-.1.179l-.54.45c-.075.061-.12.09-.15.09-.06,0-.105-.014-.165-.12a10.938,10.938,0,0,0-2.76-2.8c-.075-.044-.1-.075-.1-.1,0-.045.015-.075.075-.15Z"/><path class="a" d="M78.93,119.813a48.813,48.813,0,0,0-6.015,1.679,4.9,4.9,0,0,1-.5.2c-.06,0-.135-.076-.195-.18a6.88,6.88,0,0,1-.36-.78,2.767,2.767,0,0,0,.6-.18,5.934,5.934,0,0,0,1.68-1.035c1.5-1.231,2.955-2.535,4.95-4.5-1.275.21-2.535.42-3.72.644-.21.045-.39.091-.54.12a2.149,2.149,0,0,1-.435.12c-.09,0-.15-.089-.225-.224a6.112,6.112,0,0,1-.345-.931,7.554,7.554,0,0,0,1.32.016c1.2-.12,2.49-.316,3.93-.54a1.3,1.3,0,0,0,.57-.2.443.443,0,0,1,.225-.089.361.361,0,0,1,.255.12,3.032,3.032,0,0,1,.54.54.472.472,0,0,1,.12.285.3.3,0,0,1-.195.255,2.144,2.144,0,0,0-.54.345c-1.965,1.769-3.69,3.21-5.46,4.589l.045.045a54.4,54.4,0,0,1,8.235-1.785c.15-.014.21.016.24.12a4.077,4.077,0,0,1,.105.766c.015.119-.045.149-.225.149a9.8,9.8,0,0,0-2.73.526c-1.725.614-3.015,1.755-3.015,3.119,0,1.725,1.98,2.19,4.02,2.2.12,0,.165.045.165.181-.015.21-.06.54-.09.719-.015.15-.06.2-.225.2-.27,0-.585-.031-.93-.061-2.355-.24-3.87-1.2-3.87-3.029,0-1.155.72-2.49,2.61-3.375Z"/><path class="a" d="M74.73,136.282a3.055,3.055,0,0,1,2.115-1.094c1.485,0,1.965,1.08,2.115,2.594.12,1.276.36,2.01,1.2,2.01a2.4,2.4,0,0,0,1.92-1.035,7.225,7.225,0,0,0,1.26-2.475,1.914,1.914,0,0,0,.54.795c.12.09.135.21.075.391a6.81,6.81,0,0,1-1.185,2.039,3.238,3.238,0,0,1-2.625,1.32c-1.44,0-1.95-.885-2.145-2.715-.165-1.514-.51-2.1-1.305-2.1a2.876,2.876,0,0,0-2.07,1.29,16.834,16.834,0,0,0-1.845,3.314c-.06.151-.134.165-.27.106a2.983,2.983,0,0,1-.66-.391c-.09-.075-.09-.149-.03-.255,1.935-3.779,3.525-6.944,4.56-9.149a6.6,6.6,0,0,0,.585-1.725,5.485,5.485,0,0,1,1.08.569.261.261,0,0,1,.03.436,1.933,1.933,0,0,0-.45.614c-1.035,1.936-2.04,3.856-2.925,5.43Z"/><path class="a" d="M78.315,146.183c.135-.031.18,0,.195.089.03.18.06.451.075.646.015.135-.015.165-.135.18-.81.165-1.62.3-2.5.434a36.089,36.089,0,0,1-3.015,6.33c-.075.12-.15.1-.24.045a3.464,3.464,0,0,1-.6-.45c-.09-.075-.09-.135-.015-.255a26.345,26.345,0,0,0,2.82-5.58c-.645.061-1.245.106-1.89.106a7.925,7.925,0,0,1-.795-.031c-.135-.014-.149-.029-.18-.179a4.684,4.684,0,0,1-.09-.75c.48.045.87.059,1.185.059a19.54,19.54,0,0,0,2.04-.119c.18-.57.315-1.125.45-1.756a4.425,4.425,0,0,0,.12-1.17,6.281,6.281,0,0,1,1.17.3.171.171,0,0,1,.135.165.307.307,0,0,1-.12.225,1.359,1.359,0,0,0-.21.465c-.165.54-.33,1.094-.48,1.62A20.859,20.859,0,0,0,78.315,146.183Zm.915,3.63a4.657,4.657,0,0,0-.09-.96,4.621,4.621,0,0,1,1.02.2c.1.029.165.09.165.18a.777.777,0,0,1-.09.269,2.313,2.313,0,0,0-.06.705,25.273,25.273,0,0,0,.18,2.76,13.055,13.055,0,0,1,2.835,1.5c.12.075.1.12.06.24a4.773,4.773,0,0,1-.36.66c-.075.1-.15.09-.24.015a9.1,9.1,0,0,0-2.28-1.425c.015,1.515-.75,2.34-2.685,2.34-1.14,0-2.325-.585-2.325-1.83,0-1.125,1.08-1.89,2.55-1.89a7.443,7.443,0,0,1,1.5.18C79.32,151.822,79.245,150.622,79.23,149.813ZM77.955,153.4c-1.2,0-1.74.465-1.74,1.02,0,.69.555,1,1.545,1,1.23,0,1.68-.645,1.68-1.409a2.05,2.05,0,0,0-.015-.361A4.963,4.963,0,0,0,77.955,153.4Zm2.55-6.719c.075-.12.12-.135.255-.09A10.627,10.627,0,0,1,83.7,148c.105.091.105.15.03.271a3.9,3.9,0,0,1-.345.6c-.075.106-.12.09-.21.03a10.1,10.1,0,0,0-3.06-1.53C80.265,147.112,80.385,146.857,80.5,146.678Z"/><path class="a" d="M84.465,164.317c-.09.165-.12.241-.195.241a.538.538,0,0,1-.21-.09,14.619,14.619,0,0,1-6.3-4.981,15.059,15.059,0,0,1-6.03,5.01.55.55,0,0,1-.225.091c-.075,0-.1-.061-.194-.226a1.67,1.67,0,0,0-.466-.509,13.26,13.26,0,0,0,6.1-4.861,3.379,3.379,0,0,0,.39-.84,5.523,5.523,0,0,1,.945.2c.15.045.21.09.21.179a.165.165,0,0,1-.105.165.829.829,0,0,0-.165.106,13.98,13.98,0,0,0,6.675,4.92A2.1,2.1,0,0,0,84.465,164.317Zm-.7,2.4c0,.1-.015.119-.12.119-.09,0-.57-.029-2.07-.029H76.98c-.45,1.125-.96,2.295-1.56,3.464,1.8-.12,3.825-.315,5.55-.509-.435-.556-.9-1.1-1.41-1.651-.09-.09-.06-.134.09-.21l.435-.24c.12-.059.165-.059.225,0a26.97,26.97,0,0,1,2.88,3.555c.06.075.06.136-.075.225l-.465.315a.465.465,0,0,1-.165.075c-.045,0-.075-.03-.12-.09-.285-.434-.555-.855-.855-1.26-2.64.345-5.64.63-8.265.826a1.123,1.123,0,0,0-.57.134.264.264,0,0,1-.195.09c-.09,0-.135-.075-.165-.165a9.042,9.042,0,0,1-.225-1.005,14.266,14.266,0,0,0,1.635,0c.21,0,.42-.014.645-.03a27.231,27.231,0,0,0,1.575-3.524h-1.8c-1.485,0-1.979.029-2.055.029-.12,0-.135-.015-.135-.119v-.66c0-.106.015-.12.135-.12.076,0,.57.03,2.055.03H81.57c1.5,0,1.98-.03,2.07-.03.105,0,.12.014.12.12Zm-2.835-2.745c0,.1-.015.12-.12.12-.075,0-.5-.03-1.755-.03H76.62c-1.26,0-1.68.03-1.755.03-.1,0-.12-.016-.12-.12v-.646c0-.1.015-.12.12-.12.075,0,.5.03,1.755.03h2.43c1.26,0,1.68-.03,1.755-.03.105,0,.12.016.12.12Z"/><path class="a" d="M75.42,175.883a.4.4,0,0,0,.27-.061.466.466,0,0,1,.135-.029c.075,0,.18.06.375.255s.255.3.255.359c0,.075-.03.12-.12.2a.842.842,0,0,0-.3.36,15.378,15.378,0,0,1-1.44,2.415,9.55,9.55,0,0,0,2.28,1.845,2.228,2.228,0,0,0-.42.554c-.06.12-.105.165-.165.165a.352.352,0,0,1-.195-.1,10.531,10.531,0,0,1-1.695-1.664v4.68c0,1.2.03,1.8.03,1.875,0,.1-.015.119-.12.119h-.7c-.105,0-.12-.015-.12-.119,0-.076.03-.676.03-1.875v-4.186a15.533,15.533,0,0,1-1.965,1.755c-.105.075-.165.12-.225.12s-.09-.06-.15-.194a1.61,1.61,0,0,0-.36-.556,11.907,11.907,0,0,0,4.38-5.114H73.021c-1.111,0-1.456.03-1.531.03-.1,0-.12-.016-.12-.12v-.615c0-.106.015-.12.12-.12.075,0,.42.03,1.531.03h.494v-.87a8.235,8.235,0,0,0-.1-1.7,9.279,9.279,0,0,1,.975.09c.12.016.195.075.195.12a.641.641,0,0,1-.09.286,3.336,3.336,0,0,0-.09,1.169v.9Zm9.09,10.229c0,.1-.015.12-.12.12-.075,0-.57-.03-2.055-.03H78.09c-1.47,0-1.98.03-2.055.03-.12,0-.135-.015-.135-.12v-.66c0-.1.015-.12.135-.12.075,0,.585.03,2.055.03h1.515v-6.195H78.66c-1.38,0-1.845.03-1.92.03-.1,0-.12-.014-.12-.12v-.659c0-.1.015-.12.12-.12.075,0,.54.029,1.92.029h.945V175.4a10.6,10.6,0,0,0-.105-2.054,8.391,8.391,0,0,1,1,.09c.105.015.18.06.18.12a1.018,1.018,0,0,1-.06.255,5.551,5.551,0,0,0-.105,1.56v2.954h1.275c1.38,0,1.845-.029,1.92-.029.105,0,.12.015.12.12v.659c0,.106-.015.12-.12.12-.075,0-.54-.03-1.92-.03H80.52v6.195h1.815c1.485,0,1.98-.03,2.055-.03.105,0,.12.016.12.12Z"/><path class="a" d="M79.635,191.455c-2.25.36-4.2.675-6.09,1.066a3.217,3.217,0,0,0-.9.254.837.837,0,0,1-.286.105.255.255,0,0,1-.21-.135,8.343,8.343,0,0,1-.42-1.064,11.628,11.628,0,0,0,1.86-.181c2.235-.359,5.28-.81,9.3-1.3.15-.014.225.031.255.12a4.276,4.276,0,0,1,.09.75c0,.135-.045.165-.195.18a6.21,6.21,0,0,0-2.19.45c-2.19.87-3.87,2.715-3.87,4.725,0,2.49,2.175,3.226,4.365,3.4.195.015.24.045.24.165a4.487,4.487,0,0,1-.09.72c-.03.165-.075.225-.24.21-2.535-.225-5.265-1.3-5.265-4.335,0-2.114,1.305-3.855,3.66-5.1Zm1.83,2.115a.116.116,0,0,1,.15.015A7.279,7.279,0,0,1,83.31,195.4a.108.108,0,0,1-.03.165l-.435.36a.12.12,0,0,1-.195-.029,6.452,6.452,0,0,0-1.74-1.92Zm1.245-.974c.06-.045.105-.061.165-.016a8.621,8.621,0,0,1,1.71,1.755c.045.075.03.12-.045.181l-.4.359c-.06.061-.12.061-.18-.029a7.134,7.134,0,0,0-1.725-1.875Z"/><path class="a" d="M77.085,204.143c.09.045.15.1.15.179a.322.322,0,0,1-.09.21,1.4,1.4,0,0,0-.195.6c-.06.33-.1.615-.15.96a30.621,30.621,0,0,0,4.17-.646c.1-.029.15.016.18.106a2.368,2.368,0,0,1,.075.57.17.17,0,0,1-.165.18,31.364,31.364,0,0,1-4.395.66c-.075.795-.135,1.425-.15,2.144a11.3,11.3,0,0,1,2.73-.419,3.376,3.376,0,0,0,.27-1.26,3.665,3.665,0,0,1,.84.4c.12.091.18.165.18.24,0,.106-.105.2-.165.3-.075.15-.15.256-.225.4a3.514,3.514,0,0,1,3.345,3.451c0,2.354-2.1,3.554-4.35,4.08a.266.266,0,0,1-.36-.165,1.471,1.471,0,0,0-.525-.556,8.625,8.625,0,0,0,2.925-1.109,2.756,2.756,0,0,0,1.29-2.385,2.666,2.666,0,0,0-2.58-2.611,16.346,16.346,0,0,1-2.91,4.11,8.151,8.151,0,0,0,.315.841c.045.1.03.149-.075.224a2.561,2.561,0,0,1-.555.3c-.09.03-.15.03-.195-.075a5.628,5.628,0,0,1-.255-.72,5.131,5.131,0,0,1-2.819,1.276c-.991,0-1.351-.706-1.351-1.531,0-1.53,1.245-3.359,3.555-4.469.03-.856.075-1.651.12-2.4-.855.046-1.44.061-1.845.061a3.883,3.883,0,0,1-.705-.045c-.135-.016-.18-.045-.195-.2-.03-.179-.045-.419-.06-.689a23.618,23.618,0,0,0,2.91.015c.06-.526.105-.915.135-1.3a3.4,3.4,0,0,0-.045-1.005A3.926,3.926,0,0,1,77.085,204.143Zm-4.11,9.629a.62.62,0,0,0,.66.706,4.356,4.356,0,0,0,2.31-1.17,18.735,18.735,0,0,1-.33-3C73.83,211.3,72.975,212.707,72.975,213.772Zm6.015-4.334a8.023,8.023,0,0,0-2.535.464,15.686,15.686,0,0,0,.27,2.776A14.982,14.982,0,0,0,78.99,209.438Z"/><path class="a" d="M75.87,219.428c.135.075.195.135.195.224a.376.376,0,0,1-.06.2,1.414,1.414,0,0,0-.27.585,22.378,22.378,0,0,0-.45,3.45,10.416,10.416,0,0,0,.06,1.694c.315-.63.765-1.484,1.11-2.159a2.12,2.12,0,0,0,.3.614.318.318,0,0,1-.015.406,15.262,15.262,0,0,0-.945,1.979,1.2,1.2,0,0,0-.1.48c.015.135-.015.18-.105.21-.135.031-.465.076-.72.105-.075,0-.12-.06-.15-.149a8.966,8.966,0,0,1-.375-2.805,27.809,27.809,0,0,1,.345-3.526,8.19,8.19,0,0,0,.135-1.665A4.251,4.251,0,0,1,75.87,219.428Zm4.74-.151c.225.045.255.151.225.3a2.517,2.517,0,0,0-.03.7c.12,1.665.18,2.91.18,3.976a8.125,8.125,0,0,1-1.23,4.92,7.718,7.718,0,0,1-2.475,2.175.283.283,0,0,1-.39-.031,2.245,2.245,0,0,0-.765-.42,6.394,6.394,0,0,0,3.84-6.6c0-1.035-.06-2.46-.15-3.571a6.264,6.264,0,0,0-.3-1.575A5.43,5.43,0,0,1,80.61,219.277Z"/><path class="a" d="M78.765,236.2c.12-.029.165,0,.18.106.03.179.06.434.075.615.015.149-.015.194-.15.225a25.375,25.375,0,0,1-2.715.615,67.773,67.773,0,0,1-2.88,8.084c-.06.136-.12.136-.225.091-.12-.046-.509-.226-.705-.33a.15.15,0,0,1-.06-.2,46.473,46.473,0,0,0,2.8-7.484c-.975.1-2.01.165-3.029.18-.181,0-.211-.015-.241-.151-.029-.21-.075-.524-.12-.824a9.059,9.059,0,0,0,.946.029,23.616,23.616,0,0,0,2.7-.179c.21-.795.33-1.335.435-1.89a6.028,6.028,0,0,0,.12-1.41,6.066,6.066,0,0,1,1.2.344.177.177,0,0,1,.12.166.4.4,0,0,1-.12.24,1.354,1.354,0,0,0-.24.585c-.18.615-.315,1.229-.48,1.8A18.118,18.118,0,0,0,78.765,236.2Zm-.75,6.87c.12,0,.15.031.165.151.105,1.349.945,1.8,2.835,1.8a16.082,16.082,0,0,0,2.22-.2c.12-.014.165-.014.18.1a5.388,5.388,0,0,1,.06.72c0,.15-.045.18-.165.195a13.637,13.637,0,0,1-1.965.15c-1.62,0-2.625-.21-3.3-.825a2.545,2.545,0,0,1-.735-2.024A4.735,4.735,0,0,1,78.015,243.067Zm.375-3.854c0-.136.03-.181.195-.226a11.96,11.96,0,0,1,2.625-.314,15.053,15.053,0,0,1,1.86.149c.18.031.21.075.225.165a4.682,4.682,0,0,1,.015.66c-.015.18-.06.225-.195.2a11.884,11.884,0,0,0-1.92-.165,13.1,13.1,0,0,0-2.76.33C78.4,239.752,78.39,239.393,78.39,239.213Z"/><path class="a" d="M73.575,250.822c.09.045.135.106.135.165a1.12,1.12,0,0,1-.06.271,5.154,5.154,0,0,0-.12,1.38,23.929,23.929,0,0,0,.21,3.4c.225,1.771.87,3.061,1.59,3.061.6,0,1.17-.96,1.6-2.356a1.9,1.9,0,0,0,.5.75.335.335,0,0,1,.12.375c-.42,1.215-1.23,2.356-2.235,2.356-1.26,0-2.205-1.741-2.535-4.1a32.919,32.919,0,0,1-.27-4.186,6.361,6.361,0,0,0-.12-1.439A4.158,4.158,0,0,1,73.575,250.822Zm7.155,1.156c.09-.045.165-.06.225,0a9.093,9.093,0,0,1,2.925,5.189.172.172,0,0,1-.1.2,2.931,2.931,0,0,1-.69.345.138.138,0,0,1-.195-.12,8.734,8.734,0,0,0-2.82-5.2A6.131,6.131,0,0,1,80.73,251.978Z"/><path class="a" d="M84.765,265.388A2.115,2.115,0,1,1,82.65,263.3,2.106,2.106,0,0,1,84.765,265.388Zm-3.45,0a1.335,1.335,0,1,0,1.335-1.335A1.338,1.338,0,0,0,81.315,265.388Z"/></g></svg>