<svg xmlns="http://www.w3.org/2000/svg" width="153.675" height="227.482" viewBox="0 0 153.675 227.482"><g transform="translate(-407.646 -86.836)"><path d="M454.835,116.936c0,1.1.146,1.68,1.315,1.972a24.55,24.55,0,0,0,5.4.442c4.387,0,6.354-.3,7.892-1.246,1.242-.73,1.607-2.41,1.826-4.748a14.051,14.051,0,0,0,4.09,1.826l2.926-2.776c.511-.511.73-.442,1.311,0a71.45,71.45,0,0,1,5.555,4.528v-8.184H462.946a25.535,25.535,0,0,1,5.259,4.752c.292.365.361.73-.219,1.1l-3.8,2.483c-.58.365-.949.438-1.315-.073a35.125,35.125,0,0,0-5.113-5.332c-.365-.369-.365-.657.146-.95l3.944-1.976H438.762v8.038c0,.657-.146.8-.8.8h-5.993c-.657,0-.8-.146-.8-.8,0-.292.146-1.1.146-7.231v-2.7c0-2.122-.146-3.072-.146-3.437,0-.73.146-.876.8-.876.365,0,2.926.146,9.645.146h2.849a26.862,26.862,0,0,0-1.757-3.072c-.361-.58-.288-.872.442-1.092l4.674-1.246c-3.8.146-7.158.223-9.86.223-1.1,0-1.319-.077-1.83-1.246a20.742,20.742,0,0,0-2.7-4.821c9.864.073,17.976-.292,24.915-.8a137.22,137.22,0,0,0,16.876-1.9,29.087,29.087,0,0,0,6.431-1.9,36.4,36.4,0,0,1,5.916,4.236,2.018,2.018,0,0,1,.8,1.607,1.211,1.211,0,0,1-1.242,1.023,9.806,9.806,0,0,0-1.534.073l-3.145.438c-2.26.3-4.382.588-6.789.876a44.58,44.58,0,0,1,5.989,1.315c.584.146.877.442.877.876a1.712,1.712,0,0,1-.73,1.246,5.283,5.283,0,0,0-1.169,1.534c-.438.95-.881,1.753-1.392,2.629h3c6.793,0,9.28-.146,9.645-.146.726,0,.872.146.872.876,0,.365-.146,1.315-.146,2.995v3.068c0,6.139.146,6.943.146,7.308,0,.584-.146.73-.872.73h-6.066a48.213,48.213,0,0,1,4.236,4.532c.511.58.365.945-.069,1.384l-3.656,3.875c-.511.511-.73.511-1.169-.073a69.212,69.212,0,0,0-7.815-8.477c-.734,2.268-1.83,3.948-3.51,4.825-2.337,1.092-5.989,1.534-12.932,1.534h-2.41c-.8,1.018-1.607,1.972-2.41,2.849h15.343a4.839,4.839,0,0,0,2.629-.438,2.709,2.709,0,0,1,1.023-.292c.588,0,1.168.511,2.849,2.337,1.68,1.753,2.191,2.483,2.191,3.287,0,.515-.365.881-1.092,1.169a9.325,9.325,0,0,0-2.7,1.972,66.356,66.356,0,0,1-7.673,6.208c7.888,2.857,16.73,3.729,27.471,4.167a18.082,18.082,0,0,0-2.853,5.843c-.361.954-.657,1.315-1.68,1.315a8.567,8.567,0,0,1-1.169-.069c-10.737-.954-20.236-2.849-28.713-7.162a76.038,76.038,0,0,1-26.229,7.527,10.456,10.456,0,0,1-1.315.069c-.8,0-1.023-.288-1.315-.945a19.487,19.487,0,0,0-2.849-5.263c9.791-1.023,17.9-2.556,24.915-5.4a52.549,52.549,0,0,1-7.158-6.354,70.5,70.5,0,0,1-12.859,7.888,3.715,3.715,0,0,1-1.246.365c-.434,0-.8-.292-1.169-.95a18.908,18.908,0,0,0-3.506-4.386c8.4-2.918,16.657-8.034,21.916-14.685-1.968-.73-2.991-1.968-2.991-4.528v-2.775a53.934,53.934,0,0,0-.3-5.989c2.41.069,4.6.215,6.724.434.949.077,1.1.369,1.1.657a1.278,1.278,0,0,1-.292.881c-.292.438-.292.945-.292,2.556Zm-8.038-2.264c.584.292.657.584.442,1.1a39.808,39.808,0,0,1-8.185,11.394c-.369.3-.584.511-.8.511-.146,0-.365-.142-.657-.434l-3.948-3.291c-.584-.511-.584-.657,0-1.092a27.79,27.79,0,0,0,7.965-9.937c.292-.584.438-.73,1.091-.365Zm25.426-11.983a35.317,35.317,0,0,0,1.68-3.8,16.544,16.544,0,0,0,1.1-3.725c-4.6.511-9.568,1.023-14.243,1.315-4.46.365-8.769.58-12.644.8a1.137,1.137,0,0,1,.661.511,29.493,29.493,0,0,1,2.7,4.9h7.6a27.868,27.868,0,0,0-1.9-4.017c-.219-.438-.146-.734.511-.881l4.382-1.242c.657-.146.8-.069,1.1.365a32.653,32.653,0,0,1,2.7,5.774Zm-18.045,30.758a42.438,42.438,0,0,0,7.454,5.482,48.978,48.978,0,0,0,7.669-5.482Z" transform="translate(65.206)"/><path d="M456.139,135.954c0,.5-.292.726-.925.82a28.69,28.69,0,0,1-3.457.223c-.438,0-.633-.268-.633-.722,0-1.631,0-3.891.053-5.523-4.329,2.082-5.888,3.847-5.888,6.022,0,1.9,1.651,3.12,6.764,3.12a89.806,89.806,0,0,0,12.116-.9c.438-.049.629.089.682.5a18.875,18.875,0,0,1,.434,3.713c.049.54-.146.86-.531.86a92.857,92.857,0,0,1-12.072.584c-7.982,0-12.214-2.216-12.214-7.466,0-4.346,2.922-7.511,10.27-11.041-.15-2.313-.73-3.214-2.922-3.124-2.289.089-4.48,1.445-6.716,3.258a63.134,63.134,0,0,0-4.869,4.934c-.24.272-.386.406-.58.406a.975.975,0,0,1-.536-.317,22.085,22.085,0,0,1-2.776-2.986.7.7,0,0,1-.195-.41c0-.179.1-.317.341-.5a47.185,47.185,0,0,0,10.169-11.228c-2.285.093-4.914.138-7.787.138-.434,0-.58-.227-.682-.722-.142-.726-.341-2.4-.483-3.757,3.7.179,7.495.134,11.191-.049a32.762,32.762,0,0,0,1.461-3.891,10.238,10.238,0,0,0,.341-2.759,32.967,32.967,0,0,1,5.551,1.266.818.818,0,0,1,.58.771.85.85,0,0,1-.341.682,3.53,3.53,0,0,0-.828,1.083c-.288.637-.535,1.221-1.116,2.443a83.716,83.716,0,0,0,8.854-1.4c.536-.089.682.049.783.454a14.518,14.518,0,0,1,.483,3.258c.053.45-.142.633-.824.726-3.652.5-7.84.994-11.39,1.355a46.761,46.761,0,0,1-3.648,5.024l.044.093a10.192,10.192,0,0,1,4.869-1.4c3.214,0,5.45,1.359,5.932,4.886,1.9-.812,4.674-1.988,7.158-3.165a14.764,14.764,0,0,0,3.7-2.447,28.375,28.375,0,0,1,3.409,3.985,1.7,1.7,0,0,1,.39,1c0,.361-.244.544-.731.629a16.652,16.652,0,0,0-2.966.682c-3.169,1.043-6.33,2.037-10.465,3.624Z" transform="translate(74.915 55.954)"/><path d="M442.109,141.576a120.677,120.677,0,0,0,12.169-5.291,13.584,13.584,0,0,0,.045,3.437c.243,1.493.243,1.493-1.12,2.171a149.95,149.95,0,0,1-17.663,7.288,3.6,3.6,0,0,0-1.412.771,1.033,1.033,0,0,1-.682.361c-.288,0-.536-.227-.682-.633a37.763,37.763,0,0,1-1.457-4.89,41.864,41.864,0,0,0,4.622-1.132l.974-.268-.195-19.465a43.6,43.6,0,0,0-.39-6.882c1.753.049,3.749.142,5.352.321.487.045.828.272.828.54a2.25,2.25,0,0,1-.341.954c-.292.54-.341,1.72-.292,4.979Zm18.4-1.676c2.625-3.932,4.281-9.41,4.768-16.787a27.723,27.723,0,0,0-.049-6.428c2.094.134,4.139.357,5.6.584.487.093.734.272.734.633a2.448,2.448,0,0,1-.394,1.088,21.078,21.078,0,0,0-.584,4.123c-.633,7.645-2.236,13.439-4.622,17.469a39.361,39.361,0,0,0,10.173,9.868,21.877,21.877,0,0,0-2.727,3.709c-.341.633-.535.949-.779.949-.195,0-.487-.223-1.022-.678a56.324,56.324,0,0,1-8.659-9.414c-3.214,4.074-7.4,7.243-14.8,10.457a4.02,4.02,0,0,1-1.168.361c-.39,0-.536-.272-1.019-1.043a11.332,11.332,0,0,0-2.629-2.986C452.131,148.547,457.049,145.289,460.507,139.9Zm-9.832-19.461a1.277,1.277,0,0,1,.536-.223c.146,0,.239.089.434.268a41.268,41.268,0,0,1,7.3,8.331c.288.406.195.588-.292.86l-3.116,2.078a1.1,1.1,0,0,1-.58.276c-.247,0-.394-.183-.588-.5a44.174,44.174,0,0,0-6.91-8.416c-.39-.365-.288-.544.248-.86Z" transform="translate(72.349 91.274)"/><path d="M441.466,130.628c5.389-1.8,9.641-2.674,12.8-2.674,5.965,0,9.994,3.9,9.994,9.382,0,4.472-2.106,7.584-6.269,9.82a23.79,23.79,0,0,1-9.077,2.893c-.787.134-1.136-.045-1.444-.613a9.077,9.077,0,0,0-2.67-2.893c5.129-.791,7.535-1.538,10.562-3.027a6.852,6.852,0,0,0,3.944-6.529c0-3.116-1.932-4.825-5.437-4.825-3.023,0-7.625,1.489-12.4,3.421a13.927,13.927,0,0,0-2.459,1.359,1.368,1.368,0,0,1-.876.434c-.394,0-.7-.26-1.14-.787a22.313,22.313,0,0,1-2.366-4.253A46.872,46.872,0,0,0,441.466,130.628Z" transform="translate(82.495 125.729)"/><path d="M455.105,140.512c-5.936,1.039-11.147,1.992-16.353,2.986-1.846.406-2.333.5-3.064.726a3,3,0,0,1-1.075.357,1.126,1.126,0,0,1-.921-.678,29.734,29.734,0,0,1-1.8-4.89,71.332,71.332,0,0,0,7.734-.767c5.985-.816,16.694-2.309,29.248-3.847.73-.093.974.183,1.022.5a24.078,24.078,0,0,1,.536,3.981c0,.544-.292.678-.925.678a23.328,23.328,0,0,0-5.936.994c-8.274,2.629-12.409,7.921-12.409,13.354,0,5.839,4.476,9.008,12.944,9.5.775,0,1.071.183,1.071.682a15.006,15.006,0,0,1-.535,3.891c-.146.678-.341.95-.925.95-8.566,0-17.959-4.569-17.959-13.983,0-6.428,3.457-10.773,9.345-14.348Z" transform="translate(74.147 145.385)"/><path d="M430.808,114.215a49.409,49.409,0,0,0,10.23,12.567,22.747,22.747,0,0,0-2.922,5.259c-.365.949-.585,1.388-.877,1.388s-.657-.438-1.315-1.242a42.465,42.465,0,0,1-6.647-10.741c0,17.753.361,29.812.361,31.123,0,.657-.069.734-.726.734h-6.285c-.8,0-.877-.077-.877-.734,0-1.238.365-12.928.511-29.366a62.757,62.757,0,0,1-9.568,17.533c-.589.73-.954,1.1-1.319,1.1-.292,0-.584-.365-.876-1.169a21.865,21.865,0,0,0-2.853-5.847,65.443,65.443,0,0,0,13.009-20.6h-1.976c-5.985,0-8.034.146-8.472.146-.731,0-.8-.073-.8-.8v-5.263c0-.73.073-.8.8-.8.438,0,2.487.146,8.472.146h3.437V98.872c-2.337.58-4.825,1.092-7.377,1.534-2.122.365-2.122.365-3-1.826a13.6,13.6,0,0,0-2.337-4.021,92.588,92.588,0,0,0,21.624-5.478,18.81,18.81,0,0,0,3.729-1.976,33.522,33.522,0,0,1,4.894,4.459,1.877,1.877,0,0,1,.657,1.315c0,.511-.511.877-1.242.954a11.679,11.679,0,0,0-3.141.945c-1.972.734-4.163,1.461-6.5,2.122v10.737h1.534c6.062,0,8.034-.146,8.473-.146.8,0,.876.073.876.8v5.263c0,.73-.073.8-.876.8-.438,0-2.41-.146-8.473-.146ZM443.6,150.6c-.657,0-.734-.077-.734-.8,0-.511.146-4.459.146-24.184V112.024c0-13.662-.146-17.68-.146-18.191,0-.734.077-.807.734-.807.511,0,2.479.15,8.254.15h10.96c5.77,0,7.742-.15,8.254-.15.73,0,.807.073.807.807,0,.434-.15,4.451-.15,16v15.488c0,19.364.15,23.235.15,23.673,0,.73-.077.807-.807.807H465c-.73,0-.8-.077-.8-.807V144.68H450.39V149.8c0,.726-.073.8-.807.8ZM450.39,137.6H464.2V100.26H450.39Z" transform="translate(0 0.823)"/><path d="M435.139,135.954c0,.5-.292.726-.925.82a28.694,28.694,0,0,1-3.457.223c-.438,0-.633-.268-.633-.722,0-1.631,0-3.891.053-5.523-4.329,2.082-5.888,3.847-5.888,6.022,0,1.9,1.651,3.12,6.764,3.12a89.8,89.8,0,0,0,12.116-.9c.438-.049.629.089.682.5a18.873,18.873,0,0,1,.434,3.713c.049.54-.146.86-.531.86a92.858,92.858,0,0,1-12.072.584c-7.982,0-12.214-2.216-12.214-7.466,0-4.346,2.922-7.511,10.27-11.041-.15-2.313-.73-3.214-2.922-3.124-2.289.089-4.48,1.445-6.716,3.258a63.167,63.167,0,0,0-4.869,4.934c-.239.272-.385.406-.58.406a.975.975,0,0,1-.536-.317,22.084,22.084,0,0,1-2.775-2.986.7.7,0,0,1-.195-.41c0-.179.1-.317.341-.5a47.185,47.185,0,0,0,10.169-11.228c-2.284.093-4.914.138-7.787.138-.434,0-.58-.227-.682-.722-.142-.726-.341-2.4-.483-3.757,3.7.179,7.495.134,11.191-.049a32.73,32.73,0,0,0,1.461-3.891,10.237,10.237,0,0,0,.341-2.759,32.962,32.962,0,0,1,5.551,1.266.819.819,0,0,1,.58.771.849.849,0,0,1-.341.682,3.53,3.53,0,0,0-.828,1.083c-.288.637-.536,1.221-1.116,2.443a83.709,83.709,0,0,0,8.854-1.4c.536-.089.682.049.783.454a14.527,14.527,0,0,1,.483,3.258c.053.45-.142.633-.824.726-3.652.5-7.84.994-11.39,1.355a46.794,46.794,0,0,1-3.648,5.024l.045.093a10.191,10.191,0,0,1,4.869-1.4c3.214,0,5.449,1.359,5.932,4.886,1.9-.812,4.675-1.988,7.158-3.165a14.764,14.764,0,0,0,3.7-2.447,28.351,28.351,0,0,1,3.409,3.985,1.7,1.7,0,0,1,.39,1c0,.361-.243.544-.731.629a16.645,16.645,0,0,0-2.966.682c-3.169,1.043-6.33,2.037-10.465,3.624Z" transform="translate(10.702 55.954)"/><path d="M432.781,123.166c.434-.134.629-.134.726.361a22.916,22.916,0,0,1,.438,3.668c0,.406-.195.5-.584.544-2.625.5-5.011.812-8.026,1.221a121.594,121.594,0,0,1-9.491,19.416c-.195.316-.341.45-.536.45a1.415,1.415,0,0,1-.588-.227,23.36,23.36,0,0,1-3.356-2.3c-.239-.183-.341-.317-.341-.5a.84.84,0,0,1,.243-.544,89.1,89.1,0,0,0,8.42-15.793c-1.85.089-3.356.089-4.865.089-1.071,0-1.465,0-2.678-.049-.487,0-.584-.134-.682-.722a21.723,21.723,0,0,1-.483-3.851c1.992.142,3.112.183,4.524.183,1.9,0,3.356-.041,5.6-.223.584-1.9.925-3.441,1.262-5.068a16.338,16.338,0,0,0,.292-3.668,47.629,47.629,0,0,1,5.7.954c.487.085.779.361.779.678a1.093,1.093,0,0,1-.438.86,4.711,4.711,0,0,0-.779,1.672c-.341,1.088-.731,2.491-1.169,3.847A55.7,55.7,0,0,0,432.781,123.166Zm1.359,12.129a14.855,14.855,0,0,0-.389-3.214,28.344,28.344,0,0,1,5.3.86c.438.093.682.317.682.726a5.425,5.425,0,0,1-.292.949,4.455,4.455,0,0,0-.195,1.854,55.063,55.063,0,0,0,.536,7.7,39.172,39.172,0,0,1,8.761,4.208c.487.316.535.5.292.949a27.5,27.5,0,0,1-2.236,3.664c-.146.227-.292.321-.442.321a.776.776,0,0,1-.487-.276,35.985,35.985,0,0,0-5.936-3.8c0,4.524-3.5,6.61-9.049,6.61-5.352,0-8.955-2.536-8.955-6.427,0-3.94,3.5-6.61,9-6.61a26.821,26.821,0,0,1,3.843.272C434.287,140.184,434.189,137.425,434.141,135.294ZM430.687,146.7c-2.435,0-4.329.9-4.329,2.625,0,1.449,1.359,2.171,4.131,2.171,2.633,0,4.236-1.311,4.236-3.214a4.79,4.79,0,0,0-.049-.9A13.145,13.145,0,0,0,430.687,146.7Zm9.049-21.774c.3-.45.535-.5,1.022-.312a39.181,39.181,0,0,1,9.54,4.253c.292.183.434.317.434.5a1.024,1.024,0,0,1-.191.544,27.571,27.571,0,0,1-2.041,3.348c-.15.227-.3.317-.442.317a.682.682,0,0,1-.438-.183,43.353,43.353,0,0,0-10.075-4.93C438.373,127.106,439.1,125.747,439.736,124.927Z" transform="translate(10.191 89.635)"/><path d="M431.469,130.691a13.471,13.471,0,0,0-.58-3.3,52.268,52.268,0,0,1,5.693.633c.828.134,1.363.45,1.363.86a1.825,1.825,0,0,1-.442,1.043,4.526,4.526,0,0,0-.386,1.311c-.048.584-.048,1.177-.1,2.9,5.255-.183,10.27-.227,14.941-.227.58,0,.682.093.73.678.045,1.132.045,2.309,0,3.441,0,.5-.244.633-.828.588-5.064-.138-9.783-.138-14.843-.089,0,2.763,0,5.656.049,8.416a13.21,13.21,0,0,1,.73,4.484c0,5.247-2.289,10.725-8.663,14.616a4.763,4.763,0,0,1-1.9.86,2.825,2.825,0,0,1-1.457-.678,11.25,11.25,0,0,0-3.7-1.81c5.693-2.353,9.1-6.156,9.978-9.958-.978,1.315-2.97,1.81-4.577,1.81-3.847,0-6.764-2.581-6.764-6.922,0-4.212,3.409-6.793,7.349-6.793a6.26,6.26,0,0,1,3.7.909c0-1.587-.045-3.124-.045-4.618-6.135.316-12.993.86-16.84,1.355-1.071.138-1.85.548-2.289.548a.743.743,0,0,1-.824-.637,29.43,29.43,0,0,1-1.217-4.569,34.614,34.614,0,0,0,5.936-.183c2.966-.227,9.243-.588,15.087-.9C431.522,133.044,431.522,131.912,431.469,130.691Zm-6.229,18.333a2.91,2.91,0,0,0,3.116,3.076,3.025,3.025,0,0,0,3.311-3.124c0-1.854-1.27-2.9-3.214-2.9A3.01,3.01,0,0,0,425.24,149.024Z" transform="translate(8.871 123.998)"/></g></svg>