<svg xmlns="http://www.w3.org/2000/svg" width="72" height="61.007" viewBox="0 0 72 61.007"><defs><style>.a,.b{fill:#fff;stroke:#014099;stroke-linejoin:round;stroke-width:2px;}.a{stroke-linecap:round;}</style></defs><g transform="translate(-223 -4598.233)"><rect class="a" width="39.691" height="44.574" transform="translate(246.732 4612.223)"/><rect class="b" width="15.155" height="34.639" transform="translate(231.577 4622.158)"/><rect class="a" width="25.258" height="6.495" transform="translate(253.948 4605.729)"/><rect class="a" width="14.433" height="6.495" transform="translate(259.722 4599.233)"/><rect class="a" width="7.216" height="7.216" transform="translate(252.866 4618.549)"/><rect class="b" width="7.216" height="7.216" transform="translate(235.546 4628.653)"/><rect class="a" width="7.216" height="7.216" transform="translate(252.866 4628.653)"/><rect class="b" width="7.216" height="7.216" transform="translate(235.546 4638.756)"/><rect class="a" width="7.216" height="7.216" transform="translate(252.866 4638.756)"/><rect class="a" width="7.216" height="7.216" transform="translate(262.969 4618.549)"/><rect class="a" width="7.216" height="7.216" transform="translate(262.969 4628.653)"/><rect class="a" width="7.216" height="7.216" transform="translate(262.969 4638.756)"/><rect class="a" width="7.216" height="7.216" transform="translate(273.072 4618.549)"/><rect class="a" width="7.216" height="7.216" transform="translate(273.072 4628.653)"/><rect class="a" width="7.216" height="7.216" transform="translate(273.072 4638.756)"/><rect class="b" width="70" height="3.608" transform="translate(224 4654.632)"/></g></svg>