<svg xmlns="http://www.w3.org/2000/svg" width="28.951" height="22.6" viewBox="0 0 28.951 22.6"><defs><style>.a{fill:#ffd840;}.b{fill:none;stroke:#1a1a1a;}</style></defs><g transform="translate(-493.987 -1946.581) rotate(-8)"><g transform="translate(219.021 2001.44)"><path class="a" d="M6.286,12.472v3.08q0,.526-.476.526H3.581q-.5,0-.5-.551V12.5a.443.443,0,0,1,.5-.5H5.81A.421.421,0,0,1,6.286,12.472ZM6.261,9.191v.651a.465.465,0,0,1-.526.526H3.757a.465.465,0,0,1-.526-.526V9.166a2.829,2.829,0,0,1,.276-1.34,3.567,3.567,0,0,1,.927-1.039l1.4-1.152a1.762,1.762,0,0,0,.8-1.377v-.15a1.466,1.466,0,0,0-.363-1.114,1.717,1.717,0,0,0-1.19-.338H4.633a1.574,1.574,0,0,0-1.114.326,1.528,1.528,0,0,0-.338,1.127v.526q0,.551-.526.551H.526Q0,5.184,0,4.633V4.057A4.011,4.011,0,0,1,1.077,1.052,4.191,4.191,0,0,1,4.132,0H5.61A4.191,4.191,0,0,1,8.666,1.052,4.011,4.011,0,0,1,9.742,4.057v.351a2.873,2.873,0,0,1-1.127,2.2l-1.7,1.377A1.685,1.685,0,0,0,6.261,9.191Z" transform="matrix(0.921, 0.391, -0.391, 0.921, 17.15, 0)"/><path class="a" d="M4.966,9.728v2.019q0,.345-.312.345H3.193q-.328,0-.328-.361V9.744a.29.29,0,0,1,.328-.328H4.654A.276.276,0,0,1,4.966,9.728ZM4.1,6.025v.427a.3.3,0,0,1-.345.345h-1.3a.3.3,0,0,1-.345-.345V6.008A1.854,1.854,0,0,1,2.3,5.13a2.338,2.338,0,0,1,.607-.681l.919-.755a1.155,1.155,0,0,0,.525-.9v-.1a.961.961,0,0,0-.238-.731,1.125,1.125,0,0,0-.78-.222h-.3a1.031,1.031,0,0,0-.731.213,1,1,0,0,0-.222.739v.345q0,.361-.345.361H.345Q0,3.4,0,3.037V2.659A2.629,2.629,0,0,1,.706.69a2.747,2.747,0,0,1,2-.69h.969a2.747,2.747,0,0,1,2,.69,2.629,2.629,0,0,1,.706,1.97v.23a1.883,1.883,0,0,1-.739,1.445l-1.116.9A1.1,1.1,0,0,0,4.1,6.025Z" transform="translate(0 6.369) rotate(-25)"/></g><g transform="translate(217.515 1999.406)"><path class="b" d="M7.351,14.584v3.6q0,.615-.556.615H4.188q-.586,0-.586-.644V14.613a.518.518,0,0,1,.586-.586H6.794A.492.492,0,0,1,7.351,14.584Zm-.029-3.836v.761a.544.544,0,0,1-.615.615H4.393a.544.544,0,0,1-.615-.615v-.791A3.308,3.308,0,0,1,4.1,9.151,4.171,4.171,0,0,1,5.183,7.936l1.64-1.347a2.06,2.06,0,0,0,.937-1.611V4.8a1.714,1.714,0,0,0-.425-1.3,2.007,2.007,0,0,0-1.391-.4H5.418a1.84,1.84,0,0,0-1.3.381,1.787,1.787,0,0,0-.4,1.318v.615q0,.644-.615.644H.615Q0,6.062,0,5.418V4.744A4.69,4.69,0,0,1,1.259,1.23,4.9,4.9,0,0,1,4.832,0H6.56a4.9,4.9,0,0,1,3.573,1.23,4.69,4.69,0,0,1,1.259,3.514v.41a3.359,3.359,0,0,1-1.318,2.577L8.083,9.342A1.97,1.97,0,0,0,7.321,10.747Z" transform="matrix(0.921, 0.391, -0.391, 0.921, 17.834, 0)"/><path class="b" d="M5.4,10.712v2.646q0,.452-.409.452H3.076q-.43,0-.43-.473v-2.6a.38.38,0,0,1,.43-.43H4.99A.361.361,0,0,1,5.4,10.712ZM5.377,7.894v.559a.4.4,0,0,1-.452.452h-1.7a.4.4,0,0,1-.452-.452V7.872a2.43,2.43,0,0,1,.237-1.151,3.063,3.063,0,0,1,.8-.893l1.2-.989A1.513,1.513,0,0,0,5.7,3.657V3.528a1.259,1.259,0,0,0-.312-.957,1.474,1.474,0,0,0-1.022-.29H3.979a1.351,1.351,0,0,0-.957.28,1.313,1.313,0,0,0-.29.968v.452q0,.473-.452.473H.452Q0,4.452,0,3.979V3.485A3.445,3.445,0,0,1,.925.9,3.6,3.6,0,0,1,3.549,0H4.818A3.6,3.6,0,0,1,7.442.9a3.445,3.445,0,0,1,.925,2.581v.3A2.467,2.467,0,0,1,7.4,5.679L5.937,6.862A1.447,1.447,0,0,0,5.377,7.894Z" transform="translate(0 7.304) rotate(-25)"/></g></g></svg>