<svg xmlns="http://www.w3.org/2000/svg" width="140" height="100" viewBox="0 0 140 100"><defs><style>.a{fill:#e8e8e8;}.b{fill:#dc000c;}.c{fill:#585757;}</style></defs><g transform="translate(-200 -643)"><rect class="a" width="140" height="100" rx="4" transform="translate(200 643)"/><g transform="translate(60.355 325.304)"><path class="b" d="M261.006,394.694l-1.564,4.384h15.6l2.446-4.384Z" transform="translate(-61.177 -31.941)"/><path class="b" d="M271.388,358.3a.56.56,0,0,1-.512-.784l.389-.885a2.356,2.356,0,0,1,1.717-1.5l5.684-.534a.167.167,0,0,0,.091-.041l2.485-2.194a2.578,2.578,0,0,1,1.709-.646h6.674a1.968,1.968,0,0,1,1.966,1.966v.584l2.766.658A2.215,2.215,0,0,1,295.779,357v.738a.559.559,0,0,1-1.118,0V357a1.1,1.1,0,0,0-.676-1.023l-2.708-.639a1.074,1.074,0,0,1-.8-1.033v-.625a.849.849,0,0,0-.848-.848h-6.674a1.463,1.463,0,0,0-.969.366L279.5,355.4a1.28,1.28,0,0,1-.724.315l-5.641.528a1.289,1.289,0,0,0-.829.8l-.4.922A.56.56,0,0,1,271.388,358.3Z" transform="translate(-69.639)"/><g transform="translate(177.129 355.001)"><path class="b" d="M319.4,394.694l-5.182,9.043h-4.474l-1.563,4.384h8.8l7.636-13.427Z" transform="translate(-274.529 -386.943)"/><path class="b" d="M185.168,381.3l1.662-4.659h6.62l1.564-4.384h-6.619l1.2-3.367h6.619l1.564-4.385h-16.32l-1.564,4.385h5.046l-1.2,3.367h-5.046l-1.564,4.384h5.046l-3.225,9.043H204.4l1.564-4.384Z" transform="translate(-177.129 -364.507)"/><path class="b" d="M385.277,381.3l-2.906-16.795h-4.834l3.68,21.179h6.292l1.563-4.384Z" transform="translate(-326.076 -364.507)"/><path class="b" d="M403.024,364.507h-3.083l.927,5.334h3.078Z" transform="translate(-342.727 -364.507)"/><path class="b" d="M418.066,364.507h-3.082l.927,5.334h3.078Z" transform="translate(-353.907 -364.507)"/></g><path class="b" d="M291.159,374.461a1.915,1.915,0,1,1,1.915-1.915A1.917,1.917,0,0,1,291.159,374.461Zm0-2.713a.8.8,0,1,0,.8.8A.8.8,0,0,0,291.159,371.748Z" transform="translate(-83.326 -14.056)"/><path class="b" d="M341.986,374.461a1.915,1.915,0,1,1,1.915-1.915A1.917,1.917,0,0,1,341.986,374.461Zm0-2.713a.8.8,0,1,0,.8.8A.8.8,0,0,0,341.986,371.748Z" transform="translate(-121.101 -14.056)"/><path class="b" d="M315.873,377.031h-4.538a.559.559,0,1,1,0-1.118h4.538a.559.559,0,0,1,0,1.118Z" transform="translate(-99.329 -17.983)"/><g transform="translate(193.49 380.059)"><path class="c" d="M248.289,462.47l-1.8,4.849h-1.268l.946-2.557-1.978,2.079h-.6l-.516-2.079-.96,2.557h-1.261l1.819-4.849h1.115l.645,2.806,2.694-2.806Z" transform="translate(-240.846 -462.373)"/><path class="c" d="M279.486,465a3.536,3.536,0,0,1,3.537-2.909c1.489,0,2.257.88,2.038,2.134a3.535,3.535,0,0,1-3.536,2.909C280.035,467.135,279.267,466.255,279.486,465Zm4.174-.693a.853.853,0,0,0-.954-1.081,1.93,1.93,0,0,0-1.82,1.691A.853.853,0,0,0,281.84,466,1.93,1.93,0,0,0,283.66,464.309Z" transform="translate(-269.537 -462.092)"/><path class="c" d="M320.8,462.47l-3.889,4.849h-1.351l-.253-4.849h1.406l.141,3.152,2.533-3.152Z" transform="translate(-296.189 -462.373)"/><path class="c" d="M342.321,466.377h-2.065l-.725.942h-1.448l3.959-4.849h1.351l.323,4.849H342.35Zm-.031-1.011-.051-1.573-1.2,1.573Z" transform="translate(-313.114 -462.373)"/></g></g></g></svg>