<svg xmlns="http://www.w3.org/2000/svg" xmlns:xlink="http://www.w3.org/1999/xlink" width="180" height="180" viewBox="0 0 180 180"><defs><style>.a{fill:none;}.b{clip-path:url(#a);}.c{fill:#6dc2e8;opacity:0.1;}</style><clipPath id="a"><rect class="a" width="180" height="180" transform="translate(839 4826)"/></clipPath></defs><g class="b" transform="translate(-839 -4826)"><path class="c" d="M481.8,392.911l-18,30h4.5l18-30Zm-18,0-18,30h4.5l18-30Zm9,0-18,30h4.5l18-30Zm18,0-18,30h4.5l18-30Zm-36,0-18,30h4.5l18-30Zm-18,0-18,30h4.5l18-30Zm9,0-18,30h4.5l18-30Zm-18,0-18,30h4.5l18-30Zm-18,0-.008.014v7.5l4.508-7.515Zm89.995,0-18,30h4.5l18-30Zm-80.995,0L409.8,407.925v7.5L423.3,392.911Zm152.99,0-18,30h4.5l18-30Zm9,0-18,30h4.5l18-30Zm4.5,30,4.5-7.5v-7.5l-9,15Zm-22.5-30-18,30h4.5l18-30Zm-54,0-18,30h4.5l18-30Zm63,30h4.5l13.5-22.5v-7.5Zm-45-30-18,30h4.5l18-30Zm27,0-18,30h4.5l18-30Zm-36,0-18,30h4.5l18-30Zm18,0-18,30h4.5l18-30Zm9,0-18,30h4.5l18-30Z" transform="translate(429.205 4583.09)"/><path class="c" d="M513.291,362.91l18,30h4.5l-18-30Zm18,0,18,30h4.5l-18-30Zm-9,0,18,30h4.5l-18-30Zm-18,0,18,30h4.5l-18-30Zm36,0,18,30h4.5l-18-30Zm18,0,18,30h4.5l-18-30Zm-9,0,18,30h4.5l-18-30Zm18,0,18,30h4.5l-18-30Zm18,0,4.509,7.515v-7.5l-.008-.015Zm-89.994,0,18,30h4.5l-18-30Zm80.995,0,13.508,22.514v-7.5l-9.009-15.014Zm-152.991,0,18,30h4.5l-18-30Zm-9,0,18,30h4.5l-18-30Zm4.5,30-9-15v7.5l4.5,7.5Zm13.5-30,18,30h4.5l-18-30Zm54,0,18,30h4.5l-18-30Zm-76.5,0v7.5l13.5,22.5h4.5Zm58.5,0,18,30h4.5l-18-30Zm-27,0,18,30h4.5l-18-30Zm36,0,18,30h4.5l-18-30Zm-18,0,18,30h4.5l-18-30Zm-9,0,18,30h4.5l-18-30Z" transform="translate(429.205 4583.09)"/><path class="c" d="M513.291,242.91l18,30h4.5l-18-30Zm18,0,18,30h4.5l-18-30Zm-9,0,18,30h4.5l-18-30Zm-18,0,18,30h4.5l-18-30Zm36,0,18,30h4.5l-18-30Zm18,0,18,30h4.5l-18-30Zm-9,0,18,30h4.5l-18-30Zm18,0,18,30h4.5l-18-30Zm18,0,4.509,7.515v-7.5l-.008-.014Zm-89.994,0,18,30h4.5l-18-30Zm80.995,0,13.508,22.513v-7.5l-9.009-15.014Zm-152.991,0,18,30h4.5l-18-30Zm-9,0,18,30h4.5l-18-30Zm4.5,30-9-15v7.5l4.5,7.5Zm13.5-30,18,30h4.5l-18-30Zm54,0,18,30h4.5l-18-30Zm-76.5,0v7.5l13.5,22.5h4.5Zm58.5,0,18,30h4.5l-18-30Zm-27,0,18,30h4.5l-18-30Zm36,0,18,30h4.5l-18-30Zm-18,0,18,30h4.5l-18-30Zm-9,0,18,30h4.5l-18-30Z" transform="translate(429.205 4583.09)"/><path class="c" d="M481.8,332.911l-18,30h4.5l18-30Zm-18,0-18,30h4.5l18-30Zm9,0-18,30h4.5l18-30Zm18,0-18,30h4.5l18-30Zm-36,0-18,30h4.5l18-30Zm-18,0-18,30h4.5l18-30Zm9,0-18,30h4.5l18-30Zm-18,0-18,30h4.5l18-30Zm-18,0-.008.014v7.5l4.508-7.515Zm89.995,0-18,30h4.5l18-30Zm-80.995,0L409.8,347.924v7.5L423.3,332.911Zm152.99,0-18,30h4.5l18-30Zm9,0-18,30h4.5l18-30Zm4.5,30,4.5-7.5v-7.5l-9,15Zm-22.5-30-18,30h4.5l18-30Zm-54,0-18,30h4.5l18-30Zm63,30h4.5l13.5-22.5v-7.5Zm-45-30-18,30h4.5l18-30Zm27,0-18,30h4.5l18-30Zm-36,0-18,30h4.5l18-30Zm18,0-18,30h4.5l18-30Zm9,0-18,30h4.5l18-30Z" transform="translate(429.205 4583.09)"/><path class="c" d="M481.8,272.911l-18,30h4.5l18-30Zm-18,0-18,30h4.5l18-30Zm9,0-18,30h4.5l18-30Zm18,0-18,30h4.5l18-30Zm-36,0-18,30h4.5l18-30Zm-18,0-18,30h4.5l18-30Zm9,0-18,30h4.5l18-30Zm-18,0-18,30h4.5l18-30Zm-18,0-.008.014v7.5l4.508-7.515Zm89.995,0-18,30h4.5l18-30Zm-80.995,0L409.8,287.924v7.5L423.3,272.911Zm152.99,0-18,30h4.5l18-30Zm9,0-18,30h4.5l18-30Zm4.5,30,4.5-7.5v-7.5l-9,15Zm-22.5-30-18,30h4.5l18-30Zm-54,0-18,30h4.5l18-30Zm63,30h4.5l13.5-22.5v-7.5Zm-45-30-18,30h4.5l18-30Zm27,0-18,30h4.5l18-30Zm-36,0-18,30h4.5l18-30Zm18,0-18,30h4.5l18-30Zm9,0-18,30h4.5l18-30Z" transform="translate(429.205 4583.09)"/><path class="c" d="M513.291,302.91l18,30h4.5l-18-30Zm18,0,18,30h4.5l-18-30Zm-9,0,18,30h4.5l-18-30Zm-18,0,18,30h4.5l-18-30Zm36,0,18,30h4.5l-18-30Zm18,0,18,30h4.5l-18-30Zm-9,0,18,30h4.5l-18-30Zm18,0,18,30h4.5l-18-30Zm18,0,4.509,7.515v-7.5l-.008-.015Zm-89.994,0,18,30h4.5l-18-30Zm80.995,0,13.508,22.513v-7.5l-9.009-15.014Zm-152.991,0,18,30h4.5l-18-30Zm-9,0,18,30h4.5l-18-30Zm4.5,30-9-15v7.5l4.5,7.5Zm13.5-30,18,30h4.5l-18-30Zm54,0,18,30h4.5l-18-30Zm-76.5,0v7.5l13.5,22.5h4.5Zm58.5,0,18,30h4.5l-18-30Zm-27,0,18,30h4.5l-18-30Zm36,0,18,30h4.5l-18-30Zm-18,0,18,30h4.5l-18-30Zm-9,0,18,30h4.5l-18-30Z" transform="translate(429.205 4583.09)"/></g></svg>