<svg id="icon" xmlns="http://www.w3.org/2000/svg" width="17.47" height="15.696" viewBox="0 0 17.47 15.696">
  <path id="Path_14392" data-name="Path 14392" d="M1.271,8.769a3.007,3.007,0,0,0,0-1.666.614.614,0,0,0-.146-.256A3.839,3.839,0,0,1,0,4.175C0,1.912,2.318,0,5.062,0,7.741,0,9.917,1.876,9.917,4.178S7.738,8.353,5.059,8.353a6.645,6.645,0,0,1-2.242-.385A.589.589,0,0,0,2.6,7.927a.6.6,0,0,0-.445.2A2.814,2.814,0,0,1,1.271,8.769Z" transform="matrix(0.998, 0.07, -0.07, 0.998, 1.649, 5.907)" fill="#fff"/>
  <path id="Path_14393" data-name="Path 14393" d="M8.227,8.643A2.669,2.669,0,0,1,7.384,8a.571.571,0,0,0-.426-.193.6.6,0,0,0-.213.041,5.873,5.873,0,0,1-1.6.353A5.138,5.138,0,0,0,0,3.53,4.522,4.522,0,0,1,4.6,0C7.228,0,9.447,1.885,9.447,4.115A3.842,3.842,0,0,1,8.368,6.748a.574.574,0,0,0-.14.25A3.035,3.035,0,0,0,8.227,8.643Z" transform="matrix(0.998, -0.07, 0.07, 0.998, 5.978, 1.945)" fill="#fff"/>
  <path id="Path_14394" data-name="Path 14394" d="M32.43,13.04a.34.34,0,1,0,.34.34A.339.339,0,0,0,32.43,13.04Z" transform="translate(-23.695 -9.629)"/>
  <path id="Path_14395" data-name="Path 14395" d="M10.78,34.6a.34.34,0,1,0-.34-.34A.339.339,0,0,0,10.78,34.6Z" transform="translate(-7.709 -25.046)"/>
  <path id="Path_14396" data-name="Path 14396" d="M11.466,0C8.392,0,5.873,2.119,5.677,4.785,2.752,4.931,0,7.042,0,9.9a4.758,4.758,0,0,0,1.332,3.262,2.07,2.07,0,0,1-.549,1.954.342.342,0,0,0,.241.583,3.768,3.768,0,0,0,2.608-1.054A7.8,7.8,0,0,0,6,15.013c3.071,0,5.593-2.116,5.789-4.785a7.729,7.729,0,0,0,2.046-.364,3.764,3.764,0,0,0,2.608,1.054.338.338,0,0,0,.314-.212.342.342,0,0,0-.073-.371,2.074,2.074,0,0,1-.549-1.954A4.775,4.775,0,0,0,17.47,5.12C17.47,2.153,14.508,0,11.466,0ZM6.006,14.331a6.87,6.87,0,0,1-2.339-.4.339.339,0,0,0-.377.086,3.074,3.074,0,0,1-1.533.91,2.768,2.768,0,0,0,.209-2.03.332.332,0,0,0-.084-.144A4.1,4.1,0,0,1,.683,9.9c0-2.4,2.438-4.437,5.324-4.437,2.726,0,5.12,1.894,5.12,4.437C11.123,12.342,8.826,14.331,6.006,14.331Zm9.58-6.36a.332.332,0,0,0-.084.144,2.754,2.754,0,0,0,.209,2.03,3.07,3.07,0,0,1-1.53-.908.34.34,0,0,0-.377-.086,6.761,6.761,0,0,1-2.009.4,4.88,4.88,0,0,0-1.844-3.4H14.4a.34.34,0,0,0,0-.68H8.9A6.337,6.337,0,0,0,6.36,4.79c.2-2.292,2.409-4.1,5.1-4.1,2.885,0,5.324,2.03,5.324,4.437A4.1,4.1,0,0,1,15.586,7.971Z" transform="translate(0)"/>
  <path id="Path_14397" data-name="Path 14397" d="M20.3,33.91H16a.34.34,0,0,0,0,.68h4.3a.34.34,0,1,0,0-.68Z" transform="translate(-11.563 -25.039)"/>
  <path id="Path_14398" data-name="Path 14398" d="M16.444,41.74H10.78a.34.34,0,0,0,0,.68h5.664a.34.34,0,0,0,0-.68Z" transform="translate(-7.709 -30.821)"/>
  <path id="Path_14399" data-name="Path 14399" d="M41.948,13.04h-4.3a.34.34,0,0,0,0,.68h4.3a.34.34,0,0,0,0-.68Z" transform="translate(-27.55 -9.629)"/>
</svg>
