<svg id="icon" xmlns="http://www.w3.org/2000/svg" width="13.039" height="14.902" viewBox="0 0 13.039 14.902">
  <path id="Path_14326" data-name="Path 14326" d="M20.438,59.414a6.064,6.064,0,0,0,4.7-4.921,6.143,6.143,0,0,0-11.98.519,6.083,6.083,0,0,0,4.762,4.437,4.293,4.293,0,0,0,3.065,2.174A2.221,2.221,0,0,1,20.438,59.414Z" transform="translate(-12.575 -47.124)" fill="#fff"/>
  <path id="Path_14327" data-name="Path 14327" d="M-1.318-13.294a6.466,6.466,0,0,1,6.225-6.7,6.488,6.488,0,0,1,6.8,6.129A6.42,6.42,0,0,1,6.891-7.378a1.731,1.731,0,0,0,.474,1.589.4.4,0,0,1,.09.463.41.41,0,0,1-.418.23A4.6,4.6,0,0,1,3.766-7.313,6.576,6.576,0,0,1,.281-9.359,6.3,6.3,0,0,1-1.318-13.294Zm12.209-.531a5.674,5.674,0,0,0-5.947-5.36A5.655,5.655,0,0,0-.5-13.329,5.622,5.622,0,0,0,4.1-8.067a.409.409,0,0,1,.274.19A4.325,4.325,0,0,0,6.18-6.163,2.957,2.957,0,0,1,6.14-7.8a.405.405,0,0,1,.309-.3A5.619,5.619,0,0,0,10.891-13.824Z" transform="translate(1.324 19.995)"/>
  <path id="Path_14330" data-name="Path 14330" d="M83.382,128.858H77.443a.429.429,0,1,1,0-.858h5.939a.429.429,0,1,1,0,.858Z" transform="translate(-73.897 -122.532)"/>
  <path id="Path_14331" data-name="Path 14331" d="M81.249,176.858H77.429a.429.429,0,1,1,0-.858h3.819a.429.429,0,0,1,0,.858Z" transform="translate(-73.818 -168.471)"/>
  <path id="Path_14332" data-name="Path 14332" d="M211.6,176.858a.43.43,0,1,1,.3-.126A.434.434,0,0,1,211.6,176.858Z" transform="translate(-202.157 -168.471)"/>
</svg>
