<svg xmlns="http://www.w3.org/2000/svg" width="600" height="43.592" viewBox="0 0 600 43.592"><defs><style>.a{fill:#fff;}</style></defs><g transform="translate(-134.685 -409.973)"><path class="a" d="M136.775,411.641c-.232,0-.283.046-.283.283V450.5a1.609,1.609,0,0,1-.879.19,1.8,1.8,0,0,1-.929-.19V410.805c0-.646.186-.832.79-.832H146.43a1.966,1.966,0,0,1,0,1.668Z"/><path class="a" d="M150.663,424.371c0,2,.139,11.516.139,12.956,0,1.022-.743,1.436-2.044,1.436a1.158,1.158,0,0,1-1.3-1.25c0-1.212.186-7.893.279-11.377a28.028,28.028,0,0,1-7.939,8.636c-1.208.743-2.137-.232-1.208-1.25a36.006,36.006,0,0,0,8.032-13.142h-6.778c-.6,0-1.022-.186-1.022-.929,0-.7.418-.925,1.022-.925h7.893c-.046-2.834-.139-5.946-.372-7.614a.536.536,0,0,1,.6-.65c2.23,0,5.106.228,5.106,1.343,0,.743-.883,1.208-2.323,1.44,0,1.022-.046,3.248-.046,5.481h.976c.976-1.583,2.183-3.252,2.876-3.252.976,0,3.716,2.969,3.716,4.041,0,.693-1.022,1.064-2.04,1.064h-5.574Zm-5.106,15.786a13.943,13.943,0,0,1,.511,4.874c-.372,2.741-2,4.459-4.363,4.506a1.78,1.78,0,0,1-1.858-1.858c-.046-1.622,1.9-2.137,3.062-3.759a7.464,7.464,0,0,0,.929-3.577A.87.87,0,0,1,145.557,440.157Zm6.36-14.207c-.743-.79-.372-1.808.929-1.579,2.458.511,4.967,1.579,5.245,3.623a2.006,2.006,0,0,1-1.761,2.365c-1.161.139-1.719-.925-2.555-2.086A21.428,21.428,0,0,0,151.917,425.95Zm21.124,22.75c0,1.254-2.272,2.648-11.559,2.648-8.961,0-9.8-.561-9.8-4.506,0-1.436.093-4.6-.093-6.867-.047-.65.139-.836.79-.836.836,0,4.363.275,4.363,1.343,0,.557-.6.883-1.808,1.068-.05,1.533-.093,3.391-.05,4.831.05,1.483.1,1.761,6.5,1.761,5.663,0,7.475-.511,8.218-1.486a8.659,8.659,0,0,0,1.2-2.83c.325-1.068,1.486-.976,1.486.182C172.252,447.818,173.042,447.4,173.042,448.7Zm-13.092-8.586c-.557-.976,0-1.908,1.3-1.44,2.415.925,4.874,2.551,4.688,4.781a2.122,2.122,0,0,1-2.365,2.086c-1.258-.089-1.676-1.347-2.23-2.69A18.546,18.546,0,0,0,159.95,440.114Zm3.573-3.9c0,1.022-.693,1.486-2.086,1.486a1.175,1.175,0,0,1-1.3-1.3c0-4.134.418-19.173-.186-24.422-.046-.372.279-.65.7-.65a12.17,12.17,0,0,1,4.13,1.765h8.776c.7-.929,1.579-1.9,2.137-1.9.972,0,3.9,2.183,3.9,3.252,0,.739-.975,1.161-1.951,1.529-.182,4.877.093,17.691.093,20.106,0,1.44-.786,1.765-2.04,1.765a1.394,1.394,0,0,1-1.44-1.579v-1.394H163.523Zm.05-21.263c-.05.929-.05,2.783-.1,4.692h10.866c.046-2,.046-3.716,0-4.692Zm-.1,11.28h10.866v-4.734H163.476v4.734Zm10.82,6.778v-4.92h-10.82l.046,4.92Zm6.732,12.813A2.149,2.149,0,0,1,178.658,448c-1.254-.047-1.812-1.3-2.555-2.923a33.234,33.234,0,0,0-1.808-3.391c-.557-.976-.046-1.9,1.254-1.44C178.333,441.272,181.12,443.362,181.027,445.82Z" transform="translate(10.136 0.827)"/><path class="a" d="M172.29,446.742c4.92.786,12.767.461,18.755.042,1.347-.093,1.3,1.3.139,1.579-.883.232-1.022.557-1.394,1.208-.372.7-.7.976-1.812,1.022-4.456.228-14.16.368-18.895-1.161-4.506-1.486-6.778-4.366-8.172-9.143a23.8,23.8,0,0,1-9.937,11.466c-1.157.743-1.994-.232-1.018-1.161a27.619,27.619,0,0,0,9.561-18.805c.05-.465.325-.65.883-.554,1.533.228,4.645,1.487,4.645,2.412,0,.743-.883.976-2.276.929-.279,1.065-.6,2.226-.975,3.341,1.579,4.785,3.67,6.918,7.243,8.079v-18.1H154.321c-.6,0-1.022-.186-1.022-.929,0-.693.418-.929,1.022-.929h27.856c.929-1.347,2.137-2.83,2.834-2.83.883,0,4.13,2.6,4.13,3.666,0,.65-.743,1.022-2.508,1.022h-13.37a.633.633,0,0,1,.422.557c0,.511-.468.883-1.394,1.161v6.5h6.267c1.022-1.533,2.319-3.345,3.108-3.345.975,0,4.32,2.927,4.32,4.088,0,.7-1.022,1.111-2.555,1.111H172.29Zm-15-28.324v.929c-.232,3.019-1.9,5.338-4.32,5.338a1.727,1.727,0,0,1-1.808-1.808c0-1.9,2.086-2.09,3.2-4.363a9.389,9.389,0,0,0,.557-3.763c0-1.068,1.254-1.208,1.672-.186a20.515,20.515,0,0,1,.511,2h11.93a53.715,53.715,0,0,0-.139-5.663.587.587,0,0,1,.65-.7c.79,0,5.385.139,5.385,1.4,0,.925-.975,1.3-2.412,1.622v3.345h11.094c.79-.836,1.672-1.723,2.179-1.723.836,0,3.9,2.559,3.9,3.949-.047.929-1.208,1.026-2.458,1.347a48.153,48.153,0,0,1-3.995,2.833c-1.022.6-1.812-.093-1.208-1.161a25.639,25.639,0,0,0,1.719-3.391Z" transform="translate(42.618 0.652)"/><path class="a" d="M181.237,417.834c.79-.925,1.808-2.09,2.365-2.09.975,0,3.809,2.373,3.809,3.345,0,.6-.929,1.254-2,1.626-1.3,6.871-3.2,12.256-6.36,17.087a33.585,33.585,0,0,1-16.665,13.045c-1.3.465-1.9-.79-.65-1.487,6.685-3.526,11.327-7.707,14.578-13a40.019,40.019,0,0,0,5.663-16.665h-9.054c-2.319,5.849-5.524,12.26-10.587,17.412-.786.976-1.947.372-1.3-.79a63.028,63.028,0,0,0,10.49-25.444c.093-.507.279-.693.883-.693,1.672.089,4.92.975,5.013,1.9.139.743-.879,1.161-2.226,1.208-.465,1.44-.976,2.973-1.579,4.548Zm-8.683,13.417c-.6-1.064-1.347-2.137-2-3.155-.693-.929-.182-2,1.208-1.579,2.787,1.022,5.528,2.834,5.57,5.152a2.062,2.062,0,0,1-2.086,2.323C173.948,434.038,173.391,432.788,172.555,431.251Zm21.821.886a24.166,24.166,0,0,0,10.03,5.57c1.065.321,1.115.883-.143,1.436a4.562,4.562,0,0,0-1.715,1.347c-.511.511-.975.65-2.09.139a22.864,22.864,0,0,1-6.035-3.949c.093,5.435.186,12.445.186,13.792,0,1.064-.79,1.626-2.276,1.626a1.309,1.309,0,0,1-1.483-1.347c0-1.9.325-12.4.414-17.315a31.076,31.076,0,0,1-5.663-9.89.852.852,0,1,1,1.626-.511,35.147,35.147,0,0,0,4.038,5.892c.05-4.684,0-13.51-.6-17.125-.1-.465.186-.7.65-.7,3.062,0,5.617.279,5.617,1.44,0,.79-.975,1.3-2.415,1.626-.139,3.252-.139,14.9-.139,16.758Z" transform="translate(75.125 0.586)"/><path class="a" d="M183.766,451.431H172.807a1.994,1.994,0,0,1-.182-.832,2.029,2.029,0,0,1,.182-.836h9.658c.232,0,.279-.047.279-.283V410.9a1.884,1.884,0,0,1,.929-.186,1.7,1.7,0,0,1,.883.186v39.7C184.555,451.249,184.37,451.431,183.766,451.431Z" transform="translate(108.926 2.133)"/><path class="a" d="M195.736,413.628c-.163.4-.437,1.111-.879,2.141-.085,1.111.894,1.173,1.835.639,1.123-.635,1.947-1.308,2.721-1.308h0a1.251,1.251,0,0,1,1.428,1.324c.012.786-.654,1.56-1.843,2.21a30.887,30.887,0,0,1-6.585,2.222,82.985,82.985,0,0,1-4.448,7.827c-.236.352-.124.453.228.205a8.658,8.658,0,0,1,4.877-1.831c2.338,0,3.863.964,4.39,3.023,2.876-5.392,6.832-8.365,10.738-8.365,6.314,0,7.552,6.511,1.812,8.768-4.421,1.734-8.849,3.062-12.2,4.521-.031.136-.062.275-.089.418.043,2.1.085,4.5.085,5.423,0,1.452-.662,2.11-1.831,2.11-1,0-1.545-.755-1.545-2.11,0-.693.108-2.392.205-4.192-2.4,1.506-4.707,3.647-4.707,6.019,0,2.269,2.5,2.907,6.426,2.907,3.256,0,7.1-1.026,8.35-1.026s2.106.515,2.106,1.417c0,1.061-.724,1.692-2.009,2.09a32.7,32.7,0,0,1-8.121.894c-6.07,0-9.658-1.916-9.658-5.435,0-2.981,2.644-6.4,7.746-9.5.019-.616.035-1.188.035-1.665,0-2.621-.612-3.279-2.388-3.279-2.35,0-5.57,2.617-8.017,5.683-1.308,1.641-2.5,3.41-3.708,3.41a1.943,1.943,0,0,1-1.637-2.152c0-1.506,3.3-4.123,4.545-5.566a43.12,43.12,0,0,0,5.826-9.039,24.354,24.354,0,0,1-5.311.089c-2.419-.329-3.751-2.605-4.037-4.792-.1-.817.631-1.13,1.231-.6a8.578,8.578,0,0,0,3.852,2.28,17.445,17.445,0,0,0,5.609.019c1.769-4.27,1.452-4.812-.554-5.911-.751-.41-.681-1.142.135-1.4a6.759,6.759,0,0,1,2.067-.31,6.269,6.269,0,0,1,3.151.921C196.1,412.057,196.123,412.684,195.736,413.628Zm3.178,18.287c2.241-.956,5.582-2.311,8.81-3.89,3.294-1.618,2.992-4.2-.062-4.2C204.694,423.825,200.9,427.707,198.914,431.915Z" transform="translate(127.401 2.337)"/><path class="a" d="M202.231,446.042a22.291,22.291,0,0,0,4.734,1.161c6.174.929,16.622.7,24.325.139,1.351-.093,1.351,1.208.19,1.486-.836.186-1.022.557-1.347,1.254-.372.7-.65.925-1.719.976-5.942.325-17.129.554-23.907-1.022-4.877-1.161-7.754-3.856-9.612-8.683a17.986,17.986,0,0,1-5.3,9.794c-1.3,1.212-2.551.236-1.529-1.157,4.177-5.71,4.456-10.773,4.456-18.527a.648.648,0,0,1,.743-.693c1.672,0,4.134.739,4.134,1.529,0,.561-.418.929-1.626,1.208-.093,1.44-.186,3.066-.372,4.692a14.082,14.082,0,0,0,3.852,6.081V428.03h-9.1c-.6,0-1.022-.186-1.022-.929,0-.7.418-.929,1.022-.929h9v-6.592h-7.289c-.6,0-1.022-.186-1.022-.929,0-.7.418-.925,1.022-.925h7.243c-.046-2.884-.139-5.478-.279-6.875-.046-.414.232-.65.65-.65.79,0,5.152.139,5.152,1.347,0,.929-1.018,1.3-2.458,1.626v4.552h1.947c.883-1.3,1.951-2.741,2.6-2.741.836,0,3.67,2.6,3.67,3.619.046.65-.79.975-2.137.975h-6.081v6.592h3.062c.883-1.3,1.9-2.69,2.508-2.69.883,0,3.619,2.6,3.619,3.573a.638.638,0,0,1-.043.279,12.387,12.387,0,0,0,3.619-4.274c1.208-2.272,1.579-4.734,1.719-8.218H210.4c-.6,0-1.022-.182-1.022-.925,0-.7.418-.929,1.022-.929h15.879c.554-.739,1.25-1.533,1.622-1.533.883,0,3.438,1.858,3.438,2.508,0,.511-.65,1.068-1.44,1.486-.093,3.108-.465,7.707-1.486,9.844a4.67,4.67,0,0,1-4.688,3.062,1.5,1.5,0,0,1-1.672-.976,2.571,2.571,0,0,0-1.487-1.208c-.511-.228-.7-.511-.6-.929a.6.6,0,0,1,.79-.414,25.87,25.87,0,0,0,2.927.228,2.22,2.22,0,0,0,2.183-1.436c.786-1.579,1.157-5.756,1.157-8.779h-5.106v.05c.047.743-.6,1.068-1.994,1.25a20.8,20.8,0,0,1-2.137,7.754c-1.579,2.927-4.6,5.342-8.59,6.875-1.208.511-1.812-.79-.743-1.486a19.75,19.75,0,0,0,2.183-1.44,3.616,3.616,0,0,1-1.347.186h-6.267a.574.574,0,0,1,.186.372c0,.461-.325.786-.975,1.022v6.217h2.551c.883-1.39,2-2.876,2.6-2.876.929,0,3.577,2.741,3.623,3.712,0,.7-.975,1.026-2.044,1.026h-6.732Zm22.7-15.318c.608-.836,1.393-1.765,1.858-1.765.883,0,3.391,1.951,3.391,2.927,0,.511-.65.925-1.394,1.2-.046,2.694.046,9.147.046,10.587s-.7,1.765-1.9,1.765c-1.065,0-1.347-.836-1.347-1.579v-1.254H215.416v1.761c0,1.022-.7,1.44-2,1.44-.743,0-1.157-.418-1.157-1.254,0-3.016.232-10.676-.19-14.76a.509.509,0,0,1,.65-.557,9.8,9.8,0,0,1,3.577,1.487Zm.7,10.026c0-2.648.043-6.314.043-8.172H215.462c-.046,1.161-.093,4.459-.093,5.478v2.694Z" transform="translate(152.196 0.652)"/><path class="a" d="M207.109,426.36a36.612,36.612,0,0,0,7.165-1.719c2.419-.755,4.545-1.626,5.667-1.607,1.564.027,4.1,1.63,3.991,3.182-.07,1-1.583,1.878-2.969,2.961a79.086,79.086,0,0,0-6.786,6.225c2.1,0,4.289.708,4.618,3.55.132,1.177.248,2.539.445,3.778.248,1.579.906,2.168,3.043,2.2a39.544,39.544,0,0,0,7.974-.836c1.483.023,2.729,1,2.663,2.005-.07,1.123-.871,1.723-2.644,2.075a25.074,25.074,0,0,1-6.3.457c-5.2-.162-7.525-1.668-7.723-5.04-.074-1.274-.178-3.414-.3-4.417a1.787,1.787,0,0,0-1.831-1.715c-1.2-.023-2.09.6-3.492,1.974a80.8,80.8,0,0,0-5.648,6.484c-.983,1.289-1.622,2.106-2.752,2.106a1.792,1.792,0,0,1-1.7-1.831c.019-1.157.507-1.831,1.866-3.166,1.471-1.444,5.973-5.64,8.532-8.164a94.548,94.548,0,0,0,7.746-8.261c.317-.449.155-.759-.283-.766-1.045-.019-4.421,1.56-6.558,2.458-2.195.921-4.73,2.114-5.791,2.114-1.3,0-2.28-1.3-2.787-2.462a4.174,4.174,0,0,1-.093-2.648c.232-.6.6-.739,1.254-.279A4.8,4.8,0,0,0,207.109,426.36Zm4.293-15.5a11.038,11.038,0,0,0,6.472,3.263c2.28.445,3,1.425,2.977,2.687-.019.875-.8,1.386-3.124,1.386a13.5,13.5,0,0,0-3.546.434c-.809.236-1.618.484-2.33.72-1.223.414-1.858-.766-.821-1.479.77-.53,1.219-.844,1.742-1.25.743-.581.612-.918-.155-1.514a9.072,9.072,0,0,1-2.718-3.263c-.5-1.165.708-1.773,1.5-.983Z" transform="translate(189.048 1.524)"/><path class="a" d="M214.7,412.982a4.382,4.382,0,0,0,2.427,1.146c1.239.043,4.27-1.007,5.756-1.653,1.2-.519,2.024-1.111,2.923-1.111,2.23,0,5.292,2.369,5.292,3.995,0,1.343-1.637,2.156-3.387,3.708a90.484,90.484,0,0,0-8.683,8.841c-.368.472-.263.693.294.348a11.948,11.948,0,0,1,6.294-1.885c5.93,0,10.661,3.724,10.661,9.5s-5.33,10.343-12.38,10.343c-5.005,0-7.932-2.025-7.932-5.265,0-2.334,2.021-3.991,4.595-4.057a6.823,6.823,0,0,1,6.8,5.667,7.815,7.815,0,0,0,5.261-7.293c0-4.494-3.163-6.809-7.564-6.809a11.309,11.309,0,0,0-8.3,3.9,40.8,40.8,0,0,0-3.515,4.858c-.786,1.161-1.351,1.49-2.079,1.49-1.316,0-2.35-1.827-1.049-4.068,1.486-2.559,4.5-5.148,7.665-8.9,2.4-2.849,6.643-7.746,7.916-9.883.635-1.065.484-1.781-.445-1.781-1.839,0-6.41,4.134-8.586,4.134-1.9,0-3.859-2.667-3.619-4.688.108-.91.681-1.32,1.657-.542Zm8.334,30.36c.24,0,.472-.008.7-.019-.2-2.795-1.653-4.428-3.5-4.428a1.893,1.893,0,0,0-2.137,1.777C218.1,442.444,220.1,443.35,223.034,443.342Z" transform="translate(214.845 3.994)"/><path class="a" d="M227.732,423.537c1.25,2.415.368,4.734-1.672,4.734-1.022,0-1.719-.693-2.276-1.854a18.743,18.743,0,0,0-2.276-3.577,31.884,31.884,0,0,0-3.341-3.2c-.79-.7-.511-1.394.6-1.3C222.669,418.663,226.2,420.661,227.732,423.537Z" transform="translate(238.385 23.993)"/><path class="a" d="M257.153,428.355c1.022-1.533,2.323-3.345,3.066-3.345.972,0,4.177,2.927,4.177,4.088,0,.7-.879,1.111-2.412,1.111h-8.218c.557.325.972.7.972,1.115,0,.465-.414.836-1.668,1.022a30.748,30.748,0,0,1-3.716,9.054c4.459,1.44,8.4,3.434,11.1,6.128,1.858,1.858,1.3,4.227-.6,4.227a3.774,3.774,0,0,1-2.416-1.119,48.163,48.163,0,0,0-10.119-6.542,16.821,16.821,0,0,1-1.579,1.576c-4.316,3.623-11.327,5.853-20.427,6.41-1.44.093-1.44-1.347-.139-1.583,7.893-1.389,14.671-3.387,18.523-7.331l.372-.422a66.951,66.951,0,0,0-7.939-2.129c-.139.275-.279.507-.372.739-.372,1.022-1.161,1.208-2.6,1.065-1.068-.089-1.486-.6-1.115-1.436a100.133,100.133,0,0,0,4.456-10.773H223.727c-.6,0-1.022-.186-1.022-.925,0-.7.418-.929,1.022-.929h13.417a66.843,66.843,0,0,0,2.369-8.172.708.708,0,0,1,.836-.6c2.319.372,4.316,1.254,4.316,2.137,0,.65-.883.976-2.137.976l-1.9,5.663Zm-26.695-9.89v.929c-.139,3.666-2.044,6.174-4.595,6.314a1.793,1.793,0,0,1-2-1.761c-.139-2.044,2.369-2.6,3.53-5.156a9.5,9.5,0,0,0,.557-4.274.83.83,0,0,1,1.622-.325,13.338,13.338,0,0,1,.65,2.416h11.559a55.743,55.743,0,0,0-.136-5.706.584.584,0,0,1,.65-.7c.786,0,5.385.139,5.385,1.4,0,.925-.975,1.3-2.416,1.622v3.387h12.163c.836-.879,1.765-1.765,2.276-1.765.79,0,3.991,2.648,3.945,4.088-.047.886-1.161,1.115-2.5,1.533a40.868,40.868,0,0,1-4.274,3.573c-1.018.65-1.951-.089-1.394-1.065a24.55,24.55,0,0,0,2.137-4.506Zm19.034,11.745h-9.515c-1.022,3.019-2.137,6.225-3.066,8.5,3.066.418,6.081.976,9.008,1.672a25.875,25.875,0,0,0,3.573-10.119Z" transform="translate(369.707 0.652)"/><path class="a" d="M240.54,427.115c1.626,6.871-1.208,12.767-4.827,12.767a1.983,1.983,0,0,1-2.137-2.09c0-2.087,2-2.6,3.3-4.363a9.2,9.2,0,0,0,1.533-6.035A1.077,1.077,0,0,1,240.54,427.115Zm6.453-6.592c3.205,0,5.338.511,5.338,1.576,0,.886-.972,1.351-2.412,1.583-.093,2.319-.139,18.8-.139,20.242,0,2.226.372,3.015,6.964,3.015,6.128,0,7.15-.929,7.614-2.23a33.47,33.47,0,0,0,.976-3.852.884.884,0,0,1,1.761.093c.05.79.093,2.272.139,3.434.093,1.579,1.068,1.862,1.068,2.88,0,1.115-2.04,3.112-11.466,3.112-9.519,0-10.541-1.347-10.541-5.617,0-1.862.232-19.456-.275-23.261C245.928,420.8,246.254,420.523,246.993,420.523Zm4.088-10.119c3.2.511,7.8,2.783,8.45,5.8a2.346,2.346,0,0,1-1.812,3.112c-1.579.368-2.508-1.258-3.995-3.162a28.253,28.253,0,0,0-3.573-3.991C249.316,411.329,249.641,410.168,251.081,410.4Zm17.733,15.5c2.973,1.44,7.057,5.3,6.918,8.4-.046,1.626-1.022,2.694-2.508,2.6-1.668-.047-2.133-2-3.108-4.413a36.274,36.274,0,0,0-2.644-5.2C266.909,426.326,267.513,425.261,268.814,425.907Z" transform="translate(400.918 1.148)"/><path class="a" d="M249.083,411.848c0-.639,1.134-1.072,1.951-1.072,1.088,0,3.058.042,4.243.921.964.708,1.2,1.448,1.006,3-.17,1.382-1.9,7.68-1.812,10.185.074,2.09.635,2.7,2.265,2.609,1.177-.074,3-1.351,4.978-1.351,1.959,0,3.352.913,3.438,2.218.1,1.6-1.583,1.928-4.258,2.148a47.908,47.908,0,0,0-4.808.6,9.269,9.269,0,0,0-6.906,8.822c.089,4.107,3.863,4.417,7.982,4.316,3.143-.077,6.19-.979,7.425-1.022,1.634-.054,2.837.7,2.837,1.63,0,.983-.639,1.723-2.071,2.261-1.5.565-3.437.89-7.3.987-7.421.194-11.567-2.35-11.706-7.235-.135-4.781,2.145-8.4,7.049-11.535a4.785,4.785,0,0,1-1.664-3.976c0-2.117.372-7.607.372-9.511a2.382,2.382,0,0,0-1.212-2.4c-1.417-.852-1.808-1-1.808-1.6Z" transform="translate(320.565 2.305)"/><path class="a" d="M287.906,428.355c1.022-1.533,2.323-3.345,3.062-3.345.975,0,4.185,2.927,4.185,4.088,0,.7-.886,1.111-2.419,1.111h-8.218c.561.325.976.7.976,1.115,0,.465-.414.836-1.668,1.022a30.855,30.855,0,0,1-3.716,9.054c4.459,1.44,8.4,3.434,11.1,6.128,1.854,1.858,1.3,4.227-.6,4.227a3.774,3.774,0,0,1-2.416-1.119,48.179,48.179,0,0,0-10.123-6.542,16.338,16.338,0,0,1-1.575,1.576c-4.32,3.623-11.331,5.853-20.427,6.41-1.44.093-1.44-1.347-.139-1.583,7.893-1.389,14.671-3.387,18.523-7.331l.372-.422a67.148,67.148,0,0,0-7.939-2.129c-.139.275-.279.507-.372.739-.372,1.022-1.161,1.208-2.6,1.065-1.068-.089-1.487-.6-1.115-1.436a100.8,100.8,0,0,0,4.459-10.773H254.48c-.6,0-1.022-.186-1.022-.925,0-.7.418-.929,1.022-.929H267.9a66.839,66.839,0,0,0,2.369-8.172.706.706,0,0,1,.836-.6c2.319.372,4.316,1.254,4.316,2.137,0,.65-.883.976-2.137.976l-1.9,5.663Zm-26.694-9.89v.929c-.139,3.666-2.044,6.174-4.6,6.314a1.792,1.792,0,0,1-1.994-1.761c-.139-2.044,2.369-2.6,3.526-5.156a9.448,9.448,0,0,0,.557-4.274.832.832,0,0,1,1.626-.325,13.342,13.342,0,0,1,.65,2.416h11.563a55.683,55.683,0,0,0-.139-5.706.586.586,0,0,1,.65-.7c.79,0,5.381.139,5.381,1.4,0,.925-.976,1.3-2.412,1.622v3.387h12.163c.836-.879,1.765-1.765,2.276-1.765.79,0,3.991,2.648,3.945,4.088-.047.886-1.161,1.115-2.5,1.533a40.878,40.878,0,0,1-4.274,3.573c-1.022.65-1.951-.089-1.39-1.065a25.065,25.065,0,0,0,2.137-4.506Zm19.034,11.745h-9.515c-1.022,3.019-2.137,6.225-3.066,8.5,3.066.418,6.081.976,9.008,1.672a25.876,25.876,0,0,0,3.573-10.119Z" transform="translate(221.999 0.652)"/><path class="a" d="M307.28,427.759a3.862,3.862,0,0,0-1.9,1.394c-.6.925-1.022,1.208-2.18.836-5.621-2.09-12.213-7.568-16.343-15.418a52.952,52.952,0,0,1-20.892,18.9c-1.157.557-1.858-.743-.79-1.486,8.5-5.8,14.9-12.3,18.991-21.263a.841.841,0,0,1,1.064-.511c1.765.325,4.181,1.208,4.181,2,0,.422-.376.65-1.44.79a31.965,31.965,0,0,0,19.127,13.328C308.58,426.648,308.209,427.434,307.28,427.759Zm-9.794,20.985c1.022-1.533,2.365-3.344,3.155-3.344.976,0,4.413,2.926,4.413,4.088,0,.7-.84,1.115-2.6,1.115H268.047c-.6,0-1.018-.186-1.018-.929,0-.7.418-.929,1.018-.929h16.069v-8.451H273.621c-.6,0-1.022-.186-1.022-.925,0-.7.418-.933,1.022-.933h10.494V431.1h-8.59c-.6,0-1.026-.19-1.026-.929,0-.7.422-.933,1.026-.933h15.507c.972-1.436,2.18-3.062,2.876-3.062.929,0,4.088,2.787,4.088,3.9.046.65-.836,1.026-2.373,1.026h-7.146c-.046.461-.372.786-1.115,1.022v6.31h5.807c.972-1.39,2.179-3.016,2.876-3.016.879,0,4.177,2.737,4.227,3.852,0,.65-.84,1.022-2.555,1.022H287.363v8.451Z" transform="translate(254.11 0.597)"/><path class="a" d="M292.671,411.708c.519.348.55.976.163,1.92-.166.4-.437,1.111-.886,2.141-.081,1.111.9,1.173,1.843.639,1.119-.635,1.943-1.308,2.721-1.308a1.252,1.252,0,0,1,1.428,1.324c.015.786-.654,1.56-1.843,2.21a30.841,30.841,0,0,1-6.581,2.222,82.96,82.96,0,0,1-4.452,7.827c-.232.352-.124.453.232.205a8.636,8.636,0,0,1,4.874-1.831c2.342,0,3.863.964,4.39,3.023,2.876-5.392,6.832-8.365,10.742-8.365,6.314,0,7.548,6.511,1.808,8.768-4.421,1.734-8.849,3.062-12.2,4.521-.031.136-.062.275-.085.418.035,2.1.081,4.5.081,5.423,0,1.452-.662,2.11-1.831,2.11-1,0-1.545-.755-1.545-2.11,0-.693.1-2.392.209-4.192-2.4,1.506-4.707,3.647-4.707,6.019,0,2.269,2.5,2.907,6.422,2.907,3.256,0,7.1-1.026,8.354-1.026,1.243,0,2.1.515,2.1,1.417,0,1.061-.72,1.692-2.005,2.09a32.7,32.7,0,0,1-8.121.894c-6.07,0-9.662-1.916-9.662-5.435,0-2.981,2.644-6.4,7.746-9.5.023-.616.039-1.188.039-1.665,0-2.621-.615-3.279-2.388-3.279-2.35,0-5.57,2.617-8.021,5.683-1.308,1.641-2.5,3.41-3.709,3.41a1.949,1.949,0,0,1-1.641-2.152c0-1.506,3.31-4.123,4.549-5.566a43.124,43.124,0,0,0,5.826-9.039,24.352,24.352,0,0,1-5.311.089c-2.419-.329-3.751-2.605-4.034-4.792-.108-.817.631-1.13,1.227-.6a8.611,8.611,0,0,0,3.856,2.28,17.443,17.443,0,0,0,5.609.019c1.769-4.27,1.452-4.812-.554-5.911-.755-.41-.685-1.142.132-1.4a6.766,6.766,0,0,1,2.071-.31,6.254,6.254,0,0,1,3.147.921Zm3.337,20.207c2.241-.956,5.586-2.311,8.81-3.89,3.294-1.618,2.992-4.2-.062-4.2C301.788,423.825,298,427.707,296.008,431.915Z" transform="translate(406.148 2.337)"/><path class="a" d="M286.324,424.3a6.5,6.5,0,1,1,6.5,6.5A6.522,6.522,0,0,1,286.324,424.3Zm10.769,0a4.272,4.272,0,1,0-4.27,4.27A4.257,4.257,0,0,0,297.093,424.3Z" transform="translate(435.358 22.448)"/></g></svg>