<svg xmlns="http://www.w3.org/2000/svg" width="261.639" height="83.238" viewBox="0 0 261.639 83.238"><defs><style>.a{fill:#fff;}</style></defs><g transform="translate(-134.685 -409.973)"><path class="a" d="M136.332,411.288c-.183,0-.223.036-.223.223v30.4a1.268,1.268,0,0,1-.692.149,1.419,1.419,0,0,1-.732-.149v-31.28c0-.509.146-.656.622-.656h8.633a1.549,1.549,0,0,1,0,1.315Z"/><path class="a" d="M148.025,421.38c0,1.574.11,9.075.11,10.21,0,.805-.586,1.132-1.611,1.132a.912.912,0,0,1-1.022-.985c0-.955.146-6.22.22-8.966a22.087,22.087,0,0,1-6.257,6.806c-.952.586-1.684-.183-.952-.985a28.375,28.375,0,0,0,6.33-10.357H139.5c-.476,0-.805-.146-.805-.732,0-.549.329-.729.805-.729h6.22c-.037-2.233-.11-4.686-.293-6a.422.422,0,0,1,.476-.512c1.757,0,4.024.18,4.024,1.059,0,.586-.7.952-1.83,1.135,0,.805-.037,2.559-.037,4.32h.769c.769-1.248,1.72-2.562,2.267-2.562.769,0,2.928,2.34,2.928,3.185,0,.546-.805.839-1.608.839h-4.393ZM144,433.82a10.988,10.988,0,0,1,.4,3.841c-.293,2.16-1.574,3.514-3.438,3.551a1.4,1.4,0,0,1-1.464-1.464c-.037-1.278,1.5-1.684,2.413-2.962a5.882,5.882,0,0,0,.732-2.819A.686.686,0,0,1,144,433.82Zm5.012-11.2c-.586-.622-.293-1.425.732-1.245,1.937.4,3.914,1.245,4.134,2.855a1.581,1.581,0,0,1-1.388,1.864c-.915.11-1.354-.729-2.013-1.644A16.886,16.886,0,0,0,149.013,422.625Zm16.647,17.928c0,.988-1.791,2.087-9.109,2.087-7.062,0-7.721-.442-7.721-3.551,0-1.132.073-3.624-.073-5.412-.037-.513.11-.659.622-.659.659,0,3.438.217,3.438,1.059,0,.439-.473.7-1.425.842-.04,1.208-.073,2.672-.04,3.807.04,1.168.076,1.388,5.125,1.388,4.463,0,5.891-.4,6.476-1.171a6.824,6.824,0,0,0,.949-2.23c.256-.842,1.171-.769,1.171.143C165.038,439.857,165.66,439.528,165.66,440.553Zm-10.317-6.766c-.439-.769,0-1.5,1.025-1.135,1.9.729,3.841,2.01,3.694,3.767a1.672,1.672,0,0,1-1.864,1.644c-.991-.07-1.321-1.062-1.757-2.12A14.616,14.616,0,0,0,155.343,433.787Zm2.816-3.075c0,.805-.546,1.171-1.644,1.171a.926.926,0,0,1-1.025-1.025c0-3.258.329-15.109-.146-19.246-.037-.293.22-.513.549-.513a9.589,9.589,0,0,1,3.255,1.391h6.916c.549-.732,1.245-1.5,1.684-1.5.766,0,3.072,1.72,3.072,2.562,0,.583-.769.915-1.537,1.2-.143,3.844.073,13.941.073,15.844,0,1.135-.619,1.391-1.608,1.391a1.1,1.1,0,0,1-1.135-1.245v-1.1h-8.453Zm.04-16.757c-.04.732-.04,2.193-.076,3.7h8.563c.037-1.577.037-2.928,0-3.7Zm-.076,8.889h8.563v-3.731h-8.563v3.731Zm8.526,5.342v-3.877h-8.526l.037,3.877Zm5.3,10.1A1.693,1.693,0,0,1,170.086,440c-.988-.037-1.428-1.025-2.013-2.3a26.193,26.193,0,0,0-1.425-2.672c-.439-.769-.037-1.5.988-1.135C169.83,434.7,172.026,436.346,171.953,438.283Z" transform="translate(7.239 0.591)"/><path class="a" d="M167.466,439c3.877.619,10.061.363,14.78.033,1.062-.073,1.025,1.025.11,1.245-.7.183-.805.439-1.1.952-.293.549-.549.769-1.428.805-3.511.18-11.159.29-14.89-.915-3.551-1.171-5.341-3.441-6.44-7.205a18.752,18.752,0,0,1-7.831,9.036c-.912.586-1.571-.183-.8-.915a21.765,21.765,0,0,0,7.535-14.82c.04-.366.256-.512.7-.436,1.208.18,3.661,1.171,3.661,1.9,0,.586-.7.769-1.794.732-.22.839-.476,1.754-.769,2.633,1.245,3.771,2.892,5.451,5.708,6.366V424.141h-11.6c-.476,0-.805-.146-.805-.732,0-.546.329-.732.805-.732h21.952c.732-1.062,1.684-2.23,2.233-2.23.7,0,3.255,2.047,3.255,2.889,0,.513-.586.805-1.977.805H168.232a.5.5,0,0,1,.332.439c0,.4-.369.7-1.1.915v5.122H172.4c.805-1.208,1.827-2.636,2.45-2.636.769,0,3.4,2.306,3.4,3.221,0,.549-.805.876-2.013.876h-8.779Zm-11.818-22.321v.732c-.183,2.379-1.5,4.207-3.4,4.207a1.361,1.361,0,0,1-1.425-1.424c0-1.5,1.644-1.647,2.523-3.438a7.4,7.4,0,0,0,.439-2.965c0-.842.988-.952,1.318-.146a16.167,16.167,0,0,1,.4,1.574h9.4a42.328,42.328,0,0,0-.11-4.463.463.463,0,0,1,.512-.552c.622,0,4.243.11,4.243,1.1,0,.729-.769,1.022-1.9,1.278v2.636h8.743c.622-.659,1.318-1.358,1.717-1.358.659,0,3.075,2.016,3.075,3.112-.037.732-.952.808-1.937,1.062a37.942,37.942,0,0,1-3.148,2.233c-.805.473-1.428-.073-.952-.915a20.2,20.2,0,0,0,1.354-2.672Z" transform="translate(30.438 0.466)"/><path class="a" d="M176.916,416.211c.622-.729,1.425-1.647,1.864-1.647.769,0,3,1.87,3,2.636,0,.476-.732.988-1.574,1.281a35.863,35.863,0,0,1-5.012,13.465,26.466,26.466,0,0,1-13.133,10.28c-1.025.366-1.5-.622-.512-1.171a28.256,28.256,0,0,0,11.488-10.247,31.536,31.536,0,0,0,4.463-13.133h-7.135c-1.827,4.609-4.353,9.661-8.343,13.721-.619.769-1.534.293-1.022-.622a49.669,49.669,0,0,0,8.267-20.051c.073-.4.22-.546.7-.546,1.318.07,3.877.769,3.95,1.5.11.586-.692.915-1.754.952-.366,1.135-.769,2.343-1.245,3.584Zm-6.842,10.573c-.476-.839-1.062-1.684-1.574-2.486-.546-.732-.143-1.574.952-1.245,2.2.805,4.356,2.233,4.39,4.06a1.625,1.625,0,0,1-1.644,1.83C171.172,428.981,170.733,428,170.074,426.784Zm17.2.7a19.043,19.043,0,0,0,7.9,4.39c.839.253.879.7-.113,1.132a3.6,3.6,0,0,0-1.351,1.062c-.4.4-.769.512-1.647.11a18.017,18.017,0,0,1-4.756-3.112c.073,4.283.146,9.808.146,10.869,0,.839-.622,1.281-1.794,1.281a1.032,1.032,0,0,1-1.168-1.062c0-1.5.256-9.771.326-13.645a24.49,24.49,0,0,1-4.463-7.794.672.672,0,1,1,1.281-.4,27.7,27.7,0,0,0,3.182,4.643c.04-3.691,0-10.646-.473-13.5-.076-.366.146-.552.512-.552,2.413,0,4.426.22,4.426,1.135,0,.622-.769,1.025-1.9,1.281-.11,2.562-.11,11.745-.11,13.206Z" transform="translate(53.656 0.418)"/><path class="a" d="M181.4,442.8h-8.636a1.572,1.572,0,0,1-.143-.656,1.6,1.6,0,0,1,.143-.659h7.611c.183,0,.22-.037.22-.223v-30.4a1.484,1.484,0,0,1,.732-.146,1.338,1.338,0,0,1,.7.146v31.283C182.027,442.658,181.88,442.8,181.4,442.8Z" transform="translate(77.797 1.524)"/><path class="a" d="M192.2,413.026c-.128.314-.345.876-.692,1.687-.067.875.7.924,1.446.5.885-.5,1.534-1.031,2.144-1.031h0a.985.985,0,0,1,1.126,1.043c.009.619-.516,1.229-1.452,1.742a24.345,24.345,0,0,1-5.189,1.751,65.39,65.39,0,0,1-3.505,6.168c-.186.278-.1.357.18.162a6.823,6.823,0,0,1,3.844-1.443c1.843,0,3.044.76,3.459,2.382,2.267-4.249,5.384-6.592,8.462-6.592,4.975,0,5.952,5.131,1.428,6.91-3.484,1.367-6.974,2.413-9.612,3.563-.024.107-.049.217-.07.329.034,1.654.067,3.545.067,4.274,0,1.144-.522,1.662-1.443,1.662-.79,0-1.217-.595-1.217-1.662,0-.546.085-1.885.162-3.3-1.891,1.187-3.709,2.874-3.709,4.744,0,1.788,1.974,2.291,5.064,2.291,2.566,0,5.592-.808,6.58-.808s1.66.406,1.66,1.116c0,.836-.57,1.333-1.583,1.647a25.771,25.771,0,0,1-6.4.7c-4.783,0-7.611-1.51-7.611-4.283,0-2.349,2.083-5.04,6.1-7.486.015-.485.027-.937.027-1.312,0-2.065-.482-2.584-1.882-2.584-1.852,0-4.39,2.062-6.318,4.478-1.031,1.293-1.974,2.687-2.922,2.687a1.531,1.531,0,0,1-1.29-1.7c0-1.187,2.6-3.249,3.581-4.387a33.98,33.98,0,0,0,4.591-7.123,19.194,19.194,0,0,1-4.185.07c-1.907-.259-2.956-2.053-3.182-3.777-.082-.644.5-.891.97-.473a6.76,6.76,0,0,0,3.035,1.8,13.748,13.748,0,0,0,4.42.015c1.394-3.365,1.144-3.792-.436-4.658-.592-.323-.537-.9.107-1.1a5.326,5.326,0,0,1,1.629-.244,4.94,4.94,0,0,1,2.483.726C192.485,411.787,192.507,412.282,192.2,413.026Zm2.5,14.411c1.766-.753,4.4-1.821,6.943-3.066,2.6-1.275,2.358-3.31-.049-3.31C199.261,421.061,196.274,424.121,194.706,427.437Z" transform="translate(90.992 1.669)"/><path class="a" d="M199.15,438.445a17.566,17.566,0,0,0,3.731.915c4.866.732,13.1.549,19.17.11,1.065-.073,1.065.952.15,1.171-.659.146-.805.439-1.062.988-.293.549-.512.729-1.354.769-4.683.256-13.5.436-18.84-.805-3.844-.915-6.11-3.038-7.574-6.842a14.174,14.174,0,0,1-4.173,7.718c-1.022.955-2.01.186-1.205-.912,3.292-4.5,3.511-8.49,3.511-14.6a.51.51,0,0,1,.586-.546c1.318,0,3.258.583,3.258,1.2,0,.442-.329.732-1.281.952-.073,1.135-.146,2.416-.293,3.7a11.1,11.1,0,0,0,3.035,4.792V424.251h-7.169c-.476,0-.805-.146-.805-.732,0-.549.33-.732.805-.732h7.1v-5.2H190.99c-.476,0-.805-.146-.805-.732,0-.549.329-.729.805-.729H196.7c-.037-2.273-.11-4.317-.22-5.418-.037-.326.183-.513.512-.513.622,0,4.06.11,4.06,1.062,0,.732-.8,1.025-1.937,1.281v3.587h1.534c.7-1.025,1.538-2.16,2.05-2.16.659,0,2.892,2.047,2.892,2.852.037.513-.622.769-1.684.769h-4.792v5.2h2.413c.7-1.025,1.5-2.12,1.977-2.12.7,0,2.852,2.047,2.852,2.816a.5.5,0,0,1-.034.22,9.761,9.761,0,0,0,2.852-3.368,14.4,14.4,0,0,0,1.354-6.476H205.59c-.476,0-.805-.143-.805-.729,0-.549.329-.732.805-.732H218.1c.436-.583.985-1.208,1.278-1.208.7,0,2.709,1.464,2.709,1.977,0,.4-.513.842-1.135,1.171-.073,2.449-.366,6.074-1.171,7.757a3.68,3.68,0,0,1-3.694,2.413,1.178,1.178,0,0,1-1.318-.769,2.026,2.026,0,0,0-1.171-.952c-.4-.18-.549-.4-.476-.732a.474.474,0,0,1,.622-.326,20.391,20.391,0,0,0,2.306.18,1.749,1.749,0,0,0,1.72-1.132c.619-1.244.912-4.536.912-6.919h-4.024v.04c.037.586-.476.842-1.571.985a16.394,16.394,0,0,1-1.684,6.11,12.582,12.582,0,0,1-6.769,5.418c-.952.4-1.428-.622-.586-1.171a15.556,15.556,0,0,0,1.72-1.135,2.85,2.85,0,0,1-1.062.146h-4.939a.452.452,0,0,1,.146.293c0,.363-.256.619-.769.805v4.9h2.01c.7-1.1,1.574-2.267,2.05-2.267.732,0,2.819,2.16,2.855,2.925,0,.552-.769.808-1.611.808h-5.3Zm17.888-12.071c.479-.659,1.1-1.391,1.464-1.391.7,0,2.672,1.537,2.672,2.306,0,.4-.512.729-1.1.949-.037,2.123.037,7.208.037,8.343s-.549,1.391-1.5,1.391c-.839,0-1.062-.659-1.062-1.245v-.988h-8.011v1.388c0,.805-.549,1.135-1.574,1.135-.586,0-.912-.329-.912-.988,0-2.376.183-8.413-.15-11.632a.4.4,0,0,1,.512-.439,7.722,7.722,0,0,1,2.819,1.172Zm.552,7.9c0-2.087.034-4.975.034-6.44h-8.047c-.037.915-.073,3.514-.073,4.317v2.123Z" transform="translate(108.701 0.466)"/><path class="a" d="M205.715,423a28.847,28.847,0,0,0,5.646-1.354,22.569,22.569,0,0,1,4.466-1.266c1.232.021,3.227,1.284,3.145,2.508-.055.787-1.248,1.48-2.34,2.334a62.326,62.326,0,0,0-5.348,4.905c1.653,0,3.38.558,3.639,2.8.1.927.2,2,.351,2.977.2,1.245.714,1.708,2.4,1.736a31.166,31.166,0,0,0,6.284-.659c1.168.018,2.151.79,2.1,1.58-.055.885-.686,1.358-2.084,1.635a19.755,19.755,0,0,1-4.966.36c-4.1-.128-5.93-1.315-6.086-3.972-.058-1-.14-2.69-.235-3.481a1.408,1.408,0,0,0-1.443-1.352c-.943-.018-1.647.473-2.752,1.556a63.669,63.669,0,0,0-4.451,5.11c-.775,1.016-1.278,1.659-2.169,1.659a1.412,1.412,0,0,1-1.339-1.443c.015-.912.4-1.443,1.47-2.5,1.159-1.138,4.707-4.445,6.723-6.434a74.506,74.506,0,0,0,6.1-6.51c.25-.354.122-.6-.223-.6-.824-.015-3.484,1.229-5.168,1.937-1.73.726-3.728,1.666-4.564,1.666-1.025,0-1.8-1.028-2.2-1.94a3.29,3.29,0,0,1-.073-2.087c.183-.476.473-.583.988-.22A3.779,3.779,0,0,0,205.715,423Zm3.383-12.214a8.7,8.7,0,0,0,5.1,2.572c1.8.351,2.361,1.123,2.346,2.117-.015.689-.632,1.092-2.462,1.092a10.642,10.642,0,0,0-2.794.342c-.638.186-1.275.381-1.836.567-.964.326-1.464-.6-.647-1.165.607-.418.961-.665,1.373-.985.586-.458.482-.723-.122-1.193a7.149,7.149,0,0,1-2.142-2.572c-.393-.918.558-1.4,1.184-.775Z" transform="translate(135.021 1.089)"/><path class="a" d="M213.6,412.639a3.453,3.453,0,0,0,1.913.9,15.908,15.908,0,0,0,4.536-1.3,6.794,6.794,0,0,1,2.3-.875c1.757,0,4.17,1.867,4.17,3.148,0,1.059-1.29,1.7-2.669,2.922a71.31,71.31,0,0,0-6.842,6.967c-.29.372-.207.546.232.275a9.416,9.416,0,0,1,4.96-1.486c4.673,0,8.4,2.935,8.4,7.489s-4.2,8.151-9.756,8.151c-3.944,0-6.251-1.6-6.251-4.149,0-1.839,1.592-3.145,3.621-3.2a5.377,5.377,0,0,1,5.36,4.466,6.158,6.158,0,0,0,4.146-5.747c0-3.542-2.492-5.366-5.961-5.366a8.912,8.912,0,0,0-6.54,3.075,32.152,32.152,0,0,0-2.77,3.828c-.619.915-1.065,1.174-1.638,1.174-1.037,0-1.852-1.44-.827-3.206,1.171-2.016,3.548-4.057,6.04-7.016a95.914,95.914,0,0,0,6.238-7.788c.5-.839.381-1.4-.351-1.4-1.449,0-5.052,3.258-6.766,3.258-1.5,0-3.041-2.1-2.852-3.694.085-.717.537-1.04,1.306-.427Zm6.568,23.925c.189,0,.372-.006.555-.015-.159-2.2-1.3-3.49-2.761-3.49a1.492,1.492,0,0,0-1.684,1.4C216.279,435.857,217.854,436.571,220.169,436.564Z" transform="translate(153.446 2.852)"/><path class="a" d="M225.609,422.433c.985,1.9.29,3.731-1.318,3.731-.805,0-1.354-.546-1.794-1.461a14.773,14.773,0,0,0-1.794-2.819,25.126,25.126,0,0,0-2.633-2.523c-.622-.549-.4-1.1.476-1.025C221.619,418.593,224.4,420.167,225.609,422.433Z" transform="translate(170.259 17.136)"/><g transform="translate(166.815 459.749)"><path class="a" d="M248.5,411.621c0-.5.894-.845,1.537-.845a6.016,6.016,0,0,1,3.343.726c.76.558.943,1.141.793,2.367-.134,1.089-1.5,6.052-1.428,8.026.058,1.647.5,2.129,1.785,2.056.927-.058,2.364-1.065,3.923-1.065,1.544,0,2.642.72,2.709,1.748.082,1.263-1.248,1.519-3.356,1.693a37.76,37.76,0,0,0-3.789.473,7.3,7.3,0,0,0-5.442,6.952c.07,3.237,3.044,3.481,6.29,3.4,2.477-.061,4.878-.772,5.851-.805,1.287-.043,2.236.555,2.236,1.284,0,.775-.5,1.358-1.632,1.782a17.407,17.407,0,0,1-5.753.778c-5.848.153-9.115-1.852-9.225-5.7-.107-3.767,1.69-6.62,5.555-9.09a3.77,3.77,0,0,1-1.312-3.133c0-1.669.293-5.994.293-7.5a1.877,1.877,0,0,0-.955-1.891c-1.117-.671-1.425-.787-1.425-1.263Z" transform="translate(-174.275 -408.961)"/><path class="a" d="M280.6,424.507c.805-1.208,1.83-2.636,2.413-2.636.769,0,3.3,2.306,3.3,3.221,0,.549-.7.875-1.907.875h-6.476c.442.256.769.552.769.879,0,.366-.326.659-1.315.805a24.317,24.317,0,0,1-2.928,7.135,21.861,21.861,0,0,1,8.746,4.829c1.461,1.464,1.025,3.331-.476,3.331a2.975,2.975,0,0,1-1.9-.882,37.965,37.965,0,0,0-7.977-5.155,12.878,12.878,0,0,1-1.242,1.242c-3.4,2.855-8.929,4.612-16.1,5.052-1.135.073-1.135-1.062-.11-1.248,6.22-1.095,11.562-2.669,14.6-5.778l.293-.333a52.909,52.909,0,0,0-6.257-1.678c-.11.216-.22.4-.293.583-.293.805-.915.952-2.047.839-.842-.07-1.171-.473-.879-1.132a79.431,79.431,0,0,0,3.514-8.49H254.263c-.476,0-.805-.146-.805-.729,0-.549.329-.732.805-.732h10.573a52.662,52.662,0,0,0,1.867-6.44.557.557,0,0,1,.659-.476c1.827.293,3.4.988,3.4,1.684,0,.513-.7.769-1.684.769l-1.5,4.463Zm-21.036-7.794v.732c-.11,2.889-1.611,4.865-3.624,4.975a1.412,1.412,0,0,1-1.571-1.388c-.11-1.611,1.867-2.05,2.779-4.063a7.445,7.445,0,0,0,.439-3.368.656.656,0,0,1,1.281-.256,10.515,10.515,0,0,1,.512,1.9H268.5a43.872,43.872,0,0,0-.11-4.5.461.461,0,0,1,.512-.552c.622,0,4.24.11,4.24,1.1,0,.729-.769,1.022-1.9,1.278v2.669h9.585c.659-.693,1.391-1.391,1.794-1.391.622,0,3.145,2.087,3.109,3.221-.037.7-.915.879-1.974,1.208a32.228,32.228,0,0,1-3.368,2.816c-.805.512-1.537-.07-1.1-.839a19.754,19.754,0,0,0,1.684-3.551Zm15,9.255h-7.5c-.805,2.379-1.684,4.905-2.416,6.7,2.416.33,4.792.769,7.1,1.318a20.391,20.391,0,0,0,2.816-7.974Z" transform="translate(-253.458 -410.142)"/><path class="a" d="M298.242,424.034a3.044,3.044,0,0,0-1.5,1.1c-.473.729-.805.952-1.718.659-4.429-1.647-9.624-5.964-12.879-12.15a41.729,41.729,0,0,1-16.464,14.893c-.912.439-1.464-.586-.622-1.171,6.7-4.573,11.745-9.695,14.966-16.757a.663.663,0,0,1,.839-.4c1.391.256,3.295.952,3.295,1.574,0,.332-.3.512-1.135.622A25.191,25.191,0,0,0,298.1,422.9C299.267,423.158,298.975,423.777,298.242,424.034Zm-7.718,16.537c.805-1.208,1.864-2.636,2.486-2.636.769,0,3.478,2.306,3.478,3.221,0,.549-.662.879-2.05.879H267.325c-.473,0-.8-.146-.8-.732,0-.549.329-.732.8-.732h12.663v-6.659h-8.27c-.476,0-.805-.146-.805-.729,0-.552.329-.735.805-.735h8.27v-5.778h-6.769c-.476,0-.808-.149-.808-.732,0-.549.333-.735.808-.735h12.22c.766-1.132,1.718-2.413,2.267-2.413.732,0,3.221,2.2,3.221,3.072.037.513-.659.808-1.87.808h-5.631c-.037.363-.293.619-.879.805v4.972h4.576c.766-1.1,1.718-2.377,2.267-2.377.692,0,3.292,2.157,3.331,3.035,0,.512-.662.805-2.013.805h-8.16v6.659Z" transform="translate(-230.523 -410.181)"/><path class="a" d="M289.17,411.513c.409.274.433.769.128,1.513-.131.314-.345.876-.7,1.687-.064.875.708.924,1.452.5a5.588,5.588,0,0,1,2.145-1.031.987.987,0,0,1,1.126,1.043c.012.619-.516,1.229-1.452,1.742a24.308,24.308,0,0,1-5.186,1.751,65.368,65.368,0,0,1-3.508,6.168c-.183.278-.1.357.183.162a6.806,6.806,0,0,1,3.841-1.443c1.846,0,3.044.76,3.459,2.382,2.266-4.249,5.384-6.592,8.465-6.592,4.975,0,5.949,5.131,1.425,6.91-3.484,1.367-6.974,2.413-9.612,3.563-.024.107-.049.217-.067.329.027,1.654.064,3.545.064,4.274,0,1.144-.522,1.662-1.443,1.662-.787,0-1.217-.595-1.217-1.662,0-.546.082-1.885.165-3.3-1.894,1.187-3.71,2.874-3.71,4.744,0,1.788,1.968,2.291,5.061,2.291,2.566,0,5.592-.808,6.583-.808s1.656.406,1.656,1.116c0,.836-.567,1.333-1.58,1.647a25.769,25.769,0,0,1-6.4.7c-4.783,0-7.614-1.51-7.614-4.283,0-2.349,2.084-5.04,6.1-7.486.018-.485.031-.937.031-1.312,0-2.065-.485-2.584-1.882-2.584-1.852,0-4.39,2.062-6.321,4.478-1.031,1.293-1.971,2.687-2.922,2.687a1.536,1.536,0,0,1-1.293-1.7c0-1.187,2.608-3.249,3.584-4.387a33.983,33.983,0,0,0,4.591-7.123,19.193,19.193,0,0,1-4.185.07c-1.907-.259-2.956-2.053-3.179-3.777-.085-.644.5-.891.967-.473a6.786,6.786,0,0,0,3.038,1.8,13.747,13.747,0,0,0,4.42.015c1.394-3.365,1.144-3.792-.436-4.658-.595-.323-.54-.9.1-1.1a5.332,5.332,0,0,1,1.632-.244,4.928,4.928,0,0,1,2.48.726Zm2.63,15.924c1.766-.753,4.4-1.821,6.943-3.066,2.6-1.275,2.358-3.31-.049-3.31C296.354,421.061,293.367,424.121,291.8,427.437Z" transform="translate(-113.15 -408.938)"/><path class="a" d="M286.324,422.917a5.123,5.123,0,1,1,5.122,5.119A5.139,5.139,0,0,1,286.324,422.917Zm8.487,0a3.366,3.366,0,1,0-3.365,3.365A3.354,3.354,0,0,0,294.811,422.917Z" transform="translate(-92.288 -394.574)"/><path class="a" d="M249.852,424.507c.805-1.208,1.83-2.636,2.416-2.636.766,0,3.292,2.306,3.292,3.221,0,.549-.692.875-1.9.875h-6.476c.439.256.766.552.766.879,0,.366-.326.659-1.315.805a24.23,24.23,0,0,1-2.928,7.135,21.86,21.86,0,0,1,8.746,4.829c1.464,1.464,1.025,3.331-.476,3.331a2.974,2.974,0,0,1-1.9-.882,37.952,37.952,0,0,0-7.974-5.155,13.266,13.266,0,0,1-1.245,1.242c-3.4,2.855-8.926,4.612-16.1,5.052-1.135.073-1.135-1.062-.11-1.248,6.22-1.095,11.561-2.669,14.6-5.778l.293-.333a52.756,52.756,0,0,0-6.257-1.678c-.11.216-.22.4-.293.583-.293.805-.915.952-2.047.839-.842-.07-1.171-.473-.879-1.132a78.9,78.9,0,0,0,3.511-8.49H223.51c-.476,0-.805-.146-.805-.729,0-.549.329-.732.805-.732h10.573a52.672,52.672,0,0,0,1.867-6.44.558.558,0,0,1,.659-.476c1.827.293,3.4.988,3.4,1.684,0,.513-.7.769-1.684.769l-1.5,4.463Zm-21.037-7.794v.732c-.11,2.889-1.611,4.865-3.621,4.975a1.413,1.413,0,0,1-1.574-1.388c-.11-1.611,1.867-2.05,2.782-4.063a7.489,7.489,0,0,0,.439-3.368.654.654,0,0,1,1.278-.256,10.51,10.51,0,0,1,.512,1.9h9.109a43.929,43.929,0,0,0-.107-4.5.46.46,0,0,1,.513-.552c.619,0,4.243.11,4.243,1.1,0,.729-.769,1.022-1.9,1.278v2.669h9.585c.659-.693,1.391-1.391,1.794-1.391.622,0,3.145,2.087,3.109,3.221-.037.7-.915.879-1.974,1.208a32.218,32.218,0,0,1-3.368,2.816c-.8.512-1.538-.07-1.1-.839a19.35,19.35,0,0,0,1.684-3.551Zm15,9.255h-7.5c-.805,2.379-1.684,4.905-2.416,6.7,2.416.33,4.792.769,7.1,1.318a20.391,20.391,0,0,0,2.816-7.974Z" transform="translate(-130.54 -410.142)"/><path class="a" d="M239.064,423.567c1.281,5.415-.952,10.061-3.8,10.061a1.563,1.563,0,0,1-1.684-1.647c0-1.644,1.574-2.047,2.6-3.438a7.252,7.252,0,0,0,1.208-4.756A.849.849,0,0,1,239.064,423.567Zm5.085-5.2c2.526,0,4.207.4,4.207,1.242,0,.7-.766,1.065-1.9,1.248-.073,1.827-.11,14.816-.11,15.951,0,1.754.293,2.376,5.488,2.376,4.829,0,5.634-.732,6-1.757a26.39,26.39,0,0,0,.769-3.035.7.7,0,0,1,1.388.073c.04.622.073,1.791.11,2.706.073,1.245.842,1.467.842,2.27,0,.879-1.608,2.453-9.036,2.453-7.5,0-8.307-1.062-8.307-4.426,0-1.467.183-15.332-.217-18.331C243.31,418.588,243.566,418.372,244.149,418.372Zm3.221-7.974c2.523.4,6.147,2.193,6.659,4.573a1.849,1.849,0,0,1-1.428,2.453c-1.245.29-1.977-.991-3.148-2.492a22.264,22.264,0,0,0-2.816-3.145C245.979,411.126,246.236,410.211,247.371,410.4Zm13.974,12.217c2.343,1.135,5.561,4.173,5.451,6.623a1.866,1.866,0,0,1-1.977,2.05c-1.315-.037-1.681-1.574-2.45-3.478a28.581,28.581,0,0,0-2.083-4.1C259.844,422.944,260.32,422.105,261.345,422.615Z" transform="translate(-108.248 -409.787)"/></g></g></svg>