<svg xmlns="http://www.w3.org/2000/svg" width="118.565" height="110.223" viewBox="0 0 118.565 110.223"><defs><style>.a{fill:#ffd840;}.b{fill:#fff;}.c{fill:#1a1a1a;font-size:13px;font-family:Rajdhani-Bold, Rajdhani;font-weight:700;letter-spacing:0.025em;}.d{font-size:20px;}.e{font-size:17px;}</style></defs><g transform="matrix(0.966, -0.259, 0.259, 0.966, -350.85, -712.791)"><g transform="translate(148 803.235)"><path class="a" d="M83.632,129.067c-31.134-.295-40.356-27.814-31.619-50.553s39-30.028,57.92-25.647,34.349,18.192,32.3,39.176c-2.034,20.946-14.593,35.29-36.339,37.66S83.632,129.067,83.632,129.067Z" transform="translate(-42.052 -47.083)"/><path class="b" d="M89.555,128.655c-31.134-.295-46.279-27.4-37.543-50.141s39-30.028,57.92-25.647,34.933,20.113,32.887,41.1c-2.034,20.946-16.821,33.18-38.566,35.55a.7.7,0,0,1-.281-.026h0a1.53,1.53,0,0,0-1.842.884,51.618,51.618,0,0,0-2.2,7.123c-1.842-2.754-3.8-6.162-5.628-8.916Z" transform="translate(-44.996 -47.802)"/><path d="M112.8,73.018a41.76,41.76,0,0,0,1.847-6.032c.1-.52.218-1.052.321-1.571s.18-1.065.257-1.6c.051-.266.077-.532.115-.811s.064-.545.1-.811.064-.545.09-.811.038-.545.064-.824a36.5,36.5,0,0,0-.115-6.691,34.836,34.836,0,0,0-1.424-6.64,36.713,36.713,0,0,0-6.53-11.938,41.1,41.1,0,0,0-4.67-4.854,43.724,43.724,0,0,0-5.273-3.979,49.412,49.412,0,0,0-16.934-6.894c-.231-.051-.462-.089-.693-.139l-.693-.114c-.462-.076-.911-.152-1.36-.215-.9-.1-1.783-.241-2.656-.291a61.094,61.094,0,0,0-9.48-.063,66.378,66.378,0,0,0-7.171.925,64.25,64.25,0,0,0-8.9,2.319,56.249,56.249,0,0,0-7.518,3.168,49.028,49.028,0,0,0-6.53,4.017,40.98,40.98,0,0,0-5.8,5.094,36.492,36.492,0,0,0-4.965,6.653,35.725,35.725,0,0,0-3.6,8.681c-.051.2-.115.406-.167.608s-.09.418-.141.634c-.09.418-.192.849-.282,1.28a5.438,5.438,0,0,0-.115.659c-.038.215-.064.444-.1.659-.064.444-.154.9-.205,1.356s-.09.925-.128,1.394c-.026.228-.051.469-.064.71s-.013.482-.026.722c-.013.482-.026.963-.051,1.457.013.494.026.988.038,1.5.013.253.013.507.026.76s.051.507.064.76c.051.507.077,1.039.154,1.559s.154,1.052.244,1.584c.026.139.038.266.064.406s.051.266.09.406c.051.266.115.532.167.811s.115.545.18.811.141.545.218.811c.154.545.3,1.1.475,1.647s.385,1.1.577,1.66.449,1.1.68,1.673c.192.507.5,1.115.834,1.825.308.722.757,1.5,1.232,2.357.064.114.115.215.18.329s.128.215.205.329c.141.215.269.444.411.672.282.456.564.938.911,1.394s.667.95,1.026,1.445c.385.469.77.963,1.18,1.457a38.139,38.139,0,0,0,5.914,5.589,37.527,37.527,0,0,0,7.325,4.359,43.805,43.805,0,0,0,7.543,2.547c.6.139,1.193.241,1.758.342s1.129.215,1.668.266,1.052.127,1.552.177c.244.025.487.063.731.076s.475.025.693.025c.449.013.872.038,1.27.038s.77.025,1.116,0a15.264,15.264,0,0,0,1.681-.165c.86-.139,1.155-.342.783-.634-1.013-.8-4.182-1.153-8.275-2.154-.513-.127-1.039-.266-1.578-.406-.269-.076-.552-.127-.821-.215s-.552-.165-.834-.253-.564-.165-.847-.253-.577-.165-.86-.266c-.577-.2-1.155-.406-1.745-.608a45.624,45.624,0,0,1-7-3.32l-.847-.52a9.283,9.283,0,0,1-.834-.532c-.539-.38-1.078-.748-1.616-1.128-.513-.406-1.026-.811-1.539-1.2s-.962-.849-1.45-1.267a37.2,37.2,0,0,1-4.759-5.3c-.308-.444-.616-.887-.911-1.305-.154-.2-.282-.431-.411-.634s-.257-.418-.385-.621c-.513-.8-.9-1.6-1.27-2.281a27.455,27.455,0,0,1-1.347-3.143c-.115-.342-.244-.735-.4-1.153-.115-.431-.257-.912-.4-1.419s-.257-1.064-.385-1.66q-.1-.437-.192-.912c-.051-.317-.1-.634-.154-.963a35.3,35.3,0,0,1-.18-9.34,6.222,6.222,0,0,1,.09-.659c.038-.215.064-.444.1-.659s.064-.444.1-.672.064-.444.115-.672c.205-.887.372-1.8.654-2.7.128-.456.257-.912.4-1.369s.321-.9.487-1.356c.077-.228.154-.456.244-.684s.192-.444.282-.672c.192-.444.385-.9.577-1.343.218-.444.449-.874.667-1.318.115-.215.218-.444.346-.659l.385-.646.385-.646a6.558,6.558,0,0,1,.4-.634l.847-1.242a35.777,35.777,0,0,1,3.861-4.562l.526-.532.552-.507c.359-.329.731-.659,1.09-.988.385-.317.757-.621,1.129-.925.192-.152.372-.317.564-.456s.385-.291.577-.431c.385-.279.77-.57,1.155-.849s.783-.52,1.18-.786c.192-.127.385-.266.59-.38s.4-.241.59-.355c.4-.241.783-.469,1.167-.7a54.482,54.482,0,0,1,8.89-3.992c.334-.114.654-.228.975-.342s.641-.2.949-.291c.616-.19,1.193-.38,1.745-.52s1.065-.279,1.539-.406.911-.215,1.309-.3c.783-.19,1.411-.3,1.835-.393s.641-.127.641-.127l.192-.038c.128-.025.308-.063.552-.1.487-.076,1.206-.2,2.13-.329a62.481,62.481,0,0,1,7.813-.583c.411-.013.834,0,1.257,0s.86,0,1.309.025c.885.038,1.809.076,2.758.165.949.063,1.924.2,2.925.317.5.076,1,.165,1.514.241s1.013.2,1.539.3a48.281,48.281,0,0,1,12.662,4.676,42.85,42.85,0,0,1,11.264,8.731,37.273,37.273,0,0,1,4.221,5.589,33.807,33.807,0,0,1,2.925,6.02,32.758,32.758,0,0,1,2.053,11.583c-.013.431-.013.862-.026,1.28s-.051.824-.077,1.229-.038.8-.1,1.179-.09.76-.128,1.115c-.026.177-.038.355-.064.532s-.051.342-.09.52c-.051.342-.1.672-.167.988-.1.634-.244,1.229-.346,1.774a35.817,35.817,0,0,1-3.541,9.492,30.64,30.64,0,0,1-2.617,4.017c-.115.152-.231.317-.346.469s-.244.3-.372.444c-.244.291-.488.6-.744.887-.526.558-1.013,1.128-1.565,1.647a34.161,34.161,0,0,1-3.284,2.864c-.577.418-1.116.849-1.693,1.217l-.847.57c-.282.177-.577.355-.86.52a43.445,43.445,0,0,1-6.645,3.27,87.369,87.369,0,0,1-10.443,3.181c-2.566.672-4.105,1.179-4.272,1.85-.051.2.167.329.629.393a5.986,5.986,0,0,0,.911.051c.18,0,.385,0,.6-.013s.449-.025.693-.051A43.053,43.053,0,0,0,87.4,95.474a47.864,47.864,0,0,0,6.26-2.458,42.9,42.9,0,0,0,6.979-4.182l.885-.684c.154-.114.3-.228.449-.342s.3-.241.436-.368c.3-.253.577-.494.885-.748l.86-.811c.141-.139.3-.279.436-.406s.282-.291.423-.431l.847-.874c.539-.621,1.1-1.229,1.616-1.9.539-.646,1.026-1.356,1.539-2.066.475-.735.975-1.47,1.411-2.256A38.381,38.381,0,0,0,112.8,73.018Z" transform="translate(-20 -18.587)"/><path d="M358.93,601.36c-1.385-2.085-3.28-4.913-3.951-5.9-1.108-1.662-1.516-2.26-3.149-4.709-.364-.554-.816-4.009-2.77-2.435-2.624,2.129,1.021,3.31,1.268,3.659.51.773,3.033,4.549,3.033,4.549s2.9,4.33,3.674,5.511c1.225,1.837.816,4.2,3.266,2.639C361.788,603.736,360.2,603.27,358.93,601.36Z" transform="translate(-306.462 -516.751)"/><path d="M411.509,613.436c.277-1.064.627-2.333.991-3.426s.7-2.056.889-2.551c.306-.831.539-1.385.8-2.041s.6-1.4,1.152-2.566c.131-.262.846-.846,1.239-1.458s.5-1.283-.656-1.793c-1.531-.685-2.129-.117-2.333.656a13.1,13.1,0,0,0-.087,1.924c-.087.19-.262.569-.481,1.035s-.452,1.006-.671,1.545c-.437,1.05-.8,2.027-.8,2.027s-.423,1.108-.846,2.406-.831,2.741-.991,3.368a6.039,6.039,0,0,1-.554,1.327,6.2,6.2,0,0,0-.5,1.079c-.19.641.044,1.108,1.458,1.414C411.859,616.731,411.013,615.419,411.509,613.436Z" transform="translate(-358.962 -526.481)"/></g><text class="c" transform="matrix(0.998, -0.07, 0.07, 0.998, 196.312, 838.39)"><tspan x="-19.838" y="0">TELMIC</tspan><tspan class="d" y="0"></tspan><tspan class="e"><tspan x="-39.287" y="15">PRESIDENT</tspan></tspan></text></g></svg>