<svg xmlns="http://www.w3.org/2000/svg" viewBox="0 0 828.84 516.71"><defs><style>.cls-1{fill:#fff;}.cls-2{fill:#ff0;}.cls-3,.cls-4,.cls-5,.cls-6,.cls-7{fill:none;}.cls-4{stroke:#dfff00;}.cls-4,.cls-5,.cls-6,.cls-7{stroke-miterlimit:10;}.cls-5{stroke:aqua;}.cls-6{stroke:#c415ff;}.cls-7{stroke:#ffe652;}</style></defs><title>Asset 1</title><g id="Layer_2" data-name="Layer 2"><g id="contents_pt2"><path class="cls-1" d="M485.59,65.51c1.07-.16,2.9-.48,4.64-.79Z"/><path class="cls-1" d="M490.27,64.72h0Z"/><path class="cls-1" d="M574.53,49.93l.26-.08c4.12-.73,1.2-.17,5-.85,1.48-.32,6.34-1.11,7.65-1.38,0,0,1.84-.32,1.72-.28.57-.13,1.92-.34,3.1-.56.43-.08-.31,0-.63.1l2.69-.49c1.06-.18,1.32-.21.18,0,7.05-1.23,40.92-7.17,48.51-8.53-1,.15-3.32.58-4.22.7,2-.37,3-.51,3.84-.69s4.42-.77,6-1l.57-.13,1-.16c8.83-1.59,2-.37,9.85-1.75,4.53-.8,6.68-1.22,9.21-1.65-.38.06-1.38.22-.21,0,.21,0,3.12-.57,3.7-.65,1.15-.2,4.88-.86,3.61-.67.63-.09,4-.67,2-.31l3-.53-1.44.24c3.78-.67,5.85-1,8.31-1.47l-1.4.23c2.26-.4,4.16-.74,5.05-.86l-2.32.42c3.76-.66,6-1.06,9.15-1.64l-1.12.2c4-.74,24.83-4.45,28.5-5.14l-1.7.27,3.16-.58c-.37.06-1.51.36-1.82.4,6.77-1.19,42-7.42,48.24-8.51,2.52-.43.46,0,.43,0,3.07-.55,1.32-.27,3.93-.72.71-.12-.14,0-.54.12,1.14-.21,2.2-.38,2.29-.41a10,10,0,0,1-1.44.18l3.35-.59-.14.05c.75-.13,1.89-.39,5.19-1l17.2-3c-.08,0-1.25.24-2.43.46.75-.13,1.89-.34,2.59-.45-1.36.21,2.34-.43,1.28-.25,4.09-.78,9.4-1.67,13-2.34.3-.11,7.59-2.2,7.58-2.26l2.59-.45-3.67.63-.2.07c-2.7.49-.64.09-3.27.56-.15,0,2.28-.43,4.41-.81-1.92.33-3.84.65-4.62.82-1.81.31.2-.07-2,.31-1.55.28-3.58.66-5.37,1h0c-4.33.74-6.61,1.21-10.58,1.88l.43-.09c-1.4.24-4.15.74-6.68,1.17.72-.12,1.35-.21-.16.06-2.91.49-4.88.86-7,1.21l-2,.39c-10.1,1.77-50,8.84-60.13,10.64l.39-.08C713,24.39,681.21,30,665.24,32.83l-8.46,1.47c1.44-.24,1-.14-.17.06-7.86,1.38-.53.11-8.47,1.52C639,37.51,604,43.66,595.86,45.07c-4.35.81-9.8,1.74-14.07,2.52l.43-.09c-4.59.82-30.57,5.37-35.91,6.33l.72-.13c-4.64.85-4,.7-7.69,1.33.49,0-3.49.68-5,.95l.06,0-11.26,2,.14,0c-3.15.58-9.09,1.62-11.36,2-5.19.9-13.2,2.28-20.13,3.53l-4.49.73-.66.12s-7.08,2,2.11.58l-.14,0,1.81-.32c2.18-.38,3.18-.58,3-.53l-3,.52c2.19-.38.67-.1-.17.06l2.53-.43c.43-.08-.32,0-.66.1,1.17-.21,2.81-.52,4.24-.76,2.24-.4.15,0,2.76-.45,13.76-2.41,27.1-4.74,41-7.2.32,0,0,0-.46.1,4.19-.75,7.92-1.4,11.73-2.09l1.67-.26C552.48,53.82,574.18,50,574.53,49.93Z"/><path class="cls-1" d="M484.89,61.57c1.07-.16,2.91-.48,4.65-.79C488.2,61,486.77,61.24,484.89,61.57Z"/><path class="cls-1" d="M489.57,60.78h0Z"/><path class="cls-1" d="M573.83,46l.26-.08c4.13-.73,1.21-.17,5-.85,1.49-.32,6.34-1.11,7.66-1.38,0,0,1.83-.31,1.72-.28.57-.13,1.92-.34,3.1-.56.42-.08-.32,0-.64.1l2.7-.49c1.05-.18,1.32-.2.17,0,7.06-1.23,40.92-7.17,48.52-8.53-1,.15-3.32.58-4.22.7,2-.37,3-.51,3.84-.69s4.42-.77,5.95-1l.57-.13,1-.16c8.83-1.59,2-.37,9.85-1.75,4.53-.8,6.68-1.22,9.2-1.65-.37.07-1.38.22-.2,0,.2,0,3.12-.57,3.69-.65,1.15-.2,4.88-.86,3.61-.67.64-.09,4-.67,2-.31l3-.53-1.44.24c3.79-.67,5.86-1,8.32-1.47l-1.4.23c2.26-.4,4.15-.74,5-.86l-2.32.42c3.75-.66,6-1.06,9.14-1.64l-1.12.2c4-.74,24.84-4.45,28.51-5.14l-1.7.27,3.15-.58c-.37.06-1.5.36-1.82.41,6.77-1.2,42-7.43,48.24-8.52,2.53-.43.46,0,.44,0,3.06-.55,1.32-.27,3.93-.72.71-.12-.15,0-.55.12,1.15-.21,2.21-.38,2.29-.41a10,10,0,0,1-1.44.18l3.36-.59-.15,0c.75-.13,1.89-.39,5.19-1,5.57-1,11.61-2.05,17.21-3-.08,0-1.26.24-2.43.46.75-.13,1.89-.34,2.58-.45-1.35.22,2.35-.43,1.29-.25,4.09-.78,9.4-1.67,13-2.34.31-.1,7.6-2.2,7.59-2.26L828.15,0c-.3,0-2.51.42-3.68.64l-.2.06c-2.69.49-.63.09-3.27.56-.14,0,2.28-.43,4.42-.81-1.92.33-3.84.65-4.62.82-1.81.31.19-.07-2,.31-1.54.28-3.58.66-5.36,1h0c-4.33.74-6.62,1.21-10.58,1.88l.42-.08c-1.4.23-4.15.73-6.67,1.16.72-.12,1.35-.21-.17.06-2.9.49-4.88.86-7,1.21l-2,.39c-10.1,1.77-50,8.84-60.14,10.64l.4-.08c-15.46,2.74-47.19,8.33-63.16,11.18-2.48.42-5.88,1-8.46,1.47,1.43-.24.94-.14-.18.06-7.85,1.38-.52.11-8.46,1.52-9.15,1.64-44.16,7.78-52.28,9.19-4.36.81-9.81,1.74-14.08,2.52l.43-.09c-4.58.83-30.57,5.37-35.9,6.33l.72-.13c-4.65.85-4,.7-7.69,1.33.49,0-3.49.68-5,.95l.05,0c-2.29.41-7.47,1.37-11.26,2l.15-.05c-3.16.58-9.09,1.62-11.36,2-5.19.91-13.2,2.28-20.13,3.53l-4.5.73-.65.12s-7.09,2,2.11.58l-.15,0,1.82-.32c2.17-.38,3.17-.58,3-.53l-3,.52c2.18-.38.66-.1-.17.06l2.53-.43c.42-.08-.32,0-.66.1,1.17-.21,2.8-.52,4.23-.76,2.24-.4.15,0,2.76-.45,13.77-2.41,27.11-4.74,41-7.19.32,0-.06,0-.46.09l11.73-2.08,1.67-.27C551.78,49.88,573.49,46.05,573.83,46Z"/><path class="cls-1" d="M403.31,445.94c.55-.08,1.5-.25,2.39-.4C405,445.64,404.28,445.77,403.31,445.94Z"/><path class="cls-1" d="M405.72,445.54h0Z"/><path class="cls-1" d="M579.14,414.16l-.74.13Z"/><path class="cls-1" d="M449.06,438l.13-.06c2.12-.37.62-.07,2.58-.42.76-.18,3.26-.57,3.94-.72,0,0,.94-.16.89-.13.29-.08,1-.18,1.59-.3l-.33.05,1.39-.26c.54-.08.68-.09.09,0,3.63-.63,21-3.68,25-4.38-.5.07-1.71.3-2.17.35,1-.2,1.52-.26,2-.36s2.27-.39,3.06-.49l.3-.07.51-.08c4.54-.82,1-.19,5.07-.9,2.33-.41,3.43-.64,4.73-.86-.19,0-.71.12-.11,0,.11,0,1.61-.29,1.9-.33.6-.1,2.51-.44,1.86-.35.33,0,2-.34,1-.15l1.55-.27-.74.12c1.95-.35,3-.52,4.28-.76l-.72.11c1.16-.2,2.13-.38,2.59-.43l-1.19.22c1.93-.34,3.1-.55,4.7-.85l-.57.1c2-.39,12.77-2.3,14.65-2.66l-.87.13,1.62-.31c-.19,0-.77.21-.93.23l24.81-4.38c1.3-.22.23,0,.22,0,1.58-.29.68-.14,2-.38.37-.06-.07,0-.28.07.59-.11,1.14-.19,1.18-.21a4.48,4.48,0,0,1-.74.08l1.72-.3-.07,0c.38-.07,1-.22,2.67-.51l8.85-1.56s-.65.13-1.26.25c.39-.07,1-.18,1.33-.23-.69.1,1.21-.23.67-.14,2.1-.41,4.83-.85,6.69-1.21.15-.06,3.87-1.3,3.87-1.34l1.33-.23c-.15,0-1.29.21-1.89.32l-.1,0c-1.39.25-.33.05-1.69.29-.07,0,1.18-.23,2.27-.43-1,.17-2,.33-2.37.43-.93.15.1,0-1,.14-.8.15-1.84.35-2.76.5h0c-2.23.37-3.4.63-5.44,1l.22-.05-3.43.6c.37-.06.69-.11-.09,0-1.49.26-2.51.45-3.6.62l-1,.21L528,423.22l.2,0c-7.94,1.41-24.26,4.28-32.48,5.76-1.27.2-3,.52-4.35.75.74-.13.49-.07-.09,0-4,.71-.27.06-4.35.79-4.7.84-22.71,4-26.89,4.72-2.24.42-5,.9-7.23,1.3l.22,0c-2.36.42-15.73,2.75-18.47,3.25l.37-.06c-2.39.43-2.07.35-3.95.67.25,0-1.8.36-2.58.5h0l-5.79,1.06.07,0c-1.62.3-4.67.83-5.84,1-2.67.47-6.79,1.16-10.35,1.81l-2.32.36-.33.07s-3.62,1.2,1.11.49l-.07,0,.93-.16c1.12-.19,1.64-.3,1.56-.27l-1.53.27c1.13-.2.34-.05-.08,0l1.29-.22-.33.05c.6-.11,1.44-.27,2.17-.39,1.15-.21.08,0,1.42-.23,7.08-1.23,13.95-2.42,21.1-3.69.16,0,0,0-.24.05l6-1.07.85-.13C437.72,439.94,448.88,438,449.06,438Z"/><path class="cls-1" d="M402.62,442c.55-.08,1.49-.24,2.39-.4Z"/><path class="cls-1" d="M405,441.6h0Z"/><path class="cls-1" d="M578.45,410.22l-.74.13Z"/><path class="cls-1" d="M448.36,434l.13-.05c2.13-.38.63-.08,2.59-.43.76-.18,3.26-.57,3.93-.72,0,0,.95-.16.89-.13.29-.08,1-.18,1.59-.3l-.32.05,1.38-.25c.55-.09.68-.1.09,0,3.63-.63,21.05-3.68,25-4.38-.51.07-1.71.3-2.18.35,1-.19,1.53-.26,2-.36s2.27-.39,3.06-.49l.29-.07.52-.08c4.54-.82,1-.19,5.06-.9,2.33-.41,3.43-.64,4.73-.85-.19,0-.71.11-.1,0,.1,0,1.6-.29,1.9-.33.59-.1,2.51-.44,1.85-.35.33,0,2-.34,1-.15l1.55-.27-.74.12c1.94-.35,3-.51,4.27-.76l-.72.11c1.16-.2,2.14-.38,2.6-.43l-1.19.22,4.7-.85-.58.1c2-.39,12.77-2.3,14.66-2.66l-.88.13L527,420c-.2,0-.78.2-.94.22l24.81-4.38c1.3-.21.24,0,.23,0,1.57-.29.67-.14,2-.38.36-.06-.08,0-.28.07.59-.1,1.13-.19,1.18-.21a4.45,4.45,0,0,1-.75.08l1.73-.3-.08,0c.39-.07,1-.22,2.67-.51l8.85-1.55-1.25.24c.39-.07,1-.18,1.33-.23-.7.1,1.21-.23.66-.14,2.1-.41,4.84-.85,6.69-1.21.16-.06,3.88-1.3,3.87-1.34l1.33-.23c-.15,0-1.28.21-1.89.32l-.1,0c-1.38.26-.33.05-1.68.29-.08,0,1.17-.23,2.27-.43-1,.17-2,.34-2.38.43-.93.15.1,0-1,.15-.79.14-1.84.34-2.76.49h0c-2.23.37-3.4.63-5.44,1l.22-.05-3.44.6c.37-.06.7-.1-.08,0-1.5.26-2.51.45-3.61.63l-1,.2-30.92,5.48.2,0c-8,1.41-24.27,4.28-32.48,5.76-1.28.2-3,.52-4.35.75.73-.13.48-.07-.09,0-4,.71-.27.06-4.36.79-4.7.85-22.7,4-26.88,4.72-2.24.42-5,.9-7.24,1.3l.22,0c-2.36.42-15.72,2.75-18.46,3.25l.37-.06c-2.39.43-2.07.35-4,.67.25,0-1.79.37-2.57.51l0,0L421.89,438l.08,0c-1.62.3-4.68.83-5.84,1-2.67.47-6.79,1.16-10.36,1.81l-2.31.37-.34.06s-3.61,1.2,1.12.49l-.07,0,.93-.17c1.12-.19,1.63-.3,1.56-.27l-1.53.27c1.12-.2.34-.05-.09,0l1.3-.23-.34.05c.6-.11,1.44-.27,2.18-.39,1.15-.2.08,0,1.42-.23,7.08-1.23,13.94-2.42,21.1-3.69.16,0,0,0-.24.05l6-1.07.86-.13Z"/><path class="cls-1" d="M177.34,485l-.74.13Z"/><path class="cls-1" d="M47.26,508.8l.13-.06c2.12-.37.62-.07,2.58-.43.76-.17,3.26-.57,3.94-.71,0,0,.94-.16.88-.14.29-.07,1-.18,1.6-.29l-.33.05,1.38-.26c.55-.09.68-.1.1,0,3.62-.63,21-3.68,24.95-4.38-.51.07-1.71.29-2.17.35,1-.2,1.52-.26,2-.36s2.27-.39,3.06-.49l.29-.07.52-.08c4.54-.82,1-.19,5.06-.9,2.34-.41,3.44-.64,4.74-.86-.2,0-.71.11-.11,0,.11,0,1.61-.3,1.9-.33.59-.1,2.51-.44,1.86-.35.33-.05,2-.34,1-.15l1.55-.28-.74.13c2-.35,3-.52,4.28-.76l-.73.11c1.17-.2,2.14-.38,2.6-.43l-1.19.22,4.7-.85-.57.1c2-.39,12.77-2.3,14.65-2.67l-.87.14,1.62-.31c-.19,0-.77.21-.94.23,3.49-.62,21.6-3.83,24.81-4.38,1.3-.22.24,0,.23,0,1.58-.29.68-.14,2-.38.37-.06-.07,0-.28.07l1.18-.21a4.45,4.45,0,0,1-.75.08l1.73-.31-.07,0c.38-.06,1-.21,2.66-.5l8.85-1.56s-.64.13-1.25.24l1.33-.22c-.69.1,1.21-.23.66-.14,2.11-.41,4.84-.86,6.69-1.21.16-.06,3.88-1.3,3.88-1.34.57-.11,1.15-.21,1.33-.23-.16,0-1.29.21-1.89.32l-.1,0c-1.39.25-.33,0-1.69.29-.07,0,1.17-.23,2.27-.43-1,.17-2,.33-2.37.42-.93.16.1,0-1,.15-.79.15-1.84.35-2.75.5h0c-2.23.37-3.4.62-5.44,1l.22,0-3.44.6c.38-.06.7-.11-.08,0-1.49.25-2.51.45-3.6.62l-1.05.21-30.92,5.47.2,0c-7.95,1.41-24.27,4.28-32.48,5.76-1.27.2-3,.52-4.35.74.74-.12.49-.06-.09,0-4,.71-.27.06-4.35.79-4.7.84-22.71,4-26.89,4.72-2.24.42-5,.9-7.24,1.3l.22-.05c-2.35.43-15.72,2.76-18.46,3.26l.37-.07c-2.39.44-2.07.36-4,.68.26,0-1.79.36-2.57.5h0l-5.79,1.06.07,0c-1.62.3-4.67.83-5.84,1-2.67.46-6.79,1.16-10.35,1.81l-2.32.36L2,516s-3.62,1.2,1.11.48l-.07,0,.93-.16c1.12-.19,1.64-.3,1.56-.27L4,516.35c1.12-.2.34-.05-.09,0l1.3-.22-.34.05,2.18-.4c1.15-.2.08,0,1.42-.22,7.08-1.23,13.94-2.42,21.1-3.69.16,0,0,0-.24.05l6-1.07.86-.13C35.92,510.79,47.08,508.82,47.26,508.8Z"/><path class="cls-1" d="M176.64,481.07l-.73.13Z"/><path class="cls-1" d="M46.56,504.86l.13-.06c2.12-.37.63-.07,2.59-.43.76-.17,3.26-.57,3.93-.71,0,0,.95-.16.89-.14.29-.07,1-.18,1.59-.29l-.33,0,1.39-.26c.54-.08.68-.1.09,0,3.63-.63,21-3.68,25-4.38-.5.07-1.71.3-2.17.35,1-.2,1.52-.26,2-.36s2.27-.39,3.06-.49l.29-.07.52-.08c4.53-.82,1-.19,5.06-.9,2.33-.41,3.43-.64,4.73-.86-.19,0-.71.11-.1,0,.1,0,1.6-.29,1.9-.33.59-.1,2.51-.44,1.85-.35.33-.05,2-.34,1-.15l1.55-.28-.75.13c2-.35,3-.52,4.28-.76l-.72.11c1.16-.2,2.14-.38,2.6-.43l-1.2.22c1.94-.34,3.1-.55,4.71-.85l-.58.1c2-.39,12.77-2.3,14.66-2.67l-.88.14,1.62-.31c-.19,0-.77.21-.93.23,3.48-.62,21.59-3.83,24.81-4.38,1.3-.22.24,0,.22,0,1.58-.29.68-.14,2-.38.37-.06-.07,0-.27.07l1.17-.21a4.39,4.39,0,0,1-.74.08l1.73-.3-.08,0c.39-.07,1-.22,2.67-.51l8.85-1.56s-.65.13-1.25.25c.38-.07,1-.18,1.33-.23-.7.1,1.2-.23.66-.14,2.1-.41,4.83-.86,6.69-1.21.16-.06,3.88-1.3,3.87-1.34.58-.11,1.15-.21,1.33-.23-.15,0-1.29.21-1.89.32l-.1,0c-1.39.25-.33.05-1.68.29-.08,0,1.17-.23,2.27-.43-1,.17-2,.33-2.38.42-.93.16.1,0-1,.15-.8.15-1.84.35-2.76.5h0c-2.23.37-3.41.63-5.44,1l.21-.05-3.43.6c.37-.06.69-.11-.08,0-1.5.25-2.51.45-3.61.62l-1,.21-30.93,5.47.21,0c-8,1.41-24.27,4.28-32.48,5.76-1.28.2-3,.52-4.36.74.74-.12.49-.06-.08,0-4,.71-.27.06-4.36.79-4.7.84-22.71,4-26.88,4.72-2.24.42-5,.9-7.24,1.3l.22,0c-2.36.42-15.72,2.75-18.47,3.25l.37-.07c-2.39.44-2.06.36-4,.68.25,0-1.79.36-2.58.5h0l-5.79,1.06.08,0c-1.62.3-4.68.83-5.84,1-2.67.46-6.79,1.16-10.36,1.81L1.66,512l-.34.07s-3.61,1.2,1.12.48l-.07,0,.93-.16c1.12-.19,1.63-.3,1.56-.27l-1.53.27c1.12-.2.34,0-.09,0l1.3-.22-.34,0c.6-.11,1.44-.27,2.18-.39,1.15-.21.08,0,1.42-.23,7.08-1.23,13.94-2.42,21.09-3.69.17,0,0,0-.23.05l6-1.07.86-.13C35.22,506.85,46.38,504.88,46.56,504.86Z"/><path class="cls-2" d="M581.32,424.31a1,1,0,0,1-1-.7c-2.37-7.51-4.86-9.37-12.22-9a1,1,0,0,1-1-.82,1,1,0,0,1,.67-1.13c7-2.3,8.67-4.93,8.23-12.78a1,1,0,0,1,2-.36c2.37,7.5,4.89,9.36,12.23,9a1,1,0,0,1,1,.82,1,1,0,0,1-.67,1.13c-7,2.3-8.67,4.93-8.23,12.79a1,1,0,0,1-.81,1Zm-8.69-11.57a9.64,9.64,0,0,1,7.78,5.63,9.69,9.69,0,0,1,5.28-8,9.66,9.66,0,0,1-7.78-5.62A9.64,9.64,0,0,1,572.63,412.74Z"/><path class="cls-1" d="M196.31,474.83l-4.63.82-.41-2.33,12-2.11.41,2.32-4.65.82,2.08,11.77-2.75.49Z"/><path class="cls-1" d="M210.53,469.93l9.48-1.67.41,2.28-6.85,1.21.58,3.28,6.1-1.07.4,2.25-6.1,1.07.7,4,7.29-1.29.4,2.31L213,484Z"/><path class="cls-1" d="M228,466.86l2.75-.49,2.07,11.76,7.1-1.25.41,2.34L230.44,481Z"/><path class="cls-1" d="M244.92,463.87l3.58-.64,4.63,8.44c.24.41.64,1.24.9,1.78.08-.6.14-1.45.23-2l1.58-9.51,3.56-.63,2.49,14.1-2.5.44-1.3-7.91c-.09-.48-.37-2.36-.53-3.72,0,0,0-.06-.07-.05a.09.09,0,0,0-.06.07c-.05.85-.19,2.32-.27,2.81l-1.38,9-2.5.44-4.43-8.1c-.17-.32-.71-1.52-1.1-2.41a.06.06,0,0,0-.08-.05s0,0,0,.08c.23.89.71,3.12.8,3.6l1.47,7.95-2.5.44Z"/><path class="cls-1" d="M267.6,459.87l2.75-.49,2.49,14.1-2.75.48Z"/><path class="cls-1" d="M293,464.88c0,4.16-2.69,5.81-5.42,6.29-4.61.82-7.51-2.24-8.18-6-.62-3.55.93-7.81,5.56-8.62,2.8-.5,6.13.56,7.15,4l-2.84.5a3.25,3.25,0,0,0-3.85-2.13c-2.6.46-3.72,3-3.24,5.76s2.26,4.61,4.95,4.14a3.27,3.27,0,0,0,3-3.37Z"/><path class="cls-1" d="M298.82,454.78l2.72-.48-.1-.53a9.55,9.55,0,0,0-.23-1c.12,0,1.92-.28,2.32-.3.2,0,.3.06.32.15s-.12.26-.45.37a4.92,4.92,0,0,0,.06.55l.08.43,2.61-.46.28,1.63-7.32,1.29Zm.35,4,1.89-.34a9.87,9.87,0,0,0-1.05-1.69l1.64-.68a15,15,0,0,1,1.22,2.05l.73-.12a15,15,0,0,0,.12-2.31s1.7,0,2.09,0c.15,0,.28.1.29.17s-.13.24-.56.34c0,.3-.12.9-.22,1.46l1.77-.31.28,1.58-7.93,1.4Zm4.68,8.2c0-.16-.16-1.32-.29-2.34a10.61,10.61,0,0,1-1.57,3s0,0-.08,0a9.2,9.2,0,0,0-2-.73,11.28,11.28,0,0,0,2.73-3.9l-2.49.51-.29-1.67,3-.52,0-.25s-.17-.83-.24-1c.45-.08,1.54-.21,2.14-.25.21,0,.35,0,.37.14s-.13.24-.45.35c0,.09.06.58.06.58l0,.1,2.82-.49.29,1.66-2.38.35a11.2,11.2,0,0,0,2.64,1.62,5.53,5.53,0,0,0-1.32,1.24s-.06.08-.07.08a8.4,8.4,0,0,1-1.54-1.37c.26,1.07.58,2.46.6,2.62l.32,1.77-1.94.34Zm7.69-8.63-1.61.29c.52,3,.89,6.31-1.18,9,0,0-.06.09-.1.09s-.06,0-.09,0a13.09,13.09,0,0,0-2.34-.37c2.57-2.34,2.37-5.15,1.88-7.92-.1-.55-.21-1.1-.31-1.65-.39-2.09-1-4.66-1-4.66l1.84,0a13.59,13.59,0,0,0,3.66-2.25s1.41,1,1.82,1.36a.52.52,0,0,1,.19.28c0,.1,0,.17-.18.19a1,1,0,0,1-.51-.05,43.26,43.26,0,0,1-4.44,2.19c.12.58.24,1.25.37,1.91l5.64-1,.34,1.88-2,.36,1.57,8.9-2,.35Z"/><path class="cls-1" d="M322.29,450.84l6.24-1.1-.18-1.06s-.12-.55-.21-.84c2.43-.32,2.84-.37,2.88-.14s-.18.3-.52.44c0,.14,0,.36.05.48l.11.75,6.4-1.13.33,1.84-14.77,2.61Zm.87,8.37L330,458c-.07-.29-.15-.76-.24-1,.13,0,2-.24,2.39-.25.2,0,.32,0,.34.16s-.1.25-.43.38c0,.09,0,.24.05.36l6.88-1.21.33,1.9-6.9,1.21.76,4.28-2.09.36-.76-4.27-6.84,1.21Zm2.94-7s1.6,0,2,.07.37.1.38.17-.11.21-.44.28c0,0,0,.32-.15.81a7.2,7.2,0,0,0,2.9,1.47,13.65,13.65,0,0,0-1.38,1.48c0,.05,0,.07-.08.07a6,6,0,0,1-2-1.26,8,8,0,0,1-1.77,3.09s-.06,0-.1,0a17.11,17.11,0,0,0-2.06-.49A8.25,8.25,0,0,0,326.1,452.24Zm6.22,4.39a.24.24,0,0,1-.11,0,13.32,13.32,0,0,0-2-.39,7.42,7.42,0,0,0,2.09-5.05s1.36,0,2,.07c.22,0,.34.08.35.15s-.12.21-.48.29a8,8,0,0,1-.13,1,9.07,9.07,0,0,0,4.2,2.06,10,10,0,0,0-1.62,1.58s-.05.07-.07.07a9.29,9.29,0,0,1-3-1.82A6.65,6.65,0,0,1,332.32,456.63Z"/><path class="cls-1" d="M348.1,454.89c-.3.18-.59.36-.91.52a.43.43,0,0,0,0,.11c0,.25,0,.37-.14.39a.32.32,0,0,1-.26-.16c-.39-.55-1.17-1.86-1.17-1.86.75-.31,1.46-.65,2.11-1l-.52-2.94-1.79.31-.31-1.77,1.79-.32-.4-2.25s-.11-.6-.27-1.23c0,0,1.55-.2,2.19-.24.25,0,.37,0,.39.15s-.14.26-.41.37c0,.32.08.68.08.68l.39,2.18,1.5-.27.32,1.77-1.51.27.39,2.23a13.56,13.56,0,0,0,1.48-1s.06.56.15,1.07c0,.09,0,.16,0,.25l3.82-.67,0-.14s-.11-.63-.26-1.17c0,0,1.6-.24,2.22-.26.22,0,.36.05.37.14s-.12.26-.42.4c0,.25.06.56.07.68l4.69-.83.34,1.88s-2.34.34-4.14.62a13.32,13.32,0,0,0,5.66,2.85,11.19,11.19,0,0,0-1.63,1.76s0,.07-.07.07a12.44,12.44,0,0,1-4.37-3c.27,1.07.56,2.33.62,2.65l.36,2.06-2,.35-.38-2.11c-.07-.4-.21-1.49-.32-2.46a10.8,10.8,0,0,1-3.23,4.39.1.1,0,0,1-.08,0,6.76,6.76,0,0,0-1.68-.79c0,1.39-.93,2.05-2.33,2.3l-.23,0c-.11,0-.16,0-.2-.07a8,8,0,0,0-1.36-1.83c.39,0,.85,0,1.24-.09s.85-.28.77-.74Zm10.59-12.13s1.1.87,1.53,1.23a.4.4,0,0,1,.15.23c0,.11,0,.19-.18.22a1.34,1.34,0,0,1-.55-.09,69.67,69.67,0,0,1-8.68,2.59c-.11,0-.18,0-.23-.05a10.28,10.28,0,0,0-1.62-1.41A45,45,0,0,0,358.69,442.76Zm-7.92,15.42a13.11,13.11,0,0,0,4.05-4.79c-1.59.32-3.49.73-3.49.73l-.21-1.19c-.35.22-.75.51-1.19.81l.47,2.66c.15.87.31,1.5.34,1.62Zm1.56-11a13,13,0,0,1,2,2.75l-1.77.82a10.17,10.17,0,0,0-2-2.86Zm3.24-1a13.26,13.26,0,0,1,1.63,2.8l-1.8.77a12.09,12.09,0,0,0-1.57-3Zm2.86-1a17,17,0,0,1,2.05.29c.25.09.36.18.37.25s-.13.2-.37.25l-.11,0a30,30,0,0,1-1.36,3.71l-.09,0a7.53,7.53,0,0,0-1.87,0A14.77,14.77,0,0,0,358.43,445.17Z"/><path class="cls-1" d="M376.75,450.44l-3.52.62a12.66,12.66,0,0,1-.79,5.53s0,0-.05.05h-.06a11.44,11.44,0,0,0-2.39-.07c1.61-2.52,1.27-6.31.8-8.94-.22-1.28-1-5.3-1.24-6.22l13.21-2.33,1.91,10.82c.16.89.31,1.57.35,1.79a.35.35,0,0,1,0,.07c.38,2.14-1.12,2.88-2.89,3.19-.21,0-.44.08-.66.1a.11.11,0,0,1-.11,0,10.5,10.5,0,0,0-1.62-1.89,16.16,16.16,0,0,0,1.93-.16c.94-.17,1.32-.49,1.2-1.2l-.41-2.32-3.62.64.88,5-2.06.36Zm-1.05-5.94-.4-2.24-3.33.59c.11.62.27,1.34.43,2.23Zm.73,4.13-.42-2.34-3.28.58,0,.12c.13.71.24,1.46.32,2.23Zm5-5.13-.39-2.24-3.64.64.39,2.24Zm.71,4.13-.39-2.34-3.64.64.41,2.34Z"/><polygon class="cls-3" points="235.52 93.8 228.9 94.97 228.84 97.24 235.46 96.06 235.52 93.8"/><polygon class="cls-3" points="109.41 129.31 106.14 129.9 106.08 132.08 109.35 131.5 109.41 129.31"/><polygon class="cls-3" points="100.13 128.78 103.3 128.22 103.35 126.12 100.19 126.68 100.13 128.78"/><polygon class="cls-3" points="100.01 133.15 103.17 132.59 103.23 130.41 100.07 130.97 100.01 133.15"/><path class="cls-3" d="M143.08,126.46c-.08,3,1.65,4.4,2.44,4.26a2.67,2.67,0,0,0,1.4-1.06c3-3.91,6.29-10.81,6.43-15.73a8.2,8.2,0,0,0,0-1.31C147.84,115.07,143.21,121.63,143.08,126.46Z"/><polygon class="cls-3" points="235.39 98.64 228.76 99.81 228.7 102.19 235.32 101.02 235.39 98.64"/><polygon class="cls-3" points="109.53 125.03 106.25 125.61 106.2 127.71 109.47 127.13 109.53 125.03"/><polygon class="cls-3" points="184.35 124.59 187.32 124.06 187.47 118.87 184.49 119.4 184.35 124.59"/><path class="cls-3" d="M194.7,113.21a22.82,22.82,0,0,0,.75-3s2,0,2.92,0c.41,0,.62.2.62.36s-.35.52-1.06.69c-.08.25-.2.77-.45,1.51l2.46-.43c.15,0,.42-.35.6-.38a8.9,8.9,0,0,1,1.65.8l4.35-.78,0-1.32s0-1.16-.05-2.16c.22,0,2.56-.26,3.19-.3a.92.92,0,0,1,.33,0l0-1.21-15.3,2.71Z"/><polygon class="cls-3" points="184.58 116.24 187.56 115.72 187.68 111.19 184.7 111.72 184.58 116.24"/><polygon class="cls-3" points="63.08 137.75 67.58 136.95 67.64 134.89 63.13 135.68 63.08 137.75"/><polygon class="cls-3" points="204.59 121 206.31 120.7 206.46 114.97 204.75 115.27 204.59 121"/><polygon class="cls-3" points="184.79 108.56 187.77 108.04 187.9 103.28 184.92 103.81 184.79 108.56"/><polygon class="cls-3" points="236.33 111.43 243.66 110.13 243.73 107.67 236.4 108.97 236.33 111.43"/><polygon class="cls-3" points="236.19 116.65 243.52 115.35 243.59 112.74 236.26 114.04 236.19 116.65"/><polygon class="cls-3" points="252.14 95.67 245.22 96.9 245.15 99.28 252.07 98.05 252.14 95.67"/><polygon class="cls-3" points="252.27 90.84 245.35 92.06 245.29 94.32 252.21 93.1 252.27 90.84"/><path class="cls-1" d="M54.73,146.13c.3,0,4.1-4.84,4.35-13.84,0-1.09.05-4.47.05-4.47l12.58-2.23a27.83,27.83,0,0,0,2.36,9.55A23.67,23.67,0,0,1,70.19,139l.19-7-9.86,1.75-.24,8.46,2.68-.47,0-1.72,4.51-.8,0,.47,2.31-.41a22.74,22.74,0,0,1-5.68,3.14,18,18,0,0,1,3.45,1.33l-1,.84a12.31,12.31,0,0,1,4.67,3.83L74,145.64a15.41,15.41,0,0,0-4.29-2.81,28.87,28.87,0,0,0,5.92-5.24c2.33,2.81,4.25,3,5.36,2.81,3.28-.58,4.64-5.47,4.64-5.67a.21.21,0,0,0-.07-.14,18,18,0,0,1-2.43-3c-.44,2.48-1.26,5.07-2.37,5.27s-2.8-1.88-3-2.12a39.44,39.44,0,0,0,4-7.5,2.33,2.33,0,0,0,.48,0c.56-.1.83-.34.83-.54s-.17-.43-.54-.56c-.91-.34-3.31-.89-3.31-.89a33.15,33.15,0,0,1-3,6.74A23.28,23.28,0,0,1,74.87,125l9.45-1.67.09-3.08-3.43.6,1.3-1.35a18.14,18.14,0,0,0-3.81-1.65l-2.09,2a10.1,10.1,0,0,1,2.86,1.27l-4.51.8.07-2.42c.82-.3,1.13-.58,1.13-.82s-.28-.41-.73-.37c-1.07,0-3.86.37-3.86.37.08,1,.13,2.07.14,3,0,.27,0,.5,0,.77l-15.67,2.78s0,6.09,0,7.34c-.11,3.9-1.19,9.48-4.81,13.15a15.73,15.73,0,0,1,3.7.32ZM67.58,137l-4.51.8.06-2.07,4.51-.79Z"/><polygon class="cls-1" points="70.61 127.69 60.41 129.49 60.34 132.03 70.54 130.22 70.61 127.69"/><path class="cls-1" d="M79.31,141.39l-2.88,2.18a16.91,16.91,0,0,1,6.2,6.28L86,147C84.91,145.21,81.32,142.44,79.31,141.39Z"/><path class="cls-1" d="M78.4,147.41a14.47,14.47,0,0,1-3.5-1.94c-.22,3.73-1.12,4.24-5.77,5.06-4.09.72-4.19.2-4.14-1.71,0-1.21.15-2.71.24-3.3.64-.19,1-.58,1.06-.85s-.21-.39-.73-.38c-.85,0-3.71.39-4,.44,0,.42,0,1,0,1.43s0,.78,0,.78l-.19,4.15v.07c-.09,3.24,2.46,3.49,8,2.51,5.21-.92,8.5-2.08,9.16-6a.49.49,0,0,0,0-.12A.19.19,0,0,0,78.4,147.41Z"/><path class="cls-1" d="M57.07,146.18a21.1,21.1,0,0,1-6.1,8.69s3,.2,3.69.7c0,0,.07,0,.11,0,.67-.12,3.88-5,5-7.64a1.69,1.69,0,0,0,.45,0c.44-.08.79-.37.79-.6C61.06,146.53,57.07,146.18,57.07,146.18Z"/><path class="cls-1" d="M121.56,111.72c.68-.23,1.06-.57,1.06-.8s-.25-.35-.77-.33c-1.33,0-4,.43-4,.43.09.91.05,3.44,0,5.78,0,.74,0,1.44-.06,2.11l-3.65.64-.09,3.35,3.61-.64c-.38,6.94-1.53,17.93-10.52,24.14a16.47,16.47,0,0,1,3.91.78s.07,0,.11,0a.79.79,0,0,0,.26-.13c7.86-6.82,9.21-18.23,9.7-25.42l3.72-.66c-.59,14.85-.79,19.31-4.25,19.92a14.66,14.66,0,0,1-3.66-.17,17.26,17.26,0,0,1,1.74,3.85c0,.15.11.17.26.19a10.38,10.38,0,0,0,1.86-.18c2.82-.5,4.94-2.15,5.93-5.82,1.36-5.05,1.48-16,1.68-21.75l-7.07,1.25C121.44,116.13,121.52,113.2,121.56,111.72Z"/><path class="cls-1" d="M111.89,141.52a1.06,1.06,0,0,1,0-.15,25.32,25.32,0,0,1,.33-2.58c-.79.37-3.23,1.38-6.33,2.48l0-2,6.26-1.19.07-2.69L106,136.63l.06-2.23,3.2-.56,0,.74,2.83-.5.32-11.89-6,1.06,0-1.83,7.4-1.31.08-2.69-7.41,1.31,0-1.91c1.94-.54,3.7-1.08,4.9-1.56a1.43,1.43,0,0,0,.91.38.32.32,0,0,0,.27-.36,1.27,1.27,0,0,0-.1-.45,14,14,0,0,0-1.6-2.31c-1.73,1.08-7.22,2.55-11.5,3.31-1.15.21-2.23.36-3.12.44a9.59,9.59,0,0,1,1.45,2.3c0,.15.11.22.26.19,1.64-.29,3.57-.71,5.47-1.16l0,1.67L96,120.6l-.08,2.69,7.48-1.33,0,1.83-5.91,1-.33,12,2.82-.5,0-.82,3.09-.55-.07,2.27-6.55,1.23-.11,2.7,6.59-1.24-.07,2.45c-2.46.83-5.16,1.65-7.65,2.25a32.45,32.45,0,0,0,1.09,3.34c.17.35.36.48.54.44s.38-.34.4-.88v-.24c5.23-1.66,11.53-4.17,14.49-5.47A.31.31,0,0,0,111.89,141.52Zm-5.63-15.91,3.27-.58-.06,2.1-3.27.58Zm-.12,4.29,3.27-.58-.06,2.18-3.27.58Zm-3,2.69-3.17.56.06-2.18,3.17-.56Zm.12-4.36-3.17.56.06-2.11,3.16-.56Z"/><path class="cls-1" d="M156.28,108.37c-9.38,1.66-16.64,11.25-16.85,18.81-.13,4.56,2.8,8.59,6.07,8,1.27-.23,2.63-1.17,4-3,3.69-4.85,7.66-13.15,7.82-19a10.11,10.11,0,0,0-.07-1.58c5.05-.31,8.55,3,8.42,7.94-.23,8-8,12.78-15.22,14.6a21.65,21.65,0,0,1,3.95,2.91.16.16,0,0,0,.19.08c.93-.16,14.82-5.72,15.16-18.16C170,112.12,164.69,106.88,156.28,108.37Zm-2.93,5.56c-.14,4.92-3.4,11.82-6.43,15.73a2.67,2.67,0,0,1-1.4,1.06c-.79.14-2.52-1.26-2.44-4.26.13-4.83,4.76-11.39,10.23-13.84A8.2,8.2,0,0,1,153.35,113.93Z"/><path class="cls-1" d="M210.74,100.94l.11,0c.67-.11.9-.39.91-.58s-.18-.4-.48-.42c-.73-.07-3.54-.27-3.54-.27a29.72,29.72,0,0,1-1.81,5.29l-3.47.61,1.65-.68a12.11,12.11,0,0,0-1.3-3.69L200,102.3a11.36,11.36,0,0,1,1.09,3.49l-4.13.74,1.49-.66a11.89,11.89,0,0,0-1.86-3.39l-2.82,1.39a7.05,7.05,0,0,1,1.59,2.94l-3.43.6-.18,6.63,2.86-.5a27.11,27.11,0,0,1-4.34,8.37l.62-22.26L182,101.21l-.85,30.65,3-.53.1-3.47,3-.53,0,1.56,2.9-.51.14-5a6.37,6.37,0,0,1,1.73.39.2.2,0,0,0,.15,0c.07,0,.11-.05.19-.15a34.76,34.76,0,0,0,4.26-8l2.38-.42a28.92,28.92,0,0,1-1.19,4.32,20.15,20.15,0,0,0-1.91-.87l-1.52,2.72a15,15,0,0,1,2.16,1.13,21.3,21.3,0,0,1-8.18,9.24,11.93,11.93,0,0,1,3.16,1s.07,0,.11,0l.18-.11c7.91-5.86,9.94-17.79,10.11-18.59l.15-.11,0,1.84.48-.09-.16,5.73-2.34.42-.09,3.19,6.37-1.12-.18,6.23,2.91-.51.17-6.24,3.57-.63.09-3.2-3.57.64.16-5.74,2.71-.48.16-2.93-2.79.49,0-.86s0-.19,0-.46a5.79,5.79,0,0,1,.06-.79,1.62,1.62,0,0,0,.49-.28l0,1.44,3.13-.55.17-6.4-4.13.73A29.09,29.09,0,0,0,210.74,100.94Zm-23.42,23.12-3,.53.14-5.19,3-.53Zm.23-8.34-3,.52.12-4.52,3-.53Zm.22-7.68-3,.52.13-4.75,3-.53ZM206.3,120.7l-1.71.3.16-5.73,1.71-.3Zm3.79-13.63,0,1.21a.92.92,0,0,0-.33,0c-.63,0-3,.26-3.19.3.05,1,.05,2.16.05,2.16l0,1.32-4.35.78a8.9,8.9,0,0,0-1.65-.8c-.18,0-.45.35-.6.38l-2.46.43c.25-.74.37-1.26.45-1.51.71-.17,1-.46,1.06-.69s-.21-.31-.62-.36c-.89-.07-2.92,0-2.92,0a22.82,22.82,0,0,1-.75,3l.09-3.43Z"/><path class="cls-1" d="M193.81,102.47a141.74,141.74,0,0,0,17.35-4.59,1.67,1.67,0,0,0,1.06.28.38.38,0,0,0,.35-.37.83.83,0,0,0-.25-.58c-.61-.67-2.27-2.35-2.27-2.35C208,96,201.6,98,194.41,99.25c-.92.17-1.89.34-2.86.47a11.31,11.31,0,0,1,2,2.68C193.55,102.51,193.66,102.49,193.81,102.47Z"/><path class="cls-1" d="M241.7,103.49l3.35-.59,0-.93,6.93-1.23-.44,15.91c0,1.28-1,1.8-2.28,2a18,18,0,0,1-2.75.21l.4-14.5-13.58,2.44-.43,15.68L236,122l.07-2.49,7.33-1.3,0,1.56,2.42-.43a14.22,14.22,0,0,1,2.06,3c0,.15.15.17.3.14a9.29,9.29,0,0,0,1.08-.15c2.79-.49,5.82-1.84,5.94-5.9.05-1.91.07-5.37.09-6l.63-23-13.84,2.45Zm1.82,11.86-7.33,1.3.07-2.61,7.33-1.3Zm.14-5.22-7.33,1.3.07-2.46,7.33-1.3Zm1.69-18.07,6.92-1.22-.06,2.26-6.92,1.22Zm-.14,4.84,6.93-1.23-.07,2.38-6.92,1.23Z"/><path class="cls-1" d="M235.22,104.68l3.35-.59L239,90.36l-13.55,2.4-.94,34.35,3.57-.63.59-21.6,6.63-1.17ZM228.9,95l6.62-1.18-.06,2.26-6.62,1.18Zm-.2,7.21.06-2.38,6.63-1.17-.07,2.37Z"/><path class="cls-1" d="M294.44,91.33c-2.07,1.22-5.38,3-8.81,5.16a3.88,3.88,0,0,0-4.52-2.88,7.25,7.25,0,0,0-3.52,1.71.4.4,0,0,1-.19.11c-.08,0-.15,0-.15-.09a.23.23,0,0,1,.08-.13c.74-1.14,1.67-2.66,2.29-3.82,2.47-.79,5.42-1.89,8.9-3.25l.28-4.54c-2.66,1.2-5.06,2.17-7.19,3,.43-1,.87-2,1.07-2.6.74-.17,1.2-.48,1.2-.72,0-.7-4.69-.56-5.43-.51a46.92,46.92,0,0,1-1.67,5.42c-1,.25-1.79.47-2.49.59a10.47,10.47,0,0,1-5.15-.17,1.1,1.1,0,0,0-.29-.07c-.11,0-.15.11-.16.26v.16l.33,4.17a8.44,8.44,0,0,0,4.14.08c.34-.06.71-.16,1.12-.24a2.83,2.83,0,0,1,.56-.13,71.45,71.45,0,0,1-8,12.28.92.92,0,0,0-.2.38c0,.12.14.17.36.21l4.21.73c2.6-4.46,6-8.59,8.5-9h0c1-.18,1.66.21,1.88,1.72-6.08,4.34-8.59,7.89-8.68,11.08s2,6.9,10.15,5.46a40.59,40.59,0,0,0,8.1-2.44.33.33,0,0,0,.24-.35,40.62,40.62,0,0,1,1-5.19,45.39,45.39,0,0,1-9.73,3.54c-3.83.68-5.4-.36-5.35-2,0-1.32.93-2.84,4.11-5.38-.11,1.5-.27,3.27-.35,4.76l4.44-1.25c.09-1.92.32-4.87.4-6.59a54.81,54.81,0,0,1,10.85-5.38c.45-.15.86-.27.87-.5,0-.08-.07-.14-.18-.28Z"/><path class="cls-1" d="M325.5,76.75c.71-.32,1.17-.71,1.17-1s-.24-.43-.84-.4c-1.4,0-5.27.55-5.27.55-.11,2.62-.25,5-.54,7.31l-10.16,1.84-.12,4.64c3.35-.64,6.47-1.19,9.52-1.73-1.65,7.82-5.27,13.89-13.14,19.94a21.59,21.59,0,0,1,4.76,2.22c.1.1.18.13.25.11a.38.38,0,0,0,.23-.15,41,41,0,0,0,12.78-23l6.48-1.15c-.18,3.6-.63,9.39-1.95,12.92a5.29,5.29,0,0,1-4.39,3.53,24.84,24.84,0,0,1-5.38,0,21.46,21.46,0,0,1,2.16,5.09c.07.3.32.52,3.15,0,8.56-1.51,10.7-7.91,11.48-27.09l-10.75,1.94C325.17,80.57,325.37,78.71,325.5,76.75Z"/><path class="cls-1" d="M373.06,71.05c-.26,0-.38.3-.72.4,0,0-4.65.86-8.63,1.56.47-.82.93-1.68,1.4-2.57l.19,0c.59-.1,1.08-.38,1.09-.69s-.14-.37-5.41-1.1a46.88,46.88,0,0,1-15.07,18.73,25.48,25.48,0,0,1,4.35,1.9c.07.07.11.1.18.09A54.66,54.66,0,0,0,360.8,77.76L370,76.13a58.54,58.54,0,0,1-4.72,8.75,23.57,23.57,0,0,0-5.92-2.83l-3.33,4a20.27,20.27,0,0,1,5.79,3.36A38.1,38.1,0,0,1,346,100.21s3.4,1.73,4.44,2.94a.27.27,0,0,0,.29.1.4.4,0,0,0,.19-.07c12.94-5.86,19.85-17.36,24.91-29.16.49-.21.83-.5.84-.77C376.64,72.74,373.54,71,373.06,71.05Z"/><path class="cls-1" d="M405.4,68c2.39-.77,4.82-1.67,7.14-2.66a1.81,1.81,0,0,0,1.18.33.48.48,0,0,0,.46-.46,1,1,0,0,0-.21-.55,36.12,36.12,0,0,0-3-3.78c-4.77,2.63-12.43,4.76-18.83,5.89-1.41.25-2.82.46-4.09.61a28.58,28.58,0,0,1,2.78,4.13c.07.18.18.16.4.12,2.61-.5,5.85-1.19,9.32-2.16v0c0,.9,0,2.84-.08,4.36l-13.81,2.45-.13,4.79,13.69-2.42c-.62,5.19-3.18,10.49-13.61,14.09A23.38,23.38,0,0,1,391,96.07a.36.36,0,0,0,.33.14.56.56,0,0,0,.19-.07c8.74-4.07,12.88-10.55,13.58-18.31L417,75.72l.13-4.8L405.3,73C405.3,71.59,405.35,69.68,405.4,68Z"/><path class="cls-1" d="M446.81,64.82a52.26,52.26,0,0,0,7.95-2.1c.11,0,.15-.11.15-.23l.17-4.72a59.71,59.71,0,0,1-9,2.49,22.29,22.29,0,0,1-6.16.35l-.31,4.63A25,25,0,0,0,446.81,64.82Z"/><path class="cls-1" d="M448.53,79.14l-.22,0c-3.91.69-6.16.16-6.12-1.13a1.91,1.91,0,0,1,.2-.69,14.2,14.2,0,0,1,1.24-1.77l-3.8-.45c-.81.91-2.23,2.68-2.28,4.59-.09,3.39,4,5.54,10.51,4.39a37.8,37.8,0,0,0,7.29-2.38.33.33,0,0,0,.15-.22c.08-1.49.74-5.33.74-5.33A26.28,26.28,0,0,1,448.53,79.14Z"/><path class="cls-1" d="M435.66,58.42s-4.87-.62-5-.6-.15.15-.15.34c-.27,4.39-2.64,12.15-3,21.06,0,.12,0,.27,0,.39a20.37,20.37,0,0,0,1.84,9.92L433,88a.36.36,0,0,0,.23-.35v-.08a16,16,0,0,1-.09-2.11c.08-2.65.57-4.37,3.1-11.49a24.49,24.49,0,0,1-1.52-4.12c-2.6,6.9-2.88,7.65-3,7.68s-.09-.53-.07-1.39c.21-4.77,2.68-12.42,3.57-16.61.75-.17,1.09-.47,1.1-.7S436.06,58.5,435.66,58.42Z"/><path class="cls-1" d="M485.87,79.12c.18-11.79,3.33-16,14-18.66-11-.29-15-3.67-17.77-15.13-.18,11.79-3.33,16-14,18.65C479.14,64.28,483.13,67.66,485.87,79.12Z"/><path class="cls-2" d="M485.87,80.12a1,1,0,0,1-1-.76c-2.64-11-6.25-14.1-16.83-14.38a1,1,0,0,1-.21-2c10.26-2.58,13.11-6.38,13.28-17.7a1,1,0,0,1,.89-1,1,1,0,0,1,1.08.76c2.64,11,6.25,14.09,16.82,14.36a1,1,0,0,1,1,.89,1,1,0,0,1-.75,1.08C489.89,64,487,67.83,486.87,79.14a1,1,0,0,1-.89,1Zm-12.69-16.7c6.26,1,9.72,3.94,12.08,10.17C486.2,67,488.94,63.4,494.83,61c-6.26-1-9.72-3.94-12.08-10.16C481.81,57.45,479.07,61.05,473.18,63.42Z"/><path class="cls-2" d="M59.32,338.26a1,1,0,0,1-1-.85c-1.09-7-3.13-9-9.9-9.7a1,1,0,0,1,0-2c6.73-1.07,8.65-3.17,9.38-10.19a1,1,0,0,1,2-.06c1.09,7,3.13,9,9.9,9.69a1,1,0,0,1,0,2c-6.73,1.07-8.65,3.17-9.38,10.2a1,1,0,0,1-1,.89ZM53.13,326.6a8.83,8.83,0,0,1,6.06,5.89,8.84,8.84,0,0,1,5.75-6.2,8.81,8.81,0,0,1-6.06-5.89A8.84,8.84,0,0,1,53.13,326.6Z"/><path class="cls-1" d="M192.73,225c-5.42,1-12,2.54-31.51,14a71.84,71.84,0,0,1-10.81,5.2c-.8.25-1.11.62-1.12.94a1.66,1.66,0,0,0,.48,1l6.17,7.27a66.09,66.09,0,0,0,9.42-5.69c9-6.27,16.75-11.87,26.7-13.64,12.76-2.26,12.65,8.45,12.63,9.62-.26,13.29-17.48,23.76-38.68,27.52-1.21.21-2.41.32-3.62.54,1.29.93,6.9,5.55,8.36,7.83a1.29,1.29,0,0,0,1.29.41c16-3.16,42.17-16.17,42.59-37.74C214.81,232.68,209.51,222,192.73,225Z"/><path class="cls-1" d="M78.42,260.55c0-1.07,1-2.52,3-4.45l-7.59-.88c-3.38,3.57-4.84,6.79-4.89,9.45-.1,5.1,5.24,8.39,13,7l.54-.09c.13-2.5.37-5.8.67-9.46C80.06,262.61,78.39,262,78.42,260.55Z"/><path class="cls-1" d="M85.21,235.62a28.51,28.51,0,0,1-14.6-1,2.47,2.47,0,0,0-.7-.09c-.4.07-.51.52-.52,1.15s0,9.64,0,9.64a33.75,33.75,0,0,0,12.91.25c.77-.14,1.57-.28,2.39-.45.35-3.57.69-6.89,1-9.59Z"/><path class="cls-1" d="M121.31,232.06c-.1,0-.3.16-.4.17-3.14,1.73-11.7,4.41-11.7,4.41,8.69,6.19,16.53,14.75,16.34,24.53-.21,10.63-10,21.37-19.07,23-6.13,1.08-11-1.87-10.89-11.63,0-1.38.06-2.76.19-4.16a66.61,66.61,0,0,0,15.17-8.2,1.5,1.5,0,0,0,.42-.71c0-.42,0-.95,0-1.49.06-3.5.58-9.31.58-9.31a80,80,0,0,1-15.61,9.65c.41-5.69,1.12-11.43,1.73-16.83,9.38-3.68,10-4.53,10.11-5.08l.38-9.38c-2.93,1.58-6.06,3.09-9.1,4.47,1.16-8.15,2.31-15.55,3-21.4,1.61-.5,2.63-1.42,2.65-2.06s-.49-.86-1.39-.92c-.4,0-9.9-.46-11.71-.14-.4.07-.5.19-.51.62,0,.11,0,.21,0,.42,0,1.17,0,2.43,0,3.71-.13,6.69-.88,14.45-1.85,23.2l-1,9.6q-.9,8-1.53,17.11l-.59,9.43-.15,2.78c0,.21,0,.53,0,.74-.28,14.67,7.58,22.17,19.84,20,16.68-3,29.42-19.94,29.72-35.46S122.11,231.91,121.31,232.06Z"/><path class="cls-1" d="M262,182.77c1.71-.87,2.41-1.64,2.41-2.28s-.59-.94-1.6-1c-3.6.06-11.91.49-12.21.55s-.4.29-.4.61v.53c.38,5,.46,9.79.45,13.19-.12,5-.34,9.42-.35,13.14a36,36,0,0,0,1.26,10c3-1.95,6.56-4,9.69-5.69a28.91,28.91,0,0,1-.63-6.75C260.64,203.32,260.65,202.36,262,182.77Z"/><path class="cls-1" d="M266.18,265.92a109.16,109.16,0,0,0,23.75-7.67.78.78,0,0,0,.51-.84c0-3.72,1.95-12.8,2.05-13.35a101.73,101.73,0,0,1-29.57,11.34c-7.12,1.38-20.74,2.73-20.7-7.15.06-13.5,26.34-26,45.28-30.52l.14-12c0-.53-.19-.81-.69-.72a1.18,1.18,0,0,0-.5.21c-3.92,1.92-10.13,4.4-14.85,6.58-3.11,1.45-6.11,2.88-9,4.51l-9.64,5.79c-12,8-21.09,17.88-21.14,28.83C231.71,272.48,261.77,266.78,266.18,265.92Z"/><path class="cls-4" d="M671.13,119.58c-1.07-1.07-7.59-6.47-12.56-6.34a7.23,7.23,0,0,0-1.15.11,8.39,8.39,0,0,0-3.64,1.62l-.26,0L647,116.29c-.1-1.77-1-6.32-7.4-7.61-1.51-.32-4.07-.56-8.1-.91-1.54-.14-3-.26-3.82-.37l-7.24,4.13C611.9,130.84,600,146.07,584,158.08l2.26,12.32a42.24,42.24,0,0,1,7.91,3A7.58,7.58,0,0,0,599,175l1.07-.11c1.48-.26,3-.54,10.45-7.92a168.24,168.24,0,0,0,16-18.61l1.21-1.66c.09-.12,2-2.75,3.7-5.38l1,1.49,6.09-1.16c-11.15,20.91-25.44,37.54-51.17,49.69l0,12.64c3.63,1.74,7.77,4.14,8.69,5l.34.33a7.46,7.46,0,0,0,5.19,1.94,7.92,7.92,0,0,0,1.24-.13,8.21,8.21,0,0,0,2.75-1c31.36-16.75,48.13-42,64.53-77.15a8.56,8.56,0,0,0,4-7A8.72,8.72,0,0,0,671.13,119.58Z"/><path class="cls-4" d="M601.44,207.32a3.51,3.51,0,0,1-2.36-.87l-.29-.28c-1.24-1.21-4.63-3.15-7.45-4.62l0-7.66c22.68-11.2,37.93-26.38,50.71-50.31l-4.28-5.81-6.08,1.16.54.22-4.17,0c-1.63,2.55-3.53,5.15-3.55,5.18l-1.22,1.67a165.6,165.6,0,0,1-15.61,18.12c-6.12,6.07-7.57,6.66-8.2,6.8l-.72.07a3.65,3.65,0,0,1-2.17-.78l-.28-.2a36.25,36.25,0,0,0-6.56-2.76l-1.38-7.54c15.22-11.93,26.74-26.81,35.14-45.4l5-2.84,2.41.21.2,0c3.77.33,6.33.57,7.62.84,2.7.55,4.11,1.87,4.24,3.94l4.75,3.69,6.79-1.31,1.68-.75a4.29,4.29,0,0,1,1.91-.87,5.51,5.51,0,0,1,.57-.06c3-.07,8.35,3.91,9.64,5.19,1.75,1.74,1.73,3.06,1.72,3.49a4.62,4.62,0,0,1-2.23,3.81l-1.37,1.61c-16,34.35-32.12,58.93-62.79,75.32l-.15.08a4.14,4.14,0,0,1-1.43.52A3,3,0,0,1,601.44,207.32Z"/><path class="cls-5" d="M562.9,124.92l-1.13.12a8.14,8.14,0,0,0-3.38,1.45L515,134.38l-1.82,2.14L511,134.69l-11,2-5.76,6.75-.7,35.92,8.22,7,11-2,5.78-6.77.34-19.45,30-5.48c-5.09,24.56-19,40.68-43.38,50.35l-.64,12.71A60.15,60.15,0,0,1,514,221.4a7.41,7.41,0,0,0,6,2.7,7.87,7.87,0,0,0,1.19-.12,7.6,7.6,0,0,0,2.27-.8,6.71,6.71,0,0,1-1.86.62l2.1-.73c30.38-16.39,46.71-41.17,52.67-80.12a8.36,8.36,0,0,0,2.52-5.8,8,8,0,0,0-2.55-5.89C574.11,129,566.88,124.82,562.9,124.92Z"/><path class="cls-5" d="M519.92,220.1a3.42,3.42,0,0,1-2.78-1.23l-.38-.4a50.37,50.37,0,0,0-7.74-5l.39-7.66c24.05-10.26,38.27-27.38,43.43-52.26l-4.64-4.75-30,5.47-3.29,3.87-.32,18-3.91,4.58-7.78,1.38-5.35-4.57.64-32.6,3.9-4.57,7.73-1.39.71.61,5.65-.46.89-1.05,42-7.63,1.63-.7a4.28,4.28,0,0,1,1.62-.73l.77-.08c2.51,0,8.59,3.36,10.42,5.18a4,4,0,0,1,1.37,3,4.33,4.33,0,0,1-1.38,3.08l-1.09,2.19c-5.75,37.5-21.27,61.27-50.34,77.05l-1.79.62v0Z"/><path class="cls-6" d="M472.73,145.92a7.35,7.35,0,0,0-1.16.12,8.33,8.33,0,0,0-3.64,1.62l-.25.05L461.13,149c-.11-1.77-1-6.31-7.4-7.6a80,80,0,0,0-8.12-.92c-1.53-.14-2.95-.26-3.81-.36l-7.23,4.13c-8.52,19.31-20.43,34.53-36.41,46.54l2.27,12.32a43.76,43.76,0,0,1,7.9,3,7.57,7.57,0,0,0,4.82,1.6l1.07-.11c1.47-.26,3-.53,10.45-7.92a167.92,167.92,0,0,0,16-18.6l1.23-1.68c.36-.5,2.12-2.94,3.68-5.37l1,1.5,6.08-1.16c-11.15,20.9-25.44,37.53-51.17,49.68l0,12.65c3.62,1.73,7.76,4.13,8.68,5l.34.32A7.43,7.43,0,0,0,415.7,244a8.82,8.82,0,0,0,1.2-.13,8.34,8.34,0,0,0,2.79-1c31.37-16.76,48.13-42,64.53-77.16a8.53,8.53,0,0,0,4-7,8.71,8.71,0,0,0-2.9-6.4C484.21,151.2,477.69,145.79,472.73,145.92Z"/><path class="cls-6" d="M415.6,240a3.46,3.46,0,0,1-2.37-.88l-.28-.28c-1.25-1.21-4.64-3.15-7.46-4.61l0-7.67c22.68-11.2,37.94-26.37,50.71-50.31l-4.28-5.81-6.08,1.16.54.23-4.17,0c-1.56,2.45-3.34,4.9-3.54,5.18l-1.23,1.67a163.67,163.67,0,0,1-15.61,18.12c-6.12,6.08-7.57,6.67-8.2,6.8l-.72.07a3.54,3.54,0,0,1-2.17-.78l-.27-.19a36.74,36.74,0,0,0-6.56-2.76l-1.39-7.54c15.22-11.93,26.74-26.82,35.15-45.41l5-2.84,2.28.21.31,0c3.77.34,6.34.57,7.63.85,2.7.55,4.12,1.87,4.24,3.94l4.75,3.68,6.83-1.32,1.64-.74a4.41,4.41,0,0,1,1.92-.86,2.6,2.6,0,0,1,.56-.06c3-.08,8.35,3.91,9.64,5.19,1.75,1.74,1.73,3,1.72,3.48A4.6,4.6,0,0,1,482,162.4L480.59,164c-16,34.35-32.11,58.94-62.78,75.32l-.15.09a4.32,4.32,0,0,1-1.45.52A4.5,4.5,0,0,1,415.6,240Z"/><path class="cls-7" d="M379.05,157.49l-1.13.11a8.38,8.38,0,0,0-3.39,1.45l-43.44,7.89-1.81,2.15-2.16-1.84-11,2L310.36,176l-.69,35.92,8.22,7,11.05-2,5.78-6.77.34-19.46,30-5.47C360,209.82,346,226,321.69,235.61l-.64,12.72a59.06,59.06,0,0,1,9.14,5.64,7.43,7.43,0,0,0,6,2.69,8.27,8.27,0,0,0,1.2-.12,7.41,7.41,0,0,0,2.25-.8,6.3,6.3,0,0,1-1.85.62l2.1-.73c30.38-16.39,46.7-41.17,52.67-80.12a8.35,8.35,0,0,0,2.52-5.79,7.93,7.93,0,0,0-2.55-5.89C390.26,161.59,383,157.38,379.05,157.49Z"/><path class="cls-7" d="M336.06,252.66a3.35,3.35,0,0,1-2.77-1.23l-.38-.4a50.2,50.2,0,0,0-7.74-5l.39-7.67C349.61,228.08,363.83,211,369,186.08l-4.64-4.75-30,5.48-3.29,3.86-.32,18-3.91,4.59-7.78,1.38-5.35-4.57.64-32.6,3.9-4.58,7.73-1.39.71.61,5.65-.46.89-1,42-7.63,1.63-.69a4.09,4.09,0,0,1,1.62-.74l.77-.08c2.51.05,8.59,3.36,10.42,5.18a4.08,4.08,0,0,1,1.37,3,4.37,4.37,0,0,1-1.38,3.08l-1.1,2.19c-5.74,37.5-21.26,61.28-50.33,77.05l-1.8.62v0A2.6,2.6,0,0,1,336.06,252.66Z"/><path class="cls-1" d="M598.85,168c.35-.07,10.28-8,22-23.76l1.21-1.66c.09-.12,2.18-3,3.81-5.6.45-.71,1.08-1.68,1.79-2.78,1.88-2.88,4.21-6.47,5.62-9.07l1.53-2.67c.68-1.25,1.35-2.52,2-3.78,1.5-.27,3.12-1.19,3.14-2,0-.43-.48-.87-1.88-1.15-1.9-.41-8.79-.88-11.29-1.18-7.86,17.81-19.6,35-38.6,49.32,0,0,7.27,2.1,10.13,4.14A.79.79,0,0,0,598.85,168Z"/><path class="cls-1" d="M601,204.18a.47.47,0,0,0,.5.12,1.2,1.2,0,0,0,.51-.2c31.66-16.84,47.49-43.27,62.65-76.14,1.51-.59,2.32-1.26,2.34-2.11,0-1.49-6.9-5.87-8.4-5.61-.81.15-1.12,1.05-2,1.32-.26,0-9.64,1.87-18.86,3.62l-.71,1.31c-1.42,2.59-3.75,6.18-5.62,9.06l-.28.43L651,132.19c-13.08,28.69-29,50.58-60.64,65.52C590.36,197.71,598.59,201.65,601,204.18Z"/><path class="cls-1" d="M516.05,151.58l41.3-7.53c-3.28,29.81-16.94,52.68-49.22,65.5,0,0,8.82,4.58,11.27,7.32.1.2.29.27.6.21.1,0,.3-.16.4-.17,27.22-14.68,43.87-37.23,49.46-77.73,1.32-.76,2-1.42,2-2.16,0-1.38-7.71-5.3-8.91-5.09-.71.12-1.13,1-2,1.21l-44.77,8.13Z"/><polygon class="cls-1" points="501.21 143.55 500.52 179.47 511.57 177.51 512.21 141.58 501.21 143.55"/><path class="cls-1" d="M413,200.72c.35-.06,10.28-8,22-23.76l1.21-1.66c.09-.12,2.19-3,3.81-5.59.45-.72,1.08-1.69,1.79-2.78,1.88-2.89,4.21-6.48,5.62-9.07l1.53-2.67c.68-1.26,1.35-2.52,2-3.79,1.5-.26,3.13-1.19,3.14-2,0-.42-.48-.86-1.88-1.15-1.89-.4-8.79-.87-11.29-1.17-7.85,17.81-19.6,35-38.6,49.32,0,0,7.27,2.1,10.13,4.13A.71.71,0,0,0,413,200.72Z"/><path class="cls-1" d="M481.19,158.53c0-1.48-6.89-5.87-8.4-5.6-.8.14-1.12,1-2,1.31-.26,0-9.64,1.88-18.86,3.62l-.71,1.31c-1.41,2.6-3.75,6.19-5.62,9.07l-.28.42,19.86-3.78c-13.07,28.69-29,50.58-60.64,65.51,0,0,8.23,3.94,10.69,6.47a.45.45,0,0,0,.49.13,1.36,1.36,0,0,0,.51-.2c31.66-16.85,47.49-43.27,62.65-76.15C480.36,160.06,481.18,159.38,481.19,158.53Z"/><path class="cls-1" d="M379.15,164.49c-.71.13-1.13,1-2,1.21l-44.78,8.13-.14,10.32,41.3-7.54c-3.28,29.82-16.94,52.68-49.22,65.51,0,0,8.82,4.57,11.27,7.32.09.19.29.26.59.21.1,0,.31-.16.41-.18,27.22-14.68,43.87-37.23,49.46-77.72,1.32-.77,2-1.42,2.05-2.17C388.08,168.2,380.35,164.28,379.15,164.49Z"/><polygon class="cls-1" points="327.72 210.07 328.36 174.14 317.36 176.11 316.67 212.03 327.72 210.07"/><path class="cls-3" d="M685.53,301.81a9.46,9.46,0,0,0-7.33,9c-.05,4.15,3.12,7,7.13,6.22a9.43,9.43,0,0,0,7.32-8.88C692.71,303.88,689.54,301.07,685.53,301.81Z"/><path class="cls-1" d="M271.49,314.47c-1.85-4.54-6.39-9-8.58-10.62L256.65,308a31,31,0,0,1,8.07,11.34Z"/><path class="cls-1" d="M244.38,312.36c2.78,2.35,6.41,8,7.66,11.73l7-4.67c-1.65-4.36-5.79-8.9-8.17-11Z"/><path class="cls-1" d="M220.91,342.36c0-.91,0-1.83-.08-2.77-.06-2.13-.12-4.31-.17-6.56-6.43,1.69-12.42,3.32-17.45,4.83-4.32,1.22-8.84,2.37-13.15,3.17-2.31.42-4.62.74-6.72,1l-.3.06c-.51.09-.71.34-.71.66a1.19,1.19,0,0,0,.09.62l2.47,10a197.94,197.94,0,0,0,19.1-5.85C208.91,345.92,214.66,344.11,220.91,342.36Z"/><path class="cls-1" d="M235.56,329.25c.15-3.95.4-7.6.63-10.19,1.61-.51,2.72-1.45,2.73-2.2,0-1.38-.48-1.29-14,.68.25,2.6.49,6,.66,9.64h.07c.08,4.39.19,8.43.3,12.35,0,.49,0,1,0,1.46h0c0,.46,0,.92,0,1.37.2,7,.31,13.11,0,18.47a.41.41,0,0,1,.11.07,28.86,28.86,0,0,1,.06,3.06c0,1.6-.32,9.29-7.24,10.56-4.22.78-6.48-2.41-6.43-6a8.71,8.71,0,0,1,7.62-8.62l.82-.12c.13-2.82.16-5.9.12-9.25-.31,0-.61.08-.92.14-10.34,1.91-16.87,11.81-17,20.52v.21c-.09,7,5.22,14.84,15.45,13a18.89,18.89,0,0,0,9.48-4.93l-.62,1.39c-2.58,5.77-14,16.79-30.43,23,0,0,8.76,3.69,11.23,6.1.3.15.4.24.7.19,1.11-.21,29.23-15.36,29.56-40.65.06-5-1-10.11-3.53-13.67,0-4.35.13-10.62.31-16.91,2.41-.55,4.92-1,7.33-1.46a151,151,0,0,1,21.56-2.59c.5-.1.5-.1.61-.64l.33-10.67c-3.11.47-6.32.95-9.53,1.54C249.11,326.23,242.28,327.7,235.56,329.25Z"/><path class="cls-1" d="M314.47,335.07c-5.41,1-11.94,2.63-31.41,14.17a71.38,71.38,0,0,1-10.78,5.27c-.81.25-1.11.63-1.11.95a1.61,1.61,0,0,0,.48,1l6.22,7.23a66.24,66.24,0,0,0,9.38-5.76c9-6.32,16.67-12,26.61-13.81,12.74-2.35,12.7,8.37,12.69,9.54-.17,13.29-17.33,23.87-38.5,27.77-1.2.22-2.41.34-3.61.56,1.29.93,6.94,5.51,8.41,7.78a1.28,1.28,0,0,0,1.29.4c16-3.26,42.06-16.45,42.34-38C336.6,342.66,331.23,332,314.47,335.07Z"/><path class="cls-1" d="M542.85,327.7l.2.18.05,0Z"/><polygon class="cls-1" points="545.31 324.59 545.32 324.6 542.8 327.8 545.31 324.59"/><path class="cls-7" d="M544.89,275.55c.07-5.78-4.62-8.28-13.14-12.8L528,264a8.22,8.22,0,0,0,.15-1.41,7.69,7.69,0,0,0-2.29-5.58,9,9,0,0,0-6.8-2.49h-.35c-3.57.09-10,.87-10.72,1l-2,2.38a12.25,12.25,0,0,0-2.85-.29l-.62,0h-.2c-3.44.31-10,1.2-10.26,1.23l-6,7.22.06,1.3c.07,1.6.17,3.75.21,7l-6.93-.19-1.15,1a8.29,8.29,0,0,0,1.63-4.7,7.7,7.7,0,0,0-2.29-5.59,8.7,8.7,0,0,0-6.42-2.42c-.28,0-.57,0-.88,0-3,.22-9.93,1.11-10.73,1.22l-6.09,7.42c.23,3.33.18,7.62.18,7.66l-.08,6.78-7,1.29-5.73,6.8-.11,8.92,8.27,7,4.26-.79-.07,5.13c-3.05,1.53-6.24,3-9.38,4.42L440,327.2a99.63,99.63,0,0,0,4.49,10.4,8.41,8.41,0,0,0,7.36,4.41,6.54,6.54,0,0,0,.89-.07l-.1,7.94a41.69,41.69,0,0,1-4.78.31H447l-5.52,11.23a40.41,40.41,0,0,1,4.17,6.54,7.33,7.33,0,0,0,7.31,5.75,9.57,9.57,0,0,0,1.55-.18l1.8-.33q9.52-1.75,14.49-7.12a26.79,26.79,0,0,1,4.44,1.48,7.46,7.46,0,0,0,4.72,1.61l1.24-.13a7.68,7.68,0,0,0,4-2,63.61,63.61,0,0,0,16-19.72,15.5,15.5,0,0,0,4.3,9.35c2,2,5.75,4.4,11.94,4.29a29.69,29.69,0,0,0,5-.54c19-3.5,21.95-14.56,23.35-25.59l.05-.81v-.19a7.5,7.5,0,0,0-2.8-5.92l-2.23-1.32a13.72,13.72,0,0,1-2.27-1.48l4.48-5.3-.1-9.15a84.45,84.45,0,0,0-15.15-13.25c3.65-4.48,8-10.52,10.53-14A8.05,8.05,0,0,0,544.89,275.55Zm-64.46,27.21c.26.54.53,1.08.79,1.65l-1.5-.81Zm2.38,2.51,1.78.34-.35.43Zm-6.66,38.64c0-.88,0-1.81,0-2.79l0-1.61a9.08,9.08,0,0,0,2.39,1.37A38.51,38.51,0,0,1,476.15,343.91Z"/><path class="cls-7" d="M452.88,369.72a3.33,3.33,0,0,1-3.35-2.68l-.14-.47a33.42,33.42,0,0,0-3.27-5.54l3.39-6.89a33.74,33.74,0,0,0,3.7-.3l3.44-3.91.1-7.94-4.54-4-.42,0a4.43,4.43,0,0,1-3.84-2.42,81,81,0,0,1-3.63-8.32l2.49-5.93c2.71-1.23,5.43-2.52,8.09-3.85l2.21-3.52.07-5.14-4.73-4-2.4.44-5.38-4.54.07-5.6,3.89-4.6,5.57-1,3.28-3.88.08-6.79c0-.65,0-3.55-.1-6.38l4.1-5c2.4-.3,6.81-.83,8.94-1l.65,0a4.85,4.85,0,0,1,3.53,1.26,3.67,3.67,0,0,1,1.11,2.71,4.24,4.24,0,0,1-.85,2.37l5.37,5-1.11.4,6.93.19,4.11-4.05c0-3.11-.13-5.25-.2-6.83l4-4.84c2.2-.29,6.16-.79,8.54-1h.14l.4,0a7.86,7.86,0,0,1,1.9.19l3.92-1.3,1-1.19c2.7-.3,6.53-.68,8.8-.74h.32a5.16,5.16,0,0,1,3.91,1.33,3.65,3.65,0,0,1,1.11,2.69,4.15,4.15,0,0,1-.07.7l5.22,4.54,2.11-.72c7.56,4.06,9.53,5.57,9.49,8.4a4.06,4.06,0,0,1-3.45,3.94L535.05,281c-2.31,3.26-6.74,9.38-10.37,13.84l.84,5.82A82.1,82.1,0,0,1,539,312.19l.06,6.15-3.51,4.16.65,5.78a18.39,18.39,0,0,0,2.8,1.82l1.75,1a3.41,3.41,0,0,1,1.15,2.61v.08l0,.58c-1.31,10.29-3.77,19-20.08,22a27.29,27.29,0,0,1-4.38.48c-4.79.08-7.57-1.66-9.05-3.14a11.42,11.42,0,0,1-3.15-7l-7.51-1.35a59.78,59.78,0,0,1-15,18.48l-.24.22a3.54,3.54,0,0,1-1.8.95l-.85.09a3.52,3.52,0,0,1-2.05-.76l-.57-.38a30.61,30.61,0,0,0-5.32-1.81l-3.95,1.14c-2.71,2.92-6.85,4.91-12.28,5.91l-1.81.33A4.89,4.89,0,0,1,452.88,369.72Zm19.32-30.26,0,1.61q0,1.49,0,2.82l7,2.67c1-1.1,1.89-2.23,2.69-3.33l-1.84-6.1a4.76,4.76,0,0,1-1.32-.77Zm8.71-30.67,1.43.77,5-1,.36-.45-2.37-6.43-1.09-.21L484,301l-6.64-.79-.71.84,1.16,6.1,1.5.81,2.85-2.68Z"/><path class="cls-6" d="M649.84,304.65a46,46,0,0,1-5.43-5.38l-4.65,1.61c1.48-3.26,2.8-6.46,4-9.57a8.76,8.76,0,0,0,5.12-7.67,8,8,0,0,0-2.48-5.87L651,271l-.79-8.66-3.4-2.3,1.16-7.26a55.21,55.21,0,0,0-12.64-15l-4.76.09,0,0a9.36,9.36,0,0,0-6.69-2.67h-.36c-1.62.07-8.6,1-11.52,1.32l-4,4.94c-.28-.11-.58-.22-.88-.31-2.32-.68-8.17-1.52-9.91-1.76l-7.72,5.13c-.26,1-.56,2-.87,3-.8-1.48-1.36-2.37-1.38-2.39l-8.68-2.53-7.75,3.44-.83,2.62-8.26-1.47-7.77,4.51-2.11,10.21.22.3a43.2,43.2,0,0,1,3.91,6.21l-3.79,4.5-.55,42.62,1.15,1-4.54,5.38-.11,8.72,8.27,7,12.89-2.37-.13,10.08,8.27,7,8.53-1.57,4.5-5.33a18,18,0,0,1,1.95.92,7.26,7.26,0,0,0,5.22,2.05h0a7.69,7.69,0,0,0,1.26-.13,7.54,7.54,0,0,0,3.41-1.5,107.15,107.15,0,0,0,17.53-15.15c3.41,4.72,8.24,9,14.54,8.87h0a13.3,13.3,0,0,0,2.18-.21c8.66-1.6,15.25-11.73,17.64-27.11l.08-1v-.32A7.59,7.59,0,0,0,649.84,304.65ZM610.27,309c-.13.18-.28.35-.42.53l-1.27-1.08,1-1.17.06-4.86q.57,3.59,1.25,6.7Zm-3.75-47h0v0Z"/><path class="cls-6" d="M573.17,343.36l.1-8.19-4.72-4-11,2-5.38-4.54.07-5.39,3.62-4.29-.31-3.73.1.23.53-41.19L559,270.9l.5-4.41a47,47,0,0,0-3.42-5.61l1.4-6.72,5-2.88,6.82,1.21,4.52-2.73.28-.9,4.77-2.11,5.75,1.67c.16.27.32.57.51.91l7.33-.71c.18-.59.35-1.14.5-1.65l5.22-3.46a75.26,75.26,0,0,1,7.83,1.42c.18,0,.37.12.55.19l4.56-1.19,3-3.7c5-.63,8.58-1,9.56-1.09h.24a5.35,5.35,0,0,1,3.82,1.47l-.17-.19.22.25,2.92,1.18,3.24-.06a52.14,52.14,0,0,1,9.91,11.71l-.94,5.87,1.71,3.94,1.83,1.24.49,5.35-3.8,5.63.54,5.12a3.94,3.94,0,0,1,1.25,2.94,4.81,4.81,0,0,1-2.93,4.15l-1.91,2.1c-1.44,3.64-2.69,6.62-4,9.38l4.94,5.44,2.17-.75a37.37,37.37,0,0,0,4.31,4l.67.38a3.57,3.57,0,0,1,2,3.34v.17l-.06.72c-2.1,13.34-7.61,22.39-14.38,23.64a8.79,8.79,0,0,1-1.52.15c-3.95.07-7.73-2.36-11.23-7.21l-6.18-.38A103,103,0,0,1,600,343.32l-.18.14a3.67,3.67,0,0,1-1.67.72,3.4,3.4,0,0,1-3-.86l-.8-.6a22.06,22.06,0,0,0-2.41-1.14l-4.6,1.11-3.57,4.24-5.26,1ZM606,311.55l1.27,1.07,3.66-.39,3.85-3.92c-.43-2-.84-4.16-1.21-6.48l-8,.58,0,3.43-.06.07.05.6v.76l.06-.16Zm-2-46.45,6.18-3.28L603,260.5Z"/><polygon class="cls-1" points="447.76 293.75 447.65 302.68 456.61 301.03 456.82 292.09 447.76 293.75"/><path class="cls-1" d="M505.58,265.72c0-.74-1-1.19-2.69-1.09-3.3.29-9.92,1.19-9.92,1.19.07,1.89.24,4.51.28,9.28l.09,16.2a78.06,78.06,0,0,0-9.46-11.83L477,285.41a61.09,61.09,0,0,1,10.89,16.76l5.48-5.36c-.08,6.17-.05,11.78,0,15.48-.77-2.29-1.44-4.71-1.44-4.71s-8.35,11.29-18,18.78a72,72,0,0,0,6.21,7.34,1.61,1.61,0,0,0,1.5.68c.6-.11.91-.8.92-1.87a4.55,4.55,0,0,0-.18-1.55,134.59,134.59,0,0,0,10.77-12.38c-.66,12.32-5.17,28.2-23.74,40,0,0,7.89,1.62,10.07,3.45.2.18.3.16.4.14a.67.67,0,0,0,.5-.31c18.31-14.93,21.68-35.48,21.84-47.92,0-2.55,0-27.88.11-39.78,0-3.4.16-4.8.28-6.2C504.66,267.27,505.57,266.36,505.58,265.72Z"/><path class="cls-1" d="M528.46,268.93a91.67,91.67,0,0,1-10.83,17.26l.19-14.88s0-3.82.29-6.41c1.8-.44,3-1.51,3-2.36,0-.53-.59-1.06-2.19-1-3.31.08-10.12.91-10.12.91.14,4.11.17,10.15.17,10.15l-1,71.44c-.14,11.16,8.88,10.24,13.19,9.45,14.15-2.61,16.34-9.06,17.67-19.59v-.21c0-.32-.2-.39-.4-.56-3-1-8.43-6.08-8.43-6.08,0,.53,0,1.16,0,1.7-.15,11.58-1.58,14-8,15.15-4.42.81-5.1-.65-5.06-4.05l.38-29.66a58.74,58.74,0,0,1,12.94,13.84l7.42-8.79a76.91,76.91,0,0,0-16.24-13.65L517.38,306l.18-14.45a11.1,11.1,0,0,1,3.48,2.22c.2.07.3.16.4.14a.92.92,0,0,0,.4-.29c5.29-6.38,12.73-17.08,12.73-17.08a5.79,5.79,0,0,0,2.11,0c.8-.14,1.21-.54,1.21-1.07C537.91,274.19,536,272.94,528.46,268.93Z"/><path class="cls-1" d="M469.18,341l.23-18.49c3.64-2.26,6.87-4.34,9.19-6.15a.92.92,0,0,0,.51-.83v-.32a22.93,22.93,0,0,1-.15-4c0-2.34.16-4.59.16-4.59-1.52,1.12-4.95,3.45-9.59,6.22l.18-14.14,8.33-1.53.11-8.93-8.33,1.53L470,278s0-3.09.28-5.57c1.71-.63,2.52-1.42,2.53-2.05s-.69-1-2-.91c-2.8.2-10.42,1.18-10.42,1.18.25,3.66.19,8.23.19,8.23l-.16,12.65-.11,8.93-.23,17.75c-4.33,2.28-9,4.51-13.5,6.51,0,0,2.61,6.94,4,9.34.4.67.89,1,1.29.93.61-.11,1.12-1.05,1.14-3,2.32-1.17,4.64-2.56,7-3.83l-.3,23.7c0,2.87-1.86,4.16-5.07,4.75a45.73,45.73,0,0,1-7.51.54s4.72,6.23,5.38,9.08c.1.51.3.47.8.38l1.81-.33c8.52-1.57,14-5.55,14.11-15.43C469.16,350.15,469.11,346.24,469.18,341Z"/><path class="cls-1" d="M605.12,247.81c-2-.59-8.89-1.55-8.89-1.55a101.79,101.79,0,0,1-8.88,21.58L570.42,271l-.1,7.55,6.8-1.25L577,285l-6.8,1.25-.09,7.55,6.79-1.26-.11,8.51L570,302.31l-.1,7.65,6.69-1.23-.12,9.24-21.27,3.92-.11,8.72,21.27-3.92-.24,18.6,8.53-1.57.24-18.6,21.37-3.94.12-8.72L585,316.4l.12-9.24,9.54-1.76,0,3.29,7.93-1.46.54-42.3-6.52,1.2c1.75-3.39,4.52-8.67,7.2-15.21a4.56,4.56,0,0,0,1.21-.12c1.2-.22,1.81-.86,1.82-1.39S606.22,248.14,605.12,247.81Zm-10.35,49.94-9.63,1.77.11-8.5,9.63-1.78ZM595,281.7l-9.64,1.77.1-7.76,9.64-1.77Z"/><polygon class="cls-1" points="566.69 294.32 566.69 294.32 566.79 286.78 566.79 286.78 566.89 279.02 566.89 279.02 566.98 271.47 559.16 272.92 558.61 315.54 566.44 314.09 566.48 310.48 566.6 301.07 566.69 294.32"/><path class="cls-1" d="M579,267.56l8.26-4c-1.12-6.47-5.23-13.67-5.92-14.71l-7.75,3.45A51.62,51.62,0,0,1,579,267.56Z"/><path class="cls-1" d="M564.88,271.45l8-4.76a60.86,60.86,0,0,0-7.64-13.55l-7.76,4.51A48.6,48.6,0,0,1,564.88,271.45Z"/><path class="cls-1" d="M634.56,263l7.3-6.85A47.8,47.8,0,0,0,631,243.25l-6.48,5.54A49.64,49.64,0,0,1,634.56,263Z"/><path class="cls-1" d="M647,311c-2.29-.85-7.82-7.15-7.82-7.15-.26,4.92-1.32,16.89-4.23,17.42-1.5.28-5-3.54-7.55-11.75a153.69,153.69,0,0,0,11.12-23.89l.7-.13c1.6-.3,2.72-1.14,2.73-2,0-.43-.29-.9-1.09-1.18-2.19-.76-9.68-2.56-9.68-2.56a80.52,80.52,0,0,1-6.34,18.56c-.83-5.58-1.54-12.34-1.94-20.43l21.2-6.35-.79-8.65-20.7,6.15c-.13-5.17-.06-10.91,0-17.08,0-2,.06-4.46.18-6.18,2.21-.94,3-1.83,3-2.58s-.89-1.1-2-1.11c-1.5.06-10.93,1.27-10.93,1.27.26,3.34.41,7.24.46,10.73.12,6.34.25,12.15.48,17.62l-.1,0c.18,2.93.37,5.83.58,8.68h0l.15,2.11c.31,4,.67,7.92,1.08,11.62A128.76,128.76,0,0,0,618.24,310c-.06.1-.13.19-.19.28a50.28,50.28,0,0,0,2.78,9.12c.06-.09.13-.17.2-.26.68,1.68,6.4,15.57,14.23,14.13,5.72-1.05,10.24-10.05,12-21.29v-.32C647.26,311.41,647.16,311.1,647,311Z"/><path class="cls-1" d="M615.85,313.28a83.85,83.85,0,0,1-28,23.59s7.78,2.49,9.36,4.22c.1.19.3.15.4.14a.72.72,0,0,0,.4-.18,97.67,97.67,0,0,0,21-19.31l-.64-1.34A38.77,38.77,0,0,1,615.85,313.28Z"/><path class="cls-1" d="M610.88,272.63l-6.4,1.91.79,8.66,6.2-1.87C611.26,278.48,611.06,275.57,610.88,272.63Z"/><path class="cls-1" d="M685.62,294.05c-8,1.48-14.63,9.48-14.74,18.09s6.32,14.21,14.35,12.73,14.64-9.59,14.75-18.09S693.65,292.57,685.62,294.05Zm7,14.08a9.43,9.43,0,0,1-7.32,8.88c-4,.74-7.18-2.07-7.13-6.22a9.46,9.46,0,0,1,7.33-9C689.54,301.07,692.71,303.88,692.65,308.13Z"/><path class="cls-1" d="M389.37,312.2c0-1.8,0-2.76,1.59-22.34,1.71-.85,2.42-1.62,2.43-2.25s-.59-1-1.59-1c-3.6,0-11.92.39-12.22.45s-.4.28-.41.6v.53c.33,5,.37,9.79.33,13.2-.17,5-.42,9.4-.47,13.12a36,36,0,0,0,1.18,10c3.05-1.93,6.59-4,9.73-5.6A29.34,29.34,0,0,1,389.37,312.2Z"/><path class="cls-1" d="M391.21,362.5c-7.12,1.31-20.75,2.55-20.63-7.33.18-13.5,26.56-25.79,45.54-30.13l.25-12c0-.53-.19-.81-.69-.72a1.27,1.27,0,0,0-.5.2c-3.93,1.89-10.17,4.31-14.9,6.46-3.12,1.42-6.14,2.82-9.07,4.42l-9.68,5.71c-12.11,7.85-21.25,17.7-21.39,28.65-.28,21.57,29.82,16.13,34.24,15.32a109,109,0,0,0,23.82-7.46.78.78,0,0,0,.51-.84c.05-3.72,2.07-12.79,2.18-13.34A101.87,101.87,0,0,1,391.21,362.5Z"/></g></g></svg>