<svg xmlns="http://www.w3.org/2000/svg" width="300" height="124.384" viewBox="0 0 300 124.384">
  <g id="LOGO" transform="translate(-550 -8995.759)">
    <g id="Group_1291" data-name="Group 1291">
      <path id="Path_6742" data-name="Path 6742" d="M763.8,9056.123a2.651,2.651,0,0,1-1.694-1.01l-.1-.135a17.228,17.228,0,0,0-2.516-2.133l-.086-.062.8-4.359.1-.026c8.1-2.166,13.939-6.043,19.469-12.934l-2.012-.405c-.679.716-1.362,1.364-1.369,1.37l-.5.473a56.485,56.485,0,0,1-6.395,5.172c-2.93,2.011-3.473,2.009-4,2.008l-.372-.03h0a2.721,2.721,0,0,1-1.6-.868,14.184,14.184,0,0,0-2.367-1.432l-.092-.047-.007-4.387.092-.047a37.932,37.932,0,0,0,14.673-13.062l.03-.046,2.727-.959.053.016c.27.083.712.2,1.2.336,1.344.368,2.174.6,2.66.8a2.89,2.89,0,0,1,2.094,2.925l.26,0,1.781-.021h.051a2.888,2.888,0,0,1,1.745-.284c1.7.264,3.561,2.479,3.858,2.9a2.95,2.95,0,0,1-1.18,4.579c-7.483,10.561-14.424,17.844-25.861,21.518a2.986,2.986,0,0,1-1.455.146Zm-4.026-3.485a16.733,16.733,0,0,1,2.506,2.147l.093.129a2.323,2.323,0,0,0,1.478.879,2.456,2.456,0,0,0,.386.027,2.58,2.58,0,0,0,.909-.158c11.368-3.653,18.27-10.909,25.723-21.434l.027-.036.042-.019a2.676,2.676,0,0,0,1.63-1.955,2.74,2.74,0,0,0-.546-2.147h0c-.267-.383-2.075-2.523-3.635-2.766a2.412,2.412,0,0,0-.363-.028,2.643,2.643,0,0,0-1.215.3l-.073.019h-.092l-1.779.021-.634.007.023-.189a2.568,2.568,0,0,0-1.873-2.765c-.469-.193-1.291-.423-2.59-.779-.487-.134-.91-.25-1.185-.332l-2.519.887a38.253,38.253,0,0,1-14.677,13.081l.006,3.976a13.763,13.763,0,0,1,2.362,1.45,2.407,2.407,0,0,0,1.4.771l.346.027c.462,0,.952,0,3.8-1.95a56.141,56.141,0,0,0,6.355-5.139l.5-.471c.008-.009.8-.765,1.529-1.541l2.227.375.335.376c-5.62,7.094-11.535,11.074-19.761,13.295Z" fill="#e0ff00"/>
      <path id="Path_6743" data-name="Path 6743" d="M764,9054.8a1.325,1.325,0,0,1-.829-.488l-.083-.114a13.006,13.006,0,0,0-2.14-1.928l-.081-.062.5-2.718.1-.028c8.063-2.311,13.9-6.309,19.51-13.362l-.966-1.975-3.11-.1c-.683.726-1.416,1.424-1.423,1.431l-.5.474a54.771,54.771,0,0,1-6.231,5.038c-2.252,1.545-2.876,1.764-3.189,1.772l-.26-.021a1.362,1.362,0,0,1-.776-.438l-.075-.076a11.8,11.8,0,0,0-1.952-1.27l-.086-.048,0-2.758.088-.048a39.125,39.125,0,0,0,14.2-12.764l.032-.045.051-.018,1.855-.652.052.013c.228.064.494.138.776.215l.064.018c1.225.337,2.059.569,2.471.739.9.358,1.325.911,1.269,1.645l1.24,1.383,2.233-.025.56-.141a1.524,1.524,0,0,1,.72-.175,1.566,1.566,0,0,1,.213.018c1.1.17,2.667,1.916,2.968,2.347a1.625,1.625,0,0,1-.651,2.606l-.511.419c-7.329,10.345-14.1,17.474-25.192,21.037l-.052.019a1.63,1.63,0,0,1-.555.095A1.488,1.488,0,0,1,764,9054.8Zm-2.768-2.731a14.292,14.292,0,0,1,2.127,1.934l.078.108a.986.986,0,0,0,.614.359,1.155,1.155,0,0,0,.181.014,1.267,1.267,0,0,0,.448-.075l.057-.021c11.012-3.539,17.745-10.633,25.039-20.933l.03-.032.583-.471a1.3,1.3,0,0,0,.534-2.119c-.326-.465-1.816-2.063-2.745-2.208a1.064,1.064,0,0,0-.165-.014,1.332,1.332,0,0,0-.6.151l-.633.16-2.421.03-1.441-1.605.009-.075c.073-.611-.272-1.061-1.055-1.373-.4-.162-1.222-.394-2.435-.726l-.063-.018c-.262-.071-.511-.14-.728-.2l-1.705.6a39.463,39.463,0,0,1-14.2,12.778l0,2.36a11.5,11.5,0,0,1,1.938,1.274l.084.086a1.039,1.039,0,0,0,.578.338l.224.018a10.66,10.66,0,0,0,2.993-1.715,54.631,54.631,0,0,0,6.189-5l.5-.475c.008-.007.779-.742,1.469-1.481l.061-.065.839.143,2.6-.022,1.151,2.353-.065.083c-5.65,7.133-11.531,11.184-19.646,13.529Z" fill="#e0ff00"/>
      <path id="Path_6744" data-name="Path 6744" d="M736.251,9055.453a2.639,2.639,0,0,1-1.922-1.326,20.061,20.061,0,0,0-2.622-2.347l-.085-.066,1.018-4.349.1-.021c8.482-1.705,13.9-6.035,17.04-13.616l-9.8.006-1.261,6.295-.046.038-2.346,1.916-3.887-.016-2.381-2.923.015-.077,2.385-11.815.047-.037,2.342-1.914h.06l3.808.01.542.662.643-.528h.059l14.7,0a2.9,2.9,0,0,1,1.238-.274l.4.032c1.377.213,3.517,2.044,4.153,2.953a2.829,2.829,0,0,1,.513,2.218,2.933,2.933,0,0,1-1.2,1.824c-4.307,12.473-11.147,19.638-22.171,23.228l-.092.015,0,.009-.01,0a2.769,2.769,0,0,1-.833.131A3.118,3.118,0,0,1,736.251,9055.453ZM732,9051.581a19.684,19.684,0,0,1,2.612,2.364,2.315,2.315,0,0,0,2.07,1.207l.12,0,0-.031.734-.115c10.9-3.553,17.681-10.667,21.951-23.062l.017-.051.044-.03a2.621,2.621,0,0,0,1.106-1.651,2.493,2.493,0,0,0-.46-1.96c-.575-.823-2.672-2.616-3.924-2.814l-.37-.029a2.57,2.57,0,0,0-1.115.26l-.071.016-14.681,0-.809.665-.653-.8-3.591-.008-2.2,1.8-2.346,11.622,2.181,2.678,3.609.014,2.209-1.8,1.291-6.445,10.567-.007-.092.23c-3.156,7.806-8.646,12.266-17.272,14.027Z" fill="aqua"/>
      <path id="Path_6745" data-name="Path 6745" d="M736.456,9054.133a1.305,1.305,0,0,1-.959-.654l-.1-.144a17.061,17.061,0,0,0-2.207-2.075l-.081-.065.633-2.7.1-.023c8.431-1.914,14.069-6.621,17.234-14.392l-1.139-1.689-10.035.008-1.216,1-1.182,5.9-1.651,1.35-2.777-.013-1.582-1.942.014-.077,2.166-10.73,1.649-1.346,2.758.007.205.25,1.744.172.349-.286h.059l14.262,0,.539-.127a1.457,1.457,0,0,1,.608-.147l.277.021a8.067,8.067,0,0,1,3.237,2.394,1.527,1.527,0,0,1,.3,1.189,1.6,1.6,0,0,1-.683,1.016l-.459.612c-4.144,12.019-10.693,18.923-21.23,22.386l-.5.08,0,.034-.19.008A1.313,1.313,0,0,1,736.456,9054.133Zm-2.969-3.064a16.653,16.653,0,0,1,2.188,2.075l.108.163a.992.992,0,0,0,.772.5l.034-.009.627-.1c10.41-3.422,16.9-10.27,21-22.2l.025-.046.526-.689a1.289,1.289,0,0,0,.57-.824,1.206,1.206,0,0,0-.245-.934,7.961,7.961,0,0,0-3.008-2.254l-.239-.019a1.281,1.281,0,0,0-.493.13l-.609.143H740.5l-.362.3-2.02-.2-.193-.237-2.481,0-1.464,1.194-2.127,10.535,1.384,1.7,2.5.01,1.467-1.2,1.182-5.9,1.4-1.147h.06l10.273-.008,1.337,1.984-.033.082c-3.19,7.9-8.883,12.69-17.4,14.651Z" fill="aqua"/>
      <path id="Path_6746" data-name="Path 6746" d="M700.795,9055.765a2.65,2.65,0,0,1-1.694-1.011l-.1-.133a17.29,17.29,0,0,0-2.515-2.133l-.086-.062.8-4.358.1-.027c8.1-2.166,13.939-6.042,19.47-12.933l-1.828.015-.184-.421c-.582.613-1.179,1.189-1.362,1.365l-.5.479a56.544,56.544,0,0,1-6.4,5.17c-2.933,2.012-3.476,2.01-4,2.007l-.368-.028h0a2.731,2.731,0,0,1-1.6-.868,14.777,14.777,0,0,0-2.365-1.432l-.093-.046-.008-4.389.092-.047a37.925,37.925,0,0,0,14.673-13.062l.031-.045,2.727-.96.052.016c.251.078.649.187,1.091.308l.134.036c1.31.361,2.139.592,2.631.794a2.892,2.892,0,0,1,2.1,2.925l2.091-.022a2.949,2.949,0,0,1,1.332-.316,2.793,2.793,0,0,1,.412.032c1.7.263,3.562,2.479,3.86,2.906a3.059,3.059,0,0,1,.6,2.4,3.024,3.024,0,0,1-1.778,2.174c-7.484,10.561-14.425,17.844-25.861,21.518a3,3,0,0,1-1.457.146Zm-4.024-3.485a16.539,16.539,0,0,1,2.505,2.147l.092.127a2.316,2.316,0,0,0,1.478.881,2.667,2.667,0,0,0,1.3-.131c11.368-3.652,18.27-10.909,25.724-21.433l.027-.036.042-.019a2.669,2.669,0,0,0,1.628-1.954,2.734,2.734,0,0,0-.544-2.147c-.283-.407-2.055-2.521-3.636-2.766a2.539,2.539,0,0,0-.363-.03,2.636,2.636,0,0,0-1.214.3l-.073.019-2.5.027.022-.188a2.567,2.567,0,0,0-1.872-2.765c-.467-.191-1.292-.424-2.594-.78l-.133-.037c-.417-.114-.795-.218-1.049-.295l-2.519.888a38.255,38.255,0,0,1-14.676,13.08l.006,3.977a14.311,14.311,0,0,1,2.362,1.45,2.37,2.37,0,0,0,1.4.771l.344.026c.461,0,.951,0,3.8-1.949a56.1,56.1,0,0,0,6.354-5.139l.5-.478c.2-.19.9-.864,1.522-1.536l.174-.187.3.686,2.307-.021-.217.273c-5.62,7.095-11.534,11.076-19.761,13.295Z" fill="#e28aff"/>
      <path id="Path_6747" data-name="Path 6747" d="M701,9054.444a1.328,1.328,0,0,1-.83-.49l-.082-.112a12.856,12.856,0,0,0-2.139-1.928l-.081-.062.5-2.719.1-.029c8.064-2.309,13.9-6.307,19.51-13.36l-.966-1.975-1.407.013.378.246-2.081-.356c-.685.73-1.412,1.422-1.419,1.429l-.5.479a55.132,55.132,0,0,1-6.23,5.037c-2.253,1.545-2.877,1.763-3.192,1.771l-.257-.019a1.383,1.383,0,0,1-.776-.44l-.075-.076a11.844,11.844,0,0,0-1.952-1.267l-.086-.048-.005-2.761.09-.048a39.126,39.126,0,0,0,14.195-12.764l.031-.045.051-.017,1.855-.653.888.244c1.228.337,2.063.57,2.476.741.9.355,1.324.909,1.268,1.645l1.24,1.382,2.246-.024.546-.141a1.534,1.534,0,0,1,.721-.176,1.568,1.568,0,0,1,.214.019c1.1.17,2.667,1.917,2.968,2.349a1.623,1.623,0,0,1-.652,2.6l-.509.42c-7.33,10.346-14.1,17.474-25.194,21.037l-.051.019a1.643,1.643,0,0,1-.561.095A1.661,1.661,0,0,1,701,9054.444Zm-2.766-2.732a13.829,13.829,0,0,1,2.125,1.936l.077.1a.981.981,0,0,0,.615.363,1.31,1.31,0,0,0,.629-.062l.058-.02c11.011-3.539,17.743-10.633,25.039-20.934l.03-.031.582-.471a1.3,1.3,0,0,0,.535-2.119c-.325-.466-1.817-2.064-2.745-2.209a1.215,1.215,0,0,0-.166-.014,1.316,1.316,0,0,0-.6.153l-.62.158-2.434.03-1.44-1.6.008-.076c.073-.612-.273-1.061-1.055-1.371-.4-.165-1.223-.4-2.438-.728l-.788-.219-1.705.6a39.454,39.454,0,0,1-14.2,12.776l0,2.363a12.35,12.35,0,0,1,1.937,1.274l.085.085a1.054,1.054,0,0,0,.578.339l.222.016a10.587,10.587,0,0,0,2.994-1.715,54.47,54.47,0,0,0,6.189-5l.5-.477c.008-.008.771-.733,1.466-1.481l.062-.065.841.145,2.6-.022,1.15,2.353-.065.083c-5.649,7.133-11.529,11.184-19.644,13.528Z" fill="#e28aff"/>
      <path id="Path_6748" data-name="Path 6748" d="M673.915,9055.174a2.633,2.633,0,0,1-1.923-1.327,20.363,20.363,0,0,0-2.622-2.346l-.085-.065,1.018-4.349.106-.021c8.481-1.705,13.9-6.034,17.039-13.617l-9.8.006-1.26,6.3-2.394,1.954-3.886-.017-2.381-2.922.016-.076,2.385-11.816,2.389-1.951h.06l3.807.008.543.663.642-.527h.06l14.7,0a2.888,2.888,0,0,1,1.237-.276l.4.032c1.378.213,3.518,2.045,4.153,2.955a2.814,2.814,0,0,1,.513,2.216,2.937,2.937,0,0,1-1.2,1.826c-4.307,12.471-11.147,19.636-22.172,23.227l-.092.016,0,.008h0a2.688,2.688,0,0,1-.839.134A2.882,2.882,0,0,1,673.915,9055.174Zm-4.256-3.871a19.766,19.766,0,0,1,2.612,2.363,2.319,2.319,0,0,0,2.071,1.207c.041,0,.08,0,.118,0l0-.03.735-.115c10.9-3.554,17.682-10.669,21.95-23.062l.018-.051.044-.031a2.625,2.625,0,0,0,1.106-1.651,2.494,2.494,0,0,0-.459-1.959c-.575-.824-2.674-2.615-3.926-2.814l-.37-.03a2.578,2.578,0,0,0-1.114.261l-.072.017-14.681,0-.808.666-.654-.8-3.591-.007-2.2,1.8-2.346,11.622,2.181,2.677,3.609.015,2.208-1.8,1.291-6.446,10.568-.007-.093.229c-3.155,7.808-8.645,12.267-17.271,14.028Z" fill="#ffe652"/>
      <path id="Path_6749" data-name="Path 6749" d="M674.12,9053.854a1.3,1.3,0,0,1-.96-.652l-.095-.147a16.68,16.68,0,0,0-2.207-2.071l-.08-.066.632-2.7.1-.022c8.43-1.915,14.068-6.624,17.234-14.394l-1.139-1.687-10.035,0-1.217,1-1.181,5.9-1.653,1.35-2.775-.012-1.584-1.943.016-.077,2.165-10.729,1.649-1.348,2.759.008.205.249,1.745.174.347-.286h.06l14.262,0,.539-.127a1.444,1.444,0,0,1,.609-.148l.275.021a8.047,8.047,0,0,1,3.237,2.394,1.518,1.518,0,0,1,.3,1.188,1.594,1.594,0,0,1-.683,1.017l-.458.613c-4.145,12.018-10.693,18.922-21.23,22.384l-.5.079,0,.037-.19.006A1.233,1.233,0,0,1,674.12,9053.854Zm-2.97-3.063a16.671,16.671,0,0,1,2.189,2.073l.108.166a.948.948,0,0,0,.772.5l.032-.008.629-.1c10.408-3.422,16.893-10.268,21-22.194l.024-.046.527-.689a1.283,1.283,0,0,0,.57-.826,1.2,1.2,0,0,0-.246-.931,7.936,7.936,0,0,0-3.009-2.255l-.238-.019a1.244,1.244,0,0,0-.492.129l-.61.144H678.168l-.363.3-2.02-.2-.192-.235-2.482-.006-1.464,1.2-2.126,10.536,1.384,1.7,2.5.01,1.467-1.2,1.181-5.9,1.4-1.148h.06l10.272-.006,1.338,1.982-.033.082c-3.191,7.9-8.884,12.689-17.4,14.652Z" fill="#ffe652"/>
    </g>
    <path id="Path_6750" data-name="Path 6750" d="M705.358,9099.987a2.6,2.6,0,0,1-2.213-2.47,13.823,13.823,0,0,0-.974-2.325l-.047-.093,2.588-3.538.392.065c.577.091,1.045.146,1.425.167l.432-2.278c-.042,0-.084-.01-.127-.017a2.967,2.967,0,0,1-2.293-1.983,33.21,33.21,0,0,1-.881-3.707l-.012-.065,1.81-2.812.064-.017c1.088-.268,2.177-.564,3.235-.877l.263-1.384-1.323.01-.05-.061-2.364-2.834.581-3.064.046-.037,2.324-1.94h.059l2.233-.017.4-2.09c.067-.362.282-1.56.384-2.518l.007-.065.05-.043,2.483-2.131.122.006c1.68.081,2.942.159,3.552.221.1.008.2.021.3.036a3.092,3.092,0,0,1,2.083,1.237,2.736,2.736,0,0,1,.453,2.1,2.836,2.836,0,0,1-.416,1.012l2.012.411c.157-.973.243-1.634.306-2.124l.065-.5.05-.042,2.457-2.062.065,0c.738.03,2.473.105,3.45.191l.069.006a4.269,4.269,0,0,1,1.081.262l.778-.642.065,0c.571.03,2.5.144,3.6.308l.118.017a3.188,3.188,0,0,1,2.2,1.284,2.729,2.729,0,0,1,.456,2.093c-.013.073-.031.146-.05.218l1.112-.177.057.046c2.592,2.022,4.018,3.137,3.641,5.134h0a2.866,2.866,0,0,1-2.708,2.313c-1.139,1.121-2.744,2.667-4.1,3.852a28.307,28.307,0,0,1,4.111,5.139l.032.054-.518,3.136-1.688,1.408a3.573,3.573,0,0,0,.5.462l.676.579a2.665,2.665,0,0,1,.631,2.267l-.079.336c-1.121,3.613-2.761,7.135-9.32,7.186a10.3,10.3,0,0,1-1.713-.114,5.452,5.452,0,0,1-3.788-2.175,5.167,5.167,0,0,1-.908-2.928,21.455,21.455,0,0,1-6.144,5.211,2.7,2.7,0,0,1-1.512.462l-.429-.031h0a2.659,2.659,0,0,1-1.567-.856,8.97,8.97,0,0,0-1.232-.661,8.741,8.741,0,0,1-5.193,1.475l-.613.006A3.252,3.252,0,0,1,705.358,9099.987Zm-2.843-4.856a13.185,13.185,0,0,1,.961,2.347,2.277,2.277,0,0,0,1.934,2.18,2.718,2.718,0,0,0,.479.032l.624-.007a8.349,8.349,0,0,0,5.076-1.467l.08-.06.09.042a9.287,9.287,0,0,1,1.41.763,2.358,2.358,0,0,0,1.38.771l.4.027a2.359,2.359,0,0,0,1.326-.412,21.112,21.112,0,0,0,6.361-5.52l.327-.423-.028.532a5.013,5.013,0,0,0,.842,3.22,5.122,5.122,0,0,0,3.567,2.036,9.837,9.837,0,0,0,1.657.109c6.333-.047,7.92-3.455,9-6.94l.072-.308a2.327,2.327,0,0,0-.539-1.97l-.639-.547a4.856,4.856,0,0,1-.671-.63l-.121-.129,1.867-1.557.477-2.89a28.165,28.165,0,0,0-4.156-5.15l-.13-.127.137-.118c1.4-1.208,3.094-2.841,4.27-4l.046-.046.063,0a2.509,2.509,0,0,0,2.459-2.045c.338-1.784-1.009-2.851-3.46-4.764l-1.521.24.1-.27a2.637,2.637,0,0,0,.12-.427,2.4,2.4,0,0,0-.4-1.839A2.863,2.863,0,0,0,734,9064.64l-.113-.017c-1.044-.155-2.874-.266-3.5-.3l-.831.686-.092-.039a3.846,3.846,0,0,0-1.083-.274l-.064-.006c-.956-.085-2.653-.158-3.368-.188l-2.309,1.938-.048.365c-.067.521-.159,1.235-.335,2.308l-.028.172-2.375-.485s-.338-.295-.246-.424a2.491,2.491,0,0,0,.423-.973,2.408,2.408,0,0,0-.4-1.847,2.758,2.758,0,0,0-1.861-1.1c-.088-.014-.18-.025-.277-.034-.607-.061-1.858-.139-3.527-.22l-2.332,2c-.1.958-.315,2.12-.377,2.459l-.452,2.378-2.446.019-2.186,1.826-.53,2.791,2.213,2.652,1.57-.012-.375,1.982-.1.029c-1.074.32-2.178.621-3.283.894L704,9083.813a32.052,32.052,0,0,0,.853,3.588,2.639,2.639,0,0,0,2.032,1.768,2.077,2.077,0,0,0,.279.027l.2.006-.557,2.937-.143,0a13.907,13.907,0,0,1-1.609-.178l-.19-.032Z" fill="#ffe652"/>
    <path id="Path_6751" data-name="Path 6751" d="M705.566,9098.669a1.274,1.274,0,0,1-1.089-1.229l-.018-.153a10.39,10.39,0,0,0-.74-1.96l-.041-.089,1.631-2.23.1.015c.454.062.834.1,1.159.11l1.26-1.008.467-2.469-1.166-1.464a1.607,1.607,0,0,1-1.333-1.139,28.205,28.205,0,0,1-.72-2.97l-.013-.066,1.233-1.918.063-.016c.951-.242,1.905-.5,2.835-.781l.868-.961.3-1.56-1.221-1.464-.817.007-1.606-1.925.374-1.976,1.637-1.365h.059l1.831-.013,1.211-1.011.41-2.166c.009-.043.2-1.062.337-2.094l.008-.064,1.733-1.488.068,0c1.444.075,2.483.142,3.005.194.095.008.162.017.225.027a1.772,1.772,0,0,1,1.2.686,1.392,1.392,0,0,1,.235,1.083,1.551,1.551,0,0,1-.362.712l1.184,1.605,1.919.683,1.467-1.011c.151-.924.242-1.6.318-2.186l.008-.064,1.713-1.437.064,0c.9.039,2.128.1,2.873.166l.193.024a2.741,2.741,0,0,1,.607.165l1.275-.188.415-.343.066,0c.6.037,2.079.137,2.95.266l.1.016a1.886,1.886,0,0,1,1.321.733,1.38,1.38,0,0,1,.237,1.074,1.644,1.644,0,0,1-.042.164l1.338,1.649.712-.112.057.045c2.294,1.81,2.888,2.446,2.693,3.476a1.512,1.512,0,0,1-1.488,1.23l-.821.357c-.947.933-2.713,2.644-4.144,3.884l-.056,1.82a27.519,27.519,0,0,1,3.72,4.538l.034.054-.356,2.149-1.389,1.158-.111,1.795a5.708,5.708,0,0,0,.742.689l.525.449a1.316,1.316,0,0,1,.281,1.084l-.054.224c-1.05,3.377-2.379,6.167-8.044,6.211a9.176,9.176,0,0,1-1.493-.1,4.168,4.168,0,0,1-2.9-1.623,3.941,3.941,0,0,1-.665-2.47l-2.163-.8a20.115,20.115,0,0,1-5.975,5.155l-.084.054a1.36,1.36,0,0,1-.73.233l-.3-.021a1.341,1.341,0,0,1-.739-.422l-.159-.148a9.862,9.862,0,0,0-1.555-.857l-1.275.139a7.434,7.434,0,0,1-4.442,1.236l-.613,0A1.964,1.964,0,0,1,705.566,9098.669Zm-1.5-3.393a10.721,10.721,0,0,1,.726,1.959l.021.173a.955.955,0,0,0,.809.931,1.4,1.4,0,0,0,.26.014l.625,0a7.081,7.081,0,0,0,4.28-1.2l.036-.028,1.458-.157.041.021a10.183,10.183,0,0,1,1.676.925l.18.167a1,1,0,0,0,.546.326l.264.018a1.022,1.022,0,0,0,.542-.181l.1-.061a19.781,19.781,0,0,0,5.955-5.17l.075-.1,2.623.966-.006.122a3.677,3.677,0,0,0,.6,2.385,3.849,3.849,0,0,0,2.685,1.485,8.716,8.716,0,0,0,1.437.094c5.44-.041,6.717-2.726,7.726-5.965l.044-.18a1,1,0,0,0-.192-.812l-.489-.415a6.086,6.086,0,0,1-.829-.774l-.049-.054.129-2.081,1.405-1.172.315-1.9a27.263,27.263,0,0,0-3.691-4.479l-.052-.051.065-2.113.055-.047c1.445-1.247,3.255-3,4.206-3.938l.05-.035.936-.4a1.2,1.2,0,0,0,1.207-.961c.153-.8-.271-1.333-2.515-3.105l-.758.119-1.577-1.944.034-.09a1.082,1.082,0,0,0-.125-1.021,1.575,1.575,0,0,0-1.1-.595l-.1-.015c-.845-.125-2.326-.227-2.857-.259l-.385.317-1.457.215-.043-.017a2.385,2.385,0,0,0-.575-.161l-.172-.022c-.72-.062-1.9-.121-2.791-.161l-1.513,1.271c-.077.59-.17,1.27-.323,2.2l-.012.07-1.7,1.171-2.215-.825-1.4-1.849.109-.1a1.217,1.217,0,0,0,.367-.64,1.064,1.064,0,0,0-.179-.829,1.435,1.435,0,0,0-.978-.548c-.056-.01-.117-.018-.2-.025-.512-.051-1.522-.117-2.926-.187l-1.535,1.316c-.137,1.021-.324,2.008-.332,2.05l-.432,2.285-1.394,1.162h-.06l-1.831.013-1.453,1.215-.323,1.7,1.405,1.684.815-.007,1.424,1.706-.343,1.807-.993,1.1-.045.014c-.928.275-1.879.539-2.828.781l-1.09,1.693a25.127,25.127,0,0,0,.693,2.855,1.276,1.276,0,0,0,1.111.923l.076,0,1.355,1.7-.518,2.739-1.454,1.163-.061,0c-.325-.011-.7-.045-1.155-.1Z" fill="#ffe652"/>
    <path id="Path_6752" data-name="Path 6752" d="M747.475,9100.122l-.05-.061-2.364-2.833.6-3.186-4.254.033-.05-.062L739,9091.183l.568-3,.046-.037,1.677-1.4-.266-.319.014-.077,2.662-14.041,1.47-1.227a14.246,14.246,0,0,0-.882-2.136l-.091-.181,1.343-3.375,2.943-1.077,2.552.932.391-.75,2.881-.715,2.812,1.389.026.054c.007.017.082.2.194.513.1-.191.188-.379.275-.568l.027-.057,2.954-1.291.06.019a33.569,33.569,0,0,1,3.177,1.163c.062.031.121.064.179.1l1.568-1.355.067,0c1.5.071,3.39.171,3.877.235l.123.02a3.3,3.3,0,0,1,2.125,1.294l1.556.243.039.044a18.509,18.509,0,0,1,3.323,5.715l.018.055-.019.054-.766,2.22.964.937-.253,3.029-1.855,1.916a2.811,2.811,0,0,1,.424,2.087,3.09,3.09,0,0,1-2.184,2.337c-.613,1-1.127,1.8-1.632,2.545l1.349-.216.059.1a15.888,15.888,0,0,0,1.44,2.044,2.7,2.7,0,0,1,1.1,2.728l-.02.105-.088.336c-1.7,5-4.518,7.99-7.53,8.015a4.749,4.749,0,0,1-.755-.057c-1.768-.28-3.214-1.516-4.3-3.672a35.964,35.964,0,0,1-6.514,3.863,2.72,2.72,0,0,1-1.278.312,2.621,2.621,0,0,1-2.154-1.079c-.073-.056-.234-.169-.441-.3l-1.739,1.449-.059,0Zm-2.057-2.986,2.213,2.651,2.757-.021,1.836-1.531.1.065a6.845,6.845,0,0,1,.607.427,2.309,2.309,0,0,0,1.908.971,2.4,2.4,0,0,0,1.132-.277,35.6,35.6,0,0,0,6.622-3.951l.163-.124.088.185c1.046,2.165,2.44,3.4,4.141,3.669a4.427,4.427,0,0,0,.7.053c2.863-.023,5.56-2.931,7.213-7.777l.1-.405a2.358,2.358,0,0,0-.972-2.4l-.024-.02a15.435,15.435,0,0,1-1.442-2.021l-1.895.3.221-.32c.583-.848,1.161-1.743,1.875-2.9l.033-.054.061-.02a2.766,2.766,0,0,0,2.012-2.1,2.49,2.49,0,0,0-.445-1.946l-.083-.113,1.965-2.028.231-2.754-1.005-.974.818-2.368a18.216,18.216,0,0,0-3.2-5.5l-1.588-.248-.04-.069a2.955,2.955,0,0,0-1.939-1.2l-.114-.018c-.363-.05-1.7-.131-3.779-.229l-1.647,1.425-.1-.062c-.085-.051-.171-.1-.262-.146a32.218,32.218,0,0,0-3.071-1.125l-2.722,1.19c-.135.288-.281.579-.432.871l-.181.349-.126-.372c-.137-.406-.245-.687-.289-.8l-2.594-1.279-2.616.65-.457.875-2.712-.99-2.687.984-1.233,3.1.022.045a14.592,14.592,0,0,1,.938,2.295l.032.106L744,9072.492l-2.625,13.844.379.456-1.887,1.575-.517,2.723,2.214,2.651,4.5-.035Z" fill="#e28aff"/>
    <path id="Path_6753" data-name="Path 6753" d="M748.1,9098.782l-1.606-1.924.509-2.688-1.221-1.463-3.748.028-1.6-1.925.361-1.905,1.432-1.194.192-2.129.076.289,2.434-12.84,1.148-.96.392-1.324a15.788,15.788,0,0,0-.774-1.974l-.031-.066.9-2.265,1.924-.705,2.171.793,1.525-.591.151-.291,1.823-.452,1.91.942.022.063c.025.068.051.145.08.228l2.231.173q.113-.217.208-.411l.027-.055.056-.024,1.975-.862.061.019a25.512,25.512,0,0,1,2.515.932c.045.022.09.048.136.076l1.461-.12,1.212-1.05.066,0c1.68.083,2.883.155,3.217.2l.087.014a2,2,0,0,1,1.235.712l0,0,.04.062.828.521,1.1.172.041.051a17.7,17.7,0,0,1,2.6,4.469l.022.057-.651,1.887.309,1.3.553.536-.161,1.925-1.576,1.628-.111,1.6a1.464,1.464,0,0,1,.234,1.116,1.751,1.751,0,0,1-1.288,1.316l-.7.542c-.657,1.069-1.222,1.945-1.769,2.745l1.194,1.89.753-.121.06.089a11.9,11.9,0,0,0,1.163,1.545l.186.153a1.356,1.356,0,0,1,.537,1.377l-.075.3c-1.492,4.345-3.889,7.047-6.261,7.064-1.581,0-2.894-1.042-3.9-3.084l-1.857-.448a34.451,34.451,0,0,1-6.363,3.79l-.065.032a1.393,1.393,0,0,1-.661.156,1.257,1.257,0,0,1-1.063-.523l-.213-.227a7.13,7.13,0,0,0-.649-.459l-1.467.093-1.424,1.188Zm-1.25-2.018,1.406,1.683,1.647-.013,1.417-1.182,1.684-.105.046.028a7.672,7.672,0,0,1,.746.528l.241.257a.924.924,0,0,0,.8.4,1.062,1.062,0,0,0,.512-.119l.074-.037a34.228,34.228,0,0,0,6.369-3.8l.063-.048,2.163.521.034.072c.95,1.967,2.166,2.981,3.631,2.966,2.225-.017,4.5-2.633,5.944-6.827l.065-.267a1.026,1.026,0,0,0-.408-1.047l-.211-.174a12.29,12.29,0,0,1-1.156-1.517l-.759.121-1.429-2.261.062-.092c.568-.826,1.152-1.73,1.837-2.848l.041-.044.8-.608a1.439,1.439,0,0,0,1.087-1.066,1.144,1.144,0,0,0-.212-.909l-.036-.049.128-1.838,1.578-1.629.139-1.649-.509-.494-.355-1.489.643-1.864a17.386,17.386,0,0,0-2.491-4.272l-1.039-.163-.984-.646a1.614,1.614,0,0,0-1.062-.635l-.076-.013c-.312-.038-1.506-.111-3.12-.19l-1.194,1.031-1.679.141-.047-.03c-.052-.033-.1-.062-.156-.09a25.485,25.485,0,0,0-2.408-.892l-1.8.787c-.071.146-.15.3-.235.461l-.051.1-2.669-.208-.036-.1c-.033-.095-.063-.183-.091-.262l-1.68-.828-1.558.387-.139.268-1.76.682-2.174-.793-1.668.611-.793,1.992a15.991,15.991,0,0,1,.774,2l.015.048-.448,1.519-1.134.947-2.6,13.732-.085.936-1.445,1.207-.31,1.633,1.4,1.684,3.748-.029,1.422,1.705Z" fill="#e28aff"/>
    <g id="Group_1325" data-name="Group 1325">
      <g id="Group_1294" data-name="Group 1294">
        <g id="Group_1292" data-name="Group 1292">
          <path id="Path_6754" data-name="Path 6754" d="M735.552,9001.427h.054l.14,0Z" fill="#fff"/>
          <path id="Path_6755" data-name="Path 6755" d="M736.471,9001.439a.32.32,0,0,1-.042,0l-.539,0Z" fill="#fff"/>
          <path id="Path_6756" data-name="Path 6756" d="M736.63,9001.442c.209,0,.295,0,.344,0C736.9,9001.446,736.584,9001.436,736.63,9001.442Z" fill="#fff"/>
          <path id="Path_6757" data-name="Path 6757" d="M755.054,9001.6l-.065,0A.159.159,0,0,0,755.054,9001.6Z" fill="#fff"/>
          <path id="Path_6758" data-name="Path 6758" d="M749.9,9001.455l.01,0C749.937,9001.453,749.923,9001.453,749.9,9001.455Z" fill="#fff"/>
          <path id="Path_6759" data-name="Path 6759" d="M848.348,9000.68l.121,0Z" fill="#fff"/>
        </g>
        <g id="Group_1293" data-name="Group 1293">
          <path id="Path_6760" data-name="Path 6760" d="M735.342,9002.963h0Z" fill="#fff"/>
          <path id="Path_6761" data-name="Path 6761" d="M736.264,9002.961h0Z" fill="#fff"/>
          <path id="Path_6762" data-name="Path 6762" d="M736.423,9002.961c.2,0,.287,0,.346,0C736.661,9002.961,736.554,9002.96,736.423,9002.961Z" fill="#fff"/>
          <path id="Path_6763" data-name="Path 6763" d="M754.915,9002.932l-.065,0Z" fill="#fff"/>
          <path id="Path_6764" data-name="Path 6764" d="M749.739,9002.912h0Z" fill="#fff"/>
          <path id="Path_6765" data-name="Path 6765" d="M848.546,9001.365l.122.015C848.658,9001.364,848.585,9001.368,848.546,9001.365Z" fill="#fff"/>
        </g>
      </g>
      <g id="Group_1299" data-name="Group 1299">
        <g id="Group_1297" data-name="Group 1297">
          <g id="Group_1296" data-name="Group 1296">
            <g id="Group_1295" data-name="Group 1295">
              <path id="Path_6766" data-name="Path 6766" d="M748.921,9120.142a.334.334,0,0,1-.292-.281c-.4-2.578-1.122-3.327-3.518-3.6l-.054-.006h0a.334.334,0,0,1-.017-.662c2.421-.4,3.114-1.18,3.369-3.795a.334.334,0,0,1,.323-.3.329.329,0,0,1,.34.283c.4,2.575,1.122,3.325,3.511,3.6a.245.245,0,0,1,.061.007.333.333,0,0,1,.017.66c-2.42.4-3.112,1.184-3.368,3.8a.334.334,0,0,1-.323.3A.389.389,0,0,1,748.921,9120.142Zm-2.285-4.429a2.219,2.219,0,1,0,4.428.212,2.219,2.219,0,1,0-4.428-.212Z" fill="#fff"/>
            </g>
          </g>
        </g>
        <g id="Group_1298" data-name="Group 1298">
          <line id="Line_11" data-name="Line 11" x2="197.896" transform="translate(550 9117.183)" stroke="#fff" stroke-miterlimit="10" stroke-width="0.359"/>
          <line id="Line_12" data-name="Line 12" x2="197.896" transform="translate(550 9115.609)" stroke="#fff" stroke-miterlimit="10" stroke-width="0.359"/>
        </g>
      </g>
      <g id="Group_1304" data-name="Group 1304">
        <g id="Group_1300" data-name="Group 1300">
          <path id="Path_6767" data-name="Path 6767" d="M597.715,9001.79a5.971,5.971,0,0,1-.628-1.122c-.289.791-.706,1.595-1.084,1.595-.328,0-.812-.777-.857-.866a13.261,13.261,0,0,0,1.757-2.233.728.728,0,0,0,.161.012c.19,0,.291-.063.3-.128s-.032-.152-.145-.216c-.281-.166-1.036-.484-1.036-.484a11.158,11.158,0,0,1-1.378,2.042,7.7,7.7,0,0,1-.046-2.359l3.205,0,.207-1.009h-1.161l.505-.37a6.169,6.169,0,0,0-1.156-.765l-.806.549a3.453,3.453,0,0,1,.864.588h-1.527l.162-.791c.288-.052.4-.128.42-.2s-.069-.153-.218-.165c-.355-.053-1.291-.1-1.291-.1-.033.345-.078.689-.131,1.008-.019.09-.022.166-.04.256l-5.313,0s-.359,2-.443,2.41a6.651,6.651,0,0,1-2.342,4.045,5.4,5.4,0,0,1,1.2.317h.025c.1,0,1.628-1.353,2.231-4.3.073-.357.275-1.467.275-1.467l4.266,0a9.308,9.308,0,0,0,.224,3.277,7.853,7.853,0,0,1-1.5,1.047l.468-2.282-3.344,0-.567,2.768h.908l.116-.562h1.527l-.032.152h.782a7.564,7.564,0,0,1-2.049.7,5.886,5.886,0,0,1,1.056.636l-.386.219a4.111,4.111,0,0,1,1.315,1.528l1.065-.765a5.117,5.117,0,0,0-1.248-1.173,9.476,9.476,0,0,0,2.25-1.379c.6,1.058,1.223,1.236,1.6,1.235,1.11,0,1.841-1.53,1.854-1.595A.083.083,0,0,0,597.715,9001.79Zm-6.04-.264h-1.527l.138-.677h1.528Z" fill="#fff"/>
        </g>
        <path id="Path_6768" data-name="Path 6768" d="M593.209,8998.655l-3.458,0-.17.829,3.458,0Z" fill="#fff"/>
        <path id="Path_6769" data-name="Path 6769" d="M595.876,9006.638l1.277-.754a7.607,7.607,0,0,0-1.879-2.218l-1.072.549A5.659,5.659,0,0,1,595.876,9006.638Z" fill="#fff"/>
        <path id="Path_6770" data-name="Path 6770" d="M590.406,9004.205c.22-.026.38-.128.4-.217s-.047-.141-.218-.166c-.282-.038-1.244-.088-1.332-.088-.016.14-.053.318-.084.472l-.052.255-.3,1.353-.005.025c-.217,1.059.607,1.287,2.475,1.286,1.766,0,2.916-.193,3.359-1.43l.008-.039a.059.059,0,0,0-.026-.064,4.891,4.891,0,0,1-1.038-.841c-.286,1.212-.613,1.327-2.19,1.329-1.388,0-1.389-.178-1.261-.8C590.218,9004.881,590.342,9004.4,590.406,9004.205Z" fill="#fff"/>
        <path id="Path_6771" data-name="Path 6771" d="M586.382,9006.912a9.305,9.305,0,0,0,2.1-2.221.519.519,0,0,0,.146.024c.151,0,.28-.076.3-.152.055-.269-1.237-.611-1.237-.611a7.036,7.036,0,0,1-2.506,2.5,4.271,4.271,0,0,1,1.17.446A.039.039,0,0,0,586.382,9006.912Z" fill="#fff"/>
        <path id="Path_6772" data-name="Path 6772" d="M610.436,8998.5c.156-.7.352-1.658.452-2.143.235-.038.379-.128.4-.2s-.063-.128-.234-.153c-.441-.062-1.332-.088-1.332-.088-.024.306-.182,1.135-.339,1.9q-.075.363-.141.688H608l-.224,1.1H609c-.526,2.259-1.543,5.8-4.857,7.324a5.506,5.506,0,0,1,1.238.484.038.038,0,0,0,.035.013.292.292,0,0,0,.094-.024c2.978-1.788,4.084-5.463,4.663-7.8h1.262c-1.056,4.849-1.379,6.3-2.553,6.3a5.06,5.06,0,0,1-1.194-.268,5.824,5.824,0,0,1,.351,1.364c0,.051.025.064.073.077a3.347,3.347,0,0,0,.62.05,2.379,2.379,0,0,0,2.29-1.57,43.66,43.66,0,0,0,1.812-7.054Z" fill="#fff"/>
        <path id="Path_6773" data-name="Path 6773" d="M600.306,9005.64a10.914,10.914,0,0,0,.166,1.16c.036.128.089.179.152.179s.145-.09.181-.268l.016-.077c1.816-.243,4.031-.7,5.08-.96a.105.105,0,0,0,.079-.076l.01-.051c.055-.268.258-.829.258-.829-.281.076-1.14.269-2.224.447l.131-.637,2.125-.027.18-.88-2.125.027.149-.729h1.085l-.05.242h.96l.8-3.89h-2.044l.123-.6,2.511,0,.18-.88h-2.511l.128-.625a16.64,16.64,0,0,0,1.7-.23c.125.128.216.179.279.179s.1-.038.109-.1a.389.389,0,0,0-.007-.152,4.666,4.666,0,0,0-.392-.855,15.367,15.367,0,0,1-3.973.424c-.391,0-.755-.012-1.052-.038a3.226,3.226,0,0,1,.345.843c0,.051.022.076.072.076.556,0,1.217-.026,1.868-.065l-.112.549-2.536,0-.18.88,2.536,0-.123.6h-2.006l-.8,3.916h.959l.055-.269h1.047l-.151.74-2.227.027-.192.88,2.238-.027-.164.8C602.094,9005.473,601.162,9005.588,600.306,9005.64Zm4.743-5.6h1.111l-.141.688h-1.111Zm-.287,1.4h1.11l-.146.714h-1.111Zm-1.769-1.4h1.072l-.141.688h-1.072Zm-.434,2.117.146-.714h1.073l-.146.715Z" fill="#fff"/>
        <g id="Group_1301" data-name="Group 1301">
          <path id="Path_6774" data-name="Path 6774" d="M622.5,8997.271a7.25,7.25,0,0,0-6.631,5.207c-.306,1.493.423,2.984,1.533,2.984a2.337,2.337,0,0,0,1.489-.741,13.114,13.114,0,0,0,3.673-5.793,3.7,3.7,0,0,0,.069-.521,2.483,2.483,0,0,1,2.3,3.1c-.538,2.628-3.365,3.739-5.85,3.919a7.193,7.193,0,0,1,1.132,1.186.055.055,0,0,0,.056.039c.315,0,5.206-1.024,6.04-5.094C626.775,8999.3,625.348,8997.269,622.5,8997.271Zm-4.313,6.455a.877.877,0,0,1-.522.269c-.266,0-.756-.561-.555-1.542a6.112,6.112,0,0,1,4.167-3.957,2.494,2.494,0,0,1-.064.434A10.679,10.679,0,0,1,618.184,9003.727Z" fill="#fff"/>
        </g>
        <g id="Group_1302" data-name="Group 1302">
          <path id="Path_6775" data-name="Path 6775" d="M640.263,8999.963l-5.186,0-.23,1.122a7.043,7.043,0,0,0,.418-.931s.673.1.961.177c.13.039.193.1.183.154-.016.076-.145.152-.388.166-.04.076-.113.242-.235.472h.832c.051,0,.158-.09.221-.09a3.12,3.12,0,0,1,.494.355h1.477l.089-.434s.066-.383.108-.715c.076,0,.858.063,1.067.09a.278.278,0,0,1,.108.025Z" fill="none"/>
          <path id="Path_6776" data-name="Path 6776" d="M641.088,9001.11l.429-2.092h-1.4a10.147,10.147,0,0,0,.717-1.032h.038c.227,0,.318-.077.331-.142s-.034-.14-.13-.165c-.239-.063-1.151-.293-1.151-.293a9.67,9.67,0,0,1-.9,1.633l-1.174,0,.581-.129a4.034,4.034,0,0,0-.215-1.287l-.988.2a3.754,3.754,0,0,1,.155,1.212h-1.4l.531-.129a3.94,3.94,0,0,0-.418-1.224l-1.006.294a2.345,2.345,0,0,1,.351,1.059h-1.162l-.444,2.169h.972a9.146,9.146,0,0,1-1.913,2.5l1.493-7.284-3,0-2.054,10.025h1.009l.233-1.136h1.01l-.105.51h.984l.335-1.633a2.007,2.007,0,0,1,.546.23c.01.012.035.012.048.012s.04-.013.071-.038a11.656,11.656,0,0,0,1.867-2.4h.807a9.739,9.739,0,0,1-.643,1.352,6.244,6.244,0,0,0-.575-.394l-.657.8a5.206,5.206,0,0,1,.643.5,7.125,7.125,0,0,1-3.226,2.565,4,4,0,0,1,.981.511.039.039,0,0,0,.035.012.269.269,0,0,0,.068-.025c2.938-1.468,4.3-5.27,4.4-5.525l.056-.025-.123.6h.164l-.384,1.875h-.795l-.214,1.047,2.157,0-.418,2.041h.984l.418-2.041h1.212l.214-1.046h-1.211l.384-1.875h.921l.221-.956h-.946l.058-.28.031-.153a1.641,1.641,0,0,1,.065-.255.609.609,0,0,0,.177-.064l-.1.474Zm-9.294,3.118h-1.009l.347-1.7h1.01Zm.56-2.729h-1.01l.3-1.479h1.01Zm.514-2.513h-1.009l.318-1.557,1.01,0Zm5.362,5.238h-.581l.385-1.875h.58Zm1.844-3.891c-.209-.026-.991-.089-1.067-.09-.042.332-.108.715-.108.715l-.089.434h-1.477a3.12,3.12,0,0,0-.494-.355c-.063,0-.17.09-.221.09h-.832c.122-.229.2-.4.235-.472.243-.014.372-.09.388-.166.01-.051-.053-.115-.183-.154-.288-.075-.961-.177-.961-.177a7.043,7.043,0,0,1-.418.931l.23-1.122,5.186,0-.081.4A.278.278,0,0,0,640.074,9000.334Z" fill="#fff"/>
        </g>
        <path id="Path_6777" data-name="Path 6777" d="M635.178,8997.5a47.521,47.521,0,0,0,5.97-.5.572.572,0,0,0,.334.152.123.123,0,0,0,.134-.1.267.267,0,0,0-.046-.2c-.162-.255-.609-.9-.609-.9a22.058,22.058,0,0,1-5.4.539c-.315,0-.643,0-.968-.013a3.836,3.836,0,0,1,.49,1C635.09,8997.5,635.127,8997.5,635.178,8997.5Z" fill="#fff"/>
        <g id="Group_1303" data-name="Group 1303">
          <path id="Path_6778" data-name="Path 6778" d="M649.4,8997.075l-2.246,0-.151.738h2.246Z" fill="none"/>
          <path id="Path_6779" data-name="Path 6779" d="M652.243,8999.433h2.347l.16-.779-2.347,0Z" fill="none"/>
          <path id="Path_6780" data-name="Path 6780" d="M651.782,8996.142l-.917,4.479H652l.063-.306,2.347,0-1.066,5.2c-.086.422-.425.537-.867.537a6.024,6.024,0,0,1-.915-.089l.972-4.745-4.609.017-1.05,5.128,1.06,0,.167-.816,2.486,0-.105.512.82,0a4.8,4.8,0,0,1,.505,1.109c0,.052.038.064.088.064a3.1,3.1,0,0,0,.363.013,2.04,2.04,0,0,0,2.3-1.6c.129-.625.336-1.76.378-1.964l1.544-7.539Zm-1.006,8.483H648.29l.175-.854,2.486,0Zm.35-1.71-2.486,0,.165-.8,2.486,0Zm3.464-3.484-2.347,0,.16-.778h2.347Zm.333-1.621-2.348,0,.152-.74,2.347,0Z" fill="#fff"/>
          <path id="Path_6781" data-name="Path 6781" d="M648.666,9000.634H649.8l.92-4.49-4.593,0-2.3,11.239h1.212l1.448-7.066h2.246Zm-1.517-3.557,2.247,0-.152.74H647Zm-.483,2.358.159-.777,2.247,0-.16.778Z" fill="#fff"/>
        </g>
        <path id="Path_6782" data-name="Path 6782" d="M659.058,9002.808l1.339.484c1.115-1.315,2.476-2.476,3.321-2.477h.013c.34,0,.533.165.517.676-2.251,1.073-3.28,2.094-3.495,3.14s.269,2.384,3.02,2.383a13.626,13.626,0,0,0,2.806-.334c.053-.013.081-.024.1-.1a13.583,13.583,0,0,1,.641-1.646,15.309,15.309,0,0,1-3.4.6c-1.3,0-1.754-.433-1.644-.968.089-.435.471-.882,1.664-1.532-.125.484-.28,1.059-.392,1.544l1.533-.154c.141-.625.387-1.582.515-2.143a18.234,18.234,0,0,1,3.879-1.139c.157-.025.3-.039.314-.114.005-.026-.015-.052-.042-.1l-.829-1.25c-.752.282-1.943.678-3.2,1.189a1.292,1.292,0,0,0-1.317-1.211,2.42,2.42,0,0,0-1.259.357.111.111,0,0,1-.068.025c-.026,0-.048-.012-.043-.038a.1.1,0,0,1,.033-.038c.308-.332.7-.779.975-1.123.856-.116,1.892-.308,3.115-.551l.354-1.479c-.946.243-1.79.423-2.538.563.2-.307.4-.613.5-.792.255-.013.422-.089.438-.166.047-.229-1.509-.458-1.756-.483a15.75,15.75,0,0,1-.862,1.685c-.334.025-.616.051-.856.052a3.514,3.514,0,0,1-1.681-.357.254.254,0,0,0-.093-.036c-.038,0-.056.024-.066.075l-.011.052-.133,1.39a2.825,2.825,0,0,0,1.358.267c.114,0,.243-.013.381-.013a.992.992,0,0,1,.192-.013,23.7,23.7,0,0,1-3.344,3.573.35.35,0,0,0-.086.115C658.942,9002.757,658.987,9002.783,659.058,9002.808Z" fill="#fff"/>
        <path id="Path_6783" data-name="Path 6783" d="M671.79,9005.81a7.038,7.038,0,0,1,1.434,1.007c.03.039.052.051.078.051a.145.145,0,0,0,.084-.038,13.7,13.7,0,0,0,5.537-6.827l2.2,0a16.667,16.667,0,0,1-1.39,4.133,1.767,1.767,0,0,1-1.649.907,8.431,8.431,0,0,1-1.767-.3,7.244,7.244,0,0,1,.414,1.8c0,.1.074.191,1.033.19,2.9,0,3.976-1.979,5.348-8.242l-3.65.015c.181-.574.354-1.173.51-1.812.253-.063.425-.166.444-.256s-.057-.152-.254-.178c-.463-.076-1.765-.126-1.765-.126-.188.854-.375,1.645-.6,2.372l-3.448.015-.311,1.519c1.138-.014,2.2-.015,3.233-.016A10.649,10.649,0,0,1,671.79,9005.81Z" fill="#fff"/>
        <path id="Path_6784" data-name="Path 6784" d="M695.936,8997.567c-.088,0-.142.076-.258.089-.015.013-1.58.014-2.93.015q.3-.363.611-.766h.063c.2,0,.379-.064.4-.166s-.024-.127-1.716-.675a15.65,15.65,0,0,1-6.042,5.284,8.438,8.438,0,0,1,1.322.879c.02.025.029.038.055.038a18.254,18.254,0,0,0,4.075-3.2l3.117,0a19.451,19.451,0,0,1-2.06,2.6,7.824,7.824,0,0,0-1.783-1.274l-1.327,1.123a6.718,6.718,0,0,1,1.711,1.44,12.717,12.717,0,0,1-5.839,2.632,6.908,6.908,0,0,1,1.289,1.223.089.089,0,0,0,.09.052.128.128,0,0,0,.066-.013c4.594-1.177,7.533-4.559,9.882-8.145.172-.038.3-.114.32-.2C697.016,8998.331,696.1,8997.567,695.936,8997.567Z" fill="#fff"/>
        <path id="Path_6785" data-name="Path 6785" d="M699.142,9005.5a7.8,7.8,0,0,1,1.253,1.339c.03.038.05.063.1.063a.143.143,0,0,0,.066-.014,7.194,7.194,0,0,0,5.526-5.232l4.038,0,.322-1.569-4.026,0c.084-.472.212-1.1.325-1.645.831-.116,1.682-.27,2.5-.462a.612.612,0,0,0,.367.179.163.163,0,0,0,.178-.127.327.327,0,0,0-.037-.192,11.989,11.989,0,0,0-.757-1.415,22.7,22.7,0,0,1-6.533.846c-.479,0-.956-.012-1.38-.036a9.548,9.548,0,0,1,.673,1.517c.013.064.051.064.126.064.886-.015,1.992-.053,3.189-.169l0,.014c-.06.293-.178.931-.28,1.428l-4.681,0-.322,1.569,4.644,0C703.927,9003.327,702.781,9004.922,699.142,9005.5Z" fill="#fff"/>
        <path id="Path_6786" data-name="Path 6786" d="M720.547,8999.8a17.315,17.315,0,0,0,2.735-.231c.038,0,.056-.025.064-.064l.328-1.543a19.615,19.615,0,0,1-3.1.295,7.291,7.291,0,0,1-2.045-.241l-.371,1.5A8.356,8.356,0,0,0,720.547,8999.8Z" fill="#fff"/>
        <path id="Path_6787" data-name="Path 6787" d="M719.838,9006.212a12.449,12.449,0,0,0,2.534-.359.112.112,0,0,0,.064-.063c.112-.485.552-1.71.552-1.71a8.751,8.751,0,0,1-2.707.524h-.076c-1.325,0-2.032-.3-1.946-.726a.6.6,0,0,1,.108-.217,4.75,4.75,0,0,1,.509-.51l-1.224-.369a2.674,2.674,0,0,0-1.015,1.378C716.41,9005.27,717.63,9006.213,719.838,9006.212Z" fill="#fff"/>
        <path id="Path_6788" data-name="Path 6788" d="M714.657,9006.623a.125.125,0,0,0,.1-.1l.005-.026a5.165,5.165,0,0,1,.094-.7c.177-.868.438-1.4,1.683-3.6a8.416,8.416,0,0,1-.26-1.441,17.324,17.324,0,0,1-1.44,2.348c-.038,0,0-.179.056-.46a40.837,40.837,0,0,1,2.137-5.256c.255-.013.385-.089.4-.166s-.049-.127-.178-.178c-.012,0-1.566-.484-1.6-.484s-.058.038-.071.1c-.344,1.429-1.569,3.84-2.216,6.749l-.026.127a6.838,6.838,0,0,0,.029,3.368Z" fill="#fff"/>
      </g>
      <g id="Group_1305" data-name="Group 1305">
        <path id="Path_6789" data-name="Path 6789" d="M733.289,9007.963a.333.333,0,0,1-.282-.31c-.228-3.771-1.238-5-4.7-5.7a.334.334,0,0,1,.043-.66c3.523-.254,4.683-1.338,5.392-5.048a.335.335,0,0,1,.35-.271.322.322,0,0,1,.312.313c.229,3.769,1.238,4.994,4.7,5.7a.333.333,0,0,1-.042.659c-3.523.256-4.683,1.342-5.393,5.052a.334.334,0,0,1-.35.27Zm-3.209-6.229a4.683,4.683,0,0,1,3.381,4.042,3.819,3.819,0,0,0,.492-7.613A4.678,4.678,0,0,1,730.08,9001.734Z" fill="#fff"/>
      </g>
      <g id="Group_1306" data-name="Group 1306">
        <path id="Path_6790" data-name="Path 6790" d="M582.414,9059.919c-2.25-.322-2.905-1.011-3.185-3.352a.334.334,0,0,0-.662-.008c-.326,2.335-.995,3.012-3.252,3.288a.334.334,0,0,0-.007.662c2.251.324,2.905,1.015,3.184,3.356a.334.334,0,0,0,.663.006c.327-2.336,1-3.013,3.252-3.29a.335.335,0,0,0,.007-.663Zm-3.59,3.907c-.3-2.488-1.075-3.3-3.468-3.647,2.4-.294,3.2-1.093,3.542-3.572.3,2.486,1.075,3.3,3.468,3.644C579.966,9060.547,579.171,9061.345,578.824,9063.826Z" fill="#fff"/>
      </g>
      <g id="Group_1315" data-name="Group 1315">
        <path id="Path_6791" data-name="Path 6791" d="M628.717,9036.029c-1.839-.008-4.082.122-11.183,2.7a23.755,23.755,0,0,1-3.863,1.063c-.279.034-.4.137-.424.242a.542.542,0,0,0,.1.348l1.592,2.757a22.051,22.051,0,0,0,3.435-1.308c3.341-1.518,6.21-2.9,9.583-2.885,4.326.018,3.651,3.531,3.574,3.914-.878,4.348-7.16,6.759-14.348,6.729-.409,0-.811-.038-1.22-.039a16.886,16.886,0,0,1,2.278,3.073.431.431,0,0,0,.4.21c5.438-.081,14.815-2.793,16.24-9.854C635.507,9039.886,634.406,9036.052,628.717,9036.029Z" fill="#fff"/>
        <g id="Group_1307" data-name="Group 1307">
          <path id="Path_6792" data-name="Path 6792" d="M589.041,9040.9c.07-.349.495-.765,1.247-1.283l-2.441-.742a5.01,5.01,0,0,0-2.17,2.811c-.337,1.671,1.222,3.069,3.845,3.08h.186c.189-.813.465-1.882.783-3.064C589.456,9041.673,588.947,9041.366,589.041,9040.9Z" fill="#fff"/>
          <path id="Path_6793" data-name="Path 6793" d="M592.76,9033.115a9.509,9.509,0,0,1-4.735-1.2.722.722,0,0,0-.225-.07c-.136,0-.2.139-.24.347-.049.243-.571,3.165-.571,3.165a11.219,11.219,0,0,0,4.226.854c.261,0,.533,0,.81,0,.329-1.152.639-2.222.892-3.094C592.865,9033.111,592.81,9033.116,592.76,9033.115Z" fill="#fff"/>
          <path id="Path_6794" data-name="Path 6794" d="M604.831,9034.1c-.034,0-.109.035-.143.035a32.929,32.929,0,0,1-4.107.748c2.486,2.553,4.551,5.834,3.905,9.034-.7,3.479-4.569,6.422-7.635,6.409-2.078-.009-3.495-1.269-2.883-4.468.091-.452.183-.9.308-1.357a22.234,22.234,0,0,0,5.475-1.787c.082-.07.165-.139.179-.208l.1-.488c.232-1.146.747-3.025.747-3.025a26.593,26.593,0,0,1-5.7,2.24c.474-1.844,1.05-3.687,1.572-5.426,3.3-.647,3.555-.89,3.624-1.063l.686-3.062c-1.058.345-2.177.653-3.256.928.868-2.608,1.686-4.973,2.269-6.851.559-.066.949-.309.991-.518.035-.174-.107-.314-.4-.384-.13-.036-3.225-.745-3.839-.747-.136,0-.177.033-.205.173l-.028.139c-.077.383-.128.8-.212,1.218-.442,2.191-1.152,4.7-1.994,7.513l-.9,3.094q-.771,2.556-1.525,5.53l-.754,3.06-.216.905c-.015.068-.036.174-.05.243-.969,4.8,1.167,7.733,5.323,7.751,5.655.023,10.855-4.794,11.88-9.873C609.075,9038.748,605.1,9034.1,604.831,9034.1Z" fill="#fff"/>
        </g>
        <g id="Group_1308" data-name="Group 1308">
          <path id="Path_6795" data-name="Path 6795" d="M654,9026.309c.612-.181.889-.393.928-.6.033-.174-.139-.347-.467-.413-1.188-.2-3.943-.548-4.046-.547s-.149.072-.168.176l-.033.175c-.175,1.674-.433,3.243-.641,4.359-.339,1.64-.673,3.072-.9,4.293a11.965,11.965,0,0,0-.183,3.369c1.113-.461,2.394-.929,3.522-1.29a9.666,9.666,0,0,1,.2-2.258C652.316,9032.978,652.375,9032.664,654,9026.309Z" fill="#fff"/>
          <path id="Path_6796" data-name="Path 6796" d="M650.4,9053.873a36.476,36.476,0,0,0,8.261-1.1.258.258,0,0,0,.216-.246,34.577,34.577,0,0,1,1.473-4.265,33.92,33.92,0,0,1-10.393,1.961c-2.418.027-6.973-.34-6.37-3.584.824-4.431,10.2-6.973,16.693-7.323l.767-3.943c.033-.174-.016-.278-.186-.276a.4.4,0,0,0-.177.036c-1.4.4-3.59.841-5.269,1.278-1.107.291-2.181.581-3.234.94l-3.51,1.327c-4.432,1.9-8,4.616-8.666,8.209C638.684,9053.969,648.9,9053.89,650.4,9053.873Z" fill="#fff"/>
        </g>
        <g id="Group_1314" data-name="Group 1314">
          <g id="Group_1313" data-name="Group 1313">
            <g id="Group_1309" data-name="Group 1309">
              <path id="Path_6797" data-name="Path 6797" d="M765.517,9041.577a40.981,40.981,0,0,0,8.658-6.487l.5-.474c.036-.035.9-.855,1.586-1.61.189-.209.454-.489.754-.807.788-.836,1.768-1.875,2.387-2.644l.661-.787c.3-.371.6-.746.883-1.122.51,0,1.1-.205,1.154-.483.028-.139-.107-.314-.549-.49-.6-.246-2.836-.812-3.639-1.059a40.448,40.448,0,0,1-15.624,13.9,15.758,15.758,0,0,1,3.081,1.962A.242.242,0,0,0,765.517,9041.577Z" fill="#fff"/>
              <path id="Path_6798" data-name="Path 6798" d="M764.081,9053.58a.155.155,0,0,0,.156.071.4.4,0,0,0,.178-.035c11.407-3.644,18.184-11.379,25.125-21.272.532-.1.84-.274.9-.554.1-.487-1.915-2.34-2.425-2.342-.273,0-.431.276-.745.31-.089,0-3.28.04-6.411.064l-.312.388c-.619.767-1.6,1.807-2.387,2.642l-.116.123,6.748-.059c-6.007,8.644-12.551,14.884-23.831,17.9A18.676,18.676,0,0,1,764.081,9053.58Z" fill="#fff"/>
            </g>
            <g id="Group_1310" data-name="Group 1310">
              <path id="Path_6799" data-name="Path 6799" d="M739.3,9031.231l14.016-.01c-2.857,9.6-8.709,16.292-20.08,18.577a20.129,20.129,0,0,1,3.266,3.078q.028.1.183.105c.034,0,.109-.035.143-.034,9.817-3.2,16.634-9.61,20.888-22.579.479-.172.752-.345.8-.588.091-.452-2.215-2.2-2.624-2.2-.238,0-.431.276-.737.274l-15.193,0Z" fill="#fff"/>
              <path id="Path_6800" data-name="Path 6800" d="M734.908,9027.706l-2.373,11.758,3.747.016,2.355-11.765Z" fill="#fff"/>
            </g>
            <g id="Group_1311" data-name="Group 1311">
              <path id="Path_6801" data-name="Path 6801" d="M702.517,9041.22a41,41,0,0,0,8.659-6.487l.5-.475c.037-.034.9-.854,1.586-1.609.19-.208.455-.489.755-.808.788-.835,1.768-1.875,2.387-2.643l.66-.787c.3-.371.6-.747.883-1.123.511,0,1.1-.205,1.155-.483.028-.139-.107-.313-.549-.489-.6-.246-2.837-.812-3.639-1.06a40.465,40.465,0,0,1-15.624,13.9,15.776,15.776,0,0,1,3.081,1.963A.244.244,0,0,0,702.517,9041.22Z" fill="#fff"/>
              <path id="Path_6802" data-name="Path 6802" d="M727.436,9031.433c.1-.486-1.914-2.341-2.425-2.343-.273,0-.431.277-.745.311-.089,0-3.279.04-6.41.063l-.313.388c-.619.769-1.6,1.808-2.387,2.643l-.116.123,6.748-.06c-6.007,8.645-12.55,14.885-23.831,17.9a18.69,18.69,0,0,1,3.125,2.764.155.155,0,0,0,.156.07.409.409,0,0,0,.177-.034c11.407-3.644,18.185-11.379,25.126-21.272C727.073,9031.884,727.38,9031.711,727.436,9031.433Z" fill="#fff"/>
            </g>
            <g id="Group_1312" data-name="Group 1312">
              <path id="Path_6803" data-name="Path 6803" d="M693.56,9027.3c-.239,0-.431.277-.738.276l-15.193,0-.663,3.381,14.017-.009c-2.858,9.6-8.709,16.292-20.081,18.578a20.053,20.053,0,0,1,3.266,3.076q.03.105.183.105c.034,0,.11-.034.144-.034,9.816-3.2,16.634-9.61,20.888-22.578.478-.172.751-.345.8-.589C696.275,9029.05,693.969,9027.3,693.56,9027.3Z" fill="#fff"/>
              <path id="Path_6804" data-name="Path 6804" d="M673.946,9039.2l2.355-11.765-3.729-.008-2.373,11.757Z" fill="#fff"/>
            </g>
          </g>
        </g>
      </g>
      <g id="Group_1323" data-name="Group 1323">
        <g id="Group_1316" data-name="Group 1316">
          <path id="Path_6805" data-name="Path 6805" d="M649.153,9069.821a9.878,9.878,0,0,0-2.2-3.987l-2.3.993a10.359,10.359,0,0,1,1.993,4.2Z" fill="#fff"/>
          <path id="Path_6806" data-name="Path 6806" d="M640.364,9067.556a11.017,11.017,0,0,1,1.837,4.3l2.563-1.135a10.908,10.908,0,0,0-2.048-4.092Z" fill="#fff"/>
          <path id="Path_6807" data-name="Path 6807" d="M630.907,9076.06c.045-.3.09-.6.135-.915q.156-1.056.322-2.169c-2.211.185-4.274.372-6.015.579-1.492.151-3.045.268-4.51.278-.783.006-1.56-.023-2.268-.052h-.1c-.171,0-.252.07-.272.176a.435.435,0,0,0-.006.209l.231,3.445a66.647,66.647,0,0,0,6.618-.817C626.756,9076.534,628.75,9076.272,630.907,9076.06Z" fill="#fff"/>
          <path id="Path_6808" data-name="Path 6808" d="M636.483,9072.6c.278-1.29.571-2.476.8-3.312.558-.074.979-.321,1.025-.565.086-.453-.084-.452-4.65-.591-.068.87-.183,1.991-.342,3.208l.026,0c-.231,1.447-.427,2.784-.617,4.077-.025.164-.048.322-.072.483h.008c-.024.151-.049.3-.074.451-.341,2.306-.658,4.329-1.064,6.072.01.01.022.02.032.03-.032.349-.1.7-.158,1.011-.1.523-.643,3.034-2.994,3.052a1.8,1.8,0,0,1-1.764-2.354,2.9,2.9,0,0,1,3-2.391c.1,0,.187,0,.276.008.209-.919.4-1.933.577-3.035-.1,0-.2-.007-.312-.006a7.219,7.219,0,0,0-6.773,5.762l-.013.07a4.19,4.19,0,0,0,4.329,5.153,6.27,6.27,0,0,0,3.4-1.069l-.284.42c-1.182,1.749-5.587,4.708-11.338,5.8a18.763,18.763,0,0,1,3.341,2.655c.088.068.116.1.218.1.375,0,10.5-3.353,12.074-11.651a7.828,7.828,0,0,0-.368-4.7c.271-1.43.661-3.486,1.085-5.543.824-.042,1.676-.048,2.493-.055a50.123,50.123,0,0,1,7.238.4c.171,0,.171,0,.238-.176l.729-3.487c-1.05-.027-2.133-.054-3.223-.045C641.115,9072.39,638.785,9072.477,636.483,9072.6Z" fill="#fff"/>
        </g>
        <path id="Path_6809" data-name="Path 6809" d="M662.092,9079.088c-1.839.014-4.08.17-11.15,2.836a23.628,23.628,0,0,1-3.85,1.108c-.279.037-.4.143-.421.247a.541.541,0,0,0,.1.348l1.624,2.738a22.138,22.138,0,0,0,3.419-1.35c3.323-1.558,6.176-2.972,9.549-3,4.326-.032,3.692,3.488,3.619,3.872-.826,4.358-7.079,6.844-14.267,6.9-.409,0-.811-.029-1.22-.026a16.929,16.929,0,0,1,2.314,3.047.429.429,0,0,0,.4.205c5.437-.146,14.781-2.968,16.123-10.046C668.928,9082.865,667.781,9079.044,662.092,9079.088Z" fill="#fff"/>
        <g id="Group_1317" data-name="Group 1317">
          <path id="Path_6810" data-name="Path 6810" d="M737.609,9089.905c.021.022.035.047.055.069l.013.013A1.012,1.012,0,0,0,737.609,9089.905Z" fill="#fff"/>
          <path id="Path_6811" data-name="Path 6811" d="M738.6,9089.024l0,0-1.014.9Z" fill="#fff"/>
        </g>
        <g id="Group_1320" data-name="Group 1320">
          <g id="Group_1318" data-name="Group 1318">
            <path id="Path_6812" data-name="Path 6812" d="M708.313,9073.23l-.555,2.929,3.043-.023.588-2.929Z" fill="#fff"/>
            <path id="Path_6813" data-name="Path 6813" d="M728.948,9067.365c.046-.244-.255-.45-.82-.517-1.1-.095-3.333-.183-3.333-.183-.085.627-.182,1.5-.446,3.067l-.909,5.334a25.833,25.833,0,0,0-2.424-4.438l-2.607,1.552a20.424,20.424,0,0,1,2.611,6.144l2.11-1.444c-.383,2.022-.7,3.87-.9,5.09-.12-.8-.2-1.635-.2-1.635a37.542,37.542,0,0,1-6.995,5.137,24.219,24.219,0,0,0,1.618,2.773c.158.242.315.31.452.309.2,0,.346-.211.412-.56a1.572,1.572,0,0,0,.031-.522,45.038,45.038,0,0,0,4.258-3.444,16.082,16.082,0,0,1-10.124,11.775,11.994,11.994,0,0,1,3.11,1.717c.055.069.09.069.123.069a.223.223,0,0,0,.184-.071c6.886-3.848,9.185-10.41,9.958-14.489.159-.837,1.6-9.169,2.343-13.074.211-1.116.332-1.569.451-2.023C728.556,9067.821,728.908,9067.575,728.948,9067.365Z" fill="#fff"/>
            <path id="Path_6814" data-name="Path 6814" d="M736.286,9069.746a30.7,30.7,0,0,1-4.562,5.049l.925-4.882s.238-1.255.465-2.092c.62-.039,1.081-.322,1.134-.6.033-.174-.131-.382-.663-.446-1.091-.166-3.381-.288-3.381-.288-.19,1.359-.533,3.347-.533,3.347l-4.476,23.43c-.694,3.661,2.325,3.882,3.79,3.871,4.8-.037,5.9-2.03,6.946-5.415l.013-.069c.02-.1-.042-.14-.1-.208a12.746,12.746,0,0,1-2.42-2.488c-.032.174-.072.383-.1.558-.721,3.8-1.33,4.5-3.51,4.519-1.5.011-1.638-.511-1.427-1.626l1.845-9.728a19.63,19.63,0,0,1,3.451,5.3l2.95-2.46a25.706,25.706,0,0,0-4.549-5.431l-1.588,1.2.9-4.742a3.775,3.775,0,0,1,1.014.932c.062.035.089.069.123.069a.322.322,0,0,0,.15-.071c2.108-1.791,5.176-4.879,5.176-4.879a1.867,1.867,0,0,0,.689.134c.273,0,.429-.106.462-.281C739.086,9072.023,738.538,9071.5,736.286,9069.746Z" fill="#fff"/>
            <path id="Path_6815" data-name="Path 6815" d="M712.612,9090.016l1.15-6.065c1.326-.533,2.509-1.029,3.378-1.488.15-.071.2-.141.217-.246l.019-.1a7.753,7.753,0,0,1,.183-1.324c.146-.768.319-1.5.319-1.5-.564.282-1.828.849-3.514,1.489l.879-4.639,2.828-.021.555-2.929-2.828.021.734-3.87s.192-1.012.412-1.813c.6-.109.911-.32.951-.53s-.166-.381-.6-.413c-.934-.1-3.5-.217-3.5-.217-.129,1.22-.413,2.719-.413,2.719l-.787,4.149-.555,2.929-1.1,5.823c-1.557.5-3.21.964-4.816,1.359,0,0,.457,2.434.769,3.3.09.242.234.381.37.38.2,0,.428-.281.547-.909.829-.25,1.672-.57,2.508-.855l-1.474,7.776c-.178.941-.85,1.259-1.941,1.268a14.918,14.918,0,0,1-2.5-.26,13.624,13.624,0,0,1,1.245,3.3c0,.176.069.174.239.173l.613,0c2.9-.021,4.921-1.013,5.536-4.255C712.078,9093.015,712.288,9091.725,712.612,9090.016Z" fill="#fff"/>
          </g>
          <g id="Group_1319" data-name="Group 1319">
            <path id="Path_6816" data-name="Path 6816" d="M762.716,9067.246c-.622-.308-2.834-1.022-2.834-1.022a33.92,33.92,0,0,1-4.172,6.577l-5.746.044-.47,2.476,2.306-.018-.482,2.545-2.306.019-.47,2.475,2.306-.018-.528,2.79-2.306.018-.476,2.51,2.272-.018-.575,3.034-7.222.055-.542,2.859,7.221-.056-1.156,6.1,2.9-.023,1.156-6.1,7.256-.056.542-2.859-7.256.056.576-3.034,3.236-.024-.205,1.081,2.691-.021,2.63-13.877-2.214.018c.771-1.017,1.988-2.593,3.251-4.586a1.572,1.572,0,0,0,.4.031c.409,0,.646-.179.679-.353C763.216,9067.66,763.058,9067.418,762.716,9067.246Zm-6.3,15.82-3.271.024.529-2.789,3.27-.024Zm1-5.266-3.27.025.483-2.545,3.27-.025Z" fill="#fff"/>
            <path id="Path_6817" data-name="Path 6817" d="M747.382,9080.313h0l.469-2.476h0l.483-2.545h0l.469-2.476-2.657.021-2.651,13.981,2.657-.021.225-1.186.585-3.087Z" fill="#fff"/>
            <path id="Path_6818" data-name="Path 6818" d="M752.995,9072.23l2.946-.824a16.238,16.238,0,0,0-1.094-5.18l-2.748.684A17.275,17.275,0,0,1,752.995,9072.23Z" fill="#fff"/>
            <path id="Path_6819" data-name="Path 6819" d="M748.113,9072.685l2.9-1.1a20.281,20.281,0,0,0-1.725-4.9l-2.815,1.032A16.221,16.221,0,0,1,748.113,9072.685Z" fill="#fff"/>
            <path id="Path_6820" data-name="Path 6820" d="M771.517,9073.933l2.8-1.832a15.988,15.988,0,0,0-2.822-4.852l-2.451,1.446A16.6,16.6,0,0,1,771.517,9073.933Z" fill="#fff"/>
            <path id="Path_6821" data-name="Path 6821" d="M772.806,9090.461a13.323,13.323,0,0,1-2.156-2.8c-.372,1.6-1.413,5.477-2.4,5.484-.51,0-1.425-1.45-1.8-4.3a50.757,50.757,0,0,0,5.041-7.21l.239,0c.544,0,.959-.216,1.012-.5.026-.14-.043-.312-.289-.451-.677-.377-3.034-1.4-3.034-1.4a26.713,26.713,0,0,1-3.161,5.733c.05-1.88.207-4.145.545-6.828l7.34-.856.243-2.893-7.163.821c.256-1.708.612-3.591,1-5.613.125-.662.277-1.464.417-2.021.783-.18,1.1-.427,1.148-.67.04-.21-.227-.417-.589-.483-.5-.065-3.667-.216-3.667-.216-.109,1.115-.286,2.405-.469,3.555-.329,2.092-.624,4.009-.866,5.821l-.034,0c-.112.977-.217,1.941-.313,2.889h0q-.037.356-.072.7c-.13,1.343-.239,2.645-.317,3.885a42.574,42.574,0,0,0-.03,5.339l-.079.078a16.885,16.885,0,0,0,.384,3.161l.081-.074c.126.591,1.2,5.491,3.861,5.471,1.941-.015,3.949-2.711,5.175-6.306l.02-.105A.206.206,0,0,0,772.806,9090.461Z" fill="#fff"/>
            <path id="Path_6822" data-name="Path 6822" d="M762.446,9089.394a27.99,27.99,0,0,1-10.569,6.137,12.436,12.436,0,0,1,2.832,1.928.11.11,0,0,0,.123.069.226.226,0,0,0,.143-.036,32.626,32.626,0,0,0,8.009-5.132c-.045-.156-.089-.312-.136-.479A13.309,13.309,0,0,1,762.446,9089.394Z" fill="#fff"/>
            <path id="Path_6823" data-name="Path 6823" d="M763.171,9075.743l-2.216.256-.243,2.891,2.149-.255C762.955,9077.686,763.059,9076.72,763.171,9075.743Z" fill="#fff"/>
          </g>
        </g>
        <g id="Group_1321" data-name="Group 1321">
          <path id="Path_6824" data-name="Path 6824" d="M785.913,9090.067a6.361,6.361,0,0,0-5.9,5.094,3.986,3.986,0,0,0,3.98,5.017,6.392,6.392,0,0,0,5.9-5.093A3.972,3.972,0,0,0,785.913,9090.067Zm-1.428,7.531a1.965,1.965,0,0,1-1.983-2.458,3.158,3.158,0,0,1,2.929-2.527,1.971,1.971,0,0,1,1.977,2.49A3.15,3.15,0,0,1,784.485,9097.6Z" fill="#fff"/>
        </g>
        <g id="Group_1322" data-name="Group 1322">
          <path id="Path_6825" data-name="Path 6825" d="M688.044,9075.911c.113-.592.172-.906,1.818-7.255.612-.18.89-.391.93-.6.033-.174-.138-.347-.466-.414-1.187-.2-3.941-.562-4.043-.561s-.15.071-.17.175l-.033.174c-.181,1.673-.444,3.242-.656,4.357-.345,1.639-.684,3.07-.915,4.29a11.971,11.971,0,0,0-.195,3.368c1.115-.456,2.4-.92,3.526-1.277A9.706,9.706,0,0,1,688.044,9075.911Z" fill="#fff"/>
          <path id="Path_6826" data-name="Path 6826" d="M685.733,9092.555c-2.418.019-6.972-.364-6.357-3.606.839-4.429,10.228-6.937,16.718-7.267l.782-3.939c.033-.174-.015-.278-.186-.277a.4.4,0,0,0-.177.036c-1.4.394-3.593.829-5.273,1.259-1.109.287-2.184.574-3.238.931L684.487,9081c-4.438,1.88-8.013,4.588-8.694,8.179-1.341,7.078,8.872,7.035,10.37,7.023a36.461,36.461,0,0,0,8.266-1.073.258.258,0,0,0,.216-.245,34.812,34.812,0,0,1,1.488-4.259A33.965,33.965,0,0,1,685.733,9092.555Z" fill="#fff"/>
        </g>
      </g>
      <g id="Group_1324" data-name="Group 1324">
        <line id="Line_13" data-name="Line 13" x2="113.043" transform="translate(736.957 9003.243)" stroke="#fff" stroke-miterlimit="10" stroke-width="0.271"/>
        <line id="Line_14" data-name="Line 14" x2="113.043" transform="translate(736.957 9001.67)" stroke="#fff" stroke-miterlimit="10" stroke-width="0.271"/>
      </g>
    </g>
  </g>
</svg>
