<svg id="icon" xmlns="http://www.w3.org/2000/svg" width="33.419" height="33.354" viewBox="0 0 33.419 33.354">
  <g id="Group_2454" data-name="Group 2454" transform="translate(5.128 11.794)">
    <path id="Path_14643" data-name="Path 14643" d="M81.874,192.707c1.627.937.457,1.984,2.246,3.018l.777.448,4.984,2.876.54.313a1.423,1.423,0,0,0,1.43-2.461l.721.416a1.634,1.634,0,0,0,1.637-2.828l.764.442a1.634,1.634,0,1,0,1.635-2.83l-.313-.18a1.635,1.635,0,0,0,1.628-2.835l-1.717-.99-3.642-2.1c-1.449-1.206-.525-2.066.277-3.578l-2.512-1.45A1.3,1.3,0,0,1,90,180.69l-2.947,1.328c-.742.333-.851.228-1.576-.193l-1.292-.745L78.57,190.8Z" transform="translate(-78.57 -180.69)" fill="#fff" fill-rule="evenodd"/>
  </g>
  <g id="Group_2455" data-name="Group 2455" transform="translate(0.653 8.895)">
    <path id="Path_14644" data-name="Path 14644" d="M10.582,148.815l2.106,1.215a1.207,1.207,0,0,0,1.634-.47l.157-.27,5.613-9.72.157-.271a1.2,1.2,0,0,0-.411-1.648l-2.107-1.215a1.2,1.2,0,0,0-1.634.468l-5.927,10.262a1.206,1.206,0,0,0,.411,1.649Z" transform="translate(-10.004 -136.282)" fill="#ffd840" fill-rule="evenodd"/>
  </g>
  <g id="Group_2456" data-name="Group 2456" transform="translate(16.243 4.383)">
    <path id="Path_14645" data-name="Path 14645" d="M249.494,74.842l2.512,1.45,4.984,2.876,3.1,1.79a1.3,1.3,0,0,0,1.774-.475l3.04-5.266a1.3,1.3,0,0,0-.476-1.773l-.749-.431-9.1-5.252-.749-.431a1.3,1.3,0,0,0-1.774.475l-3.04,5.264a1.3,1.3,0,0,0,.473,1.773Z" transform="translate(-248.847 -67.157)" fill="#dcdcdc" fill-rule="evenodd"/>
  </g>
  <g id="Group_2457" data-name="Group 2457" transform="translate(21.98 0.656)">
    <path id="Path_14646" data-name="Path 14646" d="M336.74,14.382l9.1,5.252.988-1.711a5.253,5.253,0,0,0-9.1-5.252Z" transform="translate(-336.74 -10.051)" fill="#ffd840" fill-rule="evenodd"/>
  </g>
  <g id="Group_2458" data-name="Group 2458" transform="translate(18.364 13.518)">
    <path id="Path_14647" data-name="Path 14647" d="M282.107,210.689l3.643,2.1,1.619-2.805-4.984-2.876C281.582,208.623,280.659,209.483,282.107,210.689Z" transform="translate(-281.347 -207.11)" fill="#e8e8e8" fill-rule="evenodd"/>
  </g>
  <g id="Group_2459" data-name="Group 2459" transform="translate(10.219 27.276)">
    <path id="Path_14648" data-name="Path 14648" d="M157.313,421.748l2.368,1.367a1.515,1.515,0,0,0,2.063-.553l1.036-1.8L157.8,417.89l-1.036,1.8a1.515,1.515,0,0,0,.553,2.062Z" transform="translate(-156.559 -417.89)" fill="#e8e8e8" fill-rule="evenodd"/>
  </g>
  <g id="Group_2460" data-name="Group 2460" transform="translate(3.129 13.992)">
    <path id="Path_14649" data-name="Path 14649" d="M48.587,215.669a.652.652,0,0,1-.583-.943l0,0a.653.653,0,1,1,.581.946Z" transform="translate(-47.936 -214.362)"/>
  </g>
  <g id="Group_2461" data-name="Group 2461" transform="translate(0 0)">
    <path id="Path_14650" data-name="Path 14650" d="M32.152,10.11,31.969,10l.661-1.144a5.906,5.906,0,0,0-10.23-5.9L21.738,4.1,21.556,4a1.955,1.955,0,0,0-2.666.714L15.851,9.972a1.933,1.933,0,0,0-.2,1.479c0,.011.007.022.01.033L13.341,12.53a1.082,1.082,0,0,1-.411.139,2.358,2.358,0,0,1-.462-.238l-.862-.5a1.873,1.873,0,0,0,.048-1.129,1.8,1.8,0,0,0-.841-1.1L8.708,8.488a1.8,1.8,0,0,0-1.375-.179,1.88,1.88,0,0,0-1.152.885l-1.5,2.6a.653.653,0,0,0,1.131.653l1.5-2.6a.586.586,0,0,1,.358-.277.5.5,0,0,1,.385.048l2.108,1.215a.5.5,0,0,1,.232.309.584.584,0,0,1-.061.446l-.155.269,0,0v0L4.405,21.851a.552.552,0,0,1-.742.231L1.558,20.868a.551.551,0,0,1-.172-.758l1.5-2.6a.653.653,0,0,0-1.13-.653l-1.5,2.6A1.858,1.858,0,0,0,.9,22l2.106,1.215a1.791,1.791,0,0,0,.9.239,1.881,1.881,0,0,0,1.431-.669l2.768,1.6a1.34,1.34,0,0,1,.747,1.038,2.821,2.821,0,0,0,1.5,1.978l.212.123-.71,1.231a2.165,2.165,0,0,0,.792,2.954l2.369,1.367a2.167,2.167,0,0,0,2.954-.792l.71-1.23a2.076,2.076,0,0,0,3.089-1.76,2.29,2.29,0,0,0,2.162-1.135,2.26,2.26,0,0,0,.3-1.247,2.284,2.284,0,0,0,2.23-3.155,2.286,2.286,0,0,0,.347-4.123l-1.151-.664.965-1.674,2.536,1.463a1.953,1.953,0,0,0,2.666-.714l3.04-5.265a1.956,1.956,0,0,0-.714-2.666Zm-8.622-6.5a4.6,4.6,0,0,1,7.968,4.6l-.661,1.145-7.968-4.6ZM13.667,31.94,11.3,30.574a.859.859,0,0,1-.315-1.171l.71-1.231,1.813,1.047,2.04,1.178-.71,1.23a.86.86,0,0,1-1.172.314Zm10.85-9.84a.983.983,0,0,1-1.342.358l-.015-.008-2.107-1.216a.653.653,0,1,0-.653,1.131l2.442,1.409a.981.981,0,1,1-.982,1.7l-.719-.415-.049-.029-.026-.014-1.648-.951a.653.653,0,1,0-.653,1.131l1.707.985a.981.981,0,0,1-1.013,1.68l-1.906-1.1a.653.653,0,1,0-.652,1.131l1.158.668.018.011a.77.77,0,1,1-.77,1.334l-.532-.307-.008-.005-.009,0-2.6-1.5L11,26.267a1.548,1.548,0,0,1-.889-1.181,2.614,2.614,0,0,0-1.357-1.835L6.019,21.669l4.961-8.589.725.418.107.062a2.2,2.2,0,0,0,1.116.414,2.35,2.35,0,0,0,.949-.254l2.568-1.157c.039.026.078.052.118.075l1.954,1.127-.07.121c-.646,1.1-1.377,2.354.26,3.717a.74.74,0,0,0,.091.064l3.627,2.092.016.01.013.007,1.7.982a.983.983,0,0,1,.36,1.341Zm-1.988-3.788L19.5,16.566c-.715-.608-.59-.886.073-2.02l.074-.127,3.847,2.22Zm9.207-6.19L28.7,17.387a.655.655,0,0,1-.883.236L24.723,15.84l-.01-.007-.01-.005-7.486-4.32a.649.649,0,0,1-.235-.882l3.04-5.264a.637.637,0,0,1,.392-.3.665.665,0,0,1,.17-.023.634.634,0,0,1,.319.086h0L30.73,10.8l.021.013.017.008.732.422a.65.65,0,0,1,.236.883Z" transform="translate(0.001 -0.005)"/>
  </g>
</svg>
