<svg id="icon" xmlns="http://www.w3.org/2000/svg" width="19.976" height="19.978" viewBox="0 0 19.976 19.978">
  <path id="color" d="M618.6-23.34l12.149-12.15a3.069,3.069,0,0,0,.53-3.62,3.065,3.065,0,0,0-3.618.533L615.508-26.428a.681.681,0,0,0-.175.3l-1.135,4.1,4.1-1.135A.681.681,0,0,0,618.6-23.34Z" transform="translate(-611.665 41.521)" fill="#5d8fd3"/>
  <path id="line" d="M595.33-68.582a3.064,3.064,0,0,0-4.334,0l-12.15,12.149a.681.681,0,0,0-.175.3l-1.6,5.768a.681.681,0,0,0,.174.663.682.682,0,0,0,.664.175l5.768-1.6a.681.681,0,0,0,.3-.175l12.149-12.15a3.068,3.068,0,0,0,0-4.334Zm-15,12.592,9.943-9.944,3.207,3.207-9.944,9.944Zm-.641,1.285,2.562,2.562-3.544.982Zm15.476-9.707-.722.722L591.236-66.9l.723-.722a1.7,1.7,0,0,1,2.407,0l.8.8A1.7,1.7,0,0,1,595.166-64.412Z" transform="translate(-577.049 69.48)" fill="#1a1a1a"/>
</svg>
