<svg xmlns="http://www.w3.org/2000/svg" width="466.448" height="483.263" viewBox="0 0 466.448 483.263"><defs><style>.a{fill:#fafafa;}</style></defs><path class="a" d="M255.805-499.309c0,2.491-4.982,2.491-6.85,2.491-14.324.623-36.12.623-56.671.623-15.569,0-29.893,0-39.857-.623-4.359,0-7.473-1.246-7.473-3.114,0,0,34.252-107.738,49.821-148.84.623-2.491,1.868-4.982,3.737-4.982,1.246,0,2.491,1.245,3.737,4.982C207.853-634.448,255.805-500.554,255.805-499.309ZM449.484-276.983c7.473,0,9.964-3.737,9.964-8.1a19.689,19.689,0,0,0-3.737-10.587c-28.024-4.359-47.953-29.27-57.294-52.312C270.129-676.173,257.674-721.634,251.446-747.79c-1.868-7.473-4.982-11.21-8.719-11.21-3.114,0-6.228,1.868-9.341,6.228-16.192,19.928-29.893,27.4-41.725,33.629-6.228,3.114-7.473,6.85-7.473,11.21a30.97,30.97,0,0,0,1.868,9.964,6.441,6.441,0,0,1,.623,2.491,35.842,35.842,0,0,1-1.246,6.228c-21.8,57.294-46.084,125.8-67.881,187.451C51.54-318.085,43.444-301.893-.772-295.043-4.509-291.929-7-287.57-7-283.21s2.491,7.473,9.341,7.473H6.078c20.551-3.737,41.725-4.982,61.031-4.982a471.518,471.518,0,0,1,63.522,4.359c4.359,0,6.85-3.114,6.85-7.473,0-3.737-2.491-8.719-6.85-11.832-24.288-3.114-43.593-6.85-43.593-24.288a17.241,17.241,0,0,1,.623-5.6c3.737-16.815,33.006-100.887,41.725-130.78,4.982-13.7,8.1-13.7,56.671-13.7,23.665,0,51.689.623,73.486,1.868,3.737,0,8.1.623,9.964,6.228,6.85,16.815,47.33,128.289,47.33,143.858,0,12.455-9.964,19.306-36.12,23.042-3.737,2.491-6.85,7.473-6.85,11.832,0,3.737,1.868,6.228,5.6,6.228h1.246c21.174-3.114,47.33-4.359,71.618-4.359,49.821,0,95.283,4.359,95.905,4.359Z" transform="translate(7 759)"/></svg>