<svg xmlns="http://www.w3.org/2000/svg" width="196.793" height="463.957" viewBox="0 0 196.793 463.957"><defs><style>.a{fill:#fafafa;}</style></defs><path class="a" d="M44.964-266.043c19.928-3.737,46.707-4.982,73.486-4.982,53.557,0,107.115,4.982,107.738,4.982,3.737,0,5.6-3.737,5.6-8.719,0-3.737-1.246-8.1-4.982-10.587-52.935-5.6-50.444-25.533-51.689-84.073-.623-36.743-1.246-96.528-1.246-151.954,0-41.1,0-80.336,1.246-107.738,1.868-55.426-5.6-74.109,49.2-80.959,4.359-1.868,6.85-6.85,6.85-11.21,0-4.982-2.491-8.719-6.228-8.719h-.623c-23.042,3.114-51.066,3.737-78.468,3.737C91.671-726.263,41.228-730,41.228-730,38.114-730,35-725.641,35-720.659c0,3.114,1.246,6.85,5.6,9.964,60.408,5.6,50.444,18.683,52.312,82.2,1.246,21.8,1.246,71.618,1.246,123.93,0,51.689,0,105.247-1.246,135.139C91.671-312.127,97.9-290.953,43.1-285.348c-3.114,2.491-5.6,8.1-5.6,12.455,0,3.737,1.246,6.85,5.6,6.85Z" transform="translate(-35 730)"/></svg>