<svg xmlns="http://www.w3.org/2000/svg" width="686.283" height="468.317" viewBox="0 0 686.283 468.317"><defs><style>.a{fill:#fafafa;}</style></defs><path class="a" d="M672.187-730c-19.306,2.491-39.857,3.114-58.54,3.114-37.366,0-67.258-3.114-67.258-3.114-4.359,0-6.85,3.737-6.85,8.719a14.257,14.257,0,0,0,4.982,10.587c28.647,1.868,44.839,4.359,44.839,21.8,0,21.174-24.91,82.2-120.816,313.872-2.491,5.6-3.737,8.719-5.6,8.719-1.246,0-3.114-2.491-4.982-6.85C434.915-425.47,395.681-503.315,383.849-527.6c0-.623-.623-1.246-.623-2.491a20.272,20.272,0,0,1,2.491-8.719c24.91-52.312,52.935-127.043,65.39-148.84,11.832-21.174,26.156-20.551,40.479-21.8,3.737-.623,5.6-6.228,5.6-11.21s-1.868-9.341-5.6-9.341h-.623c-17.437,2.491-36.743,3.114-54.18,3.114-36.12,0-66.635-3.114-67.258-3.114-3.114,0-6.228,5.6-6.228,10.587,0,3.737,1.868,7.473,6.85,7.473,31.761,2.491,41.1,7.473,41.1,20.551,0,5.6-1.868,29.27-40.479,124.552-1.246,2.491-3.114,4.359-4.359,4.359-1.868,0-3.737-1.868-4.982-4.359-13.7-31.761-40.479-87.187-52.312-116.456a24.448,24.448,0,0,1-1.868-8.719c0-9.964,8.1-16.192,24.91-18.683a13.022,13.022,0,0,0,5.6-10.587c0-4.359-2.491-8.1-6.228-8.1h-.623c-19.928,1.868-43.593,2.491-66.013,2.491-45.462,0-87.187-2.491-87.187-2.491-3.114,0-5.6,3.737-5.6,8.1,0,3.737,1.246,7.473,4.982,9.964,26.156,3.114,37.366,10.587,49.821,34.875,19.928,37.988,99.019,194.924,99.019,203.02,0,.623-39.234,104-45.462,104-1.868,0-3.737-2.491-5.6-6.85C232.518-469.063,152.8-619.148,127.271-685.161c-1.246-3.737-2.491-6.85-2.491-9.964,0-8.719,8.1-13.7,26.156-15.569a13.914,13.914,0,0,0,6.228-11.21c0-4.359-2.491-8.1-6.85-8.1h-.623c-19.306,2.491-42.348,3.114-64.767,3.114C40.707-726.886.228-730,.228-730-4.132-730-6-726.886-6-722.527c0,3.737,1.868,8.719,4.982,11.21,24.288,3.737,33.006,10.587,44.839,34.252,20.551,43.593,77.845,150.708,115.211,227.308,37.366,77.222,72.24,149.463,79.713,172.5,3.737,11.832,10.587,15.569,16.815,15.569,6.85-.623,13.078-6.85,15.569-13.078,41.1-101.51,69.127-170.014,70.372-170.014,1.868,0,77.845,157.559,82.2,171.259,2.491,6.85,6.85,10.587,11.21,10.587,4.982,0,9.964-3.737,13.7-11.21,18.683-40.479,138.876-325.7,183.092-407.909,9.341-17.437,19.928-25.533,41.725-29.27,4.359-3.737,6.85-8.1,6.85-11.21,0-4.359-2.491-7.473-7.473-7.473Z" transform="translate(6 730)"/></svg>