<svg xmlns="http://www.w3.org/2000/svg" width="200" height="203.74" viewBox="0 0 200 203.74"><defs><style>.a,.n{isolation:isolate;}.b{fill:#ff9d8b;}.c{fill:#514e4e;}.d{fill:#ffe82d;}.e{fill:#f7b100;}.f{fill:#bfe4f8;}.g{fill:#fff;}.h{fill:#f19000;}.i{fill:#ea5717;}.j,.k,.l{fill:none;stroke:#dc000c;stroke-linecap:round;stroke-linejoin:round;stroke-width:2px;}.k{stroke-dasharray:3.25 10.84;}.l{stroke-dasharray:3.06 10.2;}.m{fill:#d0d0d0;}.n{opacity:0.3;mix-blend-mode:multiply;}.o{fill:#dc000c;}</style></defs><g class="a" transform="translate(0 0.07)"><circle class="b" cx="100" cy="100" r="100" transform="translate(0 3.67)"/><path class="c" d="M46.77,156.11a3.79,3.79,0,0,1-4,3.6H31a3.8,3.8,0,0,1-3.95-3.6V115.59A3.8,3.8,0,0,1,31,112H42.82a3.79,3.79,0,0,1,4,3.6Z"/><path class="c" d="M173,156.11a3.8,3.8,0,0,1-3.95,3.6H157.18a3.81,3.81,0,0,1-4-3.6V115.59a3.81,3.81,0,0,1,4-3.6h11.87a3.8,3.8,0,0,1,3.95,3.6Z"/><path class="d" d="M172.17,101.41a42.52,42.52,0,0,0-6.41-11.9s-9.33-29.76-10-32.41-7.61-9.73-11.39-11.24C127,38.93,73,38.93,55.6,45.86c-3.79,1.51-10.75,8.6-11.39,11.24s-10,32.41-10,32.41a42.52,42.52,0,0,0-6.41,11.9c-2.57,7.28-2.13,19.85,1.42,26.46,3.87,7.17,11.4,16.53,11.4,16.53s15.79,6.64,23.5,7.94,12.42,1.22,35.85.69c23.42.53,28.15.61,35.85-.69s23.5-7.94,23.5-7.94,7.53-9.36,11.4-16.53C174.3,121.26,174.74,108.69,172.17,101.41Z"/><rect class="e" width="81.8" height="20.81" transform="translate(59.1 97.98)"/><path class="f" d="M153,76.17l-5.16-17.38s-2.73-6.07-4.85-7.59-12.53-3.07-18.51-3.91a188,188,0,0,0-24-1.66h-.92a188,188,0,0,0-24,1.66c-6,.84-16.38,2.39-18.51,3.91s-4.85,7.59-4.85,7.59L47.05,76.17s21-2.11,53-2.38C132,74.06,153,76.17,153,76.17Z"/><path class="g" d="M123,116.87a1.58,1.58,0,0,1-1.52,1.63H78.53A1.58,1.58,0,0,1,77,116.87V100.48a1.58,1.58,0,0,1,1.51-1.64h42.93a1.58,1.58,0,0,1,1.52,1.64Z"/><path class="g" d="M57.78,113.3a3,3,0,0,1-3.4,2.87l-18.85-1.76A4.91,4.91,0,0,1,31.41,111l-1.69-7.31a2.52,2.52,0,0,1,2.7-3.12H54.36a3.32,3.32,0,0,1,3.42,3.18Z"/><path class="h" d="M37.26,100.83H34.74a2.6,2.6,0,0,0-2.65,3.36l1.13,4.67a5.18,5.18,0,0,0,4,3.61Z"/><path class="i" d="M53.18,100.83H37.83v11.73l15.36,1.36a3.12,3.12,0,0,0,3.45-3.15V104.3a3.48,3.48,0,0,0-3.46-3.47Z"/><path class="g" d="M142.22,113.3a3,3,0,0,0,3.4,2.87l18.84-1.76a4.91,4.91,0,0,0,4.13-3.43l1.69-7.31a2.52,2.52,0,0,0-2.7-3.12H145.64a3.32,3.32,0,0,0-3.42,3.18Z"/><path class="h" d="M162.74,100.83h2.53a2.6,2.6,0,0,1,2.64,3.36l-1.13,4.67a5.2,5.2,0,0,1-4,3.61Z"/><path class="i" d="M146.82,100.83h15.35v11.73l-15.36,1.36a3.12,3.12,0,0,1-3.45-3.15V104.3a3.48,3.48,0,0,1,3.46-3.47Z"/><path class="g" d="M73.46,101.5a6.072,6.072,0,0,0-.88-.1h-.52c-1.7,0-3.1.78-3.1,1.71v10.55c0,.94,1.4,1.71,3.1,1.71h.52a4.929,4.929,0,0,0,.88-.1Z"/><path class="g" d="M126.54,101.5a6.073,6.073,0,0,1,.88-.1h.52c1.7,0,3.09.78,3.09,1.71v10.55c0,.94-1.39,1.71-3.09,1.71h-.52a4.929,4.929,0,0,1-.88-.1Z"/><path class="e" d="M26.54,118.22a28.29,28.29,0,0,0,2.71,9.65c3.87,7.17,11.4,16.53,11.4,16.53s15.79,6.64,23.5,7.94,12.42,1.22,35.85.69c23.42.53,28.15.61,35.85-.69s23.5-7.94,23.5-7.94,7.53-9.36,11.4-16.53a28.29,28.29,0,0,0,2.71-9.65Z"/><path class="g" d="M65.2,52.62c-4,.77-4.71,1-7.56,4.08-1.75,1.89-3,6.44-2.56,9.18C59.75,60.45,68.48,54.41,73.93,51Z"/><path class="j" d="M151.46,76l1.49.14-.43-1.44"/><path class="k" d="M149.44,64.33l-1.65-5.54s-2.73-6.07-4.85-7.59-12.53-3.07-18.51-3.91c-5.75-.8-11.52-1.26-17.06-1.49"/><path class="j" d="M102,45.65H98.1"/><path class="k" d="M87.22,46.1c-3.84.26-7.75.65-11.65,1.19-6,.84-16.38,2.39-18.51,3.91s-4.85,7.59-4.85,7.59L49,69.53"/><path class="j" d="M47.48,74.73l-.43,1.44L48.54,76"/><path class="l" d="M58.71,75.26C68,74.65,82.3,73.94,100,73.79c21.36.18,37.8,1.18,46.37,1.82"/><path class="m" d="M136.65,63a4,4,0,0,1-3.15-1.89,4.17,4.17,0,0,0-2.7-1.82,29.31,29.31,0,0,1-17.27-10.18,30.005,30.005,0,1,1,46.23,0,29.28,29.28,0,0,1-17.27,10.18,4.13,4.13,0,0,0-2.7,1.82A4,4,0,0,1,136.65,63Z"/><path class="g" d="M136.65,1.57a28.35,28.35,0,0,0-5.56,56.17c3.53.64,3.66,3.69,5.57,3.69s2-3,5.57-3.69a28.35,28.35,0,0,0-5.58-56.17Z"/><g class="n"><rect width="21.61" height="10.78" rx="1.71" transform="translate(126.71 27.89)"/></g><rect class="o" width="21.61" height="10.78" rx="1.71" transform="translate(125.85 27.04)"/><path class="o" d="M136.66,23.86l-1.77-7.04h3.53Z"/><path class="o" d="M132.29,23.83l-5.03-3.55,2.26-1.95Z"/><path class="o" d="M141.02,23.83l5.03-3.55-2.26-1.95Z"/></g></svg>