<svg xmlns="http://www.w3.org/2000/svg" width="200" height="205.04" viewBox="0 0 200 205.04"><defs><style>.a,.n{isolation:isolate;}.b{fill:#93cef4;}.c{fill:#ff9d8b;}.d,.o{fill:#dc000c;}.d{stroke:#fff;}.e{fill:#fff;}.f{fill:#514e4e;}.g{fill:#ffe82d;}.h{fill:#f7b100;}.i{fill:#bfe4f8;}.j{fill:#f19000;}.k{fill:#ea5717;}.l{fill:none;stroke:#dc000c;stroke-linecap:round;stroke-linejoin:round;stroke-width:2px;stroke-dasharray:3 10;}.m{fill:#d0d0d0;}.n{opacity:0.3;mix-blend-mode:multiply;}.p{fill:#00a0e9;}.q{fill:#999;}.r{fill:#b3b3b3;}.s{fill:#ceeafa;}.t{fill:#e9f5f1;}.u{fill:#007cb2;}.v{fill:#c4dcea;}.w{opacity:0.5;}</style></defs><g class="a" transform="translate(0 -12)"><circle class="b" cx="100" cy="100" r="100" transform="translate(0 17.04)"/><path class="c" d="M200,117A100,100,0,0,1,0,117Z"/><circle class="d" cx="12.5" cy="12.5" r="12.5" transform="translate(88 104.45)"/><path class="e" d="M-949-2349.051v-4h-4v-3h4v-4h3v4h4v3h-4v4Z" transform="translate(1048 2471.5)"/><path class="f" d="M66.26,211.26a2.43,2.43,0,0,1-2.53,2.3h-7.6a2.43,2.43,0,0,1-2.53-2.3V185.33a2.43,2.43,0,0,1,2.53-2.3h7.6a2.43,2.43,0,0,1,2.53,2.3Z"/><path class="f" d="M147,211.26a2.43,2.43,0,0,1-2.53,2.3h-7.59a2.43,2.43,0,0,1-2.53-2.3V185.33a2.43,2.43,0,0,1,2.53-2.3h7.59a2.43,2.43,0,0,1,2.53,2.3Z"/><path class="g" d="M146.51,176.26a27,27,0,0,0-4.1-7.62s-6-19-6.38-20.74-4.87-6.23-7.29-7.2c-11.13-4.43-45.71-4.43-56.83,0-2.43,1-6.88,5.51-7.29,7.2s-6.38,20.74-6.38,20.74a27,27,0,0,0-4.1,7.62c-1.65,4.65-1.37,12.7.91,16.93a87.779,87.779,0,0,0,7.29,10.58s10.11,4.24,15,5.08,8,.78,22.94.44c15,.34,18,.39,23-.44s15-5.08,15-5.08a87.784,87.784,0,0,0,7.29-10.58C147.88,189,148.16,180.91,146.51,176.26Z"/><rect class="h" width="52.35" height="13.32" transform="translate(74.15 174.06)"/><path class="i" d="M134.21,160.1l-3.3-11.1s-1.75-3.89-3.11-4.86-8-2-11.84-2.5a119.457,119.457,0,0,0-15.34-1.06H100a119.344,119.344,0,0,0-15.34,1.06c-3.83.54-10.48,1.53-11.85,2.5s-3.1,4.86-3.1,4.86l-3.3,11.12s13.41-1.35,33.88-1.52C120.8,158.75,134.21,160.1,134.21,160.1Z"/><path class="e" d="M115,186.15a1,1,0,0,1-1,1H86.59a1,1,0,0,1-1-1V175.66a1,1,0,0,1,1-1h27.47a1,1,0,0,1,1,1Z"/><path class="e" d="M73.3,183.86a1.9,1.9,0,0,1-2.17,1.84l-12.06-1.13a3.11,3.11,0,0,1-2.64-2.19l-1.09-4.68a1.62,1.62,0,0,1,1.73-2H71.12a2.12,2.12,0,0,1,2.18,2Z"/><path class="j" d="M60.17,175.89H58.56a1.67,1.67,0,0,0-1.7,2.15l.73,3a3.3,3.3,0,0,0,2.58,2.31Z"/><path class="k" d="M70.36,175.89H60.53v7.5l9.84.87a2,2,0,0,0,2.2-2V178.1a2.21,2.21,0,0,0-2.21-2.21Z"/><path class="e" d="M127.35,183.86a1.89,1.89,0,0,0,2.17,1.84l12.06-1.13a3.11,3.11,0,0,0,2.64-2.19l1.08-4.68a1.61,1.61,0,0,0-1.72-2H129.53a2.12,2.12,0,0,0-2.18,2Z"/><path class="j" d="M140.48,175.89h1.61a1.66,1.66,0,0,1,1.69,2.15l-.72,3a3.31,3.31,0,0,1-2.58,2.31Z"/><path class="k" d="M130.29,175.89h9.82v7.5l-9.83.87a2,2,0,0,1-2.2-2V178.1a2.21,2.21,0,0,1,2.21-2.21Z"/><path class="e" d="M83.34,176.31a3.31,3.31,0,0,0-.56-.06h-.33c-1.1,0-2,.49-2,1.09v6.75c0,.6.89,1.1,2,1.1h.33a3.3,3.3,0,0,0,.56-.07Z"/><path class="e" d="M117.31,176.31a3.311,3.311,0,0,1,.56-.06h.33c1.09,0,2,.49,2,1.09v6.75c0,.6-.9,1.1-2,1.1h-.33a3.3,3.3,0,0,1-.56-.07Z"/><path class="h" d="M53.31,187a18.08,18.08,0,0,0,1.74,6.18,87.783,87.783,0,0,0,7.29,10.58s10.11,4.24,15,5.08,8,.78,22.94.44c15,.34,18,.39,23-.44s15-5.08,15-5.08a87.783,87.783,0,0,0,7.29-10.58,18.08,18.08,0,0,0,1.74-6.18Z"/><path class="e" d="M78.05,145c-2.59.49-3,.65-4.83,2.61a8.59,8.59,0,0,0-1.65,5.88c3-3.48,8.58-7.34,12.07-9.51Z"/><path class="l" d="M134.21,160.1l-3.3-11.1s-1.75-3.89-3.11-4.86-8-2-11.84-2.5a119.457,119.457,0,0,0-15.34-1.06H100a119.344,119.344,0,0,0-15.34,1.06c-3.83.54-10.48,1.53-11.85,2.5s-3.1,4.86-3.1,4.86l-3.3,11.12s13.41-1.35,33.88-1.52C120.8,158.75,134.21,160.1,134.21,160.1Z"/><path class="m" d="M144.68,150.32a2.56,2.56,0,0,1,1.21-2,2.66,2.66,0,0,0,1.17-1.73,18.68,18.68,0,0,1,6.52-11.05,19.2,19.2,0,1,1,0,29.579,18.68,18.68,0,0,1-6.519-11.049,2.63,2.63,0,0,0-1.17-1.73,2.54,2.54,0,0,1-1.21-2.02Z"/><path class="e" d="M184,150.32a18.15,18.15,0,0,0-35.95-3.56c-.41,2.27-2.36,2.34-2.36,3.57s1.95,1.3,2.36,3.56A18.15,18.15,0,0,0,184,150.32Z"/><g class="n"><rect width="13.83" height="6.9" rx="1.1" transform="translate(158.48 149.36)"/></g><rect class="o" width="13.83" height="6.9" rx="1.1" transform="translate(157.93 148.81)"/><path class="o" d="M164.85,146.78l-1.13-4.5h2.26Z"/><path class="o" d="M162.05,146.76l-3.22-2.27,1.45-1.24Z"/><path class="o" d="M167.64,146.76l3.22-2.27-1.45-1.24Z"/><path class="p" d="M170.93,60c-4.52-5.59-8-7.09-12.26-10.75-1.76-1.49-10.11-8.13-17.42-11.61-4.52-2.15-14.41-3-25.59-3.44-5.51-.21-22-.89-30.31,1.5-2.07.59-6.89,1.72-15.49,9.68-4.81,4.43-9,7.87-12,11.18-9.39,1.7-14.2,2.15-24.09,6.24C31,63.91,27.92,65.59,23,69.46c-2.84,2.22-4.31,7.1-4.73,12-.46,5.36,5.6,6.89,5.6,6.89s2.79,1.93,5.59,4.08,12.47,3.66,12.47,3.66H44.3a14.85,14.85,0,1,1,26.63-.45l59.81-1a14.83,14.83,0,1,1,28.69-5.28,15.291,15.291,0,0,1-.36,3.26c6.78-3.49,12.35-11,13.6-16.92C173.81,70.19,173,62.57,170.93,60Z"/><path class="f" d="M71.15,89.74A13.48,13.48,0,1,1,57.67,76.26,13.48,13.48,0,0,1,71.15,89.74Z"/><path class="e" d="M66.21,89.73a8.54,8.54,0,1,1-8.53-8.53A8.54,8.54,0,0,1,66.21,89.73Z"/><path class="f" d="M59,82.89a.72.72,0,0,0-.71-.72h-.8a.72.72,0,0,0-.71.72v3.46a.71.71,0,0,0,.71.71h.8a.71.71,0,0,0,.71-.71Z"/><path class="f" d="M56.22,86.4,53.78,84a.69.69,0,0,0-1,0l-.56.55a.74.74,0,0,0,0,1L54.65,88a.72.72,0,0,0,1,0l.55-.56a.7.7,0,0,0,.02-1.04Z"/><path class="f" d="M55,89.91v-.79a.73.73,0,0,0-.72-.72H50.82a.73.73,0,0,0-.71.72v.79a.72.72,0,0,0,.71.72h3.47a.73.73,0,0,0,.71-.72Z"/><path class="f" d="M55.35,91.19a.71.71,0,0,0-1,0L51.9,93.64a.7.7,0,0,0,0,1l.55.57a.71.71,0,0,0,1,0l2.45-2.45a.71.71,0,0,0,0-1Z"/><path class="f" d="M57.84,92.4h-.78a.72.72,0,0,0-.72.72v3.46a.72.72,0,0,0,.72.71h.78a.71.71,0,0,0,.72-.71V93.12A.72.72,0,0,0,57.84,92.4Z"/><path class="f" d="M60.7,91.5a.71.71,0,0,0-1,0l-.55.56a.69.69,0,0,0,0,1l2.44,2.45a.71.71,0,0,0,1,0l.56-.56a.71.71,0,0,0,0-1Z"/><path class="f" d="M64.52,88.85H61.05a.72.72,0,0,0-.71.71v.79a.72.72,0,0,0,.71.72h3.47a.71.71,0,0,0,.71-.72v-.79A.71.71,0,0,0,64.52,88.85Z"/><path class="f" d="M60,88.29a.73.73,0,0,0,1,0l2.45-2.45a.71.71,0,0,0,0-1l-.56-.56a.72.72,0,0,0-1,0l-2.44,2.45a.71.71,0,0,0,0,1Z"/><path class="e" d="M63,89.73a5.37,5.37,0,1,1-5.37-5.36A5.37,5.37,0,0,1,63,89.73Z"/><path class="q" d="M60.52,89.73a2.85,2.85,0,1,1-2.84-2.84,2.85,2.85,0,0,1,2.84,2.84Z"/><path class="r" d="M58.39,86.45a.63.63,0,1,1-.63-.63.63.63,0,0,1,.63.63Z"/><path class="r" d="M54.45,88.22a.62.62,0,0,1,.41.79.633.633,0,1,1-.41-.79Z"/><path class="r" d="M54.92,92.51a.63.63,0,0,1,.88-.15.66.66,0,0,1,.14.89.63.63,0,0,1-.88.13.61.61,0,0,1-.14-.87Z"/><path class="r" d="M59.14,93.4a.62.62,0,1,1,.41.241.62.62,0,0,1-.41-.241Z"/><path class="r" d="M61.29,89.65a.63.63,0,1,1,.367-.317.63.63,0,0,1-.367.317Z"/><path class="f" d="M158.56,89.74a13.47,13.47,0,1,1-3.945-9.535A13.48,13.48,0,0,1,158.56,89.74Z"/><path class="e" d="M153.62,89.73a8.54,8.54,0,1,1-8.53-8.53A8.54,8.54,0,0,1,153.62,89.73Z"/><path class="f" d="M146.42,82.89a.72.72,0,0,0-.71-.72h-.8a.72.72,0,0,0-.71.72v3.46a.71.71,0,0,0,.71.71h.8a.71.71,0,0,0,.71-.71Z"/><path class="f" d="M143.63,86.4,141.19,84a.69.69,0,0,0-1,0l-.56.55a.74.74,0,0,0,0,1L142.06,88a.72.72,0,0,0,1,0l.55-.56a.7.7,0,0,0,.02-1.04Z"/><path class="f" d="M142.42,89.91v-.79a.73.73,0,0,0-.72-.72h-3.46a.72.72,0,0,0-.71.72v.79a.71.71,0,0,0,.71.72h3.46a.73.73,0,0,0,.72-.72Z"/><path class="f" d="M142.76,91.19a.71.71,0,0,0-1,0l-2.44,2.45a.7.7,0,0,0,0,1l.56.57a.7.7,0,0,0,1,0l2.45-2.45a.71.71,0,0,0,0-1Z"/><path class="f" d="M145.25,92.4h-.78a.71.71,0,0,0-.71.72v3.46a.71.71,0,0,0,.71.71h.78a.71.71,0,0,0,.72-.71V93.12A.72.72,0,0,0,145.25,92.4Z"/><path class="f" d="M148.11,91.5a.7.7,0,0,0-1,0l-.56.56a.69.69,0,0,0,0,1L149,95.52a.71.71,0,0,0,1,0l.56-.56a.71.71,0,0,0,0-1Z"/><path class="f" d="M151.93,88.85h-3.46a.72.72,0,0,0-.72.71v.79a.72.72,0,0,0,.72.72h3.46a.71.71,0,0,0,.71-.72v-.79a.71.71,0,0,0-.71-.71Z"/><path class="f" d="M147.41,88.29a.73.73,0,0,0,1,0l2.45-2.45a.71.71,0,0,0,0-1l-.56-.56a.72.72,0,0,0-1,0l-2.44,2.45a.71.71,0,0,0,0,1Z"/><path class="e" d="M150.45,89.73a5.37,5.37,0,1,1-5.37-5.36,5.37,5.37,0,0,1,5.37,5.36Z"/><path class="q" d="M147.93,89.73a2.85,2.85,0,1,1-2.84-2.84A2.85,2.85,0,0,1,147.93,89.73Z"/><path class="r" d="M145.8,86.45a.625.625,0,1,1-.62-.63A.63.63,0,0,1,145.8,86.45Z"/><path class="r" d="M141.86,88.22a.62.62,0,0,1,.41.79.633.633,0,1,1-.41-.79Z"/><path class="r" d="M142.33,92.51a.62.62,0,0,1,.87-.15.64.64,0,0,1,.14.89.63.63,0,0,1-1-.74Z"/><path class="r" d="M146.55,93.4a.62.62,0,1,1,.41.241.62.62,0,0,1-.41-.241Z"/><path class="r" d="M148.7,89.65a.63.63,0,0,1-.8-.4.65.65,0,0,1,.41-.8.631.631,0,1,1,.39,1.2Z"/><path class="s" d="M80.62,38.77S71.42,45.54,68,49.08a101.92,101.92,0,0,0-7.58,9.52,11.22,11.22,0,0,1-3.07-.48C55.94,57.64,55.62,57,55.62,57A92.53,92.53,0,0,1,68.36,44.73c7.09-5.48,11.29-6.93,11.29-6.93Z"/><path class="t" d="M18.74,78.71a16.61,16.61,0,0,1,.59-2.85,17.09,17.09,0,0,1,.86-2.42,4.42,4.42,0,0,1,1.4-1.67c.77-.49,3-.8,4.73-1.12s4.79-.44,5.59.21,0,3.22-1,4.68-3.17,2.58-6.56,3.39-4.61.74-4.94.53A1.65,1.65,0,0,1,18.74,78.71Z"/><path class="j" d="M31.69,71.29a1.81,1.81,0,0,0-1.4-.54.93.93,0,0,0-1,.54c-.21.37-.06,4.63.21,4.73s1.08-.64,1.61-1.61S32,71.67,31.69,71.29Z"/><path class="s" d="M113.27,48.82c.81,3.63,1.67,7.72,2.3,10.79l22.22-.72c-1.13-3.1-2.76-7.48-4.08-10.61a84.871,84.871,0,0,0-5.44-10.22c-3.64-.43-7.71-.67-12.07-.8h-5.87C110.89,39.22,112.13,43.71,113.27,48.82Z"/><path class="s" d="M151.52,52.74c-.86-2.79-4.67-7.25-10.48-11.13-2.39-1.59-6.11-2.61-10.67-3.28,1.37,2.21,3.74,6,5.63,8.77s4,8.12,5.32,11.67l1.82-.06S152.81,56.94,151.52,52.74Z"/><path class="s" d="M110.58,49c-.68-4.46-1.86-9.36-2.47-11.79-8.46.1-19.89.46-22.87,1.15-4.19,1-8.39,6.13-12.26,10s-8.7,12.9-8.7,12.9l47.85-1.57C111.71,56.68,111.12,52.5,110.58,49Z"/><path class="u" d="M23.85,88.39s2.79,1.93,5.59,4.08,12.47,3.66,12.47,3.66h2.37A14.79,14.79,0,0,1,47.17,78.7l-28.72,1c-.08.59-.15,1.19-.2,1.78C17.79,86.86,23.85,88.39,23.85,88.39Z"/><path class="u" d="M139.51,75.42,67,78a14.76,14.76,0,0,1,3.88,17.65l59.81-1a14.79,14.79,0,0,1,8.79-19.21Z"/><path class="u" d="M148.66,75.1a14.81,14.81,0,0,1,10.75,14.25,15.291,15.291,0,0,1-.36,3.26c6.78-3.49,12.35-11,13.6-16.92.1-.46.16-1,.23-1.46Z"/><path class="v" d="M111.33,66a1.48,1.48,0,0,0,.13-.55,1.79,1.79,0,0,0-1.93-1.59h-5.22a1.79,1.79,0,0,0-1.93,1.59,1.48,1.48,0,0,0,.13.55Z"/><g class="w"><path class="e" d="M60.49,63.31c-3.22.25-7.91.62-12.18,1-7.4.65-18.89,4.92-19,4.94l2.77-.34A98.939,98.939,0,0,1,48.39,65.6c4-.35,8.35-.7,11.53-1Z"/><path class="e" d="M151.2,58c-2.2,1.6-8.88,2.46-8.89,2.46l-1.73.06.41,1.27h1.42c.29,0,7.08-.91,9.55-2.71a10.49,10.49,0,0,0,2.36-2.66l.32-2.59A24.561,24.561,0,0,1,151.2,58Z"/><path class="e" d="M114.93,62.63l25.22-.84-.41-1.27-24.98.82Z"/><path class="e" d="M114,61.37,64.44,63l-3,.23-.55,1.34,3.67-.28,49.61-1.65Z"/></g><path class="j" d="M173,71.45a19.83,19.83,0,0,0-.73-8.16l-3.07.22s-1.79.36-2,.83.24,5.4,1.07,6.1C168.82,70.9,171.34,71.26,173,71.45Z"/><path class="e" d="M90.87,37.79,77.86,60.84l4.71-.15,12.05-23.1Z"/><path class="e" d="M88.2,37.97,75.07,60.94l1.02-.03,13.15-23Z"/><path class="l" d="M64.28,61.29,64,76a15.34,15.34,0,0,1,7.33,8,14.8,14.8,0,0,1-.44,11.58l37.25-.49,22.56-.52A14.83,14.83,0,0,1,140.56,75a57.56,57.56,0,0,0-2.79-16.17l-29.95,1Z"/><path class="m" d="M121.9,52.35a2.57,2.57,0,0,1-2-1.21A2.69,2.69,0,0,0,118.16,50a18.73,18.73,0,0,1-11-6.52,19.2,19.2,0,1,1,29.59,0A18.76,18.76,0,0,1,125.64,50a2.65,2.65,0,0,0-1.73,1.16,2.54,2.54,0,0,1-2.01,1.19Z"/><path class="e" d="M121.9,13a18.15,18.15,0,0,0-3.55,36c2.26.41,2.34,2.36,3.56,2.36s1.3-2,3.56-2.36a18.15,18.15,0,0,0-3.57-36Z"/><g class="n"><rect width="13.8" height="8.96" rx="1.25" transform="translate(110.92 25.64)"/></g><rect class="o" width="13.8" height="8.96" rx="1.25" transform="translate(110.29 25.02)"/><rect class="e" width="13.8" height="8.96" rx="1.25" transform="translate(113.84 28.56)"/><path class="o" d="M127.1,24.5l.47-4.62,2.12.76Z"/><path class="o" d="M124.48,23.54l-2.25-3.23,1.79-.69Z"/><path class="o" d="M129.73,25.43l3.79-1.05-.94-1.67Z"/><g class="n"><rect width="13.8" height="8.96" rx="1.25" transform="translate(115.47 30.19)"/></g><rect class="o" width="13.8" height="8.96" rx="1.25" transform="translate(114.84 29.56)"/></g></svg>