<svg xmlns="http://www.w3.org/2000/svg" width="242.164" height="200" viewBox="0 0 242.164 200"><defs><style>.a,.p{isolation:isolate;}.b{fill:#93cef4;}.c{fill:#00a0e9;}.d{fill:#514e4e;}.e{fill:#fff;}.f{fill:#999;}.g{fill:#b3b3b3;}.h{fill:#ceeafa;}.i{fill:#e9f5f1;}.j{fill:#f19000;}.k{fill:#007cb2;}.l{fill:#c4dcea;}.m{opacity:0.5;}.n{fill:none;stroke:#dc000c;stroke-linecap:round;stroke-linejoin:round;stroke-width:2px;stroke-dasharray:3 10;}.o{fill:#d0d0d0;}.p{opacity:0.3;mix-blend-mode:multiply;}.q{fill:#dc000c;}</style></defs><g class="a" transform="translate(0.038 -4.18)"><circle class="b" cx="100" cy="100" r="100" transform="translate(20.11 4.18)"/><path class="c" d="M238.6,93.75c-7-8.73-12.44-11.08-19.16-16.8-2.73-2.32-15.79-12.7-27.21-18.14-7.06-3.36-22.51-4.7-40-5.38-8.6-.33-34.3-1.38-47.36,2.35-3.23.92-10.76,2.69-24.2,15.12-7.51,6.94-14.09,12.3-18.82,17.48C47.19,91,39.69,91.73,24.23,98.12c-4.22,1.74-9.07,4.36-16.8,10.41C3,112,.7,119.62,0,127.35c-.71,8.37,8.75,10.75,8.75,10.75s4.37,3,8.73,6.39S37,150.2,37,150.2l3.7-.07a23.19,23.19,0,1,1,41.62-.69l93.45-1.58a23.18,23.18,0,1,1,44.83-8.25,23.77,23.77,0,0,1-.57,5.09c10.59-5.45,19.3-17.21,21.25-26.43C243.11,109.68,241.86,97.77,238.6,93.75Z"/><path class="d" d="M82.7,140.22a21.05,21.05,0,1,1-6.163-14.9A21.06,21.06,0,0,1,82.7,140.22Z"/><path class="e" d="M75,140.21a13.34,13.34,0,1,1-13.33-13.34A13.34,13.34,0,0,1,75,140.21Z"/><path class="d" d="M63.73,129.52a1.12,1.12,0,0,0-1.11-1.13H61.37a1.13,1.13,0,0,0-1.12,1.13v5.41A1.13,1.13,0,0,0,61.37,136h1.25a1.12,1.12,0,0,0,1.11-1.11Z"/><path class="d" d="M59.37,135l-3.81-3.82a1.11,1.11,0,0,0-1.58,0l-.87.87a1.14,1.14,0,0,0,0,1.59l3.81,3.81a1.11,1.11,0,0,0,1.59,0l.86-.87a1.09,1.09,0,0,0,0-1.58Z"/><path class="d" d="M57.47,140.48v-1.23a1.12,1.12,0,0,0-1.11-1.12H50.94a1.13,1.13,0,0,0-1.11,1.12v1.23a1.12,1.12,0,0,0,1.11,1.12h5.42a1.12,1.12,0,0,0,1.11-1.12Z"/><path class="d" d="M58,142.48a1.13,1.13,0,0,0-1.58,0l-3.82,3.83a1.12,1.12,0,0,0,0,1.57l.88.88a1.1,1.1,0,0,0,1.57,0l3.82-3.82a1.12,1.12,0,0,0,0-1.59Z"/><path class="d" d="M61.91,144.38H60.68a1.11,1.11,0,0,0-1.11,1.11v5.42A1.11,1.11,0,0,0,60.68,152h1.23A1.12,1.12,0,0,0,63,150.91v-5.42a1.11,1.11,0,0,0-1.09-1.11Z"/><path class="d" d="M66.36,143a1.09,1.09,0,0,0-1.58,0l-.87.88a1.1,1.1,0,0,0,0,1.57l3.82,3.83a1.13,1.13,0,0,0,1.58,0l.87-.88a1.09,1.09,0,0,0,0-1.58Z"/><path class="d" d="M72.34,138.82H66.92a1.13,1.13,0,0,0-1.11,1.12v1.24a1.13,1.13,0,0,0,1.11,1.12h5.42a1.12,1.12,0,0,0,1.11-1.12v-1.24a1.12,1.12,0,0,0-1.11-1.12Z"/><path class="d" d="M65.28,138a1.12,1.12,0,0,0,1.57,0l3.83-3.83a1.1,1.1,0,0,0,0-1.57l-.88-.88a1.11,1.11,0,0,0-1.58,0l-3.81,3.82a1.11,1.11,0,0,0,0,1.59Z"/><path class="e" d="M70,140.2a8.39,8.39,0,1,1-8.4-8.38A8.39,8.39,0,0,1,70,140.2Z"/><path class="f" d="M66.08,140.21a4.44,4.44,0,1,1-4.44-4.44A4.44,4.44,0,0,1,66.08,140.21Z"/><path class="g" d="M62.77,135.08a1,1,0,1,1-1-1A1,1,0,0,1,62.77,135.08Z"/><path class="g" d="M56.61,137.84a1.11,1.11,0,1,1-1.24.62A1,1,0,0,1,56.61,137.84Z"/><path class="g" d="M57.33,144.54a.988.988,0,1,1,.22,1.37,1,1,0,0,1-.22-1.37Z"/><path class="g" d="M63.93,145.93a1.154,1.154,0,1,1,1.36.21,1,1,0,0,1-1.36-.21Z"/><path class="g" d="M67.29,140.08a.984.984,0,1,1,.62-1.25A1,1,0,0,1,67.29,140.08Z"/><path class="d" d="M219.28,140.22a21.05,21.05,0,1,1-6.163-14.9A21.06,21.06,0,0,1,219.28,140.22Z"/><path class="e" d="M211.55,140.21a13.34,13.34,0,1,1-13.33-13.34A13.34,13.34,0,0,1,211.55,140.21Z"/><path class="d" d="M200.31,129.52a1.12,1.12,0,0,0-1.11-1.13H198a1.13,1.13,0,0,0-1.12,1.13v5.41A1.13,1.13,0,0,0,198,136h1.25a1.12,1.12,0,0,0,1.11-1.11Z"/><path class="d" d="M196,135l-3.82-3.82a1.1,1.1,0,0,0-1.57,0l-.87.87a1.14,1.14,0,0,0,0,1.59l3.81,3.81a1.11,1.11,0,0,0,1.59,0l.86-.87a1.09,1.09,0,0,0,0-1.58Z"/><path class="d" d="M194.05,140.48v-1.23a1.12,1.12,0,0,0-1.11-1.12h-5.42a1.13,1.13,0,0,0-1.11,1.12v1.23a1.12,1.12,0,0,0,1.11,1.12h5.42A1.12,1.12,0,0,0,194.05,140.48Z"/><path class="d" d="M194.59,142.48a1.13,1.13,0,0,0-1.58,0l-3.82,3.83a1.1,1.1,0,0,0,0,1.57l.88.88a1.1,1.1,0,0,0,1.57,0l3.82-3.82a1.11,1.11,0,0,0,0-1.59Z"/><path class="d" d="M198.48,144.38h-1.22a1.11,1.11,0,0,0-1.11,1.11v5.42a1.11,1.11,0,0,0,1.11,1.11h1.22a1.12,1.12,0,0,0,1.13-1.11v-5.42a1.11,1.11,0,0,0-1.13-1.11Z"/><path class="d" d="M203,143a1.11,1.11,0,0,0-1.59,0l-.87.88a1.1,1.1,0,0,0,0,1.57l3.82,3.83a1.13,1.13,0,0,0,1.58,0l.87-.88a1.09,1.09,0,0,0,0-1.58Z"/><path class="d" d="M208.92,138.82H203.5a1.13,1.13,0,0,0-1.11,1.12v1.24a1.13,1.13,0,0,0,1.11,1.12h5.42a1.13,1.13,0,0,0,1.11-1.12v-1.24a1.13,1.13,0,0,0-1.11-1.12Z"/><path class="d" d="M201.86,138a1.12,1.12,0,0,0,1.57,0l3.83-3.83a1.1,1.1,0,0,0,0-1.57l-.88-.88a1.11,1.11,0,0,0-1.58,0l-3.8,3.77a1.11,1.11,0,0,0,0,1.59Z"/><path class="e" d="M206.61,140.2a8.39,8.39,0,1,1-8.4-8.38A8.39,8.39,0,0,1,206.61,140.2Z"/><path class="f" d="M202.66,140.21a4.44,4.44,0,1,1-4.44-4.44,4.44,4.44,0,0,1,4.44,4.44Z"/><path class="g" d="M199.35,135.08a1,1,0,1,1-1-1A1,1,0,0,1,199.35,135.08Z"/><path class="g" d="M193.18,137.84a1.086,1.086,0,1,1-1.23.62A1,1,0,0,1,193.18,137.84Z"/><path class="g" d="M193.91,144.54a1,1,0,1,1,.31,1.244A1,1,0,0,1,193.91,144.54Z"/><path class="g" d="M200.51,145.93a1,1,0,1,1,1.264.066,1,1,0,0,1-1.264-.066Z"/><path class="g" d="M203.87,140.08a.984.984,0,1,1,.62-1.25A1,1,0,0,1,203.87,140.08Z"/><path class="h" d="M97.49,60.57S83.12,71.16,77.83,76.69A160.872,160.872,0,0,0,66,91.56a17.52,17.52,0,0,1-4.79-.75c-2.27-.75-2.77-1.76-2.77-1.76a144.359,144.359,0,0,1,19.9-19.16C89.42,61.32,96,59.06,96,59.06Z"/><path class="i" d="M.81,123a25.77,25.77,0,0,1,.92-4.45,26.16,26.16,0,0,1,1.35-3.78,6.74,6.74,0,0,1,2.18-2.61c1.2-.76,4.62-1.25,7.39-1.75s7.48-.68,8.73.33,0,5-1.5,7.31-5,4-10.25,5.29-7.22,1.16-7.73.84A2.63,2.63,0,0,1,.81,123Z"/><path class="j" d="M21.05,111.39a2.84,2.84,0,0,0-2.19-.84,1.47,1.47,0,0,0-1.51.84c-.33.58-.08,7.24.34,7.4s1.68-1,2.52-2.52S21.56,112,21.05,111.39Z"/><path class="h" d="M148.51,76.28c1.26,5.67,2.61,12.07,3.6,16.86L186.82,92c-1.76-4.83-4.31-11.68-6.37-16.57a135.524,135.524,0,0,0-8.5-16c-5.68-.67-12-1-18.85-1.25-2-.06-5.32-.08-9.19-.06C144.8,61.27,146.73,68.3,148.51,76.28Z"/><path class="h" d="M208.28,82.41C206.94,78,201,71.07,191.9,65c-3.74-2.48-9.55-4.08-16.67-5.13,2.14,3.45,5.84,9.34,8.79,13.7,2.84,4.21,6.24,12.69,8.32,18.23l2.84-.09S210.3,89,208.28,82.41Z"/><path class="h" d="M144.32,76.61c-1.08-7-2.91-14.63-3.87-18.42-13.23.15-31.08.72-35.74,1.79-6.55,1.52-13.1,9.58-19.15,15.62S72,95.77,72,95.77l74.77-2.45C146.07,88.57,145.15,82,144.32,76.61Z"/><path class="k" d="M8.79,138.1s4.37,3,8.73,6.39S37,150.2,37,150.2l3.7-.07A23.09,23.09,0,0,1,45.23,123L.36,124.57c-.14.92-.24,1.85-.32,2.78C-.67,135.72,8.79,138.1,8.79,138.1Z"/><path class="k" d="M189.51,117.85l-113.25,4a23.09,23.09,0,0,1,6.07,27.57l93.45-1.58a23.08,23.08,0,0,1,13.73-30Z"/><path class="k" d="M203.8,117.34a23.17,23.17,0,0,1,16.81,22.27,23.772,23.772,0,0,1-.57,5.09c10.59-5.45,19.3-17.21,21.25-26.43.15-.72.25-1.5.36-2.28Z"/><path class="l" d="M145.47,103.16a2.14,2.14,0,0,0,.21-.87,2.79,2.79,0,0,0-3-2.48h-8.16a2.8,2.8,0,0,0-3,2.48,2.15,2.15,0,0,0,.22.87Z"/><g class="m"><path class="e" d="M66,98.92c-5,.39-12.36,1-19,1.55-11.56,1-29.5,7.69-29.65,7.73l4.33-.55c.14,0,14.14-4.18,25.49-5.17,6.24-.54,13-1.09,18-1.47Z"/><path class="e" d="M207.77,90.58c-3.44,2.5-13.87,3.84-13.88,3.84l-2.71.09.64,2,2.23-.07c.45-.06,11-1.41,14.91-4.22A16.63,16.63,0,0,0,212.65,88l.5-4S209.69,89.19,207.77,90.58Z"/><path class="e" d="M151.11,97.86l39.4-1.31-.64-1.99-39.04,1.29Z"/><path class="e" d="M149.57,95.89,72.22,98.46l-4.78.35-.86,2.1,5.74-.44,77.53-2.57Z"/></g><path class="j" d="M241.89,111.64a30.86,30.86,0,0,0-1.15-12.75l-4.79.35s-2.8.56-3.18,1.29.38,8.43,1.68,9.53C235.3,110.79,239.25,111.35,241.89,111.64Z"/><path class="e" d="M113.51,59.05,93.18,95.07l7.36-.24,18.82-36.09Z"/><path class="e" d="M109.34,59.33,88.83,95.22l1.59-.05,20.55-35.93Z"/><path class="n" d="M72,95.77l-.4,23A23.91,23.91,0,0,1,83,131.34a23.12,23.12,0,0,1-.68,18.1l58.19-.77,35.26-.81a23.14,23.14,0,0,1,15.4-30.57c0-12.54-4.36-25.28-4.36-25.28L140,93.54Z"/><path class="o" d="M142.8,84.53a4,4,0,0,1-3.14-1.89A4.24,4.24,0,0,0,137,80.82a29.24,29.24,0,0,1-17.26-10.18,30,30,0,1,1,46.233,0A29.29,29.29,0,0,1,148.7,80.82a4.15,4.15,0,0,0-2.7,1.82,4,4,0,0,1-3.2,1.89Z"/><path class="e" d="M142.8,23.1a28.36,28.36,0,0,0-5.55,56.18c3.53.64,3.65,3.69,5.56,3.69s2-3,5.57-3.69A28.36,28.36,0,0,0,142.8,23.1Z"/><g class="p"><rect width="21.56" height="14" rx="1.95" transform="translate(133.01 48.06)"/></g><rect class="q" width="21.56" height="14" rx="1.95" transform="translate(132.03 47.09)"/><path class="q" d="M142.81,43.9l-1.76-7.05h3.52Z"/><path class="q" d="M138.45,43.87l-5.01-3.56,2.26-1.95Z"/><path class="q" d="M147.16,43.87l5.02-3.56-2.26-1.95Z"/></g></svg>