<svg xmlns="http://www.w3.org/2000/svg" xmlns:xlink="http://www.w3.org/1999/xlink" width="500" height="340" viewBox="0 0 500 340"><defs><style>.a{fill:#ddf7d1;}.b{fill:#514e4e;}.c{fill:#ffe82d;}.d{fill:#f7b100;}.e{fill:#bfe4f8;}.f{fill:#d0d0d0;}.g{fill:#fff;}.h{fill:#f19000;}.i{fill:#ea5717;}.j{fill:#585757;}.j,.m{font-size:14px;font-family:YuGo-Bold, YuGothic;font-weight:700;}.k,.o{fill:none;}.k{stroke:#dc0916;stroke-linecap:round;stroke-width:2px;stroke-dasharray:3 8;}.l,.m{fill:#dc000c;}.n{stroke:none;}.p{filter:url(#a);}</style><filter id="a" x="196.776" y="66.193" width="108.26" height="46.417" filterUnits="userSpaceOnUse"><feOffset dy="1" input="SourceAlpha"/><feGaussianBlur result="b"/><feFlood flood-opacity="0.161"/><feComposite operator="in" in2="b"/><feComposite in="SourceGraphic"/></filter></defs><g transform="translate(-720 -2097)"><rect class="a" width="500" height="340" rx="4" transform="translate(720 2097)"/><g transform="translate(-6.057 91.098)"><g transform="translate(-6994.199 -1092.42)"><path class="b" d="M56.828,362.615c0,4.1-3.689,7.455-8.2,7.455H24.042c-4.522,0-8.192-3.353-8.192-7.455V278.632c0-4.109,3.689-7.462,8.192-7.462H48.63c4.522,0,8.2,3.353,8.2,7.462Z" transform="translate(7801.082 3027.029)"/><path class="b" d="M461.7,362.615c0,4.1-3.7,7.455-8.2,7.455H428.918c-4.522,0-8.2-3.353-8.2-7.455V278.632c0-4.109,3.7-7.462,8.2-7.462h24.588c4.522,0,8.2,3.353,8.2,7.462Z" transform="translate(7657.77 3027.029)"/><path class="c" d="M315.756,168.312a88.2,88.2,0,0,0-13.282-24.672s-19.342-61.67-20.634-67.155S266.05,56.316,258.2,53.2c-36.023-14.368-147.986-14.368-184,0-7.849,3.12-22.282,17.817-23.638,23.289s-20.673,67.187-20.673,67.187a88.528,88.528,0,0,0-13.237,24.64c-5.317,15.046-4.425,41.113,2.946,54.822,8.017,14.859,23.612,34.24,23.612,34.24s32.728,13.748,48.7,16.441,25.751,2.526,74.293,1.434c48.536,1.092,58.336,1.292,74.293-1.434s48.7-16.441,48.7-16.441,15.6-19.381,23.606-34.24C320.168,209.425,321.072,183.39,315.756,168.312Z" transform="translate(7802 3108)"/><rect class="d" width="169.499" height="43.116" transform="translate(7883.447 3269.199)"/><path class="e" d="M299.6,134.828,288.918,85.639S283.259,73.061,278.859,69.9,252.9,63.551,240.5,61.8a387.544,387.544,0,0,0-49.673-3.43h-1.886a387.468,387.468,0,0,0-49.673,3.43c-12.4,1.751-33.949,4.962-38.355,8.1S90.845,85.639,90.845,85.639L80.16,134.828s43.439-4.341,109.722-4.923C256.171,130.486,299.6,134.828,299.6,134.828Z" transform="translate(7778.318 3102.354)"/><path class="f" d="M271.52,266.39a3.275,3.275,0,0,1-3.133,3.385H179.422a3.275,3.275,0,0,1-3.133-3.385V232.435a3.275,3.275,0,0,1,3.133-3.4h88.965a3.275,3.275,0,0,1,3.133,3.4Z" transform="translate(7744.292 3041.946)"/><path class="g" d="M82.631,260.943c0,3.631-3.178,6.305-7.055,5.95L36.53,263.262c-3.876-.355-7.72-3.56-8.547-7.106L24.475,241c-.82-3.553,1.7-6.46,5.595-6.46H75.544a6.914,6.914,0,0,1,7.106,6.6Z" transform="translate(7798.084 3039.995)"/><path class="h" d="M42.779,235.43H37.553a5.381,5.381,0,0,0-5.472,6.964l2.339,9.69a10.707,10.707,0,0,0,8.36,7.475Z" transform="translate(7795.407 3039.68)"/><path class="i" d="M82.39,235.43H50.58V259.7l31.836,2.83a6.46,6.46,0,0,0,7.106-6.525V242.6A7.184,7.184,0,0,0,82.39,235.43Z" transform="translate(7788.789 3039.68)"/><path class="g" d="M385.409,260.943c0,3.631,3.172,6.305,7.055,5.95l39.04-3.631c3.876-.355,7.752-3.56,8.547-7.106L443.558,241c.827-3.553-1.693-6.46-5.588-6.46H392.5a6.914,6.914,0,0,0-7.106,6.6Z" transform="translate(7670.275 3039.995)"/><path class="h" d="M451.24,235.43h5.233a5.39,5.39,0,0,1,5.478,6.964l-2.345,9.69a10.706,10.706,0,0,1-8.366,7.475Z" transform="translate(7646.967 3039.68)"/><path class="i" d="M396.262,235.43h31.817V259.7l-31.843,2.83a6.46,6.46,0,0,1-7.106-6.525V242.6A7.184,7.184,0,0,1,396.262,235.43Z" transform="translate(7668.952 3039.68)"/><path class="f" d="M159.779,237.463a10.415,10.415,0,0,0-1.835-.213h-1.072c-3.527,0-6.422,1.6-6.422,3.547v21.855c0,1.938,2.894,3.547,6.422,3.547h1.072a11.065,11.065,0,0,0,1.835-.213Z" transform="translate(7753.438 3039.036)"/><path class="f" d="M335.12,237.463a10.267,10.267,0,0,1,1.822-.213h1.079c3.527,0,6.422,1.6,6.422,3.547v21.855c0,1.938-2.894,3.547-6.422,3.547h-1.079a10.908,10.908,0,0,1-1.822-.213Z" transform="translate(7688.07 3039.036)"/><path class="d" d="M14.36,291.19c.93,7.61,2.791,14.717,5.627,20.027C28,326.076,43.6,345.456,43.6,345.456S76.327,359.2,92.3,361.9s25.751,2.526,74.293,1.434c48.536,1.092,58.336,1.292,74.293-1.434s48.7-16.441,48.7-16.441,15.6-19.381,23.606-34.24c2.842-5.285,4.7-12.391,5.633-20.027Z" transform="translate(7801.609 3019.943)"/><path class="g" d="M126.777,78.978c-8.4,1.583-9.755,2.106-15.653,8.45-3.624,3.876-6.247,13.334-5.317,19.019C115.5,95.2,133.586,82.686,144.865,75.67Z" transform="translate(7769.307 3096.23)"/><g class="p" transform="matrix(1, 0, 0, 1, 7720.26, 3098.32)"><path class="g" d="M279.047,106.592a2.617,2.617,0,0,1-1.053,2.275,3.874,3.874,0,0,1-2.778.766,831.57,831.57,0,0,0-100.58,0,3.88,3.88,0,0,1-2.776-.768,2.623,2.623,0,0,1-1.055-2.273l2.707-37.379a4.245,4.245,0,0,1,4.07-3.542,783.229,783.229,0,0,1,94.721,0,4.237,4.237,0,0,1,4.063,3.542Z" transform="translate(25.98 1.96)"/></g></g><text class="j" transform="translate(938 2133)"><tspan x="0" y="0">0123456789</tspan></text><g class="k" transform="translate(924 2119)"><rect class="n" width="106" height="18"/><rect class="o" x="1" y="1" width="104" height="16"/></g><g transform="translate(-6757 123)"><path class="f" d="M143.93,78.3a4.971,4.971,0,0,1-3.914-2.349,5.182,5.182,0,0,0-3.355-2.262A36.422,36.422,0,0,1,115.2,61.044a37.286,37.286,0,1,1,57.448,0,36.385,36.385,0,0,1-21.46,12.65,5.132,5.132,0,0,0-3.355,2.262A4.971,4.971,0,0,1,143.93,78.3Z" transform="translate(7773.472 1841.063) rotate(51)"/><path class="g" d="M143.555,1.57a35.229,35.229,0,0,0-6.909,69.8c4.387.8,4.548,4.585,6.922,4.585s2.485-3.728,6.922-4.585a35.229,35.229,0,0,0-6.934-69.8Z" transform="translate(7773.398 1841.605) rotate(51)"/><path class="l" d="M137.09,25.568l-2.2-8.748h4.387Z" transform="translate(7696.573 1942.516)"/><path class="l" d="M133.511,25.165l-6.251-4.411,2.808-2.423Z" transform="translate(7694.721 1942.883)"/><path class="l" d="M141.02,25.165l6.251-4.411-2.808-2.423Z" transform="translate(7698.061 1942.883)"/><text class="m" transform="translate(7807 1986)"><tspan x="0" y="0">特定番号</tspan></text></g></g></g></svg>