<svg xmlns="http://www.w3.org/2000/svg" width="116" height="125" viewBox="0 0 116 125"><defs><style>.a{fill:#ffedee;}.b,.c,.d,.f{fill:none;}.b,.c,.d{stroke:#dc0916;stroke-width:2px;}.b,.d{stroke-linecap:round;}.b{stroke-linejoin:round;}.e{stroke:none;}</style></defs><g transform="translate(-291 -2086)"><path class="a" d="M1.195,115.8a57.993,57.993,0,1,1,10.666-.1L6.5,125Z" transform="translate(343 2086)"/><g transform="translate(1292.08 155.191)"><path class="b" d="M-974.853,2001.279h-3.224s-5.209-1.854-1.906-8.356,11.874-7.183,11.874-7.183,7.889-15.789,24.48-18.471,23.073,7.056,24.92,10.555a17.71,17.71,0,0,1,2.052,6.3s5.952,1.591,6.6,6.157,2.4,10.849-3.372,10.994" transform="translate(0 0)"/><path class="b" d="M-935.839,1983.735v-12.4s-8.249.075-14.366,4.691a61.9,61.9,0,0,0-8.8,7.711Z" transform="translate(-2.66 -0.545)"/><path class="b" d="M-927.306,1983.764h13.193a14.578,14.578,0,0,0-7.285-9.983c-6.374-3.462-5.936-1.521-5.936-1.521Z" transform="translate(-7.353 -0.591)"/><g class="c" transform="translate(-972.214 1990.725)"><circle class="e" cx="9.235" cy="9.235" r="9.235"/><circle class="f" cx="9.235" cy="9.235" r="8.235"/></g><g class="c" transform="translate(-935.273 1990.725)"><circle class="e" cx="9.235" cy="9.235" r="9.235"/><circle class="f" cx="9.235" cy="9.235" r="8.235"/></g><path class="d" d="M-947.667,2006h14.22" transform="translate(-4.025 -4.721)"/><g class="c" transform="translate(-972.214 1990.725)"><circle class="e" cx="9.235" cy="9.235" r="9.235"/><circle class="f" cx="9.235" cy="9.235" r="8.235"/></g></g></g></svg>