<svg xmlns="http://www.w3.org/2000/svg" width="116" height="126" viewBox="0 0 116 126"><defs><style>.a{fill:#ffedee;}.b,.c,.f{fill:none;}.b,.c{stroke:#dc0916;stroke-linecap:round;stroke-width:2px;}.b{stroke-linejoin:round;}.d{fill:#dc0916;}.e{stroke:none;}</style></defs><g transform="translate(-643 -2437)"><path class="a" d="M.587,115.751a57.993,57.993,0,1,1,11.889-.108L6.5,126Z" transform="translate(695 2437)"/><g transform="translate(999.891 -88.977)"><g class="b" transform="translate(-323.892 2559.977)"><rect class="e" width="50" height="52" rx="6"/><rect class="f" x="1" y="1" width="48" height="50" rx="5"/></g><path class="c" d="M.824,0h48.33" transform="translate(-323.852 2569.265)"/><g class="b" transform="translate(-319.892 2575.977)"><rect class="e" width="19" height="12"/><rect class="f" x="1" y="1" width="17" height="10"/></g><line class="c" x2="16.34" transform="translate(-294.673 2576.693)"/><line class="c" x2="16.34" transform="translate(-294.673 2581.892)"/><line class="c" x2="16.34" transform="translate(-294.673 2587.091)"/><line class="c" x2="40.85" transform="translate(-319.183 2592.29)"/><line class="c" x2="40.85" transform="translate(-319.183 2597.489)"/><line class="c" x2="40.85" transform="translate(-319.183 2602.688)"/><circle class="d" cx="1.5" cy="1.5" r="1.5" transform="translate(-315.891 2563.977)"/><circle class="d" cx="1.5" cy="1.5" r="1.5" transform="translate(-308.891 2563.977)"/><circle class="d" cx="1.5" cy="1.5" r="1.5" transform="translate(-301.891 2563.977)"/></g></g></svg>