<svg xmlns="http://www.w3.org/2000/svg" width="116" height="125" viewBox="0 0 116 125"><defs><style>.a{fill:#ffedee;}.b,.e{fill:none;}.b{stroke:#dc0916;stroke-linecap:round;stroke-linejoin:round;stroke-width:2px;}.c{fill:#dc000c;}.d{stroke:none;}</style></defs><g transform="translate(-643 -2086)"><path class="a" d="M.139,115.708a58.006,58.006,0,1,1,10.666.1L5.5,125Z" transform="translate(695 2086)"/><g transform="translate(1510.488 162)"><g class="b" transform="translate(-826.399 1949)"><circle class="d" cx="19.89" cy="19.89" r="19.89"/><circle class="e" cx="19.89" cy="19.89" r="18.89"/></g><g class="b" transform="matrix(0.875, -0.485, 0.485, 0.875, -838.488, 1996.963)"><rect class="d" width="10.791" height="21.582" rx="4"/><rect class="e" x="1" y="1" width="8.791" height="19.582" rx="3"/></g><path class="b" d="M-825.333,2003.615s4.277-4.68,8.984-4.3,8.372,3.2,11.661,3.917,7.588-1.588,9.193,1" transform="translate(-2.235 -8.546)"/><path class="b" d="M-809.764,2007.109s10.023,2.331,14.8-2.352,6.021-8.8,9.269-9.269,2.075,1.937,2.075,1.937-5.768,13.5-14.8,17.154-19.964,0-19.964,0" transform="translate(-3.416 -7.889)"/><path class="c" d="M-5.544-16.248a3.426,3.426,0,0,1-2.426-.993,3.466,3.466,0,0,1-.9-2.47l-2.206.353a5.065,5.065,0,0,0,1.456,3.353c.926.9,1.963,1.279,4.08,1.5v1.9h1.279v-1.9a6.652,6.652,0,0,0,3.375-.9,4.354,4.354,0,0,0,2.029-3.948A3.91,3.91,0,0,0-.493-22.8a9.183,9.183,0,0,0-3.772-1.39v-5.624a3.11,3.11,0,0,1,1.963.838,3.1,3.1,0,0,1,.948,2.051L.786-27.3A4.7,4.7,0,0,0-.6-30.1a5.457,5.457,0,0,0-3.661-1.456V-32.68H-5.544v1.1a6.524,6.524,0,0,0-3.154.926,4.254,4.254,0,0,0-1.941,3.639,3.962,3.962,0,0,0,1.72,3.375,9.536,9.536,0,0,0,3.375,1.169Zm0-8.161c-2.117-.441-3.022-1.235-3.022-2.691a2.572,2.572,0,0,1,.993-2.051,3.673,3.673,0,0,1,2.029-.662Zm1.279,2.184a5.928,5.928,0,0,1,2.316.816,2.366,2.366,0,0,1,.97,2.073,2.858,2.858,0,0,1-1.081,2.382,4.02,4.02,0,0,1-2.206.728Z" transform="translate(-801.57 1991.168)"/></g></g></svg>