<svg xmlns="http://www.w3.org/2000/svg" width="116" height="126" viewBox="0 0 116 126"><defs><style>.a{fill:#ffedee;}.b,.c,.d,.f{fill:none;}.b,.c,.d{stroke:#dc0916;stroke-width:2px;}.b,.d{stroke-linecap:round;}.d{stroke-linejoin:round;}.e{stroke:none;}</style></defs><g transform="translate(-291 -2437)"><path class="a" d="M.587,115.751a57.993,57.993,0,1,1,11.889-.108L6.5,126Z" transform="translate(343 2437)"/><g transform="translate(771.662 -80.667)"><g transform="translate(-444.663 2544.667)"><path class="b" d="M-349.666,2544.667s7.545-.072,11.258,6.6,1.371,18.26-11.258,30.281" transform="translate(372.956 -2544.667)"/><path class="b" d="M-336.806,2544.667s-7.545-.072-11.258,6.6-1.371,18.26,11.258,30.281" transform="translate(359.757 -2544.667)"/><g class="c" transform="translate(17.596 8.023)"><circle class="e" cx="5.823" cy="5.823" r="5.823"/><circle class="f" cx="5.823" cy="5.823" r="4.823"/></g><path class="b" d="M-373.667,2582.622V2568h5.954" transform="translate(377.546 -2549.883)"/><path class="b" d="M-373.667,2567.949v14.662h17.088" transform="translate(377.546 -2527.356)"/><path class="b" d="M-375.754,2568h5.954v37.035H-383" transform="translate(411.466 -2549.883)"/><path class="d" d="M-467.833,2596.421l4.03-4.03,4.03,4.03" transform="translate(467.833 -2553.007)"/><path class="d" d="M0,4.03,4.03,0,8.06,4.03" transform="translate(21.573 51.345) rotate(90)"/></g></g></g></svg>