<svg xmlns="http://www.w3.org/2000/svg" width="116" height="126" viewBox="0 0 116 126"><defs><style>.a{fill:#ffedee;}.b,.c,.e{fill:none;}.b,.c{stroke:#dc0916;stroke-linecap:round;stroke-width:2px;}.b{stroke-linejoin:round;}.d{stroke:none;}</style></defs><g transform="translate(-994 -2086)"><path class="a" d="M-.475,115.643a58.006,58.006,0,1,1,11.888.108L5.5,126Z" transform="translate(1046 2086)"/><g transform="translate(1721.01 165.646)"><path class="b" d="M-672.659,1959.643c-5.44,1.738-5.046,9.021-5.046,9.021a4.624,4.624,0,0,0-1.312-.787c-.885-.376-3.168-.757-3.149,3.805s4.461,5.643,4.461,5.643a17.058,17.058,0,0,0,2.493,5.38,8.783,8.783,0,0,0,8.137,4.068,10.793,10.793,0,0,0,6.824-3.412c1.732-1.786,2.876-6.547,4.724-7.086s2.013-1.639,3.018-4.593a3.545,3.545,0,0,0-1.443-4.331l-.591.525-2.171,1.337s-3.538.373-10.36-3.8a16.761,16.761,0,0,1-7.612-11.576s-.077-2.266,4.008-3.248,9.313-.543,12.808,3.248,4.571,5.738,3.99,13.346" transform="translate(-1.762 0)"/><path class="b" d="M-674.248,1955.125s-4.018.209-5.225,3.227-1.677,3.878-.779,10.355" transform="translate(-2.07 -1.06)"/><path class="c" d="M-665.75,1957.125s1.478,6.188,9.448,7.48" transform="translate(-4.466 0.089)"/><path class="b" d="M-672.5,1992.6v4.053l4.921,2.854" transform="translate(-3.818 -9.029)"/><path class="b" d="M-676.318,1997.438s-12.171,4.911-13.385,7.726-.59,12.3-.59,12.3h21.16" transform="translate(0 -10.058)"/><path class="b" d="M-667.579,1992.6v4.053l-4.921,2.854" transform="translate(5.57 -9.029)"/><path class="b" d="M-683.268,1997.438s12.171,4.911,13.385,7.726.59,12.3.59,12.3h-21.16" transform="translate(21.259 -10.058)"/><path class="b" d="M-674.5,1998.375l8.464,15.649,8.858-15.649" transform="translate(-3.392 -10.257)"/><g class="b" transform="translate(-671.987 1989.397)"><rect class="d" width="5.512" height="4.724" rx="1"/><rect class="e" x="1" y="1" width="3.512" height="2.724"/></g><path class="c" d="M-666.08,2005.75l-1.452,4.232" transform="translate(-4.874 -11.825)"/><path class="c" d="M-667.531,2005.75l1.452,4.232" transform="translate(-0.15 -11.825)"/></g></g></svg>