<svg xmlns="http://www.w3.org/2000/svg" width="116" height="126" viewBox="0 0 116 126"><defs><style>.a{fill:#ffedee;}.b,.c,.d,.f{fill:none;}.b,.c,.d{stroke:#dc0916;stroke-width:2px;}.c,.d{stroke-linecap:round;}.c{stroke-linejoin:round;}.e{stroke:none;}</style></defs><g transform="translate(-994 -2437)"><path class="a" d="M.587,115.751a57.993,57.993,0,1,1,11.889-.108L6.5,126Z" transform="translate(1046 2437)"/><g transform="translate(-554.87 -48.008)"><g class="b" transform="translate(1586.87 2546.008)"><ellipse class="e" cx="9.5" cy="10" rx="9.5" ry="10"/><ellipse class="f" cx="9.5" cy="10" rx="8.5" ry="9"/></g><rect class="a" width="25" height="13" transform="translate(1583.87 2556.008)"/><path class="c" d="M1525.349,2525H1548.5l-.01,40.807H1492.25V2525H1515.4" transform="translate(87.25 -1.655)"/><path class="c" d="M1606.438,2526.121V2512.5h8.615v13.621" transform="translate(-3.257 1.77)"/><line class="d" x2="15.223" transform="translate(1599.798 2527.996)"/><g class="b" transform="translate(1590.87 2533.008)"><circle class="e" cx="5.5" cy="5.5" r="5.5"/><circle class="f" cx="5.5" cy="5.5" r="4.5"/></g><line class="d" x2="15.223" transform="translate(1611.638 2543.22)"/><line class="d" x2="18.606" transform="translate(1611.638 2549.14)"/><line class="d" x2="18.606" transform="translate(1611.638 2555.06)"/></g></g></svg>