<svg xmlns="http://www.w3.org/2000/svg" width="80.5" height="232.663" viewBox="0 0 80.5 232.663"><defs><style>.a{font-size:16px;font-family:YuGo-Bold, YuGothic;font-weight:700;}.b{fill:#dc000c;}.c{fill:#dc0916;}</style></defs><g transform="translate(-38 -412)"><g transform="translate(-3 -4)"><text class="a" transform="translate(105.5 416)"><tspan x="-8" y="14">ク</tspan><tspan x="-8" y="32">ル</tspan><tspan x="-8" y="50">マ</tspan><tspan x="-8" y="68">の</tspan><tspan x="-8" y="86">リ</tspan><tspan x="-8" y="104">ア</tspan><tspan x="-8" y="122">ウ</tspan><tspan x="-8" y="140">イ</tspan><tspan x="-8" y="158">ン</tspan><tspan x="-8" y="176">ド</tspan><tspan x="-8" y="194">ウ</tspan><tspan x="-8" y="212">や</tspan></text><text class="a" transform="translate(80.5 416)"><tspan x="-8" y="14">ボ</tspan><tspan x="-8" y="32">デ</tspan><tspan x="-8" y="50">ィ</tspan><tspan x="-8" y="68">を</tspan><tspan x="-8" y="86">広</tspan><tspan x="-8" y="104">告</tspan><tspan x="-8" y="122">枠</tspan><tspan x="-8" y="140">と</tspan><tspan x="-8" y="158">し</tspan><tspan x="-8" y="176">て</tspan><tspan x="-8" y="194">提</tspan><tspan x="-8" y="212">供</tspan></text><g transform="translate(55.839 416) rotate(90)"><rect class="b" width="227.064" height="4.332" transform="translate(0 0)"/><path class="c" d="M14.839,19.368V0H0Z" transform="translate(213.295 14.839) rotate(-90)"/></g></g></g></svg>