<svg xmlns="http://www.w3.org/2000/svg" width="130" height="250" viewBox="0 0 130 250"><defs><style>.a{font-size:16px;font-family:YuGo-Bold, YuGothic;font-weight:700;}.b{fill:#dc000c;}.c{fill:#dc0916;}</style></defs><g transform="translate(-218 -412)"><text class="a" transform="translate(340 426)"><tspan x="-8" y="0">３</tspan><tspan x="-8" y="18">種</tspan><tspan x="-8" y="36">類</tspan><tspan x="-8" y="54">の</tspan><tspan x="-8" y="72">プ</tspan><tspan x="-8" y="90">ラ</tspan><tspan x="-8" y="108">ン</tspan><tspan x="-8" y="126">に</tspan><tspan x="-8" y="144">よ</tspan><tspan x="-8" y="162">り</tspan><tspan x="0" y="180"></tspan></text><text class="a" transform="translate(315 426)"><tspan x="-8" y="0">広</tspan><tspan x="-8" y="18">告</tspan><tspan x="-8" y="36">の</tspan><tspan x="-8" y="54">上</tspan><tspan x="-8" y="72">限</tspan><tspan x="-8" y="90">額</tspan><tspan x="-8" y="108">を</tspan><tspan x="-8" y="126">設</tspan><tspan x="-8" y="144">定</tspan><tspan x="-8" y="162">。</tspan></text><text class="a" transform="translate(290 426)"><tspan x="-8" y="0">支</tspan><tspan x="-8" y="18">払</tspan><tspan x="-8" y="36">額</tspan><tspan x="-8" y="54">は</tspan><tspan x="-8" y="72">設</tspan><tspan x="-8" y="90">定</tspan><tspan x="-8" y="108">金</tspan><tspan x="-8" y="126">額</tspan><tspan x="-8" y="144">を</tspan><tspan x="-8" y="162">上</tspan><tspan x="-8" y="180">限</tspan><tspan x="-8" y="198">に</tspan><tspan x="-8" y="216">、</tspan><tspan x="0" y="234"></tspan></text><text class="a" transform="translate(265 426)"><tspan x="-8" y="0">走</tspan><tspan x="-8" y="18">行</tspan><tspan x="-8" y="36">距</tspan><tspan x="-8" y="54">離</tspan><tspan x="-8" y="72">で</tspan><tspan x="-8" y="90">計</tspan><tspan x="-8" y="108">算</tspan><tspan x="-8" y="126">。</tspan></text><g transform="translate(218 644.663) rotate(-90)"><rect class="b" width="227.064" height="4.332" transform="translate(0 10.507)"/><path class="c" d="M14.839,0V19.368H0Z" transform="translate(232.663 0) rotate(90)"/></g></g></svg>