<svg id="icon" xmlns="http://www.w3.org/2000/svg" width="16" height="21.419" viewBox="0 0 16 21.419">
  <path id="パス_14372" data-name="パス 14372" d="M162.807,87.5l-1.244,3.025,2.1,4.6H151.1V87.5Z" transform="translate(-148.113 -81.32)" fill="#1d68cd"/>
  <path id="パス_14373" data-name="パス 14373" d="M128.888,11.866h0a.883.883,0,1,1,.883-.883A.883.883,0,0,1,128.884,11.866Z" transform="translate(-126.622 -8.721)" fill="#ed664c"/>
  <path id="パス_14374" data-name="パス 14374" d="M138.962,20a.964.964,0,0,0-.961.961.948.948,0,0,0,.961.947h.007A.954.954,0,1,0,138.962,20Z" transform="translate(-136.622 -18.627)" fill="none"/>
  <path id="パス_14375" data-name="パス 14375" d="M170.224,102.574,172.84,97.9H162v10.226H172.84l-2.616-4.688A.937.937,0,0,1,170.224,102.574Z" transform="translate(-158.974 -93.623)" fill="none"/>
  <path id="パス_14376" data-name="パス 14376" d="M133.781,13.093,132.008,9,133.781,4.9a.507.507,0,0,0-.4-.831H120.207v-.6a1.783,1.783,0,1,0-1.046,0V21.419h1.046V13.956h13.171a.529.529,0,0,0,.4-.863ZM119.689,2.5h-.005a.722.722,0,0,1-.732-.722.732.732,0,0,1,1.464-.005A.725.725,0,0,1,119.689,2.5Zm.518,10.411V5.119h12.068L130.931,8.68a.52.52,0,0,0,0,.659l1.344,3.571Z" transform="translate(-117.901)"/>
</svg>
