<svg xmlns="http://www.w3.org/2000/svg" width="12.982" height="18.803" viewBox="0 0 12.982 18.803">
  <g id="icon" transform="translate(-220.502 -1676.5)">
    <path id="font" d="M3.425-6.021H6.618a.624.624,0,0,0,.355-.1.485.485,0,0,0,.2-.279,7.129,7.129,0,0,1,.659-1.292q.228-.355.633-.861A6.442,6.442,0,0,0,9.2-9.619a4.32,4.32,0,0,0,.279-1.672,4.389,4.389,0,0,0-.6-2.242,4.393,4.393,0,0,0-1.621-1.621,4.389,4.389,0,0,0-2.242-.6,4.389,4.389,0,0,0-2.242.6,4.393,4.393,0,0,0-1.621,1.621,4.389,4.389,0,0,0-.6,2.242A4.32,4.32,0,0,0,.841-9.619a6.442,6.442,0,0,0,.735,1.064q.405.507.633.861A7.129,7.129,0,0,1,2.868-6.4a.485.485,0,0,0,.2.279A.624.624,0,0,0,3.425-6.021Zm.169-5.66a.4.4,0,0,1-.114.291.4.4,0,0,1-.291.114A.4.4,0,0,1,2.9-11.39a.4.4,0,0,1-.114-.291,2.792,2.792,0,0,1,.38-1.419A2.787,2.787,0,0,1,4.2-14.139a2.792,2.792,0,0,1,1.419-.38.4.4,0,0,1,.291.114.4.4,0,0,1,.114.291.4.4,0,0,1-.114.291.4.4,0,0,1-.291.114,1.952,1.952,0,0,0-1.431.6A1.952,1.952,0,0,0,3.594-11.682Z" transform="translate(221.514 1695.56)" fill="#ffd840"/>
    <path id="font-2" data-name="font" d="M-19572.607-396.2h-2.811a.834.834,0,0,1-.6-.251.822.822,0,0,1-.244-.6v-.31a.956.956,0,0,1-.4-.315.782.782,0,0,1-.168-.491v-.983a.426.426,0,0,1,.123-.3.417.417,0,0,1,.3-.123h4.777a.4.4,0,0,1,.3.123.382.382,0,0,1,.123.3v.983a.812.812,0,0,1-.162.491.994.994,0,0,1-.4.315v.319a.817.817,0,0,1-.25.6.793.793,0,0,1-.582.246Zm-3.617-4.7a.683.683,0,0,1-.383-.108.476.476,0,0,1-.2-.27,10.181,10.181,0,0,0-.937-1.857c-.211-.324-.512-.737-.891-1.214a8.619,8.619,0,0,1-1-1.445A5.752,5.752,0,0,1-19580-408a5.873,5.873,0,0,1,.8-3.017,5.892,5.892,0,0,1,2.178-2.177,5.877,5.877,0,0,1,2.963-.8,6.006,6.006,0,0,1,3.061.8,5.869,5.869,0,0,1,2.172,2.177,5.85,5.85,0,0,1,.8,3.007,5.734,5.734,0,0,1-.373,2.251,9.379,9.379,0,0,1-.982,1.42,13.836,13.836,0,0,0-.9,1.224,10.1,10.1,0,0,0-.928,1.828.489.489,0,0,1-.207.29.638.638,0,0,1-.363.108Zm-.152-11.189a4.5,4.5,0,0,0-1.705,1.705,4.608,4.608,0,0,0-.629,2.368,4.326,4.326,0,0,0,.295,1.754,5.018,5.018,0,0,0,.781,1.106,8.7,8.7,0,0,1,.82,1.076,11.306,11.306,0,0,1,.969,1.769l.059.118h3.559l.053-.118a11.523,11.523,0,0,1,.969-1.764,8.857,8.857,0,0,1,.83-1.086,4.887,4.887,0,0,0,.762-1.076,4.554,4.554,0,0,0,.3-1.789,4.637,4.637,0,0,0-.623-2.359,4.608,4.608,0,0,0-1.711-1.71,4.676,4.676,0,0,0-2.334-.624h-.064A4.631,4.631,0,0,0-19576.377-412.083Zm-.441,4.629a.545.545,0,0,1-.4-.157.556.556,0,0,1-.158-.4,3.248,3.248,0,0,1,.984-2.393,3.236,3.236,0,0,1,2.393-.983.557.557,0,0,1,.4.157.531.531,0,0,1,.156.4.535.535,0,0,1-.156.4.557.557,0,0,1-.4.157,2.155,2.155,0,0,0-1.582.668,2.157,2.157,0,0,0-.678,1.592.556.556,0,0,1-.158.4.557.557,0,0,1-.385.158Z" transform="translate(19801.004 2090.999)" fill="#333" stroke="rgba(0,0,0,0)" stroke-miterlimit="10" stroke-width="1"/>
  </g>
</svg>
