<svg id="brank" xmlns="http://www.w3.org/2000/svg" width="13" height="13" viewBox="0 0 13 13">
  <path id="パス_6621" data-name="パス 6621" d="M876.455,8393.5h-4.364a.545.545,0,1,0,0,1.091h3.047l-5.615,5.614a.546.546,0,0,0,.772.771l5.614-5.614v3.047a.546.546,0,1,0,1.091,0v-4.364A.545.545,0,0,0,876.455,8393.5Z" transform="translate(-864 -8393.5)" fill="#1a1a1a"/>
  <path id="パス_6622" data-name="パス 6622" d="M873.273,8399.955a.545.545,0,0,0-.546.545v4.909h-7.636v-7.636H870a.546.546,0,0,0,0-1.092h-5.455a.545.545,0,0,0-.545.545v8.729a.545.545,0,0,0,.545.545h8.728a.545.545,0,0,0,.545-.545V8400.5A.545.545,0,0,0,873.273,8399.955Z" transform="translate(-864 -8393.5)" fill="#1a1a1a"/>
</svg>
