<svg xmlns="http://www.w3.org/2000/svg" width="175" height="14" viewBox="0 0 175 14"><defs><style>.a{fill:#6e6e6e;}</style></defs><path class="a" d="M-10905.283-7929.782a1.1,1.1,0,0,1-.488-.211,1.591,1.591,0,0,1-.506-1.143c-.041-.33-.058-.815-.15-1.375a8.693,8.693,0,0,0-.55-1.911,4.81,4.81,0,0,0-1.164-1.375,10.375,10.375,0,0,0-3.383-1.818,47.455,47.455,0,0,0-7.7-1.362q-1.437-.14-2.987-.14c-1.032,0-2.084-.025-3.136,0-4.229.047-5.983.352-9.646.492-.447.016-.861.03-1.287.049-.192.027-.388.055-.607.088a19.939,19.939,0,0,1-2.96.412,1.012,1.012,0,0,1-1-.824c.379-1.213.947-.944,1.974-.774q1.38-.062,3.016-.14c3.435-.162,5.115-.22,9.212-.338,2.048-.047,4.056-.118,5.991-.069a65.77,65.77,0,0,1,7.869.964c.4.069.771.187,1.146.28.376.118.714.211,1.052.352.34.109.64.255.938.371.3.14.585.28.829.42a10.048,10.048,0,0,1,1.952,1.4,7.18,7.18,0,0,1,.563.561c.163.2.324.4.471.6a3.272,3.272,0,0,1,.625-1.656,5.35,5.35,0,0,1,.92-1c.189-.157.4-.313.612-.47a8.048,8.048,0,0,1,.7-.415,13.965,13.965,0,0,1,2.424-1.024c.3-.1.654-.2,1.027-.3.371-.083.744-.184,1.161-.266.418-.1.835-.165,1.3-.245.464-.063.929-.146,1.414-.192a59.862,59.862,0,0,1,6.576-.357c2.384,0,4.854.094,7.375.167,5.039.167,10.146.4,14.375.6s7.581.338,9.083.379c1.5.077,4.854.184,9.086.3,1.063.036,2.172.052,3.33.088.577.008,11.332-.107,22.093-.223s21.53-.23,22.131-.219c1.226.019,2.447.022,3.724.041,1.247,0,2.521.022,3.768.008l1.875-.025c.626-.008,13.639-.228,14.265-.252,1.156-.049,2.337-.14,3.471-.247,1.027-.1,2.026-.228,2.979-.382.03-.017.058-.027.088-.044.173-.025.352-.036.524-.069a5.97,5.97,0,0,0,1.875-.972,12.6,12.6,0,0,0,1.032-.989,1.129,1.129,0,0,1,.2-.2c.074-.066.115-.126.179-.173s.1-.11.153-.143a.28.28,0,0,1,.143-.124.682.682,0,0,1,.665-.005,1.455,1.455,0,0,1,.521.316.949.949,0,0,1,.14,1.208,3.724,3.724,0,0,1-1.035,1.162,4.785,4.785,0,0,1-1.979.856l-.167.025c-.033.005-.1.016-.176.03-.168.027-.341.038-.511.055-.393.039-.788.058-1.184.074-.464.019-.923.041-1.387.061-.08.008-.159.024-.242.033-1.205.137-2.454.225-3.729.294-.647.024-13.685.244-14.354.252-.648.005-1.3.033-1.969.039-5.229.027-51.278.4-55.784.261-4.511-.124-8.139-.269-9.849-.332-1.711-.08-5.338-.226-9.844-.4s-9.869-.4-15.072-.519c-1.293-.039-2.586-.041-3.86-.061s-2.5-.005-3.68.047a41.732,41.732,0,0,0-6.378.656,16.366,16.366,0,0,0-4.187,1.321,4.855,4.855,0,0,0-1.452,1.024,4.776,4.776,0,0,0-.7,1.447,9.161,9.161,0,0,0-.206,1.046,1.116,1.116,0,0,1-.64.86,1.831,1.831,0,0,1-.6.148l-.034.009a6.319,6.319,0,0,1,.43,2.279,3.2,3.2,0,0,1-.264,1.447.625.625,0,0,1-.2.247.374.374,0,0,1-.149.037A.226.226,0,0,1-10905.283-7929.782Z" transform="translate(10940.845 7943.766)"/></svg>