<svg xmlns="http://www.w3.org/2000/svg" width="270" height="165" viewBox="0 0 270 165"><defs><style>.a{fill:#fff;}</style></defs><path class="a" d="M1102.48,6332.945c-2.036,36.722,4.7,44,36.624,41.9,1.644-.1,10.709-.023,21.691.135,3.668.053,7.554.114,11.533.188,25.07-1.078,61.416-4.172,65.57,28.832,7.269-7.221,3.115-21.659,14.539-24.753,8.307-2.062,16.615-1.031,25.3-.945,4.454,0,8.158.021,11.391.041,16.163.089,20.544.062,47.966-3.536,32.907-4.359,30.833-17.312,30.833-45.4s8.335-67.069-8.413-81.173c-18.586-15.749-84.947-6.292-103.534-7.566-30.833-2.18-62.449,3.658-93.282,1.479-8.452-.575-34.042-4.977-52.549,5.84S1104.514,6296.18,1102.48,6332.945Z" transform="translate(-1100 -6239)"/></svg>