<svg xmlns="http://www.w3.org/2000/svg" width="270" height="200" viewBox="0 0 270 200">
  <path id="Path_13976" data-name="Path 13976" d="M478.953,6147.522c-3.877-20.051-18.586-37.4-37.044-43.71l-6.872-2.062-4.459-6.707c-14.019-22.795-40.9-32.786-66.423-36.368-29.484-4.109-60.939-1.247-86.172,15.205A53.463,53.463,0,0,0,266.8,6083.3a29.354,29.354,0,0,0-6.8,12.876c-2.28,4.4-1.058,12.636-5.947,13.812a52.423,52.423,0,0,0-44,54.1c2.445,17.642,14.667,32.931,30.054,42.388a84.04,84.04,0,0,0,10,5.563A90.035,90.035,0,0,0,272,6219.077c3.681.734,7.436,1.272,11.241,1.7,12.68,1.414,25.9,1.558,38.742,3.458,3.21.475,6.4,1.059,9.544,1.8a84.855,84.855,0,0,1,17.6,7.244c11.268,6.083,22.268,13.139,29.6,23.724-4.889-18.817,8.556-38.811,30.633-37.689,4.352-.224,8.743-.206,13.077-.531,14.029-1.114,28.007-6.235,38.658-15.932C475.73,6189.524,482.83,6167.573,478.953,6147.522Z" transform="translate(-210 -6057)" fill="#fff"/>
</svg>
