<svg xmlns="http://www.w3.org/2000/svg" width="28" height="27.283" viewBox="0 0 28 27.283">
  <g id="icon" transform="translate(-260 -556)">
    <g id="Group_2343" data-name="Group 2343">
      <path id="Path_14200" data-name="Path 14200" d="M285.969,562.453h-8.657l3.074-5.043a.927.927,0,1,0-1.583-.965l-3.662,6.008h-2.282l-3.662-6.008a.927.927,0,1,0-1.583.965l3.074,5.043h-8.657A2.033,2.033,0,0,0,260,564.484v16.768a2.033,2.033,0,0,0,2.031,2.031h23.938A2.033,2.033,0,0,0,288,581.252V564.484A2.033,2.033,0,0,0,285.969,562.453Zm-6.333,16.362a1.1,1.1,0,0,1-1.1,1.1H264.4a1.1,1.1,0,0,1-1.1-1.1V566.921a1.1,1.1,0,0,1,1.1-1.1h14.131a1.105,1.105,0,0,1,1.1,1.1Zm4.086-.353a1.916,1.916,0,1,1,1.916-1.916A1.919,1.919,0,0,1,283.722,578.462Zm0-7.355a1.917,1.917,0,1,1,1.916-1.917A1.919,1.919,0,0,1,283.722,571.107Z" fill="#1a1a1a"/>
    </g>
  </g>
</svg>
