<svg xmlns="http://www.w3.org/2000/svg" width="22.079" height="24" viewBox="0 0 22.079 24">
  <g id="icon" transform="translate(-686 -125)">
    <path id="Path_14333" data-name="Path 14333" d="M710.971,130.493V125H689v5.493Zm-10.347-3.828h8.814v1.9h-8.814Zm-10.091,1.9v-1.9h8.814v1.9Z" transform="translate(-2.892)"/>
    <path id="Path_14334" data-name="Path 14334" d="M701.064,163.947l6.366-1.957,6.366,1.957v.738h2.064v-1.49l-.726-.976-4.224-1.3,4.224-1.3V157.67l-4.224-1.3,4.224-1.3.016-1.947-4.407-1.431,4.407-1.431.194-.265h-6l-1.911.62L705.52,150h-6l.194.265,4.407,1.431-4.407,1.431.016,1.947,4.224,1.3-4.224,1.3v1.952l4.224,1.3-4.224,1.3-.726.976v1.49h2.064Zm2.362-9.876,4-1.3,4,1.3-4,1.231Zm.086,4.575,3.917-1.2,3.917,1.2-3.917,1.2Z" transform="translate(-10.337 -18.613)"/>
    <rect id="Rectangle_642" data-name="Rectangle 642" width="21.932" height="2.285" rx="1.142" transform="translate(686 146.715)"/>
  </g>
</svg>
