<svg xmlns="http://www.w3.org/2000/svg" width="31.031" height="27.209" viewBox="0 0 31.031 27.209"><defs><style>.a{fill:#92b8ed;}</style></defs><path class="a" d="M8.736-43.862c7.007-4.1,10.829-9.919,10.829-18.018,0-5.824-2.457-9.191-6.461-9.191-3.094,0-5.278,2.093-5.278,5.551A5.034,5.034,0,0,0,13.1-60.333a2.806,2.806,0,0,0,.91-.091c-.091,5.824-2.639,9.191-7.644,12.649Zm17.836,0C33.579-47.957,37.4-53.781,37.4-61.88c0-5.824-2.366-9.191-6.37-9.191-3.185,0-5.369,2.093-5.369,5.551a5.059,5.059,0,0,0,5.369,5.187,3.1,3.1,0,0,0,.91-.091C31.85-54.6,29.3-51.233,24.206-47.775Z" transform="translate(37.401 -43.862) rotate(180)"/></svg>