<svg xmlns="http://www.w3.org/2000/svg" width="166.328" height="55.165" viewBox="0 0 166.328 55.165"><defs><style>.a{fill:#014099;}</style></defs><g transform="translate(-115.594 -186.88)"><g transform="translate(115.594 202.664)"><path class="a" d="M140.764,204.44H152.7v23.069a19.434,19.434,0,0,1-1.07,6.48,13.994,13.994,0,0,1-3.354,5.332,13.408,13.408,0,0,1-4.794,3.207,24.155,24.155,0,0,1-8.373,1.293,52.787,52.787,0,0,1-6.167-.4,16.13,16.13,0,0,1-5.586-1.571,13.988,13.988,0,0,1-4.107-3.338,12.255,12.255,0,0,1-2.548-4.46,23.114,23.114,0,0,1-1.109-6.546V204.44h11.938v23.619a6.743,6.743,0,0,0,1.756,4.948,7.564,7.564,0,0,0,9.72.026,6.727,6.727,0,0,0,1.756-4.974Z" transform="translate(-115.594 -204.44)"/><path class="a" d="M226.388,236.769H212.8l-1.887,6.392H198.7l14.553-38.721H226.3l14.55,38.721H228.325Zm-2.482-8.373-4.273-13.919L215.4,228.4Z" transform="translate(-123.998 -204.44)"/><path class="a" d="M246.483,204.44h11.172l14.58,21.422V204.44h11.277v38.721H272.235l-14.5-21.26v21.26H246.483Z" transform="translate(-128.831 -204.44)"/></g><path class="a" d="M186.119,229.167a9.047,9.047,0,0,1-1.162,2.589,6.89,6.89,0,0,1-2.456,2.112,7.553,7.553,0,0,1-9.482-2.531q-1.638-2.427-1.638-7.624c0-.027,0-.052,0-.079s0-.052,0-.079q0-5.2,1.638-7.624A7.553,7.553,0,0,1,182.5,213.4a6.89,6.89,0,0,1,2.456,2.112,9.047,9.047,0,0,1,1.162,2.589h11.117a13.243,13.243,0,0,0-.569-2.347l.016,0a20.548,20.548,0,0,0-2.976-5.877c-.049-.072-.093-.141-.144-.213a6.261,6.261,0,0,0-.867-1.011,14.125,14.125,0,0,0-2.232-1.985q-4.187-2.958-11.5-2.958-9.349,0-14.46,5.16t-5.111,14.768q0,9.607,5.111,14.768t14.46,5.16q7.316,0,11.5-2.958a14.125,14.125,0,0,0,2.232-1.985,6.259,6.259,0,0,0,.867-1.011c.05-.072.094-.141.143-.212a20.533,20.533,0,0,0,2.977-5.878l-.016,0a13.243,13.243,0,0,0,.569-2.347Z" transform="translate(-4.429 -1.702)"/><g transform="translate(271.773 231.221)"><path class="a" d="M298.006,244.879a5.088,5.088,0,1,1,1.487-3.6A4.893,4.893,0,0,1,298.006,244.879Zm-6.683-6.69a4.225,4.225,0,0,0-1.274,3.093,4.276,4.276,0,0,0,1.267,3.113,4.359,4.359,0,0,0,6.185,0,4.419,4.419,0,0,0,0-6.206,4.352,4.352,0,0,0-6.178,0Zm2.989.284a4.251,4.251,0,0,1,1.522.2,1.386,1.386,0,0,1,.865,1.413,1.218,1.218,0,0,1-.545,1.1,2.094,2.094,0,0,1-.805.27,1.349,1.349,0,0,1,.956.547,1.522,1.522,0,0,1,.3.864v.408c0,.129,0,.267.013.414a.893.893,0,0,0,.049.29l.035.069h-.92l-.013-.056c-.005-.019-.01-.04-.014-.062l-.021-.179v-.441a1.363,1.363,0,0,0-.526-1.276,2.365,2.365,0,0,0-1.093-.179h-.775v2.193h-.982v-5.577Zm1.061.879a2.556,2.556,0,0,0-1.19-.208h-.84v2.02h.888a2.655,2.655,0,0,0,.937-.125,1,1,0,0,0,.2-1.687Z" transform="translate(-289.344 -236.21)"/></g><g transform="translate(115.737 186.88)"><path class="a" d="M117.375,187.888a23.435,23.435,0,0,0,2.67-.237,2.867,2.867,0,0,0,.564-.148.408.408,0,0,1,.148-.04c.079,0,.2.089.4.316.129.138.158.188.158.247s-.049.119-.158.188a1.267,1.267,0,0,0-.336.3c-.475.524-1.335,1.384-1.889,1.879a16.5,16.5,0,0,1-1.513,1.207,35.352,35.352,0,0,1,4.479-1.158c.307-.059.573-.118.742-.168a.9.9,0,0,1,.218-.04.136.136,0,0,1,.129.09,1.559,1.559,0,0,1,.119.5.114.114,0,0,1-.059.109c-.04.02-.04.02-.553.068a3.987,3.987,0,0,0-2.058.752,2.331,2.331,0,0,0-1.206,1.78c0,.544.366.92,1.127,1.127a3.769,3.769,0,0,0,1.1.158c.089,0,.119.03.119.119a2.379,2.379,0,0,1-.069.554c-.02.04-.069.049-.168.049a4.021,4.021,0,0,1-1.641-.366,1.65,1.65,0,0,1-1.088-1.562,2.184,2.184,0,0,1,.534-1.394,3.931,3.931,0,0,1,1.058-.91,16.508,16.508,0,0,0-3.975,1.394.494.494,0,0,1-.09.03c-.129,0-.376-.405-.376-.593,0-.079.03-.1.148-.138a2.012,2.012,0,0,0,.692-.376,20.927,20.927,0,0,0,1.83-1.563,19.353,19.353,0,0,0,1.77-1.9,25,25,0,0,0-2.661.415.738.738,0,0,1-.236.059.125.125,0,0,1-.129-.109,3.087,3.087,0,0,1-.139-.653C117.128,187.888,117.227,187.888,117.375,187.888Z" transform="translate(-115.753 -186.939)"/><path class="a" d="M130.289,192.534c-.574,1.305-1.227,1.958-1.968,1.958a1.353,1.353,0,0,1-1.118-.672,3.043,3.043,0,0,1-.4-1.6,3.8,3.8,0,0,1,1.593-3.135,4.292,4.292,0,0,1,2.541-.761c2.155,0,3.58,1.305,3.58,3.284a3.554,3.554,0,0,1-1.82,3.124,4.107,4.107,0,0,1-1.236.564c-.059,0-.1-.03-.168-.119a1.347,1.347,0,0,0-.435-.376,5.319,5.319,0,0,0,1.552-.653,3.026,3.026,0,0,0,1.424-2.572,2.549,2.549,0,0,0-1.513-2.413,2.738,2.738,0,0,0-1.117-.257A12.98,12.98,0,0,1,130.289,192.534Zm-1.107-3.224a3.222,3.222,0,0,0-1.731,2.947c0,.89.366,1.523.891,1.523.415,0,.86-.494,1.285-1.444a11.806,11.806,0,0,0,.9-3.392A3.655,3.655,0,0,0,129.182,189.31Z" transform="translate(-116.871 -187.026)"/><path class="a" d="M139.9,192.819a4.8,4.8,0,0,0-.939.059v-.662a4.423,4.423,0,0,0,.911.059h4.618a6.766,6.766,0,0,0,.989-.059v.662a6.526,6.526,0,0,0-.959-.059h-2.066v1.849h2.858a6.767,6.767,0,0,0,1.019-.059v.682a6.429,6.429,0,0,0-1.019-.069h-6.15a6.708,6.708,0,0,0-1.059.069v-.682a7.181,7.181,0,0,0,1.059.059h2.68v-1.849Zm1.919-5.093a3.686,3.686,0,0,0-.059-.692h.732a3.365,3.365,0,0,0-.059.682v.465h2.74a7.7,7.7,0,0,0,.959-.049,3.937,3.937,0,0,0-.04.653v.267a3.358,3.358,0,0,0,.049.653h-.633v-.979h-2.265v1.75c0,.148.03.2.168.228a4.325,4.325,0,0,0,.761.04c1.207,0,1.216-.011,1.256-.831a2.216,2.216,0,0,0,.574.208c-.09,1.059-.238,1.148-1.86,1.148-1.275,0-1.483-.079-1.483-.574v-1.968H141.5a2.809,2.809,0,0,1-.653,1.8,4.888,4.888,0,0,1-2.285,1.275,2.256,2.256,0,0,0-.386-.533,3.885,3.885,0,0,0,2.226-1.128,2.065,2.065,0,0,0,.5-1.414h-1.958v1.305h-.634a4.445,4.445,0,0,0,.05-.742v-.5a4.444,4.444,0,0,0-.04-.653,7.542,7.542,0,0,0,.949.049h2.552Z" transform="translate(-118.013 -186.896)"/><path class="a" d="M151.516,188.422a7.365,7.365,0,0,1-1.493,1.829,1.146,1.146,0,0,0-.445-.415,6.58,6.58,0,0,0,1.82-2.393,1.806,1.806,0,0,0,.177-.564l.672.148c-.059.119-.068.138-.168.336-.079.168-.148.306-.256.514h4.667a7.366,7.366,0,0,0,1.2-.069v.672a7.905,7.905,0,0,0-1.2-.059Zm3.649,6.813a16.342,16.342,0,0,0-1.859-1.661,10.1,10.1,0,0,1-2.967,1.948,1.547,1.547,0,0,0-.455-.524,9.429,9.429,0,0,0,2.947-1.78,18.223,18.223,0,0,0-1.82-1.167l.415-.386a18.825,18.825,0,0,1,1.81,1.157,5.232,5.232,0,0,0,1.058-1.473l.613.346c-.049.059-.049.059-.129.168a1.955,1.955,0,0,0-.247.326,9.56,9.56,0,0,1-.821.979,23.051,23.051,0,0,1,1.889,1.572Zm-4.035-4.113a6.552,6.552,0,0,0-.979.059v-.643a7.219,7.219,0,0,0,.891.049h4.538a9.092,9.092,0,0,0,1.068-.04,6.8,6.8,0,0,0-.04.8,8.453,8.453,0,0,0,.356,2.749c.129.376.366.751.475.751.129,0,.288-.722.346-1.582a1.484,1.484,0,0,0,.524.376,5.659,5.659,0,0,1-.257,1.3c-.129.405-.325.613-.573.613-.376,0-.831-.554-1.088-1.325a9.955,9.955,0,0,1-.366-3.1Zm.168-1.929a5.5,5.5,0,0,0,.822.04h3.846a6.5,6.5,0,0,0,.929-.049v.633a5.819,5.819,0,0,0-.929-.049h-3.787a5.461,5.461,0,0,0-.881.049Z" transform="translate(-119.174 -186.88)"/><path class="a" d="M163.322,193.027a.245.245,0,0,1,.06.158,2.054,2.054,0,0,1-.139.445,8.289,8.289,0,0,0-.4,1.562c-.02.138-.04.168-.119.188a2.268,2.268,0,0,1-.405.03c-.109,0-.119-.01-.218-.386a9.4,9.4,0,0,1-.307-2.492,17.465,17.465,0,0,1,.386-3.471,9.954,9.954,0,0,0,.188-1.256c.525.1.822.227.822.346,0,.04,0,.049-.07.158a13.23,13.23,0,0,0-.732,4.332,10.439,10.439,0,0,0,.129,1.631c.138-.356.218-.583.337-.87.177-.484.177-.484.286-.771A.981.981,0,0,0,163.322,193.027Zm2.2-2.671h-.158c-.257-.009-.435-.009-.524-.009s-.129-.011-.139-.08a2.3,2.3,0,0,1-.049-.465v-.1c.376.03.553.04.87.04a13.4,13.4,0,0,0,1.394-.068v-1.108a5.71,5.71,0,0,0-.049-.85,3.193,3.193,0,0,1,.732.109q.119.03.119.119a.2.2,0,0,1-.04.129,4.065,4.065,0,0,0-.148,1.533,12.4,12.4,0,0,0,1.394-.277.261.261,0,0,1,.069-.01c.04,0,.059.02.07.059a3.174,3.174,0,0,1,.049.475c0,.079-.02.1-.1.119a13.866,13.866,0,0,1-1.483.257c0,.742.03,1.711.1,2.868a7.39,7.39,0,0,1,1.731.969c.088.069.128.119.128.178s-.04.129-.147.277c-.179.237-.179.237-.228.237s-.04,0-.316-.237a6.394,6.394,0,0,0-1.147-.751,1.766,1.766,0,0,1,.01.208c0,.89-.613,1.4-1.661,1.4-.979,0-1.593-.484-1.593-1.236,0-.781.673-1.3,1.692-1.3a3.416,3.416,0,0,1,.9.089c-.059-1.453-.059-1.681-.079-2.65C166.378,190.327,165.854,190.356,165.518,190.356Zm.6,3.076c-.712,0-1.127.257-1.127.682s.376.662,1,.662c.692,0,1.009-.3,1.009-.929a.965.965,0,0,0-.01-.267A2.268,2.268,0,0,0,166.121,193.432Z" transform="translate(-120.41 -186.965)"/><path class="a" d="M174.241,188.4c-.475.119-.751.178-1.473.316a1.722,1.722,0,0,0-.277-.534,9.49,9.49,0,0,0,3.491-1.009l.415.514c-.119.04-.218.079-.4.148a9.171,9.171,0,0,1-1.187.405V189.7h.732a4.12,4.12,0,0,0,.881-.058v.662a5.508,5.508,0,0,0-.881-.049h-.7a5.58,5.58,0,0,0,1.523,1.918,2,2,0,0,0-.336.534,6.736,6.736,0,0,1-1.257-1.8c.031.692.04,1.147.04,1.582v2.067a6.234,6.234,0,0,0,.059,1.157h-.712a7.464,7.464,0,0,0,.069-1.157V192.6c0-.435.02-1.158.04-1.583a7.454,7.454,0,0,1-1.691,2.947,2.171,2.171,0,0,0-.386-.524,7.859,7.859,0,0,0,1.928-3.184h-.751a5.7,5.7,0,0,0-.9.049v-.662a4.544,4.544,0,0,0,.91.058h.86Zm4.51-.9a9.342,9.342,0,0,0-.336,1.394,42.051,42.051,0,0,1-1.651,5.568c1.127-.119,2.6-.326,3.382-.484a18.521,18.521,0,0,0-1.345-2.839l.534-.227a21.481,21.481,0,0,1,1.869,4.223l-.6.257c-.129-.445-.168-.583-.277-.91-1.117.227-2.788.484-4.144.633a4.621,4.621,0,0,0-.612.1l-.148-.682a1.516,1.516,0,0,0,.208.01c.138,0,.227-.01.494-.03a36.062,36.062,0,0,0,1.552-5.222,9.174,9.174,0,0,0,.316-1.938Z" transform="translate(-121.461 -186.91)"/><path class="a" d="M186.35,187.554a1.213,1.213,0,0,0-.01-.168,3.812,3.812,0,0,1,.8.178.1.1,0,0,1,.079.109c-.01.069-.01.069-.109.267a4.285,4.285,0,0,0-.277,1.177,13.839,13.839,0,0,0,1.355-.326.147.147,0,0,1,.059-.01c.04,0,.049.01.069.059a4.111,4.111,0,0,1,.089.465c0,.079-.01.1-.079.109a.413.413,0,0,0-.089.03c-.287.069-1.157.247-1.533.307a24.564,24.564,0,0,1-1.374,4.51c-.307.751-.405.939-.484.939a1.621,1.621,0,0,1-.465-.208c-.079-.049-.11-.079-.11-.129a.326.326,0,0,1,.05-.138,8.007,8.007,0,0,0,.5-1.038,21.012,21.012,0,0,0,1.2-3.827,15.44,15.44,0,0,1-1.661.129c-.148,0-.179-.009-.2-.1a3.089,3.089,0,0,1-.079-.534c.387.01.387.01.435.01a13.588,13.588,0,0,0,1.632-.138A8.484,8.484,0,0,0,186.35,187.554Zm3.678,7.031a6.448,6.448,0,0,0,1.365-.138.481.481,0,0,1,.119-.01c.109,0,.129.03.148.237.01.059.01.109.02.158a1.737,1.737,0,0,1,.02.188c0,.089-.04.129-.129.148a10.3,10.3,0,0,1-1.494.109,3.07,3.07,0,0,1-1.978-.494,1.973,1.973,0,0,1-.593-.86.755.755,0,0,1-.049-.208c0-.079.03-.1.5-.356C188.249,194.269,188.783,194.585,190.028,194.585Zm-1.394-3.658a.117.117,0,0,1-.049.009.1.1,0,0,1-.109-.089,2.324,2.324,0,0,1-.04-.435c0-.089.03-.118.119-.138a10.557,10.557,0,0,1,2.077-.179c.564,0,.821.02.849.079.021.03.031.089.031.257,0,.307-.02.376-.119.376h-.049a8.384,8.384,0,0,0-.939-.059A9.77,9.77,0,0,0,188.634,190.927Z" transform="translate(-122.663 -186.931)"/><path class="a" d="M197.381,192.448a4.34,4.34,0,0,1,1.484-.95,4.1,4.1,0,0,1,1.463-.266c1.305,0,2.037.623,2.037,1.73,0,.939-.682,1.73-1.9,2.175a5.946,5.946,0,0,1-1.256.316,3.912,3.912,0,0,1-.445.069.209.209,0,0,1-.208-.138,1.159,1.159,0,0,0-.357-.445,7.427,7.427,0,0,0,1.632-.277c1.157-.356,1.809-.989,1.809-1.76,0-.692-.524-1.117-1.384-1.117a3.936,3.936,0,0,0-2.3.84,4.848,4.848,0,0,0-.938.9.172.172,0,0,1-.139.079c-.148,0-.544-.316-.544-.435,0-.04.01-.059.059-.129a9.484,9.484,0,0,0,1.305-3.392c-.4.03-.92.049-1.75.049a.959.959,0,0,1-.168.01h-.049c-.109,0-.158-.03-.178-.119a2.712,2.712,0,0,1-.059-.514,8.6,8.6,0,0,0,.88.04c.405,0,.792-.01,1.434-.049a.226.226,0,0,1,.011-.079,10.375,10.375,0,0,0,.118-1.256,2.334,2.334,0,0,0-.02-.356c.583.03.871.119.871.247a.266.266,0,0,1-.04.129,2.776,2.776,0,0,0-.218.92c-.031.168-.04.237-.059.336a13.345,13.345,0,0,0,2.215-.455,1,1,0,0,1,.247-.059c.059,0,.119.287.119.534,0,.109,0,.109-.346.188a15.522,15.522,0,0,1-2.363.386A11.311,11.311,0,0,1,197.381,192.448Z" transform="translate(-123.817 -186.93)"/><path class="a" d="M209.021,187.652c.573.1.89.227.89.356a.219.219,0,0,1-.059.138,5.168,5.168,0,0,0-.465,1.345c-.03.1-.04.138-.059.208a7.193,7.193,0,0,1,1.009-.109c.88,0,1.285.524,1.285,1.672a7.717,7.717,0,0,1-.692,3.184,1.252,1.252,0,0,1-1.157.791,2.335,2.335,0,0,1-.9-.188c-.059-.04-.079-.069-.079-.178a1.9,1.9,0,0,0-.109-.6,1.8,1.8,0,0,0,.979.316c.376,0,.623-.237.831-.791a7.561,7.561,0,0,0,.475-2.631c0-.712-.237-1.028-.751-1.028a6.161,6.161,0,0,0-1.058.129,26.555,26.555,0,0,1-1.028,2.76,11.691,11.691,0,0,1-1.059,2.007.155.155,0,0,1-.108.049,1.226,1.226,0,0,1-.465-.257c-.05-.049-.07-.069-.07-.1a.16.16,0,0,1,.04-.1,15.675,15.675,0,0,0,2.018-4.233,7.925,7.925,0,0,0-1.74.415.236.236,0,0,1-.09.031c-.109,0-.208-.238-.3-.732a10,10,0,0,0,1.9-.238l.4-.058A8.369,8.369,0,0,0,209.021,187.652Zm4.707,4.48a5.528,5.528,0,0,0-1.5-2.315.1.1,0,0,1-.049-.079.954.954,0,0,1,.405-.386,3.966,3.966,0,0,1,.91.92,4.38,4.38,0,0,1,.851,1.552c0,.049-.03.089-.129.168a1.069,1.069,0,0,1-.4.227C213.777,192.221,213.748,192.2,213.728,192.132Zm-.544-3.017a4.185,4.185,0,0,0-.84-.929c-.04-.04-.07-.069-.07-.089s0-.03.158-.158c.12-.109.148-.119.2-.119.079,0,.208.089.455.316a2.862,2.862,0,0,1,.584.692.841.841,0,0,1-.4.366C213.244,189.194,213.213,189.174,213.184,189.115Zm.267-1.938a3.014,3.014,0,0,1,1,1c0,.059-.02.079-.2.208-.109.079-.168.119-.2.119a.054.054,0,0,1-.058-.04,3.757,3.757,0,0,0-.87-.949.073.073,0,0,1-.04-.059C213.084,187.385,213.361,187.177,213.451,187.177Z" transform="translate(-124.916 -186.91)"/><path class="a" d="M219.528,189.659a10.736,10.736,0,0,1,3.3-.623,3.168,3.168,0,0,1,1.77.425,2.209,2.209,0,0,1,.969,1.849,2.988,2.988,0,0,1-1.779,2.73,8.518,8.518,0,0,1-2.255.722,4.13,4.13,0,0,1-.554.079.158.158,0,0,1-.168-.119,1.468,1.468,0,0,0-.356-.484,8.217,8.217,0,0,0,2.838-.742,2.4,2.4,0,0,0,1.524-2.146,1.682,1.682,0,0,0-1.889-1.71,9.332,9.332,0,0,0-3.2.681,6.718,6.718,0,0,0-1.435.663.218.218,0,0,1-.089.04c-.059,0-.168-.11-.276-.278a2.793,2.793,0,0,1-.258-.582A10.553,10.553,0,0,0,219.528,189.659Z" transform="translate(-126.059 -187.098)"/><path class="a" d="M233.922,187.813a.178.178,0,0,1-.109.148,1.805,1.805,0,0,0-.425.425,32.207,32.207,0,0,1-2.314,2.531.582.582,0,0,0-.209.426.516.516,0,0,0,.189.376c.751.682,1.612,1.552,2.3,2.324a4.859,4.859,0,0,1,.771.969c0,.069-.119.188-.356.366a.543.543,0,0,1-.227.129c-.04,0-.069-.02-.1-.079a17.769,17.769,0,0,0-2.849-3.233,1.138,1.138,0,0,1-.434-.84,1.027,1.027,0,0,1,.168-.554,6.077,6.077,0,0,1,.742-.812,18.882,18.882,0,0,0,1.711-2.066,3.413,3.413,0,0,0,.356-.712C233.616,187.457,233.922,187.685,233.922,187.813Z" transform="translate(-127.323 -186.913)"/><path class="a" d="M239.912,191.291a8.355,8.355,0,0,1,2.7-.5,2.246,2.246,0,0,1,1.473.475,1.8,1.8,0,0,1,.584,1.325,2.288,2.288,0,0,1-1.039,1.938,5.424,5.424,0,0,1-1.849.751,4.2,4.2,0,0,1-.692.1c-.089,0-.089,0-.168-.188a1.231,1.231,0,0,0-.267-.386,6.165,6.165,0,0,0,2.165-.583,1.823,1.823,0,0,0,1.167-1.6c0-.771-.554-1.256-1.444-1.256a7.874,7.874,0,0,0-2.769.662,2.728,2.728,0,0,0-.7.366.274.274,0,0,1-.129.059c-.129,0-.326-.317-.485-.791A12.189,12.189,0,0,0,239.912,191.291Z" transform="translate(-128.162 -187.276)"/><path class="a" d="M254.209,188.189a8.674,8.674,0,0,0,1.078-.188.186.186,0,0,1,.068-.01.141.141,0,0,1,.129.079,2.692,2.692,0,0,1,.139.564c0,.089-.03.1-.208.1a3.606,3.606,0,0,0-1.692.425,3.812,3.812,0,0,0-1.978,3.224,2.09,2.09,0,0,0,1.572,2.007,3.73,3.73,0,0,0,1.088.257c.069.01.1.04.1.109a1.924,1.924,0,0,1-.109.554c-.031.069-.059.1-.129.1a5.927,5.927,0,0,1-1.147-.3,2.746,2.746,0,0,1-2.047-2.759,3.842,3.842,0,0,1,.89-2.423,4.763,4.763,0,0,1,1.167-1c-3.579.613-4.133.722-4.6.94a.378.378,0,0,1-.168.049c-.09,0-.12-.029-.188-.148a2.426,2.426,0,0,1-.248-.7,18.522,18.522,0,0,0,2.374-.287Z" transform="translate(-129.12 -186.992)"/><path class="a" d="M260.5,188.834c0,.02,0,.02-.03.089a5.646,5.646,0,0,0-.129,1.592c0,2.364.435,3.907,1.107,3.907.425,0,.87-.623,1.2-1.661a1.633,1.633,0,0,0,.316.6c.049.059.059.079.059.119a1.678,1.678,0,0,1-.168.475c-.366.771-.87,1.2-1.4,1.2-.653,0-1.147-.544-1.453-1.592a13.092,13.092,0,0,1-.336-3.293c0-.208,0-.484.01-.821V189.2a3.606,3.606,0,0,0-.049-.692C260.305,188.627,260.5,188.706,260.5,188.834Zm4.707.752c.179,0,.7.622,1.059,1.275a6.442,6.442,0,0,1,.643,1.682,2.885,2.885,0,0,1,.1.484c0,.059-.03.1-.129.148a2.676,2.676,0,0,1-.534.168c-.04,0-.059-.03-.069-.079a5.7,5.7,0,0,0-1.582-3.412A1.553,1.553,0,0,1,265.21,189.587Z" transform="translate(-130.302 -187.045)"/><path class="a" d="M273.47,187.221c.573.03.86.1.86.218a.407.407,0,0,1-.04.148,3.768,3.768,0,0,0-.148,1.216,9.636,9.636,0,0,0,1.631-.287,1.278,1.278,0,0,1,.168-.04c.04,0,.059.03.109.138a1.745,1.745,0,0,1,.1.4c0,.069-.01.069-.257.119-.583.119-1.107.2-1.76.267.01.209.01.386.01.484,0,.178,0,.5.01.969a8.687,8.687,0,0,0,2.086-.465.132.132,0,0,1,.049-.01c.04,0,.059.02.109.129a1.51,1.51,0,0,1,.119.405c0,.049-.02.068-.2.129a10.821,10.821,0,0,1-2.136.424c.01.4.04.792.129,1.791a7.312,7.312,0,0,1,1.78.761c.514.307.742.484.742.583,0,.069-.021.1-.129.257-.168.237-.208.277-.267.277a.191.191,0,0,1-.119-.059,6.522,6.522,0,0,0-1.058-.761,5.6,5.6,0,0,0-.9-.405,1.575,1.575,0,0,1-.217,1.038,1.742,1.742,0,0,1-1.523.573c-1.059,0-1.711-.435-1.711-1.157,0-.791.742-1.3,1.909-1.3a6.3,6.3,0,0,1,.87.069c-.059-.811-.089-1.157-.109-1.622-.208.01-.415.02-.662.02a8.036,8.036,0,0,1-1.82-.178c-.088-.021-.119-.049-.119-.119a3.339,3.339,0,0,1,.089-.525,8.619,8.619,0,0,0,2.008.208,3.655,3.655,0,0,0,.484-.02c-.01-.237-.02-.731-.03-1.463-.237.01-.386.01-.524.01a9.415,9.415,0,0,1-1.622-.138c-.05-.01-.059-.04-.059-.178a2.983,2.983,0,0,1,.04-.435,8.833,8.833,0,0,0,1.72.158c.129,0,.257,0,.435-.01A14.087,14.087,0,0,0,273.47,187.221Zm-.772,6.428c-.7,0-1.186.287-1.186.692,0,.376.385.583,1.078.583.8,0,1.117-.257,1.117-.929,0-.04-.01-.237-.01-.237A3.624,3.624,0,0,0,272.7,193.649Z" transform="translate(-131.444 -186.914)"/><path class="a" d="M284.053,189.48a19.868,19.868,0,0,0-3.767.4.46.46,0,0,1-.129.03c-.089,0-.159-.227-.218-.742h.148c.258,0,.535-.02,1.079-.069.643-.059,2.057-.148,2.877-.188a5.255,5.255,0,0,0-.089-1.542c.7.03.88.059.88.168a.262.262,0,0,1-.049.129c-.079.158-.079.158-.119,1.226.247-.01,2.353-.04,2.858-.04.2,0,.248,0,.268.02s.04.089.04.218c0,.356-.01.405-.069.405h-.03c-.148-.019-.979-.049-1.5-.049-.644,0-1.3.01-1.573.02,0,.089-.01.663-.02,1.82a3.336,3.336,0,0,1,.208,1.157,2.929,2.929,0,0,1-.939,2.254,3.662,3.662,0,0,1-1.374.85c-.069,0-.089-.01-.227-.148a1.454,1.454,0,0,0-.405-.277,4.848,4.848,0,0,0,1.157-.564,3.3,3.3,0,0,0,.742-.742,3.046,3.046,0,0,0,.386-.821.974.974,0,0,1-.87.465A1.321,1.321,0,0,1,282,191.962a1.362,1.362,0,0,1,1.355-1.533.9.9,0,0,1,.7.238V189.48Zm-1.463,2.463c0,.583.3.929.8.929.465,0,.712-.316.712-.911,0-.622-.267-.989-.722-.989C282.906,190.973,282.59,191.359,282.59,191.943Z" transform="translate(-132.357 -186.929)"/></g></g></svg>