<svg xmlns="http://www.w3.org/2000/svg" width="59" height="63" viewBox="0 0 59 63"><defs><style>.a{fill:#fff;stroke:#014099;stroke-width:2px;}.b{stroke:none;}.c{fill:none;}</style></defs><g transform="translate(-3004.79 -4448)"><g class="a" transform="translate(3004.79 4452)"><rect class="b" width="59" height="55" rx="5"/><rect class="c" x="1" y="1" width="57" height="53" rx="4"/></g><g class="a" transform="translate(3012.79 4448)"><rect class="b" width="20" height="63" rx="5"/><rect class="c" x="1" y="1" width="18" height="61" rx="4"/></g><g class="a" transform="translate(3016.79 4498)"><ellipse class="b" cx="5" cy="4.5" rx="5" ry="4.5"/><ellipse class="c" cx="5" cy="4.5" rx="4" ry="3.5"/></g><g class="a" transform="translate(3035.79 4460)"><rect class="b" width="21" height="9" rx="4.5"/><rect class="c" x="1" y="1" width="19" height="7" rx="3.5"/></g><g class="a" transform="translate(3035.79 4499)"><rect class="b" width="22" height="2" rx="1"/><rect class="c" x="1" y="1" width="20"/></g><g class="a" transform="translate(3035.79 4478)"><rect class="b" width="7" height="3" rx="1.5"/><rect class="c" x="1" y="1" width="5" height="1" rx="0.5"/></g><g class="a" transform="translate(3035.79 4483)"><rect class="b" width="7" height="3" rx="1.5"/><rect class="c" x="1" y="1" width="5" height="1" rx="0.5"/></g><g class="a" transform="translate(3035.79 4488)"><rect class="b" width="7" height="3" rx="1.5"/><rect class="c" x="1" y="1" width="5" height="1" rx="0.5"/></g><g class="a" transform="translate(3043.79 4478)"><rect class="b" width="7" height="3" rx="1.5"/><rect class="c" x="1" y="1" width="5" height="1" rx="0.5"/></g><g class="a" transform="translate(3043.79 4483)"><rect class="b" width="7" height="3" rx="1.5"/><rect class="c" x="1" y="1" width="5" height="1" rx="0.5"/></g><g class="a" transform="translate(3043.79 4488)"><rect class="b" width="7" height="3" rx="1.5"/><rect class="c" x="1" y="1" width="5" height="1" rx="0.5"/></g><g class="a" transform="translate(3051.79 4478)"><rect class="b" width="6" height="3" rx="1.5"/><rect class="c" x="1" y="1" width="4" height="1" rx="0.5"/></g><g class="a" transform="translate(3051.79 4483)"><rect class="b" width="6" height="3" rx="1.5"/><rect class="c" x="1" y="1" width="4" height="1" rx="0.5"/></g><g class="a" transform="translate(3051.79 4488)"><rect class="b" width="6" height="3" rx="1.5"/><rect class="c" x="1" y="1" width="4" height="1" rx="0.5"/></g></g></svg>