<svg xmlns="http://www.w3.org/2000/svg" width="77.886" height="56.912" viewBox="0 0 77.886 56.912"><defs><style>.a,.b,.c,.d{fill:#fff;}.b,.c,.d{stroke:#014099;stroke-width:2px;}.b,.c{stroke-linecap:round;}.b{stroke-linejoin:round;}</style></defs><g transform="translate(-914.586 -4547.586)"><path class="a" d="M4272.735,4544.75l9.487,9.33,1.407,1.877-1.772,2.188-.469,2.5v2.033l-1.616,2.084c.052-.052-1.668,1.3-1.668,1.3.052-.052-.261,1.512-.261,1.512s.312,1.442,0,1.929a11.45,11.45,0,0,1-1.042,1.251l-.729.834s-.025.282,0,1.2,0,1.928,0,1.928l-.99,1.2c.052,0-1.825.938-1.825.938l-1.095,1.877-.834.625a10.4,10.4,0,0,0-1.042.573l-.678.209c.05,0-.834,1.25-.834,1.25l-1.146.574-.782.313c.052,0-1.355-.312-1.355-.312l-1.146-1.095-.678-.938-1.2-1.459c-.3-.366-1.825.261-1.825.261V4574.3l-1.3-1.511-1.668-1.2-2.711-2.763-1.824-1.667a21.467,21.467,0,0,0-1.615-1.564c-.476-.355-3.128-1.98-3.128-1.98l-1.928-1.3v-1.095l-.938-1.355-.521-1.094-.364-.626s-.626-.82-.834-1.094.834-2.033.834-2.033l1.563-.939,1.771-2.032c0,.052.626-.834.626-.834l1.46-1.3,1.459-.99.782-1.147,1.511-1.407,1.146-.782c.287-.2,1.721,1.563,1.721,1.563h6.1Z" transform="translate(-3310.45 20.721)"/><g transform="translate(916 4549)"><rect class="b" width="13.159" height="23.925" transform="matrix(0.719, -0.695, 0.695, 0.719, 48.973, 9.141)"/><rect class="b" width="13.159" height="23.925" transform="matrix(-0.695, -0.719, 0.719, -0.695, 9.141, 26.114)"/><rect class="b" width="6.579" height="20.336" transform="matrix(0.719, -0.695, 0.695, 0.719, 45.487, 15.002)"/><rect class="b" width="6.579" height="20.336" transform="matrix(-0.695, -0.719, 0.719, -0.695, 15.002, 29.6)"/><path class="b" d="M2680.064,4485.981l-1.188,1.208-13.159.748-10.467,10.915a4.381,4.381,0,0,0,4.634,2.542c3.26-.581,5.832-4.934,5.832-4.934s1.471,2.5,4.038,2.392a4.041,4.041,0,0,0,3.439-1.645l12.112,12.262s.9,3.157-2.068,4.054" transform="translate(-2634.031 -4470.233)"/><path class="b" d="M2692.429,4523l6.579,6.58s.662,3.561-3.332,3.418" transform="translate(-2648.972 -4485.109)"/><path class="b" d="M2686.429,4528.715l6.75,6.494a3.556,3.556,0,0,1-3.432,3.517" transform="translate(-2646.56 -4487.407)"/><path class="b" d="M2680.421,4534.714l6.327,6.579a3.34,3.34,0,0,1-3.93,2.65" transform="translate(-2643.547 -4489.817)"/><path class="c" d="M2679.143,4545.143l3.7,3.547" transform="translate(-2643.632 -4494.606)"/><path class="d" d="M2709.664,4504.144l-2.478,2.391-.342,4.956-3.845,3.161" transform="translate(-2652.023 -4476.335)"/><path class="c" d="M2823.57,4491.712l1.709,1.795" transform="translate(-2794.981 -4474.927)"/><path class="b" d="M2647.856,4508.571l2.137,2.648.512,2.905" transform="translate(-2631.058 -4479.909)"/><rect class="b" width="5.383" height="10.168" rx="2.692" transform="translate(26.861 35.171) rotate(45)"/><rect class="b" width="5.383" height="10.168" rx="2.692" transform="translate(30.45 39.358) rotate(45)"/><rect class="b" width="5.383" height="7.776" rx="2.692" transform="translate(32.945 44.638) rotate(45)"/><rect class="b" width="5.383" height="7.776" rx="2.692" transform="translate(21.581 32.676) rotate(45)"/></g></g></svg>