<svg xmlns="http://www.w3.org/2000/svg" width="11.516" height="13.435" viewBox="0 0 11.516 13.435"><defs><style>.a{fill:#92b8ed;}</style></defs><path class="a" d="M13.577,5.052a1.744,1.744,0,0,1,.36.57,1.73,1.73,0,0,1,.15.66v8.637a.717.717,0,0,1-.72.72H3.29a.717.717,0,0,1-.72-.72v-12a.717.717,0,0,1,.72-.72h6.718a1.731,1.731,0,0,1,.66.15,1.745,1.745,0,0,1,.57.36ZM10.248,3.223V6.042h2.819a.819.819,0,0,0-.165-.307L10.555,3.388a.819.819,0,0,0-.307-.165Zm2.879,11.456V7H10.008a.717.717,0,0,1-.72-.72V3.163H3.53V14.679h9.6ZM9.273,10.233a5.7,5.7,0,0,0,.63.42,7.44,7.44,0,0,1,.877-.052q1.1,0,1.327.367a.362.362,0,0,1,.015.39.022.022,0,0,1-.007.015l-.015.015V11.4q-.045.285-.532.285a3.093,3.093,0,0,1-.862-.15,5.467,5.467,0,0,1-.975-.4,13.5,13.5,0,0,0-2.939.622q-1.147,1.964-1.814,1.964a.436.436,0,0,1-.21-.052l-.18-.09-.045-.037a.31.31,0,0,1-.045-.27,1.628,1.628,0,0,1,.42-.686,3.623,3.623,0,0,1,.99-.723.109.109,0,0,1,.172.045.043.043,0,0,1,.015.03q.39-.637.8-1.477a11.443,11.443,0,0,0,.78-1.964,6.061,6.061,0,0,1-.229-1.2A2.915,2.915,0,0,1,7.5,6.342q.082-.3.315-.3h.165a.316.316,0,0,1,.262.112.6.6,0,0,1,.067.51.163.163,0,0,1-.03.06.2.2,0,0,1,.007.06v.225a9.818,9.818,0,0,1-.1,1.439,3.793,3.793,0,0,0,1.095,1.784ZM4.955,13.314A3.31,3.31,0,0,0,5.982,12.13a4.274,4.274,0,0,0-.656.63A2.492,2.492,0,0,0,4.955,13.314Zm2.984-6.9a2.229,2.229,0,0,0-.015.99q.007-.052.052-.33,0-.022.052-.322a.169.169,0,0,1,.03-.06.022.022,0,0,1-.007-.015.015.015,0,0,0,0-.011.015.015,0,0,1,0-.011.432.432,0,0,0-.1-.27.022.022,0,0,1-.007.015v.015Zm-.93,4.956a11,11,0,0,1,2.129-.607,1.131,1.131,0,0,1-.1-.071,1.343,1.343,0,0,1-.12-.1,3.971,3.971,0,0,1-.952-1.32,10.019,10.019,0,0,1-.622,1.477q-.225.42-.337.622Zm4.843-.12a1.794,1.794,0,0,0-1.05-.18,2.836,2.836,0,0,0,.93.21.727.727,0,0,0,.135-.007s0-.012-.015-.022Z" transform="translate(-2.571 -2.203)"/></svg>