<svg xmlns="http://www.w3.org/2000/svg" width="19.016" height="22.083" viewBox="0 0 19.016 22.083"><defs><style>.a,.b{fill:#fff;}.a{stroke-linecap:round;}.b{stroke:#074099;}.c,.d{stroke:none;}.d{fill:#074099;}.e{fill:none;}</style></defs><g transform="translate(-306.562 -2233)"><g class="a" transform="matrix(0.875, 0.485, -0.485, 0.875, 312.518, 2240.784)"><path class="c" d="M 6.824703693389893 11.07826900482178 L 3.853313446044922 8.106847763061523 L 3.499753475189209 7.753287792205811 L 3.146193504333496 8.106847763061523 L 0.5000035166740417 10.75306797027588 L 0.5000035166740417 0.4999976754188538 L 6.824703693389893 0.4999976754188538 L 6.824703693389893 11.07826900482178 Z"/><path class="d" d="M 6.324703693389893 9.871159553527832 L 6.324703693389893 0.9999976754188538 L 1.000003457069397 0.9999976754188538 L 1.000003457069397 9.545958518981934 L 2.792643547058105 7.753297805786133 L 3.499753475189209 7.046177864074707 L 4.206863403320312 7.753297805786133 L 6.324703693389893 9.871159553527832 M 7.324703693389893 12.28517723083496 L 7.323243618011475 12.28392791748047 L 3.499753475189209 8.460397720336914 L 3.515624939609552e-06 11.9601879119873 L 3.515624939609552e-06 -2.338256763323443e-06 L 7.324703693389893 -2.338256763323443e-06 L 7.324703693389893 12.28340721130371 L 7.324703693389893 12.28517723083496 Z"/></g><g class="a" transform="translate(313.092 2244.444) rotate(-30)"><path class="c" d="M 6.824703693389893 11.07826900482178 L 3.853313446044922 8.106847763061523 L 3.499753475189209 7.753287792205811 L 3.146193504333496 8.106847763061523 L 0.5000035166740417 10.75306797027588 L 0.5000035166740417 0.4999976754188538 L 6.824703693389893 0.4999976754188538 L 6.824703693389893 11.07826900482178 Z"/><path class="d" d="M 6.324703693389893 9.871159553527832 L 6.324703693389893 0.9999976754188538 L 1.000003457069397 0.9999976754188538 L 1.000003457069397 9.545958518981934 L 2.792643547058105 7.753297805786133 L 3.499753475189209 7.046177864074707 L 4.206863403320312 7.753297805786133 L 6.324703693389893 9.871159553527832 M 7.324703693389893 12.28517723083496 L 7.323243618011475 12.28392791748047 L 3.499753475189209 8.460397720336914 L 3.515624939609552e-06 11.9601879119873 L 3.515624939609552e-06 -2.338256763323443e-06 L 7.324703693389893 -2.338256763323443e-06 L 7.324703693389893 12.28340721130371 L 7.324703693389893 12.28517723083496 Z"/></g><g class="b" transform="translate(309.054 2233)"><circle class="c" cx="7" cy="7" r="7"/><circle class="e" cx="7" cy="7" r="6.5"/></g><g class="b" transform="translate(312.054 2236)"><circle class="c" cx="4" cy="4" r="4"/><circle class="e" cx="4" cy="4" r="3.5"/></g></g></svg>