<svg xmlns="http://www.w3.org/2000/svg" width="397" height="75.431" viewBox="0 0 397 75.431"><defs><style>.a{fill:#fff;fill-rule:evenodd;}</style></defs><path class="a" d="M-293.656-97.122v.342l.513.171.171,1.027c-.409.1-.318.054-.513.342h-.171v.171h.171v.171h-.171l.171.342a2.03,2.03,0,0,0-.855.171l.171.513h.342l-.171.342-.513.171c-.117.5-.191.56-.684.684a5.363,5.363,0,0,1-.513,1.2v.513l-.513.342-.171.684h-.171l.171.342h-.171a1.321,1.321,0,0,0-.171.684h-.342v.513h-.171a3.02,3.02,0,0,1-.342.342v.342h-.171a1.087,1.087,0,0,0-.342.684h.171v.171h-.342c-.017.664-.05.854-.342,1.2l-.342.171-.171,1.368c-.429.109-.281.09-.513.342h-.171v.342l-.342.171v.684l-.342.171-.171.513h-.171l.171.684a1.675,1.675,0,0,0-.684.171v.171h.171v.171h-.171v.342h-.171v.513h-.171c-.2.195,0,.068-.342.171-.152.691-.359.562-.171,1.2h-.513l-.171.513h-.171l-.513,1.539-.513.171-.171,1.026-.513.171v.513h-.342a1.341,1.341,0,0,1-.342,1.026h-.171l-.342,1.026h-.342l-.513,1.54-.513.171a3.705,3.705,0,0,1-.684,1.882l-.513.342-.171,1.027-.513.342-.171.684-.342.171v.342a2.186,2.186,0,0,0-.513,1.368h-.342a1.475,1.475,0,0,1-.342.684h-.171v.684h-.171l-.171.684h-.342v.684l-.513.171a3.26,3.26,0,0,1-.513,1.369c-.195.195,0,.068-.342.171-.093,1.208-1.414,2.83-1.71,3.421-.14.281-.71,1.2-.342,1.369h-.342a2.438,2.438,0,0,1-.513,1.368l-.342.171v.342l-.513.342v.342l-.342.171v.513l-.342.171v.684h-.171v.342l-.342.171v.513h-.171v.342l-.513.342-.171,1.2a4.864,4.864,0,0,0-.513,1.368h-.342c-.166.841-.581,1.8-.684,2.736h.171v.171h.513v.513h-.342c-.245.583-.355.828-1.2.855l-.855-1.026.171-3.079.342-.171.171-1.71h.171l.171-.684h.171v-1.026l.342-.171v-.513h.171l.171-.342H-320l-.171-.513H-320l.342-1.027h.171v-.342h.171v-.342h.171v-.513h.171v-.342h.171v-.513l.513-.342v-.342h.171v-.342h.171v-.513h.171l.171-.513.513-.342v-.513h.171V-58.3l.342-.171.171-1.026.684-.342v-.684l.342-.171V-61.2l.342-.171v-.513l.342-.171.171-.855h.171v-.342l.342-.171v-.513l.513-.342.171-.855.513-.342.171-1.026.342-.171v-.342c.324-.567.446-.251.513-1.2h.342a1.5,1.5,0,0,1,.513-1.2h.171v-.342l.342-.171v-.684h.171v-.342l.342-.171v-.342l.342-.171v-.342l.342-.171v-.513h.171V-73h.171v-.513l.855-.684.171-1.2.684-.513V-76.6l.342-.171.171-.684h.342c.187-.44.688-.741.342-1.2l.513-.171v-.342l.342-.171v-.513h.171v-.342l.342-.171V-80.7l.513-.342.171-1.026h.171v-.342l.513-.342-.171-.342h.513l.171-.684h.171l.342-1.539h.342c.065-.606.212-.519.342-1.027h.342l-.171-.513h.171V-87.2h.171v-.342h.171v-.342l.342-.171.171-.855.684-.513-.171-.684h.342l.171-.513.513-.342v-.513l.513-.342v-.342h.171V-93.53c.7-.194.341-.348.855-.684V-94.9h.342l-.171-.513h.171v-.171h.342l.171-.342h.171l.171-.855h.171l.171-.513c.5.162.452.09,1.027,0v.171h.171v-.171h.342v.171Zm-188.833,3.25v.342l1.539.855c.206.7.124.181.513.513v.171h.171v.342l.342.171a3.774,3.774,0,0,1,.342,2.053c-.195.2-.068,0-.171.342h-.342v.342h-1.54c-.489-.891-1.052-1.061-1.71-1.71l-.513-.684h-1.2v-.171h-.342v-.171c-.588-.242-.872.07-1.2-.171-.349-.229-.321-.28-.342-.855l-.855-.171a5.9,5.9,0,0,1-.684-1.71l.855-.684v-.342c.05-.039.4.25.684.171v-.171h.513l-.171.342h.855v-.171h.684v.171l.513-.171.171.342h.342l.342.513A3.351,3.351,0,0,0-482.489-93.872Zm273.842-.171c.1.505.574.955.342,1.71h-.171l-.171.513h.171l.171.684h-.342l.171.513-.171.171.342-.171v2.565c.349.229.321.28.342.855h.342c.075,1.29.378,2.122,0,3.079h.171v-.171c.147-.323.171.342.171.342h-.171l.171.684h.171c.1.506-.53.374-.342.855h.171c.195.195,0,.068.342.171l.171,1.026h-.171v.342h-.171c-.064.233.053,0,.171.171a1.323,1.323,0,0,0,.513.342v.171h-.171v.171l-.342-.171v.171h.171c.147.273-.244,1.13,0,1.71l.342.171v.171h-.171a.3.3,0,0,0,.171.342l-.171.513h.171c.116.6-.314.566-.342.684v.171h.171l-.171.342h.342v.171h-.171c.054.239.253.281.171.684,0,0-.218.01-.171.342h.171v.171a.3.3,0,0,0-.171.342h.171c.088.347-.227.547-.171.684h.171a1.409,1.409,0,0,1,.342.855c-.195.195-.068,0-.171.342h.342l-.171,1.539.342.171v.855l-.342.171c-.093.286.164.308.171.342v.171h-.171v.171h.171v.684h.171c.075.482-.374.339-.342.684h.171c.188-.009.212-.049.171.171l-.342.171v.342h.342a3.388,3.388,0,0,0-.171,1.71h.171v.684h-.171a3.924,3.924,0,0,0,.171,1.539,2.876,2.876,0,0,0-.171,1.539h.171l-.171.855h.171a1.228,1.228,0,0,1,.171.855h-.171c-.034.215.282.287.171.684h-.171v.513h-.171v2.395h.342c-.061.345-.171.342-.171.342v1.2h-.171v.342h-.171l-.171.513.342.171-.171.684h.171l.171.855h-.513v.171h-.171v.513h.171l-.171.513h.171v.684h-.171v.171h.171v1.2h.171c.037.232-.51.675-.513.684l.342,1.027h-.171l.171.342c.024.351-.171.342-.171.342l.171,1.539h-.342v1.026h-.171c-.055.28.164.31.171.342.079.413-.171.513-.171.513l.171,1.026h-.171c-.077.334.075.221.171.342-.009.109-.437.52,0,.513v.171h-.342a4.043,4.043,0,0,1-.342,1.369h-.171v1.368l-.342.171c-.3.353-.31.527-.342,1.2l-.342-.171v.171c-.2.195-.068,0-.171.342l-1.2.342v-.171h-.684V-36.4h-.342v-.171c-.238-.154-.3-.118-.684-.171v-.342l-.855-.171V-37.6c-.486-.133-.414-.211-.684-.513h-.171l-.171-.513-1.026-.171a4.756,4.756,0,0,0-.171-.684h.171c.1-.495.1-.806.171-1.2h1.2v.171a1.4,1.4,0,0,0,.855.342v.342c.533.113,1.424.551,1.71.342.294-.193.232-.109.342-.513h-.171l.171-1.027h.171v-.855h.171a1.486,1.486,0,0,0,.171-1.026h-.171l.171-.513c.234-1.712-.057-3.35.342-4.789l-.171-2.053h.171l.171-2.053h-.171a.464.464,0,0,1,.171-.513l-.171-1.368h.171v-1.026h.171c.014-.21-.284-.434-.171-.855h.171V-57.1h.171l-.171-.342h.171l-.171-1.882h-.171v-.171h.171V-64.11a7.952,7.952,0,0,1-.342-1.71h.171v-.855h-.171v-.342h-.171l.171-.855h-.171v-2.566h-.171l-.171-2.053s.216-.046.171-.342h-.171V-73l.171-.342h-.171v-1.882h-.171l.171-.513h-.171l-.171-2.394h.171v-.171h-.171v-.342h-.342l.171-1.368-.342-.171.171-1.539h-.171v-1.027h-.171l-.171-2.223h-.171v-.342h-.171v-.855h-.171v-.342h-.171v-2.394a10.59,10.59,0,0,1-.513-2.395,18.963,18.963,0,0,1-4.105.684v.513a4.373,4.373,0,0,1-.684-.171l-.171.171-.171-.171v.171h-.342v.171h-.684v.171h-.342v.171h-.684l-.171.342-1.2.171v.342h-.342a1.069,1.069,0,0,0-1.027,0v.171h-.513v.171h-.342l-.171.513h-.171c-.028-.22-.593-.269-.855-.171v.171l-.684.171-.513.684-.513.171v.342c-.469.111-.389.224-.855.342l.171.513-.513.342v.342l-.342.171v.342h-.171l.171,2.395c.045.026.312-.025.171.171s-.131-.148-.342.171l.855.171V-81.9h.171v.171l.513-.342c.07.029.037.287.342.171v-.171a1.7,1.7,0,0,1,.855-.171v-.513a6.035,6.035,0,0,0,1.368-.342h1.2l.171-.342h1.2v-.171h2.394l.171-.171.171.342h.513v.171h.342l.342.513c.195.171.324.193.513,0v.342h.171v1.2h-.342v.513h-.342v.171l-.342-.171v.171c-.195.195-.068,0-.171.342-1.129.119-1.733.957-2.737,1.2a3.2,3.2,0,0,1,.342-1.368h-.171v-.171h-.513v.171l-1.027.171-.171.342h-1.368l-.171.342-.513-.171-.171.342h-1.026v.171l-.684.171v.171c-.767.328-.889-.249-1.026.855a1.278,1.278,0,0,1,.513.342,3.333,3.333,0,0,0-1.882.513,3.291,3.291,0,0,1,.513,1.539,1.047,1.047,0,0,0-.513.855c-1.226.153-1.12.524-2.395,0-.108-.193-.287-.256-.342-.342V-75.4h-.171v-.342l-.342-.171V-76.6h-.171a5.214,5.214,0,0,1,.342-2.224V-79.5h.171l-.171-1.2h.171v-.342h.171v-.171h-.171v-.855h.171l-.171-.513h.171l.171-1.539h-.684c-.1-.172-.307-.282-.342-.342v-.342h-.171a5.2,5.2,0,0,1,.342-1.71l.342-.171V-87.2h.342c.207-.364.386-.372.513-.855h.513l.171-1.026h.171c.558-.673.627-.3,1.539-.513.236-.055-.07-.148.171-.171l.171.171v-.171h.342l.171-.513,2.053-.342.171-.342,1.368-.171v-.171h.342v-.171h.513v-.171h.342v-.171h.513v-.171h.513v-.171h.513v-.171h1.368l.342-.513,1.368-.171.171-.342a2.909,2.909,0,0,1,1.539,0v-.171h.342l.171-.342h.855v-.171h.513c.233-.064-.07-.144.171-.171v.171h.684v-.171h.342v-.171h.684v-.171h.342v-.171l.855.171v-.171h.171v.171l1.368-.171-.171.342h.342v.171C-209.115-94.051-209.023-94.08-208.647-94.043Zm-67.734,5.473-.171.855h.342l-.171.855c.48.443.131.529.342,1.2h.171v.855h.171v.342h.171a.481.481,0,0,1-.171.513l.171.684c-.11.129-.247-.059-.171.171l.342.171.171,1.71h-.171l.171.513h-.171v.171h.171V-79.5l.342.171-.171.513c1.745-.134,2.33-1.121,4.1-1.2l-.171-.342h1.369v-.171h.855V-80.7h.684v-.171c.694-.2,1.537.071,2.052-.171v.171c.2.148.248.452.342.513h.513l.171.342h.513v.171l-.342.171c-.1.232.314.257.342.342v.171h-.171v.171h.171c.083.385-.094.464-.171.684l-.342-.171a1.24,1.24,0,0,1,0,1.026h-.171v.342h-.171v.513h-.171v.684l-.342.171v.855h-.171c-.195.195,0,.068-.342.171-.1.522-.331.586-.342,1.2l.171.171-.513.342v.342h-.171v.513h-.171c-.407.456-.56.2-.684,1.027h-.342l.171.684h-.171v.171l-.855.171-.342.513h-.171c-.161.254.07.53-.171.684h-.342c-.215.818-.958.981-1.2,1.882h-.513l-.513.684h-.171v.342h-.171l-.684.855h-.342v.342h-.513c-.11.463-.282.533-.513.855h-.171c-.427.775.432.5-.684,1.026.111.234.267.228.342.342v.171h-.171v.513h-.171l-.171,3.25h-.171l.171.513h-.171v.684s.216-.012.171.342h-.171v.171h.171v1.2h-.171v.171h.171l-.171.513h.171v.171l-.342.171v.513h-.171v.513h-.171v1.368h.171c.058.3-.157.287-.171.342v2.223h-.171c-.151.487-.026.949-.171,1.369h-.171c-.013.074.285.635.171,1.026h-.171v1.2h-.171v1.882h-.171v.513h-.171c-.119.384.221.492.171.684h-.171v.342l-.342.171.171.513h-.171l-.342,1.882-.342.171v.342h-.171c-.289.571.271.448-.513.684-.294.187-.778-.144-1.2-.342l-.171-1.369h.171l.171-2.565-.171-.171.342-.171-.171-.342.171-.513h-.171l-.171-.513h.171V-45.3h.171v-.684h-.171v-.171h.171v-1.368l.342-.171.171-2.565c-.009-.041-.224-.056-.171-.342h.171v-.684h.171V-51.8h.171l-.171-1.027h.171v-1.026h.171v-1.027h-.171v-.171h.171v-.342h.171l-.171-.513h.171v-.684h-.171v-.171h.171v-1.026h.171l-.171-.513h.171v-.342h-.171l.171-1.71h.171l-.171-.855-.855.171-.171.342h-.684l-.342.513h-2.053v.171h-.513v.171l-.513-.171-.171.171c-.079.039-.019.262-.513.171v-.171l-1.71.171v-.171h-.342v-.171l-.684-.171-.855-1.026h-.342l-.513-.684-.342-.171V-62.4l-1.2-1.027-.171-.684-1.027-.855v-.513l-.513-.342-.171-.684-.684-.513-.171-.513h-.342c-.22-.9-.9-1.179-1.026-2.224h-.342a2.2,2.2,0,0,0-.513-1.027h-.171v-.513h-.171l-.855-1.027h-.342V-73h.171v-.171h-.171v-.684a2.681,2.681,0,0,0,1.2-.855c.195.195.068,0,.171.342l1.027.171.171.684h.342v.342h.684v.513h.171c.2.195,0,.068.342.171v.513a6.262,6.262,0,0,0,1.71.342v-.171l.855-.171.513-.684,1.027-.342.171-.342.684-.171.171-.342h.342l.342-.513h.855l.171-.171-.171-.513.684-.171v.342l.855-.171V-75.4c.326.063.252.2.684,0v-.171h.342v-.171h.342l.171-.342.855-.171.171-.342,1.71-.171v-.171h.342v-.171l2.052-.342-.342-1.882h.171l-.171-.513h.171v-.171l-.171-.171h.171c.046-.3-.155-.281-.171-.342v-1.026h-.171V-81.9h-.171c-.089-.346.447-1,.171-1.539l-.513-.171c-.016-.025.253-.563.171-.855h-.171c-.218-.759.321-.989,0-1.71l-.342-.171v-1.71h-.171v-.855l-.342-.171v-.684h-.171l.171-.513-.342-.171-.171-.684-.513-.342.171-1.539c.491-.138.366-.185.855-.342v-.171h.171v.171h.513v.171h.855l.171.342.855.171v.171h.171v.513l.342-.171v1.71C-276.127-89.553-277.808-88.987-276.381-88.57ZM-441.439-87.03l-.684.171v.342c-.576-.2-.513-.069-1.2,0l-.171-.684-.513-.171s-.028.366-.171.171v-.342h-.855l-.171-.342-1.882-.342v.171a1.76,1.76,0,0,0-1.369,1.539h-.342v-.171a4.578,4.578,0,0,1-.684.171l-.855,1.2-.513.171v.342l-.513.342-.171.684-.513.171-.171.513-.684.342v.684h-.171l-.171.513h-.342c-.091.181-.317.3-.342.342l-.171.855-.513.342.171.513h-.342v.171l-.513.342v.513h-.171l.171.342h-.342v.342h-.342a2.9,2.9,0,0,1-.684,1.2l-.342.171v.684l-.855.513v.684h-.171v.342h-.171c-.154.238-.118.3-.171.684h-.342l-.171,1.026h-.342a3.75,3.75,0,0,1-.171.684h.171v.342h.342v.342h-.513a1.148,1.148,0,0,1-.513.513,1.32,1.32,0,0,1,.171.855c-.041.238-.2-.069-.171.171h.171v.855h-.171v.342h.171v.684h.171v.171h-.171a2.672,2.672,0,0,0,.171,1.026h-.171v.342h-.171a.439.439,0,0,0,.171.513l-.171,1.026h.684c.4-.594,1.15-.569,1.368-1.368H-457l.171-.342h.513v-.171h.513v-.171h.342v-.171c.238-.155.3-.115.684-.171v-.342c1.374-.023,1.652-.868,2.908-1.027v-.342c1.105-.236,1.333-.972,2.737-1.026V-70.1l1.539-.342.342-.513,1.026-.171v-.171h.342v-.171h.684v-.171l.684-.171v-.171h.684v-.171l.684-.171v-.171h.684v-.171h.342v-.171h1.026V-73l.684-.171v-.171l.855-.171v-.171h1.027v-.171h.513v-.171h.342V-74.2a.261.261,0,0,1,.342.171h.171V-74.2h.684v-.342h2.394v-.171h.513v-.171a4.094,4.094,0,0,1,1.882,0l.171.513h.171v.342h.171v.855a2.982,2.982,0,0,0-.513.513h-.684v.171l-1.71.171v.171h-.513v.171h-.684l-.171.342h-.684l-.171.342-2.053.171-.171.342h-.684v.171l-.855.171v.171a1.628,1.628,0,0,1-.855.171,2.966,2.966,0,0,1,0,1.539l-.342.171v1.71c-.007.034-.257.056-.171.342l.342.171v2.736l.171.855h-.171v.684h-.171v4.961l-.171,1.71h.171v.855h.171l-.171,1.027h.171v.513h.171c.064.291-.161.3-.171.342v.855h.171v2.052h-.171v.171h.171a13.555,13.555,0,0,1,0,3.079l.171,1.2h-.171l.171,2.908h-.171c-.052.278.329.816.171,1.368h-.171l-.171,3.592h-.171v1.369h-.171v1.368h-.171v1.368h-.171v.513h-.171v.855h-.171v1.2l-.342.171-.171,1.54h-.171v.513h-.171v.684h-.171l.171.513-.342.171-.171,1.027h-.171v.342h-.171v.855H-444v.342h-.171l-.513,1.539c-.3.084-1.1.595-1.368.513l-.171-.342h-.684v-.171c-.254-.273-.187-1.008-.171-1.539h.171v-1.2l.342-.171.342-2.395h.171v-.855h.171v-.513h.171v-.513h.171v-.513h.171l.171-1.882h.171v-.513h.171v-1.027h.171v-1.2h.171v-1.368h.171c.1-.41-.172-.446-.171-.684v-.171h.171v-1.71h.171v-8.21H-444c.031-.24-.116.065-.171-.171v-2.736h-.171v-.171h.171l-.171-3.421h-.171v-.171h.171v-1.027s-.213,0-.171-.342a.491.491,0,0,0,.171-.513h-.171l-.171-2.566h.171l-.171-.855h.171v-3.592h.171V-63.6c.054-.236.143.069.171-.171-.271-.61.133-.942-.171-1.881h-.171v-.513h-.171l.171-.342c-.01-.242-.11.063-.171-.171v-1.539h.342v-.171h-1.2l-.342.513h-.342l-.342.513-1.2.171v.171h-.342v.171h-.684l-.171.342h-.513l-.171.342h-.855v.171c-.2.195-.068,0-.171.342l-1.882.684-.171.342-.684.171v.171h-.342v.171l-1.027.342v.171h-.513v.171h-.342l-.171.342h-.855l-.171.342-.684.171v.342c-.575.148-.337.208-.684.513v.171l-.342-.171-.171.342c-.207.125-.061-.148-.171-.171-.219-.27-.169.337-.171.342-.375.344-.149.353-.342.855h-.171v.855h-.171v-.171h-.513l.171,2.224h-.171v.684h-.171l.171.855h-.171a.463.463,0,0,0,.171.513v1.882h-.171v2.565h-.171v.513h-.171c-.018.241.128-.067.171.171v1.368h-.171c-.125.466.171.869.171,1.026l-.342,2.224h.171l-.171,4.618h.171l.171.684h.171l.342,2.224h.171a10.529,10.529,0,0,1,0,2.908h-.171v.342h-.171v.855l-.342.171v.513l-.342.171v.684l-.684.513v.171h-.342v.171h-.855a1.049,1.049,0,0,0-.855-.513c-.067-.372-.166-.326-.171-.342v-.855h-.171v-.342h-.171V-37.6l-.171-1.2h.171v-1.2h-.171c-.017-.123.257-.444.171-.855h-.171l.171-.684c-.03-.24-.155.07-.171-.171h.171c.019-.106-.284-.461-.171-.855h.171v-.513h.171v-2.053h.171V-45.3h-.171v-1.71h.171v-.513h.171c.159-.526-.144-.819-.171-1.2v-.855h.171v-3.592h.171v-.513h.171c.073-.3-.275-.055-.342-.342h.171l-.171-1.2h.171l-.171-.855h.171V-57.44h-.171v-.171h.171v-.855h.171v-.855h.171l-.171-1.539a11.728,11.728,0,0,0,0-2.737h.342v-1.026c-.005-.014-.3-.086-.342-.342l.342-.171v-.342h.171c.075-.292-.161-.3-.171-.342v-1.71a24.377,24.377,0,0,0,0-4.276l.342-.171v-.513h.171v-.342l.513-.342.171-.684.342-.171-.171-.513.513-.342v-.855l.171-.171.342.171V-76.6c.473-.124.383-.048.513-.513h.171v-.684h.342c.11-.468.224-.389.342-.855h.342c.2-.7.218-.2.513-.513l-.171-.342c.592-.592.979-.248,1.027-1.539h.342v-.342h.342c.1-.2.3-.275.342-.342.324-.57-.256-.611.684-.855a2.215,2.215,0,0,1,1.026-1.71v-.171h.342l.171-.342h.171v-.342h.171v-.171h-.171c-.252-.235.32-.164.342-.171v-.684h.513c.162-.308.237-.269.342-.684h.342c.065-.606.212-.519.342-1.027a2.847,2.847,0,0,0,1.2-.684l.171-.342.684-.171.171-.342a2.127,2.127,0,0,1,1.2-.513v-.342c.8-.09,2.348-.7,3.421-.342v.171h.513l.342.513H-444l.171.342h.513l.342.513C-442.341-88.463-441.656-88.087-441.439-87.03Zm-28.222,1.2c-.911.239-1.035,1.1-2.224,1.368v.513h.342l.171,1.71h-.342c-.085.176-.327.312-.342.342l.171.513h-.342l-.684,2.565-.342.171v.342h-.171l-.171.684h-.171l-.171,1.369-.342.171c-.205.356.025.758-.171,1.2l-.342.171v.855h.171c.115-.163.087-.318.342-.342.1.077-.049.271.171.171V-74.2h.342v-.171h.342v-.171l.513.171v-.171h.513v-.171h1.882l.855,1.2c-.071.177-.093.513-.171.684H-470v.342h-.171l-.171.513-3.421.855-.171.342-1.882.684v.513c-.472.123-.383.048-.513.513h-.342c-.38.666-1,1.02-1.2,1.882-.777.187-1.046.621-2.053.684-.193-.294-.108-.232-.513-.342v-.342a2.4,2.4,0,0,0-1.368.684l-.171.342-1.54.513v.342l-.684.171v.171h-.513l-.171.342h-.342v.171h-.342l-.342.513-.684.171-.171.342h-.513v.171h-.342l-.171.342h-.513v.171h-.342l-.171.342h-.513l-.171.342-.684.171-.513.684h-.513v.171a1.518,1.518,0,0,1-.684.342v.342c-.386.04-.45.019-.684.171v.171h-.342v.171h-.513v.171h-.342v.171h-.342l-.171.342h-.513l-.171.342h-.342v.171l-1.2.171v.171l-.684.171v.171h-.513v.171h-.342v.171h-.342l-.171.342-.684.171v.342c-.8.048-.8.225-1.368.513v.171h-.684l-.513.684h-.342l-.171.342h-.513v.171a6.018,6.018,0,0,1-2.224,0v-.342l-.342-.171v-1.539l.684-.171c.2-.673.042-.218.513-.513v-.171h.342l.171-.342h.684l.684-.855.684-.171.342-.513h.684v-.171l1.027-.342v-.342c1.738-.3,2.243-1.421,4.1-1.54V-62.4c1.432-.066,1.472-1.084,2.908-1.2v-.342h.513v-.342l.513-.171v-.171h.513l.171-.342.855-.171v-.342c.774-.072.878-.411,1.368-.684l.684-.171.342-.513a11.035,11.035,0,0,1,1.368-.342v-.342l.513-.171.684-.855h.171V-68.9h.171v-.171h-.171c-.181-.614.194-1.123.171-1.539h-.171v-.171h.171v-.342a.464.464,0,0,1-.171-.513h.171l-.171-.513.342-.171V-73h.171l.171-1.71.342-.171V-75.4h.171l.171-1.882h.171v-.342h.171l.171-1.026h.171c.091-.507-.269-.35-.342-.513V-79.5c.874.234.4-.1,1.027-.513-.2-.195,0-.068-.342-.171v-.171h-.855c-.317.454-.674.422-1.2.684v.171h-.513l-.342.513h-.513v.171h-.342l-.171.342h-.684l-.342.513-1.539.513-.342.513h-.513v.171h-.342l-.171.342h-.342v.171h-.513l-.171.513a7.249,7.249,0,0,0-2.566.855v.171c-.233.106-.483.085-.684.171l-.171.513-.855.171v.342a4.109,4.109,0,0,0-1.71.684v.171l-1.026.171v.171h-.342v.171l-.684.171v.171h-.513v.171l-.855.171-.171.342h-.342v.171h-1.882a4.622,4.622,0,0,1-.684-1.2c.418-.484-.006-.912.684-1.368v-.171h.684v-.171h.342v-.171l.342.171v-.171a1.482,1.482,0,0,1,.855-.171c.1-.536.167-.717.684-.855.188-.2.46-.462.684-.171v-.342l1.539-.342v-.342l1.026-.342v-.171l.513.171v-.342l.513-.171.171-.342.342.171.513-.684.342.171.513-.684.513.171.171-.342h.342l.342-.513c.245-.017.281.258.684,0l.342-.513.855-.171v-.171h.513l.171-.342,1.027-.342.171-.855,1.2.171V-81.9a2.949,2.949,0,0,0,1.2,0v-.342a4.709,4.709,0,0,0,1.539-.684V-83.1l1.027-.171.171-.342h.342v-.171h.684l.684-.855,2.223-.513v-.342l.513.171v-.171h.342v-.171A6.7,6.7,0,0,1-477.7-86v-.342h.171v.171l.684-.342v-.171l.513.171.171-.342.513-.171V-87.2h.513v-.171l.684-.171v-.171l.513.171c.06-.024.06-.3.342-.342v.171h.171l.342-.513h.171v.171c.937.129,2.012.038,2.737.171a3.085,3.085,0,0,0,.855,1.027l-.171.171.171.342C-469.391-86.195-469.537-86.354-469.661-85.833Zm234.5-1.71v.684h.342v.513h.171c.32.154-.342.171-.342.171l.171,1.027h.171c.118.392-.142.456-.171.684h.171c.158.665-.455.694-.342,1.368h.171l-.171,2.224-.342.171a.434.434,0,0,0,.171.513l-.171,1.539h.171v.171a9.543,9.543,0,0,0,1.2-.513h1.2v.513h-.171c-.2.195,0,.068-.342.171v.684c-.6.094-.317.168-.855,0-.136,1.054-.464.465-.855,1.027l-.855,2.053.342-.171v.855l-.342.171c.112.318.244-.009.342.171v.171h-.171v1.026h-.171v-.171c-.27-.2-.159.421-.171.513h.171l-.171.513h-.171c-.1.32.106.242.171.342.013.367-.171.342-.171.342v1.54h-.171v.342l-.342.171v.513a2.338,2.338,0,0,1-.855.855,1.285,1.285,0,0,1-1.368.171v-.171h-.342l-.342-.513-.342-.171-.171-1.2h-.684l-.171-.342a1.583,1.583,0,0,0,1.027-1.2c.3.149.058.02.171.342h.171v-.342h.342v-.513l.342-.171c.119-.452-.34-.5-.342-.513l.342-1.2h-.342v-.171a4.592,4.592,0,0,1-.684.171l-.171.513h-.513v.342h-.513v.342l-.684.171v.171l-.342-.171v.171c-.424.314-.615.7-1.2.855l-.171.513-1.54.513-.342.513-.855.171-.342.513h-.513l-.684.855h-.171l.171.342-.513.342.171.342h-.171v.342h.342a3.074,3.074,0,0,1-.171,1.2h-.171l.342,1.71h-.171v.855s-.224-.019-.171.342h.171v1.368h-.171v.342h-.171c-.087.281.166.315.171.342l-.171.513.171.342h-.171v.171h.171v.513h.171v1.026h-.171a.3.3,0,0,0,.171.342c.068.4-.092.452-.171.684h.513v.171c-.5.352-.183.645-.342,1.368h-.171l.171.513c0,.026-.24.064-.171.342h.171l.171.855h-.171c-.128.528.251.919.171,1.2l-.342.171.171,1.539v.684h-.171v.171l.342.171v1.71s.112.025.171.342h.171v-.171A3.627,3.627,0,0,0-247.3-49.4c.605-.065.519-.212,1.026-.342v2.224h.171v.342h.171l-.171.855h.171v.684h.171v.513h.171c.037.273-.294.214-.342.342V-42.9h-.171v.342l-.342.171-.342,1.71c-.477.231-.7.452-1.2.684v.171l-1.539-.171a3.03,3.03,0,0,0-.513-.513v-.855h-.171v-.513h-.171v-.855h-.171v-.342h-.171c-.257-.717.188-1.7-.171-2.224v-.171l.342-.171c.221-.6-.248-1.078-.342-1.368v-2.737h-.171l.171-1.026h-.171v-2.395c.009-.039.256-.052.171-.342l-.342-.171.171-1.71h-.171l.171-.513h-.171V-58.3h-.171c-.153-.55.18-.8.171-1.2h-.171a13.12,13.12,0,0,0,.342-1.368l-.342-.171.342-2.395h-.171l.171-.513h-.171v-1.369h.171v-.171h-.171v-1.368l.171-1.539a9.364,9.364,0,0,1-.171-3.079h.171v-.171h-.171c.033-.248.245-.27.171-.684a.3.3,0,0,1-.171-.342h.171V-74.2h-.171l.171-3.934h.171v-1.882h.171V-80.7h.171v-.855h.171c.111-.388-.19-.761-.171-.855h.171v-.342h.171v-.684h-.171v-.342h.171v-1.2h.171a2.138,2.138,0,0,0,.513-.855l1.026-.342.171.342.855.171v.171l.513-.171-.171.342h.513l.171.342.855.171v-.171c.472-.124.383-.048.513-.513.39-.044.445-.024.684-.171v-.171h.513l.171-.342h.684v-.171h.342v-.171h.342l.171-.342h.342v-.171h.513V-87.2l.684-.171v-.171h.684l.171-.342h.684v-.171c.241-.018-.069.143.171.171.425.05.513-.171.513-.171l.513.171v-.171h1.027v.171h.855v.171A1.64,1.64,0,0,0-235.159-87.544Zm-109.64.684c1.029-.024,2.443.458,2.908.171l.171.513h.342V-86h.342v.171h.513l.513.684.684.171.342.513.684.171.171.342h.342l.342.342h.342l-.171.342.855.171.342.513h.342l.342.342v.342h.171a2.339,2.339,0,0,1,.684,1.2h.342a9.2,9.2,0,0,0,.342,1.368l.342.171v1.027h.171a5.55,5.55,0,0,0-.342,1.368c-.355.187-.3.276-.855.342-.2-.2,0-.068-.342-.171l-.171-.513c0-.019.283-.067.171-.342l-.342-.171-.342-1.026h-.342l-.342-.513-1.539-1.368h-.684v-.684a1.207,1.207,0,0,1-.855-.342v-.171h-.342l-.171-.342-.684-.171-.171-.342h-.513v-.171h-.342l-.171-.342-1.54-.513a3.733,3.733,0,0,0-.171-.684h.171v-.342h-.342c-.133.512-.106.45-.684.513v-.171h-.513v-.171c-.43-.347-.5-.384-.513-1.2h.171l-.171-.684h.171c.195-.195,0-.068.342-.171Zm101.942,3.592v-.171a1.055,1.055,0,0,0,.855,0l-.171-.342h.684l.342-.513.171.171.855-.171v-.171h.513v-.171l.342.171v-.342l.342-.171v-.171l.513.171a5.438,5.438,0,0,1,.171,2.052c-.051.237-.207-.068-.171.171h.171V-80.7c.012.051.236.047.171.342h-.171v.513a9.074,9.074,0,0,0-.513,1.2h.171v.513h.171l-.171.513h.171c-.042.39-.024.446-.171.684h-.171v.513l-1.2.855h-.342l-.171.342h-.342l-.171.342h-.342v.171H-242l-.342.513h-.342v.171h-.513l-.342.513-1.027.342V-73a1.321,1.321,0,0,1-.684.342l-.171-.513-2.566.342c-.105-.415-.18-.377-.342-.684h.342l-.171-.684h.171v-.342h.171c.15-.24.12-.3.171-.684h.684v-.342h.342v-.342a11.887,11.887,0,0,0,1.369-.513h.684l.171-.342h.855v-.171h.513v-.171c.275-.031.211.291.342.342H-242v.171a8.571,8.571,0,0,1,1.2-.342v-.171h.171v-.513l.684-.171v-.342c.465-.131.389-.041.513-.513h.342v-.171h-.171v-.171h.171l-.171-1.026a6.183,6.183,0,0,0-1.2-.342V-80.7l-2.395.342v.171h-.342l-.171.342-1.027.171-.171.342-1.71.171v.342l-1.2-.342c.1.342-.024.148.171.342v.171c-.342-.1-.148.024-.342-.171h-.171v-.171l.342-.171.171-.855h.171a.294.294,0,0,0-.171-.342l.171-.684c.95-.147.522-.327,1.026-.684l.513-.171.171-.342h.855v-.171l.342-.171v.171h.342l.171-.684A1.567,1.567,0,0,0-242.856-83.267Zm-235.186,1.539.171-.342h.342v-.171a2.4,2.4,0,0,1,1.368.171l.171-.342h.342v-.171c.386-.233.142-.013.513,0v-.171h.171v.171h.342l-.342.855-.513.171.171.513-.513.342v.342a4.065,4.065,0,0,0-.684,1.2h-.342v1.368h-.171v.342h-.171c.032.214.305.309.171.684h-.171v.342l-.342.171-.171,1.882-.342.171a3.794,3.794,0,0,0-.513,1.71h-.342c-.1.342.024.148-.171.342v.171l-.513-.171a.681.681,0,0,0,.342.342,3.4,3.4,0,0,1-2.224,1.368v-1.539h-.171v-.171h.171v-.342l.342-.171v-.684h.171v-.513h.171l.171-2.394.342-.171v-.513l.513-.342v-.855l.513-.342c.3-.609-.3-.556.342-1.027.011-.9-.135-1.37-.855-1.539v-.171h.513v-.342ZM-354.89-77.11v.342l-1.026.171v.513l-1.027-.171c-.322.359-.894.338-1.368.513v.513h-.342l-.171.342-.684-.171v.342c.472.123.383.048.513.513l-.855-.171L-360.021-73l-.513.342c-.287.622.359,1.05,0,1.71l-.513.342-.171.855h-.171l.171.513h-.171v.684h-.171v.684h-.171v.342h-.171v1.2h-.171v.342h-.171l-.171,1.026-.342.171v.684h-.171l-.171.855h-.171v.342h-.171l-.171,1.2h-.171v.342h-.171v.513h-.171l-.171.684h-.171v.855l-.342.171v.342h-.171v1.026l-.513.342v.855l-.513.171v.171h.513v.513l-.342.171v.171h.171v1.026h-.171v.684h-.171a1.335,1.335,0,0,0-.171.684c-.916.038-1.7.36-2.224-.171a1.418,1.418,0,0,1-.513-.855c.632-.443.168-.4,0-1.027h.342a9.442,9.442,0,0,1,.684-3.421h.171v-.342l.342-.171-.171-.513h.171l.171-.684h.171v-.513h.171l.171-1.2h.171V-62.4l.342-.171-.171-.342h.171c.088-.308-.223-.6-.171-.684h.171c.195-.195,0-.068.342-.171l.171-.513h.171v-.342h.171v-.342h.171l-.171-.342c.089-.236.686-.712.513-1.2l-.342-.171v-.342l.342.171v-.342l.342-.171v-1.369l.513-.342V-70.1h.171l.171-1.2h.171a5.228,5.228,0,0,0,.342-2.224h.342l.171-.513h-.684c-.453.434-.752.105-1.368.342v.171h-.342v.171l-.855.171V-73h-.342v.171l-.855.171v.171h-.513v.171c-.361.117-.528-.233-.684-.171l-.342.513c-.221,0-.3-.313-.684-.171v.171h-.342l-.342.513c-.358.225-.733-.008-1.2.171v.171l-.684.171v.171h-1.027c-.035.008-.055.274-.342.171l-.342-.513a.434.434,0,0,0-.513.171l-1.026-.171v-.171c1.014-.3.316-.7.684-1.368h.171l.171-.342c.508-.34.441.307.684-.513l3.079-1.026v-.342c.344.1.148-.02.342.171.459-.073.347-.214.684,0l.171-.513h.684V-75.4h.684v-.171h.513v-.171h.684l.342-.513h.342v-.171h.342V-76.6h.684v-.171h.342v-.171l1.026.171.342-.513h.513v-.171h.342l.171-.342h.684v-.171c.566-.279.656.027.855-.684h.171v-1.2h.171c.171-.48.179-.946.342-1.369a1.284,1.284,0,0,0,.513-.342h1.368v-.171h.171l.171.342h.342v.171h.342v.171h.513v.171l1.026.342v.171h.855v.171h1.026v.171l.513.342v.342l.342.171v.513l-.342.171v.513h-.171l-.171.513c-.736.047-.577.1-1.026.342v.171Zm81.246,1.368v-.171h.342v-.171l.513.171.171-.342.342.171.171-.342h.342l.342-.513.513.171v-.171h.342v-.171h.513l.171-.342,1.71-.171a1.367,1.367,0,0,1-.171.684h-.171v.684h-.171v.684l-.342.171v.342h-.171l-.171,1.026-.342.171v.684l-.342.171a3.856,3.856,0,0,0-.684,1.2c-.753.213-.454.407-.855.855l-.513.342v.342l-.684.513v.342l-.513.171-.171.342h-.342v.171h-.342l-.342.513h-.342v.171l-.513.342v-.171h-.171v-.171h.342l.171-.855h-.171v-1.026c.047-.124.388-.073.342-.342h-.171v-1.026h-.171l.171-1.539h-.171l.171-.342h-.171v-1.2h.513v-.855h.171V-75.4h-.171v-.342C-274.231-75.693-274.163-75.538-273.644-75.742Zm56.615,1.2v.342a4.405,4.405,0,0,0-1.368.513h-.855l-.171.342h-1.027v.171h-.342l-.171.342h-1.027v.171h-.513l-.171.342H-223.7v.171h-.513v.171h-.342v.171h-1.368v.171h-.513v.171h-.513l-.171.342-1.368.171v.171H-229v.171c-.293.06-.294-.16-.342-.171h-1.54v-.342h-.513c-.094-.494-.278-.881,0-1.369h.171l.171-.513,1.882-.513v-.171h.342v-.171l.342.171.171-.342h.342V-74.2c.259-.139.989-.038,1.2-.171v-.171c-.195-.2-.068,0-.171-.342a3.4,3.4,0,0,0,1.2.171v-.171h.855v-.171h.513v-.171h.855V-75.4l1.368-.171v-.171l1.71-.171.171-.342h.342v-.171h.684V-76.6h.342v-.171h.855v-.171h.342v-.171h.684v-.171a3.691,3.691,0,0,1,1.711-.342c.5.749.685.094.684,1.539C-215.459-75.546-215.74-74.683-217.029-74.544Zm42.077-2.224v.513c.7-.018,1.907.423,2.053.171v.342h1.2v.171c-.2.2-.068,0-.171.342h.684c.19.08-.026.359.513.342l.171-.171v.171c.238.167.279.19.513,0v.342l.855.171v-.171h.171v.171h.684v.171h.171v-.171h.171v.171h.171v.513l1.54.171v.342c.521.117.374.277.513.342l1.882.342.171.342h.342v.171h.855v.171h.855v.171l.513-.171.171.513.513-.171.171.513h.171v-.171c.06-.011.617.29.855.342v.342h.855l.171.342h.855v.171h.342v.171h.342l.171.342h.342l.342.513.513-.171v.171h.684v-.171h.171v.342h.513l-.171.342h.171v-.171c.241-.023-.069.139.171.171l.513-.171.171.342h.342l.171.342h.342l.342.513,1.027.171-.171.342h.171v-.171c.194.194.074,0,.171.342l.684-.171v.171c.195.2.068,0,.171.342h.855v.513h.513v.171c.369.076.1-.306.513,0l.171.342h.684l.342.513.855-.171-.171.171.171.342a5.177,5.177,0,0,0,1.882.513v.342c.605.065.519.213,1.026.342v.342c.787.088.862.5,1.539.684-.132-.174-.21-.169-.342-.342h.513c.124.472.048.383.513.513v.171l.513-.171v.513a1.286,1.286,0,0,1,.855.342v.171l1.027.171v.342l.684.171c-.053.149-.327.379-.171.684h.171v-.513a1.679,1.679,0,0,1,.684.171l-.171.342h.171v.171h.171v-.171c.283-.168.144.246.171.342h.684l-.171.342.513.171.342.513h.171l.171.513.513.171v.513h-.171l.171.342h-.171l-.171.342c-.145.194-.064-.046-.171.171h.171v.171h-.342c-.179.223-.35.255-.513.513h-.171v-.171h-.855l-.171-.342h-.342l-.342-.342h-.342v-.171l-.684-.171-.513-.684-1.026-.342-.171-.342h-.513l-.342-.513-.855-.171v-.171h-.342l-.171-.342-1.026-.171-.513-.684h-.513l-.171-.342h-.342v-.171h-.342v-.171h-.342v-.171h-.513l-.171-.342h-.342v-.171h-.513v-.171h-.342v-.171h-.342l-.171-.342-.684-.171v-.171l-1.027-.171v-.171l-.684-.171-.171-.342h-.342V-63.6h-.342v-.171h-.513l-.342-.513h-.855v-.171h-.342l-.171-.342-1.026-.171-.171-.342h-.684l-.171-.342-1.026-.171v-.171h-.342l-.171-.342h-.684v-.171h-.342l-.171-.342h-.342v-.171l-1.2-.171v-.171l-.684-.171V-67.7h-.342v-.171h-.513l-.171-.342-3.079-.684v-.171h-.342v-.171h-.513l-.171-.342h-.684v-.171l-.855-.171V-70.1h-.342v-.171l-1.2-.171-.171-.342-.855-.171v-.171h-.342v-.171h-.684v-.171h-.342l-.171-.342h-.855v-.171h-.684v-.171h-.513v-.171h-.684v-.171h-.342v-.171h-.513v-.171h-.171c-.12.094.055.258-.171.171v-.171h-.342l-.171-.342-1.026-.171-.342,1.2-.342.171v.513l-.342.171v.684l-1.368,1.2c-.4.761.45.893-.684,1.2-.065.605-.212.519-.342,1.026h-.342a5.461,5.461,0,0,0-.513,1.2c-.421.12-.517.161-.684.513l.171.171-.684.513v.513l-.684.342v.342h-.171c-.236.247-.082.233-.513.342v.342h-.342v.513h-.342l-.171.513-.855.513v.342h-.171l.171.684h-.171c-.2-.2,0-.069-.342-.171a2.516,2.516,0,0,1-.513,1.2l-.342.171v1.026h-.513a1.229,1.229,0,0,0,.171.684h-.171c-.132.174-.211.169-.342.342l-2.053-.342-.171-1.882h.171v-.684l.513-.342v-.342l1.2-1.027-.171-.342.342-.171v-.342l.855-.684V-63.6l.855-.684.171-.684.342-.171a4.111,4.111,0,0,0,1.2-1.71h.342c.095-.187.309-.284.342-.342V-67.7l.513-.342c.008-.245-.255-.294,0-.684l.684-.513v-.171l.342-.171v-.342l.342-.171a3.919,3.919,0,0,0,.684-1.71h.342c.126-.535.388-.773.513-1.368h.342l.513-1.539.684-.513c.174-.362-.1-.865-.171-1.026h.171v-.171h.513l.342-.513h.342v-.171h.684v.171c.4.1.448-.135.684-.171v.171A3.63,3.63,0,0,0-174.952-76.768ZM-279.8-73.86v-.171l.513.171V-74.2c.606.282.368.074.855-.171a.679.679,0,0,0,.342.342l-.171,5.816h-.171c-.05.3.171.342.171.342l-.171.855c-.006.242.207-.068.171.171l-.342.171.171.855-.513.171v.171c-.572.274-.464-.255-.684.513l-1.026.171-.513.684-.342-.171v.342c-.354.075-.33.167-.342.171h-.855l-.513.684h-.513v.171h-.513v.171c-.13.075-.539.333-.855.171v-.171h-1.026v-.171h-.171v-.855l-.342.171c-.112-.074-.114-.23-.342-.342v-.513c-.346-.1-.149.04-.342-.171h-.171l.171-.342h-.513a3.638,3.638,0,0,0-1.539-1.882v-.513h-.342v-.513h-.342V-68.9h.171v-.342l.342-.342h.342l.171-.342h.171l.171-.342.684-.171.342-.513,1.026-.171.171-.342h.342l.171-.342h.342v-.171h.855l.171-.342,1.539-.342v-.171h.342l.171-.342,1.368-.171v-.342ZM-339.5-73v.513c-.465.274-.594.744-1.026,1.027l-1.539.513v.342l.342.171c.059.253-.327.247-.342.342v.171h.171v.855h.171c.176.612-.239,1.142-.171,1.54h.171v1.026h.171v.342h.171c.2.566-.169,1.4-.171,1.71h.171v1.2h.171l-.171.513h.171v1.368h.171v.684h.171a5.089,5.089,0,0,1-.171,2.053l.342.171-.171.855.342.171-.171.855.342.171v.684h.171c.172-.522-.01-.2.684-.171v.342l1.539.171v.171l.513-.171v.171h.513v.171h1.368v.171l1.539.342v.171h.342v.171c.36.186,1.018.164,1.2.513v.513a1.324,1.324,0,0,0-.342.513l-.855.171v.171l-1.2-.171v.171l-.513-.171a.3.3,0,0,1-.342.171v-.171H-337.1c-.045.01-.051.24-.342.171v-.171h-.342v-.171l-2.052.171v.342l-.342.171.171,1.026h.171v1.027h-.342a1.987,1.987,0,0,0,.342.342v.684h.171l-.342,2.053h.171c.079.392-.171.513-.171.513l.171.855-.342.171v1.026h-.171v.513h-.171v.513h-.171v.342h-.171v.342l-.342.171v.342l-.342.171v.171h-.342l-.171.342h-1.368V-41.7A8.106,8.106,0,0,1-346-42.73l-.342-.513h-.684l-.855-1.027-2.224-2.052c-.229-.232-.476-.86-.684-1.027h-.342l-1.71-1.882-.513-.342-.171-1.539h.171l.171-1.2.855-.513.171-.513h.342v-.342c.587-.153.768-.545,1.2-.855V-54.7l1.539-.342v-.171h.342v-.171l.855-.171v-.171h.855V-55.9h.342v-.171h2.908a2.594,2.594,0,0,0-.171-1.882h-.171v-.171h.171l-.171-3.25h-.171v-.855h-.171l.171-.513h-.171v-.513h-.171a.482.482,0,0,1,.171-.513l-.171-.684h.171v-.684h-.171l.171-.855h-.171v-1.539h-.171V-67.7h.171c-.033-.243-.29-.568-.171-1.027h.171c.141-.538-.138-.809-.171-1.2a10.649,10.649,0,0,1,.171-2.566,1.29,1.29,0,0,0,.513-.684l1.539-.171v-.171l.342.171v-.171h.171v.171h1.2A4.729,4.729,0,0,0-339.5-73Zm69.444,1.026c.108.317-.1.243-.171.342v.171h-.171l.171-.513Zm-131.7.855a1.386,1.386,0,0,1,.684.342v.171l1.2.171.171.342h.342v.171h.171V-70.1l1.882-.171v.171h.342v.171c.865.493.709.383.684,1.71h-.171v.171h-.513l-.171.342h-.342v.171l-1.2.171-.171.342-1.368.171v.171h-.342l-.342.513h-.171v-.171l-.684.171-.342.513h-.684l-.171.342c-.436.411-.472.164-.513,1.027h.171c.079.248-.3.24-.342.342v1.026h-.171v.513h-.171v.513h-.171v.684h-.171l-.171.684a.307.307,0,0,1,.171.342h-.171l-.171,1.54h-.171v.684h-.171c-.13.411.126.637.171.855l-.513.342-.171,2.395h-.171v.171h.171v.171h-.171v.513h-.171v1.71h-.171v1.539h-.171v1.026h-.171v1.2h-.171v.342l-.342.171.171.684h-.171V-42.9h-.171a.47.47,0,0,0,.171.513l-.171.855h.171v.171l-.171.171h.171a3.538,3.538,0,0,1,.855-.684v.171c.365.294.1.348.684.513l-.171,1.2c-.518.367-.071.249-.342.684l-.513.342v.171h-.513l-.171.342h-.855v-.171h-.855l-1.027-1.539.171-1.71-.342-.171.171-2.736-.513-.171v-.171l.513-.171v-1.539l.342-.171v-1.71h.171v-.855h.171v-1.71h.171V-51.8h.171c.116-.365-.231-.521-.171-.684l.342-.171v-.342h.171v-3.25h.171v-.684h.171v-.342h.171v-.684h.171l.171-1.539h.171l.171-1.882h.171v-.342h.171l.684-3.25h-.171c-.489.537-.664.269-1.368.513v.171h-.684v.171h-.513v.171h-.855v.171h-.513v.171h-.855v.171h-.513v.171h-.513v.171h-.513v.171h-.513v.171l-.684.171v.171h-.513v.171l-.684.171v.171h-.855v.171h-.342l-.171.342h-.342v.171h-1.368l-.171.342c-.318.2-.425,0-1.026,0v.342h.684v.171h-.171v.171h-.855v-.171l-.855.171v-.171c-.335-.324-.35-.863-.342-1.54l.855-1.2,1.2-.171v-.171h.342l.171-.342h.342l.171-.342h.342v-.171l2.224-.513.342-.513,2.908-.855v-.342l.513-.171v.171h.855v-.171h.342v-.171h.513l.171-.342h.855v-.171h.513v-.171h.684V-67.7a.285.285,0,0,1,.342.171l.684-.171v-.342a1,1,0,0,0,1.2-.171c.195-.195.068,0,.171-.342h.342l.171-.855.342-.171v-.855c.156-.29,1.037-.672,1.369-.855v-.171c.289-.1.3.162.342.171a1.212,1.212,0,0,0,.855-.171Zm97.666,2.052v.342c.424.122.279.085.513.342h.171v.342l.342.171v.684l.342.171v.513l.342.171c.342.748-.228.871.513,1.368a2.4,2.4,0,0,1-.342.342.248.248,0,0,0,.171.342l-.171.513.513.171c-.237.715.137.364,0,1.027h-.171v.855h.171v.513h.171l-.171.855.342.171v.684c.073.231.12-.066.171.171-.083.227-.132-.068-.171.171h.171v1.2l.342.171c.1.222-.129-.027-.171.171v.171h.171l.171,2.394.342.171v2.224h.171v.684h.171V-49.4h.171l.171,3.934h.171c.032.24-.121-.066-.171.171v1.026h.171l-.171.513h.171v.342h.171l-.171,1.539h.171l.171,1.882c-.47.271-.307.423-1.026.513-.2-.2,0-.068-.342-.171v.171c.195.195.068,0,.171.342a1.983,1.983,0,0,1-1.539-1.026h-.171v-.513h-.171l-.171-2.394h-.171v-.855h-.171c-.036-.21.27-.289.171-.684h-.171c-.313-1.124.2-2.66,0-3.421h-.171v-2.052h-.171l.171-.342h-.171c-.141-.252-.092-.3-.171-.684h-.171c-.059-.31.478-.295.342-.855h-.171v-.513h-.171v-1.368h-.171v-.342h-.171v-.684h-.171c-.124-.42.179-.642.171-.855h-.171v-1.027h-.171v-.855h-.171l.171-1.368-.342-.171v-1.027h-.171v-.684h-.171v-.855c-.256-.816-.372-2.113-.684-2.908-.308.161-.269.237-.684.342v.342h-.342c-.168.635-.554.57-.855,1.026l-.342-.171s-.031.368-.171.171v-.342h-.171l.171-.855h.171v-.342h.171v-.342h.171v-.513l.342-.171v-.513l.342-.171v-.855h.171v-.855h.171c.26-.753-.18-.961.684-1.2C-305.25-69.433-304.519-69.162-304.09-69.071Zm79.194,2.053v.342h.684v.342a.8.8,0,0,1,.684.513c.187.153.036-.03.171.171h-.171c-.167.283.246.144.342.171v.342h-.171c-.078.229.077.008.171.171-.045.377-.215.13,0,.513h.171l.171.855h.171l-.171.513h.342l-.171,1.026.342.171-.171,1.369.342.171v.171h-.171l.171.855h-.342a1.88,1.88,0,0,0,.171.855h.171l-.171.342h.171V-58.3c.147-.323.171.342.171.342h-.342v.342h.342l.171.513-.342.171-.171.855c.987-.041,1.361-.448,2.394-.513l-.171,1.369-1.2.855-.171.513h-.513c-.056.032-.163.247-.342.342a21.636,21.636,0,0,1,.342,2.565l-.513.171a1.825,1.825,0,0,0,.342.342v1.368h-.171l.171,1.368h-.342c-.041.58-.143.789-.513,1.027a2.967,2.967,0,0,1-1.71.513l-1.71-1.539-.171-.684h-.171v-.684l-.513-.171V-49.4c-.346-.3-.537-.318-.684-.855h-.684l-.171.513-1.2.171-.171.342h-.342v.171h-.684v.171h-.342v.171l-1.882.171v.855h-.342c-.2.861-.79.9-1.882.855-.179-.223-.349-.255-.513-.513-1.013-.986-.1-3.123-.513-4.789h-.171l.342-2.908h.171l-.171-1.026h.171l.342-1.026h.171v-1.027h.171c.037-.126.171-1.539.171-1.539h-.171v-.855h.171v-1.54h.171v-.513h.171v-.513l.342-.171-.171-.684.513-.342.342-2.053h.342v-.684a2.288,2.288,0,0,0,.684-.513h1.882V-67.7h.171v.171h.513v.171h.855v.171l2.223-.342v.171h.855v.171l.513-.171v.171A3.055,3.055,0,0,0-224.9-67.019Zm113.231,2.566c.541-.019.321-.335.513.171l.855.171v.342h.342v.342l.342.171-.171.513h.171v.684h.342l.171.684.513.342a1.783,1.783,0,0,0-.171.855h.171v1.54s.216,0,.171.342h-.171v.171l.171.171h-.171v.513h-.171a1.349,1.349,0,0,0,.171.855h-.342c-.2.2,0,.068-.342.171-.079.682-.289.608-.342,1.368h-.342l-.342.513h-.171v.513c-.171.262-1.04.151-.513.684h-.342c-.252.817-.135.2-.684.513l-.171.342h-.342v.171h-.342l-.342.513h-.513l-.171.342h-.342v.171h-.342c-.084.054-.157.235-.342.342v.171l-.513-.171-.342.513-2.737.342v-.171h-.513v-.171h-.342V-50.6l-1.2-.171-.171-.342-1.027-.855-.171-.513h-.342l-.342-1.539h-.171v-1.2h.171v-.171h-.171c-.051-.237.107.062.171-.171l-.171-.342.342-.171c.222-.4.043-.414,0-.684h.171l.171-.684h.171v-.513h.171l.171-.684h.171v-1.2h.171v-.171c-.041-.1-.248-.016-.171-.342h.171v-.342l.684-.171a1.29,1.29,0,0,1,1.027-1.027l.171-.855-.684-.171.342-1.539c.389-.047.444-.023.684-.171v-.171h.513l.171-.342,1.368-.171v-.171h1.2l.513-.171v.171h2.224v.171h.684C-112.012-64.795-111.866-65.147-111.666-64.453Zm-117.507.342v-.171l1.027-.171v-.171a.29.29,0,0,1,.342.171c.4.053.443-.091.684-.171l.171.513a2.159,2.159,0,0,1,.855.171l.513,1.539v.171h-.171v1.368a9.27,9.27,0,0,0-1.2.513h-.855v.171l-1.539.171v.171l-1.54.171a.3.3,0,0,0-.342-.171.417.417,0,0,1-.342.171l-.171-.171c-.065.036-.135.248-.342.342v-.171h-.171v-.171c.246-.178.1-.15.171-.513h.171l-.171-.513h.342l-.171-.513h-.171c.07-.671.254-.75.855-.855v-.684l.342-.171v-.342h.513v-.342C-229.6-63.8-229.614-63.8-229.173-64.11Zm-249.553.684v.342c.55.138.608.437,1.026.684v.342c-.294.193-.232.109-.342.513h-1.539c-.161.308-.237.269-.342.684h-.342v.855a2.681,2.681,0,0,0,1.026.171c.349-.374.354-.145.855-.342v-.171h.684v-.171h.342l.342-.513,1.882-.513.171-.342.342.171.171-.342,1.539-.342v-.171l.855-.171v-.171h.342v-.171l1.026-.171v-.171l1.539-.513v.171l.684.171a6.817,6.817,0,0,1,.171,1.369l-1.2.855-.171.342H-470l-.171.342h-.342a3.629,3.629,0,0,1-.342.342v.171h-.513a8.453,8.453,0,0,1-1.71.684l-.171.513-2.224.684-.171.342h-.342v.171h-.513l-.171.342h-.513v.171h-.684v.171h-.342v.171l-.855.171-.171.342h-.342l-.171.342-.513.171v.171a1.419,1.419,0,0,1-.684.342c.017.4.128.433.171.684l-.342.171v.513h-.171v.342h-.171v1.368h-.171v.342h-.171v1.539l-.513.342.171,2.052h-.171l.171,1.2h-.171v.855h-.171a.275.275,0,0,0,.171.342v.171h-.171c-.15.606-.007,1.284-.171,1.71h.342c.522.459,1.777-.048,2.565.171v.171h1.882v-.171l.342.171c.238-.022.418-.263.855-.171,0,0,0,.212.342.171v-.171h.171a.285.285,0,0,0,.342.171v-.171l3.079-.171v-.171h1.71V-44.1a3.008,3.008,0,0,1,2.224.342h-.171v.513h-.171a4.419,4.419,0,0,1-1.539,1.026h-.513v.171h-.342v.171h-.513l-.171.342h-.513v.171l-1.71.171-.171.342H-476.5v.171h-.513v.171c-.109.019-.457-.278-.855-.171v.171H-478.9v.171h-1.027v-.171h-.855v.171c-1.034.294-1.422-.257-2.053.513H-483l-.342,2.053h.171v.171h-.171v1.026h-.171v1.2h-.171v1.2h-.171V-32.3h-.171v.855h-.171v2.224h-.171v.684h-.171v2.224l-.171,1.71h-.171c-.06.319.353.821.171,1.368-.326.983-1.018,1.378-2.394,1.369a2.762,2.762,0,0,0-.684-1.027l-.171-2.053h.171v-2.053h.171v-.684h-.171a.466.466,0,0,1,.171-.513l-.171-.684h.171v-1.54h.171v-.342h.171v-1.882h.171v-.342h.171a.267.267,0,0,0-.171-.342c-.054-.349.279-.627.171-1.2h-.171v-.342l.342-.171-.171-1.2h.171v-.513l.342-.171c.1-.219-.132,0-.171-.171l.171-.513h.171l.171-1.369c-.472.124-.383.048-.513.513a8.889,8.889,0,0,1-1.2.342v.342h-.855a3.286,3.286,0,0,1-.171-1.2c.41-.369.138-.567.342-.855h.171c.2-.195,0-.068.342-.171l.171-.855c1.1-.239.57-.38,1.026-1.026l.342-.342h.342c.137-.109.129-.341.342-.513a14.96,14.96,0,0,1,0-3.591h.171v-1.027l.342-.171c.085-.226-.114.061-.171-.171l.171-.513c-.055-.109-.248-.011-.171-.342h.171c.119-.471-.172-.87-.171-1.027h.171v-1.539c.065-.233.148.07.171-.171l-.171-.171h.171V-51.8l.342-.171s-.3-.913-.171-1.2a1.785,1.785,0,0,0,.342-.342h-.171c-.088.115-.11.387-.342.342-.024,0-.062-.278-.342-.171v.171h-.342l-.171.342h-.684l-.342.513h-.342v.171h-.342v.171h-.684l-.342.513h-.513v.171h-.342v.171l-1.882.684v.342a3.524,3.524,0,0,0-1.71.513h-.342l-.171.342h-.513l-1.369.513c.2.195,0,.068.342.171v.171l.513-.171v.342h-.342c-.49.9-1.1,1.066-2.566,1.026v.171c-.457.237-.849-.226-1.026-.342v-.171h-.513c-.059-.548-.225-1.288.171-1.71v-.342h.171l.171-.342h.342v-.171c.349-.3.536-.321.684-.855l.684-.171v-.342c.887-.072,1.177-.6,1.882-.855v.171h.171l.684-.855,1.026-.171v-.171h.342l.171-.342h.171v.171c.257.064.228-.283.342-.342l1.027-.171.342-.513,1.2-.171c.1-.409.054-.318.342-.513v-.171c.419-.242.9.12,1.368-.342.195-.2.068,0,.171-.342l.855-.171v-.171h.342l.171-.342h.855v-.171l.684-.171v-.171l.342.171v-.171l.855-.171v-1.368l-.342-.171v-.342l.342.171v-1.027h.171v-.171h-.171v-1.027h-.171v-1.368h.171c.08-.335-.1-.226-.171-.342l.171-.513h.171v-.342c.137-.161.347-.132.513-.342.336.055.342.171.342.171h1.71v.171h.342v.171Zm364.5.855h.171l-.171.342,1.368.171c.124.494.183.568.684.684.124.494.183.567.684.684l.171.855h.171c.013.242-.135-.068-.171.171a6.353,6.353,0,0,1-.513,2.566l-.342.171v.342l-.513.342v.342h-.171v.342h-.171l-.171.513-.513.171v.171h-.684l-.342.513h-.342v.171h-.684l-.342.513h-.342v.171h-.684v.171l-2.053-.171-.171-1.711h.171v-.684h-.171V-55.9h.171v-.855l.513-.342v-1.027h.171a1.545,1.545,0,0,0,.342-.684l.684-.171.171-.513h.171v-.513l.342.171.171-.684.513-.342c.594-.623.481-1.094,1.71-1.2Zm-275.381,2.908v1.027c-.194.144-.025-.022-.171.171l-.855.171v.171l-1.54.171v.171h-.513v.171l-1.369.171v.171h-.342v.171l-1.027.171v.171l-.513-.171-.171.342h-.342l-.171.342-1.026.171a3.18,3.18,0,0,0-1.882,1.882l-.513-.171v-.171h-.171v.342h-.684a1.391,1.391,0,0,0-.342-.855h-.171c-.163-.371.179-.476.171-.684h-.171v-.855l.513-.171v-.171h-.171c-.323-.147.342-.171.342-.171.251-.909.558-.631,1.2-1.027l.171-.342h.513v-.171h.342v-.171h.513v-.171h.342v-.171h.684v-.171h.513v-.171h.684v-.171h.513v-.171h.684v-.171h.342l.171-.342c.619-.276,1.233.087,1.71,0v-.171h.342v.171h1.539v.171C-390.133-59.946-390.077-59.791-389.612-59.664Zm156.334,6.5h.171v-.684l-.342-.171.171-.171v-1.368h.171c.243-.872.4-.344,1.026-.684l.171-.342a2.273,2.273,0,0,1,1.2-.171v.171l.684-.342V-57.1a3.207,3.207,0,0,1,1.368.171V-57.1h.855v-.171h.342v-.171l.342.171v-.171h.342v-.171h.855v-.171h.171l.171.513h.171v.342h.171a.443.443,0,0,1-.171.513v.513h.171v.342h-.171c0,1.147-.3,1.142-1.026,1.539v.171h-.513l-.342.513-1.71.342v.342l-2.565.171-.171.342-1.368.171Zm-114.086.171c.343.36.593-.375,1.368-.171v.171c.156.006.6-.311,1.026-.171v.171a3.249,3.249,0,0,0,1.71,0v.171h.171c-.367.715.08.5,0,1.027a.488.488,0,0,0-.171.513h.171l-.171.513h.171v.684h.171v1.71h.171l-.171,1.026h-.171v.171h.171l.171.513-.342.171.171.855h-.171a1.781,1.781,0,0,0-.171.855A6.115,6.115,0,0,1-346-45.98l-.171-.342-.855-.171-.513-.855h-.513l-1.2-1.368V-49.4l-.855-.684-.342-1.027a1.571,1.571,0,0,0,.684-.855c1.115-.213,1.4-.49,2.395-.684Zm-46.866.684.171.684c.773.363.979.915,2.053,1.026v.342c.679.17.62.457,1.539.513v.342h.513v.342a1.171,1.171,0,0,1,.855.342v.171l.513.171.171.342h.342v.171l1.539.513.171.342h.342v.171l.342.171v.684a.8.8,0,0,0-.513.684c-1.294.264-1.632.49-2.908,0h-.513v-.171h-.342v-.171h-.342l-.342-.513h-.684v-.171h-.342l-.171-.342h-.342l-.171-.342h-.342l-.171-.342h-.513l-.171-.342h-.342l-.342-.513h-.342l-.171-.342a3.43,3.43,0,0,0-1.2-.513,2.617,2.617,0,0,0-.684-1.026h-.171c-.4-.64-.045-1.676.171-2.224l1.71-.171v.171Zm168.649.342h.171v.171h-.171c-.068.283.165.309.171.342a3.014,3.014,0,0,1-.171,1.54v.171h.171c-.1.342.024.148-.171.342v.171a2,2,0,0,1-1.2-1.026h-.171c-.03-.276.274-.207.342-.342l.171-.684A1.153,1.153,0,0,0-225.581-51.966Zm-261.7,3.25h.342a8.892,8.892,0,0,1,.342,1.2l-.684.342.171.513h-.171v.513h.171v.684a.468.468,0,0,0-.171.513h.171v.684c-1.475.067-.867.73-1.882,1.027v.342h-.342l-.171.684h-.171v.513l-.513.342v.513l-.342.171v.342l-.342.171-.171.855-.513.342-.171.855-.342.171v.342h-.171v.513l-.684.513v.513l-.342.171-.171.855h-.171l-.171.513-.342.171v.513h-.171v.342l-.342.171v.342l-.342.171-.171.684-.513.342L-496-30.757l-.342.171a3.92,3.92,0,0,0-.513,1.368h-.342a14.727,14.727,0,0,0-1.2,2.223h-.342c-.037.387-.02.452-.171.684h-.171v.342h-.171v.513l-.342.171v.513l-.513.342-.171.513h-.171v.513l-.513.342v.513h-.171c-.248.314-.207.392-.684.513v.171h-.513c-.563-.663-.691-.177-.684-1.54h.171l.171-1.026.342-.171v-.855h.342l-.171-.513.342-.171.171-.513h.171l.171-.684.342-.171v-.684h.171V-28.7h.171v-.342h.171v-.342l.684-.513.342-1.026.513-.342v-.513h.171v-.342l.342-.171.342-1.027.513-.342v-.684l.342-.171v-.513h.171a2.73,2.73,0,0,0,.513-1.2c1.07-.319.415-.65.855-1.368l.342-.171v-.342l.513-.342V-38.8h.171v-.342l.342-.171v-.342h.171l-.171-.684.342-.171v-.342l.342-.171v-.342h.171V-41.7h.171l.171-.513.342-.171c.3-.584-.076-1.221,0-1.539h.171l.342-1.026c.308-.162.269-.237.684-.342v-.513h.342v-.342a1.037,1.037,0,0,0,.855-.513h.171l-.171-.513h.171a1.159,1.159,0,0,0,.171-.684h.342v-.684c.568-.162.963-.776,1.882-.513v.171l.513-.171Zm239.633,1.882v.171h-.171v.171h-.171v-.513Z" transform="translate(505.409 97.293)"/></svg>