<svg xmlns="http://www.w3.org/2000/svg" xmlns:xlink="http://www.w3.org/1999/xlink" width="428.284" height="93.269" viewBox="0 0 428.284 93.269"><defs><style>.a{fill:url(#a);}</style><linearGradient id="a" x1="0.5" x2="0.5" y2="1" gradientUnits="objectBoundingBox"><stop offset="0" stop-color="#ff5100"/><stop offset="1" stop-color="#ce0e2d"/></linearGradient></defs><g transform="translate(-487.392 -350.982)"><path class="a" d="M-173.608,15.24l3.1-12.93h8.163l13.168-57.021h-8.163l2.92-12.93h43.079q11.321,0,17.666,6.584a22.055,22.055,0,0,1,6.346,15.879,23.748,23.748,0,0,1-4.916,14.6q-4.916,6.554-14.091,7.746l7.09,25.144h8.282l-3.039,12.93h-21.152l-9.116-36.822h-11.619L-141.374,2.31h7.925l-3.158,12.93Zm40.159-47.488h8.937q15.73,0,15.73-13.049a8.992,8.992,0,0,0-2.681-6.912,10.143,10.143,0,0,0-7.21-2.5h-9.533ZM-42.764-1.98l13.049,5.9q-8.7,13.049-25.978,13.049-12.036,0-19.186-6.822t-7.15-18.2a36.417,36.417,0,0,1,9.593-25.234A30.667,30.667,0,0,1-48.722-43.926q10.963,0,18.292,6.941T-23.1-18.246a43.092,43.092,0,0,1-.834,8.222H-64.929a21,21,0,0,0-.357,3.754q0,5.482,2.949,8.61a10.189,10.189,0,0,0,7.776,3.128Q-47.113,5.468-42.764-1.98Zm-20.02-17.458h22.82a14.628,14.628,0,0,0,.238-2.622A10.23,10.23,0,0,0-42.5-29.537a9.172,9.172,0,0,0-6.822-2.83Q-58.494-32.367-62.784-19.437ZM26.174-5.852,38.865.344Q28.855,16.968,11.159,16.968q-11.976,0-19.216-7.031T-15.3-8.653a33.506,33.506,0,0,1,9.921-24.31A32.068,32.068,0,0,1,18.369-43.092a23.38,23.38,0,0,1,13.883,4.409l.894-3.813h12.93l-5,21.629H28.14q-.655-8.282-9.533-8.282-6.554,0-11.082,5.988T3-8.3A11.526,11.526,0,0,0,5.767-.311a9.118,9.118,0,0,0,7.12,3.1Q20.871,2.787,26.174-5.852ZM43.334,15.24l2.8-12.334h6.971l7.686-33.069H52.987l2.8-12.334H79.2L75.33-25.753l.238.238Q84.8-38.981,88.349-41.007a14.741,14.741,0,0,1,7.418-2.026,29.067,29.067,0,0,1,5.184.536L97.436-27.124a26.364,26.364,0,0,0-5.362-.6q-14.3,0-18.471,18.292L70.8,2.906h9.057L77,15.24ZM165.48,2.906,162.56,15.24h-25.5l1.847-7.567q-12.1,8.163-20.854,8.163a11.88,11.88,0,0,1-8.58-3.545,11.184,11.184,0,0,1-3.635-8.252,49.4,49.4,0,0,1,1.43-10.546l5.541-23.655H105l2.92-12.334h25.5l-8.7,37.24a11.812,11.812,0,0,0-.357,2.741q0,4.469,3.694,4.469a15.884,15.884,0,0,0,6.2-1.907,34.637,34.637,0,0,0,7.448-4.826l5.839-25.382H139.74L142.66-42.5h25.5l-10.487,45.4Zm37.835-52.731a9.25,9.25,0,0,1-6.822-2.86,9.4,9.4,0,0,1-2.83-6.852,9.27,9.27,0,0,1,2.83-6.852,9.348,9.348,0,0,1,6.822-2.8,9.467,9.467,0,0,1,6.912,2.83,9.25,9.25,0,0,1,2.86,6.822,9.3,9.3,0,0,1-2.89,6.852A9.446,9.446,0,0,1,203.315-49.825ZM180.495,2.906l7.686-33.069h-7.805l2.8-12.334h25.5l-10.487,45.4H206L203.2,15.24H171.379l2.8-12.334Zm69.057-2.8-3.158,13.287a34.956,34.956,0,0,1-14.9,3.575,12.582,12.582,0,0,1-9.027-3.247,11.162,11.162,0,0,1-3.426-8.491,34.057,34.057,0,0,1,1.013-8.044l6.316-27.349h-6.792l2.8-12.334h6.792l1.966-8.4,21.092-14.657L246.871-42.5h7.805l-2.8,12.334H244.07l-6.2,26.753A15.026,15.026,0,0,0,237.4-.132q0,3.039,3.635,3.039Q244.487,2.906,249.552.106Z" transform="translate(661 427.284)"/><path class="a" d="M-36.8,4.189l.851-3.62h2.236L-24.936-15.4h-2.252l.817-3.62h13.43l-.817,3.62h-1.985L-15.059.569h2.386l-.851,3.62H-23.2l.868-3.62h2.152v-3.9h-7.04l-1.952,3.9h2.152l-.851,3.62ZM-20.331-6.639-20.6-15.6h-.234l-4.655,8.959Zm6.573,10.827.817-3.62H-10L-6.317-15.4H-9.6l.834-3.62H2.942L2.124-15.4H-.412L-4.1.569H-.745L-1.6,4.189Zm24.107.167h-4.6L4.51-15.4H2.224l.817-3.62h9.543l-.834,3.62H9.665L10.316-3.9,16.706-15.4H14.387l.817-3.62h8.375l-.851,3.62H20.643L21.327-3.9,27.717-15.4H25.4l.817-3.62h9.076l-.817,3.62H32.354L21.36,4.356H16.706l-.6-10.31ZM28.4,4.189l.851-3.62h2.236L40.262-15.4H38.01l.817-3.62h13.43L51.44-15.4H49.455L50.139.569h2.386l-.851,3.62H42l.868-3.62h2.152v-3.9h-7.04L36.025.569h2.152l-.851,3.62ZM44.867-6.639,44.6-15.6h-.234L39.712-6.639Z" transform="translate(691.135 370)"/></g></svg>