<svg xmlns="http://www.w3.org/2000/svg" width="411.223" height="113.795" viewBox="0 0 411.223 113.795"><defs><style>.a{fill:#1a1311;fill-rule:evenodd;opacity:0.2;}</style></defs><path class="a" d="M165.1,98.651a1.42,1.42,0,0,1-.354.709h-.177l-.177.532c.059.065.3-.039.177.177l-.709.532-.354,1.6h-.354c-.161.777-.6.95-.709,1.772h-.354v.177h-.177v.531l-.354.177v.532l-.354.177-.177.709-.354.177v.354l-.354.177-.177.532h-.354a6.4,6.4,0,0,1-.355,1.24h-.354l.177.177c.039.247-.126-.068-.177.177V110l-.532.354-.177.354-.354.177v.354l-.354.177v.886l-.709.532-.354,1.6c.391-.067.335-.171.354-.177h.887v-.177h.354l.177-.355h.355v-.177c.261-.176.439-.143.886-.177v-.354a1.258,1.258,0,0,0,.886-.532h.177v-.355l.354.177.177-.354h.709v-.177c.2-.2.071,0,.177-.354l.532.177.177-.355,1.063-.177V110.7l.532-.177v-.177h.355v-.177h1.063l.177-.354,1.418-.177v-.177l.709-.177v-.177h1.064v-.177h.709v-.177h.886v-.177h.355V108.4l.354.177V108.4l.886-.177v.177c.309.048.291-.161.354-.177h1.419v.177a4.4,4.4,0,0,1,1.063.532l.177,1.95H175.2v.354h-.177c-.065.242.119-.066.177.177l-.177.709a.341.341,0,0,1,.177.355h-.177l.354,1.064H175.2l-.177.886c.2.149.026-.023.177.177h.177a1.874,1.874,0,0,1,.532-1.418l.354-.177.355-1.064.354-.177v-.532l.532-.354-.177-.354.354-.177a1.877,1.877,0,0,0,.355-1.24h.354a5.008,5.008,0,0,1,1.241-1.95l.354-.177v-.354l1.95-1.773h.709V104.5c1.162-.149,2.354-.32,2.659.886h.177c.376.574-.215,1.186,0,1.95h.177v.354c-.434.276-.108.2-.354.532l-.709.532v.355c-.3.5-.625.621-.709,1.418h-.354v.354c-1.109.015-1.137.488-1.95.709v.354h-.355v.354h-.354l-.177.886-1.063-.177v.177h-.709c-.044.4-.024.462-.177.709h-.177v.532l-.532.354-.177.709-.709.532v.354h-.177v.532H176.8v.532h-.177v.354h-.177l-.177,1.064-.354.177v.532h-.177l.177.532h-.177v.532h-.177v.355h-.177l.177.886,2.127.177v-.177l2.3.177v-.177l2.482.177v.177H184.6v.177c.31.064.3-.162.355-.177h2.482a4.554,4.554,0,0,0,1.772.354,2.366,2.366,0,0,0,.886.887,5.485,5.485,0,0,0-.177,1.772,1.755,1.755,0,0,0-.709.354v.177l-.532-.177v.177c-.386.046-.354-.177-.354-.177h-2.659v-.177c-.432-.119-.677.2-.886.177v-.177l-.886.177v-.177h-.709v-.177h-.532v-.177h-7.267l-.177.709h-.177a.44.44,0,0,0,.177.532,3.474,3.474,0,0,1-.177,1.6l.177,2.3h-.177v.532h-.177v.886h-.177v.886H174.5l.177.532H174.5v.532h-.177v.886l-.354.177v.177h.177v.177h-.177v1.064h-.177v1.064h-.177l-.177.886h-.177a2.1,2.1,0,0,0-.532.886l-.709.177-.177.354-2.3-.354.177-.532h-.177v-.354h-.177l-.177-.532c-.531-.137-.466-.109-.532-.709.2-.2.07,0,.177-.354H170.6c.1-.205.313-.283.354-.354v-.355h.177c-.023-.207-.343-.479-.177-.886l.354-.177-.177-.532h.177v-1.064h.177v-.177c0-.024-.266-.065-.177-.354h.177v-.354h.177l.177-1.064c-.356-.1-.153.021-.354-.177.972-.647.477-3.017.709-4.254h.177v-.177h-.177c-.046-.349.177-.354.177-.354l-.177-1.773h-.177v-1.24s-.214.024-.177-.354a2.3,2.3,0,0,0,.177-1.241h-.177v-.709h.177V120.1h.177l-.177-1.772-.532-.177c.13-.535.281-.377.354-.532v-.532h.177v-.177h-.177v-1.064h.177l-.177-.532c.127-.179.241.065.177-.177h-.177l-.177-.886-.355-.177a.266.266,0,0,1,.177-.355l-.177-.709.355-.177v-.354h.354a3.635,3.635,0,0,1-.354-.886l-.709.177v.177l-1.064.177-.177-.177v.177h-.355v.177l-.354-.177-.177.355h-.354v.177c-.326.219-.381.159-.709,0v.355h-.177v-.177l-1.064.177v.177h-.886v.177h-.354l-.177.354h-.354l-.177.355h-.354v.177h-.355v.177h-.532l-.177.354h-.532v.177h-.532v.177h-.354l-.177.355c-.458.328-.324-.192-.532.532l-.532.177v.177h-.354v.177h-.532v.177l-.886.177-.177.354-.709.177-.177.354-.709.177v.177l-.532-.177v.532c-.363.094-.643.174-.709.531l.177.177c-.068.108-.278.018-.177.354h.177v.355l.354.177v.355l.532.354.177.709.355.177v.532a3.751,3.751,0,0,1,.532,1.6,3.376,3.376,0,0,0,1.418-.532c.2-.2.07,0,.177-.354a4.776,4.776,0,0,0,1.6-.887l.354-.532.887-.177.177.177c.988-.452,3.044-1.062,4.431-.531v-.355c.684.179.557.519,1.241.709v.532h-.354L167.583,124h-.177l-.177.532c-.883-.083-1-.524-1.773-.709l-.532.709-.532-.177v.177l-.532.355v.354c-.226.265-.467.149-.709,0l-.177.532h-.354l-.709.886-.532.177v.354h-.532l-.531.709h-.355v.177a1.863,1.863,0,0,1-.886.532l-.177.709h-.177l.177,2.3h-.177v1.95h.177l-.177.532h.177l.355,2.836.886.177v-.354l1.24-.177.177-.354h.532l.354-.532c.634-.333.743.239,1.241-.532.2-.2.07,0,.177-.354h.355v-.355h.532V134.1l.354.177.177-.355.531-.177.355-.532.354-.177-.177-.354h.177l.709-.886h.354v-.355h.354v-.532l.354.177-.177-.532c.04-.07.254-.146.354-.354l.532.177v-.355a1.435,1.435,0,0,1,.886,1.241h-.177c-.133.243.177,1.064.177,1.064l-.532.354v.709l-.709.532-.177.532-.532.177v.354l-.354.177v.354l-.709.532v.354l-.709.532v.177h-.532v.354H165.1c-.167.319-.246.279-.354.709h-.355v.354a2.809,2.809,0,0,0-1.418.532l-.177.354h-.709v.177h-.177v-.177h-.177v.177h-.355l.177.354h-.886l-.177.354-.709.177c-.119.5-.324.459-.355.532v1.241h.177a5.028,5.028,0,0,1-.177,2.127h-.354v.355l-1.064.354-.177-.177-.177.354-.532-.177-.177-.532-.532-.177.177-.709-.354-.177.177-.532h-.177v-.709h.354l-.177-1.064-1.595.177v-.354l-.355-.177v-1.418l.532-.177c.128-.49.05-.4.532-.532v-.355l.355.177v-.177h-.177c-.327-.168.354-.177.354-.177l-.177-2.482-.355-.177c-.071-.241.119.066.177-.177.107-.45-.155-.643-.177-.887a5.627,5.627,0,0,0,.177-1.95,2.785,2.785,0,0,0-1.064-.177c-.292.5-.714.6-.886,1.24h-.532c-.3.45-.94.652-1.241,1.064v.354l-.354.355h-.354l-.354.531h-.355v.177c-.263.243-.232.091-.354.532l-.532.177v.177h-.532v.177c-.2.2-.07,0-.177.354h-.354v.709c-.833.156-1.1.583-1.24,1.418h-.355l.177.354c-.136.223-1,.208-1.24.532v.354l-.355.177-.177.709-.355.177v.355l-.354.177a2.858,2.858,0,0,0-.886,1.418h-.354v.355h-.355v.354l-.354-.177-.354.532a1.211,1.211,0,0,1-1.064,0c-.49-.128-.4-.05-.532-.532a.964.964,0,0,1-.709-.354,2.141,2.141,0,0,0,.532-.709h-.177v-.177h.177c.308-.589.526-1.07,1.241-1.241.19-.911.837-1.139,1.064-1.95l.709-.177.177-.532.354-.177a4.9,4.9,0,0,0,1.241-1.95h.354v-.354h.354l.532-.887h.354l.177-.531c.684-.179.557-.519,1.241-.709.33-1.064,1.6-.687,1.772-1.95.732-.082.78-.389,1.24-.709V131.8c.128-.068.075.188.532,0l.177-.532h.354c.2-.125.154-.775.532-.709.247.043-.072.146.177.177v-.354h.354c.35-.532.5-.167.709-.887h.354l.177-.709H155v-.709h-.177l.177-.354c.047-.5-.176-.708-.177-.886H155v-.177h-.177l.177-.886-.354-.177c-.128-.341.261-.972,0-1.6h-.177v-.354l-.532-.354v-.354h-.177v-.355h-.177v-.886H153.4a1.706,1.706,0,0,1-.177-.886l-.354.177v-.177a2.128,2.128,0,0,0-.887-.177,1.753,1.753,0,0,0-.354-.709h-.177l.177-.355h-.177c-.074-.539.272-.349.355-.532v-.709l.532-.354v-1.064l.354-.177a2.748,2.748,0,0,0,.709-1.6l.531.177v-.177h-.177l.177-1.063h.177v-.532l.354-.177-.177-.532.354-.177v-.532h.177v-1.063H155c.292-.442.29-.335.355-1.064h.354v-.709c.721-.2.354-.361.886-.709v-.532h.354c.142-.686.485-.77.709-1.241v-.532l.354-.177v-.532l.532-.355v-.354h.177a.277.277,0,0,0-.177-.354l.177-.886c.306.154.06.02.177.354h.177v-.354c.355-.308.148-.4.354-.709l.532-.354.177-1.064h.177v-.354h.177l-.177-.532h.354l.532-.886.532-.177c.179-.324-.208-1.019-.177-1.064h.354V98.3h-.177c.04-.177.44-.594,0-.709V97.41h.354v-.532h.532v-.354c.154-.262,1.1-.164.532-.709h.532v-.177H165.1v.177h.177v.532l.354-.177.177.532.532.354.177,1.064c.146.2.177-.177.177-.177.289-.18.153.261.177.354H166.7C166.189,98.935,166.017,98.712,165.1,98.651Zm165.552,13.826h-.532v.886a1.55,1.55,0,0,1-1.241.354,1.875,1.875,0,0,1-.177-.709h.177l.177-1.241.354-.177-.177-1.064a.326.326,0,0,0,.177-.355.3.3,0,0,1-.177-.354h.177l.177-1.064h.177l-.177-.886h.177l-.177-.532v-.709h.177c.036-.248-.126.068-.177-.177-.106-.509.151-.817.177-1.064h-.177l-.177-.709h-.177l.177-.709h-.177a1.493,1.493,0,0,1-.177-.709l-.532-.177v.177h.177v.709a27.439,27.439,0,0,0-4.254-.177,5.569,5.569,0,0,0-.177-1.772v-.177h-.886v-.709c.546-.2.71-.083.886-.709a3.236,3.236,0,0,1,1.6-.177v.177h1.24v-.177h.532v-.177c.3-.055.3.164.355.177h.886v.177c.672.261,1.235.331,1.6.886h.177c.121.22-.145.041-.177.177l.177.886.355.177v.532l.354.177-.177,1.064h.177l.177,1.773h.177v.177h-.177v2.659h-.177l-.177.709h-.177l.177.355h-.177v.354h-.177Zm-49.63-1.418.354,1.24.532.354v.355l.532.354c.181.4-.179.69-.177.886h.177v.177h-.177l.177.354h-.177c-.223.339-.18.294-.709.354v-.354h-.177L281.2,116.2s.188-.008.177.354H281.2v.177h.177v3.013h.177a6.9,6.9,0,0,1-.177,3.013h.709c.287-.429.16-.108.532-.354l.177-.355h.886v-.177l.709-.177v-.177h.532v-.177h.886l.177-.354.531.177v-.177h.355l.177-.355h.532v-.177l.709-.177V120.1a5.782,5.782,0,0,1,2.127,0,1.409,1.409,0,0,0,.354.887h.177v1.24l-.709.177v.709l-1.064.355-.177.354h-.886V124c-.546.094-.608-.536-1.24-.354v.177h-.355V124l-1.595.355-.355.532-.531.177v.177l-.532-.177v.177h-.532v.177h-.709l-.177.354-.354-.177v.177h-.177a6.9,6.9,0,0,0-.177,2.127c.546.644-.09,2.248.177,3.19.425,1.5.177,3.288.177,5.317v2.3l.354.177v.177h-.177v1.95h.177l.177.709,1.064-.177.177-.532c1.279-.068,1.278-.91,2.482-1.064V139.6a1.57,1.57,0,0,0,.886-.177v-.177h.532l.177-.355,1.241-.354.177-.354h.355l.177-.354h.355l.177-.355h.355l.177-.354h.532l.177-.354h.354v-.177l.709-.177v-.177h.709l.177-.355c.251-.006-.034.043.177.177h.177v-.177l.532.177c.068-.628.22-.538.354-1.064l1.241.355-.177.531h-.532l-.532.887h-.354l-.177.354h-.177v.532h-.177a1.514,1.514,0,0,0-.354.709c-1.1.109-1.148.83-2.127,1.064l-.177.709a2.1,2.1,0,0,0-1.241.532l-.177.354-1.063.177-.355.532h-.354l-.177.354h-.354l-.532.709h-.177v.355l-.354-.177-.532.177-.354.709-1.418.177-.177.354h-.354l-.354.355v.354l-.532.354v2.127h.177v.354h.177l.177,3.9v1.418h.177v1.241h.177v1.064h.177v.532h.177v.354h.177v1.24h.177l.177,1.064h.177c.017.231-.318.3-.177.709h.177v.354l.354.177v1.6h.177l.177,1.063.355.177v1.064h.177c.2.2,0,.07.355.177.047.96.38.99.709,1.6v.355h.177v.354l.354.177.177.709.709.532v.354h.177v.177c.4.337.308-.186.532.532h.709l.177.532c.518.12.432.311.532.354H291.3v.177h.532v.177h1.24v-.177l.532.177v-.354c.963-.245.972-.978,2.127-1.064.2-.731.535-.682,1.064-1.064l.532-.709.532-.177v-.532l.531-.177a1.725,1.725,0,0,0,.355-.887h.354c.116-1.091.262-.782.886-1.24l.532-.709.354-.177c.229-.354.021-.8.177-1.241h.177v-.532h.177a1.505,1.505,0,0,0,.355-1.064h.354v-.532c.424-.108.33-.056.532-.354h.177v-.709H303a1.607,1.607,0,0,0,.177-.887c.424-.108.33-.056.532-.354.5-.566.229-1.882.532-2.659h.177v-.531h.177V153.6h.177v-.532h.177v-.532h.177V152h.177v-1.241h.177v-.709h.177v-1.418h.177V148.1h.177l-.177-.532h.177v-.354h-.177v-.177h.177v-.354h.177c.064-.3-.167-.309-.177-.355v-1.064h.354a2.357,2.357,0,0,0-.354-1.063h.709c.2.2,0,.07.354.177v.886h-.354l.177.355.532.177a3.677,3.677,0,0,1,0,1.95c-.012.052-.247.05-.177.355h.177v.354h.177l-.354,4.431h-.177v.354H306.9v1.6l-.354.177.354.532-.354.177v.532l-.354.177v1.24l-.355.177.177.354-.532.355v.709l-.532.354-.177.709-.355.177.177.354-.532.354-.177,1.241h-.177l-.355,1.064-.531.177a2.91,2.91,0,0,1-.887,1.773l-.532.177.177.532h-.177v.354h-.177a1.5,1.5,0,0,0-.355.709h-.354c-.128.49-.05.4-.532.532-.161.732-.512.772-.886,1.24h-.177v.532h-.177l-.177.532h-.354c-.457.679-1.349.675-1.6,1.6a1.23,1.23,0,0,0-.886.354v.177c-.724.464-1.33.017-1.6,1.064a6.668,6.668,0,0,0-1.418.354v-.177h-.354v-.177H290.6l-.177-.354-.532.177v-.177l-.887-.177v-.354h-.886l-.177-.532h-1.064V171.5h-.532l-.177-1.063-.709-.177-.177-.709H285.1v-.532l-.354-.177v-.354l-.354-.177v-.354l-.354-.177-.177-.709h-.177l-.354-1.595-.709-.355v-1.772h-.354v-.532h-.354c-.112-.511-.325-.461-.354-.532v-.709h.177V161.4h-.177v-1.241h-.177V159.8H281.2v-.886h-.177v-.532h-.177v-1.241l-.354-.177v-1.241h-.177v-.177h.177c.029-.4-.177-.355-.177-.355v-1.24h-.177v-.709h-.177v-2.658l-.355-3.545c-1.246.008-.881.31-1.595.709l-1.064.355-.177.354h-.354v.177l-.709.177v.177H275l-.355.532c-.512.279-1.6-.121-2.127.354-.2.2-.071,0-.177.354h-.532v.355l-1.064.177-.177.355c-.242.068.016-.062-.177-.177l-.709.177v.177h-.532l-.532.709c-.236.085-.022-.081-.177-.177-.5.082-.646.086-1.24.177a1.2,1.2,0,0,0-.887-.709c-.065-.686-.273-.734-.354-1.418h.354v-.354c1.035-.3.906-1.3,2.482-.709v-.354a2.556,2.556,0,0,0,1.773-.709V147.4l.532-.177v-.177l1.24-.177v-.177h.532v-.177h.532v-.177h.354v-.177h.355l.177-.355c.323-.139.122.229.177.355l.532-.177V145.8l.354.177V145.8l.709-.177v-.177h.354l.177-.354.709-.177.177-.354h.354v-.177h.532V144.2h.354v-.177l.532-.177.177-1.95h-.177l-.177-.886h.354v-1.064h-.177V139.6h-.177v-1.241H278.9l.177-2.482H278.9v-1.24h-.177v-.177h.177v-1.064h-.177l.177-1.95h-.177v-1.95c0-1.044-.1-2.014-.177-2.836h-.355c-.128.49-.049.4-.532.532l-.177.532a4.091,4.091,0,0,1-.886-.177v.355c-.537.122-.394.29-.532.354l-1.6.177-.177.355-1.418.177v.177h-.354v.177h-.886v.177l-.709.177v.177h-.354l-.177.354-.709.177v.177h-1.419v-.177l-.709.177v.886c-.405.021-.461.148-.709.177v-.177l-.709-.177a1.475,1.475,0,0,0-.355-.886H265.6c-.272-.631.256-1.023.354-1.419.546-.113.4-.291.532-.354h.886l.177-.354.709-.177.177-.354h.709l.177-.354h.355v-.177h.354v-.177l1.24-.177.177-.355.532-.177v-.177h.354v-.177h.354v-.177h.709v-.177h.709v-.177h.354l.177-.355.355.177v-.177l.709-.177v-.177h.709l.177-.354h.354v-.177l.709-.177v-.177l.355.177c.59-.355.688-.47.709-1.418-.427-.49-.142-3.631-.177-4.608l-.177-.887h.177v-1.24h-.177v-.354h-.177c-.047-.3.363-1.05.355-1.418h-.177v-.177h.177l-.177-2.836a1.875,1.875,0,0,1,.709-.177v.177a.437.437,0,0,0,.531-.177A3.111,3.111,0,0,1,281.024,111.059Zm62.747,1.772v.354l1.064.177.177.354h.355v.177l.531-.177.532.709h.355l.177.354h.355l.886,1.064h.177v.354c1.106.236,1.233,1.156,2.127,1.6l-.177.354h.177c.2.2,0,.071.354.177a2.916,2.916,0,0,0,0,1.418l.532.354.177.887.354.177.532,3.9h.177v.887h.177v1.24h.177v.709h.177l-.177,1.772h.177v1.24h.177v1.418h.177v.886h.177v.177h-.177v.709h-.177v1.95h-.177v.177h.177v.532l-.354.177.177.887-.354.177a1.3,1.3,0,0,0,.177.886h-.354a7.359,7.359,0,0,0,0,1.95h-.177v-.177c-.28-.2-.165.435-.177.532-.507.556-.213,2.391-.177,3.19l-.532-.177v.886h-.354v.886h-.177v.177h.177c.064.3-.167.309-.177.354l.177.886h-.177l-.177,1.6-.354.177v.532l-.532.354v1.064l-.354.177c-.23.4-.047.435,0,.709h-.177c-.205.517-.059.362,0,.886h.177v.177h-.354v.709l-.532.177c-.023,1-.275.665-.532,1.24l-.177,1.064-.532.355c-.14.207.155.1.177.177v.177h-.354v.886l-.355.177.177.532-.532.354.177.532h-.177a1.434,1.434,0,0,0-.354.886l-.532.177a17.9,17.9,0,0,1-.532,1.772h-.354v.354c-.49.128-.4.05-.532.532h-.177v.709h-.354a1.847,1.847,0,0,1-.354.709h-.177l.177.532-.355.177v.354h-.354l-.354,1.064-.532.354-.177.887h-.177l-.354.532-.532.177v.709H340.4c-.29.589.029.677-.709.886l.177.532h-.177c-.2.2,0,.07-.354.177-.243.879-.673.612-1.241,1.063a5.321,5.321,0,0,0-.886,1.95l-.532.177v.532h-.354v.532c-.611.358-.766.877-1.6,1.064-.128.49-.05.4-.532.532-.173.611-.594.584-.886,1.064l-.532-.177v.177l-1.241.177c-.35-.532-.5-.167-.709-.886h-.177l-.177-.886h.177c.111-.446.095-.291.355-.532v-.177h.354V175.4a2,2,0,0,1,.886-.355c.313-1.442,1.919-1.809,2.3-3.19.721-.2.354-.362.887-.709v-.532h.354l.177-.532.531-.354v-.354l.532-.355v-.354l.355-.177v-.355l.354-.177.177-.532h.177v-.355h.177v-.354l.354-.177v-.531l.709-.532v-.887c.49-.128.4-.049.532-.532h.354l.177-.709h.354a3.5,3.5,0,0,0,.709-1.6h.355a1.181,1.181,0,0,1,.177-.709h.177l-.177-.355.355-.177.177-.709.355-.177.177-.709h.177v-.354h.177l.354-1.064h.177v-.532h.177v-.354l.354-.177.355-1.064.354-.177v-.354h.177v-.709h.177v-.355h.177l.177-.886h.177V152l.354-.177.355-1.95h.177v-.354h.177l-.177-.354.355-.177v-.532h.177V148.1h.177v-.532h.177v-.354h.177v-.887l.354-.177.177-1.773h.177v-.354h.177v-1.241h.177v-.354h.177v-1.418h.177l-.177-.354h.177l.177-1.241h.177v-.709h.177v-1.064h.177v-.177s-.223-.153-.177-.354h.177v-.886h.177V131.8l.177-1.6h-.177v-1.064h-.177l-.177-.532h.177l-.177-2.658H349.8v-.355h-.177V124.53h-.177v-.354h-.177v-.532h-.177v-.709l-.354-.177-.177-1.064-.354-.177-.177-1.24-.532-.354c-.406-.576-.333-.96-1.24-1.064l-.177-.532h-.532v-.354a2.561,2.561,0,0,1-1.241-1.419c-.868-.172-2.175-.471-3.013-.709h-1.241v.177h-1.595v.177h-.709v.177h-.354v.177c-.38.091-.7-.4-1.241-.177l-.177.354h-1.064v.354c-1.461.141-1.577,1.3-2.836,1.6v.354h-.354v.355l-.532.177v.532l-1.24.355-.177.354h-.354l-.177.354h-.177v.532l-.532.354-.355,1.064-.709.532V124h-.177l-.354.532-.354.177.177.532h-.177v.354l-.355.177-.177.709h-.177l-.177,1.419-.354.177-.177.709h-.177l-.177.709h-.177v.887h-.177c-.2.2,0,.07-.354.177a3.438,3.438,0,0,1-.532,1.241h-.355l-.354.354a6.293,6.293,0,0,0-.532,1.24h-.532c-.162.638-.594.748-.886,1.241-.238-.082-.3-.25-.709-.177-.018,0-.07.29-.354.177v-.177c-.48-.326-.295-.6-1.064-.709l.177-.886h-.177l.177-1.6h.177l.177-.709.355-.177v-.355l.354-.177.177-.887h.177l.177-.532.532-.354.177-1.064h.177l.177-.354h.354l.354-.532h.177v-.532h.354c.118-.226.279-.242.354-.354v-.354l.355-.177v-.354l.354-.177v-.354l.532-.354v-.355l.354-.177.177-.709.709-.532v-.532h.177v-.354l.354-.177c.462-.7.465-1.15,1.241-1.6v-.709H328v-.354h.709l.355-.532.531-.177c.681-.847.9-1.812,2.3-1.95v-.532h.177c.2.2,0,.07.355.177V114.6c.982-.117.561-.382,1.064-.709h.354v-.177l1.6-.177v-.177h.354v-.177h.709v-.177h.355v-.177h.709v-.177l.355.177,3.19-.177A4.925,4.925,0,0,0,343.771,112.831ZM33.4,120.1h.532l-.177.532c.493-.1.018-.136.532,0-.084.41-.158.15,0,.709h.177l-.177.532a.46.46,0,0,1,.177.532l-.354.177v.355h-.177c-.073.3.169.314.177.354v2.659h.177l.177.531H34.29l-.177,2.482h-.177v.709h-.177c-.038.364.075.206.177.354v.177h.709v-.354l.886-.177c.152.134-.065.241.177.177v-.177h.355l.177-.354h.355v-.177h.354v-.177h1.418v-.177c.2-.2.07,0,.177-.355l.532.177.354-.532h.354c.168-.1.083-.279.354-.354.1.056.028.292.355.177v-.177l1.064-.354v-.177h.709v.177c.112.014.647-.319,1.064-.177v.177l.886.177c.065.686.274.735.354,1.418-.552.368-.077.256-.354.709l-.709.532v.177h-.355l-.177.354h-.887l-.177.354-1.064.177-.177.354h-.709l-.177.354a.827.827,0,0,1-.709,0l-.177.355-.886.177-.177.355h-.354v.177l-1.064.177-.177.354-2.127.709-.177.886h-.177v-.354c-.21-.137-.159.107-.177.177a2.613,2.613,0,0,0-.177,1.6h.177v.177H33.4l.177.709H33.4v1.241h-.177v6.2H33.05c-.036.22.279.3.177.709H33.05V148.1h-.177v1.6h-.177v.354h-.177c-.135.411.186.474.177.709h-.177v1.064H32.34v.886h-.177c-.116.419.192.471.177.709h-.177v.532h-.177l-.354,1.95h-.177v1.24l-.354.177v.354h-.177v.355c-.322.591-.465.251-.532,1.24h-.354v.354h-.354v.355l1.24-.886.354.177.177-.354h.354v-.177c.237-.162.312-.136.709-.177v-.355a4.393,4.393,0,0,0,1.418-.532V157.5h.354v-.177H35l.177-.354.532-.177v-.177h.532v-.177l.532-.177.177-.354,1.6-.354v-.177l.709-.177v-.177h.355l.177-.355h.886l.177-.354.532.177.177-.532a2.555,2.555,0,0,0,1.772-.709l.177-.354.354.177.177-.355h.709c.144-.068-.008-.232.532-.354.154-.673.41-.721,1.241-.709v.177h.709V152c.2.2.07,0,.177.354h.354v.354l.354.177-.177.532a.487.487,0,0,1,.177.532h-.177v.354h-.177l-.177.532c-.518.121-.58.2-.709.709l-.532.177v.177l-.886.177-.355.532-.709-.177v.177h-.177v-.177h-.177l-.177.354H42.8l-.177.354h-.354v.177h-.354v.177H41.2l-.177.354-.709.177-.177.354h-.886l-.177.354h-.355v.177h-.354v.177h-.354l-.355.354H37.3l-.177.354h-.532v.177H36.24v.177h-.354v.177l-.709.177-.177.354h-.354v.177c-.242.163-.312.124-.709.177v.355l-.886.177-.177.354-1.6.355v.177l-.709.177-.177.354a1.905,1.905,0,0,1-1.24.355v.354l-.532.177v.177h-.355v.177h-.531v.177h-.355v.177h-.354l-.177.354h-.532l-.177.355-.709.177v.177l-.709.177v.177h-.532l-.177.354h-.532l-.177.355h-.354v.177l-.886.177-.177.354h-.532v.177H21v.177h-.532l-.177.354-.709.532v.354c-.486.114-.4.232-.886.354a2.127,2.127,0,0,1-.532,1.064h-.177v.355l-.354.177v.177h-.354l-.177.354h-.709v.177c-.723.393-1.149-.423-1.595-.355v.177H13.552l-.354.532c-.26.007-.3-.262-.709,0l-.354.532H11.6l-.354.532c-.553.337-.452-.317-.709.532-.882.083-1.117.529-1.95.709v.355l-1.064.354-.177.354-1.064.354-.177.355-.709.177-.177.355H4.512l-.177.354H3.8l-.177.354H3.094l-.177.355H2.562v.177H2.208v.177H1.676l-.177.354a3.588,3.588,0,0,1-1.418.354v.355c-.562.12-.344.26-.532.354l-1.24.177v.177h-.354l-.177.355c-.524.328-1.06.174-1.418.709-.2.2-.07,0-.177.354l-.532.177v.177h-.354v.177h-.532l-.177.355h-.531v.177H-6.3v.177h-.354l-.177.354-1.063.354-.177.355h-.354v.177h-.355v.177l-.532.177c-.1.605-.3,1.084-.886,1.24v.354c-.564.068-1.825.435-2.3,0h-.354l-.887-1.063h-.177v-.887l.532-.354v-.177h.354a4.6,4.6,0,0,1,1.24-.709v-.354a1.4,1.4,0,0,0,1.064-.355v-.177a2.712,2.712,0,0,1,1.418-.355v-.354l.532-.177.532-.886c.579-.362.594.309.886-.709h.887c.167-.319.245-.279.354-.709a1.543,1.543,0,0,0,.886-.177v-.177l.886-.177v-.177H-4l.532-.709h.709l.177-.354c.431-.312.167.127.532,0v-.177h.354c.108-.424.056-.33.354-.532v-.177l.532.177.177-.354A8.579,8.579,0,0,1,.79,175.4v-.177l.354.177.177-.355h.532v-.177h.354v-.177h.354l.177-.354a1.869,1.869,0,0,1,1.241-.532v-.354l.709-.177.177-.532.532.177v-.355H5.93v-.354c.154.055.392.339.709.177v-.177c.2-.2.07,0,.177-.354l1.24-.355.177-.531c.783-.046.791-.22,1.24-.532v-.177h.532v-.354c.9-.1,1.158-.673,1.95-.887v-.354c.57-.136.382-.267,1.064-.354l-.177-2.3-.532-.177.177-1.95c-.065-.168-.416.011-.354-.532h.177v-2.3h-.177v-1.419a17.868,17.868,0,0,0,.177-3.9h-.355l.177-2.127h.177v-.355h.177v-1.418h.177c.049-.3-.167-.308-.177-.354V147.4h.177v-.177c.007-.245-.277-.285-.177-.709h.177v-1.064s.158.013.177-.354l-.177-.177.354-.177v-.887a1.886,1.886,0,0,0-.709-.177c-.4.357-.843.162-1.418.354v.177h-.887c-.123.054.033.266-.532.354,0,0-.015-.368-.177-.177v.355l-.709.177v-.177H8.412l-.177.354H7.88v.177H7.171l-.354.532H6.107v.177H5.575l-.177.354H4.867l-.355.532H3.449v.177H3.094v.177H2.562l-.177.354H1.853l-.177.354H.79v.177H.435v.177L.08,148.1l-.177.354-1.064.177v.177l-.532.177-.177.354-.532-.177v.354l-.354.177v.354c-.6-.419-1.584.385-1.772.354v-.177a3.144,3.144,0,0,0-1.773.709h-.354l-.177.354-.709-.177a.408.408,0,0,1-.354.177v-.177h-.177l-.177.354H-8.6v.177l-.532.177c-.128.49-.05.4-.532.532v.177l-.886-.177-.177.354c-.242.113-1.089.039-1.064.355h-.177v-.355h-.355v-.532h-.354v-.354l-.354-.177.177-.532h-.177l-.177-.709.177-.177a.4.4,0,0,1-.177-.531h.177a1.452,1.452,0,0,0,.177-.709h.354v.177c.367-.021.2-.4.886-.355v.177h.177v-.177h.354v-.177l1.418-.177V148.1l.532.177V148.1h.709v.177h.177V148.1h.532v-.177h.532l.177-.354h.532V147.4l.532.177.177-.354.354.177v-.177h.177l.177-.355s-.382-.032-.177-.177h.354v.177c.024.008,1.122-.469,1.241-.532v-.177h.532l-.177-.355,1.773-.177v-.177h.354l.354-.532H.612v-.177a1.759,1.759,0,0,1,.887-.177V144.2l.531-.177v-.177l.532.177v-.177l.709-.177v-.355l.886-.177.177-.355H5.4v-.177a1.421,1.421,0,0,1,.709-.177v-.354l.532.177V141.9l3.013-.886.177-.532c.061-.044.572.359.886.177l-.177-.355,1.418-.177v-.177h.355v-.177h.532V139.6H13.2l-.177-.354h.532c.039-.321.177-.355.177-.355l-.177-1.063.532-.177-.177-.532h.177c.137-.291.168-.555,0-.709h.354v-1.95h.177V134.1h.177l-.177-1.6h.354a3.163,3.163,0,0,1,.709-1.24h.354l.354-.532h1.6c.456.69,2.525,1.556,3.368,1.95l.177,1.24h-.177v.887a3.173,3.173,0,0,1-1.595,0v-.355a1.878,1.878,0,0,1-.709.177v-.354l-.354.177v.177h-.177v.532h-.177c-.284.653.18.658-.709.886L17.451,138l.709-.177-.177-.355c.046-.246.177-.177.177-.177v.177a2.786,2.786,0,0,1,1.064-.177v-.355c1.375-.045,1.766-.807,3.013-1.064v-.354a3.854,3.854,0,0,0,2.127-.532h.355l.177-.354h.355v-.177h.886v-.177h.886l2.482-1.241v-.354h.177v-.532h.354c.194-.368.286-.314.354-.886l-.354-.177.354-1.95h-.177v-.177h.177v-1.418h-.177v-.709h.177v-.355l.354-.177c-.044-.251-.274-.433-.177-.886h.177v-.177a.474.474,0,0,1-.177-.532c.091-.316.573-.783.354-1.418h-.177v-.354l-.354-.177c-.025-.078.151-1.053.177-1.241h-.355a5.288,5.288,0,0,1,0-1.95l.355-.177v-.355h.177c.272-.294.146-.293.709-.354v.177h.532l.177.354h.354l.354.709.532-.177Zm111.668,9.394v.355h.355v.354h.354l.177.532h.177l.177.709h.177c.028.25-.139-.07-.177.177v.886l-.532.177v.177c-.247.04.047-.066-.177-.177a1.717,1.717,0,0,1-.886-.354l-.177-.532-1.063-.177v.177H143.3v-.177h-1.418v-.177c-.3-.057-.3.165-.354.177h-1.418v-.177c-.249-.028.069.129-.177.177h-1.241v.354l-1.95.177v.177h-.354v.177c-.611.513-.157.623-1.241.709v.177l-1.595-.354v-.177a1.664,1.664,0,0,0-.709-.355v-1.24l.532-.177c.108-.424.056-.33.354-.532v-.177h.709V130.2c-.357-.1-.153.021-.354-.177a4.277,4.277,0,0,0,1.772-.532v-.177h1.064l.177-.355h.887v-.177l1.064.177,5.317.177v.177A1.393,1.393,0,0,0,145.072,129.493Zm249.393,5.141v.354c.473.314.408.708,1.064.886.011.687.054.889.354,1.241l.355.177v.532l.532,1.595h.532v.177a1.158,1.158,0,0,0-.355.532h.177v.177h-.177v.709a.455.455,0,0,1,.177.532h-.177v.354h-.177v.886h-.177v.355h-.177c-.048.2.286.31.177.709h-.177v.709h-.177v.354h-.177a.271.271,0,0,0,.177.354l-.177.532-.532.355v.177l-.354-.177v.886H395l.177.354a.4.4,0,0,0-.177.354.3.3,0,0,1,.177.355H395v.354l-.354.177v.532h-.177c-.2.2,0,.07-.354.177v.532h-.177l.177.354h-.177v.177l-.354-.177v.177H393.4v.532l-.354.177.177.354-.354.177V152h-.177c-.161.24-.133.31-.177.709h-.532c-.167.319-.245.279-.354.709-.486.114-.4.232-.886.354-.069.383-.172.34-.177.355l.177.531h-.354c-.271.326-.033.248,0,.709h-.355v.532l-.709.177-.177.354-.532-.177-.177.532h-.355v.177l-1.064.354v.177h-1.241v.177l-1.6.177v-.177h-1.241V157.5c-.345-.085-.237.105-.355.177h-.177V157.5l-.532.177V157.5a1.777,1.777,0,0,0-.709-.355v-.354l-.709-.354v-.354l-.532-.177a1.585,1.585,0,0,0-.355-.709H379.4v-.709h-.177v-.709h-.177v-1.24h-.177l-.177-2.836c-.051-.246-.172.073-.177-.177h.177v-.177h-.177v-.177h.177v-1.418h.177a6.92,6.92,0,0,0,.354-2.3h.354c.1-1.249.89-1.874,1.241-2.836v-2.127h.177l.177-.709h.177c.119-.335-.079-.422-.177-.532.054-.286.321-.281.354-.355v-.709h.177a2.55,2.55,0,0,0,.532-1.064h.354v-.532h.355c.274-1.013.652-.67,1.418-1.064v-.177h.354v-.177l.886-.177.355-.532h.354v-.177h.354l.177-.355.532.177.177-.354h.355v-.177h1.95v-.177l1.772.177v.177h.354v.177h1.241l.177.355h.355v.177C394,134.619,394.067,134.579,394.465,134.633ZM20.288,140.128c.159.036-.047.29.177.177l.354-.531h.709V139.6h.354v-.177h.709l.354-.532H24.01v-.177l.709-.177.177-.354h.532V138h.354v-.177l1.6-.177.355-.532h.531v-.177a1.45,1.45,0,0,1,.709-.354c.3-.244.6-.055,1.24,0-.1.209-.312.281-.354.354a6.78,6.78,0,0,1,0,2.482h-.177l.177.532h.177a.307.307,0,0,1-.177.354v.355h.177l-.177.177v.177h.177c.061.349-.117.234-.177.354l.177.532h-.354v.709c.019.051.315.068.354.354l-.354.177c-.041.171.345.488.177.886l-.354.177-.177,1.418H29.5v.354h.177c.071.3-.166.3-.177.354v1.241h.177l-.177,1.064h-.177l.177.532h-.177v1.063H29.15v.355h.177s-.025.689-.177.354c-.247-.043.073-.168-.177-.177a2.559,2.559,0,0,1,0,1.6H28.8V153.6h-.177v.886h-.177v.886h-.177v.532h-.177v.532l-.354.177v.531c-.026.047-.261.174-.355.355l-.354.177V157.5h-.177v.177c-.189.139-.288.084-.354.355h.177v.177h-.532v.887h.177c.107.354-.024.152.177.354.4.418.87.211,1.6.354v.177h.177V159.8l.532-.177c.076.12-.163.5.177.355l.354-.532H29.5c-.113.711-.113.9-1.064,1.064v.354l-1.064.177-.177.354h-.709v.177h-.354v.177l-.886.177v.177H24.9v.177l-1.064.354v.355l-1.063.354-.177.354H22.06v.177l-.709.177v.177h-.532v.177a.471.471,0,0,1-.531-.177l-.709.177v.177h-.886c-.164.089-.078.407-.355.532v-.177H18.16v.532h-.709v.177a1.4,1.4,0,0,1-.886.355c-.106-.354.025-.153-.177-.355-.174.558-.1.266,0,.886l-.354-.177-.177-.354h.177v-1.241h-.177l-.177-1.064H15.5l.177-.532H15.5l.177-2.127h.177v-.177h-.177v-.354H15.5v-3.9l.177-7.09h.177v-.177h-.177l.177-1.772h.177v-.709h.177v-.532h-.177v-.177h.177v-.709h.177l-.177-.886h.177V143.5h.177v-.532h.177v-.709l.354-.177v-.354h.177l.177-.532,1.064-.177v-.177l.709.177c.106-.354-.025-.153.177-.354v-.177l.355.177V140.3Zm368.682-1.773v-.177c.288-.167.5.025.709-.177v-.354l.177.177h.532l-.177-.532a1.275,1.275,0,0,1,.709-.177v.177h.177l.177-.355c.494-.114.478.345.532.355h.177v-.177l.887.177.177,1.063h.177v.709h.177v.354h.177v1.241h.177l-.177.532a7.076,7.076,0,0,0,.177,1.595l-.355.177-.177,1.418h-.354a4.374,4.374,0,0,1-.355,1.418h-.177v.887l-.355.177-.354,1.064-.354.177v.532l-.532.354-.177.532h-.177v.886l-.355.177v.177h-.354l-.177.532-.354.177v.354h-.177a2.215,2.215,0,0,0-.531,1.064h-.355v.354l-.886.177-.354.532h-.355v.177l-2.3.531v-.177h-.709v-.177c-.594-.477.035-.6-.887-.354.169-.318.253-.276.355-.709-.354-.106-.153.025-.355-.177h-.177v-.887h-.177v-.354h-.177l-.177-.532h.177v-.532h.177l-.177-.532h-.177v-.709l.532-.177.177-.354h-.354l.177-.709c.354-.106.153.025.354-.177h-.354a2.417,2.417,0,0,1,.177-1.241l.355-.177c-.058-.244-.106.063-.177-.177v-.177l.354.177-.177-.532h.354c-.106-.354.025-.153-.177-.354.45-.417.988-.1,1.418-.709h.177l-.177-.886.355-.177V143.5h.177v-.177h.532v-.532c.05-.131.4-.073.355-.354h-.177c.019-.083-.1-.548.177-.354.01.007-.006.348.177.177l-.177-.532h.354c-.068-.19-.328-.5-.177-.887h.177v-.354l.354-.177-.177-.354a1.728,1.728,0,0,1,.709-.177v-.355h.177v-.177c.5-.374.446.314.709-.532A1.328,1.328,0,0,0,388.97,138.355Zm-4.786,1.241h.177v.177h.177v.177h-.354Zm2.127.354c-.14.245-.4.651-.709.709v-.177h-.177v.354h-.355l-.177-1.063A3.671,3.671,0,0,1,386.311,139.951Zm-218.374,8.331c1.1-.2,1.808-.754,3.013-.886v-.354c.673-.071.76-.336,1.241-.532h.531v-.177h.532l.177-.354h.354V145.8l1.241-.177.177-.355h.355l.177-.354h.532v-.177c.251-.156.308-.12.709-.177V144.2a1.291,1.291,0,0,0,1.064,0v-.177h.532v-.177h.354v-.177l1.24-.177c.251-.927.812-.59,1.064-1.418h.355c.2-.691.045-.234.531-.532v-.177h.355v-.177h.354v-.177h.532l.354-.532h.532V140.3h.354v-.177h1.418c.2.3.112.24.532.354.153.622.442.664.531,1.418-.746.634-.991,1.7-2.3,1.773v.177h-.532v.355h-.709c-.168.319-.246.279-.355.709-.9.106-.574.368-1.064.709h-.354l-.177.354h-.532v.177H180.7v.177h-.886v.177h-.354l-.354.532-1.6.532v.354l-1.773.532v.177h-.354v.177l-2.3.355-.177.354-1.24.354-.355.532-1.064.177v.177h-.354l-.354.532-.886.177a1.2,1.2,0,0,1-.355.709h-.354c.046.233.293.307.177.709h-.177v.886h.177l.177,1.773h-.177c-.052.3.165.3.177.354v.709h-.177v.177h.177v5.495h.177v.532h.177v1.95h.177c.119.417-.2.763-.177.886h.177v.709H169l-.177,2.658v3.191H169v.177h-.177v1.95H169l-.177.532V177H169c.031.226-.282.295-.177.709H169l-.177,1.772H169c.174.666-.318,2.475,0,3.545.486,1.639.07,3.706.354,5.317h.177l-.177.709V191h.177l-.177.709h.177v.709h-.177l.177.709c-.034.248-.217-.07-.177.177h.177v1.95h.177l-.177.709h.177v1.064h.177v1.064h.177v.886h.177V201.1c.057.244.2-.072.177.177a.3.3,0,0,0-.177.355h.177v1.772h.177v.532h.177v.886h.177l-.177,1.418c-.472.314-.408.708-1.063.886v.177l-1.6-.177-.354-1.063h-.177v-.355l-.354-.177c-.1-.293.171-.325.177-.355l-.177-.354h.177v-2.482h-.354v-.709l-.354-.177V201.1h-.177a1.475,1.475,0,0,1-.354-.709h.177v-.709h.177l-.177-.531.355-.177v-2.3l-.355-.177a.259.259,0,0,1,.177-.354l-.177-.355V194.9h.177v-.177h-.177v-1.773h.177l-.177-3.013h-.177c-.037-.217.278-.3.177-.709h-.177v-.709h.177v-.177h-.177l-.177-3.013.177-.354h-.177l-.177-1.6h.177l-.177-.531h.177V181.6h-.177V180.9h-.177a3.667,3.667,0,0,0,.177-.886v-.532h-.177V177h.177l-.177-.354c.09-.234.166.073.177-.177l-.177-.177h.177v-.177h-.177v-3.368h.177c.062-.291-.171-.323-.177-.354-.047-.247.123.068.177-.177v-.177h-.177v-.177h.177c.078-.429-.145-.452-.177-.709.069-.134.215,0,.177-.354-.028-.26-.246-.277-.177-.709h.177l-.177-.709h.177c.076-.429-.177-.532-.177-.532a.483.483,0,0,1,.177-.532l-.177-.532.177-.354h-.177v-.887h.177v-.177h-.177v-1.6h-.177v-.532h-.177c-.071-.292.171-.323.177-.354.057-.3-.164-.3-.177-.354v-1.773H165.1v-.532h-.177a10.434,10.434,0,0,0,.177-2.127c-.271-1.054.167-4.254-.354-5.672l-1.773.532-.177.532-2.482.886-.177.532h-.354v-.177c-.27-.064-.235.3-.355.355l-.886.177-.177.355h-.531v.177h-.709l-.177.532-.532-.177v.355a1.274,1.274,0,0,0-.886.354v.177l-1.064.177-.177.355h-.355v.177l-.531.177v.354h-.709v.177c-.212.027-.323-.352-.709-.177l-.354.532h-.354l-.177.354h-.354l-.354.532h-.709l-.354.532a3.421,3.421,0,0,1-1.6.177v.354c-1.606.311-1.6,1.647-3.545,1.773v.354h-.354v.354a3.256,3.256,0,0,0-1.241.532l-.354.532h-.354l-.354.532-.887.177-.177.354-.709.177-.177.355h-.354v.177h-.532l-.354.532-1.772.532v.355h-.532v.177l-.532-.177v.177c-.2.2-.071,0-.177.354a1.854,1.854,0,0,0-1.24.355l-.177.354H133.2v.177c-.254.15-.3.121-.709.177-.215-.377-.4-.386-.532-.886H131.6c.084-.624.061-.568.177-1.24.684-.179.557-.519,1.241-.709v-.354c.529-.133.7-.419,1.064-.709v-.177l1.24-.355v-.177l.709-.177.532-.709h.177v.177l.532-.177v-.354l1.95-.532v-.354h.532c.549-.877,1.822-.8,2.127-1.95h.354v-.532a3.225,3.225,0,0,0,1.773-.709h.354v-.177h.532l.177-.355.887-.177v-.177a1.519,1.519,0,0,1,.709-.354v-.354l.532.177.177-.354h.532l.177-.354,1.064-.177v-.177h.354V157.5l.532-.177v-.354h.709v-.354l.886-.177.177-.354h.532V155.9l.709-.177v-.177h.532l.354-.532h.532v-.177h.355v-.177c.246-.161.31-.119.709-.177v-.354c1.7-.158,2.5-1.47,4.254-1.6.128-.49.049-.4.532-.532.465-.5.921-.413,1.595-.709v-.177h.355v-.177h.886v-.177h.354v-.177h.709v-.177c.331-.25.4-.221.532-.709h.177v-.177h-.177v-1.064h-.177v-.177h.177l-.177-.354h.354v-.177h-.177c-.023-.366.076-.2.177-.354,0-.251-.14.071-.177-.177-.054-.359.073-.214.177-.355v-.177h-.177V145.8h-.177v-1.063h-.177c-.007-.2.367-.641.177-1.064a2.021,2.021,0,0,1-.354-.355c.356-.1.153.021.354-.177-.626-.422-.077-.292-.354-.886h-.177a1.29,1.29,0,0,1-.177-.709h.177v-.532c.423-.672,1.552-.887,2.659-.886l1.064.886.177.354h.532l.354.532H169v.532h.177v.177c.18-.137.174-.218.354-.354v.709c-.2.15-.026-.023-.177.177l-2.127.177v.177c.67.611.072,1.2.354,2.127h.177v.532h.177l-.177.354v.177h.177v.709h-.177Zm46.44-4.963v.355c.476.287.588.776,1.064,1.064v.177l.354-.177v.177h.177c.214.384-.166.891-.177,1.064-.024.383.177.354.177.354L215.8,148.1h-.354a3.152,3.152,0,0,0,.177.709c-.007.036-.257.059-.177.355h.177v.532h.177a.287.287,0,0,1-.177.354c-.055.354.177.354.177.354.091.418-.2.477-.177.709h.177v2.836h.177v.177l-.177.354h.177v.354h.177V157.5h.177v1.418h.177v.886l.354.177.177.532h.177l.177,1.772.354.177v.532h.177l.177,1.95.354.177v.355l.532.354v.532l.709.532c.23.358-.034.8.177,1.24l.354.177v.354h.177v.354l.354.177c.329.458-.191.324.532.532.191.164-.014.118.355.177v-.177c.22-.119.1.11.177.177.464.594-.358.522.355,1.064v.177h1.063l.355.532a2.847,2.847,0,0,0,1.595-.177l1.064-.177.355-.532h.354v-.177l.886-.177.532-.709h.532v-.177l.709-.177v-.355h.355l1.418-1.595h.354l1.064-1.241c.778-.777,1.993-1.448,2.3-2.658h.355a6.115,6.115,0,0,0,.709-1.418h.355c.154-.607.366-.456.531-1.063h.355a1.375,1.375,0,0,1,.354-.709h.177v-.354l.354-.177v-.354l.354-.177v-.354l.355-.177v-.354l.354-.177v-.354h.177a1.453,1.453,0,0,0,.355-.709h.354a9.066,9.066,0,0,1,1.418-2.127l.886-.532.177-.709.709-.532v-.354l.354-.177c.4-.581.443-1.032,1.24-1.24v-.354c.57-.131.646-.241.709-.887a2.625,2.625,0,0,1,1.064.177l-.355.532h-.177v.354h-.177c.017.2.37.648.177,1.064l-.532.354-.177.887-.354.177v.532h-.177a1.359,1.359,0,0,0-.354.886h-.354c-.153.742-.5.8-.886,1.241l.177.354-.532.177-.177.709h-.177a1.4,1.4,0,0,0-.354.709h-.355c-.1.984-.414.572-.709,1.064v.532l-.886.709c-.46.7.17,1.139-.887,1.418-.188.7-.421.509-.886.887l-.177.532-.355.177v.354h-.354l-.177.532h-.177v.532l-.532.355v.354l-.354.354h-.355a2.713,2.713,0,0,0-.709,1.418l-.709.177c-.255.974-1.329,1.353-1.6,2.3-.49.128-.4.05-.532.532h-.354c-.3.521-.591.62-.886,1.241l-.354-.177v.532c-.4.046-.47.015-.709.177v.177h-.354l-.177.355h-.354l-.177.354-1.064.354-.177.354-.532-.177c-.128.49-.05.4-.532.532v.177h-.709v.177H225.9v.177h-.709a15.472,15.472,0,0,1-3.722,0v-.355l-.532-.354v-.177c-.661-.44-1.169-.112-1.418-1.063a1.336,1.336,0,0,1-1.064-1.064c-.424-.108-.33-.056-.532-.355a4.6,4.6,0,0,1-.354-1.418l-.532-.177c-.047-.679-.331-.816-.532-1.241v-.532h-.177c-.279-.367-.345-.577-.886-.709.014-2.011-.871-2.973-1.064-4.609h-.354l.177-.886h-.355l-.532-3.191h-.177v-.354l-.354-.177.177-1.064h-.177l-.177-1.772h.177v-.177H212.6a5.729,5.729,0,0,0,.177-1.595H212.6l.177-.709H212.6l-.177-.886h.177v-.709h.177v-.177H212.6v-.887h-.177a3.223,3.223,0,0,0,.177-.709l-.177-2.127h-.354c.1-.492.35-1.007.177-1.24-.2-.2,0-.071-.355-.177l.177-.532a.456.456,0,0,1-.177-.532h.177v-.354h.177V144.2l.532-.355V143.5l.531-.177v-.177Zm-103.16,4.963v.355h.354a3.734,3.734,0,0,1,0,1.772l-1.064.886h-.177v-.177h-.177v.177h-.532l-.177.355h-.354v.177l-1.24.177-.355.532-.886.177-.177.355-.886.177-.177.355-1.419.177-.354.532-.709.177-.355.532h-.354l-.886,1.064h-.354l-.177.354h-.177l-.354.532h-.354v.177h-.532v.177H98.81v.177h-.354l-.355.532h-.354v.177h-.354v.177l-.355.177v.354l-.354.177v.177h-.177v-.177c-.159-.194-.085.055-.177-.177h.177c.071-.347-.061-.225-.177-.354l-.177.354h-.177v-.177l-.887.177v-.354a1.441,1.441,0,0,1-.886-.532,4.606,4.606,0,0,0,.354-1.418h.532v-.355h.532V155.9h.355c.095-.232.072.051.177-.177v-.532h.177a2.1,2.1,0,0,0,.532-.886l1.064-.177v-.355h.709l.177-.532.354.177v-.354a2.4,2.4,0,0,1,1.6-.532v-.355l.886-.177v-.354h.532v-.355h.354v-.177l.532.177-.177-.354h.709v-.177l.354.177v-.177l.709-.177v-.177h.532v-.177h.532v-.177l1.064-.354v-.355a7.194,7.194,0,0,0,2.658-1.418C110.211,148.044,110.377,148.114,111.217,148.281ZM-9.491,151.295c-.354-.106-.153.025-.355-.177C-9.491,151.224-9.693,151.093-9.491,151.295ZM86.4,156.081h.532v.532H86.58c-.13.537-.28.376-.355.531v.709l-.354.177v.709a2.406,2.406,0,0,0-.354,1.6c.01.044.234.057.177.354h-.177v.709l-.355.177v.531h-.177c-.1.339.1.242.177.355-.018.245-.27.433-.177.886.008.039.227.063.177.354h-.177v1.418h.177v1.418h.177c.148.23.4.32.354.709h-.177l.177.354-.354.177v.532h-.177l.177.886-.354.177.177.709h-.177l.177,2.3h.177v1.95h.177v.532h.177l-.177,1.772h.177v.532h.177l.354,2.127-.177.354h.177v.532H86.4v1.24h-.177l.177.887h.709c.149-.2-.023-.026.177-.177v-1.418h.354c.068-.628.22-.538.355-1.064h.354v-.532l.354.177v-.177c.219-.2.074,0,.177-.354-.171-.228-.025-.784,0-1.418.331-.092.968-.634,1.24-.532V177c.49.128.4.05.532.532H90.3v.532l-.354.177.177.532H90.3l-.177.886h-.177v1.772H89.77v.355h-.177v.532l-.354.177v1.064l-.354.177-.177.532h-.177v.532l-.355.177c-.426.447-.167.492-1.063.532-.582.553-1.812-.058-2.3-.177a4.424,4.424,0,0,0-1.064-1.418V183.2h-.354v-1.241h-.354v-1.595h-.177v-.532h-.177c-.056-.276.35-.861.177-1.419h-.177L82.5,177h-.354a10.116,10.116,0,0,0,0-2.836h-.177v-2.127h-.177l-.177-.886h.177v-.532h.177c.059-.3-.167-.309-.177-.354v-1.418h.177c.118-.442-.178-.658-.177-.886h.177v-.709h.177l-.177-1.95h.177c.039-.247-.115.066-.177-.177a.508.508,0,0,1,.177-.532l-.177-.532s.22-.042.177-.354h-.177v-.532h.177l-.177-.886h.177V159.8h.177v-.532h.354l.177-1.064h.177v-.886h-.177l.177-.709a1,1,0,0,1-.886-.887h.177c.146-.567.209-.514.886-.532v-.354l.355.177v-.177h.354l.177-.354.532-.177v.177A1.949,1.949,0,0,1,86.4,156.081Zm73.382,2.836.532-.177v.177c.3.2.24.112.354.532h.354a3.169,3.169,0,0,1,0,1.6c-.2.149-.026-.023-.177.177l-1.418.177c-.2-.2,0-.07-.354-.177l-.177.886h-.177l.177.177-.177,1.064h-.177v.354h-.177v.354l-.354.177v.532h-.177v.354h-.177v.355h-.177a1.33,1.33,0,0,0-.354.886h-.354l-.177.532-.709.532v.354h-.177l-.177.886-.532.354-.177.532-.355.177c-.229.358.033.8-.177,1.241l-.355.177v.532h-.177v.354h-.177v.532H153.4v.532l-.355.177-.177.532h-.177l-.177.886h-.177l-.177.532-.354.177.177.531h-.354l-.354,1.773-.532.354v.532l-.354.177v.886h-.177v.354h-.177v.532l-.532.354-.354,1.773h-.354v.354h-.354l-.177.886h-.177v.887l-.532.354-.177.532-.355.177a2.1,2.1,0,0,0-.354,1.419c-.424.108-.33.056-.532.354h-.177v.532c-.085.236-.21-.072-.177.177a.26.26,0,0,1,.177.355l-.355.177-.177,1.241h-.177v.532h-.177V191H144.9v.532h-.177v.709h-.177l.177,2.3c-.728.179-.821.486-1.6.177h-.532v-.177a1.628,1.628,0,0,1-.354-.532h-.177l.177-.709h-.177a2.247,2.247,0,0,1-.177-1.24h.177v-.532h.177l-.177-1.064h.177l.354-1.064h.355v-.886l.354-.177v-.886h.354c-.179-.554-.1-.269,0-.886h.355a4.061,4.061,0,0,0-.177-.709l.354-.177v-.355h.354a1.363,1.363,0,0,1,.177-.709h.177l-.177-.532h.177v-.532h.177V183.2l.355-.177.709-2.127h.354a9.165,9.165,0,0,0,.355-1.24h.354v-.177h-.177V179.3h.177l.177-1.241.532-.354v-.354h.177v-.709l.355-.177v-.177h-.177v-.177h.177v-.532l.531-.354.177-1.064.709-.532.177-1.24.532-.355V171.5h.177v-.177a.257.257,0,0,1-.177-.354l.355-.177.177-.709.354-.177-.177-.532h.354c.2-.2,0-.071.354-.177l-.177-.709h.354l1.95-5.85.532-.354a3.489,3.489,0,0,0,1.064-2.127c1.155-.3.313-.443.709-1.24h.177c.239-.34.41-.406.532-.886a5.221,5.221,0,0,0,1.772-.177v.177c.247.125.22.257.355.354C159.7,158.71,159.585,158.192,159.784,158.917Zm10.989,9.749-.177.532a6.174,6.174,0,0,0-1.241-.177l-.177-.531a.339.339,0,0,0,.177-.355h-.177c-.372-1.481,1.087-2.38,1.95-2.658l1.064.177v-.177l1.418.177v-.177h.177v.177l1.773.177v.177h.177v-.177a1.24,1.24,0,0,1,.887.177v.177h.886v.177h1.24v.177h.709v.177h.532v.177h.886v.177h.532l.177.355h.709l.177.354h.709v.177h.355l.177.354h.709v.177h.354v.177h1.241v.177h.532v.177h2.836a2.7,2.7,0,0,1,.354,1.6c-.168.093-.313.331-.354.355h-.532l-.177.354h-.532v.177h-.354v.177a4.127,4.127,0,0,1-1.95-.177v.177h-.177V171.5l-.354.177V171.5h-.886v-.177h-.886v-.177l-2.127-.354-.177-.354H180.7v-.177h-.354l-.177-.354h-1.24v-.177h-.177v.177h-.709v-.177h-.355v-.177l-2.482-.532v-.177h-.354v-.177c-.425-.149-.673.186-.886.177v-.177Zm-68.064.532c.56-.02.332-.346.532.177h.354v.354h.709l-.177.354h.532l.177.355h.354v.177a2.233,2.233,0,0,0,1.064.532v.354c.319.168.279.246.709.355v.177h.532v.355a1.913,1.913,0,0,1,1.064.354v.177l.354-.177.355.532.532.354v.177h.354l.709.886.354-.177c.339.345-.193.331.532.532v.355h.532v.354h.354l.532.709h.354v.177h.177V177a2.772,2.772,0,0,1,.709,2.3,1.636,1.636,0,0,0-.709,1.064l-1.064.177-.177-.354h-.532l-.177-.532-.355.177v-.709a1.46,1.46,0,0,1-.709-.354v-.177l-.354.177-.177-.532h-.532v-.177a2.379,2.379,0,0,0-1.064-.532v-.354h-.532v-.532h-.177c-.2-.2,0-.07-.355-.177-.114-.485-.232-.4-.354-.886h-.532v-.354l-.709-.177v-.177h-.709l-.354-.532-.887-.177c-.121-.519-.2-.58-.709-.709V173.1a1.727,1.727,0,0,1-.886-.532v-.177H102l.177-.355H102a2.254,2.254,0,0,1-.709-1.595h-.177l.177-.532h.354v-.355H102l.532-.709h.177ZM41.558,181.959v.355l.531-.177v.177h.355v.177h.709v.177h.355v.177h.532v.177l1.063.177v.177l.532.177.177.354h.532v.177h.177a.267.267,0,0,1,.354-.177l.177.355h.355v.177h.354v.177h.532v.177h.354v.177h.532v.177l.709.177v.177h.354l.177.354h.709l.177.355h.532l.177.354h.355v.177H52.9l.177.354.709.177.177.354,3.013.886v.177l1.064.886a8.166,8.166,0,0,0-.177,1.6c-.614.216-.913.162-1.241.709l-.532-.177v-.177c-.405-.14-.476.175-.709.177v-.177H54.32v-.177H53.61v-.177L52.9,191v-.177l-.709-.177-.177-.355h-.354l-.354-.531h-.532v-.177H50.42V189.4h-.355l-.177-.354-1.95-.354v-.177l-.887-.177-.177-.354-1.064-.177-.177.177v-.177H45.28l-.177-.354H44.57v-.177h-.354V187.1h-.532v-.177l-.709-.177v-.177l-1.6-.354-.177-.355a2.742,2.742,0,0,0-1.595-.709v-.709h-.355v-.177l-.354.177v-.177h-.177c-.14-.262.177-.355.177-.355l-.177-.354-.532.177v-.177h-.532v.177h-.177v-.177c-.039-.019-.643-.255-.532-.354h.177l-.177-.532h-.354l-.177-1.418.709-.355c.125-.144-.132-.106.177-.354v.177h.886v.177h.355l.177.355,1.6.177.177.355Zm-23.752,1.95v.355l.531-.177v-.177h.177v.177h1.241v-.177h.177v.177a1.581,1.581,0,0,0,.886.354l.355,1.241h-.886v-.532H20.11v.354c-.2.2-.07,0-.177.354h-.354c-.539.6-1.341.628-1.6,1.6l-.532.177c.15.2-.023.026.177.177v.177h.177v-.177c.293-.173.15.255.177.355h-.177l-.177,1.24h-.177v.355h-.177v.531l-.355.177v.886h-.177v.355l-.355.177v.532h-.177v.354l-.354.177v.354h-.177v.355H15.5a.6.6,0,0,0,0,.709h-.177c-.2.2,0,.071-.355.177l-.354,1.6-.354.177v.532h-.355c-.069.795-.345.77-.531,1.241v.886H13.2v.354H13.02v.532l-.886.709.177.709h-.177v.355h-.177v.709h-.177v.354H11.6v.355h-.177l.177.354-.532.354a4.105,4.105,0,0,0-.354,1.95,1.625,1.625,0,0,0,1.24-.532V205l.355.177.177-.354,1.241-.354v-.177l.532.177v-.354c.2.2.07,0,.177.354.434-.1.392-.185.709-.354v.177h.177l-.177.532h-.354v.354h-.355l-.354,1.064h-.532v.355h-.177l-1.6,1.772h-.532l-.177.354h-.354l-.177.355h-.532v.177l-2.127.177v-.177l-.532.177v-.177a2.964,2.964,0,0,1-1.241-2.836h.354a6.576,6.576,0,0,1,.355-1.773h.354l.177-.886h.177v-.177H7.348v-.177h.177v-.532l.532-.354.177-.709h.177v-.886l.531-.354.177-1.241a6.333,6.333,0,0,1,.886-.886l-.177-.532h.354l-.177-.177.177-.531.532-.177c-.166-.408-.421-.52-.177-.886h-.177l1.063-.887v-.709H11.6v-.354l.354-.177v-.354h.177V193.3l.354.177-.177-.532h.354l.177-.886H13.2a6.982,6.982,0,0,0,0-2.3h-.354c-.315-.187.354-.177.354-.177v-.354h.354c.063-.728.388-.73.532-1.241l-.177-.532h.177l.177-1.064h.177c.2-.2,0-.07.355-.177l-.177-1.064a1.338,1.338,0,0,0,.532-.709h.532a3.128,3.128,0,0,1,.354-.886Z" transform="translate(13.922 -95.638)"/></svg>