<svg xmlns="http://www.w3.org/2000/svg" width="596.848" height="205.562" viewBox="0 0 596.848 205.562"><defs><style>.a{fill:#1a1311;fill-rule:evenodd;opacity:0.2;}</style></defs><path class="a" d="M-36.672-521.431h.937v.375l.562.188v.188h.375v.187h.937v.375h.75v.187a.748.748,0,0,0-.375.375h.375v-.187h.188v.187c.367.076.238-.064.375-.187h.187v-.187h-.187v-.187h.562v.187c-.124.106-.5.439-.375.75h.187v.375l.562.187.375.562h.187l.188.562c.558.447.874.218,1.124,1.124h.375v1.312a4.683,4.683,0,0,1-2.061,0l-.187-.375h-.375v-.375c-.423-.048-.492-.02-.749-.187v-.187l-.937-.187v-.187h-.375v-.187c-.26-.17-.328-.127-.75-.187v-.562h-.187v.187c-.265,0,.07-.126-.187-.187-.534-.128-.777-.1-1.124-.375l-.187-.375-.375.187v-.187h-.75v-.187l-1.5-.187v-.187l-.375-.187-.187-.562h-.375a1.828,1.828,0,0,0,.187.75h-.75a1.926,1.926,0,0,1,.187-.937h-.187c-.211-.322-.119-.254-.562-.375v-.375c.577-.148.632-.353.749-.937l.562-.187v-.187l.749-.187v-.187c.652-.158,1.378.761,2.249.375a2.114,2.114,0,0,1,.375-.375v.375C-36.7-521.593-36.56-521.806-36.672-521.431Zm-19.486,3.747v.375h.562a1.824,1.824,0,0,0,.187.75l.375-.187v.187c.214.214.075,0,.188.375h-.187v-.187c-.161-.354-.187.375-.187.375.173.2.124-.014.187.375h-.187c-.125.233.116.105.187.187v.188h.188v-.187c.367-.075.238.064.375.188-.322.211-.254.119-.375.562.548.128.613.209.75.75-.974.6-.08.841-.75,1.124a1.554,1.554,0,0,0-.937-.562v-.375a1.828,1.828,0,0,1-.75-.187l-.375,1.124H-57.1v1.5l-.375.188v.937l-.375.187-.187,1.312s.382.008.187.187h-.375v.375l1.686-.187-.187-.375h.937v.187l2.249-.375v.187c.387-.066.229-.366.75-.375v.187c.4-.059.532-.506,1.124-.375v.187h.937v-.187h.937c.08.033.031.248.562.375v.75a3.16,3.16,0,0,0-.562.562h-.937v.188H-51.1l-.187.375h-1.124v.187h-.375v.188H-54.1v.188h-.375v.187h-.75v.188c-.237.019-.328-.353-.75-.187l-.187.375H-57.47a18.8,18.8,0,0,1-1.874.562c-.172,1.2-.275,1.34-1.5,1.874l-.187,1.124h-.375c-.15.7-.458.73-.562,1.5l.562-.187v.187h.187a1.619,1.619,0,0,1-.375.375c-.131.293.228.714.188.75h-.375v.187l-.562-.187c.217.684-.019.565-.187,1.312H-62.9v.75h.187a.744.744,0,0,1,.375-.375v.562c-1.215.59-.3.221-.75,1.124l-.375.187v.375h-.187v.937h-.187v.375h-.187l.187.937h-.187v.375l-.375.187c-.111.241.146-.019.187.187.052.26-.093-.06-.187.188v.562l-.375.187.375.562-.375.188c-.455,1-.034,2.293,0,3.373h.375v.187c-.107.105-.732.026-.562.375h.187v.187l.562-.187v.187h.187c.025-.007.08-.348.375-.187v.187c.214.214.075,0,.187.375h-.375v.562c-.185.1-.331.351-.375.375h-.562l-.187.375-.562-.187v.187h-.75l-.749-.937h-.187l-.187-.75h-.187v-1.124c-.018-.049-.332-.074-.375-.375h.187v-.937c.013-.054.245-.056.187-.375h-.187v-.375h-.187c-.084-.551.5-.584.562-.749l-.187-.562.187-.375c-.052-.1-.292-.022-.187-.375h.187v-.375h.187v-.75h.187v-.187l-.187-.187h.187l.187-.75h.187l.187-2.061.375-.187v-.375h.188l-.187-.375h.188v-.75h.187v-.75h.187v-.562h.187v-.375l.375-.187V-501.2h.187v-.562h.188v-.562h.187l.187-1.5h.187a1.466,1.466,0,0,0,.187-.75h-.187v.187h-.562v.187h-.75v.188l-.937.187v.187c-.213.214-.074,0-.187.375-.433-.054-1.295-.421-1.5-.375v.188h-.375v.188h-1.312l-.187.375H-70.4c-.255.071.076.166-.187.187-.184-.135-.081-.288-.375-.375v.188a1.165,1.165,0,0,0-.562.937l-.75-.187-.375.562h-.375v-.375l-.562.187v.188h.187c.354.161-.375.187-.375.187v-.187c-.352-.226-.8-.048-1.124,0l-.187-1.124h-.187v-.187h.187v-.75l.375-.187v-.375h.375v-.375a9.568,9.568,0,0,0,1.874-.75h.562l.187-.375,1.124-.187.187-.375h.562l.375-.75a2.343,2.343,0,0,1,.375.375l1.686.188.375-.562h.937v-.187c.368-.083.242.1.375.187h.375v-.187h.187c.027,0,.068.279.375.187v-.187h.375v-.187l1.686-.187c.174-.687.672-.964.937-1.5l-.187-.562h.375l-.187-.562.375-.187v-.75l.375-.187v-.375l.375-.187v-.562h.187l-.187-.937h.187v-.562l.375-.187v-.937h-.187l.187-1.124h.375v-.75a2.017,2.017,0,0,0,1.312-.75l.187-.375h1.312C-56.673-517.7-56.718-517.748-56.159-517.684Zm-129.847,5.059h-1.125l-.187,1.5h-.375c-.069.786-.36.827-.562,1.312v.75l-.562.375-.187.562h-.187l.187.562h-.187l-.187.75h-.187v.562h-.187v.375h-.187v.562h-.187l-.187.75h-.187v.75h-.187a1.855,1.855,0,0,0-.187.937h-.375c-.118,1.319-1.035,1.844-1.312,3-.642.163-.482.388-1.124.562-.32-.551-.542-.536-.562-1.5.521-.577.1-1.247.375-2.061h.188v-.562l.375-.187v-1.312l.375-.187v-.562h.187v-.375h.187l.187-1.686H-192l.562-2.436h.188v-.375l.375-.187.187-.937h.188v-.562l.375-.187-.187-.75h.375v-.187h.187v-.562h.187c.3-.69-.19-.7.75-.937.413-.38,1.04-.054,1.686,0a4.68,4.68,0,0,0,1.125,1.5Zm-8.619,1.874.187,1.125h-.75v.187a5.132,5.132,0,0,0-.75-.187l-.187,2.061h-.187l-.187.75h-.187v1.124a3.9,3.9,0,0,0,0,1.687l.562.187.187.937-.375.187c-.356.377-.113,0-.562.187v.187h-.375v.187c-.225,0-.881-.46-1.312-.562l-.187-.562h-.187v-.375l-.375-.187v-1.125h-.187v-.375h-.187v-.187h.187v-1.312h.187c.013-.225-.34-.485-.187-.937h.187v-.375h.187v-.562h.187l.187-1.5h-.375c-.333-.2.375-.187.375-.187v-.75h.375c.2-.96.806-1.085,1.312-1.687a4.637,4.637,0,0,1,1.686.937v.375h.187C-194.863-510.866-195.488-511.025-194.624-510.752Zm105.489,3.56a1.261,1.261,0,0,0,.75.937c-.093.231-.071.468-.187.75h-.187v.562l-.375.188-.562.75-3.935,1.5c.115.4.22.451,0,.937h-.187v.375h-.187v.187h.187c.059.258-.153-.075-.187.187v.188h.187c.113.537-.159.863-.187,1.124h.187l-.187,1.5h.187v.375h.187l-.187.937h.187a11.125,11.125,0,0,1-.187,2.249h.187v.375h.187l-.187.562h.187v.375h.187c.156.478-.187.935-.187,1.124v.187h.187v1.124c-.007.034-.275.064-.187.375l.375.187-.187,1.874a.5.5,0,0,1,.187.562h-.187c-.218.849.294,2.132.187,2.623h-.187v3h-.187l-.187,4.122h.187v.375l4.684-.187v-.187c.318-.056.321.174.375.187h1.124a1.257,1.257,0,0,0,.562.562l-.187.562c-.25.089.06.092-.187.188h-.75v.187l-.75.187v.187c-.432.154-.748-.227-.937-.187v.187l-.937.187v.188c-.392.124-.876-.2-.937-.187l-.187.375c-.252-.022-.317-.32-.75-.187v.187l-1.687.562-.562,1.874v.75h-.187v.375h-.187l.187.375h-.187l-.187.75h-.187v.375l-.562.375v.187h-.375l-.562.75-1.312.187v.188h-.562v.187h-1.125v.187l-4.309-.375v-.375l-1.124-.375c-.257-.877-.315-.295-.75-.75l.187-.375c-.373-.36-.347.2-.562-.562h-.562v-.375h-.375l-.187-.375-.562-.187v-.375l-.562-.187v-.187h-1.124a1.753,1.753,0,0,0-.375-.749h-.187v-1.687h.187v-.187l2.249-.375.562-.75h.375v-.187h.187c.389.257,1.045.114,1.686.188l.187.187v-.187h.375v-.187h.562v-.187l.75.187v-.187h.562v-.187l1.124.188v-.187l2.061-.187v-.187h1.5v.187l1.125-.187v-.562h.187v-2.249h.187l-.187-1.5h.187v-.937h.187v-2.436c-.01-.045-.245-.062-.187-.375h.187v-.562h.187l-.187-.375.187-2.436-.562-.187v-.375h.375a1.863,1.863,0,0,1-.187-1.124.5.5,0,0,0,.187-.562h-.187v-.75h-.187v-1.686h-.187c-.051-.26.124.07.187-.187l-.187-.562c.052-.114.268-.014.187-.375h-.187l.187-1.5h-.187v-1.687c-.022-.058-.336-.068-.375-.375h.187v-.375h.187v-.187h-.187v-2.249l-.375-.187v-.375a3.87,3.87,0,0,0-1.874.562h-.375l-.187.375-.562-.187v.188l-1.312.187v.188h-1.124v.188h-.375v.187h-1.125v.188h-.375v.187l-1.687.562-.187-.187a5.916,5.916,0,0,1-3,1.125c-.222.75-.057.231-.562.562v.187h-.375l-.375.937-.562-.187v.562l-.562-.187v.187h-.187c-.12.211-.01.376.187.375v.187h-.375v.188h-1.125v-.187c-.43-.087-.5.108-.749.188v-.75h-.187v-.937h.375a11.692,11.692,0,0,0,.937-2.249h.375c.37-.562.53-.176.75-.937l.562-.187v-.187l.937-.187v-.187h.562l.187-.375h.562v-.187h.375v-.187h.375l.187-.375h.562l.187-.375h2.061v-.375l1.686-.187.187-.375c-.38-.177.11-.153.375-.187v.188l1.312-.187v-.187l3-.375v-.187h.375v-.187h.75v-.187c.214-.214.075,0,.187-.375h.375a9.317,9.317,0,0,1,.375-1.5h.375v-.375a2.128,2.128,0,0,0,1.5-1.124,6.787,6.787,0,0,1,1.124.375v-.187h-.187c-.345-.178.375-.187.375-.187a3.33,3.33,0,0,0,1.686.188c.057-.014.049-.271.375-.187v.188h.375v.187l.937-.187v.187h.375v.188C-89.627-507.214-89.56-507.238-89.136-507.191Zm53.775.75v.375l.562-.187v1.312a1.354,1.354,0,0,1-.75.188c-.126-.112.061-.279-.187-.187l-.187.375-.562.187a2.764,2.764,0,0,1,0,1.5h-.187c-.019.164.214.313.187.75h-.187v.188l.562.375v.187H-36.3l.188,1.124-.375.188.187.937h-.187v.187l.562.188a2.25,2.25,0,0,1,0,1.312H-36.3l.188.562h.187l-.187.75h.187v1.124c0,.012-.317.111-.375.375h.375c.023.32-.5,1.04-.375,1.5h.188l.187.937h-.187l-.187,1.312.375.187-.187,1.124.375.188c.206.6-.342.64-.375.75-.109.37.214.1.375.187l-.187.562h.375l-.375,1.124.375.187a1.822,1.822,0,0,1-.187,1.686c.39.063.386-.09.562.188h-.187l.187.562a4.57,4.57,0,0,1,2.061-.187v.188h.188c.56.074.425-.106.562-.187h.187v.188h1.312v.187l.562-.187v.187h.937v-.187l1.312.375c.214.214.075,0,.188.375l.937-.187v.562l-2.061-.187v.187l-1.125.188v.187h-.375v.187h-1.874v.187l-3.56.562a1.516,1.516,0,0,1-.187.75H-36.3a6.135,6.135,0,0,1,.188,1.874H-36.3v.375h-.187v1.874h-.187v.562h-.187v.937l-.375.188v.375h-.187v.749h-.187c-.2.278-.323.315-.375.75h.187v.187h-.375v.75l-.562.188-.187.375H-39.3l-.375.562-1.874.562v.188h-.375v.188a3.857,3.857,0,0,1-1.874-.187l-.375.188v-.187H-45.1v-.187h-.937v-.187h-.375l-.187-.375-1.686-.375-.187-.562c-.513-.121-.427-.246-.937-.375v-.375a1.263,1.263,0,0,1-.562-.562c-.324.162-.064.022-.187.375h-.187v-.375l-1.5-.937v-.375l-.375-.187-.187-.75-.562-.375-.187-.75-.562-.375v-.749h-.187a3.526,3.526,0,0,1,0-1.874l.75-.187v-.562a2.4,2.4,0,0,0,1.124-.562v-.187l.937-.187.187-.375h.562l.187-.562,1.874-.187.187-.375h1.125v-.187a.747.747,0,0,1-.375-.375h.75v.187l.937-.187a.487.487,0,0,0,.562.187s.11-.32.375-.375c.521.355,4.455-.23,5.434-.187a7.615,7.615,0,0,0-.187-3.373l.187-.75-.375-.187a4.292,4.292,0,0,0,.188-1.686s-.2.039-.187-.375h.188v-.187a.394.394,0,0,1-.187-.375c.149-.214.244.072.188-.187h-.187v-.375h-.187v-3.372h-.187v-.375h-.187c-.074-.318.177-.327.187-.375v-2.249c.009-.041.276-.059.187-.375l-.375-.187.187-1.686v-.937h-.187v-.187h.187v-1.5h-.187v-.75h.187c.05-.315-.176-.324-.187-.375v-1.125h.187v-.187c-.112-.148-.274.063-.187-.187h.187c.267-.589.578-.681.75-1.312l.75-.187V-507h1.311v.187l.375-.187v.375l.375-.187v.188ZM7.921-501.57H7.547l-.188.562-1.874-.375v-.375l-1.874-.375v.188c.511.114.5.214.75.562H4.174c-.253.3-.406.325-.937.375l.187.562a1.342,1.342,0,0,1-.75-.187v.187L-.51-497.636c.163.324.022.064.375.188v.187H-.51v.188h-.562v.188l-.375.187v.375l-.937.562.187.562-.375-.187-.375.562h-.375l-.187.562H-3.7c-.4.463-.956.83-1.125,1.5h-.375a3.172,3.172,0,0,1-.75,1.312l-.375.187v.937c-.165.266-.47.014-.75.187l-.75.937.562-.187v.188h-.187v.188c-.528.385-.485-.337-.749.562H-8.38v.187c.381-.032.375-.187.375-.187.35-.1.462.713.562.937.222.144.113-.148.187-.187.311-.165.162.254.187.375,1.02.108,1.745.719,2.81.937v.187H-4.82v.188h.187v.187l1.124.187v.375h.937v.562h.187v-.187l1.874.562.187.375H.239l.187.375c.431.194,1.459.028,1.874.187l-.187.562c.516-.1,1.261-.366,1.5-.187H3.8v.188h.187l-.187.375h.187v.187l.562-.187.187.375h.375v.188H6.8s-.017.128.375.187l-.187.188.188.375h.375l-.188-.562h.188a1.972,1.972,0,0,0,1.5.937l.375-.187v.188H9.8v.187h.187v-.187l.937.187v.187h-.562v.375l1.124-.187v.188l1.312.187v.188h.375v.187h.562v.187c.407.13.56-.251.749-.187l.187.375,1.5.187a5.186,5.186,0,0,0,1.5.562v.562h.749v.375h-.375l-.187.375-1.312-.187v.188a4.65,4.65,0,0,1-1.874-.187l-1.312.188v-.187h-.937v-.187c-.244.031-.479.329-.937.187v-.187h-.562v-.187L9.8-477.775v.188H9.608v-.187L6.8-478.149l-.375-.562-.187.187-2.061-.187v-.187H3.425l-.187-.375H2.113v-.187l-.75-.187v-.187H.8v-.187H.426L.239-480.4H-.885l-.187-.375h-.937v-.187h-.562v-.187h-.562l-.187-.375h-.937l-.375-.562h-.375v-.187l-.75-.187v-.187h-.562v-.187h-.75l-.187-.375h-.75v-.187c-.269-.158-.321-.13-.75-.187v-.375l-.562-.375v-.187h-.375v-.187c-.579-.349-.935-.382-1.124-1.124-.518-.136-.419-.052-.562-.562-.874-.75-.319-1.978-.562-2.811.64-.37.747-.856,1.124-1.5h.187v-.375h.187a2.675,2.675,0,0,0,.75-1.124c.517-.136.419-.052.562-.562.577-.148.632-.353.75-.937h.375a3.7,3.7,0,0,1,.937-1.5l.375-.187v-.375h.187a3.372,3.372,0,0,0,.937-1.312h.375a4.774,4.774,0,0,1,1.312-1.5l.187-.375h.375v-.187h.187v-.375h.375c.5-.591,1.268-.814,1.5-1.687h.375c.445-.924.689-.719,1.312-1.312L.8-503.07h.375v-.187c.512-.327.339.18.562-.562h.375c.339-1.878,2.189-2.483,4.5-2.436-.193.706-.158.335.187.937h.187v.188H6.8l.187.562H6.8v.187h.562l-.187.375.375.187v.937l.375.187-.187.562h.187Zm-394.786-2.061a8.939,8.939,0,0,1,2.061.562c.3.515.463.337.562,1.125-.6.144-.4.282-1.124.375-.2,1.083-.806,1.578-.937,2.623h-.375l-.562,1.686c-.632.183-.358.227-.75.562v.188h-.375c-.042,1.141-.7,1.767-.937,2.811h-.375l-.187.562-.937.562v-.187c-.676-.388-.6-1.167-.562-2.248a1.069,1.069,0,0,0,.562-.937h-.187v-.187h.188v-.375h.187l.187-1.124.375-.187v-.375h.187l-.187-.375h.187c.13-.447.046-.742.188-1.124h.562a1.647,1.647,0,0,1,.187-.937h.187v-.375h.187v-1.5l.375.187v-.375h.187l.562-.75.562.188Zm247.889.937c.175-.672.489-.591,1.312-.562v.187h.562v.188l.562.187c-.069.232-.3.338-.187.75h.187l.375,1.124-.375.188.187.375h-.187v.75h-.187c-.125.449.12.447.187.562v.188h-.187v.937h-.187l.187.937h-.187l-.187,1.124h-.187c-.256.758.146,1.159-.375,1.686-.37-.562-.53-.176-.75-.937-.428-.445-.215-.907-.375-1.687h-.187c-.018-.264.149.075.187-.187l-.187-2.623h-.187v-.75a6.446,6.446,0,0,1-.375-2.249Zm-255.946,3c.637.165.574.349.562,1.124-1.123.776-.11,1.393-.562,2.436l-.375.187-.187.937-.562.375v.75l-.375.188v.75l-.375.187c-.356.858.534,1.433,0,2.061a2.017,2.017,0,0,1-1.5.75l-1.124-1.312v-.75h.187c.057-.318-.175-.321-.187-.375V-493.7h.187l-.187-.375h.187V-495.2h.187a3.313,3.313,0,0,0,0-1.686h.188l.188-.562h.375v-1.125c.515-.349.4-.688.75-1.124l.562-.187.187-.375h1.686Zm247.514,4.872h.375l.187.562h.187v.375h.187v.375l.375.187.187,1.125h.187v.375h.187v.937l.375.187v.562h.187v.562h.187v.563h.188c.162.267.127.323.187.749l-1.124.375v-.187a2.555,2.555,0,0,1-1.686-2.248c-1.032-.29-.663-.634-1.125-1.312l-.749-.562-.187-.75-.375-.187v-.375l-.562-.375-.187-1.124-.187.187a2.934,2.934,0,0,0-1.124-.187v-.75c-.531-.131-.541-.334-.937-.562a2.381,2.381,0,0,0,.187-.937,4.2,4.2,0,0,1,2.061-.937c.375.529.825.405,1.312.75v.187l.749.562v.375l.937.75Zm111.11.375v.375h-.187v-.375Zm-184.746,1.686c1.288.245,1.528.872,2.061,1.874h.187v.375h.187v.562l.375.187.187,1.312h.187l.188.75h.187l-.187,1.686h.187v.75h-.187c-.1.443.211.5.187.75h-.187l.187,1.124-.375.188-.187,2.248h-.187l-.187.75h-.375c-.172.074-.108.534-.562.375v-.187c-.812-.19-.791-.678-.75-1.687-.375-.5.3-.751,0-1.5l-.375-.187a.5.5,0,0,1,.187-.562l-.187-1.5-.375-.187.187-.375h-.187v-.375h-.187v-1.5h-.187v-.375l-.562-.375-.187-.75-.375-.187a3.134,3.134,0,0,1-1.124-2.623,2.228,2.228,0,0,1,.937.187c.057-.564.025-.51.375-.75v-.187l.562.187v-.187h.375v-.187h.188Zm93.5,6.745h.937l.187.562h-.375v.375h.375l-.187.187.187,1.124s-.246.029-.187.375h.187v1.5a11.965,11.965,0,0,0-.187,3.935h.187l-.187,1.124h.187v.937h-.187c-.052.309.179.333.187.375.094.451-.186.486-.187.75h.187v1.124h.187v.375l.375.187v1.124h.187v.188c-.041.085-.32.039-.187.375l.375.187.187,1.312h.187c.214.214,0,.075.375.187.071.663.232.569.375,1.124l1.125.187v-.187l1.124-.187v-.187h.562l.75-.937.562-.187v-.375l1.686-.375a1.977,1.977,0,0,1-.562,1.312l-.375.188v.75l-.375.187-.187.937c-.346.473-.655-.026-.937.937-.586.143-.9.614-1.312.75l-.562-.187v.188l-2.623.187-.75-.937h-.375v-.187l-.562-.375v-.375l-.562-.375v-.562l-.375-.187v-.75h-.187v-.375h-.187v-1.125h-.187v-.375h-.187v-.75h-.187v-.562h-.187l-.187-3.935a13.829,13.829,0,0,1-.187-3.935h.188l-.187-.937h.188l-.187-.937h.188v-2.81h-.187v-.375h-.187a7.069,7.069,0,0,1,.562-1.312c.2-.244.383-.279.562-.562h.187v.187C-127.908-486.9-127.629-486.8-127.546-486.019ZM-230.224-474.59a3.335,3.335,0,0,0-.562-1.874h-.187v-.937h-.187v-.375l-.375-.187-.187-1.125h-.375l-.187-1.124a.292.292,0,0,0,.187-.375h-.187v-.375l-.375-.187v-.375l-.375-.187v-.562h-.187c-.164-.264-.13-.324-.187-.75-.448-.113-.348-.059-.562-.375h-.187l-.187-.937-.562-.187a4.906,4.906,0,0,0,.375-1.687h.187v.188c.161.354.187-.375.187-.375l1.5-.187c.429.727.613.36,1.124.75l.187.562.375.188v.375l.562.375v.562l.562.375v.562l.375.187v.562h.188v.375h.187v.75h.187v.562h.187v1.124l.375.187.375,2.436h.187v.375h.188l.375,2.436a2.417,2.417,0,0,1-1.5.375c-.18-.237-.416-.2-.562-.375v-.375A1.787,1.787,0,0,0-230.224-474.59Zm68.952.375-.375,1.124h-.187v.375l-.375.187v.937l-.375.187a2.339,2.339,0,0,0-.562,1.5h-.375c-.066.407-.183.362-.187.375v1.125l-.375.187-.187.562h-.187l-.187,1.686-.375.188v.937l-.562.375-.562,2.623h.375v.375l-.562-.187v.375h-.187v1.312h.187c-.048.2-.375.375-.375.375-.117.475.423.363,0,.562.11.241,0,0,.188.187.46.517.573.173,1.311.375,0,0,.064.259.562.188a.314.314,0,0,1,.375-.187v.188h.375v.188l.75-.187v.188l.375-.187v.188h.937v.187a.322.322,0,0,0,.375-.187l.562.187v-.187l2.061.187v-.187l2.623-.187v-.187h1.124v-.187h.75v-.187h1.124v-.187h.375v-.187l1.5-.187v-.375l.562.188.187-.375h.75v-.187l1.312-.187v-.375h.937v-.187a1.882,1.882,0,0,1,.937-.187v.188h.187c-.1.218-.34.31-.375.375l.187.187-.187,1.125h-.187v.375h-.187c-.349.379-.378.131-.562.75-1.238.136-1.7.973-3,1.124v.375l-1.5.188-.187.375h-.375v.187c-.427.152-.519-.228-.749-.187v.187l-1.312.187v.187h-1.312v.187l-.562-.187v.187H-157.9v.188h-1.5v.188c-.264.025.074-.142-.187-.187h-1.124v.188l-2.249.187v-.187h-.375v-.187l-1.125.188v-.187h-1.124v-.187h-.937l-.187-.375-.75.187v-.187c-.214-.214-.075,0-.187-.375-.661-.168-.882-.639-1.5-.937l-.375-3.373h.188v-.75h.187v-1.124h.187v-.375h.187v-.937l.375-.187v-.937h.187v-.375h.187l.187-1.312h.375c-.006-1.765.938-2.152,1.124-3.748h.375l-.187-.562h.187a9.431,9.431,0,0,1,.562-1.5h.187v-.375h.187v-.375l.375-.187v-.75h.187l.562-1.686.562-.187.187-1.124.375-.187v-.562l.562-.375-.187-.375.562-.375v-.75h.187l.187-.75h.187v-.937h.187v-.375h.187l.562-1.874-2.061.375v.188h-.375v.187h-.937v.187h-.562l-.187.375-.375-.187-.375.562h-.562l-.375.562h-.75l-.187.375h-.375v.187h-.375v.187h-.375v.187h-.937l-.562.75h-.375l-.187.562c-.377-.107-.162.022-.375-.187-.9.226-1.517,1.066-2.436,1.312v.375l-.562-.187v.187a1.6,1.6,0,0,1-1.125.375v-.375h-.375v.375a2.38,2.38,0,0,0,.937.188,2.5,2.5,0,0,1-.375,1.124l-.562-.187-.375.562a2.891,2.891,0,0,1-1.5.375v-.187h-.562c-.418-.275-.557-1.138-.562-1.874.671-.455.05-.39.375-.937h.187c.334-.39.383-.117.562-.75h.375c.15-.657.332-.731,1.124-.75v-.375h.75v-.375c-.377-.107-.162.022-.375-.187h.375v-.187h.187v.187h.187v-.187h.562l.187-.375h.375l.375-.562.937-.187v-.375l.562.188v-.187c.214-.214.075,0,.187-.375h.562v-.187a.747.747,0,0,1-.375-.375,4.817,4.817,0,0,1,.75.188l.188-.187.187.188.187-.375h.562l.187-.375.562-.187v-.187l.937-.187.187-.375c.314-.19,1.756-.219,1.124-.75h.75v.188l.375-.187.187-.562a2.288,2.288,0,0,0,1.312,0v-.187l.562.187.187-.375h1.124v-.187l2.061-.187v.188c.49.145.941-.056,1.312.187v.188c.385.313,1.135,1.061.937,1.874h-.187v.75l-.375.188v1.5h-.187v.562h-.187v.375h-.187l.187.75-.375.187v.562l-.375.187v.375h-.187l-.375,1.686-.375.188-.375,1.124-.375.188v1.124h-.187C-161.111-474.189-160.9-474.327-161.273-474.215Zm209.1-11.242a1.828,1.828,0,0,1,.75.187c-.214.213,0,.074-.375.188v.562h.375c.135.517.052.419.562.562v1.124h.188a1.058,1.058,0,0,0,.937.937l-.187,1.124h.375c-.1.459-.2.414-.375.75h.188v.187h.75v.188h-.187a.46.46,0,0,0,.187.562v2.623c-.461-.014-.517-.176-.75-.187-.081.044-.123.277-.375.375v-.187c-.551-.451-.8-1.2-1.312-1.686l-.937-.562v-.562l-.375-.187v-.375l-.562-.375v-.375l-.375-.187v-.375h-.187a1.355,1.355,0,0,1-.375-.937.877.877,0,0,0,.562-.75h-1.5v-.937l-.562.188v-1.5a4.527,4.527,0,0,0,.562-.562l2.061-.375.375.562.562-.375ZM-46.6-479.836v-.187h.937v-.187h.562v-.187h.937v-.187h.937v-.187c.419-.112.541.24.75.187v-.187h.375v-.187h.562v-.187h.75v.187h.187v-.187h.75v-.187h.562c-.335.909.138,2.445-.187,3.56l-.562,1.687-.375.187c-.242.5.034,1.048-.375,1.5-.461.667-.916.267-1.686.562v.188h-.375v.188c-.263-.035.074-.141-.187-.187h-.562v-.187l-.375.188v-.187l-.562.188c-.077-.03-.305-.616-.562-.562,0,0-.073.176-.375.187l-.187-.562c-.541-.136-.621-.2-.75-.75h-.75v-.187h-.187l-.187.187-.749-.937h-.187c.154-.24.159-.206.375-.375v-.187h-.562l.187-.75c-.469.121-.308.1-.562.375h-.187v.375c-.092.133-.247.12-.375.375-.3-.218.256-.1,0-.375-.317-.338-.366.208-.562-.562h-.187c-.1-.25.444-.848.562-.937v-.187h.937l.187-.375h1.124v-.562h.75C-46.678-479.835-46.817-479.622-46.6-479.836Zm-203.67,18.175h-.375l-.187,1.312-.562.375-.187,1.124h-.187v.375h-.187v.562l-.375.188v.937h-.187v.375h-.187v.562h-.187v.375h-.187v.75l-.375.187v1.125h-.375v1.311l-.375.188v2.061a10.917,10.917,0,0,0-.375,2.436c.45.2.6.21.75.75l2.061.75v.188h.562l.187.375h.562l.187.375h.562v.187l1.687.188v.188h.562v.187h.937v.188h.937v.188h2.623c.447.126,3.484.638,4.122.375l.187-.375h.937v-.187h.75v-.187h.749v-.187a1.421,1.421,0,0,1,.75-.187v.75c.021.046.663.352.562.562h-.187l-.187.562-.375.188v.562a11.3,11.3,0,0,1-3.185,1.5h-2.623v.187l-5.246-.375v-.187h-.562v-.187h-.749v-.187l-2.061-.187v-.187h-.375v-.187l-1.124-.187v-.187h-.562v-.187h-.562v-.187h-.562v-.187h-.375v-.187l-1.874-.375-.937-1.124-.562-.187-.187-.937-.375-.187v-.937a3.306,3.306,0,0,1-.562-.562l.562-.375-.187-1.5v-.187h.187v-.75h.187l-.375-1.312h.375a11.731,11.731,0,0,1,.562-1.5l-.187-.937h.187v-.375h.187v-.562l.375-.187v-.562h.187v-.375h.188l.187-1.686.562-.375v-.937h.187v-.375h.188l.187-1.5h.375a1.343,1.343,0,0,0-.187-.75h.187c.214-.214,0-.075.375-.187l.187-1.124h.187l.187-.937h.187v-.375h.187l.187-1.124.375-.187v-.562l.375-.187v-.562h.187l-.187-.562.562-.187v-.375h.187v-.937h.187l.375-1.124h.187l-.187-.562.375-.187a3.374,3.374,0,0,0,.75-1.5h.375l.188-.937h.375l-.187-1.5.375-.187.187-1.5.375-.187v-.375h.187l.187-.562h-2.811v.187l-3.56.375v.187h-.937v.188l-.75.187v.187l-2.81.375v.188h-.375v.187l-1.5.188-.187.375h-1.687l-.375.562h-.75l-.375.562-1.5.188-.187.375a3.823,3.823,0,0,1-1.686.187c-.218-.255-.342-.286-.75-.375.053-1.026.492-1.3.562-2.436h.375c.128-.548.208-.614.749-.75v-.375c1-.018.874-.265,1.687-.375v-.375l.562-.187v.188h.75v-.187h.375l.188-.375c.187-.063.958.351,1.5.187v-.187h.749l.188-.375h1.124s.007-.116.375-.187v-.375c.705-.1.8-.076,1.5-.187v-.375c.575.184.386.066,1.124,0v-.375h1.874v-.187c.313-.05.327.177.375.188h.937l-.187-.562h.562v-.187c.169-.35.187.375.187.375.658.046.869.255,1.312-.187-.564-.057-.51-.026-.75-.375h.75c.2.263.2.453.75.375v-.187l.75.187v-.187h.375v-.187h1.686v.188h1.5v.187h.375v.187h.749v.187h.187a4.163,4.163,0,0,0,.75,1.124,7.214,7.214,0,0,1-.562,1.312l-.375.188-.187,1.5-.375.187v1.312h-.187v.375h-.187c-.021.225.371.343.187.75l-.562.375-.187,1.124-.375.188v.937h-.187l-.187.75h-.187l-.187.75-.375.188v.562h-.187v.375h-.187v.375l-.375.188v.937l-.562.375.187.562h-.187v.375l-.375.187-.187,1.124h-.187v.375h-.187c-.027.242.331.316.187.75h-.187v.375h-.187Zm-106.051-15.926v.562h.562v.375h-.187v-.187h-.187v.187h-.75v.188h-.187c-.188.254.062.57-.187.75s-.575-.07-.75.188v.562h-.187v.375h-.187v.562h-.187l-.187.75h-.187v.75h-.187v.562h-.187v.562h-.187l-.187,1.312h-.187v.75h-.187l-.187,1.874h-.187c-.121.439.217.508.187.75h-.187v1.124h-.187l-.375,3.748h.187v1.312h.187l.188,1.312h.187v.375h.187c.139.394-.257.579-.187.75l.375.187.187.562.562.375v.375l.375.188.188.937.75.562.187.375.562.188v.375l.75.187v.375l.75.187.188.375,1.124.375.188.375.937.188v.188h.375v.187l1.5.187v.187h.75v.188h.937v.187c.429.123.524-.232.75-.187v.187h1.5v-.187h.562v-.187h.75v-.187h.937c.077-.022.043-.231.375-.187a.273.273,0,0,0,.375.187l.187-.375h.375l-.187-.375h.75v-.187c-.214-.214-.075,0-.187-.375l.375.188v-.375c.219-.051.325.326.749.187v-.187h.375v-.187l1.686.187c.3.512.514.458.562,1.312h.188v.562c-.325.264-.053.2-.187.375l-.562.375v.187h-.375l-.375.562h-.375l-.187.375h-.375l-.187.375-.937.188-.187.562h-.187a2.818,2.818,0,0,1-1.686.937v.375c-1.058.262-1.26,1.222-2.249,1.5a3.3,3.3,0,0,1-.937,1.312h-.187v.375l-.375.375h-.375a2.421,2.421,0,0,0-.75,1.312c-.517.135-.419.052-.562.562-.6.138-.682.254-.75.937h-.375l-.937,1.687h-.375l-.562,2.061-.75.562v.562h-.187l.187,1.312h-.562v.187h-.187v.75h-.187l.188,2.436h.187a2.485,2.485,0,0,1,.562.937l.562.187v.187h.375v.188h.375l.187.375h1.312v.187h2.248v-.187h2.436v-.187h.562v-.187h.375v-.187l.562.188.188-.375h.937V-430c.261.046-.027.032.188.188l.75-.375v-.187h.937l.187-.375h.375v-.187l.562.187c-.144-.19-.23-.184-.375-.375l2.436-.562v-.562h.187v-.187h1.124l.375-.562.75-.187v-.187l1.124-.375v-.187h.562v-.187h.562v-.187l.562-.187v-.375l.562.187.187-.375.75-.187.188-.562h.562l.187-.375c.262-.039-.078.181.187.187l1.125-.187a.746.746,0,0,0,.375.375,1.988,1.988,0,0,0-.187.75c-.83.219-.665.7-1.5.937v.375h-.375l-.375.562c-.211.15-.8.149-.937.375v.375l-.562.187v.187h-.375v.188h-.375l-.187.375h-.562l-.187.562c-.758.158-.933.573-1.687.75-.325,1.128-.348.337-1.124.749l-.375.562h-.375l-.375.375h-.375v.187h-.375l-.187.375h-.562l-.187.375-1.124.187v.188h-.375V-427l-1.5.187-.187.375h-.375v.187l-1.686.188v.187a16.538,16.538,0,0,1-5.246.375v-.187h-2.436v-.187h-.749l-.187-.375-1.124-.187v-.187l-.562-.375v-.375c-.187-.21-.379-.131-.749-.187l.187-.562h-.375c-.2-.215-.136-.357-.187-.749h-.375l-.187-1.687.187-.375h-.187v-.562h-.187l.188-.375h-.187a.329.329,0,0,1,.188-.375v-.187h-.187v-.187h.188c.028-.264-.155.076-.187-.187s.055.042.188-.187c-.026-.248-.155-.292-.187-.75h.375l-.187-.187.375-2.436.562-.375.187-1.5.75-.375.937-1.687h.187l-.187-.75c.262.042-.017.02.187.188.319-.037.287-.336.375-.375h.375v-.375h.375c.09-.766.34-.762.375-1.686h.75l.75-1.5c.513-.121.427-.245.937-.375.19-.637.233-.351.562-.75h.187v-.562h.562c.2-.39.3-.332.375-.937l-.562-.187c-.405-.334-1.073.013-1.687-.187v-.187h-.562v-.187h-.562v-.187h-.562v-.187h-.937v-.187h-.375v-.187h-.562v-.187h-.375l-.187-.375h-.375v-.187h-.562v-.187h-.562l-.187-.375h-.562v-.187c-.213-.214-.074,0-.187-.375-.768-.205-.194-.135-.562-.562h-.187v-.187h-.375a2.545,2.545,0,0,1-1.124-1.5h-.375v-.375l-.562-.187v-.562l-.562-.187-.187-.937-.375-.187v-.375h-.187l-.187-.75h-.187v-.937l-.375-.187-.187-.375h-.375c-.337-.191.375-.187.375-.187l.187-.375-.375.187V-459.6c-.288-.364.233-.759,0-1.5h-.187v-.562h-.187v-.187h.187l.187-2.811h-.187c-.281-.936.373-1.548.562-2.061v-.75h.188c-.018-.3-.45-1.312-.187-1.874l.375-.187v-.375h.188v-2.061h.187v-.562h.188l.187-.75h.187l.187-1.124h-.187v-.187l.562-.187-.187-.562.375.188v-.562h.188v-.375h.188v-.187h-.187l.188-1.312h.187c.218-.255.342-.286.75-.375.106-.9.352-.551.562-1.312h-.375c.158-.213-.024-.027.188-.187v-.187c.211-.12.376-.01.375.187h.187v-.375c.213-.213.074,0,.187-.375l.749-.187v.187a1.248,1.248,0,0,0,.937-.187v.187a4.4,4.4,0,0,1,1.686,2.811h-.187C-356.162-477.613-355.95-477.475-356.324-477.587Zm255.946,6.183v.375h-.187l-.187-.375h-.75v-.187h-1.124v-.187H-103c-.091-.066-.587-1.118-.375-1.5h.187l.187-.562c1.037-.2,4.5-.562,4.5-.562a3.582,3.582,0,0,1,1.312.188c-.26,1.626-.678,2.649-2.623,2.623v.375Zm-218.285,0v.562h-.187c-.214.214,0,.075-.375.188.092.835.223.746,0,1.5v.937h-.187v.375h-.187v1.312l-.375.188v2.061h-.187v.375h-.187v1.124h-.187v.375h-.187l-.187,1.5h-.187l-.562.75c-.893-.229-.754-.6-1.125-1.312h-.187v-.375h-.187v-1.5h-.187l.562-1.874v-1.687l.375-.187-.187-1.687h.188v-.937h.187c.134-.469-.2-1.026-.187-1.125h.187a2.32,2.32,0,0,0-.187-.937h.187l.188-.75.375.188.375-.562,1.312-.187v.187l1.124.187a3.506,3.506,0,0,1,.75,1.125h-.187C-318.5-471.378-318.288-471.517-318.662-471.4Zm-9.743,3.56h-.75a23.1,23.1,0,0,1,.188,3.185v2.061h.188l.187,1.5h.188l-.187,1.5.188.562c-.142.173-.253-.069-.187.187h.188v.375h.187l.187.937.562.188-.187,1.124h-.187a3.007,3.007,0,0,1-1.5.562,3.121,3.121,0,0,0-1.312-.75c-.138-.66-.579-.953-.749-1.5-.135-.431.228-.518.187-.749h-.187l-.187-1.312h-.187v-.562h-.187l-.187-2.436h.188l-.187-1.5h-.375l.187-.562h.188c.009-.265-.037.031-.187-.187a1.966,1.966,0,0,0,.188-1.124h-.187v-.75h.188c.009-.085-.416-1.368-.375-1.5l.375-.187.188-.937.749-.187a.369.369,0,0,0,.375.187c.222-.145-.074-.233.187-.187v.187h.75v.187c.239.033.314-.319.75-.187v.187h.562v.188l.562.188-.562.75h.188Zm37.848,2.623c.117.5.706,1.262.375,2.061l-.375.187.188.937h-.187v.187h-.749c-.164-.212-.491-.268-.562-.375v-.562l-.562-.187-.375-.562h-.375l-.375-.562-.937-.187-.562-.749-.749-.187-.187-.375h-2.061c.144.614.366.649-.562.75-.235-.357-.19-.311-.75-.375v-.375c-.518-.135-.419-.052-.562-.562h.187v-1.5l1.312-1.125,2.436-.187v.187l1.312.188.188.375h.375v.187h.375l.75.937h.375l.187.375h.375l.75.937h.187l.187.562Zm-9.181,23.234a4.218,4.218,0,0,1,1.312.75l.187.375.75.188.562.75h.375l.187.375.75.188.562.75.562.187.187.375h.562l.188.375h.375l.187.375h.375l.187.375h.375l.187.375h.562l.187.375,1.874.375.375.562c.068.039.632.137.75.188-.158.213.024.027-.187.188v.187h-.375c-.574.445-.187.7-1.312.749v.187l-.937-.187v.187h-.187v-.187h-2.061v-.187h-.375v-.187l-1.124-.187v-.187l-.75-.187v-.187h-.75l-.562-.75-.75-.187-.187-.375h-.375c-.59-.312-1.127-.574-1.312-1.312h-.562a2.367,2.367,0,0,0-.937-1.124h-.375l-.75-.937h-.375c-.254-.2-.581-1.021-.937-1.312v-.187h.188l-.187-.562h.188v-.187l-.187-.187h.188v-.375c1.3-.261,1.966-.5,3.185,0Zm429.707-12.928.749.187v.375c.925.356.471.107.75.75h.562l.188.562a1.988,1.988,0,0,1,.75-.187v.562c.382.106.167-.054.375.188h-.187v.187h.75v.187c-.652.82.527.781.749,1.125v.375l.937.188-.187.375.375.187v.375c.185.22.527.179.937.187v.375h.188v.375l.562.375v.187l.75-.187v.187h-.187c-.078.124-.116.606-.187.75h.187v.188c.239.182.553-.01.75.187v.187h-.187a2.393,2.393,0,0,0,.562.75c.214-.214,0-.075.375-.187l-.187.562c.449.114.348.06.562.375a1.987,1.987,0,0,1,.75-.187l-.187.562h.187c.151.338.2.715.562.375.3.688-.4.694.562.937v.375l.937.562v.375l.375.187-.187.375.562.188.375.562c.565.414.7.141.75,1.124l.562.188-.187.375h.187c.214.214,0,.075.375.188l.187.75c.761.2.233.083.562.562h.187l.188.562h.375c.133.512.312.57.562.937h.187l-.187.562h.187a1.771,1.771,0,0,1,.375.75c.448.113.348.059.562.375h.187v1.125h.187c.2.291.756.833.375,1.124h.375c.214.213,0,.074.375.187.038.381-.01.554.187.75h.375v.187h-.187v.188h.187V-430h.188c.268.569.249.989.75,1.312.214.214,0,.075.375.188v.375l-.375-.187v.187c.717.469.5.764.375,1.5l.75.562a4.562,4.562,0,0,1,.188,2.061h.375l-.187,1.686h.187l.187,2.623h-.187c-.078.585.586.52.375,1.312h-.187v.562c-.067.257-.224-.075-.187.188h.187v1.687l-.375.187-.375,2.249h-.375v.562h-.187c-.214.213,0,.074-.375.187v.749h-.562c-.038-.85-.586-.959-.375-1.874h.187l-.187-1.124a25.133,25.133,0,0,0-.187-3.747l-.187-3.747h-.187v-.375H150.2L149.83-424l-.375-.187-.187-1.5-.562-.375v-1.124l-.562-.375-.187-1.312h-.187c-.214-.214,0-.075-.375-.187-.122-1.033-.395-.593-.75-1.124v-.375h-.187l-.187-.75h-.187v-.75l-.375-.187-.187-.937h-.375c-.174-.681-.577-.759-.75-1.5h-.375c-.135-.518-.052-.419-.562-.562v-.375l-.937-.562v-.375h-.187c-.329-.512.182-.338-.562-.562l-.187-.562H141.4v-.562l-.562-.375v-.187l-.562-.187v-.375l-.375-.187v-.375l-1.312-.937-.187-.937-1.125-.937-.187-.375h-.375l-.75-.937h-.375l-.187-.375-.937-.75v-.375h-.187l-.75-.937h-.375v-.375c-.826-.489-.99-1.443-2.061-1.686l-.187-.562-1.124-.187v-.562h.375v-.187l-1.686-.937v-.75l-.562-.187c-.237-.213-.018-.43-.187-.75h-.187a1.646,1.646,0,0,1-.187-.937h.187l-.187-1.124h.187v-.187l2.436-.375Zm-86.377,4.871h-.75c-.254.074.078.176-.187.187v-.187h-.187l-.187.375-.75-.187v.187c-.607.382-.588.582-1.311.375l.187.188-.187.562-.375-.187v.188c-.529.31-.639.746-1.312.937v.375h-.562c-.294.486-.776.535-1.124.937.213.213.074,0,.187.375l-1.312.188v.187l.562.375v.187h-.375v.375c-.377-.107-.162.022-.375-.187l-.562.188c.2.389.3.332.375.937h-.562v-.187h.187c.354-.161-.375-.187-.375-.187a1.618,1.618,0,0,1-1.312.75c.214.213,0,.074.375.188l.187.562c-.656-.1-.347-.184-.937,0,.218.255.342.286.75.375v.187h-.937c-.214.213,0,.074-.375.187v.562h-.562v-.375h-.375v.562l-.562.188.188.188c.048.25-.331.879-.375,1.5l-.562-.187-.187.75a1.745,1.745,0,0,0,.937-.187v-.187l1.5-.187.187-.375,2.811-.375c.135-.518.052-.419.562-.562v-.187l1.312-.187v-.187H37.6v-.187l.562.187v-.187h.75l.187-.375h.187v.188l2.248-.375a3.976,3.976,0,0,1,2.061-.187v.187a1.756,1.756,0,0,0,.75.375l.188,1.312h.187l-.187.562h-.937l-.187.562a6.569,6.569,0,0,0-1.5.375h-1.5v.187h-.562v.188H38.158l-.375.562-1.5.187v.188h-.375l-.187.375h-.749v.188l-1.124.375v.188c-.407.147-.519-.148-.749-.187l-.187.375-1.874.187v.375a1.651,1.651,0,0,0-.937.187v.188h-.562l-.187.375h-1.5l-.187.375-1.686.562-.187.562c-.377-.107-.162.022-.375-.187a1.892,1.892,0,0,0-.749.375v.187a4.11,4.11,0,0,1-2.623-.375c-.538-.462-.25-.87-.187-1.686.562-.37.177-.53.937-.75a1.986,1.986,0,0,1,.562-.937h.187l.188-.562h.375v-.187c.276-.26.242-.1.375-.562l.75-.187c.131-1.317,1.186-1.506,1.5-2.623.513-.121.427-.245.937-.375.2-.761.59-.649.937-1.124v-.375l.375-.375h.375l.187-.562.375-.187a3.4,3.4,0,0,0,.75-1.312l.937-.187c.17-.7.6-.672.937-1.124v-.375l.562-.187v-.187a1.418,1.418,0,0,1,.749-.375,1.829,1.829,0,0,0-.187-.75h.749v-.187c.214-.214.075,0,.187-.375.65-.116.968-.309,1.124-.937H36.1v-.375c.663-.071.569-.232,1.124-.375l.187-.562c.254-.111.442-.064.75-.187v-.187h.562v-.187h.375l.375-.562,2.248-.187v.187l.937.188.187.375H43.4C43.691-451.329,43.6-450.54,43.592-450.044Zm-5.246,2.436s-.058.028-.375-.375C38.021-447.937,38.483-447.79,38.345-447.608ZM9.49-440.676h.375v.562l-.562.188a1.623,1.623,0,0,1-.187.937H8.928l-.187.75H8.554l.187.562c-.548.128-.613.209-.75.75h.375a1.939,1.939,0,0,1-.375.375c-.177.412.239.534.187.75H7.991l-.187.562H7.242v.375l.562.187v.375H7.617a.744.744,0,0,0-.375-.375v.187l.375.187v.188H7.242v.375H6.68v.937l-.562.187c.072.2.326.371.187.75l-.187.188H5.931v.562h.187v.188H5.743v.375l-.375-.187v.375H5.181v.562c.041.02.679.27.562.375H5.556c-.2.173.014.124-.375.188v-.187H4.994v.188h.187l-.375.75c.055.093.264.139.375.375H4.806v.187H4.244v.562H3.87v.188h.187c.2.174-.014.124.375.188v-.187h.187v.75H3.495v.187H3.307a2.332,2.332,0,0,1,0,1.312c-.592-.021-.351-.366-.562.187H3.12c-.052.393.009.533-.187.75H2.558l.187.562H2.37v.187L2-423.438v.187H1.808c.239.344.253.022.375.187v.187H2l.187.562H2c-.214-.213,0-.074-.375-.187.013.439.15.478.187.75l-.375.187.187.75H.871v.562H.5a4.05,4.05,0,0,0,.187.75H.5v.375H-.065l-.187.937L-.627-418v.375H-.815l.187.562h-.562v.375h-.187a5.019,5.019,0,0,1,.187.75h-.562v.187h.188v.187h-.187v.75h-.187c-.214.213,0,.074-.375.188a2.228,2.228,0,0,0,.187.937l-.937.187v.187h.187l-.187.375H-3.25v.187h.375l-.187,1.124H-3.25v-.562h-.375a1.461,1.461,0,0,1,0,1.124,1.446,1.446,0,0,1-.562.375c.163.324.022.064.375.188v.187h-.375c-.214.213,0,.074-.375.188l-.187.562.375.187v.188h-.187v.75l-.562-.187v.562h-.187c.008.265-.054.078.187.187-.209.257,0,.067-.375.188a1.972,1.972,0,0,1-.187.937h-.187a1.668,1.668,0,0,1,.187.937l-.375-.187v.75c-.007.015-.293.159-.375.375.265.325.173-.18.375.187h-.375c-.324.359-.035.564,0,1.124H-7v1.125l-.375-.187v.375H-7.56l.187,1.125H-7.56v.375l-.562.375v.375L-8.5-400.2c-.282.611-.091.946,0,1.5h-.375c-.211.521-.328.957-.937,1.124l-.187-.75h-.187v-2.248H-10v-.562h.188v-1.125a5.75,5.75,0,0,0,.562-1.5h.375c-.065-.58-.508-1.022-.375-1.5h.187v-.375h.187v-.562h.187v-.375H-8.5v-.375l.375-.187v-.75l.375-.187-.187-.749.562-.187A2.955,2.955,0,0,1-7-410.7l.375-.187.187-1.5h.187l.562-1.686H-5.5v-.375h.187v-.75h.187v-.375l.375-.187.188-.937.562-.375v-.375h.187v-.75h.187v-.375l.562-.375v-.562h.187v-.375c.072-.124.293-.067.375-.375v-.187h-.187v-.187h.375a4.9,4.9,0,0,1,.562-1.874l.375-.187v-.562l.562-.375v-.749l.562-.375.187-1.312H.122v-.375l.562-.375v-.749l.562-.375.187-1.124.375-.187v-.562H2v-.375h.187v-.562H2.37v-.749l.562-.375v-.562l.375-.187.187-1.124h.188l.187-.75h.187l-.187-.75.375-.187v-.375h.187v-.375h.187v-.562l.375-.187.187-1.5h.187v-.375l.562-.375.375-1.874.375-.187v-.375h.187c.014-.129-.346-.683-.187-1.124.049-.135.423-.079.375-.375L6.68-443.3a.306.306,0,0,1,.187-.375l-.187-.749h.187v-.375h.187l.187-1.124c.55-.32.536-.542,1.5-.562.373-.328.891,0,1.312.188.321.7.541.643.937,1.124-.477.428-.289.7-.562,1.312H10.24l-.187.75H9.865c.013.242.329.475.187.937A5.924,5.924,0,0,0,9.49-440.676Zm111.672,3.56h.375c.059.513.2.888,0,1.125v.187h-.562v.188c.347.144.207-.15.375.187l-.375.187a2.805,2.805,0,0,1,.187.75h-.187v-.187c-.161-.354-.187.375-.187.375h.188l-.187.562H120.6v.75h-.375c.06.15.384.588.187.937h-.187v-.375c-.222-.145-.168.113-.187.187h-.188c.214.213,0,.074.375.187l-.187,1.125c-.262-.042-.022.02-.188-.187-.286.07-.228.175-.375.375h-.187v.187h1.5l-.187-.187.187-.375c.265.081.305.252.75.188a.324.324,0,0,1,.375-.187v.188h1.874v.187c.371.231.6.416.937.187v.375l.562.187v.188l1.124.187v.187l.937.75v.375l.562,1.686h-.375v1.124l.375.188-.187,2.436h-.187l.188,1.5h-.375v.75h-.187l.188,1.124-.937.188v.187c.512.5.229.992.188,1.874h-.375a2.42,2.42,0,0,0-.375,1.5h-.562a4.924,4.924,0,0,1-.187,1.312l-.75.375-.187,1.312h-.375a5.52,5.52,0,0,0-.562,1.124h-.562v.75c-1.245.575-1.69,1.445-3.56,1.5v-.187h-.562l-.187-.375c-.582-.382-.891-.119-1.125-.937h-.375v-.187l-1.5-.937v-.375h-.187c-.18-.228-.139-.362-.375-.562l-.187-3.185h-.562v.75l-.562.187-.187,1.125-.375.187v.75l-.375.188-.187,1.874-.375.188v.375h-.187v.75l-.562.375v.937h-.187l-.375,1.124h-.187v.187h.188v.188h-.187v1.124c-.148.466-.445.968-.562,1.5l-.562.187v.937c.054.259.224-.075.187.188h-.187v.187h.187v.187h-.375l-.187.375H108.8a.273.273,0,0,0,.188.375l-.187.75h-.562c.059.456.289,1.423-.187,1.5h.375v.375c-.518.135-.419.052-.562.562h-.375v1.124l-.375.188v.75h-.187v.375h-.187v.937h-.187a2.44,2.44,0,0,1-2.061.749,5.043,5.043,0,0,1-.187-1.686h.188v-1.5h.187v-.375h.187l.187-1.124h.188v-.75h.188v-.562l.375-.187v-.937h.187l.187-1.874.375-.187v-.375h.187l.187-1.686a9.984,9.984,0,0,0,1.124-3.185h.375l.188-2.249.562-.187a3.409,3.409,0,0,1,.375-1.687h.187v-.937h.188v-.562h.187v-.562l.375-.187.188-1.874h.187v-.375l.375-.187v-.562h.187l.188-1.5h-.187c-.11.379.072.171-.187.375v.188l-.375-.187v.937l-.937.187c-.118.6-.629.614-.187,1.125h-.375c-.248.181-.791-.08-1.312-.187l-.375-.75h.375V-418h1.124l.187.187v-.562h.375v-.375h-1.5c-.039-.815-.218-.667.187-1.312-.03-.429-.355-.207-.375-.375l.187-.562a4.231,4.231,0,0,0,1.312-1.874h.375c.131-.466.1-.3.375-.562v-.187h.375l.375-.375v-.375l.75-.562v-.749A5.477,5.477,0,0,0,113.668-427l.187-.375.375.188v-.187h.187v-.562h.375l.188-.562h.187v-.375l.375-.187v-2.249l.375-.187v-.562h.187v-.937l.375-.187c.308-.712-.1-1.177.187-1.5.211-.322.119-.254.562-.375l.188-1.874h.188l.187-.75.375-.187.188-.562,1.686-.187C120.46-437.989,121.037-438.109,121.162-437.116ZM36.1-434.68c.128,1.056.467.608.75,1.124v.375l1.686.375.187.375h.562v.187c.214.214.075,0,.188.375l.75.188v.375h.375v.375l.562-.187v.188h-.187c-.214.213,0,.074-.375.187.021.592.366.351-.187.562v.375c.518.135.419.052.562.562h.188l-.187,1.124c.13.155.263-.066.188.187l-.375.188a4.342,4.342,0,0,0,.187,1.312l-.562.187v.188h.562v.375h-.375l.187.749-.375.187v.937l-.375.187v.375h.375v.187h-.187l.375,1.124h-.375l-.187.75h.188V-421h-.187l-.187,1.125.937.562v.187h-.187v.188c-.464-.19-.449-.225-.75.187h-.187v.562h.375V-418h-.187v.187h-.562l-.187.562h-.187v.562H38.72v.75h-.187v.375h-.187c-.1.451.273.446.375.75h-.187c-.214.213,0,.074-.375.188v.749l-.375-.187v.187c-.213.214-.074,0-.187.375h-.375c-.089.928-.54.941-.75,1.686l-2.061.188a3.971,3.971,0,0,0-.562-.562v.375h-.187l-.187,2.249h.187v.187h-.187v.375h.375c-.4.767-.336.16-.187,1.124-.561.146-.493.116-.562.75a.892.892,0,0,1,.375.937l-.375.188v.75h-.187v2.436h-.187v1.5h.187v.187h-.375c-.2.217-.13.357-.187.749h.187v-.375l.562.375a2.584,2.584,0,0,1,1.686-.187v.187a1.889,1.889,0,0,0,.75.375l.187,1.686-.562.188v.187h-.375v.187l-1.124.188v.375l-.562-.187v.75c-.449.113-.349.059-.562.375H32.35v.562h-.187v.187h.188v.375l-.187.188.375.187c.021.085-.346,1.158-.375,1.5h-.375v.187H33.1c.176-.763.549-.78,1.5-.75v-.375h.562c.2.389.3.332.375.937-.647.174-.35.244-.75.562l.187.937h-.75v.375h-.375v.375h-.375c-.372.441-.756.44-.937,1.124l-.937.188c-.035,1.309-.383.536-.75,1.124-.082.131.369.39.188.75h-.187c-.442.611-.965.6-2.061.562v-.187l-1.124-.187v-.187c-.214-.214-.075,0-.187-.375-.592-.146-.794-.5-1.312-.75a1.987,1.987,0,0,0,.188-.75l-.75-.187v-.75h.375v-.375c-.233-.18-.369-.607-.562-.75h-.375l-.187-.375c-.481-.35-.343.2-.562-.562l-.75-.187c-.055-.933-.835-2.312-.562-3.185h.187c.12-.335.081-.486.188-.75l.937.187-.187-.562h.188c.211-.322.119-.254.562-.375a3.3,3.3,0,0,1,.375-.937l.375.187.188-.375a1.155,1.155,0,0,1,.937,0l.187-.375h.937v-.187l1.124-.187v-1.5h.188v-.375h.187a.288.288,0,0,0-.187-.375v-.187h.187c.057-.337-.187-.375-.187-.375-.057-.327.17-.308.187-.375v-1.686a30.483,30.483,0,0,0,.562-9.181l-1.124.187v.188c-.307.074-.343-.182-.375-.187a.33.33,0,0,0-.375.188l-.562-.187.187.562h-.187v.562h-.187l.187,1.124H27.1c-.247,1.072-1.053,1.177-2.436,1.124-.146-.67-.357-.8-.562-1.5h-.187c-.037-.263.14.073.187-.187v-3h-.187c-.03-.264.136.072.187-.187v-2.811h.188c.169-.647-.307-2.306,0-3.373h.187v-1.686h.188v-.375h.187v-1.125l.375-.187c.175-.436-.21-.729-.187-.937h.187v-.562h-.187v-.937h-.187c-.026-.214.328-.487.188-.937h-.187v-.375h-.187v-.187h.187v-.75h.188v-.187l2.623-.375.188-.937c1.057-.1,1.239-.719,2.248-.937l.187-.562.375.188.188-.375h.562v-.187l.75-.187v-.375h.375c-.107-.458-.2-.413-.375-.75h.562l-.187-.562.562.188.187-.375h.375v-.187Zm25.107,6.37v.937l-.562.188a1.922,1.922,0,0,0,.375.375v.937l.375.188v.187H61.2a3.467,3.467,0,0,1-1.5.937c.214.213,0,.074.375.187-.138.6-.254.682-.937.749v.562h.375v.937l-.562.187-.187-.187v.187h.187c.177.354-.107.786-.187.937h-.187v1.125h-.187v.375h.187c.664.78,1.774.749,2.623,1.312l.375.562h.375l.188.562a10.562,10.562,0,0,0,1.124.75,2.443,2.443,0,0,1-.375.375v.749h.188a5.125,5.125,0,0,0-.187.75h.375l-.187.562H62.89l.188,1.874H62.89l-.187.562h-.187l-.375,1.874.187.375h-.187v.562h-.187v.188l.375.187v.375h-.562a6.511,6.511,0,0,0-.187,1.312l-.562.187a1.413,1.413,0,0,1-.187.75h-.187l-.187,1.5H60.08v.375h-.562a6.452,6.452,0,0,0-.187,1.312h-.375v.937l-.562-.187v.749h-.375c-.1.2-.343.318-.375.375v.562l-.375.187-.187,1.124-.375-.187v.375h-.562c-.134.523-.22.476-.562.749v.188h-.562l-.187.375a2.994,2.994,0,0,1-1.686.749v-.187h-.562l-.187-.375c-.632-.425-.886-.263-.937-1.312h-.187v-.562H50.9v-.75l-.937-.562c-.211-.4.2-.75.187-.937h-.187v-.375h-.187a.5.5,0,0,1,.187-.562c.08-.573-.262-.277,0-.75h-.187c-.4.66-.874.624-.937,1.687l-.562-.187v.562H47.9l.375.562h-.562a1.812,1.812,0,0,1-.187.937h-.187l.188.562h-.187a1.446,1.446,0,0,1-.562.375l.188.562-.75.188c-.111.6-.283.377-.375.562v.75l-.562.188c-.189.135-.275.737-.75.562v-.187a1.059,1.059,0,0,1-.937-.937h.187l-.187-.937v-.187h.187v-1.124l.562-.187-.187-.562.375-.187.187-.937.375-.187v-.937h.188v-.375l.562-.375.187-.75.562-.375-.187-.187.188-.75h.375l.187-.562.375-.187.187-1.124.375-.187v-.375l.375-.187v-.375l.375-.187.188-1.124h.187l.187-.562.375-.187v-.562l.375-.187.375-1.686.375-.187.187-.75h.187v-.375l.375-.187v-.562h.187v-.562l.375-.187.188-1.5h.375v-.749l-1.874-.187v.188H49.775l-.375.749-.375-.187v-.187h-.187v.187H48.65v.562h-.375v-.187c-.27-.087-.263.323-.375.375h-.562c-.525.247-.5.7-1.311.749v-.187H45.84v.375h-.375v.375h-.375c-.107.216-.332.3-.375.375v.562l-.75.375.187.375h-.187v.187H42.842v-.187H42.28v-.187h-.187l-.187-.562h-.187c-.27-.72.007-1.107-.187-1.686a1.117,1.117,0,0,0,.562-.562v-.375l1.686-1.5V-418h.375v-.375c1.031-.047,1.185-.545,2.061-.75v-.375l.187.188.562-.187v-.375l1.124-.187v-.187h2.249v-.187a15.691,15.691,0,0,1,3.56,0,1.568,1.568,0,0,1,.375-.937h.187l-.187-1.124h.187a6.08,6.08,0,0,0,.375-2.061l.562-.187a1.689,1.689,0,0,1,.562-1.686l.375-.187v-.75l.375-.187v-.375h.187v-.375h.187l.187-1.125.375-.187.749-.937h1.125l.562.75.562-.187v.188h.187v.562h.187l.187.562-.375.188v.187ZM35.16-424.562h.187c-.022-.368-.26-.035-.375-.375.231-.2.1.012.187-.375h.187v-.187c-.2-.4-.056-1.063-.187-1.686h-.187l.187-.562h-.187v-.187l.375-.187c.059-.2-.314-.335-.187-.749h.187a1.726,1.726,0,0,0,0-1.312c.569.04.767-.061.937.375v.562l.749.375c.03.663.5,3.387.188,4.122l-.375.188V-424h-.187v.562h-.187v2.061c-.036.085-.247.03-.375.562h-.375v.188c.263,0,.267.49.188.75h-.187v.749l-.937.75c-.213.21,0,.08-.375.187-.212-.21,0-.08-.375-.187.266-.9.365-.177.75-.562a3.959,3.959,0,0,1-.187-.75h.375v-.187H34.41a2.332,2.332,0,0,1,0-1.312h.375l.187-1.874h-.187v-.187l.375-.187v-.187h-.375v-.749h.187V-424h.375Zm-3.372-4.5a1.147,1.147,0,0,1,0,.937H31.6c-.18.576.224,1.408.188,1.687H31.6v.75h-.187l-.187,1.124c.023.264.227-.075.188.187h-.187a2.049,2.049,0,0,0,0,1.312,12.133,12.133,0,0,0-3,.375l-.375-.937a1.824,1.824,0,0,1,.749-.187l-.187-.375h-.187c-.03-.286.485-.432.562-.562l-.187-.375h.188v-.75H28.6a1.867,1.867,0,0,1-.187-.937h.562c.05.785.226,1.072,0,1.687a1.446,1.446,0,0,1,.562.375,1.4,1.4,0,0,0,.375-.562H30.1c.127-.283-.187-.375-.187-.375l.188-.562-.375-.187v-.375H30.1V-427l-.562-.187v-.187a.745.745,0,0,0,.375-.375h.562l.187-.937C31.47-428.727,31.3-428.8,31.788-429.059Zm-59.4,4.122c-.111.931-.793,1.456-.562,2.436h.187c-.036.4-.113.049-.375.187.2.307.022.026.375.188l-.187.562-.375-.187v.187h.187c.354.161-.375.188-.375.188l.187.75h.187v-.187c.161-.354.187.375.187.375h-.375a3.045,3.045,0,0,1-.562.562l.187.562h-.375l-.187,1.874h-.187v.375h-.187v1.5l-.562.375c-.174.462.261.858.375,1.125h-.75a1.341,1.341,0,0,0,.187.749h-.187c-.253.3-.406.326-.937.375-.211-.322-.119-.254-.562-.375l-.187-.937h-.187v-1.124h.187l-.187-.75h.187v-.937h.187l-.187-.75.375-.187v-2.249h.187v-.375h-.187V-421l.375.188v-.75c.307-.361.193-.992.375-1.5h.187v-1.312h.187v-.75h.187l.187-.75h.187l-.187-.937.375-.187.187-1.312h.187c.2-.244.383-.279.562-.562l1.874.375-.187.375h.187v.562l.375.187-.187.562h.187v.375h.187l.187.562h-.187v.188l-.562.187.187.562Zm-7.495,1.874h-.375c.1.459.2.414.375.749h-.187v.188h-.562l-.187.562.187.562-.937.562c-.2.4.229.535.187.749h-.187v.562h-.187c-.086.276.2.735.187.75h-.375c-.432.412-1.391.1-1.874,0l-.187-.562a10.659,10.659,0,0,1-.187-3.56.462.462,0,0,0,.187-.562,3.123,3.123,0,0,1-.375-.375l.562-.375c.111-.312-.18-.34-.187-.375v-.937h-.187v-.375H-39.6c-.01-.156.183-.339.187-.75l1.124-.187V-427c.442-.3.286-.517.562-.75l.562-.187-.187-.562c.157-.255.879-.18,1.312-.187l.937,1.125h.187c.077.172-.37.363-.187.749l.75.562v.188h-.188c-.05.26.123-.07.188.187v.188h-.188l.188.562c-.5-.182-.423-.25-.937,0v.187l-.562-.187v.187h.187l-.187.75.562-.187v.187h.187v.562h-.187Zm121.415-5.246.187.562h.562l.187.75h-.187v.937h.187v.75l-.187.187h.187v.375c.029.052.274.188.375.375h-.375v.187H86.124c-.525.177-.92.6-1.5.75-.007.4.083.595-.187.75v.188c.064.078.3-.058.562.375h-.75c-.155.6-.221.544-.937.562v.75l-.562.188.187.937a2.933,2.933,0,0,1-1.124.187c-.131.556-.316.433-.375.562V-418h-.187c-.349.49-.638.54-.75,1.312h-.375a1.981,1.981,0,0,1,.187.75h.375c-.214.213,0,.074-.375.187-.266.4-.49.379-.937.562v.375h.188c.107-.377-.023-.162.187-.375v.562l.562-.187v.188c.43.372.332.155.375.937H80.5a.744.744,0,0,0-.375-.375v.187h.187v.188a3.427,3.427,0,0,0,1.125.562v.375c.943.237,1.035.978,2.061,1.124v.375h.375l-.187.375h.562v.375c.513.121.427.245.937.375-.163.324-.022.064-.375.187v.188h.375c.3.326,1.565.736,1.686.937v.375l.562-.187v.188c.451.2.6.21.75.75a2.939,2.939,0,0,1,1.687,1.312l.562-.187c-.124.6-.278.368-.375.562l.187.187a1.823,1.823,0,0,1-.187.937l-.375-.187-.187.375H87.249l-.187-.375-.937-.187-.375-.562h-.562l-.375-.562h-.375l-.375-.375h-.375v-.187h-.375v-.187h-.375l-.187-.375h-.375L82-408.074l-.75-.187-.187-.375h-.375l-.562-.75h-.375l-.562-.749h-.375l-.562-.75-.562-.187-.187-.75-.562-.375-.187-.562-.375-.187a2.192,2.192,0,0,1-.562-1.5h-.187v-1.124h.375l.562-1.686h.375a2.4,2.4,0,0,1,.562-1.5l.375-.187v-.375l.375-.187v-.562l.75-.562V-421l.562-.375v-.375l.375-.187v-.375l.375-.187.562-1.687c.513-.121.426-.245.937-.375a4.215,4.215,0,0,1,.75-1.5h.375v-.187l.75-.562c.171-.2.076-.6.188-.749h.187c.214.213,0,.074.375.187.193-.758.083-.237.562-.562l.187-.375Zm32.789,1.686v-.187l.375.188.188-.375.749-.187.188-.375h.375v-.187a3.954,3.954,0,0,1,2.248.187c.464.13.309.089.562.375h.187v.375h.188v.562l.375.188-.187.937h.187v.937h.188c.052.312-.177.329-.187.375v2.061h-.187l-.187,1.686h-.187v.375h-.187v.75l-.375.187v.75h-.187v.375l-.375.187-.187.937-.375.187-.187.75h-.187a1.5,1.5,0,0,0-.375,1.124c-.849.214-.857.748-1.125,1.312-.374.113-.161-.026-.375.188a3.884,3.884,0,0,1-1.5-.187v-.375c.374-.113.161.026.375-.187h.187c.1-.2-.715-.68-.749-.75v-.562c-.374-.113-.161.026-.375-.187a3.441,3.441,0,0,1-.562-1.312h.188v-.187s-.151-.033-.187-.375h-.375v-.375c.541-.136.621-.2.749-.75a3.35,3.35,0,0,0,0-1.5H117.6l.187-.562h.375c-.072-.972-.368-.927-.375-2.061h.375a1.876,1.876,0,0,0-.187-.937h-.187v-.937l.562.188v-.187h.187c-.3-.417.181-.429,0-1.124h-.187v-.187h.375l-.187-.375h-.187l.187-.562Zm-115.794.937c.168.077-.361.367-.375.375l.187-.375Zm178,2.623c.12.532.347.495.375.562.1.245-.137-.052-.187.187v.188a.43.43,0,0,1,.188.375H181.5V-421h.188a2.91,2.91,0,0,1,0,1.5v.937h.187c.049.26-.146-.074-.187.187-.059.377.187.375.187.375l-.187,1.124h-.375l-.562,2.061-.375.188v.749h-.187c-.214.214,0,.075-.375.188v.562h-.187v.188h-.562v.187l-.75.562c.214.213,0,.074.375.187v.562h-.75v.187h-.187v.562h-.562v.562c-1.226.663-1.941,1.772-3.748,1.874-.176.763-.549.78-1.5.749v.188H171s.011.246-.375.187v-.187h-.562v.187h-.187v-.187h-.75v-.187l-.75-.187-.187-.375-.937-.749-.187-.75h-.187v-.75h-.187v-.562h-.187l.187-1.5h-.187l.187-.75h.188v-.75h.187v-.375h.188v-.75l.375-.187v-.749h.188v-.562H168v-.937l.375-.187V-418h.375a.745.745,0,0,1,.375-.375l-.187-.187a5.482,5.482,0,0,0,.188-.75h.375l.937-1.312.75-.187V-421l.75-.187v-.187c.2-.209.185-.061,0-.375h.375c.47-.393-.006-.7.937-.937l.187-.562.187.187h.188v-.187h.562v-.187h.188v.187l.749-.187.188-.375,2.249-.187a3.194,3.194,0,0,1,1.686-.187V-424h.375l.187.375h.562v.188A1.6,1.6,0,0,0,181.308-423.063Zm-283.316.187c.116.65.309.968.937,1.124v.562c.448.113.348.059.562.375h.187v.75h.187v.375l.375.187v.75l.375.187-.187.937h.187v.375h.187c.035.262-.06-.045-.187.187l.187.75h-.562v-.75l-1.124-.375V-418h-.375v-.187l-.375-.187v-.375l-.75-.562v-.75h-.562v-.187h-.187v.188h-.937c-.7-1.189-1.688-1.087-1.874-3,.684-.409.654-.744,1.874-.75v.187h.937l.187.375h.375v.187ZM8.554-421.751l.749.187c-.107.377.023.162-.187.375L9.49-419.5l.562.188c-.641.684-.232,2.456.188,3.185l.375.187c.177.41-.2,1.009-.187,1.124h.187v.937h-.187c-.109.4.2.87.187.937-.029.122-.427.087-.375.375h.187v2.061l.375.187-.187.562h-.187c-.06.292.36.9.187,1.5h-.187v.937H10.24l.187.375H10.24l.187.937H10.24v2.061h.187l-.187.75v.75l-.375.187.187.562-.375.187v.375h.375v.187H9.865v.937l-.375.187a6.353,6.353,0,0,1,.187.749h.187a2.973,2.973,0,0,0-.187.937h.187v.187l-.375.187v.75H9.3v.375H9.116c.036.324.429,1.29.187,1.874l-.375.187c-.126.342.112.272.187.375,0,.4-.187.375-.187.375v1.125l-.375.187c.027.255.312.314.187.75H8.554v.75H8.366v.75H8.179v.375H7.991c.016.227.354.5.187.937-.052.138-.42.078-.375.375h.187c.072.674-.4,1.135-.375,1.312l.375.187c.1.525-.6.78-.749,1.124v.75H7.055v.375H6.867a.524.524,0,0,0,.187.562l-.187.375a.33.33,0,0,1,.187.375H6.867l.187.562H6.68c-.294.344-.024.26,0,.749l-.375-.187-.187.562-1.5.187c-.218-.255-.342-.287-.75-.375l-.187-2.248H3.87v-.187l-.187-.375.375-.187v-1.5h.187v-.75h.187v-.937h.187v-.375h.187v-1.686a7.041,7.041,0,0,0,.375-1.687l-.187-.562h.187v-.562l.375-.187-.187-.937h.187v-.562h.187v-.562h.187v-1.687h.187v-.937h.187c.118-.44-.217-.507-.187-.75h.187v-2.623l.375-.187v-2.623h.187l-.187-.75.187-2.436h.187a6.512,6.512,0,0,0-.187-1.874h.187v-.375h.187v-.187H7.055c-.031-.4.187-.375.187-.375l-.187-1.125.375-.187v-.187H7.242v-1.874H7.055v-1.874l-.375-.187.187-1.124H6.68v-.375H6.493c.018-.236.341-.485.187-.937H6.493l-.187-.75c-.741.063-.545.181-1.124,0a1.017,1.017,0,0,1-.375.75c-.214-.214,0-.075-.375-.187-.3,1.617-1.092,1.149-1.874,2.061.216.169.22.135.375.375H2.745v.187H1.808l-.187-.562H1.434v-.562H1.246v-.187c.6-.144.4-.283,1.124-.375a2.878,2.878,0,0,0-.187-.75l.375-.187v-.562h.187c.214-.214,0-.075.375-.187v-.375H2.933v-.187H3.12a.307.307,0,0,0-.187-.375l.187-.562h.187v-.375l.749-.562.187-.937.562-.187v-.187h.375l.187-.375h.375v-.187H7.055v.187a1.363,1.363,0,0,1,.75.375v.188h.375v.187C8.455-422.059,8.435-422.222,8.554-421.751Zm49.84.749v.562h-.187L58.019-421Zm119.167.562a3.592,3.592,0,0,1,1.312.187v1.5h.188v.187h-.187v.375h-.187l-.375,1.686c-1.061.291-.376.326-.75.937l-1.312,1.124v.562h-.188v.188H175.5l.187.562h-.375v.188c-.318.309-.415.211-.562.75-.93.222-1.007.835-2.061.937v.562l-2.436.375-.187-.562h-.187l.187-.562h.187v-.562h.188l-.187-.937.562-.375.375-1.124h-.375v-.75h.75l-.187-.749a3.3,3.3,0,0,1,.937-.375c-.092-.2-.357-.341-.375-.375l.375-.75h.188V-418h.937v-.375h-.375v-.187l1.124-.187v-.187h.375v-.187h.937l.187-.375c.262.04-.059.089.188.188.1-.013.776.109.562-.187h-.187v-.187h.375v-.375C177.154-420.114,177.307-420.142,177.56-420.44Zm-119.167.375h-.187v.187h-.187v-.375C58.393-420.14,58.181-420.279,58.394-420.065Zm-459.124.187.562.187v.187l.937.188.187.562h.188l-.187.562h-.187v.375h-.187v.562h-.187v.375h-.187v.562h-.187v.75h-.187v.375h-.187v.75h-.187v.562h-.187v.375h-.187v.937h-.187v.75h-.187v.75h-.187v.375h-.187l-.187,1.125h-.187l-.187,2.248h-.187l-.375,1.687c-.338.177-.295.259-.75.375v-.187l-.562-.375v-.187h-.375v-.187h.187l-.187-.562h-.187l-.375-.562h.187v-1.312h.188v-.375h.187v-2.249h.187v-.75l.375-.187v-.562h.188v-1.874h.187l.188-.75h.188a3.674,3.674,0,0,1-.187-1.312h.188l-.187-.562.375-.187v-.937l.375-.187.187-.562h.187v-.375C-401.955-419.817-401.043-419.608-400.73-419.878Zm406.848.187v.75H5.931v-.75Zm22.859.187v-.187h.75v.187h-.375v.562h-.375c-.113.374.026.161-.187.375v.187l-.375-.187-.187.375.188.188-.562.187V-418h-.187v-.187h.375c.142-.555.3-.461.375-1.124l.75.187C29.051-419.5,29.19-419.289,28.977-419.5Zm-437.951.562v.375h.375l.188,2.436h-.187v.562h-.187v.937h-.187v.375h-.187v.562h-.187v.75h-.187v.375h-.187v.75h-.187v.375h-.187l-.187,1.686h-.187v.375l-.75.562.188.562h-.187v.375h-.187v.562h-.187v.375h-.187v.562h-.187v.375h-.187c-.373,1.057.924,1.651-.375,2.061a1.982,1.982,0,0,1-1.5.375l-.375-.562h-.187v-.562l-.375-.187v-2.81h.375a3.048,3.048,0,0,1,.375-1.687l.375-.187V-410.7h.187v-.375h.187v-.375l.375-.187a12.317,12.317,0,0,1-.187-1.312h.375c.32-.55.542-.536.562-1.5h-.187l.188-.562h-.187l-.187-.75h.188c.214.214,0,.075.375.187a1.344,1.344,0,0,1,.187-.75h.187v-.75l1.124-1.5h.375c.169-.133.147-.387.375-.562v.188Zm524.141,0v.187h.187a5.267,5.267,0,0,1-.187.75l.187.375h-.187c-.376.484-.445.065-.562.937h-.375l.187-1.5c.554-.211.209.03.187-.562Zm-112.234.375H3.12v-.187h.187v.375C2.933-418.492,3.146-418.353,2.933-418.566Zm53.587,3.747h-.187l-.187-.75h.188v-.562h.187v.187c.179-.095.34-.356.375-.375h.562v-.187h.188c.318.384.425.156.749.375v.187a1.291,1.291,0,0,0,.937.375l.375,1.124h.187l-.187,2.436h-.187l.187.937-.375.188v.375l-.562.375c-.141.329.15.3.187.375-.037.262-.117-.068-.187.187v.75h-.187v.562h-.187v.562h-.187v.75l-.375.187v.562l-.375.188v.375H57.27v.562h-.187v.375h-.187v.562l-.375.188v.562l-.75.562v.562l-.562.375v.375c-.376.474-.683-.016-.937.937h-.75l.188-.562h-.562v-.562h.187a.352.352,0,0,0-.187-.375v-.187h.187v-.562h.187s-.026-.729-.187-.375v.188h-.187v-.937s.247.01.187-.375h-.187v-.75h.187l-.187-.937h.187l.187-.75H53.9v-.937c-.015-.061-.239-.053-.187-.375,0,0,.242-.048.187-.375H53.71v-.187H53.9v-.937H53.71v-.187l.375-.187v-.375h.188l-.187-.937a1.446,1.446,0,0,0,.562-.375h.187l-.187-.562h.375v-.937l.375-.187v-.749h.187v-.187l.75.188Zm6.183-.937v.375h-.187v-.375Zm-28.106.937-.375.562h-.375v-.187c.444-.121.351-.052.562-.375Zm-86.867,5.808v.375a5.154,5.154,0,0,0-2.249,0l-.187.375h-1.874l-.187.375-3.185.188c-.335,1.04-.237.179-.937.562l-.562.75-.75.187-.187.375h-.375l-.75,1.312c-.513-.121-.427-.245-.937-.375v.187c.405.266.377.443.375,1.124h-.562v-.187h-.187v-.937a11.029,11.029,0,0,1,0-3.185h.375l-.187-.75c.338-.177.295-.259.75-.375l.187-.562a2.678,2.678,0,0,0,1.5-.375v-.187l1.124-.187v-.187h1.687v-.187h.375v-.187h.75v-.187h1.124v-.187h.375v-.187h2.436l.562-.187,1.686.562,1.125,1.686h-.187C-51.426-409.055-51.652-409.029-52.269-409.01Zm-85.323,4.5a4.852,4.852,0,0,1,1.686.375h1.5v.188h.187a.492.492,0,0,1,.562-.187l.187.375h1.125a14.734,14.734,0,0,0,3.935.562v.375a7.268,7.268,0,0,1,3-.187v.187h.375v.187c.778.249,1.123-.735,1.5.562h.187v.187h-.187l-.187.562c-.55.131-.441.321-.562.375h-.937v.188h-.562v.188c-.431.132-.818-.209-.937-.187v.188h-.375v.187c-.706.179-.548-.52-1.125-.375l-.187.375-1.687-.187v.187h-.187v-.187h-.75v-.187h-.187l-.187.375-1.124-.187v-.187l-1.686-.187v.188h-.187v-.187h-.375v-.187h-1.124v-.187h-.375v.187h-.187v.749h-.187l.188,2.436h.187a1.656,1.656,0,0,1,.187,1.124h-.187v.187h.187v2.248s.242-.03.187.375h-.187l.187.375a.316.316,0,0,0-.187.375h.187v1.125h.187v2.248h.188v.188h-.187l.188,1.124h-.187v1.312l.375.187v3.185h.375a7.232,7.232,0,0,0,0,3.185h.187l-.187,2.061.562.375v.187l.937.187v.187l.562-.187.375.562h.375v.188h.937l.187.375h.562v.188h.375v.187h.937l.187.375h1.124l.187.375h1.125a3.454,3.454,0,0,0,.562.562l-.937,1.312a2.991,2.991,0,0,0-1.5-.187,7.227,7.227,0,0,1-1.687.375l-.187-.375h-1.874v-.187h-.562v-.187h-.375v-.187c-.241-.027-.318.335-.75.188v-.187h-.375l-.187-.375h-1.124a10.857,10.857,0,0,0-1.125,2.436h-.749c-.279.739-.251.946-1.125,1.125v.375h-.937c-.108.377.022.162-.187.375v.187h-.375l-.187.375h-.562v.187h-.187v-.187h-.75v.187h-.375v.188c-.916.319-1.008-.517-1.312.188h-1.124l-.187-.375h-.937v.188a4.384,4.384,0,0,0-.75-.187v-.375h-.562v-.187h-.187v-.75h-.187v-.187h.188v-.75a7.553,7.553,0,0,1-1.687-.187c-.177-.338-.259-.295-.375-.75h-.187v-.562h-.375v-2.436h.187l.188-.75c.235-.126.255-.294.375-.375h.375l.375-.562h.375l.375-.562c.248.011.32.331.75.187v-.187h.375v-.187l1.5-.187v-.187h.375l.187-.375h2.061c1.183-.326,2.816.178,4.309.187l-.375-3h.187v-3h-.187l.187-.75h-.187v-.375h-.187v-2.81h-.187v-2.623h-.187v-1.124h-.187v-.187h.187l-.187-2.436a.485.485,0,0,0,.187-.562h-.187v-.375h-.187v-1.124h-.187v-.937h-.187V-400.2l-.562-.375.187-.937h-.187v-.375h-.187l-.187-.937-.375-.187v-.75h-.187v-.187h.187v-.187h-.187v-1.5c-.157-.477-.88-.963-.562-1.874h.187l.187-.937h.187l.187-.562c.774-.035,2.9-.411,3-.375l.187.375h.562v.188c.436.243.266-.076.562.375h.188c.078.124.116.606.187.75h-.187c-.524.7-.477.034-1.124.375l-.562.75h-.187v.562h.187v.562h.187A1.365,1.365,0,0,1-137.593-404.513Zm44.2,4.871h.375a21.094,21.094,0,0,0,.562,2.249v1.312h.187v.375h.187c.082.324-.174.321-.187.375v2.436h-.187l.375,1.312h-.187v.375l-.375.188v1.5h-.187l-.187,1.874H-93.2v.375h-.187v.75h-.187v.562h-.187v.562h-.187c-.107.319.238.685.187.75l-.562.187-.187,1.5-.562.375v.562h-.187v.375l-.375.187v.562l-.375.187-.187.937h-.375a2.3,2.3,0,0,1-.562,1.124h-.187v.375l-.562.375v.562l-.562.375v.375l-.75.375v.75h-.187c-.266.349-.231.428-.75.562v.562l-.749.562-.187.562-.562.187v.562l-.375.188v.375h-.187a1.491,1.491,0,0,0-.375.75h-.375v.188h-.375l-.187.375h-.187c-.2.355.118.713-.187.937h-.562v.188c-.344.278-.42.227-.562.749h-.75v.562c-.389.2-.332.3-.937.375a1.826,1.826,0,0,1-.187.75,6.748,6.748,0,0,1-2.623.937c-.214-.213,0-.074-.375-.187a3.945,3.945,0,0,1,.375-1.5h.375c.157-.615.584-.886.937-1.312H-108v-.375l.375-.187v-.375l1.312-1.125v-.562l1.124-.937v-.562l1.312-1.124c.618-.625.7-1.614,1.687-1.874.112-.545.535-.6.187-.937h.375l.187-.562h.188v-.375h.187v-.375l.562-.375v-.562l.375-.187v-.187l1.125-.937v-.937h.187l.187-.562.562-.375.188-1.124h.187v-.375l.375-.187v-.562h.187l.187-.749h.187v-.75h.187v-.562h.187v-.75h.187v-.937h.187v-.375h.187v-.562h.187v-1.125h.187l.187-5.621h-.187v-.375l-.562-.375c-.24-.377-.061-.488,0-.75l-.375-.187-.187-.937h-.187l-.187-.562h-.375l-.562-.75h-.375l-.375-.562h-.187l-.187-.562c-.183-.135-1.15-.253-1.125-.562h-.187v.375c-.518-.135-.419-.052-.562-.562-.214-.214-.075,0-.187-.375h-.562v.375h-.375v-.375h-1.312v.375h-1.124l-.187.375h-.937a1.522,1.522,0,0,1-.562.937v-.187h-.562v.75l-.937.375c-.47.774.691.9-.562,1.312v.375h-.375l-.187.562s.241.159.187.375h-.187a2.391,2.391,0,0,0,0,1.5h-.375c.183.632.227.359.562.75h.187v.375a3.141,3.141,0,0,1-1.686.188v-.187h-.375v-.187H-111v-.187l-.375-.187-.187-.562h-.375l.562-4.122.375-.187.187-.562h.187v-.375l.375-.187v-.375h.187v-.375h.187l.187-.375h.375l.375-.749.75-.562.187-.375h.375l.375-.562,1.125-.375v-.187h.375v-.187h.75v-.187h.937v-.187h1.5v-.187l.375.188v-.187h.749v.188l1.874.187v.188l.749.187v.187h.375l.375.562h.375v.187h.562v.188h.375l1.125.937v.562h.187l.375.562h.375v.188h.375v.187h.188l-.187.375.562.375ZM-195.748-394.4l-.75.188c-.337-.509-.978-.613-1.312-1.124H-198l-.187-1.125h-.187v-.562h-.187v-.937h-.187v-.375h-.187v-.187h.187l-.187-.75h-.562c.073-.584.621-.848.375-1.5l-.375-.187-.187-2.061-.375-.187.187-1.874h.375c.2-.765.588-.6,1.5-.562.259.454.714.618.937.937v.375l.375.187v.562h.188l-.187.375.188,3.56h.187l-.187.562.375.188-.187.75h.187v.937h.187v1.312h-.187Zm246.085-9.181c-.374-.113-.161.026-.375-.187C50.336-403.651,50.123-403.79,50.337-403.577ZM-76.44-401.328l.187.562h.187v.375h.187v.75h.188l.187.562h-.187v.188c-.282.129-.375-.187-.375-.187l-.562.188.375,3h.187l-.187.937h.187v.562h.187v.75h.188v.375h.187l-.187,1.687h.187l-.187.562h.187v.375h.187c.141.433-.184.5-.187.75h.187v2.623h.187v.937c.072.255.17-.077.187.187l-.187.187h.187l.187,2.623.375.187v.75h.187v.375H-74v.75h.187v-.187l1.124.187v.187h.187v.937h-.187l-.187,1.124-.562.375-.187.562c-.354-.224.133-.1-.187-.375l-.187.187h-1.312l-.562-.75h-.187l-.187-.749-.375-.187-.187-1.312H-77v-.562h-.187v-1.124h-.187v-.562h-.187v-.562h-.187v-.75h-.187v-1.686h-.187v-1.124h-.187l.187-.75-.375-.187.187-1.312H-78.5v-1.312h-.187V-392.9l-.375-.187a8.681,8.681,0,0,1,.187-2.248l-.562-.375v-1.124a14.829,14.829,0,0,1-.187-4.871,3.971,3.971,0,0,1,1.5-.562c.378.434.476.117.937.375v.188A1.585,1.585,0,0,0-76.44-401.328Zm15.552,4.684,1.5-.375v.375l.375.187-.187,1.125h-.187l.187.562c.893.241,1.3,1.113,1.874,1.686a40.509,40.509,0,0,0,4.5,3.935v.188l.375.187v.375l.562.188v.562c.645.382.544.577.937,1.124l2.248,2.061v.375h.187l.375.562h.375l-.187.375a3.86,3.86,0,0,0,2.061.937v.375h.187v.187H-45.9v.749c-.527.12-1.835.96-2.436.75l-.187-.375h-1.124l-.187-.375a3.472,3.472,0,0,0-1.312-.749v-.375c-.525-.325-.711-.884-1.124-1.312l-.562-.375c-.375-.617.313-.641-.75-.937-.136-.517-.052-.419-.562-.562-.148-.577-.353-.632-.937-.75l-.187-.75h-.375v-.375h-.375v-.375h-.562v-.187c-.233-.177-.2-.425-.375-.562-.495-.392-.745-.2-.937-.937-.851-.223-.814-.778-1.312-1.312h-.187l-.187-.375h-.375l-.562-.937c-.766-.845-1.776-1.272-2.061-2.623h-.375c.107-.458.2-.413.375-.75h-.375a5.492,5.492,0,0,1,.187-1.312l1.312-.375.187.187v-.187l.375-.187Zm89.3-.375H28.6c.639,1.741-.042,3.618-.375,5.434h-.562l-.187-.75h.375v.375h.375v-.562h-.75v-.375h.375a4.14,4.14,0,0,0-.187-.75h.188v-.187h-.187v-.375h-.187a3.425,3.425,0,0,0,.187-.75l.937-.187v-.187h-.187v-.562h-.187v-.375H28.04v.188l-.562-.187v-.187h-.187v-.187l.562.187c.288-.224-.163-.144.187-.375v.375h.375Zm-261.45.187c.087.747.317.666.375,1.5l-.562.187a1.649,1.649,0,0,0,.375.75h.187l.188,1.874h.187c.033.263-.118-.068-.187.187v.562h-.187l.188,2.061h-.187v.375h-.187l.187,2.436h.188v.937h.187v.375h.187v.937l.375.187v.562h.187l.375,1.124h.187a.292.292,0,0,1-.187.375l.187.937h.187a7.344,7.344,0,0,1,.562,1.5c.763.222.2.145.562.562a1.832,1.832,0,0,0,.937.375v.375c.187.1.323.345.375.375h.562l.375.562c.275.1.777-.388,1.312-.187l.187.375c.258.063-.076-.162.187-.187a.327.327,0,0,1,.375.188l.375-.187v.188h.375v-.187c.255-.218.286-.342.375-.749h.375l-.187-.375h.187a2.255,2.255,0,0,0,.375-.75h.375l.562-1.124h.375v-.187h1.312l.187-.375a.5.5,0,0,1,.562.187c.218.025,1.305-.373,1.874-.187a11.076,11.076,0,0,0,1.312.562,1.662,1.662,0,0,0,.187.75h.187l-.187.562c-.754.121-.731.032-1.124.75-.389-.2-.332-.3-.937-.375v.375h-.562c-.225.893-.844.863-1.5,1.312v.188a1.456,1.456,0,0,1-.75.375,2.031,2.031,0,0,1-.562.937h-.187v.562h-.187l-.75.937h-.375a2.493,2.493,0,0,1-.562,1.124h-.187v.562h-.187v.375l-.375.375v.375l-.562.375-.187.75-.562.375v.749l-.375.187-.187,1.124-.375.188v.75h-.187v.375h-.187v.562h-.187v.375l-.375.187-.375,1.686c.338.177.3.259.75.375a1.824,1.824,0,0,1-.187.75l-.375-.187v-.187h-.187v.187c-.754.636-.18,2.15,0,3a1.893,1.893,0,0,1,.937.188v.187h.937v.188l3.747-.375v-.187h.937v-.187h.375v-.187h.937v-.187h.375v-.187l1.686-.187v-.187l.75-.187v-.187h.937v-.187l1.124-.375v-.187h.562v-.187h.375v-.187l1.687-.562.187-.375,1.312-.375.187-.375h.562l.187-.375h.562l.187-.375.75-.187.187-.375h.375l.375-.562.937-.187.562-.75h.562l.375-.562h.375v-.187h.375v-.187h.562l.187-.375a3.627,3.627,0,0,1,1.686-1.124c.314-1.109.8-.446,1.125-.937v-.375h.375v-.375l1.5-.187a1.376,1.376,0,0,1-.375.937h-.187v.562h-.187a2.231,2.231,0,0,0-.562.937c-.742.209-.242.059-.562.562h-.187v.375l-.375.188-.75.937-.562.187v.375c-1.056.128-.608.467-1.125.75h-.375v.375a3.565,3.565,0,0,0-1.5.937l-.187.375h-.562v.188l-.937.187v.375l-.937.75v.187l-.937.187v.188h-.375l-.187.375c-.7.379-.836-.207-1.125.75a5.9,5.9,0,0,0-2.248.937v.187h-.562l-.187.375-1.312.187-.187.375h-.375v.187l-1.312.187v.187h-.375v.188h-.937l-.187.375-.375-.187v.187h-.375v.188h-.562v.188h-1.124v.187l-1.124.187v.188l-.562-.187-.375.188v-.187h-.187v.188h-.75v.187H-226.1v.188l-2.249-.187v-.187l-.937.187-.187-.375h-.562l-.375-.562-.937-.75-.187-.937-.375-.187v-.937h-.187v-1.686h-.187l.187-.375s-.246-.153-.187-.375h.187v-.375h.187l.187-2.811.562-.375.187-.937h.187v-.375h.187v-.562h.187v-.375l.375-.187v-.562h.187v-.75h.187v-.187h-.187v-.187h.375c.165-.761.667-1.093.937-1.687l.187-.937.375-.187v-.562l.375-.187v-.375h.187l.187-.562h-.187v-.187l-2.436-.562v-.375l-1.687-.562-.187-.562c-.9-.25-.221-.171-.562-.75h-.187a1.5,1.5,0,0,1-.375-.749h-.375v-.375c-.732-.525-.206-1.15-1.5-1.312l.187-2.061-.562-.187v-.75h-.187l.187-1.124h-.375v-1.5l-.375-.187v-2.061a.5.5,0,0,1-.187-.562h.187l-.187-2.248h.187l-.187-.562.375-.187v-.375h.187c.052-.259-.121.069-.187-.187v-.562h-.187c-.146-.477.2-.952.187-1.125h-.187v-.75h-.187v-.375h-.187l-.187-.562c.577-.356.563-.918,1.312-1.124C-234.755-396.959-233.679-396.85-233.035-396.831Zm259.2.562v-.187H27.1l-.187.562h-.937C26.092-396.268,25.953-396.056,26.166-396.269Zm-234.656,1.686c1.009.261.981,1.138,1.5,1.874.336.478.726.315.937,1.124h.375c.614.375-.194.834,1.312.937a1.231,1.231,0,0,1-.187.75h-.187v.562h-.187c-.459.548-1.2.583-2.249.562-.572-1.224-.288-.28-1.124-.75v-.187l-.375-.187v-.375h-.187l-.75-.937h-.375v-.562h-.187v-.562h.187l-.187-.562-.75.188v-.187c.214-.214.075,0,.187-.375-.607.218-.473.118-1.124,0l-.187-.749-.375-.187c-.176-.565.4-.138,0-.937h.187c.215-.363.5-.446.75-.749a12.71,12.71,0,0,1,2.436.187A3.421,3.421,0,0,1-208.49-394.583Zm-161.324,3.373c.732.208.248.052.562.562h.188v.375h.187v.375l.375.188v.375l.562.375.188,1.124.375.187c.256.4,1.076,1.753.75,2.623h-.187v.375l-.375.187v.562l-.75.562v.375h-.187c-.582-.787-.581.1-1.312-.375v-.187a6.126,6.126,0,0,1-.375-1.686h-.375v-.75l-.937-.187v-.375h-.75v-.187h.187c.214-.213,0-.074.375-.187a6.544,6.544,0,0,0-.749-1.5h-.375v-.375c-.451-.306-.118-.144-.375-.562H-373v-.375l-.375-.187v-.375a3.007,3.007,0,0,0-1.687-.75,2.776,2.776,0,0,1,.188-1.124c-.265.01.074.142-.187.187-.161.354-.187-.375-.187-.375h.188v-.187h-.187v-1.124h.375l.187-.562,1.312-.187v.188l.937.187.188.375h.375l.375.562,1.686,1.5Zm205.731.937v.375c.871.24.651.6,1.124,1.125l.75.562v.375h.187c.258.278.1.244.562.375.051,1.165.2.984.562,1.687v.375h.187v.562h.187v.937s.245-.011.187.375h-.187v.937h.187l-.187,4.684h-.187v.375h-.187l-.187,2.623h-.187v.375h-.187l-.187,1.125h-.187l-.187,1.312-.375.187-.562,2.061-.375.188-.187.937-.375.188v.562l-.562.375v.562l-.937.75-.187.75-.562.375v.562h-.187c-.294.645.27.5-.562.75l-.375,1.124h-.375c-.457.791-1.315,1.2-1.874,1.874l-1.686.187v-.187a1.543,1.543,0,0,0-.75-.187c.093-.93.44-1.023.937-1.5l.188-.375.562-.187v-.375l.562-.375v-.375l.375-.187.187-.75.375-.187v-.562l.375-.187.187-.937.562-.375v-.562l.75-.562v-.562h.187l.188-.562h.375l.75-2.061h.187l.187-1.312h.187l.187-1.5h.187v-.375h.187v-.937l.562-.375v-.375h.187c.135-.432-.382-1.046-.375-1.312h.188l.562-2.436h-.187c-.053-.336.187-.375.187-.375l-.375-2.248c-.34-.961-1.056-1.839-1.124-3h-.375c-.128-.548-.209-.613-.75-.75v-.375a7.5,7.5,0,0,0-1.686.188l-.75,2.248-.375.187c-.223.465.037.93-.187,1.312l-.375.188v.562c-.1.246-.181-.078-.187.187.079.089.307-.049.187.188l-.375.188v.375l-.375.375v.375h-.187v.375h-.187v.375h-.187v.562h-.187l-.187.937h-.187c-.213.213,0,.074-.375.187-.089.784-.451.973-.75,1.5v.375l-.375.187v.375l-.375.187v.375l-.562.375v.375l-.75.563-.187.749-.375.187v.188l-.375.188v.375h-.187a1.532,1.532,0,0,0-.375.75c-.549.128-.614.209-.75.75h-.375c-.227.4-.422.408-.562.937h-.562c-.177.338-.259.3-.375.75h-.375l-.187.562h-1.125l-.375.562a6.551,6.551,0,0,1-2.623-.187,3.368,3.368,0,0,1-2.061-1.874c-.747-.226-.231-.052-.562-.562h-.187v-.375l-1.312-.937v-.375h-.187v-.562l-.375-.187v-.562h-.187c.053-.346.185-.37.187-.375v-.937h.187l-.187-.375.75-.562v-.75l.375-.187.187-1.312h.187l.187-1.124.562-.375.187-.937.749-.562.187-.562.375-.187.187-.562h.187a1.51,1.51,0,0,0,.375-.75h.375c.265-.455.7-.612.937-.937l.188-.562h.187a3.781,3.781,0,0,0,1.124-1.5h.375l.75-.937h.562v-.187h.375v-.187c.285-.253.246-.1.375-.562a1.527,1.527,0,0,0,1.124-.375v-.187h.562l.375-.562h.562v-.187l1.124-.375v-.187h.75l.188-.375h.937l.187-.375h.375v-.187h.749v-.187h.75v-.187h.75v-.187h.75v.187a6.529,6.529,0,0,0,1.874-.187v.187l.75.188v.187h1.124v.187A1.465,1.465,0,0,0-164.083-390.273Zm-6.37,2.81a1.478,1.478,0,0,1-.375.937h-.187v.562h-.187a4.808,4.808,0,0,0-.562,2.061h-.375a3.383,3.383,0,0,1-.187,1.5l-.375.187v.375h-.187l-.187,1.312-.562.375-.187.75-.75.562v.375l-.562.375v.375l-.937.75v.562h-.187v.375l-.375.188-.187.749-.749.562v.563h-.187l-.187.562a2.769,2.769,0,0,0-1.5.75l-.187.375c-.535.386-.759.292-1.124.937a7.15,7.15,0,0,1-2.061-.375c-.085-.723-.306-.774-.375-1.5h-.562l.187-1.124a.323.323,0,0,1-.187-.375h.187v-1.312l.375-.187v-.75l.375-.187v-.375h.187l.375-1.124c.374-.113.161.026.375-.187h.188l-.187-.562h.188v-.187h.187v-.375c-.336.179-.292.267-.75.375.043-.422.02-.495.188-.75h.187c.363-.6.142-.927.937-1.124-.13.51-.254.424-.375.937.374-.113.161.026.375-.187.51-.143.427-.044.562-.562h.562l-.187-.375c.079-.12.253-.127.375-.375h.375v-.375h-.562v.187h-.375v-.187c.577-.233.749-.072.937-.75h.375l.187-.375.562.188c.113-.374-.026-.161.187-.375v-.187h.188v.375h.187v-.749a5.049,5.049,0,0,0,1.874-.75v-.375l.375-.187v-.187l.375.187v-.187h1.124c.073-.605.17-.547.375-.937h.562v-.375C-171.74-387.116-171.546-387.442-170.454-387.463ZM-383.3-372.474v.375l-.562.187.188.188a5.478,5.478,0,0,0-.187.75l-1.312.187s-.018-.236-.375-.187a.493.493,0,0,1-.562.187s-.124-.325-.375-.375c-.089.052-.139.266-.375.375l.187-.562h-.562c-.28-1.026-.723-.46-.75-2.061h.375l.187-.75h.375v-.187l.562.188.562-.75.75-.187.937-1.124,1.874-.187v-.187l1.125-.187v-.187h.375l.187-.375,2.436-.75v-.375l.188.187h.187v-.187h.562v-.187h.562l.187-.375h.375v-.187h1.124v-.375c1.327-.131,1.6-.891,3.185-.937v-.375l.937-.187v-.375l1.686-.562v-.375h.188v.187l1.5-.562v-.187H-367v-.187h.75v-.187h.562v-.187h.375v-.187h.562l.375-.562a1.067,1.067,0,0,1,.937.187v-.187c.214-.214.075,0,.187-.375l1.686-.187v-.187h.375v-.187a10.069,10.069,0,0,1,3,0l.562.75h.187v2.436c-.255.218-.286.342-.375.75-.506.29-.933.645-1.5.937v.188c-.26.052.077-.2-.187-.187l-.937.188v-.187l.562-1.686h-.75c-.572.616-1.095.411-1.874.75v.187h-.375v.187h-.75v.187h-.375v.188h-.75v.187h-.562v.188h-.562v.187h-.562v.188l-.75.187v.187h-.375l-.187.375h-.75v.188h-.375l-.187.375-.937.187v.187h-.749l-.187.375-.562.188v.188l-1.125.188v.187H-373v.187h-.375l-.187.375h-.75v.187h-.375v.188c-.477.243-.972.165-1.5.375v.188l-1.686.375-.187.375h-.562l-.187.375-1.5.188-.375.562-.75.188-.187.375h-.562v.188h-.562v.188Zm39.347-9.743v.562h.375v1.5l-.562.187v.188h.188c.354.161-.375.187-.375.187v-.187h-.187v.187h-.375v.187h-.562v.188h-.187v.562l-.562.375c-.148.323.114.288.187.375v.187h-.187v.75l-.375.187v.562l-.375.188v.562h-.187l-.187,1.312-.562.375-.187.937h-.187l-.187.75h-.187v.562l-.375.188v.375h-.187v.187h.188l-.187.937-.375.188-.187.562h-.187v.562h-.187a6.991,6.991,0,0,0-.375,2.436h-.375a10.743,10.743,0,0,0-1.687,4.5h.187l.562-.937.937-.187v-.187h.375l.562-.75.375-.187v-.375c.2-.241.453-.009.75-.187.532-.32.071-.613,1.124-.75v-.375l1.686-.375v-.375a2.851,2.851,0,0,0,1.5-.75v-.375l.562.187v-.187c.214-.213.075,0,.187-.375.517-.135.419-.052.562-.562h-.375c-.333-.2.375-.187.375-.187l.188-.562h.187v-.375h.188v-.375l.75-.562-.187-.375h.188v-.375h.187v-.375l.562-.375v-.562h.187l-.187-.562h.375c.294-.483.761-.551,1.124-.937l-.187-.375c.523-.38.495.34.75-.562h.375c.162-.657.468-.7.562-1.5h.562c.113-.25.311-.27.375-.375-.2-.651-.023-.921.749-1.124l.375-1.125h.375v-.562h.188c.3-.424.586-.546.75-1.124h.375l.188-1.124h.375a4.674,4.674,0,0,1,.562-1.124h-.375c-.333-.2.375-.187.375-.187v-.375l.562-.187v-.187h.375v-.187l1.874.375a5.052,5.052,0,0,1,.75,1.5h.375v.375l.375.187c.165.392.029.959.188,1.311h-.187v.188h-.75l-.187.375c-.515.214-1.051-.292-1.312-.187v.188c-.213.213-.074,0-.187.375h-.375c-.227.4-.422.408-.562.937h-.375c-.27.462-.588.522-.75,1.124h-.562l-.187.937c-.577.148-.632.353-.75.937h-.375a2.181,2.181,0,0,1-.562,1.124l-.375.188v.75h-.187v-.187c-.353-.138-.828.39-.937.562h-.187l-.187,1.124h-.562v.188c-.482.341-.665.754-1.312.937-.164.669-.73,1.036-1.124,1.5h-.187l-.187.562h-.375v.188l-.562.187v.188h.562c.466-.656.327-.065.937-.375l.188-.375.562-.187v-.187h.562v-.187l.75-.187c.207-.165-.187-.187-.187-.187v-.187l.75.187v-.187h.375v-.187c.445-.342.406-.458,1.124-.562v-.375l2.436-.375v-.187h.375v-.187l.562.188v-.187h.375l.187-.375h.937l.187-.375h.187v.187l1.687.188v.187a1.639,1.639,0,0,0,.75.375l-.187,1.687c-.839.5-1.029,1.6-2.061,1.874l-.187.749-1.124.375c-.177.338-.259.295-.375.75-1,.018-.874.264-1.687.375v1.5h.188v.375h.187a2.946,2.946,0,0,0-.187,1.312h.187v.375l.375.187c.054.15-.155.846-.187,1.312.4.227.408.422.937.562.461-.658.423-.046.937-.375v-.187h-.375v-.375c1.081.322,3.249-.3,4.5.188a3.759,3.759,0,0,1,.375,1.5,1.708,1.708,0,0,0-.937,1.125h-.375l-.187.375c-.234.037-.319-.333-.75-.187v.187h-.375v.188h-.375v.187c-.263.033.078-.188-.187-.187l-1.124.187v.375h-.375a4.014,4.014,0,0,1-.562.562v2.623a10.833,10.833,0,0,1,.375,3,8.13,8.13,0,0,0,2.623-.562h1.124s-.026-.24.375-.187a.32.32,0,0,0,.375.188v-.187h1.124v.188c.66.215,1.3-.217,1.5,0,.55.311.581.607.562,1.5-.213.214-.074,0-.187.375a1.633,1.633,0,0,0-.749.375v.187h-.937v.188h-.375v.187l-.375-.187v.187h-.562v.187h-.375v.188h-.562v.187h-.937l-.187.375h-.75l-.187.375-.562-.187v.562h-.375a16.921,16.921,0,0,0,.188,5.246l-.187,2.249h-.187l.187.562,1.124-.187v-.187l.375.188v-.187h.75v-.187h.375v-.187h.562v-.187h.75v-.187h.75v-.187h1.312l.188-.375h.562V-341h.562v-.187l1.874-.187v-.187h.375v-.187c.349-.114.263.1.375.187h.187v-.187h.937v-.187h.562v-.187l.562.187v-.187h2.436c.26-.052-.076-.217.187-.187v.187h.562a1.826,1.826,0,0,1-.187.75l-.562-.187v.375h-.375v.562h-.187c-.174.2.042.054-.187.187h-.187l-.187.375h-.749l-.187.375h-.375v.187h-.375v.188h-.562v.188h-.375v.187h-.562v.187h-.562v.188h-.562v.188l-1.124.187-.187.375-1.874.187-.187.375-1.686.375v.188l-.75.187v.187h-.75v.188h-.562v.187h-1.5l-.375.562c-.264.016-.095.041-.187-.187-.224.214-.068,0-.187.375h-.375v.375h-.375a2.025,2.025,0,0,1-.562.937h-.187v.562h-.187c-.3.387-.363.606-.937.75-.429.4-1.139.234-1.687.187a1.913,1.913,0,0,0-1.686-1.312v.188l-1.312.187-.187.375h-.75v.187h-.75v.188h-.375v.187h-.75l-.375.562h-.375v.187h-.375l-.375.375h-.375l-.187.375h-.375l-.375.562c-.157.061-.365-.281-.75-.187v.187l-.375-.187v.187a1.78,1.78,0,0,1-.937.188l-.187,1.874-.375.187a12.37,12.37,0,0,1,.187,1.5c-.719.432-.653.908-1.874.937v-.187h-.187l-.375.187a1.747,1.747,0,0,0-.375-.75h-.187v-1.686c.586-.659-.124-1.908,0-2.623h.187c.051-.26-.141.073-.187-.187v-.187h.187c.058-.37-.187-.375-.187-.375l.187-.562h-.187l-.187-.562h.188v-.375h.187v-1.124h-.187v-.187h.187v-1.5h.187v-2.81l.188-.187h-.375l.187-.375-.187-.562h.187v-.75l.188-.187c-.113-.215-.335.086-.375-.562l.187-1.5h.188c.034-.263-.134.072-.187-.187v-1.124h.188v-.187h-.187v-.562h-.187v-.187l.187-.187h-.187v-.937h.187l-.187-1.874-.375-.187c-.1-.314.18-.337.188-.375v-1.124h-.187l.188-.937h-.187v-2.623l-.375-.187c-.057-.172.273-.356.188-.75h-.187a.325.325,0,0,1,.188-.375l-.187-.375h.188v-.562l-.375-.187c-.31-.643.048-2.328-.375-2.81v.375l-1.125.375.187.187-.375,1.312-.562.375-.187,1.125-.75.562-.187,1.124-.375.187-.187.937h-.187v.375h-.187v.562h-.187c-.44.891-.471,1.738-1.686,1.874a.882.882,0,0,0-.75-.375l-.187.187v-.187h-.375l.187-2.061c-.061-.17-.549-.1-.375-.75h.188v-.375h.187v-.937h.188l-.187-.75h.188v-.75h.187l-.187-.937.562-.375v-1.686h.187v-.562h.188v-.375l.375-.187v-1.125h.375c-.042-.416-.238-.647,0-1.124l.375-.187v-.375h.187v-1.312h.187c.121-.322.081-.491.187-.75l.562-.187.187-1.125h-.187v-.187h.562l.187-1.687.375-.187v-.562l.375-.187v-.937h.187v-.375h.187v-.937l.562-.375c.147-.221-.163-.1-.187-.187-.268-.263.343-.178.375-.187l-.187-.562.562-.375v-.75h.187v-.375l.375-.187.187-1.312h.375l.188-.562h.187v-.562l.375-.187v-.562h.187l-.187-.937h.187c.214-.213,0-.074.375-.187.1-.62.237-.853,0-1.124-.214-.213,0-.074-.375-.187v-.562h.188c.214-.213,0-.074.375-.187v.375l.562-.187c-.006-1.773.537-2.4.562-4.122h.375l.187-.562a10.7,10.7,0,0,1,1.874-.375c.214.214,0,.075.375.187.136.262.523.489.562.562v.75l.375.188C-344.184-382.369-344.842-382.474-343.957-382.217Zm40.659,20.236h.375v.375a1.808,1.808,0,0,1,.937.375l.187.562c.195.129.53,0,.75.188l.375.562h1.5l.187.375,1.874.188v-.187h.187v-.937h.375v.375h.375c.3-.515.463-.337.562-1.124l.75.188v-.375a9.328,9.328,0,0,0,1.5-.375v-.375c.292-.025,3.009-.447,3.56-.187v.187a1.773,1.773,0,0,0,.75.375l.187,1.686-.75.562v.375h-.187l-.375.562h-.375l-.562.75h-.375v.375h-.75l-.187.562a3.106,3.106,0,0,0-1.312.187v.188c-.464.159-.351-.334-.937,0l-.187.375h-.375v.187l-.375-.187v.187h-.375l-.375.75c-.276-.044-.3-.18-.749-.187v.375h-.375a3.08,3.08,0,0,1-.937,1.312l-.375.187-.375,1.124-.562.375v.562l-.375.187v.749l-.375.187v.375l-.375.187a2.447,2.447,0,0,0-.375,1.5h-.375c-.349.238-.214,1.67-.187,2.248.515.2.855.3,1.124.75h.187v-.187l.375.187v-.187h.375a.493.493,0,0,0,.562.187v-.187h1.124v-.187h.937v-.187h.937l.188-.375h.562v-.187h.375l.187-.375h.562v-.187l.75-.187v-.187h.562v-.187h.375v-.187h.375l.187-.375.937-.187.375-.562h.375l.562-.75h.375l.187-.375.75-.187.75-.937.562-.187v-.375l.375.188v-.187h.375v-.187h.562l.562-.937.75-.187.375-.562h.562l.562-.75.562-.187.188-.375h.562l.562-.75h.562v-.187h.188v-.375c.632-.177.7-.461,1.312-.75v-.187l1.5.187a1.5,1.5,0,0,1-.375.75h-.187l-.375,1.312-.75.562v.375l-.375.187v.187l-.375.188v.375h-.187a1.528,1.528,0,0,0-.375.75,5.783,5.783,0,0,0-1.686.937l-.187.562h-.75c-.235.835-.412.518-.937.937l-.375.75h-.375v.187h-.375l-.187.375-.75.187-.75.937h-.375v.187c-.512.327-.339-.18-.562.562a6.587,6.587,0,0,0-2.061,1.125l-.75.187-.75.937-1.312.188-.187.375h-.562v.187h-.375v.187h-.562l-.187.375h-.375v.187l-.562-.187-.187.375c-.242.109.017-.142-.187-.187h-.187v.188h-.375v.187l-1.312.188v.187h-2.061v.187h-.562v.188h-.187v-.187h-.75v-.187c-.26-.049.073.139-.187.187a.328.328,0,0,1-.375-.187,4.048,4.048,0,0,1-.75.187l-.187-.562h-.562c-.135-.518-.052-.419-.562-.562l-.187-.562h-.187l-.187-.937-.375-.187v-1.312h-.187v-.749l.375-.187c.173-.435-.215-.733-.187-.937h.187l.375-1.686h.375v-.937l.375-.187v-.75h.187l.187-.562h.375c.045-.423.02-.494.187-.75h.188v-.375h.188l-.187-.375.562-.187a6.381,6.381,0,0,0,.562-1.312h.375v-1.312h-.375v-.187l-.562.187v-.375l-.75.188.188-.562h-.375a1.984,1.984,0,0,0-1.5-.375c-.144-.6-.283-.4-.375-1.124h-.375v-.375l-.75-.187.187-.562-.375.187c-.3-.243.2-.353-.562-.562v-.562h-.375c-.135-.518-.052-.419-.562-.562l-.187-1.124h-.375l-.562-2.436h-.187l.188-.562v-.187h-.187a.508.508,0,0,1,.188-.562l-.187-.562h.188v-.937h-.187c-.123-.694.968-1.1.562-1.5-.107-.458-.2-.413-.375-.75h.375l.187-1.124h.187l-.187-.562h-.187a2.379,2.379,0,0,1,.187-1.312h.187l-.187-.562c.517-.135.419-.052.562-.562.332-.408-.067-1.114.188-1.687l.375-.187v-.562l.375-.187c-.039-.261-.295-.309-.187-.75.014-.059.243-.053.187-.375a.276.276,0,0,1-.187-.375l.375-.187v-.375l.375-.187c.289-.506-.2-.355.375-.75.407-.419,1.213-.392,2.061-.375l.375.562h.188v.562l.375.188a14.26,14.26,0,0,1,.375,1.5h-.187c-.279,1.181-.587.609-1.124,1.312h-.187v.937c-.576.627-.032,1.452-.375,2.249l-.375.187v.937h-.187v.75h-.187c-.05.26.041-.033.187.187-.043.261-.111-.066-.187.187v.75h-.187v1.312h-.187v.188h.188v2.436c-.011.048-.276.055-.187.375h.188v.375l.375.187v.375l.375.188v.375l.375.188v.562l.375.187v.375h.187Zm83.567-17.238v.375h-.187v-.375Zm79.516,3.185h.187v-.187c.21-.1.516.541.562.562h.75c-.019.618-.045.844-.375,1.124-.14.529-.335.538-.562.937h-.375v.375l-.562.187v.188l-.937.188v.187h-.562v.188l-2.436-.187v-.187l-.562.187a5.078,5.078,0,0,1-.562-1.874,4.87,4.87,0,0,0,1.5-.375h.188l-.187-.562c.041-.1.257-.008.375-.562.374.113.161-.026.375.187h.187v.562h.375c.113-.374-.026-.161.188-.375v-.187c.3-.033.227.3.375.375l.75.187c.113-.374-.026-.161.187-.375v-.187l1.124.188Zm-5.621,5.059v.187h-.562l-.187-.562C-146.132-371.234-146.174-371.151-145.837-370.974Zm-112.68,7.12h-.375c-.249,1.006-.306.409-.937.75l-.187.375h-.375v.188l-.562-.187a5.5,5.5,0,0,0-.187-.75h.187v-.187h-.187v-.187h.187v-.937h-.187l.187-.562-.375-.187.188-.562-.562-.375-.375-2.061c.658-.392.732-1,1.687-1.124v.188h.75v.187c.594.31.938.407,1.124,1.125C-257.851-367.511-258.46-365.059-258.517-363.854Zm-104.739-4.684v.375h.562a1.748,1.748,0,0,0,.375.749h.187v1.312l-.562.187c-.408.336-1.086-.035-1.686.188v.187h-.375v.187h-.75v.187h-.375l-.187.375-1.686.562-.187.375-.375-.187-.187.375h-.375v.187h-.75l-.187.375h-.375v.187h-.75l-.375.562h-.375l-.187.375-.562.188v.187h-.375l-.187.375h-.562l-.187.375h-.375v.187c-.508.322-.348-.178-.562.562h-.375v.375l-.75.187-.187.375c-.616.261-1.619-.284-2.061-.375a2.754,2.754,0,0,1-.187-1.312h.188v-.187a.335.335,0,0,1-.187-.375h.188v-.187h-.187v-.375h.562c.259-.988.624-.7,1.312-1.124l.187-.375h.562l-.187-.375.937-.187.375-.562h.375v-.187l.75-.187v-.187h.562l.187-.375h.375l.187-.375h.562v-.187a1.683,1.683,0,0,1,.937-.187v-.375h.375v.188H-370l.188-.375,1.686-.375.375-.75h.75v-.187h.75v-.187h.375v-.187Zm24.733,2.436.187,1.125c-.031.263-.158-.076-.187.187l.375.188c.109.309-.181.344-.187.375v.187h.188c.065.32-.175.321-.187.375l.188.562h.375a6.466,6.466,0,0,1,0,3.185l.562.188-.187.937a1.775,1.775,0,0,0-1.312.562v.187h-.562l-.187.375h-.75v.187l-1.686.562-.187.562c-1.061.227-1.8.892-2.81,1.125v.375h-.937l-.187-.375-1.5.187v-2.061h-.187l-.187-.75h-.187c-.248-.732.324-1.15,0-2.061.575-.4.079-.273.375-.75h.188l.562-.75h.187v.187l.375-.187.188-.187-.187-.562.75-.375.187-.562h.75l.187-.375h.562l.187-.375h.562v-.187h.375l.188-.375h.375v-.187l.75-.187v.188h.188v-.187h.375v-.375h.187s.115.322.375.188v-.187c.052-.035.375-.375.375-.375h.562v-.375Zm-22.3,8.245v.375l.375.188-.75,2.248c-.527.24-.766.492-1.312.75v.188l-1.5-.187v.188h-.375v.188h-.562l-.187.375h-.562l-.187.375h-.375l-.562.75h-.375l-.187.375h-.75v.187h-.375l-.375.562h-.375l-.187.375-1.874.375-.375.562h-.562l-.187.375h-1.124v-.187a4.5,4.5,0,0,1-.75.187c-.394-.578-.242-.086-.75-.375l-.187-.375h-.375c-.112-.074-.146-.251-.375-.375l.187-.187a5.567,5.567,0,0,1-.187-.75l1.124-.937.187-.375,1.686-.187.187.188.187-.375,1.874-.562v-.187h.375v-.187l.562-.187v-.375c1.461-.128,1.665-1.024,3.185-1.124v-.375l.75-.187v-.375l.562-.187v-.187h.562l.188-.375h.937v-.187h.375v-.187a4.13,4.13,0,0,1,1.686-.187C-361.352-357.978-361.228-357.947-360.821-357.858Zm24.358,2.248h.188v.75c.039.09.343.053.375.375-.143.191-.624.3-.375.937l.375.188v.187h-.187a4.436,4.436,0,0,1,.188.75h-.375a3.744,3.744,0,0,0,.375,1.312h-.375l.187.562h.188v.562h.187v.187l-.937.187v.188h-.562v.187h-.75l-.187.375h-1.124v.187H-340.4v.188h-.375v.187l-1.312.188v.187c-.232,0-.339-.358-.75-.187l-.187.375-1.125.187v.187h-.375v.187h-.562l-.187.375a1.944,1.944,0,0,1-1.312.749v-2.436h-.187c-.059-.379.188-.375.188-.375v-1.124c.529-.14.538-.335.937-.562v-.562l1.124-.187v-.187c.315-.214.261-.114.375-.562a2.173,2.173,0,0,0,.937-.375l.188-.375h.937l.375-.562h1.124l.75-.937,1.124-.187.187-.375a5.049,5.049,0,0,1,2.061-.375Zm-4.871,10.68h1.5v-.187h.375v-.187h.562v-.187h1.124v-.187l1.687-.187v-.187h.375v-.187h.188v.187h.375v.562h-.375v1.124h.375v1.124l-.375.188.375,1.5c-.06.581-.381,2.528-.562,3.56h-.562v.375h-.375v.375l-.562-.187v.375l-1.874.187v.188h-.375v.187l-1.312.187v.188h-.75v.187h-.562l-.187.375-1.686.188V-335c-1.332.166-1.406,1.064-2.811,1.125l.188-11.055.562-.187c.175.642.4.482.562,1.124h.75c.259.058-.075.222.187.188v-.187l1.5-.187v-.375A6.855,6.855,0,0,0-341.334-344.93Zm-17.238,2.623.187.937.375.187.188.75h.187a12.635,12.635,0,0,1-.562,5.059c-.214.213,0,.074-.375.187-.076.834-.341,1.1-.375,2.061.637.165.574.349.562,1.125-.4.353-.442.882-.749,1.312l-.562.375v.188h-.375v.187a3.288,3.288,0,0,1-1.312.937l-.187.75-.937.187-.187.375c-.521.347-.761.223-.937.937-.928.089-.941.54-1.686.749-.218.738-.05.24-.562.562v.187h-.375l-.187.375h-.375v.187h-.375l-1.124,1.312h-.187v-.187l-.375.187.187.375h.187c.087.272-.329.263-.375.375v.937h-.187l-1.312.937a8.706,8.706,0,0,1,.188,3.56,2.446,2.446,0,0,1-1.874.562c-.39-.665-.835-.83-.937-1.874-.518-.135-.419-.052-.562-.562h-.187c-.229-.411.2-.945.187-1.125h-.187v-.937h-.187v-.562h-.187v-.75l-.375-.187.187-1.124h-.375v-1.124c.007-.038.251-.065.187-.375h-.187v-.562l-.375-.187-.375-1.686.187-.187h-.187c-.272-.7-.442-.483-.562-1.312h-.375a2.822,2.822,0,0,0-.375-1.5l-.375-.187-.187-1.312-.562-.375.187-.937-.375-.187c-.345-.417-.351-.7-.375-1.5l.562-.375v-.187l.749-.187.375-.562.937-.187v-.187h.375v-.187l1.5-.187v-.187h.188v-.187h.187V-338h.188v-.375l.375-.187v-.375h.187c.154-.309-.072-.577.187-.749h.375c.328-1.23,1.267-1.152,2.248-1.687v-.187h.375l.187-.375h.562l.187-.375h.75l.188-.375,1.5-.187v-.187l.375.187v-.187l2.436-.187h2.811v.188h.375v.187h.562v.188h.375v.187C-359.062-342.325-358.994-342.364-358.572-342.307Zm-6.37,2.248h1.874v.188a3.574,3.574,0,0,0,1.686-.187l.75.937h.188c-.32.829.247,1.114,0,2.061h-.187v.749h.188v.188h-.187V-335h-.375a4.056,4.056,0,0,1-.375,1.874l-.562.375v.562l-.937,1.312-.75.188-.187.375h-.562l-.187.375a2.694,2.694,0,0,1-1.5.562V-329c-.374.113-.161-.026-.375.187h-.187v.562c-.8.094-.841.4-1.5.562v.375h-.562l-.187.375c-.279.165-.74.131-.937.375l-.187.562-.562.188.187.375h-.375c-.213.21,0,.08-.375.187-.144-.19-.23-.184-.375-.375-.5-.512-.107-1.153-.375-1.874h-.187v-.375h-.187v-.562l-.375-.187L-373-330.5h-.187v-.375h-.187l-.187-1.124h-.187l-.187-1.125h.562v-.187h-.375c.09-1.221.865-1.231,1.124-2.249.947-.036.992-.29,1.312-.937h.375a2.51,2.51,0,0,1,2.248-1.687v-.375h.187v-.187c.53-.4.472.333.75-.562A11.842,11.842,0,0,0-364.942-340.059Z" transform="translate(414.97 522.2)"/></svg>